<svg width="21" height="21" viewBox="0 0 21 21" fill="none" xmlns="http://www.w3.org/2000/svg">
<path fill-rule="evenodd" clip-rule="evenodd" d="M3.45378 0.0824037C2.75422 0.266769 2.17853 0.728523 1.85893 1.36156C1.58335 1.90739 1.5998 1.43637 1.5998 8.78653C1.5998 15.3527 1.60094 15.4481 1.68314 15.7447C1.78539 16.1136 1.86554 16.274 2.1106 16.6001C2.50796 17.1287 3.29407 17.5513 3.88502 17.554L4.01689 17.5546L4.02927 11.474L4.04166 5.39348L4.13099 5.07774C4.5124 3.73005 5.52877 2.77102 6.84315 2.51865C7.09048 2.47115 7.93068 2.46086 11.5556 2.46086H15.9672L15.9437 2.18134C15.8662 1.25631 15.2371 0.490017 14.2439 0.110869L14.007 0.0204291L8.88007 0.0119799C3.93732 0.00377678 3.74237 0.00631974 3.45378 0.0824037ZM6.89081 3.50922C6.0463 3.73152 5.36072 4.40631 5.10151 5.27043C5.03203 5.50204 5.0269 5.89542 5.01468 11.9551C5.00672 15.8893 5.01697 18.5308 5.04101 18.7463C5.15602 19.7764 5.73438 20.4988 6.75649 20.889L6.99335 20.9794L12.0793 20.9911C17.6826 21.0039 17.4508 21.0133 18.0059 20.7507C18.6494 20.4464 19.1529 19.8315 19.3354 19.1271C19.3936 18.9025 19.4006 18.1668 19.4006 12.2195C19.4006 5.58108 19.4003 5.56226 19.3142 5.24315C19.109 4.48256 18.5251 3.85724 17.759 3.57767L17.4523 3.46574L12.2844 3.45778C7.88667 3.45102 7.08277 3.45869 6.89081 3.50922Z" fill="white"/>
</svg>
