<svg width="35" height="30" viewBox="0 0 35 30" fill="none" xmlns="http://www.w3.org/2000/svg">
<path fill-rule="evenodd" clip-rule="evenodd" d="M6.47134 0.243172C6.41342 0.269471 6.39036 0.294614 6.34906 0.376435C6.22107 0.629973 0.184353 13.3185 0.1553 13.395C0.127488 13.4683 0.125397 13.4924 0.141598 13.5526C0.159006 13.6173 0.918158 14.3495 8.57761 21.6899C15.6319 28.4503 17.0051 29.759 17.0599 29.7737C17.105 29.7859 17.1456 29.7859 17.1911 29.7736C17.2464 29.7587 18.5905 28.4779 25.6664 21.6968C30.2917 17.2644 34.0841 13.6173 34.0939 13.5922C34.1038 13.5671 34.1187 13.5332 34.1271 13.517C34.1446 13.4829 34.1477 13.4249 34.1311 13.4415C34.1249 13.4477 34.1032 13.4126 34.0828 13.3636C34.0347 13.2483 27.9674 0.504632 27.8995 0.376265C27.8597 0.301006 27.8319 0.271222 27.7768 0.244515L27.7055 0.210022L17.1241 0.210396C6.75235 0.210753 6.54133 0.211416 6.47134 0.243172ZM9.05024 6.21952V8.20002H12.0167H14.9832V9.49202V10.784H14.9086C14.8676 10.784 14.6974 10.7919 14.5304 10.8015C10.7102 11.0215 7.7423 11.6949 6.83939 12.5467C6.63371 12.7407 6.54786 12.9065 6.54762 13.1102C6.54749 13.2201 6.55502 13.2502 6.61156 13.3652C7.10357 14.3657 10.3516 15.1834 14.7665 15.4181L14.9832 15.4296V19.5838V23.738H17.1337H19.2842V19.5832V15.4283L19.4585 15.4178C19.5543 15.4121 19.8163 15.3959 20.0407 15.3817C24.1172 15.1253 27.1687 14.3194 27.6324 13.3767C27.6866 13.2665 27.6907 13.2464 27.6905 13.0963C27.6902 12.9477 27.6858 12.926 27.6358 12.8298C27.3318 12.2452 26.1115 11.7201 24.1462 11.3283C22.8481 11.0695 21.3016 10.8862 19.6795 10.799L19.2842 10.7777V9.48889V8.20002H22.2507H25.2172V6.21952V4.23902H17.1337H9.05024V6.21952ZM14.5327 11.1087C11.0024 11.3123 8.37813 11.8707 7.72967 12.5564C7.60836 12.6846 7.56546 12.7746 7.56546 12.9005C7.56546 13.2335 8.00107 13.5455 8.87174 13.836C11.5311 14.7235 17.4349 15.021 21.9957 14.4973C24.6151 14.1965 26.3587 13.6624 26.6439 13.0733C26.6902 12.9777 26.6907 12.8255 26.6451 12.7249C26.6051 12.6368 26.4348 12.4638 26.3052 12.3798C25.5025 11.8594 23.6134 11.4346 21.1032 11.2102C20.7393 11.1776 19.9411 11.1221 19.4925 11.0982L19.2842 11.087V12.5316V13.9762L19.229 13.9859C18.8138 14.0586 15.7175 14.0588 15.0725 13.9862L14.9832 13.9761V12.5331V11.09L14.877 11.0925C14.8186 11.0939 14.6636 11.1012 14.5327 11.1087ZM0.12793 13.487C0.12793 13.5104 0.131789 13.52 0.136498 13.5083C0.141224 13.4966 0.141224 13.4775 0.136498 13.4658C0.131789 13.4541 0.12793 13.4636 0.12793 13.487Z" fill="white"/>
</svg>
