<svg width="35" height="34" viewBox="0 0 35 34" fill="none" xmlns="http://www.w3.org/2000/svg">
<path fill-rule="evenodd" clip-rule="evenodd" d="M12.3157 9.70466C9.34484 15.0399 6.93934 19.4304 6.97002 19.4611C7.00076 19.4918 9.42957 20.7005 12.3674 22.1469L17.7088 24.7769L18.189 24.5574C19.566 23.9279 28.5684 19.4814 28.5713 19.4293C28.5756 19.3504 17.7993 -0.000677691 17.7526 0.00204497C17.7331 0.00317387 15.2865 4.36939 12.3157 9.70466ZM14.4964 7.83592V8.89842H15.5257H16.555V7.83592V6.77342H15.5257H14.4964V7.83592ZM14.4964 11.8535V12.8828H15.5257H16.555V11.8535V10.8242H15.5257H14.4964V11.8535ZM8.51642 21.5986C10.3231 24.0586 17.7269 33.9966 17.7539 33.9981C17.7742 33.9991 18.327 33.276 18.9824 32.3912C19.6379 31.5063 21.7499 28.6618 23.6756 26.07C25.6015 23.4783 27.1669 21.3476 27.1545 21.3351C27.142 21.3226 25.0232 22.3432 22.4459 23.6032L17.76 25.8939L13.0713 23.6052C10.4925 22.3464 8.36601 21.3164 8.34582 21.3164C8.3257 21.3164 8.40247 21.4434 8.51642 21.5986Z" fill="white"/>
</svg>
