<svg width="25" height="24" viewBox="0 0 25 24" fill="none" xmlns="http://www.w3.org/2000/svg">
<g clip-path="url(#clip0_544_514)">
<path fill-rule="evenodd" clip-rule="evenodd" d="M11.4723 0.0327628C10.5025 0.108185 9.20118 0.387185 8.30821 0.711138C7.17472 1.12237 5.82669 1.87678 4.88633 2.62626C4.10136 3.25186 3.15247 4.26384 2.55796 5.10937C-0.0196527 8.77551 -0.34084 13.5166 1.71796 17.5084C2.30718 18.6509 2.93038 19.4954 3.89891 20.464C4.86744 21.4325 5.71199 22.0557 6.85447 22.6449C11.0583 24.8131 15.995 24.3481 19.7691 21.4285C20.3195 21.0028 21.4098 19.9 21.8379 19.3359C22.8975 17.9401 23.5635 16.5756 23.9872 14.9324C24.1326 14.3683 24.316 13.2153 24.316 12.8649C24.316 12.7501 24.3371 12.6562 24.3629 12.6562C24.3918 12.6562 24.4098 12.4209 24.4098 12.0441C24.4098 11.648 24.3932 11.4422 24.3629 11.4609C24.3335 11.4791 24.316 11.3782 24.316 11.1906C24.316 10.6417 24.1426 9.60318 23.9149 8.78906C23.2446 6.39178 21.7772 4.1729 19.8395 2.62664C18.9235 1.89567 17.5552 1.12434 16.4645 0.724028C14.9534 0.16945 13.0693 -0.0914091 11.4723 0.0327628ZM11.4144 1.03176C9.65197 1.19067 7.88066 1.79939 6.40977 2.75165L5.91758 3.07031L6.22696 3.09375C6.39711 3.10664 6.56586 3.14114 6.60196 3.17039C6.63805 3.19964 6.74141 3.23812 6.83164 3.25589C7.115 3.31176 7.15419 3.33051 7.18396 3.42426C7.20927 3.50404 7.25718 3.51562 7.56135 3.51562C7.75297 3.51562 7.90977 3.50367 7.90977 3.48909C7.90977 3.47451 7.88793 3.42178 7.86125 3.3719C7.82075 3.29629 7.76122 3.28125 7.50243 3.28125C7.21175 3.28125 7.19652 3.27604 7.26144 3.19922C7.3971 3.03867 7.319 2.95865 7.01197 2.94356L6.72964 2.92968L7.03335 2.70703C7.32191 2.49548 7.35228 2.48437 7.64122 2.48437C7.94483 2.48437 7.94568 2.48475 8.11818 2.69531C8.27783 2.89012 8.30764 2.90625 8.50832 2.90625C8.68771 2.90625 8.75169 2.88098 8.87516 2.76131C9.00618 2.63433 9.03768 2.62326 9.12885 2.67206C9.23183 2.72718 9.2308 2.7299 9.03036 2.93418C8.84089 3.12722 8.81146 3.14062 8.57685 3.14062H8.32597L8.34055 3.3164L8.35508 3.49218L8.69877 3.50601C9.00439 3.51834 9.04503 3.50995 9.06594 3.43008C9.08375 3.36183 9.14624 3.33351 9.32624 3.31223C9.60153 3.27961 9.58353 3.29072 9.60439 3.14062C9.61808 3.04233 9.59957 3.021 9.48969 3.00839C9.37949 2.99573 9.3635 2.97712 9.38896 2.8912C9.4056 2.83504 9.4528 2.76272 9.49377 2.73047C9.58049 2.66231 10.2807 2.6489 10.3213 2.71462C10.3358 2.73815 10.2667 2.8215 10.1678 2.89992C10.0133 3.02222 9.99088 3.06318 10.0093 3.189C10.0323 3.34551 10.0417 3.35198 10.3128 3.39703L10.4893 3.42637L10.4591 3.17015L10.429 2.91389L10.6577 2.79848C10.8004 2.72643 11.0151 2.67023 11.2288 2.649C11.5667 2.61539 11.5782 2.61792 12.0843 2.83922L12.5973 3.06342V3.26236C12.5973 3.44531 12.6086 3.46378 12.7379 3.49218C12.8939 3.52645 12.9031 3.55111 12.8241 3.72436C12.776 3.82992 12.7416 3.84375 12.527 3.84375C12.2848 3.84375 12.284 3.84431 12.2217 4.03312C12.1873 4.13732 12.1364 4.21387 12.1087 4.20323C12.0809 4.19264 11.8495 4.13573 11.5943 4.07681C11.0684 3.95531 11.0685 3.95751 11.5895 3.69379C11.9411 3.51576 11.9256 3.53433 11.8202 3.41784C11.6719 3.25397 11.5983 3.23756 11.2357 3.28781C10.9423 3.3285 10.8619 3.36042 10.7118 3.49607C10.5931 3.60332 10.4881 3.65625 10.394 3.65625C10.2433 3.65625 10.1937 3.77686 10.3238 3.82678C10.4356 3.86972 10.4059 3.92343 10.2535 3.9539C10.1762 3.96937 10.1129 4.01179 10.1129 4.04822C10.1129 4.08548 10.0531 4.12312 9.97588 4.13447C9.85218 4.15261 9.836 4.13948 9.80966 3.99918C9.79363 3.91368 9.76414 3.84375 9.74413 3.84375C9.62741 3.84375 9.20066 4.02942 8.85168 4.23206C8.30277 4.55076 8.31186 4.54026 8.38246 4.7759C8.45516 5.01857 8.63202 5.1337 8.99961 5.17767L9.26914 5.20987V5.51118C9.26914 5.80307 9.27289 5.8125 9.38891 5.8125C9.48889 5.8125 9.52738 5.77026 9.62174 5.55684C9.73157 5.3085 9.74314 5.29865 10.0293 5.21095L10.3238 5.12067L10.3374 4.74098C10.3507 4.37104 10.3551 4.35815 10.5096 4.24036C10.6807 4.10981 10.6254 4.10784 11.2318 4.26576L11.4366 4.31911L11.4059 4.5502L11.3753 4.78125H11.5191C11.5982 4.78125 11.767 4.72851 11.8941 4.66406C12.0213 4.59961 12.1366 4.54687 12.1504 4.54687C12.1641 4.54687 12.1754 4.6845 12.1754 4.85273V5.15854L12.3863 5.28595C12.5828 5.40468 12.5973 5.4269 12.5973 5.61107C12.5973 5.80106 12.59 5.8109 12.4098 5.8649C12.1453 5.94412 12.1618 6.0562 12.4566 6.18304C12.6627 6.27168 12.691 6.3007 12.691 6.42318C12.691 6.59418 12.6314 6.59953 12.2314 6.46443C11.9816 6.38011 11.941 6.35039 11.941 6.25204C11.941 6.18914 11.9727 6.12553 12.0113 6.11072C12.1092 6.07317 12.1036 5.85937 12.0048 5.85937C11.9625 5.85937 11.9045 5.89139 11.8759 5.93053C11.8137 6.01556 11.3316 6.08582 11.3316 6.00989C11.3316 5.91736 11.1854 5.8125 11.0564 5.8125C10.9011 5.8125 10.816 5.88951 10.816 6.03004C10.816 6.11456 10.852 6.1425 10.9999 6.17301L11.1837 6.21093L11.0958 6.31889C11.0118 6.42206 11.0026 6.42342 10.8897 6.34945C10.7737 6.27347 10.7666 6.27618 10.5125 6.49326C10.3701 6.61495 10.2535 6.7417 10.2535 6.77489C10.2535 6.80812 10.1006 6.91945 9.91368 7.02229C9.50914 7.2449 8.89457 7.84734 8.89344 8.02232C8.89241 8.18226 8.85397 8.22497 8.5175 8.44031C8.35082 8.54695 8.13538 8.71026 8.03868 8.80317C7.86707 8.96817 7.86289 8.98022 7.86289 9.3142C7.86289 9.50231 7.8515 9.65625 7.83758 9.65625C7.82366 9.65625 7.72996 9.61425 7.62936 9.56292C7.46516 9.47915 7.44496 9.4492 7.43202 9.26995L7.41758 9.07031L6.79813 9.05723L6.17868 9.04415L5.81057 9.22926C5.47119 9.39989 5.43116 9.43565 5.29761 9.68765C5.06835 10.1201 5.02578 10.3364 5.12614 10.5589C5.2183 10.7633 5.33671 10.8281 5.61805 10.8281C5.76425 10.8281 5.87938 10.7777 6.14989 10.5952C6.33979 10.467 6.52152 10.3563 6.55377 10.3491C6.68558 10.3196 6.67968 10.5663 6.54266 10.812L6.40789 11.0537L6.73269 11.1085L7.05749 11.1633L7.09058 11.649C7.11304 11.9784 7.14327 12.1423 7.18447 12.1581C7.21794 12.1709 7.41744 12.2077 7.62786 12.2399L8.01046 12.2985L8.20621 12.0696C8.31388 11.9437 8.43486 11.8 8.47508 11.7504C8.5438 11.6656 8.56883 11.6639 8.88796 11.7209C9.20141 11.7769 9.23746 11.7956 9.35389 11.9627C9.46246 12.1185 9.49888 12.1402 9.61485 12.1187C9.68896 12.105 9.82991 12.0937 9.92811 12.0937C10.0641 12.0937 10.1135 12.0719 10.1357 12.002C10.1638 11.9135 10.1709 11.913 10.3312 11.9895C10.4436 12.0431 10.5641 12.1717 10.7027 12.386L10.9079 12.7031H11.2529H11.598L11.7191 12.9258C11.789 13.0543 11.8537 13.2687 11.8722 13.4329L11.9043 13.7173L12.3094 13.8669C12.6628 13.9974 12.7727 14.0165 13.1719 14.016L13.6294 14.0156L13.7716 14.2468C13.8827 14.4274 13.9569 14.4925 14.111 14.5447C14.3013 14.6091 14.3077 14.6178 14.2934 14.7906C14.2826 14.9221 14.2127 15.0545 14.0305 15.2891L13.7823 15.6085L13.7208 16.2638L13.6593 16.9191L13.4683 17.0729C13.3006 17.2078 13.2346 17.2294 12.9279 17.25C12.5897 17.2727 12.5756 17.2785 12.4858 17.4327C12.3968 17.5855 12.396 17.6061 12.4667 17.9443L12.5404 18.2967L12.2224 18.6997C12.0475 18.9215 11.8426 19.208 11.7671 19.3366C11.6515 19.5334 11.5786 19.5952 11.305 19.7278C11.1263 19.8145 10.8852 19.899 10.7691 19.9157C10.6008 19.94 10.5553 19.9665 10.5438 20.0469C10.5325 20.126 10.5601 20.1544 10.6727 20.1791C10.8626 20.2208 10.8637 20.3743 10.6754 20.5546L10.5349 20.6894L10.6367 20.7978C10.6983 20.8634 10.793 20.9062 10.8762 20.9062C11.0089 20.9062 11.0128 20.9124 10.9857 21.082C10.8935 21.6587 10.8845 21.6155 11.1393 21.8136C11.334 21.965 11.3658 22.0106 11.3348 22.0948C11.3029 22.1815 11.2553 22.1972 10.9886 22.2091L10.6794 22.2229L10.3388 21.9255C10.0857 21.7045 9.93444 21.5203 9.75018 21.2085L9.50211 20.7891L9.53019 20.3298L9.55822 19.8704L9.36505 19.6146L9.17188 19.3588L9.24397 18.9789C9.33711 18.4879 9.33679 18.4841 9.19883 18.4495L9.08164 18.4201V17.4659V16.5117L8.7418 16.2784C8.55486 16.15 8.33891 16.0297 8.2618 16.011C8.10332 15.9725 8.05213 15.9127 8.0511 15.765C8.05072 15.7074 7.86543 15.4311 7.62693 15.1322C7.20346 14.6016 7.20346 14.6016 7.23528 14.3906C7.25277 14.2746 7.27986 14.0429 7.29547 13.8756L7.32383 13.5715L7.59702 13.3839L7.87016 13.1963L7.83749 12.8677C7.81949 12.6869 7.78096 12.5235 7.7518 12.5046C7.72269 12.4857 7.59074 12.4699 7.4586 12.4694C7.01352 12.4681 6.9531 12.4378 6.61124 12.0435L6.29258 11.676L5.91758 11.5872C5.55627 11.5016 5.54258 11.4935 5.54258 11.3634C5.54258 11.2439 5.52257 11.2252 5.3668 11.1998C5.23668 11.1785 5.19102 11.1874 5.19102 11.2339C5.19102 11.3195 5.09577 11.3122 4.61947 11.1902L4.21194 11.0859L4.02158 10.791C3.83418 10.5007 3.83239 10.4939 3.90627 10.3511L3.98132 10.2059L3.67705 9.75529C3.48374 9.46898 3.36186 9.23634 3.34278 9.11718C3.27425 8.6887 3.26694 8.67187 3.14825 8.67187C3.06097 8.67187 3.03543 8.69625 3.03758 8.77734C3.04578 9.08747 3.12824 9.34462 3.308 9.62053C3.48753 9.89606 3.55541 10.1359 3.46836 10.187C3.44905 10.1983 3.36533 10.1972 3.28232 10.1846C3.15205 10.1648 3.10246 10.1122 2.91903 9.79936C2.70744 9.43847 2.70664 9.43537 2.70664 8.99217V8.54728L2.47227 8.4375L2.23789 8.32772L2.2341 8.01932C2.23039 7.71857 2.22866 7.7144 2.165 7.85156C2.00624 8.19361 1.67661 9.31153 1.56383 9.89062C1.35144 10.9809 1.30025 11.9326 1.39738 12.9844C1.79985 17.3421 4.77571 21.0873 8.91758 22.4488C11.6815 23.3572 14.5513 23.1629 17.1676 21.8902C18.3845 21.2983 19.3425 20.5922 20.3529 19.5429L20.9132 18.9609L20.7162 18.9465L20.5191 18.9321L20.5179 18.5481C20.5167 18.1667 20.5152 18.1622 20.3069 17.8864L20.0973 17.6086V17.1803C20.0973 16.7668 20.0924 16.7473 19.9585 16.6189C19.865 16.5294 19.8099 16.4207 19.7897 16.2862C19.7631 16.1089 19.7837 16.0423 19.9723 15.6955L20.1847 15.3047L19.7943 14.6187L19.4038 13.9327L19.4438 13.5874C19.5166 12.9587 19.5371 13.0021 19.1529 12.9699C18.8803 12.947 18.7946 12.9195 18.6933 12.8225C18.528 12.6642 18.0982 12.6491 17.9645 12.7969C17.8911 12.8779 17.8201 12.8906 17.4416 12.8906C17.1808 12.8906 17.0035 12.9096 17.0035 12.9375C17.0035 12.9633 16.8996 12.9844 16.7725 12.9844H16.5415L16.0225 12.3918L15.5035 11.7992V11.3329C15.5035 10.9342 15.5164 10.8553 15.5922 10.7887C15.6409 10.7459 15.6931 10.6424 15.7082 10.5586C15.7338 10.4158 15.7271 10.4062 15.6013 10.4062C15.4849 10.4062 15.463 10.3844 15.4362 10.2414C15.4191 10.1507 15.4176 10.0565 15.4328 10.0319C15.448 10.0074 15.7127 9.80611 16.021 9.58457L16.5816 9.18187V8.86739V8.5529L16.8739 8.39221C17.1444 8.24348 17.1928 8.23246 17.5257 8.24381C17.8295 8.25417 17.9204 8.23828 18.1123 8.14111C18.2936 8.04932 18.4436 8.01956 18.8551 7.99382C19.1387 7.97606 19.4076 7.95117 19.4527 7.93856C19.5252 7.91822 19.5348 7.95356 19.5348 8.24146V8.56739L20.0488 8.69489C20.3315 8.76506 20.5872 8.85182 20.617 8.88778C20.6468 8.92373 20.7214 8.95312 20.7827 8.95312C20.8782 8.95312 20.8941 8.93029 20.8941 8.79407C20.8941 8.60896 20.9471 8.57812 21.2645 8.57812C21.4505 8.57812 21.5275 8.60864 21.7379 8.76562L21.9892 8.95312H22.4495C22.8125 8.95312 22.9098 8.93929 22.9098 8.88759C22.9098 8.85154 22.8437 8.64061 22.7629 8.41884L22.616 8.01562H22.3224C22.0451 8.01562 22.0208 8.00648 21.8834 7.84992C21.7689 7.71956 21.7379 7.64128 21.7379 7.48275C21.7379 7.23262 21.712 7.20548 21.5522 7.28812C21.4515 7.3402 21.4077 7.41834 21.341 7.66495L21.2567 7.97611L21.0568 7.77984C20.888 7.61418 20.8521 7.54551 20.8263 7.33922C20.7982 7.11445 20.7737 7.07545 20.5199 6.85214C20.2662 6.62878 20.2254 6.60937 20.0095 6.60937H19.7748L19.8461 6.81839C19.9082 7.00064 19.9555 7.04873 20.2161 7.19451C20.5268 7.36828 20.6216 7.45804 20.5274 7.4894C20.4971 7.49953 20.4723 7.58789 20.4723 7.68572C20.4723 7.8382 20.4527 7.87176 20.3351 7.92042C20.1992 7.97676 20.0347 7.95412 19.9215 7.86351C19.8163 7.77937 19.8595 7.73437 20.0454 7.73437C20.1726 7.73437 20.237 7.71065 20.2579 7.65609C20.2744 7.61301 20.2696 7.56557 20.2472 7.55062C19.6378 7.14393 19.4433 6.99154 19.42 6.90234C19.3836 6.76364 19.3445 6.76917 19.185 6.93562C19.0671 7.05862 19.0297 7.07132 18.8556 7.04746L18.6592 7.02056L18.3704 7.40381C18.2116 7.61456 18.0816 7.8179 18.0816 7.85559C18.0816 7.89332 18.0275 7.94475 17.9614 7.96992C17.7664 8.04407 17.2142 8.02518 17.0317 7.93814C16.8814 7.86647 16.8661 7.83904 16.8286 7.57486C16.7946 7.3357 16.8212 7.07775 16.8886 6.99295C16.8951 6.98479 17.0133 6.95208 17.1512 6.92025C17.3488 6.87468 17.4616 6.8745 17.6832 6.91931C17.8379 6.95062 17.9695 6.97125 17.9757 6.96515C17.9818 6.95906 18.0001 6.88809 18.0163 6.80742C18.0423 6.67725 18.0316 6.65723 17.9216 6.62962C17.8368 6.60834 17.8041 6.57426 17.8183 6.5219C17.8297 6.47976 17.8519 6.3689 17.8676 6.27548C17.8959 6.10725 17.8988 6.10532 18.1738 6.07425C18.4501 6.04293 18.4522 6.04153 18.6627 5.74664C18.8521 5.48118 18.8942 5.44776 19.0683 5.42437C19.1751 5.41007 19.3777 5.41022 19.5184 5.42475L19.7742 5.45114L19.7419 5.1982C19.7241 5.05912 19.7049 4.9395 19.6991 4.93242C19.6933 4.92534 19.5913 4.96125 19.4723 5.01225L19.256 5.10501L19.1636 4.89623C19.0902 4.7302 19.0475 4.6875 18.9552 4.6875C18.8638 4.6875 18.8324 4.65698 18.8075 4.54373C18.7656 4.35309 18.8669 4.24289 19.2382 4.07526C19.5147 3.95048 19.6821 3.7785 19.5977 3.70603C17.9791 2.31628 16.0416 1.42547 13.9312 1.10067C13.3587 1.01254 12.0307 0.976169 11.4144 1.03176ZM6.12852 3.60937C6.12852 3.63515 6.07578 3.65625 6.01133 3.65625C5.91758 3.65625 5.89414 3.67968 5.89414 3.77343C5.89414 3.88457 5.90778 3.89062 6.15852 3.89062C6.43466 3.89062 6.54571 3.82064 6.54889 3.64453C6.55011 3.57834 6.50966 3.5625 6.33946 3.5625C6.22344 3.5625 6.12852 3.58359 6.12852 3.60937ZM6.1168 4.22826C6.01607 4.25498 5.94102 4.30392 5.94102 4.34282C5.94102 4.39636 6.00304 4.40775 6.23399 4.39678C6.49714 4.38422 6.5285 4.37208 6.54196 4.27734C6.55457 4.18847 6.5361 4.17262 6.42477 4.1767C6.35207 4.17937 6.2135 4.20258 6.1168 4.22826ZM20.3803 4.72265L20.3785 4.96879L20.1439 5.09765C19.7974 5.28806 19.8435 5.36395 20.3159 5.38073C20.6914 5.39404 20.6993 5.39198 20.7959 5.25632C20.8499 5.18043 20.8936 5.10051 20.893 5.07872C20.8924 5.05692 20.7772 4.9125 20.637 4.75781L20.3822 4.47656L20.3803 4.72265ZM17.5791 4.73531C17.5219 4.75832 17.4607 4.8345 17.4431 4.90453C17.4169 5.00915 17.4354 5.05129 17.5472 5.14101C17.622 5.20106 17.7201 5.26209 17.7652 5.27667C17.8593 5.30709 17.8798 5.53082 17.7887 5.53195C17.6767 5.53336 17.6213 5.60282 17.5872 5.78461L17.5529 5.96742L17.9351 5.94122C18.2608 5.9189 18.3309 5.89875 18.4089 5.80518C18.5272 5.66311 18.5271 5.66217 18.3657 5.57034C18.2902 5.5274 18.1774 5.41139 18.115 5.31253C18.003 5.13511 17.9773 5.06934 17.9211 4.8164C17.8904 4.67864 17.7831 4.65323 17.5791 4.73531ZM17.1527 5.19618C17.0902 5.21376 16.9922 5.31811 16.9221 5.44167C16.7 5.83303 16.8979 5.93315 17.3195 5.64272C17.4985 5.51948 17.566 5.44289 17.566 5.36311C17.566 5.19342 17.4003 5.12648 17.1527 5.19618ZM7.00086 5.4045C6.92155 5.46248 6.9215 5.47303 7.00002 5.6377C7.07118 5.7869 7.0986 5.80636 7.20308 5.78184C7.36508 5.74382 7.38163 5.72376 7.41913 5.51953L7.45147 5.34375H7.26768C7.16661 5.34375 7.04657 5.37107 7.00086 5.4045ZM2.93516 6.32845C2.65339 6.81529 2.64739 6.8639 2.91172 6.51731C3.00932 6.38934 3.08193 6.24707 3.07311 6.20123C3.06153 6.14104 3.0231 6.17643 2.93516 6.32845ZM7.73989 6.21248C7.38243 6.36923 7.55647 6.51562 8.10032 6.51562C8.41583 6.51562 8.42539 6.51215 8.42539 6.39843C8.42539 6.33398 8.4043 6.28125 8.37852 6.28125C8.35274 6.28125 8.33164 6.24961 8.33164 6.21093C8.33164 6.11976 7.9491 6.12075 7.73989 6.21248ZM8.56602 6.39403C8.56602 6.4845 8.58496 6.50189 8.66164 6.48182C8.75202 6.4582 8.75291 6.45201 8.67782 6.36904C8.57563 6.25612 8.56602 6.25828 8.56602 6.39403ZM11.4084 6.58593C11.3914 6.63042 11.3195 6.65625 11.2125 6.65625C11.0809 6.65625 11.0469 6.67326 11.0587 6.73326C11.067 6.77559 11.1075 6.83147 11.1486 6.85734C11.2481 6.91996 11.4723 6.86039 11.4723 6.77137C11.4723 6.73256 11.525 6.68076 11.5895 6.65625C11.6539 6.63173 11.7066 6.59006 11.7066 6.56367C11.7066 6.48726 11.4386 6.50728 11.4084 6.58593ZM9.00889 6.61331C8.9578 6.696 9.06046 6.7665 9.15496 6.71362C9.23141 6.67087 9.23024 6.66384 9.13888 6.6149C9.06814 6.57707 9.03158 6.57661 9.00889 6.61331ZM7.66405 6.73828C7.51105 6.89915 7.44899 7.11843 7.54016 7.17618C7.65894 7.25142 7.70371 7.22095 7.92444 6.91406L8.14363 6.60937H7.96518C7.83144 6.60937 7.75593 6.64172 7.66405 6.73828ZM8.37852 6.77343C8.37852 6.89939 8.39788 6.9375 8.46182 6.9375C8.5881 6.9375 8.75352 6.80306 8.75352 6.70045C8.75352 6.62545 8.72043 6.60937 8.56602 6.60937C8.38297 6.60937 8.37852 6.61326 8.37852 6.77343ZM10.6836 6.71362C10.5837 6.81356 10.618 6.9375 10.7457 6.9375C10.8291 6.9375 10.8629 6.91214 10.8629 6.84946C10.8629 6.72478 10.7546 6.6427 10.6836 6.71362ZM8.84727 6.93365C8.84727 7.12003 8.89939 7.17187 9.08666 7.17187C9.24678 7.17187 9.26914 7.15842 9.26914 7.06209C9.26914 6.97528 9.23127 6.94097 9.08793 6.89803C8.85205 6.82739 8.84727 6.82809 8.84727 6.93365ZM8.35508 7.11454C8.27774 7.15893 8.21178 7.19531 8.20855 7.19531C8.20532 7.19531 8.18807 7.24275 8.17025 7.30078C8.14044 7.39772 8.15268 7.40625 8.32124 7.40625C8.52594 7.40625 8.65977 7.29825 8.65977 7.13301C8.65977 7.00837 8.55135 7.00176 8.35508 7.11454ZM22.1129 7.28906C22.1129 7.54425 22.1143 7.54687 22.2535 7.54687C22.3309 7.54687 22.3941 7.52634 22.3941 7.50126C22.3941 7.42429 22.1903 7.03125 22.1504 7.03125C22.1298 7.03125 22.1129 7.14726 22.1129 7.28906ZM0.381269 12.0937C0.381269 12.4418 0.388629 12.5842 0.397675 12.4102C0.406675 12.2362 0.406675 11.9514 0.397675 11.7773C0.388629 11.6033 0.381269 11.7457 0.381269 12.0937Z" fill="#EC26CC"/>
</g>
<defs>
<clipPath id="clip0_544_514">
<rect width="24" height="24" fill="white" transform="translate(0.363281)"/>
</clipPath>
</defs>
</svg>
