<svg width="157" height="43" viewBox="0 0 157 43" fill="none" xmlns="http://www.w3.org/2000/svg">
<path d="M47.7507 1.44716C51.0201 0.44435 51.9827 1.1165 52.8063 3.58217L56.742 18.1713L60.3897 31.693C60.7508 34.1839 60.3897 35.963 56.7786 37.0305L56.0564 37.2233L48.2924 39.2952L39.8063 41.56L39.4451 41.6564C36.9173 42.368 34.7507 42.0122 34.0284 40.233L29.7255 24.9322L25.7228 10.6988C25.0006 8.56384 26.0839 7.1405 28.2506 6.42883L30.0562 5.96756L38.3618 3.84574L46.6674 1.72392L47.7507 1.44716Z" fill="#FFB2F3"/>
<path d="M30.0562 5.96756L28.2506 6.42883C26.0839 7.1405 25.0006 8.56384 25.7228 10.6988L29.7255 24.9322M30.0562 5.96756L32.584 15.3247L37.2785 18.1713M30.0562 5.96756L38.3618 3.84574M29.7255 24.9322L34.0284 40.233C34.7507 42.0122 36.9173 42.368 39.4451 41.6564L39.8063 41.56M29.7255 24.9322L38.4019 22.4413M37.2785 18.1713L41.9729 16.748M37.2785 18.1713L38.4019 22.4413M38.3618 3.84574L46.6674 1.72392M38.3618 3.84574L41.9729 16.748M41.9729 16.748L46.6674 15.3247M38.4019 22.4413L39.8063 27.7788M46.6674 15.3247L49.1952 10.6988L46.6674 1.72392M46.6674 15.3247L48.1119 20.4843M46.6674 1.72392L47.7507 1.44716C51.0201 0.44435 51.9827 1.1165 52.8063 3.58217L56.742 18.1713M48.1119 20.4843L49.5563 25.6438L53.5286 27.7788L56.0564 37.2233M48.1119 20.4843L56.742 18.1713M56.742 18.1713L60.3897 31.693C60.7508 34.1839 60.3897 35.963 56.7786 37.0305L56.0564 37.2233M39.8063 27.7788L37.2785 32.4047L39.8063 41.56M39.8063 27.7788L44.5007 26.3555L48.2924 39.2952M39.8063 41.56L48.2924 39.2952M48.2924 39.2952L56.0564 37.2233" stroke="#0B1020"/>
<path d="M0 13.5H18M8 35H26M18 40H28.5M16 24.5H24" stroke="#0B1020"/>
<path d="M81.8997 28.2802C80.793 28.2802 79.7664 28.1069 78.8197 27.7602C77.873 27.4002 77.053 26.8935 76.3597 26.2402C75.6797 25.5869 75.1464 24.8202 74.7597 23.9402C74.373 23.0469 74.1797 22.0669 74.1797 21.0002C74.1797 19.9335 74.373 18.9602 74.7597 18.0802C75.1464 17.1869 75.6864 16.4135 76.3797 15.7602C77.073 15.1069 77.893 14.6069 78.8397 14.2602C79.7997 13.9002 80.8464 13.7202 81.9797 13.7202C83.2997 13.7202 84.4797 13.9402 85.5197 14.3802C86.5597 14.8202 87.4197 15.4535 88.0997 16.2802L85.5797 18.5602C85.0997 18.0402 84.5797 17.6535 84.0197 17.4002C83.473 17.1335 82.8597 17.0002 82.1797 17.0002C81.5797 17.0002 81.033 17.0935 80.5397 17.2802C80.0464 17.4669 79.6264 17.7402 79.2797 18.1002C78.933 18.4469 78.6597 18.8669 78.4597 19.3602C78.273 19.8402 78.1797 20.3869 78.1797 21.0002C78.1797 21.5869 78.273 22.1269 78.4597 22.6202C78.6597 23.1135 78.933 23.5402 79.2797 23.9002C79.6264 24.2469 80.0397 24.5202 80.5197 24.7202C81.013 24.9069 81.553 25.0002 82.1397 25.0002C82.7264 25.0002 83.2997 24.9069 83.8597 24.7202C84.4197 24.5202 84.9864 24.1869 85.5597 23.7202L87.7797 26.5002C86.9797 27.0735 86.053 27.5135 84.9997 27.8202C83.9464 28.1269 82.913 28.2802 81.8997 28.2802ZM84.2797 25.9802V20.7002H87.7797V26.5002L84.2797 25.9802ZM95.5503 28.1802C94.3637 28.1802 93.3103 27.9402 92.3903 27.4602C91.4703 26.9802 90.7437 26.3202 90.2103 25.4802C89.6903 24.6269 89.4303 23.6535 89.4303 22.5602C89.4303 21.4669 89.6903 20.5002 90.2103 19.6602C90.7437 18.8202 91.4703 18.1669 92.3903 17.7002C93.3103 17.2202 94.3637 16.9802 95.5503 16.9802C96.737 16.9802 97.7903 17.2202 98.7103 17.7002C99.6437 18.1669 100.371 18.8202 100.891 19.6602C101.411 20.5002 101.671 21.4669 101.671 22.5602C101.671 23.6535 101.411 24.6269 100.891 25.4802C100.371 26.3202 99.6437 26.9802 98.7103 27.4602C97.7903 27.9402 96.737 28.1802 95.5503 28.1802ZM95.5503 25.1602C95.9903 25.1602 96.377 25.0602 96.7103 24.8602C97.057 24.6602 97.3303 24.3669 97.5303 23.9802C97.7303 23.5802 97.8303 23.1069 97.8303 22.5602C97.8303 22.0135 97.7303 21.5535 97.5303 21.1802C97.3303 20.7935 97.057 20.5002 96.7103 20.3002C96.377 20.1002 95.9903 20.0002 95.5503 20.0002C95.1237 20.0002 94.737 20.1002 94.3903 20.3002C94.057 20.5002 93.7837 20.7935 93.5703 21.1802C93.3703 21.5535 93.2703 22.0135 93.2703 22.5602C93.2703 23.1069 93.3703 23.5802 93.5703 23.9802C93.7837 24.3669 94.057 24.6602 94.3903 24.8602C94.737 25.0602 95.1237 25.1602 95.5503 25.1602ZM108.271 28.1802C106.884 28.1802 105.804 27.8402 105.031 27.1602C104.258 26.4669 103.871 25.4269 103.871 24.0402V14.7402H107.671V24.0002C107.671 24.3869 107.778 24.6935 107.991 24.9202C108.204 25.1335 108.478 25.2402 108.811 25.2402C109.264 25.2402 109.651 25.1269 109.971 24.9002L110.911 27.5602C110.591 27.7735 110.198 27.9269 109.731 28.0202C109.264 28.1269 108.778 28.1802 108.271 28.1802ZM102.291 20.4002V17.5602H110.151V20.4002H102.291ZM117.476 28.2802C116.33 28.2802 115.223 28.1402 114.156 27.8602C113.103 27.5669 112.243 27.1935 111.576 26.7402L112.876 23.8202C113.503 24.2202 114.223 24.5535 115.036 24.8202C115.863 25.0735 116.683 25.2002 117.496 25.2002C118.043 25.2002 118.483 25.1535 118.816 25.0602C119.15 24.9535 119.39 24.8202 119.536 24.6602C119.696 24.4869 119.776 24.2869 119.776 24.0602C119.776 23.7402 119.63 23.4869 119.336 23.3002C119.043 23.1135 118.663 22.9602 118.196 22.8402C117.73 22.7202 117.21 22.6002 116.636 22.4802C116.076 22.3602 115.51 22.2069 114.936 22.0202C114.376 21.8335 113.863 21.5935 113.396 21.3002C112.93 20.9935 112.55 20.6002 112.256 20.1202C111.963 19.6269 111.816 19.0069 111.816 18.2602C111.816 17.4202 112.043 16.6602 112.496 15.9802C112.963 15.3002 113.656 14.7535 114.576 14.3402C115.496 13.9269 116.643 13.7202 118.016 13.7202C118.936 13.7202 119.836 13.8269 120.716 14.0402C121.61 14.2402 122.403 14.5402 123.096 14.9402L121.876 17.8802C121.21 17.5202 120.55 17.2535 119.896 17.0802C119.243 16.8935 118.61 16.8002 117.996 16.8002C117.45 16.8002 117.01 16.8602 116.676 16.9802C116.343 17.0869 116.103 17.2335 115.956 17.4202C115.81 17.6069 115.736 17.8202 115.736 18.0602C115.736 18.3669 115.876 18.6135 116.156 18.8002C116.45 18.9735 116.83 19.1202 117.296 19.2402C117.776 19.3469 118.296 19.4602 118.856 19.5802C119.43 19.7002 119.996 19.8535 120.556 20.0402C121.13 20.2135 121.65 20.4535 122.116 20.7602C122.583 21.0535 122.956 21.4469 123.236 21.9402C123.53 22.4202 123.676 23.0269 123.676 23.7602C123.676 24.5735 123.443 25.3269 122.976 26.0202C122.523 26.7002 121.836 27.2469 120.916 27.6602C120.01 28.0735 118.863 28.2802 117.476 28.2802ZM125.505 28.0002V14.0002H128.765L134.565 23.5202H132.845L138.485 14.0002H141.745L141.785 28.0002H138.145L138.105 19.5402H138.725L134.505 26.6202H132.745L128.405 19.5402H129.165V28.0002H125.505ZM149.508 28.2802C148.361 28.2802 147.254 28.1402 146.188 27.8602C145.134 27.5669 144.274 27.1935 143.608 26.7402L144.908 23.8202C145.534 24.2202 146.254 24.5535 147.068 24.8202C147.894 25.0735 148.714 25.2002 149.528 25.2002C150.074 25.2002 150.514 25.1535 150.848 25.0602C151.181 24.9535 151.421 24.8202 151.568 24.6602C151.728 24.4869 151.808 24.2869 151.808 24.0602C151.808 23.7402 151.661 23.4869 151.368 23.3002C151.074 23.1135 150.694 22.9602 150.228 22.8402C149.761 22.7202 149.241 22.6002 148.668 22.4802C148.108 22.3602 147.541 22.2069 146.968 22.0202C146.408 21.8335 145.894 21.5935 145.428 21.3002C144.961 20.9935 144.581 20.6002 144.288 20.1202C143.994 19.6269 143.847 19.0069 143.847 18.2602C143.847 17.4202 144.074 16.6602 144.528 15.9802C144.994 15.3002 145.688 14.7535 146.608 14.3402C147.528 13.9269 148.674 13.7202 150.048 13.7202C150.968 13.7202 151.868 13.8269 152.748 14.0402C153.641 14.2402 154.434 14.5402 155.128 14.9402L153.908 17.8802C153.241 17.5202 152.581 17.2535 151.928 17.0802C151.274 16.8935 150.641 16.8002 150.028 16.8002C149.481 16.8002 149.041 16.8602 148.708 16.9802C148.374 17.0869 148.134 17.2335 147.988 17.4202C147.841 17.6069 147.768 17.8202 147.768 18.0602C147.768 18.3669 147.908 18.6135 148.188 18.8002C148.481 18.9735 148.861 19.1202 149.328 19.2402C149.808 19.3469 150.328 19.4602 150.888 19.5802C151.461 19.7002 152.028 19.8535 152.588 20.0402C153.161 20.2135 153.681 20.4535 154.148 20.7602C154.614 21.0535 154.988 21.4469 155.268 21.9402C155.561 22.4202 155.708 23.0269 155.708 23.7602C155.708 24.5735 155.474 25.3269 155.008 26.0202C154.554 26.7002 153.868 27.2469 152.948 27.6602C152.041 28.0735 150.894 28.2802 149.508 28.2802Z" fill="#0B1020"/>
</svg>
