<svg width="234" height="66" viewBox="0 0 234 66" fill="none" xmlns="http://www.w3.org/2000/svg">
<circle cx="33" cy="33" r="32.5" fill="#0B1020" stroke="#BDBDBD"/>
<path d="M26.1848 44.089C24.3018 44.095 22.4128 44.1011 20.5298 44.095C20.0212 44.095 19.6942 43.647 19.779 43.1263C20.0938 41.1222 20.3905 39.1181 20.7053 37.12C20.9899 35.3218 21.2987 33.5235 21.5833 31.7192C21.7891 30.4175 21.9708 29.1157 22.1766 27.814C22.4794 25.8946 22.7942 23.9753 23.103 22.056C23.2786 20.954 23.4421 19.852 23.6116 18.7501C23.7206 18.0296 24.2897 17.5392 25.0284 17.5392C28.2132 17.5392 31.404 17.5149 34.5887 17.5513C36.3264 17.5694 38.052 17.7874 39.6323 18.5927C41.2731 19.4161 42.2721 20.7542 42.5991 22.5706C42.7505 23.4183 42.696 24.2659 42.5325 25.1136C41.8544 24.7685 41.1399 24.5444 40.4012 24.3991C39.4809 24.2175 38.5364 24.169 37.5979 24.1569C35.2305 24.1327 32.8571 24.1388 30.4897 24.1569C29.9872 24.163 29.5391 24.3688 29.3393 24.8835C29.2485 25.1196 29.2182 25.386 29.1819 25.6464C29.0184 26.6394 28.861 27.6384 28.7036 28.6374C28.5825 29.4063 28.4493 30.1753 28.3343 30.9442C28.1889 31.919 28.0618 32.8999 27.8741 33.8687C27.8135 34.1895 27.6803 34.5165 27.7772 34.8616C27.7046 35.0796 27.638 35.2976 27.6016 35.5276C27.4321 36.6478 27.2565 37.7679 27.0809 38.888C26.869 40.2442 26.6692 41.6065 26.4391 42.9628C26.3665 43.3382 26.3907 43.7378 26.1848 44.089Z" fill="white"/>
<path d="M26.185 44.0893C26.3909 43.7441 26.3667 43.3385 26.4272 42.9631C26.6573 41.6068 26.8571 40.2506 27.069 38.8883C27.2446 37.7682 27.4202 36.648 27.5897 35.5279C27.626 35.2979 27.6926 35.0799 27.7653 34.8619C28.0922 34.3533 28.5464 34.1293 29.1639 34.1354C30.7079 34.1354 32.2518 34.2141 33.7897 34.0203C35.1641 33.8508 36.478 33.4996 37.701 32.8457C39.584 31.8346 40.8676 30.2906 41.6729 28.335C42.0544 27.4025 42.3571 26.4398 42.4842 25.4348C42.4963 25.4105 42.5024 25.3863 42.5145 25.3682C42.5266 25.3076 42.5387 25.2471 42.5508 25.1865C43.9919 25.9494 44.7608 27.1725 44.9667 28.7709C45.1362 30.0848 44.9364 31.3623 44.6094 32.6338C44.3491 33.6449 43.9495 34.5955 43.3803 35.4674C42.454 36.8963 41.1643 37.8893 39.5598 38.4584C38.7243 38.7551 37.8645 38.9246 36.9866 39.0275C36.254 39.1123 35.5213 39.1123 34.7887 39.1184C34.0501 39.1184 33.5778 39.524 33.4749 40.2506C33.2508 41.7824 33.0268 43.3143 32.7604 44.8461C32.6696 45.3668 32.5969 45.8936 32.5061 46.4082C32.3911 47.0379 31.943 47.4133 31.3073 47.4133C29.7633 47.4133 28.2194 47.4133 26.6755 47.4133C26.0881 47.4133 25.8036 47.0742 25.9005 46.5051C26.0155 45.8027 26.1305 45.1064 26.2456 44.4041C26.2637 44.2891 26.294 44.174 26.185 44.0893Z" fill="#D7BCC4"/>
<path opacity="0.5" d="M42.5571 25.1742C42.545 25.2347 42.5329 25.2953 42.5208 25.3558C42.5087 25.38 42.5026 25.4043 42.4905 25.4224C42.3634 26.4275 42.0606 27.3902 41.6792 28.3226C40.8739 30.2783 39.5903 31.8222 37.7073 32.8334C36.4843 33.4873 35.1643 33.8384 33.796 34.008C32.2581 34.1957 30.7141 34.123 29.1702 34.123C28.5526 34.123 28.0985 34.341 27.7716 34.8496C27.6747 34.5105 27.8079 34.1775 27.8684 33.8566C28.0501 32.8878 28.1833 31.907 28.3286 30.9322C28.4436 30.1632 28.5768 29.3943 28.6979 28.6253C28.8553 27.6263 29.0128 26.6334 29.1762 25.6343C29.2186 25.38 29.2428 25.1136 29.3337 24.8714C29.5335 24.3568 29.9815 24.1449 30.4841 24.1449C32.8514 24.1267 35.2249 24.1207 37.5923 24.1449C38.5307 24.157 39.4692 24.2054 40.3956 24.3871C41.1342 24.5324 41.8548 24.7564 42.5268 25.1015C42.5389 25.1378 42.551 25.156 42.5571 25.1742Z" fill="#D7BCC4"/>
<circle cx="89" cy="33" r="32.5" fill="#0B1020" stroke="#BDBDBD"/>
<path d="M101.093 26.3963V30.901C100.851 30.901 100.561 30.9494 100.27 30.9494C98.0902 30.9494 96.0559 30.126 94.5059 28.8182V38.4088C94.5059 40.3463 93.8762 42.1869 92.7621 43.64C91.2121 45.7229 88.6934 47.1275 85.8355 47.1275C82.7355 47.1275 80.023 45.4807 78.5215 43.0588C80.0715 44.5119 82.1543 45.4322 84.4309 45.4322C87.2402 45.4322 89.759 44.076 91.309 41.9447C92.3746 40.4916 93.0527 38.6994 93.0527 36.7135V27.0744C94.6027 28.4307 96.5887 29.2057 98.8168 29.2057C99.1074 29.2057 99.3496 29.2057 99.6402 29.1572V26.251C100.076 26.3479 100.464 26.3963 100.9 26.3963H101.093Z" fill="#D7BCC4"/>
<path d="M87.0465 29.7389V34.7279C86.7074 34.6311 86.3199 34.5826 85.9809 34.5826C83.8496 34.5826 82.1059 36.3748 82.1059 38.5545C82.1059 39.0389 82.2027 39.4748 82.348 39.9107C81.3793 39.1842 80.7012 38.0217 80.7012 36.7139C80.7012 34.5342 82.4449 32.742 84.5762 32.742C84.9637 32.742 85.3027 32.7904 85.6418 32.8873V29.6904C85.7387 29.6904 85.8355 29.6904 85.9324 29.6904C86.3199 29.6904 86.7074 29.6904 87.0465 29.7389Z" fill="#D7BCC4"/>
<path d="M95.2322 22.8121C94.3604 22.0371 93.7307 20.9715 93.3916 19.8574H94.5541C94.5541 20.0996 94.5541 20.2934 94.5541 20.5355C94.651 21.3105 94.8932 22.0855 95.2322 22.8121Z" fill="#D7BCC4"/>
<path d="M99.6893 26.2996V29.2059C99.4471 29.2543 99.1564 29.2543 98.8658 29.2543C96.6861 29.2543 94.6518 28.4309 93.1018 27.123V36.7137C93.1018 38.6512 92.4721 40.4918 91.358 41.9449C89.7596 44.0762 87.2893 45.4324 84.4799 45.4324C82.2033 45.4324 80.1205 44.5121 78.5705 43.059C77.7471 41.7027 77.2627 40.1527 77.2627 38.4574C77.2627 33.759 80.9924 29.9324 85.6424 29.7871V32.984C85.3033 32.8871 84.9158 32.8387 84.5768 32.8387C82.4455 32.8387 80.7018 34.6309 80.7018 36.8105C80.7018 38.1184 81.3314 39.3293 82.3486 40.0074C82.8814 41.509 84.3346 42.623 85.9814 42.623C88.1127 42.623 89.8564 40.8309 89.8564 38.6512V19.8574H93.3924C93.7314 21.0199 94.3611 22.0371 95.233 22.8121C96.1049 24.5559 97.7518 25.8637 99.6893 26.2996Z" fill="white"/>
<path opacity="0.5" d="M85.6422 28.0441V29.691C80.9922 29.8363 77.2625 33.6629 77.2625 38.3613C77.2625 40.0566 77.7469 41.6066 78.5703 42.9629C76.9234 41.3645 75.9062 39.1363 75.9062 36.6176C75.9062 31.8223 79.7812 27.9473 84.5281 27.9473C84.9156 27.9473 85.3031 27.9957 85.6422 28.0441Z" fill="#FF61E6"/>
<path opacity="0.5" d="M93.3924 19.8578H89.8564V38.5547C89.8564 40.7344 88.1127 42.5266 85.9814 42.5266C84.2861 42.5266 82.8814 41.4609 82.3486 39.9109C82.9783 40.3469 83.7533 40.6375 84.5768 40.6375C86.708 40.6375 88.4518 38.8938 88.4518 36.7141V17.9688H93.1502V18.0656C93.1502 18.2594 93.1502 18.4531 93.1986 18.6469C93.1986 19.0344 93.2955 19.4703 93.3924 19.8578Z" fill="#FF61E6"/>
<path opacity="0.5" d="M99.6893 24.5078V26.2516C97.7518 25.8641 96.1049 24.5562 95.1846 22.8125C96.3955 23.9266 97.9455 24.5562 99.6893 24.5078Z" fill="#FF61E6"/>
<circle cx="145" cy="33" r="32.5" fill="#0B1020" stroke="#BDBDBD"/>
<path d="M151.456 29.527C151.456 30.5381 151.493 31.5432 151.444 32.5543C151.396 33.7047 151.747 34.6916 152.474 35.5635C152.558 35.6665 152.637 35.7694 152.71 35.8784C152.97 36.2719 152.922 36.5444 152.564 36.8471C151.801 37.4889 151.045 38.1368 150.282 38.7786C149.828 39.16 149.543 39.154 149.083 38.7786C148.465 38.276 147.981 37.6584 147.551 36.9985C147.448 36.8411 147.394 36.8471 147.267 36.9682C146.504 37.7129 145.698 38.4032 144.675 38.7483C143.095 39.2872 141.49 39.3719 139.904 38.8088C138.378 38.2639 137.464 37.1377 137.125 35.5696C136.75 33.8198 136.943 32.1547 138.021 30.6713C138.838 29.5512 139.971 28.8913 141.272 28.4856C142.617 28.0739 144.003 27.9165 145.396 27.7772C145.789 27.7348 146.177 27.6985 146.57 27.6622C146.667 27.6561 146.752 27.644 146.746 27.5168C146.734 26.875 146.8 26.2211 146.649 25.5915C146.455 24.7862 145.928 24.3139 145.123 24.1383C144.548 24.0112 143.979 24.0475 143.422 24.2352C142.574 24.5258 142.047 25.1131 141.835 25.985C141.72 26.4633 141.496 26.6329 141.03 26.5844C140.037 26.4815 139.044 26.3786 138.057 26.2756C137.652 26.2332 137.44 25.9245 137.525 25.5309C138.039 23.0182 139.686 21.6075 142.06 20.9596C143.882 20.4631 145.729 20.4329 147.557 20.9475C149.028 21.3592 150.264 22.0858 150.954 23.5268C151.347 24.3442 151.438 25.2282 151.45 26.1122C151.462 27.2444 151.45 28.3887 151.456 29.527ZM146.746 31.4161C146.746 31.1133 146.734 30.8106 146.752 30.5079C146.764 30.3202 146.697 30.2536 146.51 30.2717C146.05 30.3141 145.583 30.3202 145.123 30.3807C144.318 30.4836 143.531 30.6834 142.877 31.192C141.926 31.9368 141.726 32.954 141.884 34.0983C142.072 35.4424 143.27 36.1872 144.554 35.7391C145.426 35.4364 145.959 34.7946 146.328 33.9893C146.716 33.1719 146.746 32.294 146.746 31.4161Z" fill="white"/>
<path d="M144.506 45.0816C139.886 45.0513 135.739 43.8646 131.991 41.364C131.228 40.8554 130.501 40.2984 129.811 39.6868C129.75 39.6324 129.69 39.5779 129.641 39.5113C129.575 39.4204 129.526 39.3115 129.605 39.2025C129.684 39.0814 129.817 39.0693 129.932 39.1238C130.198 39.2509 130.453 39.3902 130.713 39.5234C133.099 40.7827 135.611 41.6909 138.245 42.2661C140.631 42.7868 143.04 43.029 145.487 42.9624C148.98 42.8656 152.347 42.1632 155.586 40.8615C155.743 40.7949 155.907 40.7283 156.07 40.6919C156.3 40.6495 156.53 40.6798 156.633 40.9281C156.73 41.1581 156.603 41.3398 156.433 41.4851C156.312 41.588 156.173 41.6728 156.034 41.7636C153.945 43.1199 151.656 43.9917 149.234 44.5306C147.636 44.8939 146.013 45.0695 144.506 45.0816Z" fill="#F6A61F"/>
<path d="M156.161 39.6867C155.464 39.6806 154.774 39.7714 154.084 39.8441C153.951 39.8562 153.799 39.8925 153.739 39.7472C153.666 39.5837 153.805 39.4869 153.92 39.4082C154.78 38.839 155.743 38.615 156.754 38.5605C157.45 38.5181 158.141 38.5484 158.819 38.7543C159.128 38.8451 159.279 39.0267 159.273 39.3416C159.236 41.0248 158.673 42.49 157.456 43.6828C157.414 43.7252 157.366 43.7615 157.317 43.7978C157.208 43.8765 157.075 43.9492 156.96 43.8523C156.851 43.7615 156.911 43.6283 156.96 43.5193C157.317 42.6293 157.68 41.7453 157.856 40.7947C157.88 40.6736 157.886 40.5525 157.892 40.4375C157.898 40.0439 157.759 39.8744 157.372 39.7775C156.966 39.6685 156.56 39.6867 156.161 39.6867Z" fill="#F6A61F"/>
<circle cx="201" cy="33" r="32.5" fill="#0B1020" stroke="#BDBDBD"/>
<path d="M201.561 36.0096L189.268 28.1863C188.632 27.766 188.187 27.1129 188.029 26.3677C187.87 25.6224 188.01 24.8447 188.419 24.2018C188.828 23.559 189.474 23.1026 190.216 22.9308C190.958 22.759 191.738 22.8856 192.388 23.2834L201.407 29.0225L209.505 23.3539C210.137 22.9258 210.912 22.7633 211.662 22.9017C212.413 23.04 213.079 23.4681 213.517 24.0933C213.954 24.7186 214.128 25.4909 214.001 26.2435C213.874 26.996 213.456 27.6684 212.838 28.1154L201.561 36.0096Z" fill="white"/>
<path d="M212.141 43.1729H208.266V25.7354C208.266 24.9646 208.572 24.2253 209.117 23.6803C209.662 23.1353 210.401 22.8291 211.172 22.8291C211.943 22.8291 212.682 23.1353 213.227 23.6803C213.772 24.2253 214.078 24.9646 214.078 25.7354V41.2354C214.078 41.7492 213.874 42.242 213.511 42.6054C213.147 42.9687 212.654 43.1729 212.141 43.1729Z" fill="#BDBDBD"/>
<path d="M214.036 25.3135C214.028 25.2554 214.028 25.196 214.016 25.138C213.998 25.049 213.963 24.9669 213.936 24.881C213.911 24.7828 213.88 24.686 213.844 24.5911C213.824 24.5451 213.794 24.5047 213.772 24.4599C213.712 24.3308 213.642 24.2063 213.564 24.0874C213.525 24.0312 213.477 23.9832 213.434 23.9299C213.36 23.8331 213.281 23.7409 213.196 23.6539C213.131 23.5913 213.058 23.5388 212.988 23.4824C212.914 23.4185 212.836 23.3585 212.755 23.3025C212.679 23.2523 212.595 23.2136 212.513 23.1708C212.428 23.1262 212.344 23.0775 212.255 23.0419C212.169 23.0072 212.077 22.9851 211.987 22.9587C211.897 22.9322 211.807 22.9005 211.715 22.8834C211.6 22.865 211.485 22.8533 211.369 22.8485C211.295 22.8434 211.223 22.8305 211.149 22.8311C211.012 22.8351 210.875 22.8488 210.74 22.8722C210.685 22.8804 210.631 22.8797 210.576 22.8909C210.394 22.9468 210.211 23.0043 210.03 23.0634C209.98 23.0847 209.936 23.1164 209.888 23.1404C209.396 23.3699 208.981 23.7371 208.693 24.1974C208.405 24.6577 208.257 25.1915 208.266 25.7343V31.3163L212.839 28.1152C213.288 27.8139 213.64 27.3888 213.852 26.8916C214.065 26.3943 214.129 25.8463 214.036 25.3135Z" fill="#747474"/>
<path d="M190.828 22.8281C191.599 22.8281 192.338 23.1343 192.883 23.6793C193.428 24.2244 193.734 24.9636 193.734 25.7344V43.1719H189.859C189.346 43.1719 188.853 42.9677 188.489 42.6044C188.126 42.241 187.922 41.7482 187.922 41.2344V25.7344C187.922 24.9636 188.228 24.2244 188.773 23.6793C189.318 23.1343 190.057 22.8281 190.828 22.8281Z" fill="#9BA6B8"/>
<path d="M187.964 25.3132C187.973 25.2551 187.972 25.1957 187.984 25.1377C188.003 25.0487 188.037 24.9666 188.064 24.8807C188.089 24.7825 188.12 24.6858 188.157 24.5909C188.176 24.5449 188.206 24.5045 188.228 24.4597C188.288 24.3305 188.358 24.206 188.436 24.0871C188.475 24.0309 188.524 23.9829 188.566 23.9296C188.64 23.8328 188.719 23.7406 188.804 23.6536C188.869 23.591 188.942 23.5385 189.012 23.4821C189.087 23.4182 189.164 23.3582 189.245 23.3022C189.322 23.252 189.406 23.2133 189.487 23.1705C189.571 23.123 189.657 23.0797 189.746 23.0409C189.832 23.0062 189.924 22.9841 190.014 22.9577C190.103 22.9312 190.193 22.8996 190.285 22.8824C190.4 22.864 190.515 22.8524 190.631 22.8475C190.705 22.8424 190.778 22.8295 190.851 22.8301C190.989 22.8341 191.125 22.8478 191.26 22.8713C191.315 22.8794 191.37 22.8787 191.424 22.89C191.518 22.9139 191.61 22.9426 191.701 22.976C191.792 23.0003 191.882 23.0291 191.971 23.0624C192.021 23.0837 192.064 23.1154 192.113 23.1394C192.238 23.1984 192.359 23.2664 192.475 23.3429C192.863 23.6093 193.181 23.9663 193.4 24.3829C193.619 24.7995 193.734 25.2632 193.734 25.734V31.316L189.161 28.1151C188.713 27.8137 188.361 27.3886 188.148 26.8914C187.936 26.3942 187.872 25.846 187.964 25.3132Z" fill="#A8B8C5"/>
</svg>
