<svg width="26" height="26" viewBox="0 0 26 26" fill="none" xmlns="http://www.w3.org/2000/svg">
<path fill-rule="evenodd" clip-rule="evenodd" d="M9.54642 2.26352C5.72645 2.86691 2.80886 5.82207 2.25525 9.64844C2.14185 10.4324 2.17933 11.7874 2.33462 12.5176C2.83456 14.868 4.13781 16.7879 6.11868 18.092C8.25769 19.5003 10.9764 19.8683 13.4566 19.0852C14.1009 18.8818 15.159 18.3617 15.6909 17.987L16.1226 17.6829L19.1441 20.6928C22.4363 23.9722 22.2876 23.8473 22.8524 23.8065C23.3859 23.7679 23.7675 23.3861 23.806 22.8522C23.8469 22.2881 23.9713 22.4363 20.6923 19.1445L17.6825 16.123L17.9866 15.6914C18.3613 15.1595 18.8813 14.1014 19.0848 13.457C20.0081 10.5326 19.3425 7.40939 17.2993 5.07813C16.1007 3.71043 14.3608 2.71355 12.5013 2.32893C11.8305 2.1902 10.2343 2.15485 9.54642 2.26352ZM10.1359 4.36704C8.0339 4.631 6.24945 5.79526 5.21848 7.57535C3.9062 9.84115 4.06555 12.6138 5.62844 14.7096C6.63097 16.054 8.12673 16.9629 9.79611 17.242C10.8324 17.4153 12.1836 17.2809 13.1519 16.9082C14.8213 16.2656 16.2249 14.8709 16.889 13.1947C17.2776 12.2139 17.4186 10.8553 17.2416 9.79657C17.0165 8.45107 16.4457 7.31849 15.4991 6.33984C14.532 5.33995 13.3577 4.69737 12.0413 4.44763C11.5306 4.35079 10.5842 4.31072 10.1359 4.36704Z" fill="#EC26CC"/>
</svg>
