<svg width="228" height="225" viewBox="0 0 228 225" fill="none" xmlns="http://www.w3.org/2000/svg">
<path fill-rule="evenodd" clip-rule="evenodd" d="M1.64205 3.75C1.30105 5.813 1.01705 14.363 1.01105 22.75L1.00005 38H20.5001H40.0001V19V0H21.1311H2.26205L1.64205 3.75ZM45.2081 7.75L45.5001 15.5L50.2501 15.805C54.9471 16.106 55.0001 16.075 55.0001 13.055C55.0001 10.442 54.6291 10 52.4341 10C50.2241 10 49.9111 9.618 50.1841 7.25C50.4101 5.281 51.1391 4.409 52.7501 4.18C54.1961 3.975 55.0001 3.171 55.0001 1.93C55.0001 0.278 54.2731 0 49.9581 0H44.9161L45.2081 7.75ZM61.0001 1.934C61.0001 3.3 61.8071 3.96 63.7501 4.184C65.9101 4.432 66.5681 5.09 66.8161 7.25C67.1011 9.721 66.8221 10 64.0661 10C61.0161 10 61.0001 10.029 61.0001 15.5C61.0001 20.7 60.8641 21 58.5001 21C56.0291 21 56.0001 21.1 56.0001 29.5V38H53.0001C50.0301 38 50.0001 37.944 50.0001 32.5C50.0001 27.3 49.8641 27 47.5001 27H45.0001V37.5V48H47.5001C49.3331 48 50.0001 47.467 50.0001 46C50.0001 44.242 50.6671 44 55.5001 44H61.0001V35.5V27H64.0001H67.0001V18.5C67.0001 10.162 67.0461 10 69.4341 10C71.3451 10 71.9351 10.59 72.1841 12.75C72.4971 15.475 72.5751 15.503 80.7501 15.79C88.7681 16.073 89.0001 16.15 89.0001 18.54C89.0001 20.497 88.4891 21 86.5001 21C84.3891 21 84.0001 21.467 84.0001 24C84.0001 26.667 83.6671 27 81.0001 27C78.0301 27 78.0001 27.056 78.0001 32.5C78.0001 37.944 77.9701 38 75.0001 38C72.4671 38 72.0001 37.611 72.0001 35.5C72.0001 33.5 71.5001 33 69.5001 33C67.1361 33 67.0001 33.3 67.0001 38.5C67.0001 43.7 67.1361 44 69.5001 44C71.3111 44 72.0001 44.537 72.0001 45.948C72.0001 47.592 71.1831 47.943 66.7501 48.198C61.8531 48.48 61.4791 48.685 61.1841 51.25C60.8681 53.992 60.8451 54 52.9341 54H45.0001V57C45.0001 59.533 44.6111 60 42.5001 60C40.3891 60 40.0001 59.533 40.0001 57C40.0001 54.333 39.6671 54 37.0001 54C34.3331 54 34.0001 53.667 34.0001 51C34.0001 48.333 34.3331 48 37.0001 48C39.3331 48 40.0001 47.556 40.0001 46C40.0001 44.444 39.3331 44 37.0001 44C34.6671 44 34.0001 44.444 34.0001 46C34.0001 47.467 33.3331 48 31.5001 48C29.3891 48 29.0001 48.467 29.0001 51C29.0001 53.511 29.3961 54 31.4341 54C33.3451 54 33.9351 54.59 34.1841 56.75C34.4321 58.91 35.0901 59.568 37.2501 59.816C39.4101 60.065 40.0001 60.655 40.0001 62.566C40.0001 64.847 39.6571 65 34.5501 65H29.1001L28.8001 70.75C28.5161 76.193 28.3531 76.517 25.7501 76.816C23.6141 77.062 23.0001 77.661 23.0001 79.5C23.0001 81.339 23.6141 81.938 25.7501 82.184C27.9101 82.432 28.5681 83.09 28.8161 85.25C29.0651 87.41 29.6551 88 31.5661 88C33.3331 88 34.0001 88.548 34.0001 90C34.0001 91.452 33.3331 92 31.5661 92C29.6551 92 29.0651 92.59 28.8161 94.75C28.5681 96.91 27.9101 97.568 25.7501 97.816C23.2791 98.101 23.0001 97.822 23.0001 95.066C23.0001 92.462 23.3771 92 25.5001 92C27.3331 92 28.0001 91.467 28.0001 90C28.0001 88.24 27.3331 88 22.4501 88H16.9001L17.2001 82.25C17.4841 76.807 17.6471 76.483 20.2501 76.184C22.8741 75.882 23.0001 75.618 23.0001 70.434C23.0001 65.304 23.1401 65 25.5001 65C27.5001 65 28.0001 64.5 28.0001 62.5C28.0001 60.136 27.7001 60 22.5001 60H17.0001V65.5C17.0001 70.66 16.8501 71 14.5661 71C12.6551 71 12.0651 71.59 11.8161 73.75C11.5681 75.91 10.9101 76.568 8.75005 76.816C6.12605 77.118 6.00005 77.382 6.00005 82.566C6.00005 87.696 5.86005 88 3.50005 88C1.05605 88 1.00005 88.167 1.00005 95.5C1.00005 102.833 1.05605 103 3.50005 103C5.94405 103 6.00005 102.833 6.00005 95.5V88H11.5001H17.0001V93C17.0001 97.913 17.0531 98 20.0661 98C22.8221 98 23.1011 98.279 22.8161 100.75C22.5681 102.91 21.9101 103.568 19.7501 103.816C17.5901 104.065 17.0001 104.655 17.0001 106.566C17.0001 108.496 16.4821 109 14.5001 109C12.5001 109 12.0001 108.5 12.0001 106.5C12.0001 104.389 11.5331 104 9.00005 104C6.49005 104 6.00005 104.397 6.00005 106.43C6.00005 108.19 5.37905 108.949 3.75005 109.18C1.79505 109.458 1.46105 110.178 1.20005 114.674C0.926054 119.416 1.09305 119.875 3.20005 120.174C5.20705 120.459 5.56405 121.2 6.00005 126C6.46105 131.067 6.69705 131.5 9.00005 131.5C11.4401 131.5 11.5071 131.303 11.7901 123.301L12.0791 115.102L17.2901 114.801C22.1431 114.521 22.5221 114.312 22.8161 111.75C23.0621 109.614 23.6611 109 25.5001 109C27.3391 109 27.9381 108.386 28.1841 106.25C28.4861 103.622 28.7431 103.5 34.0001 103.5C39.2571 103.5 39.5141 103.622 39.8161 106.25C40.1281 108.959 40.0491 109 34.5661 109C29.0481 109 29.0001 109.026 29.0001 112C29.0001 114.97 29.0561 115 34.5001 115C39.7001 115 40.0001 115.136 40.0001 117.5C40.0001 119.864 39.7001 120 34.5001 120H29.0001V126C29.0001 131.733 29.1111 132 31.5001 132C33.3331 132 34.0001 132.533 34.0001 134C34.0001 135.467 33.3331 136 31.5001 136C29.1361 136 29.0001 136.3 29.0001 141.5V147H34.5001C39.7001 147 40.0001 146.864 40.0001 144.5C40.0001 142.389 39.5331 142 37.0001 142C34.3331 142 34.0001 141.667 34.0001 139C34.0001 136.03 34.0561 136 39.5001 136H45.0001V141.5C45.0001 146.7 45.1361 147 47.5001 147C49.8641 147 50.0001 146.7 50.0001 141.5C50.0001 136.3 50.1361 136 52.5001 136C54.3331 136 55.0001 135.467 55.0001 134C55.0001 132.533 54.3331 132 52.5001 132C50.3891 132 50.0001 131.533 50.0001 129C50.0001 126.467 50.3891 126 52.5001 126C54.6111 126 55.0001 125.533 55.0001 123C55.0001 120.467 54.6111 120 52.5001 120C50.5001 120 50.0001 119.5 50.0001 117.5C50.0001 115.167 49.6671 115 45.0001 115C40.1111 115 40.0001 114.933 40.0001 112C40.0001 109.489 40.3961 109 42.4341 109C44.3451 109 44.9351 108.41 45.1841 106.25L45.5001 103.5H56.0001H66.5001L66.8161 106.25C67.1281 108.959 67.0491 109 61.5661 109H56.0001V114.5C56.0001 119.7 56.1361 120 58.5001 120C60.4821 120 61.0001 119.496 61.0001 117.566C61.0001 115.655 61.5901 115.065 63.7501 114.816C65.9101 114.568 66.5681 113.91 66.8161 111.75C67.0651 109.59 67.6551 109 69.5661 109C71.8461 109 72.0001 109.344 72.0001 114.43C72.0001 119.301 71.7681 119.894 69.7501 120.18C68.1391 120.409 67.4101 121.281 67.1841 123.25C66.9111 125.618 67.2241 126 69.4341 126C71.6181 126 72.0001 126.446 72.0001 129C72.0001 131.97 71.9441 132 66.5001 132C61.0561 132 61.0001 131.97 61.0001 129C61.0001 126.467 60.6111 126 58.5001 126C56.3891 126 56.0001 126.467 56.0001 129C56.0001 131.533 56.3891 132 58.5001 132C60.8331 132 61.0001 132.333 61.0001 137C61.0001 141.667 60.8331 142 58.5001 142C56.1361 142 56.0001 142.3 56.0001 147.5C56.0001 152.7 56.1361 153 58.5001 153C60.8641 153 61.0001 152.7 61.0001 147.5V142H69.5001C77.8521 142 78.0001 142.043 78.0001 144.448C78.0001 146.696 77.5711 146.92 72.7501 147.198C67.8531 147.48 67.4791 147.685 67.1841 150.25C66.8721 152.959 66.9511 153 72.4341 153C77.9521 153 78.0001 152.974 78.0001 150C78.0001 147.333 78.3331 147 81.0001 147H84.0001V153C84.0001 158.733 84.1111 159 86.5001 159C88.8641 159 89.0001 159.3 89.0001 164.5V170H80.4341H71.8671L72.1841 167.25C72.4321 165.09 73.0901 164.432 75.2501 164.184C77.4101 163.935 78.0001 163.345 78.0001 161.434C78.0001 159.15 77.6601 159 72.5001 159H67.0001V169.5V180H64.0001C61.0671 180 61.0001 179.889 61.0001 175C61.0001 170.37 60.8201 170 58.5661 170C56.6551 170 56.0651 170.59 55.8161 172.75C55.5681 174.91 54.9101 175.568 52.7501 175.816C50.8071 176.04 50.0001 176.7 50.0001 178.066C50.0001 179.476 49.3041 180 47.4341 180C45.2241 180 44.9111 180.382 45.1841 182.75C45.4791 185.315 45.8531 185.52 50.7501 185.802L56.0001 186.105V191.552C56.0001 196.697 56.1391 197 58.5001 197C60.8601 197 61.0001 196.696 61.0001 191.566C61.0001 186.382 61.1261 186.118 63.7501 185.816C65.9101 185.568 66.5681 184.91 66.8161 182.75C67.1181 180.126 67.3821 180 72.5661 180C77.9371 180 78.0001 180.035 78.0001 183C78.0001 185.667 77.6671 186 75.0001 186H72.0001V194V202H85.4481H98.8951L99.1981 196.75C99.4801 191.853 99.6851 191.479 102.25 191.184C104.732 190.898 105 191.172 105 194C105 196.828 105.268 197.102 107.75 196.816C110.475 196.503 110.503 196.425 110.79 188.25C111.073 180.232 111.15 180 113.54 180C115.855 180 116 180.324 116 185.5C116 190.944 116.03 191 119 191C121.533 191 122 190.611 122 188.5C122 186.5 122.5 186 124.5 186C126.611 186 127 185.533 127 183C127 180.03 126.944 180 121.5 180C116.667 180 116 179.758 116 178C116 176.242 115.333 176 110.5 176C105.667 176 105 176.242 105 178C105 179.556 104.333 180 102 180C99.7031 180 99.0001 179.548 99.0001 178.07C99.0001 176.829 98.1961 176.025 96.7501 175.82C94.6521 175.522 94.4801 174.942 94.2101 167.25C93.9191 159.005 93.9211 159 96.4601 159C98.8981 159 99.0001 158.759 99.0001 153C99.0001 147.267 98.8891 147 96.5001 147C94.5001 147 94.0001 146.5 94.0001 144.5C94.0001 142.136 94.3001 142 99.5001 142C104.66 142 105 142.15 105 144.434C105 146.345 105.59 146.935 107.75 147.184C109.91 147.432 110.568 148.09 110.816 150.25C111.101 152.721 110.822 153 108.066 153C105.016 153 105 153.029 105 158.5V164H110.5C115.944 164 116 164.03 116 167C116 169.667 116.333 170 119 170C121.97 170 122 169.944 122 164.5V159H116.5C111.056 159 111 158.97 111 156C111 153.03 111.056 153 116.5 153C121.971 153 122 152.984 122 149.934C122 147.178 122.279 146.899 124.75 147.184C126.91 147.432 127.568 148.09 127.816 150.25C128.062 152.386 128.661 153 130.5 153C132.339 153 132.938 152.386 133.184 150.25C133.473 147.732 133.9 147.474 138.25 147.195C142.947 146.894 143 146.925 143 149.945C143 152.981 143.034 153 148.5 153H154V147.5C154 142.3 153.864 142 151.5 142C149.389 142 149 141.533 149 139C149 136.03 148.944 136 143.5 136C138.667 136 138 135.758 138 134C138 132.157 138.667 132 146.5 132H155V137C155 141.667 155.167 142 157.5 142C159.611 142 160 141.533 160 139C160 136.333 160.333 136 163 136C165.667 136 166 136.333 166 139C166 141.97 166.056 142 171.5 142C176.944 142 177 141.97 177 139C177 136.667 177.444 136 179 136C180.292 136 181 135.333 181 134.117C181 133.074 180.107 132 179 131.71C177.649 131.357 177 130.346 177 128.594C177 126.117 176.753 126 171.5 126C166.029 126 166 126.016 166 129.066C166 131.822 165.721 132.101 163.25 131.816C161.107 131.57 160.431 130.906 160.189 128.811C159.949 126.732 159.268 126.051 157.189 125.811C155.094 125.569 154.43 124.893 154.184 122.75C153.935 120.59 153.345 120 151.434 120C149.504 120 149 119.482 149 117.5C149 115.389 148.533 115 146 115C143.333 115 143 114.667 143 112C143 109.467 142.611 109 140.5 109C138.389 109 138 109.467 138 112C138 114.549 137.617 115 135.45 115C132.978 115 132.909 114.825 133.2 109.25C133.466 104.156 133.757 103.464 135.75 103.18C137.379 102.949 138 102.19 138 100.43C138 98.505 138.519 98 140.5 98C142.611 98 143 97.533 143 95C143 92.467 142.611 92 140.5 92C138.689 92 138 91.463 138 90.052C138 88.408 138.817 88.057 143.25 87.802C148.147 87.52 148.521 87.315 148.816 84.75C149.128 82.041 149.049 82 143.566 82H138V73.5C138 65.1 138.029 65 140.5 65C142.864 65 143 64.7 143 59.5C143 54.083 143.044 54 145.934 54C148.39 54 148.919 54.447 149.184 56.75C149.432 58.91 150.09 59.568 152.25 59.816C154.41 60.065 155 60.655 155 62.566C155 64.496 155.518 65 157.5 65C159.623 65 160 65.462 160 68.066C160 70.822 159.721 71.101 157.25 70.816C155.09 70.568 154.432 69.91 154.184 67.75C153.935 65.59 153.345 65 151.434 65C149.396 65 149 65.489 149 68C149 70.667 148.667 71 146 71C143.467 71 143 71.389 143 73.5C143 75.971 143.1 76 151.5 76C159.9 76 160 75.971 160 73.5C160 71.389 160.467 71 163 71C165.667 71 166 70.667 166 68C166 65.467 166.389 65 168.5 65C170.5 65 171 64.5 171 62.5C171 60.5 170.5 60 168.5 60C166.5 60 166 60.5 166 62.5C166 64.611 165.533 65 163 65H160V56.5V48H163C165.667 48 166 48.333 166 51V54H173.5H181V51V48H173.5C166.667 48 166 47.822 166 46C166 44.444 165.333 44 163 44C160.03 44 160 43.944 160 38.5C160 33.056 160.03 33 163 33C165.533 33 166 33.389 166 35.5C166 37.482 166.504 38 168.434 38C170.345 38 170.935 38.59 171.184 40.75C171.473 43.268 171.9 43.526 176.25 43.805L181 44.11V32.555V21H168.066H155.133L154.816 23.75C154.57 25.889 153.905 26.569 151.822 26.809C149.54 27.073 149.097 26.704 148.822 24.309C148.565 22.065 147.997 21.5 146 21.5C144.016 21.5 143.435 22.068 143.184 24.25C142.938 26.386 142.339 27 140.5 27C138.661 27 138.062 26.386 137.816 24.25C137.59 22.281 136.861 21.409 135.25 21.18C133.621 20.949 133 20.19 133 18.43C133 16.505 132.481 16 130.5 16C128.136 16 128 16.3 128 21.5V27H133C137.889 27 138 27.067 138 30C138 32.533 137.611 33 135.5 33C133.5 33 133 33.5 133 35.5C133 37.611 132.533 38 130 38C127.467 38 127 37.611 127 35.5C127 33.5 126.5 33 124.5 33C122.136 33 122 33.3 122 38.5V44H113.5H105V38.5C105 33.056 105.03 33 108 33C110.533 33 111 33.389 111 35.5C111 37.5 111.5 38 113.5 38C115.5 38 116 37.5 116 35.5C116 33.5 115.5 33 113.5 33C111.111 33 111 32.733 111 27C111 21.267 111.111 21 113.5 21C115.611 21 116 21.467 116 24C116 26.681 116.326 27 119.066 27C121.822 27 122.101 26.721 121.816 24.25C121.568 22.09 120.91 21.432 118.75 21.184C116.59 20.935 116 20.345 116 18.434C116 16.504 115.482 16 113.5 16C111.389 16 111 15.533 111 13C111 10.489 111.396 10 113.434 10C115.345 10 115.935 9.41 116.184 7.25C116.432 5.09 117.09 4.432 119.25 4.184C121.193 3.96 122 3.3 122 1.934C122 0.26 121.271 0 116.57 0C111.699 0 111.106 0.232 110.82 2.25C110.591 3.861 109.719 4.59 107.75 4.816C105.59 5.065 105 5.655 105 7.566C105 9.604 104.511 10 102 10C99.0671 10 99.0001 9.889 99.0001 5C99.0001 0.371 98.8191 0 96.5701 0C94.8101 0 94.0511 0.621 93.8201 2.25C93.6141 3.696 92.6961 4.614 91.2501 4.82C89.6211 5.051 89.0001 5.81 89.0001 7.57C89.0001 9.954 88.8391 10 80.4341 10H71.8671L72.1841 7.25C72.4831 4.647 72.8071 4.484 78.2501 4.2C83.1821 3.943 84.0001 3.623 84.0001 1.95C84.0001 0.13 83.2351 0 72.5001 0C61.7981 0 61.0001 0.134 61.0001 1.934ZM133 5C133 9.667 133.167 10 135.5 10C137.833 10 138 9.667 138 5C138 0.333 137.833 0 135.5 0C133.167 0 133 0.333 133 5ZM149 1.948C149 3.592 149.817 3.943 154.25 4.198C159.147 4.48 159.521 4.685 159.816 7.25C160.089 9.618 159.776 10 157.566 10C155.382 10 155 10.446 155 13V16H168H181V8V0H165C149.81 0 149 0.099 149 1.948ZM187 19V38H207H227V22.125C227 13.394 226.719 4.844 226.375 3.125L225.75 0H206.375H187V19ZM6.44805 5.274C6.16705 6.006 6.06405 12.432 6.21905 19.553L6.50005 32.5L20.2781 32.778L34.0551 33.057L33.7781 18.778L33.5001 4.5L20.2301 4.221C9.90105 4.004 6.84605 4.237 6.44805 5.274ZM166.713 4.621C166.321 5.013 166 6.383 166 7.667C166 9.832 166.402 10 171.566 10C177.049 10 177.128 9.959 176.816 7.25C176.529 4.753 176.083 4.473 171.963 4.204C169.467 4.041 167.105 4.229 166.713 4.621ZM193.694 4.639C193.312 5.021 193 11.571 193 19.195V33.056L206.75 32.778L220.5 32.5V18.5V4.5L207.444 4.222C200.264 4.07 194.076 4.257 193.694 4.639ZM122 7.5C122 9.5 122.5 10 124.5 10C126.5 10 127 9.5 127 7.5C127 5.5 126.5 5 124.5 5C122.5 5 122 5.5 122 7.5ZM12.0001 18.5V27H20.0001H28.0001V18.5V10H20.0001H12.0001V18.5ZM89.0001 13C89.0001 15.533 89.3891 16 91.5001 16C93.5001 16 94.0001 16.5 94.0001 18.5C94.0001 20.5 93.5001 21 91.5001 21C89.3891 21 89.0001 21.467 89.0001 24C89.0001 26.933 89.1111 27 94.0001 27C98.8891 27 99.0001 27.067 99.0001 30C99.0001 32.533 98.6111 33 96.5001 33C94.5001 33 94.0001 33.5 94.0001 35.5C94.0001 37.5 94.5001 38 96.5001 38C98.5001 38 99.0001 37.5 99.0001 35.5C99.0001 33.389 99.4671 33 102 33C104.667 33 105 32.667 105 30C105 27.333 104.667 27 102 27C99.0301 27 99.0001 26.944 99.0001 21.5C99.0001 16.3 98.8641 16 96.5001 16C94.3891 16 94.0001 15.533 94.0001 13C94.0001 10.467 93.6111 10 91.5001 10C89.3891 10 89.0001 10.467 89.0001 13ZM143.362 11.5C142.39 14.031 143.815 16.165 146.246 15.82C147.861 15.591 148.59 14.721 148.816 12.75C149.09 10.375 148.779 10 146.535 10C145.106 10 143.678 10.675 143.362 11.5ZM198.667 10.667C198.3 11.033 198 14.858 198 19.167V27H206.5H215V18.5V10H207.167C202.858 10 199.033 10.3 198.667 10.667ZM143 30C143 32.533 142.611 33 140.5 33C138.5 33 138 33.5 138 35.5C138 37.5 137.5 38 135.5 38C133.043 38 133 38.138 133 45.934C133 53.845 132.992 53.868 130.25 54.184C128.068 54.435 127.5 55.016 127.5 57C127.5 58.984 128.068 59.565 130.25 59.816C132.386 60.062 133 60.661 133 62.5C133 64.339 132.386 64.938 130.25 65.184C128.068 65.435 127.5 66.016 127.5 68C127.5 69.984 128.068 70.565 130.25 70.816C132.721 71.101 133 70.822 133 68.066C133 65.462 133.377 65 135.5 65C137.5 65 138 64.5 138 62.5C138 60.5 137.5 60 135.5 60C133.389 60 133 59.533 133 57C133 54.072 133.118 54 137.934 54C142.572 54 142.886 53.836 143.184 51.25C143.432 49.09 144.09 48.432 146.25 48.184C148.732 47.898 149 48.172 149 51C149 53.828 149.268 54.102 151.75 53.816C153.91 53.568 154.568 52.91 154.816 50.75C155.065 48.59 155.655 48 157.566 48C159.333 48 160 47.452 160 46C160 44.444 159.333 44 157 44C154.667 44 154 44.444 154 46C154 47.467 153.333 48 151.5 48C149.667 48 149 47.467 149 46C149 44.444 148.333 44 146 44C143.03 44 143 43.944 143 38.5C143 33.056 143.03 33 146 33C148.533 33 149 33.389 149 35.5C149 37.611 149.467 38 152 38C154.533 38 155 37.611 155 35.5C155 33.389 154.533 33 152 33C149.333 33 149 32.667 149 30C149 27.333 148.667 27 146 27C143.333 27 143 27.333 143 30ZM171 32.5C171 37.944 171.03 38 174 38C176.97 38 177 37.944 177 32.5C177 27.056 176.97 27 174 27C171.03 27 171 27.056 171 32.5ZM84.0001 38.5C84.0001 43.7 84.1361 44 86.5001 44C88.8641 44 89.0001 43.7 89.0001 38.5C89.0001 33.3 88.8641 33 86.5001 33C84.1361 33 84.0001 33.3 84.0001 38.5ZM12.0001 46C12.0001 47.467 12.6671 48 14.5001 48C16.6111 48 17.0001 48.467 17.0001 51C17.0001 53.667 17.3331 54 20.0001 54C22.6671 54 23.0001 53.667 23.0001 51C23.0001 48.467 23.3891 48 25.5001 48C27.3331 48 28.0001 47.467 28.0001 46C28.0001 44.167 27.3331 44 20.0001 44C12.6671 44 12.0001 44.167 12.0001 46ZM94.0001 45.958C94.0001 47.708 93.1781 47.947 86.2501 48.208C78.6211 48.495 78.4951 48.543 78.1841 51.25L77.8671 54H69.5001H61.1331L60.8161 56.75C60.5211 59.315 60.1471 59.52 55.2501 59.802L50.0001 60.105V65.552C50.0001 70.657 50.1531 71 52.4341 71C54.3451 71 54.9351 71.59 55.1841 73.75C55.4321 75.91 56.0901 76.568 58.2501 76.816C60.3861 77.062 61.0001 77.661 61.0001 79.5C61.0001 81.339 60.3861 81.938 58.2501 82.184C56.0681 82.435 55.5001 83.016 55.5001 85C55.5001 86.984 56.0681 87.565 58.2501 87.816C60.8361 88.114 61.0001 88.428 61.0001 93.066C61.0001 97.882 61.0721 98 64.0001 98C66.6671 98 67.0001 97.667 67.0001 95V92H78.0001H89.0001V95C89.0001 97.533 88.6111 98 86.5001 98C84.5181 98 84.0001 98.504 84.0001 100.434C84.0001 102.345 83.4101 102.935 81.2501 103.184C78.6421 103.484 78.4841 103.801 78.1981 109.321L77.8961 115.143L80.6981 114.821C83.3221 114.52 83.5191 114.168 83.8011 109.293L84.1021 104.086L91.3011 103.793C98.3281 103.507 98.5081 103.434 98.8161 100.75C99.0811 98.447 99.6101 98 102.066 98H105V90V82H110.566C116.049 82 116.128 81.959 115.816 79.25C115.59 77.281 114.861 76.409 113.25 76.18C111.621 75.949 111 75.19 111 73.43C111 71.151 111.342 71 116.5 71C121.944 71 122 70.97 122 68C122 65.333 121.667 65 119 65C116.489 65 116 64.604 116 62.566C116 60.655 116.59 60.065 118.75 59.816C120.91 59.568 121.568 58.91 121.816 56.75C122.101 54.279 121.822 54 119.066 54C116.314 54 116 53.687 116 50.948V47.895L110.75 48.198C105.853 48.48 105.479 48.685 105.184 51.25C104.899 53.721 105.178 54 107.934 54C110.984 54 111 54.029 111 59.5C111 64.944 110.97 65 108 65C105.489 65 105 64.604 105 62.566C105 60.655 104.41 60.065 102.25 59.816C100.09 59.568 99.4321 58.91 99.1841 56.75C98.9351 54.59 98.3451 54 96.4341 54C94.3961 54 94.0001 53.511 94.0001 51C94.0001 48.467 94.3891 48 96.5001 48C98.3331 48 99.0001 47.467 99.0001 46C99.0001 44.533 98.3331 44 96.5001 44C94.6851 44 94.0001 44.536 94.0001 45.958ZM182 46C182 47.467 182.667 48 184.5 48C186.889 48 187 48.267 187 54C187 59.733 186.889 60 184.5 60C182.5 60 182 60.5 182 62.5C182 64.5 182.5 65 184.5 65C186.611 65 187 65.467 187 68C187 70.511 186.604 71 184.566 71C182.655 71 182.065 71.59 181.816 73.75C181.59 75.719 180.861 76.591 179.25 76.82C177.642 77.048 177 77.813 177 79.5C177 81.187 177.642 81.952 179.25 82.18C181.17 82.453 181.545 83.197 181.805 87.25C182.08 91.539 182.347 92 184.555 92C186.605 92 187 92.485 187 95C187 97.667 187.333 98 190 98C192.51 98 193 98.397 193 100.43C193 102.19 193.621 102.949 195.25 103.18C196.861 103.409 197.59 104.281 197.816 106.25C198.089 108.618 197.776 109 195.566 109C193.496 109 193 108.517 193 106.5C193 104.389 192.533 104 190 104C187.467 104 187 104.389 187 106.5C187 108.611 187.467 109 190 109C192.667 109 193 109.333 193 112C193 114.667 192.667 115 190 115C187.467 115 187 115.389 187 117.5C187 119.5 186.5 120 184.5 120C182.111 120 182 120.267 182 126V132H187.5C192.333 132 193 132.242 193 134C193 135.758 192.333 136 187.5 136H182V141.5C182 146.7 182.136 147 184.5 147C186.482 147 187 146.496 187 144.566C187 142.655 187.59 142.065 189.75 141.816C191.91 141.568 192.568 140.91 192.816 138.75C193.065 136.59 193.655 136 195.566 136C197.85 136 198 136.34 198 141.5V147H209.5H221V144.5C221 142.029 220.9 142 212.5 142H204V139C204 136.333 204.333 136 207 136C209.333 136 210 135.556 210 134C210 132.444 209.333 132 207 132C204.333 132 204 131.667 204 129C204 126.319 204.326 126 207.066 126C209.822 126 210.101 125.721 209.816 123.25C209.568 121.09 208.91 120.432 206.75 120.184C204.59 119.935 204 119.345 204 117.434C204 115.15 204.34 115 209.5 115C214.7 115 215 115.136 215 117.5C215 119.889 215.267 120 221 120C226.733 120 227 119.889 227 117.5C227 115.111 226.733 115 221 115H215V112C215 109.467 214.611 109 212.5 109C210.518 109 210 108.496 210 106.566C210 104.655 209.41 104.065 207.25 103.816C205.09 103.568 204.432 102.91 204.184 100.75C203.899 98.279 204.178 98 206.934 98C209.538 98 210 98.377 210 100.5C210 102.5 210.5 103 212.5 103C214.5 103 215 102.5 215 100.5C215 98.5 214.5 98 212.5 98C210.389 98 210 97.533 210 95C210 92.467 210.389 92 212.5 92C214.333 92 215 91.467 215 90C215 88.548 214.333 88 212.566 88C210.655 88 210.065 87.41 209.816 85.25C209.516 82.643 209.198 82.484 203.689 82.198C198.028 81.904 197.885 81.827 198.189 79.198C198.432 77.093 199.105 76.43 201.25 76.184C203.41 75.935 204 75.345 204 73.434C204 71.385 203.515 71 200.934 71C198.178 71 197.899 70.721 198.184 68.25C198.483 65.647 198.807 65.484 204.25 65.2L210 64.9V70.45C210 75.703 210.134 76 212.5 76C214.864 76 215 75.7 215 70.5C215 65.056 215.03 65 218 65C220.97 65 221 65.056 221 70.5C221 75.958 221.023 76 224.034 76H227.068L226.784 65.25L226.5 54.5L223.75 54.184C221.447 53.919 221 53.39 221 50.934C221 48.341 221.348 48 224 48C226.333 48 227 47.556 227 46C227 44.157 226.333 44 218.5 44C210.667 44 210 44.157 210 46C210 47.467 210.667 48 212.5 48C214.611 48 215 48.467 215 51C215 53.533 214.611 54 212.5 54C210.377 54 210 54.462 210 57.066C210 59.822 209.721 60.101 207.25 59.816C204.694 59.522 204.465 59.112 204 54C203.535 48.888 203.306 48.478 200.75 48.184C198.807 47.96 198 47.3 198 45.934C198 44.183 197.242 44 190 44C182.667 44 182 44.167 182 46ZM5.81605 56.75C5.59005 58.719 4.86105 59.591 3.25005 59.82C1.62105 60.051 1.00005 60.81 1.00005 62.57C1.00005 64.849 1.34205 65 6.50005 65H12.0001V59.5C12.0001 54.083 11.9561 54 9.06605 54C6.61005 54 6.08105 54.447 5.81605 56.75ZM84.0001 57V60H75.5001C67.1001 60 67.0001 60.029 67.0001 62.5C67.0001 64.971 67.1001 65 75.5001 65C83.9001 65 84.0001 64.971 84.0001 62.5C84.0001 60.167 84.3331 60 89.0001 60H94.0001V65.5C94.0001 70.7 93.8641 71 91.5001 71C88.0631 71 87.8361 75.696 91.2501 76.18C92.8611 76.409 93.5901 77.281 93.8161 79.25L94.1331 82H83.0661H72.0001V79.5C72.0001 77.5 71.5001 77 69.5001 77C67.5001 77 67.0001 77.5 67.0001 79.5C67.0001 81.611 66.5331 82 64.0001 82C61.3331 82 61.0001 82.333 61.0001 85V88H77.5001H94.0001V93C94.0001 97.667 94.1671 98 96.5001 98C98.8331 98 99.0001 97.667 99.0001 93C99.0001 88.333 98.8331 88 96.5001 88C94.3891 88 94.0001 87.533 94.0001 85C94.0001 82.467 94.3891 82 96.5001 82C98.8641 82 99.0001 81.7 99.0001 76.5C99.0001 71.056 99.0301 71 102 71C104.667 71 105 70.667 105 68C105 65.333 104.667 65 102 65C99.4671 65 99.0001 64.611 99.0001 62.5C99.0001 60.5 98.5001 60 96.5001 60C94.3891 60 94.0001 59.533 94.0001 57C94.0001 54.067 93.8891 54 89.0001 54C84.1111 54 84.0001 54.067 84.0001 57ZM215 57C215 59.533 214.611 60 212.5 60C210.5 60 210 60.5 210 62.5C210 64.5 210.5 65 212.5 65C214.482 65 215 64.496 215 62.566C215 60.655 215.59 60.065 217.75 59.816C219.91 59.568 220.568 58.91 220.816 56.75C221.101 54.279 220.822 54 218.066 54C215.326 54 215 54.319 215 57ZM40.0001 68C40.0001 70.681 39.6741 71 36.9341 71C34.1781 71 33.8991 71.279 34.1841 73.75C34.4321 75.91 35.0901 76.568 37.2501 76.816C39.4101 77.065 40.0001 77.655 40.0001 79.566C40.0001 81.604 39.5111 82 37.0001 82C34.3191 82 34.0001 82.326 34.0001 85.066C34.0001 87.822 34.2791 88.101 36.7501 87.816C38.9101 87.568 39.5681 86.91 39.8161 84.75C40.0621 82.614 40.6611 82 42.5001 82C44.3391 82 44.9381 82.614 45.1841 84.75C45.4131 86.74 46.1361 87.59 47.8021 87.826C50.0071 88.139 50.0921 87.907 49.8021 82.326L49.5001 76.5L44.7501 76.195C40.4611 75.92 40.0001 75.653 40.0001 73.445C40.0001 71.504 40.5151 71 42.5001 71C44.6111 71 45.0001 70.533 45.0001 68C45.0001 65.467 44.6111 65 42.5001 65C40.3891 65 40.0001 65.467 40.0001 68ZM177 68C177 70.333 177.444 71 179 71C180.556 71 181 70.333 181 68C181 65.667 180.556 65 179 65C177.444 65 177 65.667 177 68ZM61.0001 73.5C61.0001 75.611 61.4671 76 64.0001 76C66.5331 76 67.0001 75.611 67.0001 73.5C67.0001 71.389 66.5331 71 64.0001 71C61.4671 71 61.0001 71.389 61.0001 73.5ZM78.0001 73.5C78.0001 75.611 78.4671 76 81.0001 76C83.5331 76 84.0001 75.611 84.0001 73.5C84.0001 71.389 83.5331 71 81.0001 71C78.4671 71 78.0001 71.389 78.0001 73.5ZM187 76.5C187 81.944 187.03 82 190 82C192.97 82 193 81.944 193 76.5C193 71.056 192.97 71 190 71C187.03 71 187 71.056 187 76.5ZM127.709 76.624C127.319 77.014 127 78.383 127 79.667C127 81.489 126.452 82 124.5 82C122.389 82 122 82.467 122 85C122 87.973 122.05 88 127.55 88H133.1L132.8 82.25C132.544 77.342 132.201 76.457 130.459 76.208C129.336 76.047 128.099 76.235 127.709 76.624ZM160 79.5C160 81.5 159.5 82 157.5 82C155.389 82 155 82.467 155 85C155 87.533 155.389 88 157.5 88C159.333 88 160 88.533 160 90C160 91.556 160.667 92 163 92C165.97 92 166 92.056 166 97.5C166 102.7 166.136 103 168.5 103C170.5 103 171 102.5 171 100.5C171 98.389 171.467 98 174 98C176.97 98 177 98.056 177 103.5V109H171.5C166.056 109 166 109.03 166 112C166 114.533 166.389 115 168.5 115C170.5 115 171 115.5 171 117.5C171 119.833 171.333 120 176 120C180.667 120 181 119.833 181 117.5C181 115.667 180.467 115 179 115C177.444 115 177 114.333 177 112C177 109.667 177.444 109 179 109C180.843 109 181 108.333 181 100.5V92H173.5C166.667 92 166 91.822 166 90C166 88.533 166.667 88 168.5 88C170.611 88 171 87.533 171 85C171 82.467 170.611 82 168.5 82C166.5 82 166 81.5 166 79.5C166 77.389 165.533 77 163 77C160.467 77 160 77.389 160 79.5ZM215 79.5C215 81.611 215.467 82 218 82C220.533 82 221 81.611 221 79.5C221 77.389 220.533 77 218 77C215.467 77 215 77.389 215 79.5ZM160 85C160 87.667 160.333 88 163 88C165.667 88 166 87.667 166 85C166 82.333 165.667 82 163 82C160.333 82 160 82.333 160 85ZM187 90C187 91.556 187.667 92 190 92C192.667 92 193 92.333 193 95C193 97.533 193.389 98 195.5 98C197.611 98 198 97.533 198 95C198 92.333 198.333 92 201 92C203.333 92 204 91.556 204 90C204 88.444 203.333 88 201 88C198.667 88 198 88.444 198 90C198 91.467 197.333 92 195.5 92C193.667 92 193 91.467 193 90C193 88.444 192.333 88 190 88C187.667 88 187 88.444 187 90ZM34.0001 94.934C34.0001 97.689 34.3111 98 37.0661 98C39.8221 98 40.1011 97.721 39.8161 95.25C39.5681 93.09 38.9101 92.432 36.7501 92.184C34.2791 91.899 34.0001 92.178 34.0001 94.934ZM116.667 92.667C116.3 93.033 116 94.383 116 95.667C116 97.593 116.524 98 119 98C121.52 98 122 98.393 122 100.46C122 102.85 121.768 102.927 113.75 103.21C105.575 103.497 105.497 103.525 105.184 106.25C104.882 108.874 104.618 109 99.4341 109H94.0001V114.5V120H83.0001H72.0001V123V126H80.4341H88.8671L89.1841 128.75C89.4111 130.728 90.0621 131.5 91.5001 131.5C92.9381 131.5 93.5891 130.728 93.8161 128.75C94.0651 126.59 94.6551 126 96.5661 126C98.8201 126 99.0001 126.37 99.0001 131V136H105H111V139C111 141.533 111.389 142 113.5 142C115.611 142 116 141.533 116 139C116 136.467 115.611 136 113.5 136C111.695 136 111 135.462 111 134.066C111 132.7 110.193 132.04 108.25 131.816C106.09 131.568 105.432 130.91 105.184 128.75C104.872 126.045 104.957 126 110.367 126C115.624 126 115.881 126.122 116.184 128.75C116.432 130.91 117.09 131.568 119.25 131.816C121.193 132.04 122 132.7 122 134.066C122 135.448 122.695 136 124.434 136C126.345 136 126.935 136.59 127.184 138.75C127.482 141.341 127.789 141.5 132.5 141.5C137.211 141.5 137.518 141.341 137.816 138.75C138.125 136.07 138.003 136 133.066 136H128V131C128 126.37 128.18 126 130.434 126C132.345 126 132.935 126.59 133.184 128.75C133.41 130.719 134.139 131.591 135.75 131.82C137.871 132.121 138 131.792 138 126.07C138 120.262 138.108 120 140.5 120C142.611 120 143 120.467 143 123C143 125.667 143.333 126 146 126C148.667 126 149 125.667 149 123C149 120.333 148.667 120 146 120C143.467 120 143 119.611 143 117.5C143 115.5 142.5 115 140.5 115C138.5 115 138 115.5 138 117.5C138 119.833 137.667 120 133 120C128.333 120 128 119.833 128 117.5C128 115.389 127.533 115 125 115C122.467 115 122 115.389 122 117.5C122 119.864 121.7 120 116.5 120C111.3 120 111 119.864 111 117.5C111 115.389 110.533 115 108 115C105.333 115 105 114.667 105 112V109H113.5C121.838 109 122 108.954 122 106.566C122 104.655 122.59 104.065 124.75 103.816C126.91 103.568 127.568 102.91 127.816 100.75C128.065 98.59 128.655 98 130.566 98C132.615 98 133 97.515 133 94.934C133 92.178 132.721 91.899 130.25 92.184C128.09 92.432 127.432 93.09 127.184 95.25C126.935 97.41 126.345 98 124.434 98C122.396 98 122 97.511 122 95C122 92.524 121.593 92 119.667 92C118.383 92 117.033 92.3 116.667 92.667ZM149 100.5C149 108.9 149.029 109 151.5 109C153.971 109 154 108.9 154 100.5C154 92.1 153.971 92 151.5 92C149.029 92 149 92.1 149 100.5ZM221 95C221 97.828 221.268 98.102 223.75 97.816C225.932 97.565 226.5 96.984 226.5 95C226.5 93.016 225.932 92.435 223.75 92.184C221.268 91.898 221 92.172 221 95ZM221 106.5C221 108.611 221.467 109 224 109C226.533 109 227 108.611 227 106.5C227 104.389 226.533 104 224 104C221.467 104 221 104.389 221 106.5ZM6.00005 112C6.00005 114.667 6.33305 115 9.00005 115C11.6671 115 12.0001 114.667 12.0001 112C12.0001 109.333 11.6671 109 9.00005 109C6.33305 109 6.00005 109.333 6.00005 112ZM155 114.5C155 119.7 155.136 120 157.5 120C159.864 120 160 119.7 160 114.5C160 109.3 159.864 109 157.5 109C155.136 109 155 109.3 155 114.5ZM99.0001 120.5C99.0001 125.944 99.0301 126 102 126C104.97 126 105 125.944 105 120.5C105 115.056 104.97 115 102 115C99.0301 115 99.0001 115.056 99.0001 120.5ZM193 117.5C193 119.611 192.533 120 190 120C187.333 120 187 120.333 187 123C187 125.667 187.333 126 190 126C192.667 126 193 126.333 193 129C193 131.533 193.389 132 195.5 132C197.333 132 198 132.533 198 134C198 135.556 198.667 136 201 136C203.299 136 204 135.548 204 134.066C204 132.7 203.193 132.04 201.25 131.816C199.09 131.568 198.432 130.91 198.184 128.75C197.935 126.59 197.345 126 195.434 126C193.396 126 193 125.511 193 123C193 120.467 193.389 120 195.5 120C197.5 120 198 119.5 198 117.5C198 115.5 197.5 115 195.5 115C193.5 115 193 115.5 193 117.5ZM40.0001 123C40.0001 125.667 39.6671 126 37.0001 126C34.3331 126 34.0001 126.333 34.0001 129C34.0001 131.97 34.0561 132 39.5001 132C44.3331 132 45.0001 132.242 45.0001 134C45.0001 135.467 45.6671 136 47.5001 136C50.8231 136 51.0451 132.288 47.7501 131.82C46.1391 131.591 45.4101 130.719 45.1841 128.75C44.9111 126.382 45.2241 126 47.4341 126C49.6181 126 50.0001 125.554 50.0001 123C50.0001 120.067 49.8891 120 45.0001 120C40.1111 120 40.0001 120.067 40.0001 123ZM122 123C122 125.533 122.389 126 124.5 126C126.611 126 127 125.533 127 123C127 120.467 126.611 120 124.5 120C122.389 120 122 120.467 122 123ZM17.0001 131C17.0001 135.667 16.8331 136 14.5001 136C12.3891 136 12.0001 136.467 12.0001 139C12.0001 141.533 12.3891 142 14.5001 142C16.8641 142 17.0001 142.3 17.0001 147.5C17.0001 152.7 16.8641 153 14.5001 153C12.3771 153 12.0001 153.462 12.0001 156.066C12.0001 158.822 11.7211 159.101 9.25005 158.816C6.52505 158.503 6.49705 158.425 6.21005 150.25C5.92705 142.211 5.85605 142 3.43705 142H0.956055L1.22805 160.75C1.49805 179.339 1.51905 179.503 3.75005 179.82C5.92405 180.128 6.00005 179.866 6.00005 172.07V164H9.00005C11.5331 164 12.0001 163.611 12.0001 161.5C12.0001 159.5 12.5001 159 14.5001 159C16.6111 159 17.0001 158.533 17.0001 156C17.0001 153.03 17.0561 153 22.5001 153C27.9441 153 28.0001 152.97 28.0001 150C28.0001 147.467 27.6111 147 25.5001 147C23.1361 147 23.0001 146.7 23.0001 141.5C23.0001 136.3 23.1361 136 25.5001 136C27.3331 136 28.0001 135.467 28.0001 134C28.0001 132.533 27.3331 132 25.5001 132C23.3891 132 23.0001 131.533 23.0001 129C23.0001 126.333 22.6671 126 20.0001 126C17.0671 126 17.0001 126.111 17.0001 131ZM215 130.95V136H221.055H227.11L226.805 131.25L226.5 126.5L220.75 126.2L215 125.9V130.95ZM166 134C166 135.467 166.667 136 168.5 136C170.333 136 171 135.467 171 134C171 132.533 170.333 132 168.5 132C166.667 132 166 132.533 166 134ZM84.0001 141.5C84.0001 146.7 84.1361 147 86.5001 147C88.6111 147 89.0001 147.467 89.0001 150C89.0001 152.533 89.3891 153 91.5001 153C93.6111 153 94.0001 152.533 94.0001 150C94.0001 147.467 93.6111 147 91.5001 147C89.5001 147 89.0001 146.5 89.0001 144.5C89.0001 142.5 89.5001 142 91.5001 142C93.6111 142 94.0001 141.533 94.0001 139C94.0001 136.067 93.8891 136 89.0001 136H84.0001V141.5ZM143 144.5C143 146.611 143.467 147 146 147C148.533 147 149 146.611 149 144.5C149 142.389 148.533 142 146 142C143.467 142 143 142.389 143 144.5ZM166.667 147.667C166.3 148.033 166 149.383 166 150.667C166 152.828 165.595 153 160.5 153C155.056 153 155 153.03 155 156C155 158.533 155.389 159 157.5 159C159.5 159 160 159.5 160 161.5C160 163.611 159.533 164 157 164C154.467 164 154 163.611 154 161.5C154 159.5 153.5 159 151.5 159H149V169.5V180H151.5C153.833 180 154 179.667 154 175V170H160C165.688 170 166 170.127 166 172.43C166 174.19 166.621 174.949 168.25 175.18C169.696 175.386 170.614 176.304 170.82 177.75C171.08 179.582 170.662 180 168.57 180C166.667 180 166 179.481 166 178C166 176.444 165.333 176 163 176C160.667 176 160 176.444 160 178C160 179.467 159.333 180 157.5 180C155.389 180 155 180.467 155 183C155 185.533 155.389 186 157.5 186C159.864 186 160 186.3 160 191.5V197H168.566H177.133L176.816 199.75L176.5 202.5L165.75 202.784C155.066 203.066 155 203.083 155 205.534C155 207.498 155.509 208 157.5 208C159.611 208 160 208.467 160 211C160 213.533 159.611 214 157.5 214C155.5 214 155 214.5 155 216.5C155 218.611 154.533 219 152 219C149.467 219 149 218.611 149 216.5C149 214.5 149.5 214 151.5 214C153.611 214 154 213.533 154 211V208H143.5H133V211.066C133 213.822 132.721 214.101 130.25 213.816C127.685 213.521 127.48 213.147 127.198 208.25C126.92 203.429 126.696 203 124.448 203C122.144 203 122 203.327 122 208.566C122 214.049 121.959 214.128 119.25 213.816C116.685 213.521 116.48 213.147 116.198 208.25C115.92 203.429 115.696 203 113.448 203C111.503 203 111 203.514 111 205.5C111 207.611 110.533 208 108 208C105.333 208 105 208.333 105 211C105 213.667 105.333 214 108 214C110.533 214 111 214.389 111 216.5C111 218.5 111.5 219 113.5 219C115.611 219 116 219.467 116 222C116 224.667 116.333 225 119 225C121.681 225 122 224.674 122 221.934C122 219.178 122.279 218.899 124.75 219.184C126.91 219.432 127.568 220.09 127.816 222.25C128.062 224.386 128.661 225 130.5 225C132.339 225 132.938 224.386 133.184 222.25C133.411 220.272 134.062 219.5 135.5 219.5C136.938 219.5 137.589 220.272 137.816 222.25L138.133 225H157.566H177V221.93C177 219.319 177.336 218.909 179.25 219.18C180.861 219.409 181.59 220.281 181.816 222.25C182.062 224.386 182.661 225 184.5 225C186.339 225 186.938 224.386 187.184 222.25C187.479 219.685 187.853 219.48 192.75 219.198L198 218.895V221.948C198 224.657 198.33 225 200.934 225C203.39 225 203.919 224.553 204.184 222.25C204.497 219.525 204.575 219.497 212.75 219.21L221 218.919V213.46C221 208.06 221.033 208 224 208C226.511 208 227 207.604 227 205.566C227 203.655 226.41 203.065 224.25 202.816C222.111 202.57 221.431 201.905 221.191 199.822C220.927 197.54 221.296 197.097 223.691 196.822C225.935 196.565 226.5 195.997 226.5 194C226.5 192.016 225.932 191.435 223.75 191.184C221.614 190.938 221 190.339 221 188.5C221 186.661 221.614 186.062 223.75 185.816C225.932 185.565 226.5 184.984 226.5 183C226.5 181.016 225.932 180.435 223.75 180.184C221.279 179.899 221 180.178 221 182.934C221 185.674 220.681 186 218 186C215.467 186 215 186.389 215 188.5C215 190.611 215.467 191 218 191C220.667 191 221 191.333 221 194V197H212.5H204V188.5V180H209.5C214.284 180 215 179.746 215 178.052C215 176.408 214.183 176.057 209.75 175.802L204.5 175.5L204.2 169.75L203.9 164H206.95C209.537 164 210 163.62 210 161.5C210 159.5 210.5 159 212.5 159C214.5 159 215 159.5 215 161.5C215 163.889 215.267 164 221 164C226.733 164 227 163.889 227 161.5C227 159.389 226.533 159 224 159C221.333 159 221 158.667 221 156V153H212.566H204.133L203.816 155.75C203.521 158.315 203.147 158.52 198.25 158.802C193.429 159.08 193 159.304 193 161.552C193 163.853 192.669 164 187.5 164C182.056 164 182 164.03 182 167C182 169.974 182.048 170 187.566 170C193.049 170 193.128 170.041 192.816 172.75C192.514 175.378 192.257 175.5 187 175.5C181.743 175.5 181.486 175.378 181.184 172.75C180.96 170.807 180.3 170 178.934 170C177.452 170 177 169.299 177 167C177 164.667 177.444 164 179 164C180.467 164 181 163.333 181 161.5C181 159.667 180.467 159 179 159C177.533 159 177 159.667 177 161.5C177 163.611 176.533 164 174 164C171.467 164 171 163.611 171 161.5C171 159.5 170.5 159 168.5 159C166.389 159 166 158.533 166 156C166 153.467 166.389 153 168.5 153C170.611 153 171 152.533 171 150C171 147.758 170.537 147 169.167 147C168.158 147 167.033 147.3 166.667 147.667ZM177.667 147.667C177.3 148.033 177 149.383 177 150.667C177 152.333 177.571 153 179 153C180.556 153 181 152.333 181 150C181 147.179 179.326 146.007 177.667 147.667ZM28.8161 155.75C28.5681 157.91 27.9101 158.568 25.7501 158.816C23.6141 159.062 23.0001 159.661 23.0001 161.5C23.0001 163.339 22.3861 163.938 20.2501 164.184C18.0901 164.432 17.4321 165.09 17.1841 167.25C16.8981 169.732 17.1721 170 20.0001 170C22.8281 170 23.1021 170.268 22.8161 172.75C22.5681 174.91 21.9101 175.568 19.7501 175.816C17.8071 176.04 17.0001 176.7 17.0001 178.066C17.0001 179.743 17.7301 180 22.5001 180H28.0001V175C28.0001 170.333 27.8331 170 25.5001 170C23.3771 170 23.0001 169.538 23.0001 166.934C23.0001 164.178 23.2791 163.899 25.7501 164.184C27.9101 164.432 28.5681 165.09 28.8161 167.25C29.1181 169.874 29.3821 170 34.5661 170C39.6961 170 40.0001 170.14 40.0001 172.5C40.0001 174.833 40.3331 175 45.0001 175C49.6671 175 50.0001 174.833 50.0001 172.5C50.0001 170.167 49.6671 170 45.0001 170C40.1111 170 40.0001 169.933 40.0001 167C40.0001 164.467 40.3891 164 42.5001 164C44.5001 164 45.0001 163.5 45.0001 161.5C45.0001 159.5 44.5001 159 42.5001 159C40.3891 159 40.0001 158.533 40.0001 156C40.0001 153.035 39.9371 153 34.5661 153C29.3821 153 29.1181 153.126 28.8161 155.75ZM182 156.07C182 158.681 182.336 159.091 184.25 158.82C185.861 158.591 186.59 157.719 186.816 155.75C187.089 153.382 186.776 153 184.566 153C182.369 153 182 153.441 182 156.07ZM34.0001 161.5C34.0001 163.611 34.4671 164 37.0001 164C39.5331 164 40.0001 163.611 40.0001 161.5C40.0001 159.389 39.5331 159 37.0001 159C34.4671 159 34.0001 159.389 34.0001 161.5ZM128 164.5C128 169.738 128.122 170 130.566 170C132.776 170 133.089 170.382 132.816 172.75C132.59 174.719 131.861 175.591 130.25 175.82C127.003 176.281 127.167 180 130.434 180C132.345 180 132.935 180.59 133.184 182.75C133.41 184.719 134.139 185.591 135.75 185.82C137.768 186.106 138 186.699 138 191.57V197H133C128.333 197 128 197.167 128 199.5C128 201.944 128.167 202 135.5 202C142.833 202 143 201.944 143 199.5C143 197.389 143.467 197 146 197C148.667 197 149 196.667 149 194C149 191.467 149.389 191 151.5 191C153.5 191 154 190.5 154 188.5C154 186.5 153.5 186 151.5 186C149.5 186 149 186.5 149 188.5C149 190.611 148.533 191 146 191H143V180.5C143 170.043 142.99 170 140.566 170C138.655 170 138.065 169.41 137.816 167.25C137.59 165.281 136.861 164.409 135.25 164.18C133.621 163.949 133 163.19 133 161.43C133 159.505 132.481 159 130.5 159C128.136 159 128 159.3 128 164.5ZM193 167C193 169.533 193.389 170 195.5 170C197.611 170 198 169.533 198 167C198 164.467 197.611 164 195.5 164C193.389 164 193 164.467 193 167ZM215 172.5C215 174.611 215.467 175 218 175C220.533 175 221 174.611 221 172.5C221 170.389 220.533 170 218 170C215.467 170 215 170.389 215 172.5ZM78.7131 175.621C78.3211 176.013 78.0001 177.158 78.0001 178.167C78.0001 179.722 78.8331 180 83.5001 180C88.9441 180 89.0001 180.03 89.0001 183C89.0001 185.97 88.9441 186 83.5001 186H78.0001V191.5C78.0001 196.944 78.0301 197 81.0001 197C83.6671 197 84.0001 196.667 84.0001 194C84.0001 191.467 84.3891 191 86.5001 191C88.4811 191 89.0001 190.495 89.0001 188.57C89.0001 186.81 89.6211 186.051 91.2501 185.82C92.8611 185.591 93.5901 184.719 93.8161 182.75C94.0871 180.4 93.7701 180 91.6361 180C89.8081 180 89.0531 179.397 88.8201 177.75C88.5491 175.848 87.7981 175.454 83.9631 175.204C81.4671 175.041 79.1051 175.229 78.7131 175.621ZM34.0001 178C34.0001 179.556 34.6671 180 37.0001 180C39.3331 180 40.0001 179.556 40.0001 178C40.0001 176.444 39.3331 176 37.0001 176C34.6671 176 34.0001 176.444 34.0001 178ZM171 183C171 185.533 170.611 186 168.5 186C166.5 186 166 186.5 166 188.5C166 190.5 166.5 191 168.5 191C170.482 191 171 190.496 171 188.566C171 186.655 171.59 186.065 173.75 185.816C175.91 185.568 176.568 184.91 176.816 182.75C177.101 180.279 176.822 180 174.066 180C171.326 180 171 180.319 171 183ZM181.419 181.349C181.135 182.091 181.036 185.804 181.201 189.599L181.5 196.5L189.75 196.79L198 197.081V188.54V180H189.969C184.151 180 181.795 180.372 181.419 181.349ZM1.01105 201.75C1.01705 210.412 1.30105 219.188 1.64205 221.25L2.26205 225H21.1311H40.0001V205.5V186H20.5001H1.00005L1.01105 201.75ZM187 188.5C187 190.611 187.467 191 190 191C192.533 191 193 190.611 193 188.5C193 186.389 192.533 186 190 186C187.467 186 187 186.389 187 188.5ZM6.00005 205V219H20.0001H34.0001V205V191H20.0001H6.00005V205ZM12.0001 205.5V214H20.0001H28.0001V205.5V197H20.0001H12.0001V205.5ZM45.2101 205.25L45.5001 213.5L50.7501 213.802C55.5291 214.077 56.0001 214.318 56.0001 216.486C56.0001 218.34 55.3921 218.937 53.2501 219.184C51.0901 219.432 50.4321 220.09 50.1841 222.25L49.8671 225H58.5001H67.1331L66.8161 222.25C66.5681 220.09 65.9101 219.432 63.7501 219.184C61.1261 218.882 61.0001 218.618 61.0001 213.434V208H66.5001C71.6761 208 72.0001 207.855 72.0001 205.54C72.0001 203.15 71.7681 203.073 63.7501 202.79C55.5751 202.503 55.4971 202.475 55.1841 199.75C54.8861 197.161 54.5761 197 49.8931 197H44.9191L45.2101 205.25ZM116 199.5C116 201.611 116.467 202 119 202C121.533 202 122 201.611 122 199.5C122 197.389 121.533 197 119 197C116.467 197 116 197.389 116 199.5ZM181.712 202.622C181.32 203.013 181 204.383 181 205.667C181 207.904 180.69 208 173.5 208H166V211C166 213.667 165.667 214 163 214C160.467 214 160 214.389 160 216.5C160 218.611 160.467 219 163 219C165.533 219 166 218.611 166 216.5C166 214.5 166.5 214 168.5 214C170.5 214 171 214.5 171 216.5C171 218.611 171.467 219 174 219C176.51 219 177 218.603 177 216.57C177 214.81 177.621 214.051 179.25 213.82C180.861 213.591 181.59 212.719 181.816 210.75C182.119 208.122 182.376 208 187.633 208C193.043 208 193.128 207.955 192.816 205.25C192.523 202.702 192.129 202.478 187.462 202.205C184.69 202.043 182.103 202.23 181.712 202.622ZM198.709 202.624C198.319 203.014 198 204.383 198 205.667C198 207.593 198.524 208 201 208C203.681 208 204 208.326 204 211.066C204 213.822 204.279 214.101 206.75 213.816C208.91 213.568 209.568 212.91 209.816 210.75C210.099 208.291 209.816 208 207.133 208C204.603 208 204.083 207.569 203.816 205.25C203.506 202.554 200.384 200.949 198.709 202.624ZM78.0001 213.367C78.0001 218.624 77.8781 218.881 75.2501 219.184C73.0901 219.432 72.4321 220.09 72.1841 222.25C71.8691 224.983 71.9061 225 77.9341 225H84.0001V222C84.0001 219.467 84.3891 219 86.5001 219C88.5001 219 89.0001 218.5 89.0001 216.5C89.0001 214.518 88.4961 214 86.5661 214C84.6551 214 84.0651 213.41 83.8161 211.25C83.5681 209.09 82.9101 208.432 80.7501 208.184C78.0451 207.872 78.0001 207.957 78.0001 213.367ZM94.0001 216.5C94.0001 218.5 94.5001 219 96.5001 219C98.5001 219 99.0001 218.5 99.0001 216.5C99.0001 214.5 98.5001 214 96.5001 214C94.5001 214 94.0001 214.5 94.0001 216.5ZM105.709 219.624C105.319 220.014 105 221.383 105 222.667C105 224.604 105.521 225 108.066 225C110.822 225 111.101 224.721 110.816 222.25C110.506 219.554 107.384 217.949 105.709 219.624Z" fill="white"/>
</svg>
