<svg width="268" height="269" viewBox="0 0 268 269" fill="none" xmlns="http://www.w3.org/2000/svg">
<rect width="268" height="268" transform="translate(0 0.015625)" fill="#0B1020"/>
<path fill-rule="evenodd" clip-rule="evenodd" d="M2.79987 7.37247C2.40227 9.77791 2.07112 19.7471 2.06413 29.5263L2.0513 47.3077H24.7881H47.525V25.1538V3H25.5239H3.52279L2.79987 7.37247ZM53.5975 12.0364L53.9379 21.0729L59.4764 21.4285C64.9531 21.7795 65.0149 21.7433 65.0149 18.222C65.0149 15.1753 64.5823 14.6599 62.0229 14.6599C59.4461 14.6599 59.0811 14.2145 59.3995 11.4534C59.663 9.1576 60.513 8.14086 62.3914 7.87385C64.0774 7.63482 65.0149 6.69736 65.0149 5.25036C65.0149 3.32415 64.1672 3 59.1359 3H53.257L53.5975 12.0364ZM72.0108 5.25503C72.0108 6.84777 72.9518 7.61733 75.2173 7.87851C77.7358 8.16768 78.5031 8.9349 78.7922 11.4534C79.1245 14.3346 78.7992 14.6599 75.5858 14.6599C72.0295 14.6599 72.0108 14.6937 72.0108 21.0729C72.0108 27.136 71.8522 27.4858 69.0958 27.4858C66.2147 27.4858 66.1809 27.6024 66.1809 37.3968V47.3077H62.6829C59.2199 47.3077 59.1849 47.2424 59.1849 40.8947C59.1849 34.8316 59.0263 34.4818 56.2699 34.4818H53.3549V46.7247V58.9676H56.2699C58.4072 58.9676 59.1849 58.3461 59.1849 56.6356C59.1849 54.5858 59.9626 54.3036 65.5979 54.3036H72.0108V44.3927V34.4818H75.5088H79.0068V24.5709C79.0068 14.8488 79.0604 14.6599 81.8448 14.6599C84.073 14.6599 84.7609 15.3479 85.0513 17.8664C85.4162 21.0437 85.5072 21.0764 95.0392 21.411C104.388 21.741 104.659 21.8308 104.659 24.6175C104.659 26.8993 104.063 27.4858 101.744 27.4858C99.2822 27.4858 98.8286 28.0303 98.8286 30.9838C98.8286 34.0935 98.4404 34.4818 95.3307 34.4818C91.8677 34.4818 91.8327 34.5471 91.8327 40.8947C91.8327 47.2424 91.7977 47.3077 88.3347 47.3077C85.3813 47.3077 84.8367 46.8541 84.8367 44.3927C84.8367 42.0607 84.2537 41.4777 81.9218 41.4777C79.1653 41.4777 79.0068 41.8275 79.0068 47.8907C79.0068 53.9538 79.1653 54.3036 81.9218 54.3036C84.0334 54.3036 84.8367 54.9298 84.8367 56.575C84.8367 58.4919 83.8841 58.9012 78.7153 59.1985C73.0054 59.5273 72.5693 59.7663 72.2254 62.7571C71.8569 65.9542 71.8301 65.9636 62.6059 65.9636H53.3549V69.4615C53.3549 72.415 52.9014 72.9595 50.44 72.9595C47.9786 72.9595 47.525 72.415 47.525 69.4615C47.525 66.3518 47.1367 65.9636 44.027 65.9636C40.9173 65.9636 40.529 65.5753 40.529 62.4656C40.529 59.3559 40.9173 58.9676 44.027 58.9676C46.7473 58.9676 47.525 58.4499 47.525 56.6356C47.525 54.8213 46.7473 54.3036 44.027 54.3036C41.3068 54.3036 40.529 54.8213 40.529 56.6356C40.529 58.3461 39.7513 58.9676 37.6141 58.9676C35.1527 58.9676 34.6991 59.5121 34.6991 62.4656C34.6991 65.3934 35.1608 65.9636 37.5371 65.9636C39.7653 65.9636 40.4532 66.6515 40.7436 69.17C41.0327 71.6886 41.8 72.4558 44.3185 72.745C46.8371 73.0353 47.525 73.7232 47.525 75.9515C47.525 78.6111 47.1251 78.7895 41.1703 78.7895H34.8157L34.4659 85.4939C34.1347 91.8404 33.9447 92.2182 30.9096 92.5668C28.419 92.8537 27.7031 93.5521 27.7031 95.6964C27.7031 97.8406 28.419 98.539 30.9096 98.8259C33.4281 99.115 34.1954 99.8823 34.4845 102.401C34.7749 104.919 35.4628 105.607 37.691 105.607C39.7513 105.607 40.529 106.246 40.529 107.939C40.529 109.632 39.7513 110.271 37.691 110.271C35.4628 110.271 34.7749 110.959 34.4845 113.478C34.1954 115.996 33.4281 116.763 30.9096 117.053C28.0284 117.385 27.7031 117.06 27.7031 113.846C27.7031 110.81 28.1427 110.271 30.6181 110.271C32.7554 110.271 33.5331 109.65 33.5331 107.939C33.5331 105.887 32.7554 105.607 27.0618 105.607H20.5906L20.9404 98.9028C21.2715 92.5563 21.4616 92.1786 24.4966 91.8299C27.5562 91.4778 27.7031 91.17 27.7031 85.1255C27.7031 79.1439 27.8664 78.7895 30.6181 78.7895C32.9501 78.7895 33.5331 78.2065 33.5331 75.8745C33.5331 73.1181 33.1833 72.9595 27.1201 72.9595H20.7072V79.3725C20.7072 85.389 20.5323 85.7854 17.8692 85.7854C15.6409 85.7854 14.953 86.4734 14.6627 88.9919C14.3735 91.5104 13.6063 92.2777 11.0877 92.5668C8.02818 92.919 7.88126 93.2268 7.88126 99.2713C7.88126 105.253 7.71802 105.607 4.96628 105.607C2.1166 105.607 2.0513 105.802 2.0513 114.352C2.0513 122.902 2.1166 123.097 4.96628 123.097C7.81597 123.097 7.88126 122.902 7.88126 114.352V105.607H14.2942H20.7072V111.437C20.7072 117.166 20.769 117.267 24.2821 117.267C27.4956 117.267 27.8209 117.593 27.4886 120.474C27.1994 122.992 26.4322 123.759 23.9137 124.049C21.3951 124.339 20.7072 125.027 20.7072 127.255C20.7072 129.505 20.1032 130.093 17.7922 130.093C15.4602 130.093 14.8772 129.51 14.8772 127.178C14.8772 124.717 14.3327 124.263 11.3792 124.263C8.4526 124.263 7.88126 124.726 7.88126 127.097C7.88126 129.149 7.15718 130.034 5.25778 130.303C2.97827 130.627 2.58883 131.467 2.2845 136.709C1.96502 142.238 2.15974 142.773 4.61649 143.122C6.95663 143.454 7.37289 144.318 7.88126 149.915C8.41879 155.823 8.69396 156.328 11.3792 156.328C14.2243 156.328 14.3024 156.098 14.6324 146.768L14.9693 137.208L21.0453 136.857C26.7039 136.531 27.1458 136.287 27.4886 133.3C27.7754 130.809 28.4738 130.093 30.6181 130.093C32.7624 130.093 33.4608 129.377 33.7476 126.887C34.0998 123.822 34.3994 123.68 40.529 123.68C46.6587 123.68 46.9583 123.822 47.3105 126.887C47.6742 130.045 47.5821 130.093 41.189 130.093C34.755 130.093 34.6991 130.123 34.6991 133.591C34.6991 137.054 34.7644 137.089 41.112 137.089C47.1752 137.089 47.525 137.248 47.525 140.004C47.525 142.76 47.1752 142.919 41.112 142.919H34.6991V149.915C34.6991 156.6 34.8285 156.911 37.6141 156.911C39.7513 156.911 40.529 157.532 40.529 159.243C40.529 160.953 39.7513 161.575 37.6141 161.575C34.8577 161.575 34.6991 161.925 34.6991 167.988V174.401H41.112C47.1752 174.401 47.525 174.242 47.525 171.486C47.525 169.024 46.9805 168.571 44.027 168.571C40.9173 168.571 40.529 168.183 40.529 165.073C40.529 161.61 40.5943 161.575 46.942 161.575H53.3549V167.988C53.3549 174.051 53.5135 174.401 56.2699 174.401C59.0263 174.401 59.1849 174.051 59.1849 167.988C59.1849 161.925 59.3435 161.575 62.0999 161.575C64.2372 161.575 65.0149 160.953 65.0149 159.243C65.0149 157.532 64.2372 156.911 62.0999 156.911C59.6385 156.911 59.1849 156.366 59.1849 153.413C59.1849 150.459 59.6385 149.915 62.0999 149.915C64.5613 149.915 65.0149 149.37 65.0149 146.417C65.0149 143.464 64.5613 142.919 62.0999 142.919C59.7679 142.919 59.1849 142.336 59.1849 140.004C59.1849 137.284 58.7966 137.089 53.3549 137.089C47.6544 137.089 47.525 137.011 47.525 133.591C47.525 130.663 47.9867 130.093 50.363 130.093C52.5912 130.093 53.2792 129.405 53.5695 126.887L53.9379 123.68H66.1809H78.4238L78.7922 126.887C79.156 130.045 79.0639 130.093 72.6708 130.093H66.1809V136.506C66.1809 142.569 66.3394 142.919 69.0958 142.919C71.4068 142.919 72.0108 142.331 72.0108 140.081C72.0108 137.853 72.6988 137.165 75.2173 136.875C77.7358 136.585 78.5031 135.818 78.7922 133.3C79.0826 130.781 79.7705 130.093 81.9987 130.093C84.6572 130.093 84.8367 130.494 84.8367 136.424C84.8367 142.104 84.5662 142.795 82.2133 143.129C80.3348 143.396 79.4848 144.413 79.2213 146.708C78.903 149.47 79.268 149.915 81.8448 149.915C84.3913 149.915 84.8367 150.435 84.8367 153.413C84.8367 156.876 84.7714 156.911 78.4238 156.911C72.0761 156.911 72.0108 156.876 72.0108 153.413C72.0108 150.459 71.5572 149.915 69.0958 149.915C66.6344 149.915 66.1809 150.459 66.1809 153.413C66.1809 156.366 66.6344 156.911 69.0958 156.911C71.8161 156.911 72.0108 157.299 72.0108 162.741C72.0108 168.183 71.8161 168.571 69.0958 168.571C66.3394 168.571 66.1809 168.921 66.1809 174.984C66.1809 181.047 66.3394 181.397 69.0958 181.397C71.8522 181.397 72.0108 181.047 72.0108 174.984V168.571H81.9218C91.6601 168.571 91.8327 168.621 91.8327 171.425C91.8327 174.046 91.3325 174.308 85.7112 174.632C80.0014 174.96 79.5653 175.2 79.2213 178.19C78.8575 181.349 78.9496 181.397 85.3428 181.397C91.7767 181.397 91.8327 181.366 91.8327 177.899C91.8327 174.789 92.221 174.401 95.3307 174.401H98.8286V181.397C98.8286 188.081 98.9581 188.393 101.744 188.393C104.5 188.393 104.659 188.743 104.659 194.806V201.219H94.6707H84.6817L85.0513 198.012C85.3404 195.494 86.1077 194.726 88.6262 194.437C91.1448 194.147 91.8327 193.459 91.8327 191.231C91.8327 188.568 91.4362 188.393 85.4197 188.393H79.0068V200.636V212.879H75.5088C72.0889 212.879 72.0108 212.749 72.0108 207.049C72.0108 201.65 71.8009 201.219 69.1728 201.219C66.9446 201.219 66.2567 201.907 65.9663 204.425C65.6772 206.944 64.9099 207.711 62.3914 208C60.1259 208.261 59.1849 209.031 59.1849 210.624C59.1849 212.268 58.3734 212.879 56.193 212.879C53.6161 212.879 53.2512 213.324 53.5695 216.085C53.9135 219.076 54.3495 219.315 60.0594 219.644L66.1809 219.997V226.348C66.1809 232.347 66.3429 232.7 69.0958 232.7C71.8476 232.7 72.0108 232.346 72.0108 226.364C72.0108 220.32 72.1577 220.012 75.2173 219.66C77.7358 219.371 78.5031 218.604 78.7922 216.085C79.1444 213.025 79.4522 212.879 85.4967 212.879C91.7592 212.879 91.8327 212.919 91.8327 216.377C91.8327 219.486 91.4444 219.874 88.3347 219.874H84.8367V229.202V238.53H100.517H116.196L116.549 232.409C116.878 226.699 117.117 226.263 120.108 225.919C123.002 225.586 123.314 225.905 123.314 229.202C123.314 232.5 123.627 232.819 126.521 232.486C129.698 232.121 129.731 232.03 130.066 222.498C130.396 213.149 130.485 212.879 133.272 212.879C135.971 212.879 136.14 213.256 136.14 219.292C136.14 225.639 136.175 225.704 139.638 225.704C142.592 225.704 143.136 225.251 143.136 222.789C143.136 220.457 143.719 219.874 146.051 219.874C148.513 219.874 148.966 219.33 148.966 216.377C148.966 212.914 148.901 212.879 142.553 212.879C136.918 212.879 136.14 212.596 136.14 210.547C136.14 208.497 135.363 208.215 129.727 208.215C124.092 208.215 123.314 208.497 123.314 210.547C123.314 212.361 122.537 212.879 119.816 212.879C117.138 212.879 116.319 212.352 116.319 210.628C116.319 209.181 115.381 208.244 113.695 208.005C111.249 207.657 111.048 206.981 110.733 198.012C110.394 188.399 110.396 188.393 113.357 188.393C116.2 188.393 116.319 188.112 116.319 181.397C116.319 174.712 116.189 174.401 113.404 174.401C111.072 174.401 110.489 173.818 110.489 171.486C110.489 168.729 110.838 168.571 116.902 168.571C122.918 168.571 123.314 168.746 123.314 171.409C123.314 173.637 124.002 174.325 126.521 174.615C129.039 174.905 129.807 175.672 130.096 178.19C130.428 181.071 130.103 181.397 126.889 181.397C123.333 181.397 123.314 181.431 123.314 187.81V194.223H129.727C136.075 194.223 136.14 194.258 136.14 197.721C136.14 200.83 136.529 201.219 139.638 201.219C143.101 201.219 143.136 201.153 143.136 194.806V188.393H136.723C130.376 188.393 130.31 188.358 130.31 184.895C130.31 181.432 130.376 181.397 136.723 181.397C143.103 181.397 143.136 181.378 143.136 177.822C143.136 174.608 143.462 174.283 146.343 174.615C148.861 174.905 149.629 175.672 149.918 178.19C150.205 180.681 150.903 181.397 153.047 181.397C155.192 181.397 155.89 180.681 156.177 178.19C156.514 175.254 157.012 174.954 162.084 174.628C167.56 174.277 167.622 174.313 167.622 177.835C167.622 181.375 167.662 181.397 174.035 181.397H180.448V174.984C180.448 168.921 180.29 168.571 177.533 168.571C175.072 168.571 174.618 168.026 174.618 165.073C174.618 161.61 174.553 161.575 168.205 161.575C162.57 161.575 161.792 161.293 161.792 159.243C161.792 157.094 162.57 156.911 171.703 156.911H181.614V162.741C181.614 168.183 181.809 168.571 184.529 168.571C186.99 168.571 187.444 168.026 187.444 165.073C187.444 161.963 187.832 161.575 190.942 161.575C194.052 161.575 194.44 161.963 194.44 165.073C194.44 168.536 194.505 168.571 200.853 168.571C207.201 168.571 207.266 168.536 207.266 165.073C207.266 162.353 207.784 161.575 209.598 161.575C211.104 161.575 211.93 160.797 211.93 159.379C211.93 158.163 210.889 156.911 209.598 156.573C208.023 156.161 207.266 154.982 207.266 152.94C207.266 150.051 206.978 149.915 200.853 149.915C194.474 149.915 194.44 149.934 194.44 153.49C194.44 156.703 194.115 157.029 191.234 156.696C188.735 156.41 187.947 155.635 187.664 153.193C187.385 150.768 186.591 149.974 184.166 149.695C181.724 149.412 180.949 148.624 180.663 146.126C180.372 143.607 179.684 142.919 177.456 142.919C175.206 142.919 174.618 142.315 174.618 140.004C174.618 137.543 174.074 137.089 171.12 137.089C168.01 137.089 167.622 136.701 167.622 133.591C167.622 130.638 167.169 130.093 164.707 130.093C162.246 130.093 161.792 130.638 161.792 133.591C161.792 136.563 161.346 137.089 158.819 137.089C155.937 137.089 155.856 136.885 156.195 130.385C156.506 124.445 156.845 123.638 159.169 123.307C161.068 123.038 161.792 122.153 161.792 120.101C161.792 117.856 162.397 117.267 164.707 117.267C167.169 117.267 167.622 116.723 167.622 113.769C167.622 110.816 167.169 110.271 164.707 110.271C162.596 110.271 161.792 109.645 161.792 108C161.792 106.083 162.745 105.674 167.914 105.376C173.624 105.048 174.06 104.809 174.404 101.818C174.767 98.6591 174.675 98.6113 168.282 98.6113H161.792V88.7004C161.792 78.9061 161.826 78.7895 164.707 78.7895C167.464 78.7895 167.622 78.4397 167.622 72.3765C167.622 66.0603 167.673 65.9636 171.043 65.9636C173.907 65.9636 174.524 66.4848 174.833 69.17C175.122 71.6886 175.889 72.4558 178.408 72.745C180.926 73.0353 181.614 73.7232 181.614 75.9515C181.614 78.2018 182.218 78.7895 184.529 78.7895C187.004 78.7895 187.444 79.3282 187.444 82.3644C187.444 85.5779 187.119 85.9032 184.238 85.5709C181.719 85.2817 180.952 84.5145 180.663 81.9959C180.372 79.4774 179.684 78.7895 177.456 78.7895C175.08 78.7895 174.618 79.3596 174.618 82.2875C174.618 85.3972 174.23 85.7854 171.12 85.7854C168.167 85.7854 167.622 86.239 167.622 88.7004C167.622 91.5816 167.739 91.6154 177.533 91.6154C187.327 91.6154 187.444 91.5816 187.444 88.7004C187.444 86.239 187.989 85.7854 190.942 85.7854C194.052 85.7854 194.44 85.3972 194.44 82.2875C194.44 79.334 194.894 78.7895 197.355 78.7895C199.687 78.7895 200.27 78.2065 200.27 75.8745C200.27 73.5425 199.687 72.9595 197.355 72.9595C195.023 72.9595 194.44 73.5425 194.44 75.8745C194.44 78.3359 193.895 78.7895 190.942 78.7895H187.444V68.8785V58.9676H190.942C194.052 58.9676 194.44 59.3559 194.44 62.4656V65.9636H203.185H211.93V62.4656V58.9676H203.185C195.218 58.9676 194.44 58.7601 194.44 56.6356C194.44 54.8213 193.662 54.3036 190.942 54.3036C187.479 54.3036 187.444 54.2383 187.444 47.8907C187.444 41.543 187.479 41.4777 190.942 41.4777C193.895 41.4777 194.44 41.9313 194.44 44.3927C194.44 46.7037 195.028 47.3077 197.278 47.3077C199.506 47.3077 200.194 47.9956 200.484 50.5142C200.821 53.4501 201.319 53.751 206.391 54.0763L211.93 54.4319V40.9589V27.4858H196.849H181.769L181.4 30.6923C181.113 33.1864 180.337 33.9792 177.909 34.2591C175.248 34.5669 174.731 34.1366 174.411 31.3441C174.111 28.7276 173.449 28.0688 171.12 28.0688C168.807 28.0688 168.129 28.7311 167.837 31.2753C167.55 33.7659 166.851 34.4818 164.707 34.4818C162.563 34.4818 161.865 33.7659 161.578 31.2753C161.314 28.9795 160.464 27.9627 158.586 27.6957C156.686 27.4264 155.962 26.5414 155.962 24.4892C155.962 22.2447 155.357 21.6559 153.047 21.6559C150.291 21.6559 150.132 22.0057 150.132 28.0688V34.4818H155.962C161.663 34.4818 161.792 34.5599 161.792 37.9798C161.792 40.9332 161.339 41.4777 158.877 41.4777C156.545 41.4777 155.962 42.0607 155.962 44.3927C155.962 46.8541 155.418 47.3077 152.464 47.3077C149.511 47.3077 148.966 46.8541 148.966 44.3927C148.966 42.0607 148.383 41.4777 146.051 41.4777C143.295 41.4777 143.136 41.8275 143.136 47.8907V54.3036H133.225H123.314V47.8907C123.314 41.543 123.349 41.4777 126.812 41.4777C129.766 41.4777 130.31 41.9313 130.31 44.3927C130.31 46.7247 130.893 47.3077 133.225 47.3077C135.557 47.3077 136.14 46.7247 136.14 44.3927C136.14 42.0607 135.557 41.4777 133.225 41.4777C130.44 41.4777 130.31 41.1664 130.31 34.4818C130.31 27.7971 130.44 27.4858 133.225 27.4858C135.687 27.4858 136.14 28.0303 136.14 30.9838C136.14 34.1098 136.52 34.4818 139.715 34.4818C142.929 34.4818 143.254 34.1565 142.922 31.2753C142.633 28.7568 141.865 27.9895 139.347 27.7004C136.828 27.41 136.14 26.7221 136.14 24.4939C136.14 22.2435 135.536 21.6559 133.225 21.6559C130.764 21.6559 130.31 21.1114 130.31 18.1579C130.31 15.2301 130.772 14.6599 133.148 14.6599C135.377 14.6599 136.065 13.972 136.355 11.4534C136.644 8.9349 137.411 8.16768 139.93 7.87851C142.195 7.61733 143.136 6.84777 143.136 5.25503C143.136 3.30316 142.286 3 136.805 3C131.125 3 130.434 3.27051 130.101 5.62348C129.834 7.50189 128.817 8.3519 126.521 8.61542C124.002 8.90575 123.314 9.59368 123.314 11.8219C123.314 14.1982 122.744 14.6599 119.816 14.6599C116.397 14.6599 116.319 14.5305 116.319 8.82996C116.319 3.43258 116.107 3 113.485 3C111.433 3 110.548 3.72408 110.279 5.62348C110.038 7.30951 108.968 8.37989 107.282 8.62008C105.383 8.88942 104.659 9.77441 104.659 11.8266C104.659 14.6063 104.471 14.6599 94.6707 14.6599H84.6817L85.0513 11.4534C85.3999 8.41836 85.7777 8.22831 92.1242 7.89717C97.8749 7.59751 98.8286 7.22439 98.8286 5.27368C98.8286 3.15158 97.9367 3 85.4197 3C72.9413 3 72.0108 3.15624 72.0108 5.25503ZM155.962 8.82996C155.962 14.2716 156.157 14.6599 158.877 14.6599C161.598 14.6599 161.792 14.2716 161.792 8.82996C161.792 3.38828 161.598 3 158.877 3C156.157 3 155.962 3.38828 155.962 8.82996ZM174.618 5.27135C174.618 7.18824 175.571 7.59751 180.74 7.89483C186.449 8.22364 186.886 8.46267 187.229 11.4534C187.548 14.2145 187.183 14.6599 184.606 14.6599C182.059 14.6599 181.614 15.18 181.614 18.1579V21.6559H196.772H211.93V12.3279V3H193.274C175.563 3 174.618 3.11543 174.618 5.27135ZM218.926 25.1538V47.3077H242.246H265.566V28.7976C265.566 18.6173 265.238 8.64806 264.837 6.64372L264.108 3H241.517H218.926V25.1538ZM8.40363 9.14944C8.07598 10.0029 7.95589 17.4956 8.13662 25.7986L8.46426 40.8947L24.5293 41.2189L40.5932 41.5442L40.2702 24.895L39.946 8.24696L24.4733 7.92165C12.4298 7.66863 8.86769 7.94031 8.40363 9.14944ZM195.271 8.38805C194.814 8.84512 194.44 10.4425 194.44 11.9397C194.44 14.464 194.909 14.6599 200.93 14.6599C207.323 14.6599 207.415 14.6121 207.051 11.4534C206.717 8.54196 206.197 8.21548 201.393 7.90183C198.482 7.71177 195.728 7.93098 195.271 8.38805ZM226.731 8.40904C226.286 8.85445 225.922 16.4917 225.922 25.3812V41.543L241.954 41.2189L257.987 40.8947V24.5709V8.24696L242.763 7.92282C234.392 7.74559 227.176 7.96363 226.731 8.40904ZM143.136 11.7449C143.136 14.0769 143.719 14.6599 146.051 14.6599C148.383 14.6599 148.966 14.0769 148.966 11.7449C148.966 9.41296 148.383 8.82996 146.051 8.82996C143.719 8.82996 143.136 9.41296 143.136 11.7449ZM14.8772 24.5709V34.4818H24.2052H33.5331V24.5709V14.6599H24.2052H14.8772V24.5709ZM104.659 18.1579C104.659 21.1114 105.112 21.6559 107.574 21.6559C109.906 21.6559 110.489 22.2389 110.489 24.5709C110.489 26.9028 109.906 27.4858 107.574 27.4858C105.112 27.4858 104.659 28.0303 104.659 30.9838C104.659 34.4037 104.788 34.4818 110.489 34.4818C116.189 34.4818 116.319 34.5599 116.319 37.9798C116.319 40.9332 115.865 41.4777 113.404 41.4777C111.072 41.4777 110.489 42.0607 110.489 44.3927C110.489 46.7247 111.072 47.3077 113.404 47.3077C115.736 47.3077 116.319 46.7247 116.319 44.3927C116.319 41.9313 116.863 41.4777 119.816 41.4777C122.926 41.4777 123.314 41.0895 123.314 37.9798C123.314 34.8701 122.926 34.4818 119.816 34.4818C116.354 34.4818 116.319 34.4165 116.319 28.0688C116.319 22.0057 116.16 21.6559 113.404 21.6559C110.942 21.6559 110.489 21.1114 110.489 18.1579C110.489 15.2044 110.035 14.6599 107.574 14.6599C105.112 14.6599 104.659 15.2044 104.659 18.1579ZM168.044 16.4089C166.911 19.36 168.572 21.8483 171.407 21.446C173.29 21.179 174.14 20.1646 174.404 17.8664C174.723 15.0972 174.36 14.6599 171.744 14.6599C170.078 14.6599 168.413 15.447 168.044 16.4089ZM232.529 15.4376C232.102 15.8644 231.752 20.3243 231.752 25.3486V34.4818H241.663H251.574V24.5709V14.6599H242.44C237.416 14.6599 232.956 15.0097 232.529 15.4376ZM167.622 37.9798C167.622 40.9332 167.169 41.4777 164.707 41.4777C162.375 41.4777 161.792 42.0607 161.792 44.3927C161.792 46.7247 161.209 47.3077 158.877 47.3077C156.012 47.3077 155.962 47.4686 155.962 56.5587C155.962 65.7828 155.953 65.8097 152.756 66.1781C150.212 66.4708 149.549 67.1482 149.549 69.4615C149.549 71.7749 150.212 72.4523 152.756 72.745C155.246 73.0318 155.962 73.7302 155.962 75.8745C155.962 78.0188 155.246 78.7172 152.756 79.004C150.212 79.2967 149.549 79.9741 149.549 82.2875C149.549 84.6008 150.212 85.2782 152.756 85.5709C155.637 85.9032 155.962 85.5779 155.962 82.3644C155.962 79.3282 156.402 78.7895 158.877 78.7895C161.209 78.7895 161.792 78.2065 161.792 75.8745C161.792 73.5425 161.209 72.9595 158.877 72.9595C156.416 72.9595 155.962 72.415 155.962 69.4615C155.962 66.0475 156.1 65.9636 161.715 65.9636C167.123 65.9636 167.489 65.7723 167.837 62.7571C168.126 60.2385 168.893 59.4713 171.412 59.1822C174.306 58.8487 174.618 59.1682 174.618 62.4656C174.618 65.763 174.931 66.0825 177.825 65.749C180.343 65.4599 181.11 64.6926 181.4 62.1741C181.69 59.6555 182.378 58.9676 184.606 58.9676C186.666 58.9676 187.444 58.3286 187.444 56.6356C187.444 54.8213 186.666 54.3036 183.946 54.3036C181.226 54.3036 180.448 54.8213 180.448 56.6356C180.448 58.3461 179.67 58.9676 177.533 58.9676C175.396 58.9676 174.618 58.3461 174.618 56.6356C174.618 54.8213 173.84 54.3036 171.12 54.3036C167.657 54.3036 167.622 54.2383 167.622 47.8907C167.622 41.543 167.657 41.4777 171.12 41.4777C174.074 41.4777 174.618 41.9313 174.618 44.3927C174.618 46.8541 175.163 47.3077 178.116 47.3077C181.07 47.3077 181.614 46.8541 181.614 44.3927C181.614 41.9313 181.07 41.4777 178.116 41.4777C175.006 41.4777 174.618 41.0895 174.618 37.9798C174.618 34.8701 174.23 34.4818 171.12 34.4818C168.01 34.4818 167.622 34.8701 167.622 37.9798ZM200.27 40.8947C200.27 47.2424 200.305 47.3077 203.768 47.3077C207.231 47.3077 207.266 47.2424 207.266 40.8947C207.266 34.5471 207.231 34.4818 203.768 34.4818C200.305 34.4818 200.27 34.5471 200.27 40.8947ZM98.8286 47.8907C98.8286 53.9538 98.9872 54.3036 101.744 54.3036C104.5 54.3036 104.659 53.9538 104.659 47.8907C104.659 41.8275 104.5 41.4777 101.744 41.4777C98.9872 41.4777 98.8286 41.8275 98.8286 47.8907ZM14.8772 56.6356C14.8772 58.3461 15.6549 58.9676 17.7922 58.9676C20.2536 58.9676 20.7072 59.5121 20.7072 62.4656C20.7072 65.5753 21.0954 65.9636 24.2052 65.9636C27.3149 65.9636 27.7031 65.5753 27.7031 62.4656C27.7031 59.5121 28.1567 58.9676 30.6181 58.9676C32.7554 58.9676 33.5331 58.3461 33.5331 56.6356C33.5331 54.4984 32.7554 54.3036 24.2052 54.3036C15.6549 54.3036 14.8772 54.4984 14.8772 56.6356ZM110.489 56.5867C110.489 58.6271 109.53 58.9058 101.452 59.2101C92.5568 59.5448 92.4098 59.6007 92.0472 62.7571L91.6776 65.9636H81.9218H72.1659L71.7963 69.17C71.4523 72.1608 71.0162 72.3998 65.3064 72.7287L59.1849 73.0819V79.4331C59.1849 85.3855 59.3633 85.7854 62.0229 85.7854C64.2511 85.7854 64.9391 86.4734 65.2294 88.9919C65.5186 91.5104 66.2858 92.2777 68.8043 92.5668C71.2949 92.8537 72.0108 93.5521 72.0108 95.6964C72.0108 97.8406 71.2949 98.539 68.8043 98.8259C66.2601 99.1185 65.5979 99.796 65.5979 102.109C65.5979 104.423 66.2601 105.1 68.8043 105.393C71.8196 105.74 72.0108 106.106 72.0108 111.514C72.0108 117.13 72.0948 117.267 75.5088 117.267C78.6185 117.267 79.0068 116.879 79.0068 113.769V110.271H91.8327H104.659V113.769C104.659 116.723 104.205 117.267 101.744 117.267C99.4326 117.267 98.8286 117.855 98.8286 120.105C98.8286 122.333 98.1407 123.021 95.6222 123.312C92.5813 123.662 92.397 124.031 92.0636 130.467L91.7114 137.256L94.9785 136.88C98.0381 136.529 98.2678 136.119 98.5966 130.435L98.9476 124.363L107.342 124.022C115.535 123.688 115.745 123.603 116.104 120.474C116.413 117.788 117.03 117.267 119.893 117.267H123.314V107.939V98.6113H129.804C136.198 98.6113 136.29 98.5635 135.926 95.4049C135.662 93.109 134.812 92.0923 132.934 91.8253C131.035 91.5559 130.31 90.6709 130.31 88.6188C130.31 85.9615 130.709 85.7854 136.723 85.7854C143.071 85.7854 143.136 85.7504 143.136 82.2875C143.136 79.1778 142.748 78.7895 139.638 78.7895C136.711 78.7895 136.14 78.3277 136.14 75.9515C136.14 73.7232 136.828 73.0353 139.347 72.745C141.865 72.4558 142.633 71.6886 142.922 69.17C143.254 66.2889 142.929 65.9636 139.715 65.9636C136.507 65.9636 136.14 65.5986 136.14 62.405V58.8452L130.019 59.1985C124.309 59.5273 123.873 59.7663 123.529 62.7571C123.197 65.6382 123.522 65.9636 126.735 65.9636C130.292 65.9636 130.31 65.9974 130.31 72.3765C130.31 78.7242 130.275 78.7895 126.812 78.7895C123.885 78.7895 123.314 78.3277 123.314 75.9515C123.314 73.7232 122.627 73.0353 120.108 72.745C117.589 72.4558 116.822 71.6886 116.533 69.17C116.243 66.6515 115.555 65.9636 113.327 65.9636C110.95 65.9636 110.489 65.3934 110.489 62.4656C110.489 59.5121 110.942 58.9676 113.404 58.9676C115.541 58.9676 116.319 58.3461 116.319 56.6356C116.319 54.9251 115.541 54.3036 113.404 54.3036C111.287 54.3036 110.489 54.9286 110.489 56.5867ZM213.096 56.6356C213.096 58.3461 213.874 58.9676 216.011 58.9676C218.796 58.9676 218.926 59.2789 218.926 65.9636C218.926 72.6482 218.796 72.9595 216.011 72.9595C213.679 72.9595 213.096 73.5425 213.096 75.8745C213.096 78.2065 213.679 78.7895 216.011 78.7895C218.472 78.7895 218.926 79.334 218.926 82.2875C218.926 85.2153 218.464 85.7854 216.088 85.7854C213.86 85.7854 213.172 86.4734 212.881 88.9919C212.618 91.2877 211.768 92.3045 209.889 92.5715C208.014 92.8373 207.266 93.7293 207.266 95.6964C207.266 97.6634 208.014 98.5554 209.889 98.8212C212.128 99.1395 212.565 100.007 212.868 104.733C213.189 109.734 213.5 110.271 216.075 110.271C218.465 110.271 218.926 110.837 218.926 113.769C218.926 116.879 219.314 117.267 222.424 117.267C225.35 117.267 225.922 117.73 225.922 120.101C225.922 122.153 226.646 123.038 228.545 123.307C230.424 123.574 231.274 124.591 231.537 126.887C231.856 129.648 231.491 130.093 228.914 130.093C226.5 130.093 225.922 129.53 225.922 127.178C225.922 124.717 225.377 124.263 222.424 124.263C219.47 124.263 218.926 124.717 218.926 127.178C218.926 129.64 219.47 130.093 222.424 130.093C225.533 130.093 225.922 130.481 225.922 133.591C225.922 136.701 225.533 137.089 222.424 137.089C219.47 137.089 218.926 137.543 218.926 140.004C218.926 142.336 218.343 142.919 216.011 142.919C213.225 142.919 213.096 143.23 213.096 149.915V156.911H219.509C225.144 156.911 225.922 157.193 225.922 159.243C225.922 161.293 225.144 161.575 219.509 161.575H213.096V167.988C213.096 174.051 213.254 174.401 216.011 174.401C218.322 174.401 218.926 173.813 218.926 171.563C218.926 169.335 219.614 168.647 222.132 168.356C224.651 168.067 225.418 167.3 225.707 164.781C225.998 162.263 226.686 161.575 228.914 161.575C231.577 161.575 231.752 161.971 231.752 167.988V174.401H245.161H258.57V171.486C258.57 168.605 258.453 168.571 248.659 168.571H238.748V165.073C238.748 161.963 239.136 161.575 242.246 161.575C244.966 161.575 245.744 161.057 245.744 159.243C245.744 157.429 244.966 156.911 242.246 156.911C239.136 156.911 238.748 156.523 238.748 153.413C238.748 150.287 239.128 149.915 242.323 149.915C245.536 149.915 245.861 149.59 245.529 146.708C245.24 144.19 244.473 143.423 241.954 143.134C239.436 142.843 238.748 142.155 238.748 139.927C238.748 137.264 239.144 137.089 245.161 137.089C251.224 137.089 251.574 137.248 251.574 140.004C251.574 142.79 251.885 142.919 258.57 142.919C265.254 142.919 265.566 142.79 265.566 140.004C265.566 137.218 265.254 137.089 258.57 137.089H251.574V133.591C251.574 130.638 251.12 130.093 248.659 130.093C246.348 130.093 245.744 129.505 245.744 127.255C245.744 125.027 245.056 124.339 242.537 124.049C240.019 123.759 239.251 122.992 238.962 120.474C238.63 117.593 238.955 117.267 242.169 117.267C245.205 117.267 245.744 117.707 245.744 120.182C245.744 122.514 246.327 123.097 248.659 123.097C250.991 123.097 251.574 122.514 251.574 120.182C251.574 117.85 250.991 117.267 248.659 117.267C246.197 117.267 245.744 116.723 245.744 113.769C245.744 110.816 246.197 110.271 248.659 110.271C250.796 110.271 251.574 109.65 251.574 107.939C251.574 106.246 250.796 105.607 248.736 105.607C246.507 105.607 245.819 104.919 245.529 102.401C245.179 99.3611 244.809 99.1757 238.385 98.8422C231.784 98.4994 231.618 98.4096 231.972 95.3442C232.255 92.8898 233.04 92.1168 235.541 91.8299C238.06 91.5396 238.748 90.8517 238.748 88.6234C238.748 86.2343 238.182 85.7854 235.173 85.7854C231.959 85.7854 231.634 85.4601 231.966 82.5789C232.315 79.5439 232.693 79.3538 239.039 79.0227L245.744 78.6729V85.1441C245.744 91.2691 245.9 91.6154 248.659 91.6154C251.415 91.6154 251.574 91.2656 251.574 85.2024C251.574 78.8548 251.609 78.7895 255.072 78.7895C258.535 78.7895 258.57 78.8548 258.57 85.2024C258.57 91.5664 258.596 91.6154 262.107 91.6154H265.645L265.314 79.081L264.983 66.5466L261.776 66.1781C259.091 65.8691 258.57 65.2523 258.57 62.3886C258.57 59.3652 258.975 58.9676 262.068 58.9676C264.788 58.9676 265.566 58.4499 265.566 56.6356C265.566 54.4867 264.788 54.3036 255.655 54.3036C246.521 54.3036 245.744 54.4867 245.744 56.6356C245.744 58.3461 246.521 58.9676 248.659 58.9676C251.12 58.9676 251.574 59.5121 251.574 62.4656C251.574 65.419 251.12 65.9636 248.659 65.9636C246.183 65.9636 245.744 66.5023 245.744 69.5385C245.744 72.752 245.418 73.0773 242.537 72.745C239.557 72.4022 239.29 71.9241 238.748 65.9636C238.206 60.003 237.938 59.525 234.958 59.1822C232.693 58.921 231.752 58.1514 231.752 56.5587C231.752 54.517 230.868 54.3036 222.424 54.3036C213.874 54.3036 213.096 54.4984 213.096 56.6356ZM7.66672 69.17C7.40321 71.4659 6.5532 72.4826 4.67479 72.7496C2.77538 73.019 2.0513 73.904 2.0513 75.9561C2.0513 78.6134 2.45007 78.7895 8.46426 78.7895H14.8772V72.3765C14.8772 66.0603 14.8259 65.9636 11.4562 65.9636C8.59252 65.9636 7.97571 66.4848 7.66672 69.17ZM98.8286 69.4615V72.9595H88.9177C79.1234 72.9595 79.0068 72.9933 79.0068 75.8745C79.0068 78.7557 79.1234 78.7895 88.9177 78.7895C98.712 78.7895 98.8286 78.7557 98.8286 75.8745C98.8286 73.1542 99.2169 72.9595 104.659 72.9595H110.489V79.3725C110.489 85.4356 110.33 85.7854 107.574 85.7854C103.566 85.7854 103.301 91.2609 107.282 91.8253C109.16 92.0923 110.011 93.109 110.274 95.4049L110.644 98.6113H97.7396H84.8367V95.6964C84.8367 93.3644 84.2537 92.7814 81.9218 92.7814C79.5898 92.7814 79.0068 93.3644 79.0068 95.6964C79.0068 98.1578 78.4623 98.6113 75.5088 98.6113C72.3991 98.6113 72.0108 98.9996 72.0108 102.109V105.607H91.2497H110.489V111.437C110.489 116.879 110.683 117.267 113.404 117.267C116.124 117.267 116.319 116.879 116.319 111.437C116.319 105.996 116.124 105.607 113.404 105.607C110.942 105.607 110.489 105.063 110.489 102.109C110.489 99.1559 110.942 98.6113 113.404 98.6113C116.16 98.6113 116.319 98.2615 116.319 92.1984C116.319 85.8507 116.354 85.7854 119.816 85.7854C122.926 85.7854 123.314 85.3972 123.314 82.2875C123.314 79.1778 122.926 78.7895 119.816 78.7895C116.863 78.7895 116.319 78.3359 116.319 75.8745C116.319 73.5425 115.736 72.9595 113.404 72.9595C110.942 72.9595 110.489 72.415 110.489 69.4615C110.489 66.0417 110.359 65.9636 104.659 65.9636C98.9581 65.9636 98.8286 66.0417 98.8286 69.4615ZM251.574 69.4615C251.574 72.415 251.12 72.9595 248.659 72.9595C246.327 72.9595 245.744 73.5425 245.744 75.8745C245.744 78.2065 246.327 78.7895 248.659 78.7895C250.97 78.7895 251.574 78.2018 251.574 75.9515C251.574 73.7232 252.262 73.0353 254.78 72.745C257.299 72.4558 258.066 71.6886 258.355 69.17C258.687 66.2889 258.362 65.9636 255.149 65.9636C251.954 65.9636 251.574 66.3355 251.574 69.4615ZM47.525 82.2875C47.525 85.4135 47.1449 85.7854 43.9501 85.7854C40.7366 85.7854 40.4113 86.1107 40.7436 88.9919C41.0327 91.5104 41.8 92.2777 44.3185 92.5668C46.8371 92.8572 47.525 93.5451 47.525 95.7733C47.525 98.1496 46.9548 98.6113 44.027 98.6113C40.901 98.6113 40.529 98.9915 40.529 102.186C40.529 105.4 40.8543 105.725 43.7355 105.393C46.2541 105.104 47.0213 104.336 47.3105 101.818C47.5973 99.3273 48.2957 98.6113 50.44 98.6113C52.5842 98.6113 53.2827 99.3273 53.5695 101.818C53.8365 104.138 54.6795 105.129 56.6221 105.404C59.1931 105.769 59.2922 105.499 58.954 98.9914L58.6019 92.1984L53.0635 91.8428C48.0625 91.5221 47.525 91.2108 47.525 88.6363C47.525 86.3731 48.1255 85.7854 50.44 85.7854C52.9014 85.7854 53.3549 85.2409 53.3549 82.2875C53.3549 79.334 52.9014 78.7895 50.44 78.7895C47.9786 78.7895 47.525 79.334 47.525 82.2875ZM207.266 82.2875C207.266 85.0077 207.784 85.7854 209.598 85.7854C211.412 85.7854 211.93 85.0077 211.93 82.2875C211.93 79.5672 211.412 78.7895 209.598 78.7895C207.784 78.7895 207.266 79.5672 207.266 82.2875ZM72.0108 88.7004C72.0108 91.1618 72.5553 91.6154 75.5088 91.6154C78.4623 91.6154 79.0068 91.1618 79.0068 88.7004C79.0068 86.239 78.4623 85.7854 75.5088 85.7854C72.5553 85.7854 72.0108 86.239 72.0108 88.7004ZM91.8327 88.7004C91.8327 91.1618 92.3772 91.6154 95.3307 91.6154C98.2841 91.6154 98.8286 91.1618 98.8286 88.7004C98.8286 86.239 98.2841 85.7854 95.3307 85.7854C92.3772 85.7854 91.8327 86.239 91.8327 88.7004ZM218.926 92.1984C218.926 98.546 218.961 98.6113 222.424 98.6113C225.887 98.6113 225.922 98.546 225.922 92.1984C225.922 85.8507 225.887 85.7854 222.424 85.7854C218.961 85.7854 218.926 85.8507 218.926 92.1984ZM149.793 92.343C149.338 92.7977 148.966 94.3939 148.966 95.8911C148.966 98.0155 148.327 98.6113 146.051 98.6113C143.59 98.6113 143.136 99.1559 143.136 102.109C143.136 105.576 143.195 105.607 149.608 105.607H156.079L155.729 98.9028C155.431 93.1801 155.031 92.1482 152.999 91.8579C151.69 91.6702 150.248 91.8894 149.793 92.343ZM187.444 95.6964C187.444 98.0283 186.861 98.6113 184.529 98.6113C182.068 98.6113 181.614 99.1559 181.614 102.109C181.614 105.063 182.068 105.607 184.529 105.607C186.666 105.607 187.444 106.229 187.444 107.939C187.444 109.754 188.222 110.271 190.942 110.271C194.405 110.271 194.44 110.337 194.44 116.684C194.44 122.747 194.599 123.097 197.355 123.097C199.687 123.097 200.27 122.514 200.27 120.182C200.27 117.721 200.814 117.267 203.768 117.267C207.231 117.267 207.266 117.333 207.266 123.68V130.093H200.853C194.505 130.093 194.44 130.128 194.44 133.591C194.44 136.545 194.894 137.089 197.355 137.089C199.687 137.089 200.27 137.672 200.27 140.004C200.27 142.724 200.658 142.919 206.1 142.919C211.542 142.919 211.93 142.724 211.93 140.004C211.93 137.867 211.308 137.089 209.598 137.089C207.784 137.089 207.266 136.311 207.266 133.591C207.266 130.871 207.784 130.093 209.598 130.093C211.747 130.093 211.93 129.315 211.93 120.182V110.271H203.185C195.218 110.271 194.44 110.064 194.44 107.939C194.44 106.229 195.218 105.607 197.355 105.607C199.816 105.607 200.27 105.063 200.27 102.109C200.27 99.1559 199.816 98.6113 197.355 98.6113C195.023 98.6113 194.44 98.0283 194.44 95.6964C194.44 93.2349 193.895 92.7814 190.942 92.7814C187.989 92.7814 187.444 93.2349 187.444 95.6964ZM251.574 95.6964C251.574 98.1578 252.118 98.6113 255.072 98.6113C258.025 98.6113 258.57 98.1578 258.57 95.6964C258.57 93.2349 258.025 92.7814 255.072 92.7814C252.118 92.7814 251.574 93.2349 251.574 95.6964ZM187.444 102.109C187.444 105.219 187.832 105.607 190.942 105.607C194.052 105.607 194.44 105.219 194.44 102.109C194.44 98.9996 194.052 98.6113 190.942 98.6113C187.832 98.6113 187.444 98.9996 187.444 102.109ZM218.926 107.939C218.926 109.754 219.704 110.271 222.424 110.271C225.533 110.271 225.922 110.66 225.922 113.769C225.922 116.723 226.375 117.267 228.837 117.267C231.298 117.267 231.752 116.723 231.752 113.769C231.752 110.66 232.14 110.271 235.25 110.271C237.97 110.271 238.748 109.754 238.748 107.939C238.748 106.125 237.97 105.607 235.25 105.607C232.529 105.607 231.752 106.125 231.752 107.939C231.752 109.65 230.974 110.271 228.837 110.271C226.699 110.271 225.922 109.65 225.922 107.939C225.922 106.125 225.144 105.607 222.424 105.607C219.704 105.607 218.926 106.125 218.926 107.939ZM40.529 113.692C40.529 116.905 40.8917 117.267 44.104 117.267C47.3174 117.267 47.6428 116.942 47.3105 114.061C47.0213 111.542 46.2541 110.775 43.7355 110.486C40.8543 110.153 40.529 110.479 40.529 113.692ZM136.918 111.049C136.49 111.476 136.14 113.05 136.14 114.547C136.14 116.793 136.751 117.267 139.638 117.267C142.577 117.267 143.136 117.725 143.136 120.136C143.136 122.922 142.866 123.012 133.517 123.342C123.985 123.677 123.894 123.709 123.529 126.887C123.177 129.946 122.869 130.093 116.825 130.093H110.489V136.506V142.919H97.6627H84.8367V146.417V149.915H94.6707H104.504L104.873 153.121C105.138 155.428 105.897 156.328 107.574 156.328C109.25 156.328 110.009 155.428 110.274 153.121C110.564 150.603 111.252 149.915 113.48 149.915C116.109 149.915 116.319 150.346 116.319 155.745V161.575H123.314H130.31V165.073C130.31 168.026 130.764 168.571 133.225 168.571C135.687 168.571 136.14 168.026 136.14 165.073C136.14 162.119 135.687 161.575 133.225 161.575C131.121 161.575 130.31 160.948 130.31 159.32C130.31 157.727 129.369 156.958 127.104 156.696C124.585 156.407 123.818 155.64 123.529 153.121C123.165 149.967 123.264 149.915 129.572 149.915C135.702 149.915 136.002 150.057 136.355 153.121C136.644 155.64 137.411 156.407 139.93 156.696C142.195 156.958 143.136 157.727 143.136 159.32C143.136 160.931 143.947 161.575 145.974 161.575C148.203 161.575 148.891 162.263 149.181 164.781C149.528 167.802 149.886 167.988 155.379 167.988C160.872 167.988 161.23 167.802 161.578 164.781C161.938 161.657 161.796 161.575 156.039 161.575H150.132V155.745C150.132 150.346 150.342 149.915 152.97 149.915C155.199 149.915 155.886 150.603 156.177 153.121C156.44 155.417 157.29 156.434 159.169 156.701C161.642 157.052 161.792 156.668 161.792 149.997C161.792 143.225 161.918 142.919 164.707 142.919C167.169 142.919 167.622 143.464 167.622 146.417C167.622 149.527 168.01 149.915 171.12 149.915C174.23 149.915 174.618 149.527 174.618 146.417C174.618 143.307 174.23 142.919 171.12 142.919C168.167 142.919 167.622 142.465 167.622 140.004C167.622 137.672 167.039 137.089 164.707 137.089C162.375 137.089 161.792 137.672 161.792 140.004C161.792 142.724 161.404 142.919 155.962 142.919C150.521 142.919 150.132 142.724 150.132 140.004C150.132 137.543 149.588 137.089 146.634 137.089C143.681 137.089 143.136 137.543 143.136 140.004C143.136 142.76 142.787 142.919 136.723 142.919C130.66 142.919 130.31 142.76 130.31 140.004C130.31 137.543 129.766 137.089 126.812 137.089C123.703 137.089 123.314 136.701 123.314 133.591V130.093H133.225C142.947 130.093 143.136 130.039 143.136 127.255C143.136 125.027 143.824 124.339 146.343 124.049C148.861 123.759 149.629 122.992 149.918 120.474C150.208 117.955 150.896 117.267 153.124 117.267C155.513 117.267 155.962 116.702 155.962 113.692C155.962 110.479 155.637 110.153 152.756 110.486C150.237 110.775 149.47 111.542 149.181 114.061C148.891 116.579 148.203 117.267 145.974 117.267C143.598 117.267 143.136 116.697 143.136 113.769C143.136 110.882 142.662 110.271 140.416 110.271C138.919 110.271 137.345 110.621 136.918 111.049ZM174.618 120.182C174.618 129.977 174.652 130.093 177.533 130.093C180.414 130.093 180.448 129.977 180.448 120.182C180.448 110.388 180.414 110.271 177.533 110.271C174.652 110.271 174.618 110.388 174.618 120.182ZM258.57 113.769C258.57 117.067 258.882 117.386 261.776 117.053C264.32 116.76 264.983 116.083 264.983 113.769C264.983 111.456 264.32 110.778 261.776 110.486C258.882 110.152 258.57 110.472 258.57 113.769ZM258.57 127.178C258.57 129.64 259.114 130.093 262.068 130.093C265.021 130.093 265.566 129.64 265.566 127.178C265.566 124.717 265.021 124.263 262.068 124.263C259.114 124.263 258.57 124.717 258.57 127.178ZM7.88126 133.591C7.88126 136.701 8.26954 137.089 11.3792 137.089C14.4889 137.089 14.8772 136.701 14.8772 133.591C14.8772 130.481 14.4889 130.093 11.3792 130.093C8.26954 130.093 7.88126 130.481 7.88126 133.591ZM181.614 136.506C181.614 142.569 181.773 142.919 184.529 142.919C187.285 142.919 187.444 142.569 187.444 136.506C187.444 130.443 187.285 130.093 184.529 130.093C181.773 130.093 181.614 130.443 181.614 136.506ZM116.319 143.502C116.319 149.85 116.354 149.915 119.816 149.915C123.279 149.915 123.314 149.85 123.314 143.502C123.314 137.154 123.279 137.089 119.816 137.089C116.354 137.089 116.319 137.154 116.319 143.502ZM225.922 140.004C225.922 142.465 225.377 142.919 222.424 142.919C219.314 142.919 218.926 143.307 218.926 146.417C218.926 149.527 219.314 149.915 222.424 149.915C225.533 149.915 225.922 150.303 225.922 153.413C225.922 156.366 226.375 156.911 228.837 156.911C230.974 156.911 231.752 157.532 231.752 159.243C231.752 161.057 232.529 161.575 235.25 161.575C237.93 161.575 238.748 161.048 238.748 159.32C238.748 157.727 237.807 156.958 235.541 156.696C233.023 156.407 232.255 155.64 231.966 153.121C231.676 150.603 230.988 149.915 228.76 149.915C226.384 149.915 225.922 149.345 225.922 146.417C225.922 143.464 226.375 142.919 228.837 142.919C231.169 142.919 231.752 142.336 231.752 140.004C231.752 137.672 231.169 137.089 228.837 137.089C226.505 137.089 225.922 137.672 225.922 140.004ZM47.525 146.417C47.525 149.527 47.1367 149.915 44.027 149.915C40.9173 149.915 40.529 150.303 40.529 153.413C40.529 156.876 40.5943 156.911 46.942 156.911C52.5772 156.911 53.3549 157.193 53.3549 159.243C53.3549 160.953 54.1327 161.575 56.2699 161.575C60.1445 161.575 60.4034 157.247 56.5614 156.701C54.683 156.434 53.833 155.417 53.5695 153.121C53.2512 150.36 53.6161 149.915 56.193 149.915C58.7395 149.915 59.1849 149.395 59.1849 146.417C59.1849 142.997 59.0555 142.919 53.3549 142.919C47.6544 142.919 47.525 142.997 47.525 146.417ZM143.136 146.417C143.136 149.37 143.59 149.915 146.051 149.915C148.513 149.915 148.966 149.37 148.966 146.417C148.966 143.464 148.513 142.919 146.051 142.919C143.59 142.919 143.136 143.464 143.136 146.417ZM20.7072 155.745C20.7072 161.187 20.5125 161.575 17.7922 161.575C15.3308 161.575 14.8772 162.119 14.8772 165.073C14.8772 168.026 15.3308 168.571 17.7922 168.571C20.5486 168.571 20.7072 168.921 20.7072 174.984C20.7072 181.047 20.5486 181.397 17.7922 181.397C15.3168 181.397 14.8772 181.935 14.8772 184.972C14.8772 188.185 14.5519 188.51 11.6707 188.178C8.49341 187.813 8.46076 187.722 8.12612 178.19C7.79615 168.817 7.71336 168.571 4.89283 168.571H2L2.31715 190.433C2.63197 212.108 2.65645 212.299 5.25778 212.669C7.79265 213.028 7.88126 212.722 7.88126 203.632V194.223H11.3792C14.3327 194.223 14.8772 193.769 14.8772 191.308C14.8772 188.976 15.4602 188.393 17.7922 188.393C20.2536 188.393 20.7072 187.848 20.7072 184.895C20.7072 181.432 20.7725 181.397 27.1201 181.397C33.4678 181.397 33.5331 181.362 33.5331 177.899C33.5331 174.945 33.0795 174.401 30.6181 174.401C27.8617 174.401 27.7031 174.051 27.7031 167.988C27.7031 161.925 27.8617 161.575 30.6181 161.575C32.7554 161.575 33.5331 160.953 33.5331 159.243C33.5331 157.532 32.7554 156.911 30.6181 156.911C28.1567 156.911 27.7031 156.366 27.7031 153.413C27.7031 150.303 27.3149 149.915 24.2052 149.915C20.7853 149.915 20.7072 150.044 20.7072 155.745ZM251.574 155.687V161.575H258.634H265.694L265.338 156.036L264.983 150.498L258.278 150.148L251.574 149.798V155.687ZM194.44 159.243C194.44 160.953 195.218 161.575 197.355 161.575C199.492 161.575 200.27 160.953 200.27 159.243C200.27 157.532 199.492 156.911 197.355 156.911C195.218 156.911 194.44 157.532 194.44 159.243ZM98.8286 167.988C98.8286 174.051 98.9872 174.401 101.744 174.401C104.205 174.401 104.659 174.945 104.659 177.899C104.659 180.852 105.112 181.397 107.574 181.397C110.035 181.397 110.489 180.852 110.489 177.899C110.489 174.945 110.035 174.401 107.574 174.401C105.242 174.401 104.659 173.818 104.659 171.486C104.659 169.154 105.242 168.571 107.574 168.571C110.035 168.571 110.489 168.026 110.489 165.073C110.489 161.653 110.359 161.575 104.659 161.575H98.8286V167.988ZM167.622 171.486C167.622 173.947 168.167 174.401 171.12 174.401C174.074 174.401 174.618 173.947 174.618 171.486C174.618 169.024 174.074 168.571 171.12 168.571C168.167 168.571 167.622 169.024 167.622 171.486ZM195.218 175.179C194.79 175.605 194.44 177.179 194.44 178.677C194.44 181.196 193.968 181.397 188.027 181.397C181.679 181.397 181.614 181.432 181.614 184.895C181.614 187.848 182.068 188.393 184.529 188.393C186.861 188.393 187.444 188.976 187.444 191.308C187.444 193.769 186.9 194.223 183.946 194.223C180.993 194.223 180.448 193.769 180.448 191.308C180.448 188.976 179.865 188.393 177.533 188.393H174.618V200.636V212.879H177.533C180.253 212.879 180.448 212.49 180.448 207.049V201.219H187.444C194.076 201.219 194.44 201.367 194.44 204.052C194.44 206.104 195.164 206.989 197.063 207.258C198.75 207.499 199.82 208.569 200.06 210.255C200.363 212.391 199.876 212.879 197.437 212.879C195.218 212.879 194.44 212.273 194.44 210.547C194.44 208.732 193.662 208.215 190.942 208.215C188.222 208.215 187.444 208.732 187.444 210.547C187.444 212.257 186.666 212.879 184.529 212.879C182.068 212.879 181.614 213.423 181.614 216.377C181.614 219.33 182.068 219.874 184.529 219.874C187.285 219.874 187.444 220.224 187.444 226.287V232.7H197.432H207.421L207.051 235.907L206.683 239.113L194.148 239.445C181.691 239.773 181.614 239.793 181.614 242.651C181.614 244.941 182.208 245.526 184.529 245.526C186.99 245.526 187.444 246.071 187.444 249.024C187.444 251.978 186.99 252.522 184.529 252.522C182.197 252.522 181.614 253.105 181.614 255.437C181.614 257.899 181.07 258.352 178.116 258.352C175.163 258.352 174.618 257.899 174.618 255.437C174.618 253.105 175.201 252.522 177.533 252.522C179.995 252.522 180.448 251.978 180.448 249.024V245.526H168.205H155.962V249.101C155.962 252.315 155.637 252.64 152.756 252.308C149.765 251.964 149.526 251.528 149.197 245.818C148.873 240.197 148.612 239.696 145.991 239.696C143.304 239.696 143.136 240.078 143.136 246.186C143.136 252.579 143.089 252.672 139.93 252.308C136.939 251.964 136.7 251.528 136.371 245.818C136.047 240.197 135.786 239.696 133.165 239.696C130.897 239.696 130.31 240.296 130.31 242.611C130.31 245.073 129.766 245.526 126.812 245.526C123.703 245.526 123.314 245.915 123.314 249.024C123.314 252.134 123.703 252.522 126.812 252.522C129.766 252.522 130.31 252.976 130.31 255.437C130.31 257.769 130.893 258.352 133.225 258.352C135.687 258.352 136.14 258.897 136.14 261.85C136.14 264.96 136.529 265.348 139.638 265.348C142.764 265.348 143.136 264.968 143.136 261.773C143.136 258.56 143.462 258.234 146.343 258.567C148.861 258.856 149.629 259.623 149.918 262.142C150.205 264.632 150.903 265.348 153.047 265.348C155.192 265.348 155.89 264.632 156.177 262.142C156.441 259.835 157.201 258.935 158.877 258.935C160.554 258.935 161.313 259.835 161.578 262.142L161.947 265.348H184.606H207.266V261.769C207.266 258.724 207.658 258.246 209.889 258.562C211.768 258.829 212.618 259.846 212.881 262.142C213.168 264.632 213.867 265.348 216.011 265.348C218.155 265.348 218.854 264.632 219.14 262.142C219.484 259.151 219.92 258.912 225.63 258.583L231.752 258.23V261.79C231.752 264.948 232.137 265.348 235.173 265.348C238.036 265.348 238.653 264.827 238.962 262.142C239.327 258.964 239.418 258.932 248.95 258.597L258.57 258.258V251.893C258.57 245.596 258.608 245.526 262.068 245.526C264.995 245.526 265.566 245.065 265.566 242.688C265.566 240.46 264.878 239.772 262.359 239.482C259.865 239.195 259.072 238.42 258.792 235.991C258.484 233.33 258.915 232.814 261.707 232.493C264.324 232.193 264.983 231.531 264.983 229.202C264.983 226.889 264.32 226.212 261.776 225.919C259.285 225.632 258.57 224.934 258.57 222.789C258.57 220.645 259.285 219.947 261.776 219.66C264.32 219.367 264.983 218.69 264.983 216.377C264.983 214.063 264.32 213.386 261.776 213.093C258.895 212.761 258.57 213.086 258.57 216.3C258.57 219.494 258.198 219.874 255.072 219.874C252.118 219.874 251.574 220.328 251.574 222.789C251.574 225.251 252.118 225.704 255.072 225.704C258.181 225.704 258.57 226.093 258.57 229.202V232.7H248.659H238.748V222.789V212.879H245.161C250.739 212.879 251.574 212.582 251.574 210.607C251.574 208.69 250.621 208.281 245.452 207.984L239.331 207.632L238.981 200.927L238.631 194.223H242.187C245.204 194.223 245.744 193.78 245.744 191.308C245.744 188.976 246.327 188.393 248.659 188.393C250.991 188.393 251.574 188.976 251.574 191.308C251.574 194.093 251.885 194.223 258.57 194.223C265.254 194.223 265.566 194.093 265.566 191.308C265.566 188.846 265.021 188.393 262.068 188.393C258.958 188.393 258.57 188.004 258.57 184.895V181.397H248.736H238.903L238.533 184.603C238.189 187.594 237.753 187.833 232.043 188.162C226.422 188.486 225.922 188.747 225.922 191.368C225.922 194.051 225.536 194.223 219.509 194.223C213.161 194.223 213.096 194.258 213.096 197.721C213.096 201.188 213.152 201.219 219.586 201.219C225.979 201.219 226.071 201.266 225.707 204.425C225.355 207.489 225.055 207.632 218.926 207.632C212.796 207.632 212.497 207.489 212.144 204.425C211.883 202.16 211.114 201.219 209.521 201.219C207.793 201.219 207.266 200.401 207.266 197.721C207.266 195 207.784 194.223 209.598 194.223C211.308 194.223 211.93 193.445 211.93 191.308C211.93 189.17 211.308 188.393 209.598 188.393C207.887 188.393 207.266 189.17 207.266 191.308C207.266 193.769 206.721 194.223 203.768 194.223C200.814 194.223 200.27 193.769 200.27 191.308C200.27 188.976 199.687 188.393 197.355 188.393C194.894 188.393 194.44 187.848 194.44 184.895C194.44 181.941 194.894 181.397 197.355 181.397C199.816 181.397 200.27 180.852 200.27 177.899C200.27 175.285 199.73 174.401 198.133 174.401C196.956 174.401 195.644 174.751 195.218 175.179ZM208.044 175.179C207.616 175.605 207.266 177.179 207.266 178.677C207.266 180.619 207.932 181.397 209.598 181.397C211.412 181.397 211.93 180.619 211.93 177.899C211.93 174.61 209.978 173.243 208.044 175.179ZM34.4845 184.603C34.1954 187.122 33.4281 187.889 30.9096 188.178C28.419 188.465 27.7031 189.163 27.7031 191.308C27.7031 193.452 26.9872 194.15 24.4966 194.437C21.9781 194.726 21.2109 195.494 20.9217 198.012C20.5882 200.906 20.9077 201.219 24.2052 201.219C27.5026 201.219 27.8221 201.531 27.4886 204.425C27.1994 206.944 26.4322 207.711 23.9137 208C21.6481 208.261 20.7072 209.031 20.7072 210.624C20.7072 212.579 21.5583 212.879 27.1201 212.879H33.5331V207.049C33.5331 201.607 33.3384 201.219 30.6181 201.219C28.1427 201.219 27.7031 200.68 27.7031 197.644C27.7031 194.43 28.0284 194.105 30.9096 194.437C33.4281 194.726 34.1954 195.494 34.4845 198.012C34.8367 201.072 35.1445 201.219 41.189 201.219C47.1705 201.219 47.525 201.382 47.525 204.134C47.525 206.854 47.9133 207.049 53.3549 207.049C58.7966 207.049 59.1849 206.854 59.1849 204.134C59.1849 201.413 58.7966 201.219 53.3549 201.219C47.6544 201.219 47.525 201.14 47.525 197.721C47.525 194.767 47.9786 194.223 50.44 194.223C52.772 194.223 53.3549 193.64 53.3549 191.308C53.3549 188.976 52.772 188.393 50.44 188.393C47.9786 188.393 47.525 187.848 47.525 184.895C47.525 181.438 47.4515 181.397 41.189 181.397C35.1445 181.397 34.8367 181.544 34.4845 184.603ZM213.096 184.976C213.096 188.021 213.488 188.499 215.719 188.183C217.598 187.916 218.448 186.899 218.711 184.603C219.03 181.842 218.665 181.397 216.088 181.397C213.526 181.397 213.096 181.911 213.096 184.976ZM40.529 191.308C40.529 193.769 41.0736 194.223 44.027 194.223C46.9805 194.223 47.525 193.769 47.525 191.308C47.525 188.846 46.9805 188.393 44.027 188.393C41.0736 188.393 40.529 188.846 40.529 191.308ZM150.132 194.806C150.132 200.913 150.275 201.219 153.124 201.219C155.701 201.219 156.066 201.664 155.748 204.425C155.484 206.721 154.634 207.738 152.756 208.005C148.97 208.542 149.161 212.879 152.97 212.879C155.199 212.879 155.886 213.566 156.177 216.085C156.44 218.381 157.29 219.398 159.169 219.665C161.522 219.998 161.792 220.69 161.792 226.369V232.7H155.962C150.521 232.7 150.132 232.895 150.132 235.615C150.132 238.465 150.327 238.53 158.877 238.53C167.427 238.53 167.622 238.465 167.622 235.615C167.622 233.154 168.167 232.7 171.12 232.7C174.23 232.7 174.618 232.312 174.618 229.202C174.618 226.249 175.072 225.704 177.533 225.704C179.865 225.704 180.448 225.121 180.448 222.789C180.448 220.457 179.865 219.874 177.533 219.874C175.201 219.874 174.618 220.457 174.618 222.789C174.618 225.251 174.074 225.704 171.12 225.704H167.622V213.462C167.622 201.269 167.611 201.219 164.784 201.219C162.556 201.219 161.868 200.531 161.578 198.012C161.314 195.716 160.464 194.7 158.586 194.433C156.686 194.163 155.962 193.278 155.962 191.226C155.962 188.982 155.357 188.393 153.047 188.393C150.291 188.393 150.132 188.743 150.132 194.806ZM225.922 197.721C225.922 200.674 226.375 201.219 228.837 201.219C231.298 201.219 231.752 200.674 231.752 197.721C231.752 194.767 231.298 194.223 228.837 194.223C226.375 194.223 225.922 194.767 225.922 197.721ZM251.574 204.134C251.574 206.595 252.118 207.049 255.072 207.049C258.025 207.049 258.57 206.595 258.57 204.134C258.57 201.672 258.025 201.219 255.072 201.219C252.118 201.219 251.574 201.672 251.574 204.134ZM92.664 207.773C92.207 208.23 91.8327 209.565 91.8327 210.741C91.8327 212.554 92.804 212.879 98.2456 212.879C104.593 212.879 104.659 212.914 104.659 216.377C104.659 219.84 104.593 219.874 98.2456 219.874H91.8327V226.287C91.8327 232.635 91.8677 232.7 95.3307 232.7C98.4404 232.7 98.8286 232.312 98.8286 229.202C98.8286 226.249 99.2822 225.704 101.744 225.704C104.053 225.704 104.659 225.116 104.659 222.871C104.659 220.819 105.383 219.934 107.282 219.665C109.16 219.398 110.011 218.381 110.274 216.085C110.59 213.345 110.22 212.879 107.732 212.879C105.601 212.879 104.72 212.175 104.449 210.255C104.133 208.037 103.257 207.578 98.7855 207.286C95.8752 207.096 93.1211 207.316 92.664 207.773ZM40.529 210.547C40.529 212.361 41.3068 212.879 44.027 212.879C46.7473 212.879 47.525 212.361 47.525 210.547C47.525 208.732 46.7473 208.215 44.027 208.215C41.3068 208.215 40.529 208.732 40.529 210.547ZM200.27 216.377C200.27 219.33 199.816 219.874 197.355 219.874C195.023 219.874 194.44 220.457 194.44 222.789C194.44 225.121 195.023 225.704 197.355 225.704C199.666 225.704 200.27 225.117 200.27 222.866C200.27 220.638 200.958 219.95 203.476 219.66C205.995 219.371 206.762 218.604 207.051 216.085C207.384 213.204 207.058 212.879 203.845 212.879C200.65 212.879 200.27 213.25 200.27 216.377ZM212.418 214.451C212.087 215.317 211.972 219.646 212.164 224.071L212.513 232.117L222.132 232.456L231.752 232.795V222.836V212.879H222.388C215.604 212.879 212.857 213.312 212.418 214.451ZM2.06413 238.239C2.07112 248.339 2.40227 258.571 2.79987 260.976L3.52279 265.348H25.5239H47.525V242.611V219.874H24.7881H2.0513L2.06413 238.239ZM218.926 222.789C218.926 225.251 219.47 225.704 222.424 225.704C225.377 225.704 225.922 225.251 225.922 222.789C225.922 220.328 225.377 219.874 222.424 219.874C219.47 219.874 218.926 220.328 218.926 222.789ZM7.88126 242.028V258.352H24.2052H40.529V242.028V225.704H24.2052H7.88126V242.028ZM14.8772 242.611V252.522H24.2052H33.5331V242.611V232.7H24.2052H14.8772V242.611ZM53.5998 242.32L53.9379 251.939L60.0594 252.291C65.6317 252.612 66.1809 252.893 66.1809 255.421C66.1809 257.583 65.4719 258.279 62.9744 258.567C60.4558 258.856 59.6886 259.623 59.3995 262.142L59.0298 265.348H69.0958H79.1619L78.7922 262.142C78.5031 259.623 77.7358 258.856 75.2173 258.567C72.1577 258.215 72.0108 257.907 72.0108 251.862V245.526H78.4238C84.459 245.526 84.8367 245.357 84.8367 242.658C84.8367 239.871 84.5662 239.781 75.2173 239.451C65.6853 239.117 65.5944 239.084 65.2294 235.907C64.8819 232.888 64.5205 232.7 59.0602 232.7H53.2605L53.5998 242.32ZM136.14 235.615C136.14 238.077 136.685 238.53 139.638 238.53C142.592 238.53 143.136 238.077 143.136 235.615C143.136 233.154 142.592 232.7 139.638 232.7C136.685 232.7 136.14 233.154 136.14 235.615ZM212.76 239.256C212.303 239.712 211.93 241.309 211.93 242.806C211.93 245.414 211.568 245.526 203.185 245.526H194.44V249.024C194.44 252.134 194.052 252.522 190.942 252.522C187.989 252.522 187.444 252.976 187.444 255.437C187.444 257.899 187.989 258.352 190.942 258.352C193.895 258.352 194.44 257.899 194.44 255.437C194.44 253.105 195.023 252.522 197.355 252.522C199.687 252.522 200.27 253.105 200.27 255.437C200.27 257.899 200.814 258.352 203.768 258.352C206.695 258.352 207.266 257.889 207.266 255.519C207.266 253.467 207.99 252.582 209.889 252.312C211.768 252.045 212.618 251.029 212.881 248.733C213.235 245.669 213.534 245.526 219.664 245.526C225.972 245.526 226.071 245.474 225.707 242.32C225.366 239.349 224.906 239.088 219.465 238.769C216.232 238.581 213.216 238.799 212.76 239.256ZM232.578 239.258C232.124 239.713 231.752 241.309 231.752 242.806C231.752 245.052 232.363 245.526 235.25 245.526C238.376 245.526 238.748 245.906 238.748 249.101C238.748 252.315 239.073 252.64 241.954 252.308C244.473 252.019 245.24 251.251 245.529 248.733C245.859 245.866 245.529 245.526 242.401 245.526C239.451 245.526 238.844 245.024 238.533 242.32C238.172 239.176 234.531 237.305 232.578 239.258ZM91.8327 251.784C91.8327 257.914 91.6904 258.213 88.6262 258.567C86.1077 258.856 85.3404 259.623 85.0513 262.142C84.684 265.328 84.7271 265.348 91.7557 265.348H98.8286V261.85C98.8286 258.897 99.2822 258.352 101.744 258.352C104.076 258.352 104.659 257.769 104.659 255.437C104.659 253.126 104.071 252.522 101.821 252.522C99.5924 252.522 98.9044 251.834 98.6141 249.316C98.3249 246.797 97.5577 246.03 95.0392 245.741C91.8852 245.377 91.8327 245.476 91.8327 251.784ZM110.489 255.437C110.489 257.769 111.072 258.352 113.404 258.352C115.736 258.352 116.319 257.769 116.319 255.437C116.319 253.105 115.736 252.522 113.404 252.522C111.072 252.522 110.489 253.105 110.489 255.437ZM124.141 259.08C123.686 259.535 123.314 261.131 123.314 262.628C123.314 264.886 123.922 265.348 126.889 265.348C130.103 265.348 130.428 265.023 130.096 262.142C129.734 258.998 126.094 257.127 124.141 259.08Z" fill="white"/>
</svg>
