<svg width="177" height="50" viewBox="0 0 177 50" fill="none" xmlns="http://www.w3.org/2000/svg">
<path fill-rule="evenodd" clip-rule="evenodd" d="M23.911 17.7583C23.8699 35.4721 23.869 35.5191 23.5502 36.451C22.3986 39.8192 19.0384 41.9448 15.6624 41.4407C14.1063 41.2085 12.8728 40.6021 11.6829 39.485C8.61631 36.6054 8.60201 31.8992 11.6513 29.0359C13.5427 27.2599 15.7235 26.6463 18.3203 27.1597L18.73 27.2408V22.9049V18.569L17.6212 18.4646C16.2193 18.3327 13.8633 18.6016 12.2129 19.0816C7.7716 20.3736 4.00214 23.7238 2.15376 28.022C1.18838 30.2666 0.940034 31.5614 0.945397 34.3203C0.949568 36.4326 0.996795 36.8878 1.34824 38.205C2.84249 43.8041 7.13173 48.0984 12.7402 49.6103C14.0223 49.9559 14.4648 50 16.6443 50C18.8391 50 19.2622 49.9572 20.5923 49.5998C26.4589 48.0239 30.4677 43.8428 32.16 37.5355C32.2887 37.0562 32.365 33.9711 32.4256 26.8149L32.5105 16.767L33.3299 17.2925C36.28 19.1842 40.3623 20.4875 43.3377 20.4875H44.3543V16.2255V11.9635H43.5588C41.6633 11.9635 38.5872 10.7405 36.7974 9.27561C35.5166 8.22716 34.4772 6.89801 33.6957 5.30881C32.9438 3.78002 32.6194 2.64812 32.4854 1.08419L32.3924 0H28.1724H23.9525L23.911 17.7583ZM53.74 16.1507V18.9921H57.092H60.444V29.834V40.6759H63.7961H67.1481V29.9088V19.1416H69.8248H72.5015L73.4003 16.3277C73.8946 14.78 74.299 13.4678 74.299 13.4115C74.299 13.3555 69.6733 13.3094 64.0195 13.3094H53.74V16.1507ZM77.5021 13.5849C75.8113 14.3934 75.1902 16.2331 76.0342 17.9332C76.9495 19.777 79.3271 20.2783 80.9171 18.9626C82.5864 17.5814 82.4653 14.9843 80.6761 13.7957C79.867 13.2583 78.3901 13.1602 77.5021 13.5849ZM84.8765 26.9927V40.6759H88.1541H91.4316L91.449 37.1243L91.4664 33.5726L92.4074 32.6976C92.9248 32.2165 93.4158 31.8647 93.4985 31.916C93.5811 31.9672 95.0336 33.9928 96.7264 36.4172L99.8042 40.8255H103.301H106.797L105.988 39.6665C105.543 39.0292 103.486 36.0529 101.418 33.0529L97.6568 27.5985L101.732 23.6015L105.808 19.6045L101.861 19.5973L97.9147 19.5902L94.6731 22.8415L91.4316 26.0929V19.7011V13.3094H88.1541H84.8765V26.9927ZM108.415 16.1507V18.9921H111.693H114.97V29.834V40.6759H118.322H121.674V29.9088V19.1416H124.402H127.129L127.979 16.4567C128.447 14.98 128.869 13.6677 128.918 13.5406C128.997 13.3333 127.937 13.3094 118.711 13.3094H108.415V16.1507ZM155.194 26.9927V40.6759H158.472H161.749L161.75 37.1243V33.5726L162.729 32.6937C163.29 32.1899 163.764 31.8708 163.838 31.946C163.91 32.0181 165.336 34.0287 167.006 36.4139L170.043 40.7507L173.494 40.7908C175.392 40.8129 176.945 40.7903 176.945 40.7405C176.945 40.6907 174.921 37.7151 172.446 34.128L167.947 27.6058L172.037 23.601L176.126 19.5962L172.179 19.5932L168.233 19.5902L164.991 22.8415L161.749 26.0929V19.7011V13.3094H158.472H155.194V26.9927ZM137.019 18.693C133.106 19.7368 129.932 22.8668 128.905 26.6936C128.308 28.9163 128.495 31.7642 129.374 33.8639C130.827 37.3312 134.193 40.0516 137.811 40.6825C139.226 40.9293 143.51 40.7882 144.691 40.4561C148.387 39.4172 151.367 36.5227 152.547 32.8249C152.97 31.5004 153.072 28.6369 152.749 27.1775C152.063 24.0845 149.826 21.1596 147.02 19.6886C145.071 18.6673 144.274 18.5016 141.041 18.4455C138.509 18.4014 137.993 18.4331 137.019 18.693ZM75.6398 31.3265V40.6759H78.9186H82.1971L82.1589 31.3668L82.1204 22.0577L78.8801 22.0173L75.6398 21.9771V31.3265ZM138.826 24.2301C137.256 24.5582 135.871 25.6145 135.071 27.0942C134.582 28 134.561 28.1051 134.561 29.6097C134.561 31.1119 134.583 31.2206 135.067 32.1172C136.544 34.8509 139.825 35.8312 142.574 34.3601C145.863 32.6004 146.395 28.1174 143.617 25.5689C142.379 24.4329 140.445 23.8923 138.826 24.2301Z" fill="white"/>
</svg>
