<svg width="25" height="25" viewBox="0 0 25 25" fill="none" xmlns="http://www.w3.org/2000/svg">
<path fill-rule="evenodd" clip-rule="evenodd" d="M12.4402 0.576173C12.3546 0.619813 12.228 0.729594 12.159 0.82011L12.0334 0.984688L12.0196 2.31294C12.0042 3.80164 12.0143 3.86005 12.3293 4.10028C12.4639 4.20299 12.5443 4.22656 12.7599 4.22656C12.9755 4.22656 13.0559 4.20299 13.1906 4.10028C13.4977 3.86605 13.5099 3.79986 13.5099 2.375C13.5099 0.954454 13.497 0.883438 13.1967 0.65436C12.9926 0.498688 12.6597 0.464282 12.4402 0.576173ZM20.6998 3.57416C20.6195 3.61377 20.1521 4.05134 19.6611 4.54648C18.7008 5.51483 18.6612 5.57581 18.7352 5.97036C18.7784 6.20108 19.0588 6.48148 19.2896 6.52475C19.6842 6.59877 19.745 6.55916 20.7143 5.59799C21.2099 5.1065 21.6479 4.63588 21.6877 4.55211C21.9801 3.93594 21.3104 3.27294 20.6998 3.57416ZM4.58464 3.83005C4.38786 3.88892 4.14068 4.14819 4.08532 4.35383C3.98412 4.72977 4.05636 4.84184 5.04143 5.83723C5.53545 6.33636 6.00748 6.77403 6.09045 6.80989C6.43864 6.96022 6.85334 6.82414 7.03564 6.49981C7.15025 6.29591 7.163 6.04639 7.06981 5.83053C7.03395 5.74756 6.59628 5.27567 6.09715 4.78184C5.36234 4.05486 5.15393 3.87425 5.00211 3.83286C4.78821 3.77459 4.7705 3.77445 4.58464 3.83005ZM11.8224 5.82125C10.4073 6.017 9.17154 6.61545 8.10514 7.62144C5.32381 10.2452 5.32381 14.7548 8.10514 17.3786C9.18757 18.3997 10.4139 18.9873 11.8693 19.1823C14.2165 19.4966 16.533 18.5705 18.0185 16.724C19.9455 14.3286 20.0022 10.8732 18.1542 8.44606C16.6541 6.47567 14.2615 5.48389 11.8224 5.82125ZM1.19023 11.8288C1.10459 11.871 0.978028 11.9796 0.908981 12.0702C0.729309 12.3058 0.72959 12.6946 0.909637 12.9306C1.14387 13.2378 1.21006 13.25 2.63492 13.25C4.05978 13.25 4.12596 13.2378 4.3602 12.9306C4.54057 12.6942 4.54057 12.3058 4.3602 12.0694C4.12564 11.7618 4.06076 11.7499 2.62784 11.7511C1.53701 11.752 1.32265 11.7636 1.19023 11.8288ZM21.4402 11.8288C21.3546 11.871 21.228 11.9796 21.159 12.0702C20.9793 12.3058 20.9796 12.6946 21.1596 12.9306C21.3939 13.2378 21.4601 13.25 22.8849 13.25C24.3098 13.25 24.376 13.2378 24.6102 12.9306C24.7906 12.6942 24.7906 12.3058 24.6102 12.0694C24.3756 11.7618 24.3108 11.7499 22.8778 11.7511C21.787 11.752 21.5727 11.7636 21.4402 11.8288ZM6.68961 17.701C6.45139 17.7565 6.38787 17.8102 5.48679 18.7192C4.75095 19.4615 4.60367 19.6332 4.55918 19.8008C4.41265 20.3528 4.90714 20.8473 5.45914 20.7007C5.62671 20.6562 5.79851 20.5089 6.54087 19.7731C7.02626 19.292 7.45582 18.8368 7.49548 18.7614C7.53514 18.686 7.56762 18.5225 7.56762 18.3979C7.56762 17.9548 7.12114 17.6004 6.68961 17.701ZM18.7533 18.2262C18.434 18.4113 18.3011 18.8246 18.45 19.1695C18.4859 19.2524 18.9236 19.7245 19.4227 20.2185C20.1885 20.9764 20.3614 21.1249 20.5302 21.1697C21.0719 21.3134 21.5733 20.8116 21.4294 20.2695C21.3849 20.1017 21.2349 19.9272 20.4784 19.1628C19.9844 18.6636 19.5124 18.226 19.4294 18.1901C19.2145 18.0973 18.9513 18.1114 18.7533 18.2262ZM12.4402 20.8262C12.3546 20.8698 12.228 20.9796 12.159 21.0701L12.0334 21.2347L12.0196 22.5629C12.0042 24.0516 12.0143 24.11 12.3293 24.3503C12.5657 24.5307 12.9541 24.5307 13.1906 24.3503C13.4977 24.116 13.5099 24.0499 13.5099 22.625C13.5099 21.2045 13.497 21.1334 13.1967 20.9044C12.9926 20.7487 12.6597 20.7143 12.4402 20.8262Z" fill="white"/>
</svg>
