<svg width="59" height="70" viewBox="0 0 59 70" fill="none" xmlns="http://www.w3.org/2000/svg">
<path d="M58.5 35C58.5 51.034 45.5158 64.0312 29.5 64.0312C13.4842 64.0312 0.5 51.034 0.5 35C0.5 18.966 13.4842 5.96875 29.5 5.96875C45.5158 5.96875 58.5 18.966 58.5 35Z" stroke="white"/>
<path fill-rule="evenodd" clip-rule="evenodd" d="M16.4332 34.1353C23.0309 31.3626 27.423 29.5202 29.6286 28.6264C35.9058 26.0908 37.2253 25.653 38.0736 25.6348C38.2621 25.6348 38.6768 25.6712 38.9596 25.8901C39.1858 26.0726 39.2423 26.3097 39.28 26.4921C39.3177 26.6745 39.3554 27.0576 39.3177 27.3495C38.9784 30.8153 37.5081 39.2247 36.754 43.0919C36.4336 44.7336 35.8115 45.2808 35.2083 45.3356C33.8888 45.445 32.8897 44.4964 31.6267 43.6938C29.6286 42.4352 28.5164 41.6508 26.5748 40.4104C24.3316 38.9875 25.783 38.2031 27.0649 36.9262C27.4042 36.5979 33.1913 31.4903 33.3044 31.0342C33.3233 30.9795 33.3233 30.7606 33.1913 30.6512C33.0593 30.5417 32.8708 30.5782 32.72 30.6147C32.5127 30.6512 29.3458 32.6942 23.1817 36.7256C22.2768 37.3275 21.4663 37.6194 20.7311 37.6012C19.9205 37.5829 18.3748 37.1634 17.2061 36.7985C15.7923 36.3608 14.6612 36.1236 14.7555 35.3575C14.812 34.9562 15.3776 34.5548 16.4332 34.1353Z" fill="white"/>
</svg>
