<svg width="664" height="383" viewBox="0 0 664 383" fill="none" xmlns="http://www.w3.org/2000/svg">
<g clip-path="url(#clip0_218_9976)">
<path d="M143.842 339.221C162.909 339.221 178.367 323.735 178.367 304.632C178.367 285.529 162.909 270.043 143.842 270.043C124.774 270.043 109.317 285.529 109.317 304.632C109.317 323.735 124.774 339.221 143.842 339.221Z" fill="#F7FAFC"/>
<path d="M149.455 334.159C168.523 334.159 183.98 318.673 183.98 299.57C183.98 280.467 168.523 264.981 149.455 264.981C130.388 264.981 114.931 280.467 114.931 299.57C114.931 318.673 130.388 334.159 149.455 334.159Z" fill="#0BC5EA"/>
<path d="M604.425 261.298H177.26V262.466H604.425V261.298Z" fill="#4A5568"/>
<path d="M398.489 10.8901H246.872V7.75928H178.123V10.8901H25.8808C24.534 10.8901 23.2003 11.1558 21.9561 11.6722C20.7118 12.1886 19.5812 12.9454 18.6288 13.8995C17.6765 14.8536 16.9211 15.9863 16.4057 17.2329C15.8903 18.4795 15.625 19.8156 15.625 21.1649V229.163C15.625 231.888 16.7055 234.501 18.6288 236.428C20.5522 238.355 23.1608 239.438 25.8808 239.438H398.489C401.209 239.438 403.818 238.355 405.741 236.428C407.665 234.501 408.745 231.888 408.745 229.163V21.1649C408.745 19.8156 408.48 18.4795 407.964 17.2329C407.449 15.9863 406.694 14.8536 405.741 13.8995C404.789 12.9454 403.658 12.1886 402.414 11.6722C401.17 11.1558 399.836 10.8901 398.489 10.8901Z" fill="#4A5568"/>
<path d="M394.995 29.0486H29.3745V235.681H394.995V29.0486Z" fill="#0BC5EA"/>
<path d="M211.872 23.4133C213.943 23.4133 215.622 21.7313 215.622 19.6564C215.622 17.5815 213.943 15.8994 211.872 15.8994C209.801 15.8994 208.122 17.5815 208.122 19.6564C208.122 21.7313 209.801 23.4133 211.872 23.4133Z" fill="#0BC5EA"/>
<path opacity="0.1" d="M290.434 235.681H29.375V29.0488L290.434 235.681Z" fill="#1A202C"/>
<path d="M86.5835 220.218C105.993 220.218 121.728 204.454 121.728 185.008C121.728 165.562 105.993 149.798 86.5835 149.798C67.1737 149.798 51.439 165.562 51.439 185.008C51.439 204.454 67.1737 220.218 86.5835 220.218Z" fill="#F7FAFC"/>
<path d="M331.334 140.487H297.181V147.637H331.334V140.487Z" fill="#4A5568"/>
<path d="M372.624 84.821H255.892V87.8852H372.624V84.821Z" fill="#4A5568"/>
<path d="M372.624 94.5242H255.892V97.5883H372.624V94.5242Z" fill="#4A5568"/>
<path d="M372.624 104.227H255.892V107.291H372.624V104.227Z" fill="#4A5568"/>
<path d="M372.624 113.931H255.892V116.995H372.624V113.931Z" fill="#4A5568"/>
<path d="M372.624 123.634H255.892V126.698H372.624V123.634Z" fill="#4A5568"/>
<path d="M372.624 33.2407H358.351V47.5402H372.624V33.2407Z" fill="#F7FAFC"/>
<path d="M379.25 54.1791H361.919V36.8154H379.25V54.1791ZM362.673 53.4242H378.497V37.5704H362.673V53.4242Z" fill="#4A5568"/>
<path d="M419.011 231.924H383.328V229.348C383.328 229.281 383.315 229.215 383.29 229.153C383.264 229.091 383.227 229.034 383.179 228.987C383.132 228.94 383.076 228.902 383.014 228.876C382.952 228.851 382.886 228.837 382.819 228.837H370.585C370.518 228.837 370.452 228.851 370.39 228.876C370.328 228.902 370.272 228.94 370.224 228.987C370.177 229.034 370.139 229.091 370.114 229.153C370.088 229.215 370.075 229.281 370.075 229.348V231.924H362.429V229.348C362.429 229.281 362.416 229.215 362.39 229.153C362.364 229.091 362.327 229.034 362.28 228.987C362.232 228.94 362.176 228.902 362.114 228.876C362.052 228.851 361.986 228.837 361.919 228.837H349.685C349.618 228.837 349.552 228.851 349.49 228.876C349.428 228.902 349.372 228.94 349.325 228.987C349.277 229.034 349.24 229.091 349.214 229.153C349.189 229.215 349.176 229.281 349.176 229.348V231.924H341.529V229.348C341.529 229.281 341.516 229.215 341.491 229.153C341.465 229.091 341.427 229.034 341.38 228.987C341.333 228.94 341.277 228.902 341.215 228.876C341.153 228.851 341.087 228.837 341.02 228.837H328.786C328.719 228.837 328.653 228.851 328.591 228.876C328.529 228.902 328.473 228.94 328.425 228.987C328.378 229.034 328.34 229.091 328.315 229.153C328.289 229.215 328.276 229.281 328.276 229.348V231.924H320.63V229.348C320.63 229.281 320.617 229.215 320.591 229.153C320.565 229.091 320.528 229.034 320.48 228.987C320.433 228.94 320.377 228.902 320.315 228.876C320.253 228.851 320.187 228.837 320.12 228.837H307.886C307.819 228.837 307.753 228.851 307.691 228.876C307.629 228.902 307.573 228.94 307.526 228.987C307.478 229.034 307.441 229.091 307.415 229.153C307.39 229.215 307.376 229.281 307.376 229.348V231.924H299.73V229.348C299.73 229.281 299.717 229.215 299.691 229.153C299.666 229.091 299.628 229.034 299.581 228.987C299.534 228.94 299.477 228.902 299.416 228.876C299.354 228.851 299.287 228.837 299.22 228.837H286.987C286.92 228.837 286.853 228.851 286.792 228.876C286.73 228.902 286.673 228.94 286.626 228.987C286.579 229.034 286.541 229.091 286.516 229.153C286.49 229.215 286.477 229.281 286.477 229.348V231.924H278.831V229.348C278.831 229.281 278.817 229.215 278.792 229.153C278.766 229.091 278.729 229.034 278.681 228.987C278.634 228.94 278.578 228.902 278.516 228.876C278.454 228.851 278.388 228.837 278.321 228.837H266.087C266.02 228.837 265.954 228.851 265.892 228.876C265.83 228.902 265.774 228.94 265.727 228.987C265.679 229.034 265.642 229.091 265.616 229.153C265.59 229.215 265.577 229.281 265.577 229.348V231.924H257.931V229.348C257.931 229.281 257.918 229.215 257.892 229.153C257.867 229.091 257.829 229.034 257.782 228.987C257.734 228.94 257.678 228.902 257.616 228.876C257.555 228.851 257.488 228.837 257.421 228.837H161.589C161.522 228.837 161.456 228.851 161.394 228.876C161.332 228.902 161.276 228.94 161.229 228.987C161.181 229.034 161.144 229.091 161.118 229.153C161.093 229.215 161.079 229.281 161.079 229.348V231.924H153.433V229.348C153.433 229.281 153.42 229.215 153.395 229.153C153.369 229.091 153.331 229.034 153.284 228.987C153.237 228.94 153.181 228.902 153.119 228.876C153.057 228.851 152.991 228.837 152.924 228.837H140.69C140.623 228.837 140.556 228.851 140.495 228.876C140.433 228.902 140.377 228.94 140.329 228.987C140.282 229.034 140.244 229.091 140.219 229.153C140.193 229.215 140.18 229.281 140.18 229.348V231.924H132.534V229.348C132.534 229.281 132.521 229.215 132.495 229.153C132.469 229.091 132.432 229.034 132.384 228.987C132.337 228.94 132.281 228.902 132.219 228.876C132.157 228.851 132.091 228.837 132.024 228.837H119.79C119.723 228.837 119.657 228.851 119.595 228.876C119.533 228.902 119.477 228.94 119.43 228.987C119.382 229.034 119.345 229.091 119.319 229.153C119.294 229.215 119.28 229.281 119.28 229.348V231.924H111.634V229.348C111.634 229.281 111.621 229.215 111.595 229.153C111.57 229.091 111.532 229.034 111.485 228.987C111.438 228.94 111.381 228.902 111.32 228.876C111.258 228.851 111.191 228.837 111.124 228.837H98.8906C98.8236 228.837 98.7574 228.851 98.6955 228.876C98.6337 228.902 98.5775 228.94 98.5301 228.987C98.4828 229.034 98.4453 229.091 98.4196 229.153C98.394 229.215 98.3808 229.281 98.3808 229.348V231.924H90.7347V229.348C90.7347 229.281 90.7215 229.215 90.6959 229.153C90.6703 229.091 90.6327 229.034 90.5854 228.987C90.5381 228.94 90.4819 228.902 90.42 228.876C90.3582 228.851 90.2919 228.837 90.2249 228.837H77.991C77.9241 228.837 77.8578 228.851 77.796 228.876C77.7341 228.902 77.6779 228.94 77.6306 228.987C77.5832 229.034 77.5457 229.091 77.5201 229.153C77.4945 229.215 77.4813 229.281 77.4813 229.348V231.924H69.8351V229.348C69.8351 229.281 69.8219 229.215 69.7963 229.153C69.7707 229.091 69.7331 229.034 69.6858 228.987C69.6385 228.94 69.5823 228.902 69.5204 228.876C69.4586 228.851 69.3923 228.837 69.3254 228.837H57.0915C57.0245 228.837 56.9582 228.851 56.8964 228.876C56.8346 228.902 56.7784 228.94 56.731 228.987C56.6837 229.034 56.6461 229.091 56.6205 229.153C56.5949 229.215 56.5817 229.281 56.5817 229.348V231.924H48.9355V229.348C48.9356 229.281 48.9224 229.215 48.8968 229.153C48.8711 229.091 48.8336 229.034 48.7863 228.987C48.7389 228.94 48.6827 228.902 48.6209 228.876C48.559 228.851 48.4927 228.837 48.4258 228.837H36.1919C36.125 228.837 36.0587 228.851 35.9968 228.876C35.935 228.902 35.8788 228.94 35.8315 228.987C35.7841 229.034 35.7466 229.091 35.721 229.153C35.6954 229.215 35.6822 229.281 35.6822 229.348V231.924H12.2339C8.98926 231.924 5.87752 233.215 3.58323 235.514C1.28893 237.812 3.09116e-06 240.93 0 244.18V249.723C9.27348e-06 252.973 1.28894 256.091 3.58324 258.389C5.87753 260.688 8.98927 261.979 12.2339 261.979H419.011C422.255 261.979 425.367 260.688 427.661 258.389C429.956 256.091 431.245 252.973 431.245 249.723V244.18C431.245 240.93 429.956 237.812 427.661 235.514C425.367 233.215 422.255 231.924 419.011 231.924Z" fill="#4A5568"/>
<path d="M95.0903 207C86.3306 207 77.7675 204.397 70.4841 199.522C63.2006 194.646 57.5239 187.716 54.1717 179.608C50.8195 171.5 49.9424 162.578 51.6513 153.971C53.3603 145.363 57.5785 137.457 63.7725 131.251C69.9666 125.045 77.8583 120.819 86.4497 119.107C95.0412 117.395 103.946 118.274 112.039 121.632C120.132 124.991 127.049 130.678 131.916 137.975C136.783 145.272 139.38 153.851 139.38 162.627C139.367 174.391 134.696 185.67 126.393 193.989C118.09 202.307 106.833 206.986 95.0903 207ZM95.0903 119.422C86.5611 119.422 78.2234 121.956 71.1316 126.704C64.0399 131.451 58.5125 138.199 55.2485 146.093C51.9845 153.988 51.1305 162.675 52.7945 171.056C54.4584 179.437 58.5656 187.135 64.5967 193.178C70.6278 199.22 78.3118 203.335 86.6771 205.002C95.0424 206.669 103.713 205.813 111.593 202.543C119.473 199.273 126.208 193.736 130.947 186.631C135.686 179.526 138.215 171.172 138.215 162.627C138.202 151.173 133.654 140.191 125.57 132.091C117.485 123.991 106.524 119.435 95.0903 119.422Z" fill="#4A5568"/>
<path d="M490.203 19.0005H341.599V20.1682H490.203V19.0005Z" fill="#4A5568"/>
<path d="M663.867 327.273H236.702V328.441H663.867V327.273Z" fill="#4A5568"/>
<path d="M260.886 380.987H112.282V382.155H260.886V380.987Z" fill="#4A5568"/>
<path d="M290.798 321.117H274.481V337.465H290.798V321.117Z" fill="#0BC5EA"/>
<path d="M300.706 328.123H280.892V308.272H300.706V328.123ZM281.753 327.26H299.844V309.136H281.753V327.26Z" fill="#4A5568"/>
<path d="M480.196 12.8447H463.879V29.1925H480.196V12.8447Z" fill="#0BC5EA"/>
<path d="M490.103 19.8509H470.29V0H490.103V19.8509ZM471.151 18.9878H489.242V0.863084H471.151V18.9878Z" fill="#4A5568"/>
<path d="M644.536 321.117H628.218V337.465H644.536V321.117Z" fill="#0BC5EA"/>
<path d="M654.443 328.123H634.629V308.272H654.443V328.123ZM635.49 327.26H653.581V309.136H635.49V327.26Z" fill="#4A5568"/>
<path d="M616.08 135.429H614.694V97.3842C614.694 94.4926 614.126 91.6293 613.021 88.9578C611.917 86.2863 610.298 83.8589 608.257 81.8142C606.216 79.7696 603.793 78.1476 601.127 77.0411C598.46 75.9345 595.602 75.365 592.716 75.365H512.263C509.377 75.365 506.519 75.9345 503.853 77.0411C501.186 78.1476 498.763 79.7696 496.722 81.8142C494.682 83.8589 493.063 86.2863 491.958 88.9578C490.854 91.6293 490.285 94.4926 490.285 97.3842V306.1C490.285 308.991 490.854 311.854 491.958 314.526C493.063 317.197 494.682 319.625 496.722 321.67C498.763 323.714 501.186 325.336 503.853 326.443C506.519 327.549 509.377 328.119 512.263 328.119H592.716C595.602 328.119 598.46 327.549 601.127 326.443C603.793 325.336 606.216 323.714 608.257 321.669C610.298 319.625 611.917 317.197 613.021 314.526C614.126 311.854 614.694 308.991 614.694 306.1V162.509H616.08V135.429Z" fill="#4A5568"/>
<path d="M610.014 98.678V307.089C610.014 311.45 608.286 315.633 605.208 318.718C602.131 321.802 597.956 323.535 593.603 323.536H512.762C508.409 323.535 504.235 321.802 501.157 318.718C498.079 315.633 496.351 311.45 496.352 307.089V98.678C496.352 94.3177 498.081 90.1361 501.159 87.0528C504.236 83.9696 508.41 82.2373 512.762 82.2368H522.57C522.087 83.423 521.903 84.7099 522.034 85.9841C522.165 87.2583 522.606 88.4808 523.319 89.5439C524.033 90.6069 524.996 91.4779 526.125 92.0801C527.253 92.6823 528.512 92.9972 529.791 92.9972H575.881C577.16 92.9972 578.419 92.6823 579.547 92.0801C580.676 91.4779 581.639 90.6069 582.352 89.5439C583.066 88.4808 583.507 87.2583 583.638 85.9841C583.768 84.7098 583.584 83.423 583.102 82.2368H593.603C597.955 82.2373 602.129 83.9696 605.207 87.0528C608.284 90.1361 610.013 94.3177 610.014 98.678Z" fill="#0BC5EA"/>
<path d="M565.224 219.655H541.142V226.804H565.224V219.655Z" fill="#4A5568"/>
<path d="M594.337 163.989H512.028V167.053H594.337V163.989Z" fill="#4A5568"/>
<path d="M594.337 173.692H512.028V176.756H594.337V173.692Z" fill="#4A5568"/>
<path d="M594.337 183.395H512.028V186.459H594.337V183.395Z" fill="#4A5568"/>
<path d="M594.337 193.098H512.028V196.162H594.337V193.098Z" fill="#4A5568"/>
<path d="M594.337 202.802H512.028V205.866H594.337V202.802Z" fill="#4A5568"/>
<path d="M556.058 123.297H541.785V137.596H556.058V123.297Z" fill="#F7FAFC"/>
<path d="M547.249 126.872V144.236H564.58V126.872H547.249ZM563.829 143.483H548.001V127.625H563.829V143.483Z" fill="#4A5568"/>
<path opacity="0.1" d="M610.014 284.833V307.089C610.014 311.45 608.286 315.633 605.208 318.718C602.131 321.802 597.956 323.535 593.603 323.536H512.762C508.409 323.535 504.235 321.802 501.157 318.718C498.079 315.633 496.351 311.45 496.352 307.089V194.867L564.459 248.774L565.625 249.697L578.294 259.721L579.477 260.661L610.014 284.833Z" fill="#1A202C"/>
<path d="M546.19 316.782C560.308 316.782 571.754 305.315 571.754 291.17C571.754 277.025 560.308 265.558 546.19 265.558C532.071 265.558 520.625 277.025 520.625 291.17C520.625 305.315 532.071 316.782 546.19 316.782Z" fill="#F7FAFC"/>
<path d="M186.584 382.155C176.557 382.155 166.754 379.176 158.417 373.594C150.079 368.013 143.581 360.08 139.743 350.798C135.906 341.517 134.902 331.304 136.858 321.45C138.814 311.597 143.643 302.546 150.734 295.442C157.824 288.339 166.858 283.501 176.693 281.541C186.528 279.581 196.722 280.587 205.986 284.432C215.251 288.276 223.169 294.787 228.74 303.14C234.311 311.493 237.285 321.314 237.285 331.36C237.269 344.827 231.923 357.738 222.418 367.261C212.913 376.783 200.026 382.14 186.584 382.155ZM186.584 281.733C176.787 281.733 167.21 284.643 159.064 290.096C150.918 295.549 144.569 303.3 140.82 312.368C137.071 321.437 136.09 331.415 138.001 341.042C139.912 350.668 144.63 359.511 151.558 366.452C158.485 373.392 167.312 378.119 176.92 380.034C186.529 381.948 196.489 380.966 205.54 377.209C214.592 373.453 222.328 367.092 227.771 358.931C233.214 350.77 236.119 341.175 236.119 331.36C236.104 318.202 230.881 305.588 221.594 296.285C212.308 286.981 199.717 281.748 186.584 281.733Z" fill="#4A5568"/>
<path d="M553.725 310.925C547.386 310.925 541.189 309.042 535.918 305.513C530.647 301.985 526.539 296.97 524.113 291.102C521.687 285.234 521.052 278.778 522.289 272.549C523.525 266.32 526.578 260.598 531.061 256.107C535.543 251.616 541.254 248.558 547.472 247.319C553.689 246.08 560.134 246.716 565.991 249.146C571.847 251.576 576.853 255.692 580.375 260.973C583.897 266.254 585.777 272.462 585.777 278.813C585.767 287.327 582.387 295.489 576.378 301.509C570.37 307.529 562.223 310.916 553.725 310.925ZM553.725 247.869C547.616 247.869 541.644 249.684 536.565 253.084C531.486 256.485 527.527 261.317 525.189 266.972C522.852 272.626 522.24 278.848 523.432 284.85C524.624 290.853 527.565 296.367 531.885 300.694C536.204 305.022 541.708 307.969 547.699 309.163C553.691 310.357 559.901 309.744 565.545 307.402C571.188 305.06 576.012 301.094 579.406 296.005C582.8 290.916 584.611 284.934 584.611 278.813C584.602 270.609 581.345 262.744 575.555 256.943C569.764 251.142 561.914 247.879 553.725 247.869Z" fill="#4A5568"/>
</g>
<defs>
<clipPath id="clip0_218_9976">
<rect width="663.867" height="382.155" fill="white"/>
</clipPath>
</defs>
</svg>
