<svg width="39" height="28" viewBox="0 0 39 28" fill="none" xmlns="http://www.w3.org/2000/svg">
<path fill-rule="evenodd" clip-rule="evenodd" d="M23.1243 1.24031C18.3937 0.743264 13.626 0.706289 8.88824 1.1299L5.72467 1.41276C3.11037 1.64651 0.998088 3.64371 0.618392 6.24082C-0.133865 11.3863 -0.133865 16.6138 0.618393 21.7592C0.998088 24.3563 3.11038 26.3535 5.72467 26.5873L8.88824 26.8701C13.626 27.2937 18.3937 27.2568 23.1243 26.7597L24.3398 26.632C26.828 26.3706 28.8411 24.5184 29.3259 22.0871L35.4196 25.3247C35.8639 25.5607 36.397 25.5583 36.8392 25.3182C37.2813 25.0781 37.5737 24.6323 37.6176 24.131L37.6674 23.5633C38.2253 17.2 38.2253 10.8 37.6674 4.4367L37.6176 3.86901C37.5737 3.36778 37.2813 2.92196 36.8392 2.68184C36.397 2.44172 35.8639 2.43929 35.4196 2.67536L29.3259 5.91288C28.8411 3.48159 26.828 1.62945 24.3398 1.36801L23.1243 1.24031ZM9.15541 4.11798C13.6999 3.71165 18.2732 3.74711 22.8108 4.22388L24.0263 4.35159C25.2495 4.48011 26.2299 5.42159 26.4078 6.63857C27.1215 11.5203 27.1215 16.4798 26.4078 21.3615C26.2299 22.5784 25.2495 23.5199 24.0263 23.6484L22.8108 23.7761C18.2732 24.2529 13.6999 24.2884 9.1554 23.882L5.99184 23.5992C4.76053 23.4891 3.76567 22.5484 3.58684 21.3252C2.87665 16.4676 2.87665 11.5325 3.58684 6.67481C3.76567 5.45159 4.76053 4.51093 5.99184 4.40084L9.15541 4.11798ZM29.7199 9.10067C30.0174 12.3601 30.0174 15.6399 29.7199 18.8994L34.8139 21.6057C35.1764 16.5417 35.1764 11.4583 34.8139 6.39429L29.7199 9.10067Z" fill="#A0AEC0"/>
</svg>
