<svg width="40" height="39" viewBox="0 0 40 39" fill="none" xmlns="http://www.w3.org/2000/svg">
<path fill-rule="evenodd" clip-rule="evenodd" d="M16 0.5C11.3056 0.5 7.5 4.30558 7.5 9C7.5 13.6944 11.3056 17.5 16 17.5C20.6944 17.5 24.5 13.6944 24.5 9C24.5 4.30558 20.6944 0.5 16 0.5ZM10.5 9C10.5 5.96243 12.9624 3.5 16 3.5C19.0376 3.5 21.5 5.96243 21.5 9C21.5 12.0376 19.0376 14.5 16 14.5C12.9624 14.5 10.5 12.0376 10.5 9Z" fill="#A0AEC0"/>
<path d="M3.5 28C3.5 25.5147 5.51472 23.5 8 23.5H8.68174C8.73445 23.5 8.78683 23.5083 8.83694 23.5247L10.568 24.0899C11.927 24.5337 13.3269 24.8066 14.7361 24.9086C15.0326 24.9301 15.2929 24.7218 15.3599 24.4321C15.5111 23.7787 15.7079 23.1428 15.947 22.528C16.0526 22.2566 15.8542 21.9565 15.5632 21.9478C14.19 21.9064 12.8213 21.6698 11.4992 21.2381L9.76814 20.6729C9.41739 20.5583 9.05072 20.5 8.68174 20.5H8C3.85786 20.5 0.5 23.8579 0.5 28V30.3766C0.5 31.883 1.59177 33.1675 3.07854 33.4102C7.39483 34.1149 11.7544 34.4642 16.1135 34.458C16.4177 34.4576 16.6087 34.129 16.4726 33.857C16.1789 33.2701 15.9253 32.6598 15.7152 32.0294C15.6028 31.6923 15.2938 31.4557 14.9384 31.4508C11.1329 31.3985 7.33031 31.0647 3.56194 30.4494C3.52623 30.4436 3.5 30.4128 3.5 30.3766V28Z" fill="#A0AEC0"/>
<path d="M30.5 24.5999C30.5 23.7715 29.8284 23.0999 29 23.0999C28.1716 23.0999 27.5 23.7715 27.5 24.5999V28.1454C27.5 28.6253 27.7296 29.0762 28.1177 29.3585L30.1177 30.813C30.7877 31.3003 31.7258 31.1522 32.2131 30.4822C32.7004 29.8122 32.5522 28.8741 31.8823 28.3868L30.5 27.3815V24.5999Z" fill="#A0AEC0"/>
<path fill-rule="evenodd" clip-rule="evenodd" d="M29 38.5999C35.0751 38.5999 40 33.675 40 27.5999C40 21.5248 35.0751 16.5999 29 16.5999C22.9249 16.5999 18 21.5248 18 27.5999C18 33.675 22.9249 38.5999 29 38.5999ZM29 35.5999C33.4183 35.5999 37 32.0182 37 27.5999C37 23.1816 33.4183 19.5999 29 19.5999C24.5817 19.5999 21 23.1816 21 27.5999C21 32.0182 24.5817 35.5999 29 35.5999Z" fill="#A0AEC0"/>
</svg>
