<svg width="44" height="24" viewBox="0 0 44 24" fill="none" xmlns="http://www.w3.org/2000/svg">
<path d="M12 8C9.79086 8 8 9.79086 8 12C8 14.2091 9.79086 16 12 16C14.2091 16 16 14.2091 16 12C16 9.79086 14.2091 8 12 8Z" fill="#A0AEC0"/>
<path fill-rule="evenodd" clip-rule="evenodd" d="M12 0.5C5.64873 0.5 0.5 5.64873 0.5 12C0.5 18.3513 5.64873 23.5 12 23.5C16.3611 23.5 20.1525 21.0726 22.1016 17.5H28.5V22C28.5 22.8284 29.1716 23.5 30 23.5H37C37.8284 23.5 38.5 22.8284 38.5 22V17.5H42C42.8284 17.5 43.5 16.8284 43.5 16V10C43.5 8.067 41.933 6.5 40 6.5H22.1016C20.1525 2.92742 16.3611 0.5 12 0.5ZM3.5 12C3.5 7.30558 7.30558 3.5 12 3.5C15.4832 3.5 18.4804 5.59538 19.7934 8.60056C20.0321 9.1469 20.5717 9.5 21.1679 9.5H40C40.2761 9.5 40.5 9.72386 40.5 10V14.5H37C36.1716 14.5 35.5 15.1716 35.5 16V20.5H31.5V16C31.5 15.1716 30.8284 14.5 30 14.5H21.1679C20.5717 14.5 20.0321 14.8531 19.7934 15.3994C18.4804 18.4046 15.4832 20.5 12 20.5C7.30558 20.5 3.5 16.6944 3.5 12Z" fill="#A0AEC0"/>
</svg>
