<svg width="30" height="40" viewBox="0 0 30 40" fill="none" xmlns="http://www.w3.org/2000/svg">
<path d="M12.0001 28C12.0001 26.3431 13.3433 25 15.0001 25C16.657 25 18.0001 26.3431 18.0001 28C18.0001 29.6568 16.657 31 15.0001 31C13.3433 31 12.0001 29.6568 12.0001 28Z" fill="#A0AEC0"/>
<path fill-rule="evenodd" clip-rule="evenodd" d="M6.24343 17.1943L5.61254 11.5163C5.53166 10.7884 5.53166 10.0537 5.61254 9.32572L5.65808 8.91593C6.14105 4.56915 9.55826 1.12983 13.9018 0.618824C14.6315 0.532983 15.3687 0.532983 16.0983 0.618824C20.4419 1.12983 23.8591 4.56915 24.3421 8.91593L24.3876 9.32572C24.4685 10.0537 24.4685 10.7884 24.3876 11.5163L23.7567 17.1942L25.1299 17.3039C27.2954 17.4767 29.0636 19.1046 29.4146 21.2483C30.1468 25.7197 30.1468 30.2803 29.4146 34.7516C29.0636 36.8954 27.2954 38.5232 25.1299 38.6961L22.1377 38.9349C17.3869 39.3142 12.6135 39.3142 7.86268 38.9349L4.87043 38.6961C2.70497 38.5232 0.93676 36.8954 0.585729 34.7516C-0.146415 30.2803 -0.146415 25.7197 0.585729 21.2483C0.93676 19.1046 2.70497 17.4767 4.87042 17.3039L6.24343 17.1943ZM14.2523 3.59828C14.7491 3.53983 15.251 3.53983 15.7478 3.59828C18.7051 3.94619 21.0316 6.28779 21.3604 9.24722L21.406 9.65702C21.4624 10.1648 21.4624 10.6772 21.406 11.185L20.7636 16.9659C16.9252 16.7188 13.0749 16.7188 9.23652 16.9659L8.59419 11.185C8.53778 10.6772 8.53778 10.1648 8.59419 9.65702L8.63973 9.24722C8.96855 6.28779 11.2951 3.94619 14.2523 3.59828ZM21.8989 20.0555C17.3071 19.6889 12.6933 19.6889 8.10142 20.0555L5.10916 20.2944C4.3193 20.3574 3.67434 20.9512 3.5463 21.7331C2.86673 25.8834 2.86673 30.1166 3.5463 34.2668C3.67434 35.0488 4.3193 35.6425 5.10916 35.7056L8.10142 35.9445C12.6933 36.311 17.3071 36.311 21.8989 35.9445L24.8912 35.7056C25.681 35.6425 26.326 35.0488 26.454 34.2668C27.1336 30.1166 27.1336 25.8834 26.454 21.7331C26.326 20.9512 25.681 20.3574 24.8912 20.2944L21.8989 20.0555Z" fill="#A0AEC0"/>
</svg>
