<svg width="272" height="47" fill="none" xmlns="http://www.w3.org/2000/svg"><path d="M1.13 5.183a2.81 2.81 0 01.48-.72c.191-.288.415-.56.671-.816.224-.256.48-.48.768-.672.256-.192.512-.304.768-.336h.192c.352 0 .576.128.672.384.288.896.64 1.76 1.056 2.592.416.8.864 1.584 1.344 2.352a8.959 8.959 0 011.344-2.64 10.489 10.489 0 012.016-2.256 10.144 10.144 0 012.544-1.632 7.3 7.3 0 012.928-.624c1.568 0 3.056.4 4.464 1.2a15.54 15.54 0 013.888 3.072 19.7 19.7 0 012.928 4.128c.832 1.472 1.44 2.896 1.824 4.272.64 2.368.8 4.752.48 7.152a20.738 20.738 0 01-2.064 6.816 22.473 22.473 0 01-2.64 4.176 35.007 35.007 0 01-3.264 3.648 65.393 65.393 0 014.368-.72 33.988 33.988 0 014.416-.192c2.72 0 5.424.288 8.112.864a77.181 77.181 0 01-1.344-1.68 121.43 121.43 0 01-1.296-1.728 1.216 1.216 0 01-.24-.72c.032-.256.096-.496.192-.72a5.36 5.36 0 01.432-.72 6.72 6.72 0 01.432-.624c.256-.352.576-.672.96-.96.416-.32.848-.48 1.296-.48.16 0 .288.048.384.144a26.847 26.847 0 012.496 2.88 71.144 71.144 0 012.304 3.12 193.43 193.43 0 012.256 3.168 54.874 54.874 0 002.304 3.072c.16.192.24.416.24.672 0 .256-.064.512-.192.768a3.116 3.116 0 01-.384.72c-.16.256-.32.464-.48.624-.224.256-.56.544-1.008.864-.416.352-.816.528-1.2.528a.519.519 0 01-.384-.144c-.896-.896-2.048-1.68-3.456-2.352a28.555 28.555 0 00-4.464-1.68 40.309 40.309 0 00-4.752-.96c-1.6-.192-3.056-.288-4.368-.288H26.57c-.512 0-1.024.016-1.536.048h-.144a1.249 1.249 0 01-.384.048 1.578 1.578 0 01-.384.048 1.41 1.41 0 00-.336.048 3.156 3.156 0 01-.768.096c-.256 0-.512.016-.768.048-.992.096-1.968.24-2.928.432-.96.224-1.904.48-2.832.768a4.75 4.75 0 00-.72.24 1.536 1.536 0 01-.672.24c-.064 0-.192.032-.384.096a.326.326 0 01-.24.096c-.096.032-.192.08-.288.144-.128.064-.336.16-.624.288-.288.16-.592.304-.912.432-.32.16-.624.288-.912.384-.288.128-.496.192-.624.192a.926.926 0 01-.48-.144.64.64 0 01-.24-.528c0-.224.032-.416.096-.576.256-.864.768-1.616 1.536-2.256a11.36 11.36 0 012.304-1.44 3.6 3.6 0 00.672-.384l.096-.048c.032-.032.064-.048.096-.048s.064-.016.096-.048c.608-.384 1.2-.784 1.776-1.2a24.309 24.309 0 001.728-1.296l.24-.24c.16-.096.256-.144.288-.144.32-.288.656-.544 1.008-.768a3.11 3.11 0 00.864-.96.752.752 0 01.144-.192l.192-.192c.096-.128.192-.24.288-.336.096-.128.208-.256.336-.384l.336-.336c.096-.128.192-.272.288-.432.064-.128.128-.224.192-.288.192-.192.352-.416.48-.672.16-.288.32-.56.48-.816.032-.128.096-.256.192-.384.064-.096.112-.208.144-.336.064-.16.128-.304.192-.432s.112-.24.144-.336l.192-.384a.426.426 0 00.048-.192l.096-.192c.128-.352.24-.72.336-1.104.096-.416.192-.8.288-1.152 0-.192.016-.288.048-.288v-.192c.064-.256.096-.496.096-.72 0-.256.016-.512.048-.768s.048-.512.048-.768a3.084 3.084 0 000-.768v-.336c0-.128-.016-.272-.048-.432l-.048-.336v-.048a24.466 24.466 0 00-.576-2.688 16.929 16.929 0 00-.816-2.352 12.518 12.518 0 00-1.104-2.16 35.16 35.16 0 00-1.536-2.208 14.369 14.369 0 00-1.536-1.68 14.203 14.203 0 00-2.016-1.584c-.704-.48-1.44-.864-2.208-1.152a5.499 5.499 0 00-2.208-.48h-.864c-.16.032-.336.064-.528.096s-.368.08-.528.144c-.064 0-.112.016-.144.048l-.192.096a.558.558 0 01-.144.096c-.032 0-.08.032-.144.096l-.144.144a.602.602 0 00-.144.24.558.558 0 01-.096.144.558.558 0 01-.096.144c0 .032-.016.08-.048.144 0 .032-.016.064-.048.096v.048a1.067 1.067 0 00-.144.336.906.906 0 01-.048.288c0 .032-.016.08-.048.144v.192a2.436 2.436 0 00-.096.672v.672c0 .32.016.544.048.672v.144c0 .512.08 1.04.24 1.584.16.512.368 1.024.624 1.536.288.512.592 1.008.912 1.488.352.448.688.864 1.008 1.248.16.16.24.336.24.528s-.032.384-.096.576c-.064.288-.208.608-.432.96a5.932 5.932 0 01-.816 1.008c-.288.32-.608.592-.96.816-.352.224-.688.336-1.008.336a.519.519 0 01-.384-.144c-.704-.704-1.504-1.6-2.4-2.688a50.706 50.706 0 01-2.592-3.552 52.138 52.138 0 01-2.256-3.696C1.673 8.623 1.177 7.535.89 6.575a1.373 1.373 0 010-.72c.064-.224.144-.448.24-.672zm70.79 23.28a14.18 14.18 0 01.48 5.664c-.191 1.888-.8 3.68-1.823 5.376a11.762 11.762 0 01-2.016 2.544 12.043 12.043 0 01-2.592 1.968c-.928.544-1.92.96-2.976 1.248a12.17 12.17 0 01-8.064-.576 15.537 15.537 0 01-4.176-2.688 14.273 14.273 0 01-3.12-3.888 12.802 12.802 0 01-1.488-4.656 2.485 2.485 0 01.384-1.632c.32-.512.688-.976 1.104-1.392.16-.16.368-.32.624-.48.288-.192.56-.32.816-.384h.192c.128 0 .256.032.384.096a.34.34 0 01.288.288c.288 1.696.816 3.248 1.584 4.656a12.76 12.76 0 002.88 3.6 12.72 12.72 0 004.032 2.352c1.504.544 3.12.816 4.848.816.32-.064.624-.128.912-.192.32-.032.64-.096.96-.192.032 0 .064-.016.096-.048a.426.426 0 01.192-.048c.128-.064.208-.096.24-.096.128-.064.24-.128.336-.192l.384-.192c.064 0 .128-.032.192-.096.32-.16.608-.368.864-.624.256-.224.448-.512.576-.864.032 0 .064-.08.096-.24.064-.128.096-.208.096-.24l.288-1.008v-.144c.032-.096.048-.256.048-.48 0-.384.016-.768.048-1.152a6.357 6.357 0 000-1.104.906.906 0 00-.048-.288.906.906 0 00-.048-.288v-.288c0-.288-.096-.704-.288-1.248a11.363 11.363 0 00-.624-1.632 19.248 19.248 0 00-.72-1.632c-.224-.512-.416-.88-.576-1.104a14.2 14.2 0 00-2.736-3.12 14.52 14.52 0 00-3.36-2.208 16.567 16.567 0 00-3.792-1.296 19.418 19.418 0 00-4.08-.432h-.528c-.32 0-.544.016-.672.048h-.48c-.8.064-1.6.176-2.4.336-.768.16-1.552.32-2.352.48-.064 0-.112.016-.144.048h-.096c-.256 0-.464-.144-.624-.432-.096-.192-.096-.416 0-.672l.24-.72c.288-.768.704-1.328 1.248-1.68a7.692 7.692 0 011.92-.96c.032 0 .112-.032.24-.096.064 0 .112-.016.144-.048a.368.368 0 01.144-.048c.128-.032.256-.096.384-.192.032 0 .112-.032.24-.096l.24-.144a4.34 4.34 0 01.576-.384c.064-.032.128-.112.192-.24.032 0 .08-.032.144-.096.032-.032.048-.064.048-.096l.144-.144c.064-.128.128-.24.192-.336.064-.096.128-.208.192-.336.096-.224.16-.384.192-.48.032-.128.08-.304.144-.528v-.144c.032-.064.064-.144.096-.24a5.64 5.64 0 00.096-1.008v-1.056a.534.534 0 01-.048-.24.368.368 0 01-.048-.144.426.426 0 00-.048-.192 5.649 5.649 0 01-.576-1.44 4.006 4.006 0 00-.576-1.44c-.672-1.024-1.456-1.808-2.352-2.352-.896-.576-1.952-.864-3.168-.864-.16 0-.368.032-.624.096a.368.368 0 01-.144.048c-.032 0-.064.016-.096.048l-.288.096-.192.096-.24.24-.096.096-.096.192a1.067 1.067 0 00-.144.336c-.032.096-.08.192-.144.288-.032.032-.048.08-.048.144l-.144.432-.288 1.008v.192a.534.534 0 00-.048.24.426.426 0 01-.048.192 6.855 6.855 0 00-.288 2.544l.288 2.496c.032.256-.032.528-.192.816-.16.256-.304.496-.432.72-.224.384-.608.816-1.152 1.296-.512.448-.992.688-1.44.72-.288 0-.496-.144-.624-.432a72.903 72.903 0 00-2.88-5.136 67.38 67.38 0 01-2.88-5.184c-.096-.192-.096-.416 0-.672.096-.288.192-.528.288-.72.128-.224.304-.48.528-.768.192-.288.416-.56.672-.816.256-.256.528-.48.816-.672.288-.192.576-.288.864-.288.256 0 .464.144.624.432l1.344 2.592c.448.832.912 1.68 1.392 2.544.352-.96.8-1.888 1.344-2.784a13.126 13.126 0 011.968-2.4 8.956 8.956 0 012.544-1.728 6.863 6.863 0 013.024-.672c1.056 0 2.016.256 2.88.768a7.595 7.595 0 012.256 1.92 8.958 8.958 0 011.584 2.592c.416.96.672 1.92.768 2.88a8.108 8.108 0 01-.144 2.64c-.16.832-.416 1.664-.768 2.496-.352.896-.864 1.808-1.536 2.736.256-.032.512-.048.768-.048h.768c1.984 0 3.872.256 5.664.768a16.727 16.727 0 014.992 2.208 15.593 15.593 0 013.936 3.744c1.12 1.472 1.968 3.184 2.544 5.136zm5.407.24c.16-.576.464-1.136.912-1.68s.944-.944 1.488-1.2l.288-.144a.83.83 0 01.48-.048c.16 0 .288.048.384.144a6.611 6.611 0 011.248 1.728c.352.64.736 1.28 1.152 1.92.128.16.192.336.192.528 0 .16-.032.352-.096.576-.064.288-.208.608-.432.96a4.435 4.435 0 01-.768 1.008c-.288.32-.608.592-.96.816-.352.224-.704.336-1.056.336-.16 0-.272-.048-.336-.144a13.794 13.794 0 00-1.2-1.824 25.674 25.674 0 01-1.2-1.824c-.128-.192-.192-.368-.192-.528 0-.192.032-.4.096-.624zm9.356-15.024c.064-1.344.368-2.672.912-3.984a12.612 12.612 0 012.16-3.504c.928-1.056 2-1.904 3.217-2.544 1.216-.64 2.544-.96 3.984-.96 1.12 0 2.16.208 3.119.624.992.416 1.904.96 2.736 1.632.832.672 1.584 1.44 2.256 2.304a27.9 27.9 0 011.92 2.544c.096.128.112.288.048.48 1.024 1.344 2.08 2.976 3.168 4.896a59.464 59.464 0 013.072 6.048 62.672 62.672 0 012.496 6.384c.704 2.112 1.184 4.048 1.44 5.808.096.736.176 1.488.24 2.256.064.768.048 1.52-.048 2.256-.128.96-.4 1.904-.816 2.832a8.483 8.483 0 01-1.584 2.496 7.6 7.6 0 01-2.256 1.776c-.864.48-1.808.72-2.832.72-1.472 0-3.008-.464-4.608-1.392a25.47 25.47 0 01-4.512-3.312 40.844 40.844 0 01-3.984-4.176c-1.184-1.472-2.144-2.768-2.88-3.888a56.343 56.343 0 01-3.6-6.096 39.525 39.525 0 01-2.591-6.624 36.379 36.379 0 01-.816-3.216 13.22 13.22 0 01-.24-3.36zm3.888-1.632c0 .224.017.384.049.48v.192a39.066 39.066 0 003.167 10.176 42.944 42.944 0 005.76 8.976c.736.896 1.6 1.888 2.592 2.976a33.335 33.335 0 003.264 3.12 18.366 18.366 0 003.6 2.448c1.28.672 2.56 1.008 3.84 1.008l.144-.048h.144c.096 0 .16-.016.192-.048h.096c0-.064.016-.112.048-.144v-.144c.032-.032.048-.08.048-.144.032-.128.048-.256.048-.384v-.288c0-.256.016-.528.048-.816a3.084 3.084 0 000-.768 2.225 2.225 0 01-.048-.432c0-.096-.016-.224-.048-.384v-.24.144-.096a.426.426 0 00-.048-.192v-.192c0-.288-.064-.704-.192-1.248a24.1 24.1 0 00-.384-1.68 53.38 53.38 0 00-.48-1.632c-.128-.544-.24-.944-.336-1.2a87.91 87.91 0 00-1.776-4.8 60.513 60.513 0 00-2.4-5.328 58.985 58.985 0 00-2.88-5.04c-1.024-1.6-2.096-2.96-3.216-4.08-.16-.16-.24-.336-.24-.528 0-.224.032-.432.096-.624 0-.032.016-.064.048-.096-1.024-1.248-2.16-2.208-3.407-2.88-1.216-.704-2.64-1.056-4.272-1.056.031 0 .031.016 0 .048-.032 0-.113-.016-.24-.048a.426.426 0 00-.192.048 4.995 4.995 0 00-1.297.288c-.064 0-.128.032-.192.096a1.862 1.862 0 01-.24.096l-.192.096a.752.752 0 00-.191.144l-.096.096a.558.558 0 00-.097.144l-.144.144c0 .064-.032.128-.096.192 0 .032-.032.112-.096.24l-.287 1.008v.048a1.41 1.41 0 00-.049.336c0 .096-.016.208-.047.336a3.972 3.972 0 00-.097.864c.032.256.065.528.097.816zm5.499-8.112c.064-.256.208-.56.432-.912s.48-.688.768-1.008c.288-.32.592-.592.912-.816.32-.224.624-.336.912-.336.192 0 .368.048.528.144.736.48 1.424.88 2.064 1.2.64.288 1.28.528 1.92.72.64.192 1.312.352 2.016.48s1.488.272 2.352.432c1.824.288 3.664.528 5.52.72 1.856.16 3.712.24 5.568.24h1.344c.48 0 .944-.016 1.392-.048l1.584-.096a27.786 27.786 0 011.632-.048c.32 0 .56-.016.72-.048h.432c.352 0 .784-.016 1.296-.048l1.632-.192c.544-.096 1.072-.192 1.584-.288.512-.096.928-.192 1.248-.288a.534.534 0 01.24-.048c.32 0 .528.128.624.384.064.16.08.32.048.48l-.096.384a2.61 2.61 0 01-.48 1.152c-.256.352-.56.688-.912 1.008-.064.128-.112.24-.144.336v.048l-.288.96a7.589 7.589 0 00-.24.912c0-.032.016-.064.048-.096a.368.368 0 00-.048.144c0 .032-.016.08-.048.144-.064.096-.112.368-.144.816-.032.448-.064.928-.096 1.44-.032.48-.048.944-.048 1.392v.912c0 .64.016 1.264.048 1.872l.192 1.824v.288a.534.534 0 01.048.24c0 .096.016.176.048.24.064.16.08.336.048.528 0 .16.016.32.048.48.064.352.128.72.192 1.104l.192 1.056c.032.032.048.064.048.096l3.312.432c.992.128 1.968.24 2.928.336.96.096 1.92.208 2.88.336.288.032.448.16.48.384.064.192.064.416 0 .672-.064.256-.16.512-.288.768a5.637 5.637 0 01-.288.528 7.909 7.909 0 01-.672.864c-.224.256-.464.48-.72.672-.16.128-.368.256-.624.384-.224.096-.464.128-.72.096a11.947 11.947 0 00-1.056-.144c-.352-.032-.704-.08-1.056-.144a24.907 24.907 0 00-1.536-.144c-.48-.064-.976-.128-1.488-.192a83.201 83.201 0 002.688 7.968 48.106 48.106 0 003.744 7.488c.128.16.144.384.048.672a3.492 3.492 0 01-.288.672 4.975 4.975 0 01-.528.816c-.192.288-.416.56-.672.816a3.86 3.86 0 01-.768.672 1.617 1.617 0 01-.912.288c-.256 0-.464-.144-.624-.432-1.6-3.2-3.072-6.384-4.416-9.552a51.446 51.446 0 01-3.072-10.032c-1.216-.16-2.416-.304-3.6-.432a177.504 177.504 0 01-3.552-.432c-.288-.032-.464-.144-.528-.336a1.868 1.868 0 01.048-.72l.288-.768c.128-.256.224-.432.288-.528.096-.192.24-.4.432-.624.224-.224.448-.432.672-.624.256-.192.512-.352.768-.48.288-.16.544-.24.768-.24h.096l2.112.24c.256.032.496.064.72.096l.672.096c-.096-.96-.176-1.92-.24-2.88-.032-.96-.032-1.92 0-2.88.032-1.216.144-2.416.336-3.6a18.37 18.37 0 011.008-3.504c-1.792.288-3.6.464-5.424.528-1.792.064-3.6.112-5.424.144a78.82 78.82 0 01-8.304-.432.426.426 0 00-.192-.048l1.152 1.152a9.02 9.02 0 001.152 1.056c.16.16.24.352.24.576 0 .192-.032.368-.096.528-.064.256-.208.56-.432.912s-.48.688-.768 1.008c-.288.32-.592.592-.912.816-.352.224-.688.336-1.008.336-.192 0-.336-.048-.432-.144-.352-.352-.72-.688-1.104-1.008a35.172 35.172 0 01-1.104-1.056 142.545 142.545 0 00-4.512-4.32 29.32 29.32 0 00-3.12-2.544 7.915 7.915 0 01-1.344-.864.786.786 0 01-.24-.576c0-.224.032-.416.096-.576zm51.41 24.768c.16-.576.464-1.136.912-1.68s.944-.944 1.488-1.2l.288-.144a.83.83 0 01.48-.048c.16 0 .288.048.384.144a6.611 6.611 0 011.248 1.728c.352.64.736 1.28 1.152 1.92.128.16.192.336.192.528 0 .16-.032.352-.096.576-.064.288-.208.608-.432.96a4.435 4.435 0 01-.768 1.008c-.288.32-.608.592-.96.816-.352.224-.704.336-1.056.336-.16 0-.272-.048-.336-.144a13.794 13.794 0 00-1.2-1.824 25.674 25.674 0 01-1.2-1.824c-.128-.192-.192-.368-.192-.528 0-.192.032-.4.096-.624zm.237-23.52a2.81 2.81 0 01.48-.72c.192-.288.416-.56.672-.816.224-.256.48-.48.768-.672.256-.192.512-.304.768-.336h.192c.352 0 .576.128.672.384.288.896.64 1.76 1.056 2.592.416.8.864 1.584 1.344 2.352a8.959 8.959 0 011.344-2.64 10.488 10.488 0 012.016-2.256 10.144 10.144 0 012.544-1.632 7.3 7.3 0 012.928-.624c1.568 0 3.056.4 4.464 1.2a15.54 15.54 0 013.888 3.072 19.7 19.7 0 012.928 4.128c.832 1.472 1.44 2.896 1.824 4.272.64 2.368.8 4.752.48 7.152a20.738 20.738 0 01-2.064 6.816 22.473 22.473 0 01-2.64 4.176 35.007 35.007 0 01-3.264 3.648 65.393 65.393 0 014.368-.72 33.988 33.988 0 014.416-.192c2.72 0 5.424.288 8.112.864a77.181 77.181 0 01-1.344-1.68 121.43 121.43 0 01-1.296-1.728 1.216 1.216 0 01-.24-.72c.032-.256.096-.496.192-.72a5.36 5.36 0 01.432-.72 6.72 6.72 0 01.432-.624c.256-.352.576-.672.96-.96.416-.32.848-.48 1.296-.48.16 0 .288.048.384.144a26.847 26.847 0 012.496 2.88 71.144 71.144 0 012.304 3.12 193.43 193.43 0 012.256 3.168 54.874 54.874 0 002.304 3.072c.16.192.24.416.24.672 0 .256-.064.512-.192.768a3.116 3.116 0 01-.384.72c-.16.256-.32.464-.48.624-.224.256-.56.544-1.008.864-.416.352-.816.528-1.2.528a.519.519 0 01-.384-.144c-.896-.896-2.048-1.68-3.456-2.352a28.555 28.555 0 00-4.464-1.68 40.309 40.309 0 00-4.752-.96c-1.6-.192-3.056-.288-4.368-.288h-1.584c-.512 0-1.024.016-1.536.048h-.144a1.249 1.249 0 01-.384.048 1.578 1.578 0 01-.384.048 1.41 1.41 0 00-.336.048 3.156 3.156 0 01-.768.096c-.256 0-.512.016-.768.048-.992.096-1.968.24-2.928.432-.96.224-1.904.48-2.832.768a4.75 4.75 0 00-.72.24 1.536 1.536 0 01-.672.24c-.064 0-.192.032-.384.096a.326.326 0 01-.24.096c-.096.032-.192.08-.288.144-.128.064-.336.16-.624.288-.288.16-.592.304-.912.432-.32.16-.624.288-.912.384-.288.128-.496.192-.624.192a.926.926 0 01-.48-.144.64.64 0 01-.24-.528c0-.224.032-.416.096-.576.256-.864.768-1.616 1.536-2.256a11.36 11.36 0 012.304-1.44 3.6 3.6 0 00.672-.384l.096-.048c.032-.032.064-.048.096-.048s.064-.016.096-.048c.608-.384 1.2-.784 1.776-1.2a24.309 24.309 0 001.728-1.296l.24-.24c.16-.096.256-.144.288-.144.32-.288.656-.544 1.008-.768a3.11 3.11 0 00.864-.96.752.752 0 01.144-.192l.192-.192c.096-.128.192-.24.288-.336.096-.128.208-.256.336-.384l.336-.336c.096-.128.192-.272.288-.432.064-.128.128-.224.192-.288.192-.192.352-.416.48-.672.16-.288.32-.56.48-.816.032-.128.096-.256.192-.384.064-.096.112-.208.144-.336.064-.16.128-.304.192-.432s.112-.24.144-.336l.192-.384a.426.426 0 00.048-.192l.096-.192c.128-.352.24-.72.336-1.104.096-.416.192-.8.288-1.152 0-.192.016-.288.048-.288v-.192c.064-.256.096-.496.096-.72 0-.256.016-.512.048-.768s.048-.512.048-.768a3.084 3.084 0 000-.768v-.336c0-.128-.016-.272-.048-.432l-.048-.336v-.048a24.466 24.466 0 00-.576-2.688 16.929 16.929 0 00-.816-2.352 12.518 12.518 0 00-1.104-2.16 35.16 35.16 0 00-1.536-2.208 14.369 14.369 0 00-1.536-1.68 14.203 14.203 0 00-2.016-1.584c-.704-.48-1.44-.864-2.208-1.152a5.499 5.499 0 00-2.208-.48h-.864c-.16.032-.336.064-.528.096s-.368.08-.528.144c-.064 0-.112.016-.144.048l-.192.096a.558.558 0 01-.144.096c-.032 0-.08.032-.144.096l-.144.144a.602.602 0 00-.144.24.558.558 0 01-.096.144.558.558 0 01-.096.144c0 .032-.016.08-.048.144 0 .032-.016.064-.048.096v.048a1.067 1.067 0 00-.144.336.906.906 0 01-.048.288c0 .032-.016.08-.048.144v.192a2.436 2.436 0 00-.096.672v.672c0 .32.016.544.048.672v.144c0 .512.08 1.04.24 1.584.16.512.368 1.024.624 1.536.288.512.592 1.008.912 1.488.352.448.688.864 1.008 1.248.16.16.24.336.24.528s-.032.384-.096.576c-.064.288-.208.608-.432.96a5.932 5.932 0 01-.816 1.008c-.288.32-.608.592-.96.816-.352.224-.688.336-1.008.336a.519.519 0 01-.384-.144c-.704-.704-1.504-1.6-2.4-2.688a50.706 50.706 0 01-2.592-3.552 52.138 52.138 0 01-2.256-3.696c-.704-1.216-1.2-2.304-1.488-3.264a1.373 1.373 0 010-.72c.064-.224.144-.448.24-.672zm35.285 8.496c.064-1.344.368-2.672.912-3.984a12.612 12.612 0 012.16-3.504c.928-1.056 2-1.904 3.216-2.544 1.216-.64 2.544-.96 3.984-.96 1.12 0 2.16.208 3.12.624.992.416 1.904.96 2.736 1.632.832.672 1.584 1.44 2.256 2.304a27.9 27.9 0 011.92 2.544c.096.128.112.288.048.48 1.024 1.344 2.08 2.976 3.168 4.896a59.464 59.464 0 013.072 6.048 62.672 62.672 0 012.496 6.384c.704 2.112 1.184 4.048 1.44 5.808.096.736.176 1.488.24 2.256.064.768.048 1.52-.048 2.256-.128.96-.4 1.904-.816 2.832a8.483 8.483 0 01-1.584 2.496 7.6 7.6 0 01-2.256 1.776c-.864.48-1.808.72-2.832.72-1.472 0-3.008-.464-4.608-1.392a25.47 25.47 0 01-4.512-3.312 40.795 40.795 0 01-3.984-4.176c-1.184-1.472-2.144-2.768-2.88-3.888a56.343 56.343 0 01-3.6-6.096 39.525 39.525 0 01-2.592-6.624 36.379 36.379 0 01-.816-3.216 13.22 13.22 0 01-.24-3.36zm3.888-1.632c0 .224.016.384.048.48v.192a39.066 39.066 0 003.168 10.176 42.944 42.944 0 005.76 8.976c.736.896 1.6 1.888 2.592 2.976a33.335 33.335 0 003.264 3.12 18.366 18.366 0 003.6 2.448c1.28.672 2.56 1.008 3.84 1.008l.144-.048h.144c.096 0 .16-.016.192-.048h.096c0-.064.016-.112.048-.144v-.144c.032-.032.048-.08.048-.144.032-.128.048-.256.048-.384v-.288c0-.256.016-.528.048-.816a3.084 3.084 0 000-.768 2.225 2.225 0 01-.048-.432c0-.096-.016-.224-.048-.384v-.24.144-.096a.426.426 0 00-.048-.192v-.192c0-.288-.064-.704-.192-1.248a24.1 24.1 0 00-.384-1.68 53.38 53.38 0 00-.48-1.632c-.128-.544-.24-.944-.336-1.2a87.91 87.91 0 00-1.776-4.8 60.513 60.513 0 00-2.4-5.328 58.985 58.985 0 00-2.88-5.04c-1.024-1.6-2.096-2.96-3.216-4.08-.16-.16-.24-.336-.24-.528 0-.224.032-.432.096-.624 0-.032.016-.064.048-.096-1.024-1.248-2.16-2.208-3.408-2.88-1.216-.704-2.64-1.056-4.272-1.056.032 0 .032.016 0 .048-.032 0-.112-.016-.24-.048a.426.426 0 00-.192.048 4.995 4.995 0 00-1.296.288c-.064 0-.128.032-.192.096a1.862 1.862 0 01-.24.096l-.192.096a.752.752 0 00-.192.144l-.096.096a.558.558 0 00-.096.144l-.144.144c0 .064-.032.128-.096.192 0 .032-.032.112-.096.24l-.288 1.008v.048a1.41 1.41 0 00-.048.336c0 .096-.016.208-.048.336a3.972 3.972 0 00-.096.864c.032.256.064.528.096.816zm17.798-6.864a2.81 2.81 0 01.48-.72c.192-.288.416-.56.672-.816.224-.256.48-.48.768-.672.256-.192.512-.304.768-.336h.192c.352 0 .576.128.672.384.288.896.64 1.76 1.056 2.592.416.8.864 1.584 1.344 2.352a8.959 8.959 0 011.344-2.64A10.488 10.488 0 01214 3.07a10.144 10.144 0 012.544-1.632 7.3 7.3 0 012.928-.624c1.568 0 3.056.4 4.464 1.2a15.54 15.54 0 013.888 3.072 19.7 19.7 0 012.928 4.128c.832 1.472 1.44 2.896 1.824 4.272.64 2.368.8 4.752.48 7.152a20.738 20.738 0 01-2.064 6.816 22.473 22.473 0 01-2.64 4.176 35.007 35.007 0 01-3.264 3.648 65.393 65.393 0 014.368-.72 33.988 33.988 0 014.416-.192c2.72 0 5.424.288 8.112.864a77.181 77.181 0 01-1.344-1.68 121.43 121.43 0 01-1.296-1.728 1.216 1.216 0 01-.24-.72c.032-.256.096-.496.192-.72a5.36 5.36 0 01.432-.72 6.72 6.72 0 01.432-.624c.256-.352.576-.672.96-.96.416-.32.848-.48 1.296-.48.16 0 .288.048.384.144a26.847 26.847 0 012.496 2.88 71.144 71.144 0 012.304 3.12 193.43 193.43 0 012.256 3.168 54.874 54.874 0 002.304 3.072c.16.192.24.416.24.672 0 .256-.064.512-.192.768a3.116 3.116 0 01-.384.72c-.16.256-.32.464-.48.624-.224.256-.56.544-1.008.864-.416.352-.816.528-1.2.528a.519.519 0 01-.384-.144c-.896-.896-2.048-1.68-3.456-2.352a28.555 28.555 0 00-4.464-1.68 40.309 40.309 0 00-4.752-.96c-1.6-.192-3.056-.288-4.368-.288h-1.584c-.512 0-1.024.016-1.536.048h-.144a1.249 1.249 0 01-.384.048 1.578 1.578 0 01-.384.048 1.41 1.41 0 00-.336.048 3.156 3.156 0 01-.768.096c-.256 0-.512.016-.768.048-.992.096-1.968.24-2.928.432-.96.224-1.904.48-2.832.768a4.75 4.75 0 00-.72.24 1.536 1.536 0 01-.672.24c-.064 0-.192.032-.384.096a.326.326 0 01-.24.096c-.096.032-.192.08-.288.144-.128.064-.336.16-.624.288-.288.16-.592.304-.912.432-.32.16-.624.288-.912.384-.288.128-.496.192-.624.192a.926.926 0 01-.48-.144.64.64 0 01-.24-.528c0-.224.032-.416.096-.576.256-.864.768-1.616 1.536-2.256a11.36 11.36 0 012.304-1.44 3.6 3.6 0 00.672-.384l.096-.048c.032-.032.064-.048.096-.048s.064-.016.096-.048c.608-.384 1.2-.784 1.776-1.2a24.309 24.309 0 001.728-1.296l.24-.24c.16-.096.256-.144.288-.144.32-.288.656-.544 1.008-.768a3.11 3.11 0 00.864-.96.752.752 0 01.144-.192l.192-.192c.096-.128.192-.24.288-.336.096-.128.208-.256.336-.384l.336-.336c.096-.128.192-.272.288-.432.064-.128.128-.224.192-.288.192-.192.352-.416.48-.672.16-.288.32-.56.48-.816.032-.128.096-.256.192-.384.064-.096.112-.208.144-.336.064-.16.128-.304.192-.432s.112-.24.144-.336l.192-.384a.426.426 0 00.048-.192l.096-.192c.128-.352.24-.72.336-1.104.096-.416.192-.8.288-1.152 0-.192.016-.288.048-.288v-.192c.064-.256.096-.496.096-.72 0-.256.016-.512.048-.768s.048-.512.048-.768a3.084 3.084 0 000-.768v-.336c0-.128-.016-.272-.048-.432l-.048-.336v-.048a24.466 24.466 0 00-.576-2.688 16.929 16.929 0 00-.816-2.352 12.518 12.518 0 00-1.104-2.16 35.16 35.16 0 00-1.536-2.208 14.369 14.369 0 00-1.536-1.68 14.203 14.203 0 00-2.016-1.584c-.704-.48-1.44-.864-2.208-1.152a5.499 5.499 0 00-2.208-.48h-.864c-.16.032-.336.064-.528.096s-.368.08-.528.144c-.064 0-.112.016-.144.048l-.192.096a.558.558 0 01-.144.096c-.032 0-.08.032-.144.096l-.144.144a.602.602 0 00-.144.24.558.558 0 01-.096.144.558.558 0 01-.096.144c0 .032-.016.08-.048.144 0 .032-.016.064-.048.096v.048a1.067 1.067 0 00-.144.336.906.906 0 01-.048.288c0 .032-.016.08-.048.144v.192a2.436 2.436 0 00-.096.672v.672c0 .32.016.544.048.672v.144c0 .512.08 1.04.24 1.584.16.512.368 1.024.624 1.536.288.512.592 1.008.912 1.488.352.448.688.864 1.008 1.248.16.16.24.336.24.528s-.032.384-.096.576c-.064.288-.208.608-.432.96a5.932 5.932 0 01-.816 1.008c-.288.32-.608.592-.96.816-.352.224-.688.336-1.008.336a.519.519 0 01-.384-.144c-.704-.704-1.504-1.6-2.4-2.688a50.706 50.706 0 01-2.592-3.552 52.138 52.138 0 01-2.256-3.696c-.704-1.216-1.2-2.304-1.488-3.264a1.373 1.373 0 010-.72c.064-.224.144-.448.24-.672zm34.036 10.512c.352-.448.672-.816.96-1.104.256-.32.48-.608.672-.864.16-.288.288-.592.384-.912.096-.352.16-.8.192-1.344l.096-1.584c.032-.512.032-1.04 0-1.584-.032-.448-.048-.88-.048-1.296 0-.416-.032-.848-.096-1.296l-.048-.48v-.144c-.032-.032-.048-.08-.048-.144a2.485 2.485 0 01.384-1.632 6.053 6.053 0 011.104-1.392c.16-.16.384-.32.672-.48.256-.192.512-.32.768-.384h.192c.352 0 .576.128.672.384a299.764 299.764 0 011.584 4.992 74.457 74.457 0 001.728 4.896 145.363 145.363 0 006.72 14.688 385.158 385.158 0 007.92 14.112c.032.032.048.08.048.144.256.064.432.096.528.096 1.344 0 2.656.24 3.936.72 1.312.512 2.608.912 3.888 1.2.288.064.448.192.48.384a1.2 1.2 0 010 .672 1.916 1.916 0 01-.24.72 2.383 2.383 0 01-.288.576c-.16.256-.384.512-.672.768a5.276 5.276 0 01-.768.72 5.25 5.25 0 01-.528.336c-.224.128-.432.176-.624.144h-.144a3.972 3.972 0 01-1.488-.288 9.913 9.913 0 00-1.392-.384 98.293 98.293 0 01-6.24-1.44 285.73 285.73 0 00-6.144-1.584l-3.936-.96c-1.28-.288-2.576-.592-3.888-.912-.256-.064-.416-.208-.48-.432-.064-.192-.064-.416 0-.672.064-.224.144-.464.24-.72.128-.224.24-.4.336-.528.16-.288.368-.56.624-.816a7.21 7.21 0 01.768-.672 5.25 5.25 0 01.528-.336c.224-.128.448-.176.672-.144h.144c.48 0 .944.08 1.392.24.48.16.96.304 1.44.432a59.1 59.1 0 002.544.624 59.1 59.1 0 012.544.624l-1.008-1.824a299.84 299.84 0 01-6.048-11.376 122.046 122.046 0 01-5.184-11.808 13.18 13.18 0 01-1.728 2.448c-.704.768-1.552 1.232-2.544 1.392h-.192c-.32 0-.544-.128-.672-.384-.096-.192-.112-.432-.048-.72s.176-.512.336-.672z" fill="#1C1C1C" fill-opacity=".5"/></svg>