<svg width="94" height="70" fill="none" xmlns="http://www.w3.org/2000/svg"><path d="M67.5 53.833c1.888-1.888 5.52-2.622 7.833-3.592 5.26-2.205 10.73-4.469 15.278-8 5.708-4.432-2.897-3.747-5.981-3.556-14.157.877-27.418 1.147-41.019 5.667-10.87 3.612-21.975 8.158-31.778 14.167-.713.437-15.227 9.034-9.333 9.907 2.757.408 6.398-.774 9.056-1.315 4.879-.992 9.822-2.423 14.388-4.426 2.82-1.236 5.57-2.439 8.556-3.185" stroke="#EE1E80" stroke-linecap="round"/><path d="M56.833 40.833c0-2.322-.508-4.386-1.074-6.666-1.742-7.02-3.36-14.151-5.592-21.037-1.163-3.588-2.208-7.147-3.019-10.797-1.102-4.961-33.812 11.14-38.833 13.093-4.845 1.884-2.213 5.026.074 9.26 3.37 6.239 7.237 11.973 9.907 18.592.6 1.484 1.87 3.914 1.87 5.555M54.833 31.5c-.387 2.52-2.641 4.962-4 7m1.334-15c-4.84 6.159-8.272 13.803-12.667 20.333" stroke="#EE1E80" stroke-linecap="round"/><path d="M46.833 13.167c-.147-1.182-1.697 1.697-2.333 2.703-5.416 8.576-10.03 17.623-14.667 26.63m8.334-36.667c-5.996 11.123-12.398 22.03-18.667 33m5.667-29.666c-.816.163-1.476 1.546-1.815 2.074-4.18 6.497-7.934 13.271-11.852 19.926" stroke="#EE1E80" stroke-linecap="round"/></svg>