<svg width="316" height="297" viewBox="0 0 316 297" fill="none" xmlns="http://www.w3.org/2000/svg">
<g clip-path="url(#clip0_125_6159)">
<path d="M251.674 67.4489C250.043 85.4441 245.396 104.419 238.108 122.727C229.096 145.368 216.783 165.31 202.499 180.397L201.707 179.705C215.921 164.691 228.178 144.837 237.153 122.29C245.264 101.914 250.088 80.7107 251.111 60.9805L252.124 61.1503C252.016 63.234 251.866 65.3336 251.674 67.4489Z" fill="#E2E8F0"/>
<path d="M258.17 171.962C238.109 203.92 213.769 226.754 189.636 236.257L189.147 235.361C213.114 225.923 237.311 203.206 257.281 171.394L258.17 171.962Z" fill="#E2E8F0"/>
<path d="M251.187 89.8537C249.556 107.849 244.909 126.824 237.621 145.132C228.608 167.773 216.295 187.715 202.012 202.802L201.219 202.11C215.433 187.095 227.691 167.241 236.666 144.694C244.777 124.319 249.601 103.115 250.623 83.3853L251.636 83.5551C251.529 85.6388 251.379 87.7384 251.187 89.8537Z" fill="#E2E8F0"/>
<path d="M25.9678 136.053H12.8048C12.5236 136.054 12.2459 135.99 11.9925 135.868C11.7392 135.746 11.5167 135.568 11.3419 135.347C11.1692 135.132 11.0473 134.881 10.9855 134.612C10.9236 134.343 10.9234 134.064 10.9848 133.795C12.2384 128.256 12.1597 122.499 10.755 116.996C10.6662 116.634 10.6877 116.253 10.8167 115.903C10.9457 115.554 11.1764 115.25 11.4791 115.033C18.2475 110.159 23.5779 110.3 27.3222 115.454C27.491 115.689 27.6031 115.96 27.6498 116.245C28.6503 122.267 28.7056 128.409 27.8139 134.448C27.7519 134.894 27.5308 135.302 27.1913 135.597C26.8519 135.892 26.4173 136.054 25.9678 136.053Z" fill="#EDF2F7"/>
<path d="M21.8867 122.854H17.3587C17.1083 122.854 16.8681 122.755 16.6911 122.577C16.514 122.4 16.4146 122.16 16.4146 121.909C16.4146 121.658 16.514 121.418 16.6911 121.241C16.8681 121.063 17.1083 120.964 17.3587 120.964H21.8867C22.1368 120.964 22.3764 121.064 22.553 121.241C22.7297 121.418 22.8289 121.659 22.8289 121.909C22.8289 122.159 22.7297 122.4 22.553 122.577C22.3764 122.754 22.1368 122.854 21.8867 122.854Z" fill="white"/>
<path d="M21.8867 126.17H17.3587C17.1083 126.17 16.8681 126.07 16.6911 125.893C16.514 125.715 16.4146 125.475 16.4146 125.224C16.4146 124.974 16.514 124.733 16.6911 124.556C16.8681 124.379 17.1083 124.279 17.3587 124.279H21.8867C22.1368 124.28 22.3764 124.379 22.553 124.557C22.7297 124.734 22.8289 124.974 22.8289 125.224C22.8289 125.475 22.7297 125.715 22.553 125.892C22.3764 126.069 22.1368 126.169 21.8867 126.17Z" fill="white"/>
<path d="M21.8867 129.485H17.3587C17.1083 129.485 16.8681 129.385 16.6911 129.208C16.514 129.031 16.4146 128.79 16.4146 128.54C16.4146 128.289 16.514 128.048 16.6911 127.871C16.8681 127.694 17.1083 127.594 17.3587 127.594H21.8867C22.1368 127.595 22.3764 127.695 22.553 127.872C22.7297 128.049 22.8289 128.289 22.8289 128.54C22.8289 128.79 22.7297 129.03 22.553 129.207C22.3764 129.385 22.1368 129.484 21.8867 129.485Z" fill="white"/>
<path d="M265.191 194.9H252.028C251.747 194.9 251.47 194.837 251.216 194.715C250.963 194.593 250.74 194.415 250.566 194.194C250.393 193.979 250.271 193.728 250.209 193.459C250.147 193.19 250.147 192.911 250.208 192.642C251.462 187.103 251.383 181.345 249.979 175.843C249.89 175.481 249.911 175.1 250.04 174.75C250.169 174.4 250.4 174.097 250.703 173.88C257.471 169.005 262.802 169.147 266.546 174.301C266.715 174.536 266.827 174.806 266.873 175.092C267.874 181.114 267.929 187.256 267.038 193.295C266.976 193.741 266.754 194.149 266.415 194.444C266.076 194.739 265.641 194.901 265.191 194.9Z" fill="#EDF2F7"/>
<path d="M261.111 181.701H256.583C256.333 181.701 256.093 181.601 255.916 181.424C255.74 181.246 255.641 181.006 255.641 180.756C255.641 180.505 255.74 180.265 255.916 180.088C256.093 179.911 256.333 179.811 256.583 179.81H261.111C261.361 179.81 261.601 179.91 261.778 180.087C261.955 180.265 262.055 180.505 262.055 180.756C262.055 181.007 261.955 181.247 261.778 181.424C261.601 181.602 261.361 181.701 261.111 181.701Z" fill="white"/>
<path d="M261.111 185.016H256.583C256.333 185.016 256.093 184.916 255.916 184.739C255.74 184.562 255.641 184.321 255.641 184.071C255.641 183.821 255.74 183.581 255.916 183.403C256.093 183.226 256.333 183.126 256.583 183.126H261.111C261.361 183.126 261.601 183.225 261.778 183.403C261.955 183.58 262.055 183.82 262.055 184.071C262.055 184.322 261.955 184.562 261.778 184.74C261.601 184.917 261.361 185.016 261.111 185.016Z" fill="white"/>
<path d="M261.111 188.332H256.583C256.333 188.331 256.093 188.231 255.916 188.054C255.74 187.877 255.641 187.637 255.641 187.386C255.641 187.136 255.74 186.896 255.916 186.719C256.093 186.541 256.333 186.442 256.583 186.441H261.111C261.361 186.441 261.601 186.541 261.778 186.718C261.955 186.895 262.055 187.136 262.055 187.386C262.055 187.637 261.955 187.878 261.778 188.055C261.601 188.232 261.361 188.332 261.111 188.332Z" fill="white"/>
<path d="M315 275.507C315 275.572 314.988 275.636 314.963 275.696C314.938 275.756 314.902 275.81 314.856 275.856C314.81 275.902 314.756 275.938 314.696 275.963C314.636 275.988 314.572 276 314.507 276H1.49252C1.3619 276 1.23663 275.948 1.14426 275.856C1.0519 275.763 1 275.638 1 275.507C1 275.376 1.0519 275.251 1.14426 275.158C1.23663 275.066 1.3619 275.014 1.49252 275.014H314.507C314.572 275.013 314.636 275.026 314.696 275.051C314.756 275.076 314.81 275.112 314.856 275.158C314.902 275.204 314.938 275.258 314.963 275.318C314.988 275.378 315 275.442 315 275.507Z" fill="#E2E8F0"/>
<path d="M83.5708 245.313L82.7499 233.879C77.3721 231.188 71.4194 229.851 65.4087 229.986C73.865 236.53 73.1877 249.611 79.0441 258.564C80.892 261.342 83.3406 263.668 86.2084 265.369C89.0763 267.071 92.2898 268.105 95.6108 268.394L102.649 272.448C103.454 267.12 103.096 261.681 101.599 256.505C100.103 251.33 97.5032 246.54 93.9801 242.467C91.981 240.202 89.7049 238.197 87.2057 236.501C85.6674 240.924 83.5708 245.313 83.5708 245.313Z" fill="#E2E8F0"/>
<path d="M232.429 246.97L233.25 235.537C238.628 232.845 244.581 231.509 250.591 231.643C242.135 238.188 242.812 251.269 236.956 260.221C235.108 262.999 232.659 265.325 229.792 267.027C226.924 268.729 223.71 269.763 220.389 270.052L213.352 274.106C212.547 268.778 212.905 263.339 214.401 258.163C215.898 252.987 218.497 248.198 222.02 244.125C224.019 241.859 226.295 239.855 228.794 238.159C230.333 242.581 232.429 246.97 232.429 246.97Z" fill="#E2E8F0"/>
<path d="M154.275 117.949C158.618 117.949 162.139 114.424 162.139 110.075C162.139 105.727 158.618 102.201 154.275 102.201C149.932 102.201 146.411 105.727 146.411 110.075C146.411 114.424 149.932 117.949 154.275 117.949Z" fill="#0BC5EA"/>
<path d="M158.312 106.794C158.193 106.681 158.036 106.618 157.873 106.618C157.709 106.618 157.552 106.681 157.434 106.794C155.765 108.126 154.266 109.659 152.971 111.357C152.653 110.741 152.335 110.125 152.018 109.509C151.651 108.798 150.579 109.427 150.945 110.137C151.41 111.038 151.876 111.939 152.341 112.84C152.397 112.932 152.475 113.008 152.569 113.061C152.663 113.113 152.769 113.141 152.877 113.141C152.984 113.141 153.09 113.113 153.184 113.061C153.278 113.008 153.357 112.932 153.413 112.84C154.793 110.894 156.442 109.154 158.312 107.673C158.427 107.556 158.492 107.398 158.492 107.233C158.492 107.069 158.427 106.911 158.312 106.794Z" fill="white"/>
<path d="M119.089 132.403L107.23 113.756L120.962 106.392L124.566 120.619L149.96 134.359C150.963 133.998 152.049 133.936 153.085 134.182C154.122 134.428 155.065 134.971 155.799 135.744C156.533 136.518 157.027 137.488 157.219 138.537C157.412 139.586 157.296 140.669 156.885 141.653C156.474 142.638 155.785 143.481 154.904 144.08C154.022 144.679 152.986 145.009 151.92 145.029C150.855 145.048 149.807 144.757 148.904 144.191C148.001 143.624 147.282 142.807 146.835 141.838L119.089 132.403Z" fill="#FFDCDC"/>
<path d="M98.5668 91.3907C94.8408 96.8683 108.082 116.779 108.082 116.779C108.727 115.387 114.893 131.021 115.926 130.097C118.861 127.472 123.456 120.161 126.01 119.835C127.471 119.649 122.623 109.276 122.623 109.276C122.623 109.276 120.407 103.152 117.4 95.3277C116.591 93.1 115.232 91.1135 113.45 89.5531C111.668 87.9926 109.521 86.909 107.208 86.4031C107.208 86.4031 102.293 85.9131 98.5668 91.3907Z" fill="#4A5568"/>
<path d="M98.7488 269.852L104.38 269.852L107.06 248.101L98.7476 248.101L98.7488 269.852Z" fill="#FFDCDC"/>
<path d="M97.312 268.011L98.8972 268.011L105.086 265.491L108.403 268.01H108.403C110.278 268.011 112.076 268.756 113.401 270.083C114.727 271.411 115.471 273.211 115.472 275.087V275.317L97.3123 275.318L97.312 268.011Z" fill="#2D3748"/>
<path d="M124.912 269.852L130.544 269.852L133.224 248.101L124.912 248.101L124.912 269.852Z" fill="#FFDCDC"/>
<path d="M123.476 268.011L125.061 268.011L131.25 265.491L134.567 268.01H134.568C136.442 268.011 138.24 268.756 139.565 270.083C140.891 271.411 141.635 273.211 141.636 275.087V275.317L123.476 275.318L123.476 268.011Z" fill="#2D3748"/>
<path d="M127.35 150.94L90.7188 151.857C83.7617 155.641 83.6561 163.83 85.9356 173.553C85.9356 173.553 85.166 179.332 86.7051 180.873C88.2442 182.414 89.0137 182.414 88.2442 185.111C87.4747 187.808 91.5405 192.212 91.0466 192.707C90.5528 193.201 89.3985 195.898 89.3985 195.898L93.2462 217.858C93.2462 217.858 95.9396 255.999 96.7091 256.77C97.4786 257.54 98.2482 256.77 97.4786 258.696C96.7091 260.622 95.9396 259.852 96.7091 260.622C97.3907 261.358 98.0329 262.13 98.6329 262.934H107.936C107.936 262.934 108.637 259.081 108.637 258.696C108.637 258.311 109.406 255.999 109.406 255.614C109.406 255.229 108.726 254.547 108.726 254.547C108.491 253.764 108.332 252.96 108.252 252.146C108.252 251.376 105.944 221.711 105.944 221.711L110.561 183.184L121.719 220.94C121.719 220.94 121.719 254.073 122.489 254.843C123.258 255.614 123.258 255.229 122.873 256.77C122.489 258.311 120.949 257.925 122.104 259.081C123.258 260.237 123.643 258.311 123.258 260.237L122.873 262.163L134.416 262.329C134.416 262.329 135.955 259.081 135.186 257.925C134.416 256.77 134.463 257.085 135.401 255.194C136.34 253.302 136.725 252.917 136.34 252.532C135.955 252.146 135.955 250.097 135.955 250.097L134.032 213.235C134.032 213.235 133.647 174.323 133.647 173.168C133.618 172.573 133.727 171.98 133.966 171.434V169.866L132.493 164.307L127.35 150.94Z" fill="#2D3748"/>
<path d="M105.346 74.6728C111.631 74.6728 116.727 69.5706 116.727 63.2766C116.727 56.9826 111.631 51.8803 105.346 51.8803C99.0596 51.8803 93.9639 56.9826 93.9639 63.2766C93.9639 69.5706 99.0596 74.6728 105.346 74.6728Z" fill="#FFDCDC"/>
<path d="M111.036 82.205C113.488 83.6646 114.955 86.3464 115.797 89.0754C117.356 94.1279 118.294 99.3516 118.591 104.631L119.48 120.438L130.495 154.094C120.949 162.181 85.0675 155.932 85.0675 155.932C85.0675 155.932 83.9661 155.564 85.0675 154.461C86.1689 153.359 87.2412 154.336 86.1398 153.233C85.0384 152.13 85.7976 153.359 86.1648 152.256C86.5319 151.153 86.1648 151.888 85.7976 151.52C85.4305 151.153 88.6399 147.844 88.6399 147.844L85.7027 128.525L82.0312 89.5574C86.4371 84.0431 95.2977 80.7924 95.2977 80.7924L97.5872 76.6661L109.035 77.583L111.036 82.205Z" fill="#4A5568"/>
<path d="M114.728 57.2219C115.612 57.8826 116.267 58.8044 116.601 59.8575C116.73 58.1364 116.738 56.4084 116.626 54.6862C116.492 53.4759 115.641 53.2037 114.655 52.8883C113.765 52.6033 112.759 52.2814 112.488 51.1065C108.911 47.6216 102.683 47.7973 98.4202 49.0129C96.0748 49.6818 94.7253 50.5413 94.6046 51.0447L94.5795 51.1484L94.4843 51.1961C92.6764 52.1012 92.3245 54.9593 92.3477 57.1975C92.3918 61.4146 93.8459 66.204 94.6651 66.5931C94.7085 66.6137 94.7195 66.6056 94.7383 66.59C95.9718 65.6029 97.4767 66.665 98.138 67.2423C98.5281 64.6214 99.7841 62.2069 101.705 60.3845C103.627 58.5622 106.102 57.437 108.737 57.1888C109.598 57.1056 110.451 56.9622 111.292 56.7599C111.718 56.6495 112.157 56.5919 112.597 56.5884C113.355 56.5769 114.099 56.798 114.728 57.2219Z" fill="#2D3748"/>
<path d="M185.383 160.021L207.277 137.76L213.046 119.955L203.763 116.195C199.165 120.84 194.431 135.058 194.431 135.058L179.488 155.139C179.368 155.184 179.25 155.231 179.132 155.286C178.444 155.611 177.852 156.109 177.412 156.731C176.972 157.352 176.7 158.077 176.621 158.835C176.543 159.592 176.661 160.357 176.964 161.056C177.267 161.755 177.745 162.363 178.352 162.823C178.959 163.283 179.674 163.578 180.428 163.68C181.182 163.782 181.949 163.688 182.656 163.406C183.363 163.124 183.986 162.665 184.463 162.072C184.941 161.479 185.258 160.773 185.383 160.021Z" fill="#FFB8B8"/>
<path d="M201.231 118.232L212.97 121.632L213.014 121.624C217.329 120.785 220.742 113.605 222.845 107.729C223.537 105.791 223.469 103.662 222.653 101.773C221.838 99.8841 220.336 98.3754 218.452 97.5523C217.058 96.9544 215.525 96.7589 214.026 96.9878C212.527 97.2166 211.122 97.8608 209.97 98.8474L204.117 103.894L201.231 118.232Z" fill="#0BC5EA"/>
<path d="M191.188 269.191L184.874 269.19L181.871 244.808L191.188 244.809L191.188 269.191Z" fill="#FFB8B8"/>
<path d="M192.798 267.127L191.021 267.127L184.084 264.302L180.365 267.126H180.365C178.263 267.126 176.248 267.962 174.762 269.45C173.276 270.938 172.442 272.956 172.441 275.06V275.317L192.798 275.318L192.798 267.127Z" fill="#2D3748"/>
<path d="M219.2 269.191L212.887 269.19L209.884 244.808L219.202 244.809L219.2 269.191Z" fill="#FFB8B8"/>
<path d="M220.811 267.127L219.034 267.127L212.096 264.302L208.378 267.126H208.377C206.276 267.126 204.261 267.962 202.775 269.45C201.289 270.938 200.454 272.956 200.454 275.06V275.317L220.81 275.318L220.811 267.127Z" fill="#2D3748"/>
<path d="M228.827 164.167C228.827 164.167 229.564 173.025 227.721 181.513C225.878 190.002 225.878 213.908 225.878 213.908L221.823 260.493L209.66 259.386L206.343 181.514L194.548 207.717L195.654 211.408L194.181 212.33C194.181 212.33 195.285 219.527 194.548 219.527C193.811 219.527 191.968 220.634 191.968 220.634L193.442 258.648L180.91 258.279L176.487 204.765L181.278 174.132L181.647 168.227L183.306 168.295L184.15 165.828L185.702 161.584L228.827 164.167Z" fill="#2D3748"/>
<path d="M229.464 166.028L229.53 165.936C233.038 161.017 227.761 149.199 226.965 147.486L230.317 146.397L229.563 139.972L229.205 137.108L231.767 134.543L231.774 134.479L233.249 121.562L235.392 112.982C236.2 109.739 236.131 106.338 235.193 103.131C234.254 99.9227 232.48 97.0226 230.053 94.728L225.098 90.05L219.076 81.1281H209.365L206.035 87.4256C202.807 88.1727 199.943 90.0301 197.941 92.6742C195.94 95.3183 194.929 98.5815 195.083 101.896L195.838 118.412L192.884 138.977L192.882 142.698L189.557 146.398L190.283 150.032L187.753 151.118L186.636 156.338C186.173 156.949 183.122 161.024 183.122 162.138C183.122 162.305 183.245 162.467 183.509 162.646C185.589 164.056 197.085 166.931 202.172 164.892C207.592 162.723 229.135 165.978 229.352 166.011L229.464 166.028Z" fill="#0BC5EA"/>
<path d="M212.966 78.248C220.069 78.248 225.827 72.4825 225.827 65.3703C225.827 58.2582 220.069 52.4926 212.966 52.4926C205.863 52.4926 200.104 58.2582 200.104 65.3703C200.104 72.4825 205.863 78.248 212.966 78.248Z" fill="#FFB8B8"/>
<path d="M211.734 78.4565C213.726 78.4362 215.712 78.2455 217.671 77.8865C219.611 77.4391 223.891 74.1255 225.057 72.1679C225.924 70.7134 226.444 68.4637 226.728 66.8327C227.111 64.6741 227.037 62.459 226.511 60.3308C225.985 58.2026 225.018 56.2087 223.674 54.4784C223.155 53.7535 222.451 53.1823 221.635 52.8254C221.563 52.7992 221.489 52.7763 221.414 52.7571C220.231 52.478 219.159 51.8513 218.335 50.9575C218.175 50.7765 218.002 50.6074 217.817 50.4513C216.893 49.7099 215.806 49.1982 214.645 48.9579C212.771 48.5072 210.09 49.072 206.677 50.638C204.962 51.4248 203.059 51.2053 201.592 50.9261C201.51 50.9124 201.425 50.9205 201.347 50.9496C201.269 50.9787 201.2 51.0278 201.146 51.0919C200.541 51.6914 199.731 52.0391 198.88 52.0652C198.359 52.1016 197.831 52.8387 197.194 53.7985C197.049 54.0163 196.88 54.2706 196.758 54.4258L196.734 54.1344L196.447 54.4676C195.997 54.9912 195.686 55.6205 195.544 56.2968C195.402 56.9731 195.433 57.6745 195.634 58.3355C195.836 58.9965 196.201 59.5958 196.696 60.0774C197.191 60.5591 197.799 60.9075 198.465 61.0902C198.993 61.2163 199.533 61.2882 200.076 61.3046C200.405 61.3257 200.745 61.3475 201.072 61.3956C202.122 61.5827 203.105 62.0392 203.926 62.7206C204.747 63.4019 205.378 64.2847 205.756 65.2829C205.845 65.5135 205.987 65.7206 206.169 65.888C206.351 66.0554 206.569 66.1786 206.806 66.2483C207.043 66.318 207.293 66.3321 207.536 66.2897C207.78 66.2473 208.01 66.1494 208.21 66.0037C208.542 65.7306 208.935 65.5421 209.356 65.4541C209.776 65.3661 210.212 65.3813 210.626 65.4984C210.985 65.6866 211.269 65.9929 211.43 66.3659C211.625 66.7811 211.938 67.1288 212.331 67.3648C213.67 68.0128 213.839 71.0326 213.429 73.5641C213.034 76.0043 212.175 77.7844 211.34 77.8928C210.697 77.9763 210.625 78.024 210.581 78.1394L210.542 78.2426L210.617 78.3363C210.976 78.4564 211.357 78.4974 211.734 78.4565Z" fill="#2D3748"/>
<path d="M201.064 119.609L194.882 111.722C188.584 113.459 177.411 123.431 177.411 123.431L154.465 133.401C153.699 133.272 152.913 133.348 152.185 133.62C151.458 133.892 150.815 134.351 150.321 134.951C149.827 135.551 149.5 136.271 149.372 137.038C149.244 137.805 149.32 138.592 149.593 139.321C149.866 140.049 150.325 140.692 150.925 141.186C151.525 141.68 152.244 142.006 153.01 142.134C153.776 142.261 154.562 142.183 155.289 141.909C156.016 141.635 156.658 141.175 157.151 140.573L187.21 132.177L201.064 119.609Z" fill="#FFB8B8"/>
<path d="M199.582 121.413L209.336 110.525L209.878 102.81C209.979 101.295 209.654 99.7823 208.941 98.4422C208.229 97.1022 207.156 95.9886 205.844 95.2271C204.059 94.2068 201.953 93.9034 199.953 94.3782C197.953 94.8529 196.207 96.0704 195.07 97.7845C191.623 102.986 187.915 110.018 189.823 113.983L189.842 114.023L199.582 121.413Z" fill="#0BC5EA"/>
<path d="M109.677 162.336L84.3246 149.335C82.5214 148.41 81.924 145.958 82.9931 143.868L99.5232 111.55C100.592 109.46 102.929 108.512 104.732 109.436L130.085 122.437C131.888 123.362 132.485 125.815 131.416 127.905L114.886 160.222C113.817 162.313 111.48 163.261 109.677 162.336Z" fill="#EDF2F7"/>
<path d="M105.345 156.359L88.1207 147.527C86.4318 146.66 85.8722 144.363 86.8735 142.406L100.606 115.557C101.608 113.599 103.796 112.712 105.485 113.578L126.289 124.246C127.978 125.112 128.537 127.409 127.536 129.367L120.076 143.952C115.616 152.672 112.868 160.217 105.345 156.359Z" fill="white"/>
<path d="M113.861 141.697L98.6051 133.874C98.4185 133.741 98.286 133.545 98.2318 133.322C98.1775 133.099 98.2051 132.864 98.3095 132.66C98.4139 132.456 98.5882 132.296 98.8005 132.21C99.0127 132.124 99.2489 132.117 99.4658 132.191L114.722 140.015C114.909 140.148 115.041 140.343 115.095 140.566C115.15 140.789 115.122 141.024 115.018 141.228C114.913 141.432 114.739 141.592 114.527 141.678C114.314 141.764 114.078 141.771 113.861 141.697Z" fill="#0BC5EA"/>
<path d="M100.387 138.984L96.9049 137.198C96.7183 137.065 96.5858 136.869 96.5316 136.647C96.4773 136.424 96.5049 136.189 96.6093 135.985C96.7137 135.781 96.888 135.621 97.1003 135.535C97.3126 135.449 97.5487 135.442 97.7656 135.516L101.247 137.301C101.434 137.434 101.566 137.63 101.621 137.853C101.675 138.076 101.647 138.31 101.543 138.515C101.438 138.719 101.264 138.878 101.052 138.965C100.84 139.051 100.603 139.058 100.387 138.984Z" fill="#0BC5EA"/>
<path d="M104.852 145.471L95.2042 140.523C95.0176 140.39 94.8851 140.194 94.8309 139.971C94.7766 139.748 94.8042 139.513 94.9086 139.309C95.013 139.105 95.1873 138.945 95.3996 138.859C95.6119 138.773 95.848 138.766 96.0649 138.84L105.713 143.788C105.899 143.921 106.032 144.117 106.086 144.339C106.141 144.562 106.113 144.797 106.009 145.001C105.904 145.206 105.73 145.365 105.518 145.451C105.305 145.538 105.069 145.544 104.852 145.471V145.471Z" fill="#0BC5EA"/>
<path d="M119.898 129.894L104.642 122.07C104.456 121.937 104.323 121.741 104.269 121.519C104.215 121.296 104.242 121.061 104.347 120.857C104.451 120.653 104.625 120.493 104.838 120.407C105.05 120.321 105.286 120.314 105.503 120.388L120.759 128.211C120.946 128.344 121.078 128.54 121.132 128.763C121.187 128.986 121.159 129.221 121.055 129.425C120.95 129.629 120.776 129.789 120.564 129.875C120.351 129.961 120.115 129.968 119.898 129.894Z" fill="#0BC5EA"/>
<path d="M106.424 127.18L102.942 125.395C102.755 125.262 102.623 125.066 102.569 124.843C102.514 124.62 102.542 124.385 102.646 124.181C102.751 123.977 102.925 123.818 103.137 123.731C103.35 123.645 103.586 123.638 103.803 123.712L107.284 125.498C107.471 125.631 107.603 125.827 107.658 126.049C107.712 126.272 107.684 126.507 107.58 126.711C107.475 126.915 107.301 127.075 107.089 127.161C106.877 127.247 106.64 127.254 106.424 127.18Z" fill="#0BC5EA"/>
<path d="M110.889 133.667L101.241 128.72C101.055 128.586 100.922 128.391 100.868 128.168C100.814 127.945 100.841 127.71 100.946 127.506C101.05 127.302 101.224 127.142 101.437 127.056C101.649 126.97 101.885 126.963 102.102 127.037L111.75 131.984C111.937 132.117 112.069 132.313 112.123 132.536C112.178 132.759 112.15 132.994 112.046 133.198C111.941 133.402 111.767 133.562 111.555 133.648C111.342 133.734 111.106 133.741 110.889 133.667L110.889 133.667Z" fill="#0BC5EA"/>
<path d="M88.6688 134.2L82.9414 112.851L98.2465 109.95L97.4235 124.604L117.533 145.337C118.598 145.293 119.652 145.561 120.567 146.107C121.483 146.653 122.22 147.454 122.688 148.412C123.157 149.37 123.337 150.444 123.207 151.503C123.076 152.562 122.641 153.56 121.954 154.375C121.267 155.191 120.358 155.788 119.337 156.095C118.317 156.402 117.229 156.405 116.207 156.104C115.185 155.803 114.272 155.211 113.581 154.399C112.889 153.587 112.448 152.592 112.312 151.534L88.6688 134.2Z" fill="#FFDCDC"/>
<path d="M81.375 88.9137C76.1799 93.0203 82.8479 115.991 82.8479 115.991C83.8802 114.856 85.0799 131.622 86.3418 131.051C89.9281 129.429 96.5014 123.834 99.0355 124.29C100.485 124.551 98.9664 113.2 98.9664 113.2C98.9664 113.2 98.6871 106.692 98.1623 98.325C98.0577 95.9569 97.3565 93.6538 96.1238 91.6301C94.8911 89.6063 93.1671 87.9277 91.1123 86.7506C91.1123 86.7506 86.5701 84.8072 81.375 88.9137Z" fill="#4A5568"/>
<path d="M167.817 181.587L153.982 175.046C153.686 174.907 153.426 174.703 153.22 174.448C153.014 174.194 152.869 173.896 152.794 173.577C152.719 173.266 152.716 172.941 152.784 172.628C152.852 172.314 152.991 172.021 153.188 171.769C157.196 166.64 159.948 160.643 161.223 154.258C161.319 153.769 161.582 153.329 161.966 153.012C162.351 152.696 162.833 152.522 163.331 152.522C170.386 152.546 175.66 155.125 179.004 160.188C179.18 160.451 179.297 160.75 179.346 161.063C179.395 161.376 179.375 161.696 179.288 162.001C177.352 168.683 174.406 175.029 170.552 180.818C170.266 181.256 169.831 181.575 169.328 181.716C168.825 181.858 168.288 181.812 167.817 181.587Z" fill="#EDF2F7"/>
<path d="M171.887 172.413L161.308 167.411C161.045 167.287 160.842 167.063 160.744 166.789C160.646 166.514 160.66 166.212 160.785 165.949C160.909 165.685 161.133 165.482 161.407 165.384C161.681 165.285 161.982 165.3 162.246 165.424L172.824 170.426C172.954 170.487 173.071 170.574 173.168 170.681C173.265 170.788 173.339 170.913 173.388 171.049C173.437 171.184 173.458 171.328 173.451 171.473C173.444 171.617 173.409 171.758 173.347 171.888C173.286 172.019 173.199 172.136 173.092 172.233C172.986 172.33 172.861 172.405 172.725 172.454C172.59 172.502 172.446 172.524 172.302 172.517C172.158 172.51 172.017 172.474 171.886 172.413H171.887Z" fill="white"/>
<path d="M173.53 168.928L162.952 163.927C162.689 163.803 162.486 163.579 162.388 163.304C162.289 163.03 162.304 162.728 162.428 162.464C162.553 162.201 162.776 161.998 163.05 161.899C163.324 161.801 163.626 161.815 163.889 161.94L174.467 166.941C174.73 167.066 174.933 167.29 175.032 167.564C175.13 167.838 175.115 168.141 174.991 168.404C174.867 168.668 174.643 168.871 174.369 168.969C174.095 169.068 173.793 169.053 173.53 168.929V168.928Z" fill="white"/>
<path d="M159.395 59.5468L158.411 59.6548C154.02 42.3802 145.511 30.4125 133.801 25.0454C118.914 18.2228 100.507 22.8043 81.9685 37.9461C63.3362 53.1652 46.8417 77.2048 35.5238 105.638L34.5684 105.2C45.9359 76.6428 62.5151 52.4871 81.2518 37.1834C100.083 21.8023 118.866 17.1872 134.142 24.1884C146.188 29.7094 154.92 41.9361 159.395 59.5468Z" fill="#E2E8F0"/>
<path d="M50.7618 82.0447C48.1867 87.4763 45.7375 93.1034 43.4819 98.7696C30.5024 131.377 23.9249 164.677 24.4624 195.073L23.448 194.964C22.9099 164.456 29.5063 131.041 42.5265 98.3318C44.7885 92.6496 47.2448 87.0066 49.8272 81.5597L50.7618 82.0447Z" fill="#E2E8F0"/>
<path d="M50.2749 104.449C47.6999 109.881 45.2506 115.508 42.9951 121.174C30.0155 153.781 23.4381 187.082 23.9756 217.477L22.9611 217.369C22.4231 186.86 29.0195 153.445 42.0397 120.737C44.3017 115.054 46.7579 109.411 49.3404 103.964L50.2749 104.449Z" fill="#E2E8F0"/>
<path d="M23.01 112.598C24.1313 110.91 23.4676 108.494 21.5275 107.202C19.5873 105.909 17.1055 106.23 15.9841 107.917C14.8627 109.605 15.5264 112.021 17.4666 113.313C19.4067 114.606 21.8886 114.285 23.01 112.598Z" fill="#E2E8F0"/>
<path d="M261.796 173.545C262.917 171.858 262.254 169.442 260.314 168.149C258.373 166.857 255.892 167.177 254.77 168.865C253.649 170.553 254.313 172.968 256.253 174.261C258.193 175.553 260.675 175.233 261.796 173.545Z" fill="#E2E8F0"/>
</g>
<defs>
<clipPath id="clip0_125_6159">
<rect width="314" height="255" fill="white" transform="translate(1 21)"/>
</clipPath>
</defs>
</svg>
