<svg width="316" height="297" viewBox="0 0 316 297" fill="none" xmlns="http://www.w3.org/2000/svg">
<path d="M235 259.658L230.637 261L223 245.98L229.439 244L235 259.658Z" fill="#FFDCDC"/>
<path d="M207.999 263L203.934 263L202 247L208 247L207.999 263Z" fill="#FFDCDC"/>
<path d="M201.029 264.481L208.075 261.909L209.541 266.808L198.059 271C197.866 270.357 197.79 269.678 197.835 269.002C197.88 268.326 198.045 267.666 198.321 267.061C198.597 266.456 198.978 265.916 199.443 265.474C199.907 265.031 200.446 264.694 201.029 264.481Z" fill="#2D3748"/>
<path d="M228.023 259H236V265H223C223 264.212 223.13 263.432 223.382 262.704C223.635 261.976 224.005 261.315 224.471 260.757C224.938 260.2 225.491 259.758 226.101 259.457C226.71 259.155 227.363 259 228.023 259Z" fill="#2D3748"/>
<path d="M203.69 201.947L203.469 202.913C200.478 215.982 199.413 234.998 200.306 248.367L200.996 258.695C201.02 259.048 201.179 259.38 201.441 259.623C201.704 259.865 202.05 260 202.409 260H207.613C207.96 260 208.295 259.874 208.554 259.647C208.814 259.419 208.979 259.106 209.02 258.766L213.059 224.891C213.097 224.573 213.244 224.278 213.475 224.055C213.707 223.831 214.009 223.693 214.332 223.663C214.655 223.633 214.978 223.713 215.248 223.889C215.518 224.066 215.718 224.329 215.816 224.633L226.284 255.245C226.37 255.514 226.536 255.75 226.761 255.924C226.986 256.098 227.258 256.201 227.543 256.219L235.493 256.725C235.722 256.739 235.952 256.699 236.162 256.606C236.371 256.513 236.555 256.372 236.697 256.193C236.839 256.015 236.935 255.805 236.977 255.582C237.018 255.359 237.004 255.129 236.935 254.913L232.15 241.931C228.453 230.281 226.466 212.579 226.249 200.373C226.245 200.18 226.202 199.991 226.12 199.815C226.039 199.64 225.922 199.484 225.776 199.355C225.631 199.227 225.46 199.13 225.274 199.07C225.089 199.01 224.893 198.988 224.698 199.006L204.937 200.863C204.64 200.891 204.36 201.011 204.136 201.206C203.912 201.4 203.756 201.659 203.69 201.947Z" fill="#2D3748"/>
<path d="M215.5 148C220.194 148 224 144.194 224 139.5C224 134.806 220.194 131 215.5 131C210.806 131 207 134.806 207 139.5C207 144.194 210.806 148 215.5 148Z" fill="#FFDCDC"/>
<path d="M209.864 205C208.187 204.997 206.51 204.908 204.842 204.734C204.305 204.676 203.814 204.409 203.471 203.992C203.128 203.575 202.962 203.039 203.007 202.501L205.879 174.676C206.572 166.806 207.642 159.209 213.056 152.774C213.24 152.556 213.467 152.379 213.723 152.253C213.978 152.127 214.257 152.055 214.542 152.043L214.745 152.035C216.881 151.946 217.865 152.024 218.142 152.302L219.631 153.774C228.715 160.509 229.092 203.18 226.854 202.339C226.421 202.177 221.252 202.34 220.892 202.586C217.974 204.581 213.285 205 209.864 205Z" fill="#0BC5EA"/>
<path d="M176.346 189.831C176.565 189.356 176.884 188.936 177.28 188.599C177.675 188.263 178.138 188.02 178.636 187.886C179.135 187.752 179.655 187.731 180.162 187.824C180.669 187.918 181.15 188.124 181.57 188.427L191.753 181L192 187.629L182.292 193.665C181.746 194.351 180.971 194.809 180.115 194.952C179.259 195.095 178.382 194.913 177.649 194.441C176.916 193.968 176.379 193.238 176.139 192.388C175.898 191.539 175.972 190.629 176.346 189.831Z" fill="#FFDCDC"/>
<path d="M186.408 191L183 185.116L214.045 163.163C214.745 162.668 215.543 162.32 216.387 162.14C217.231 161.96 218.104 161.954 218.951 162.12C219.797 162.286 220.6 162.621 221.309 163.105C222.018 163.59 222.617 164.212 223.069 164.933C223.522 165.655 223.818 166.46 223.938 167.299C224.059 168.138 224.002 168.992 223.771 169.808C223.54 170.624 223.14 171.385 222.595 172.042C222.051 172.7 221.374 173.24 220.607 173.63L186.408 191Z" fill="#0BC5EA"/>
<path d="M219.12 147.511C219.406 147.798 219.784 147.97 220.185 147.997C220.586 148.023 220.983 147.901 221.302 147.653C223.293 146.151 225.041 144.28 226.075 141.999C227.261 139.385 227.393 136.178 225.964 133.694C224.756 131.594 222.623 130.238 220.497 129.126C219.671 128.651 218.782 128.302 217.858 128.09C216.923 127.88 215.945 128.041 215.123 128.539C214.72 128.796 214.404 129.17 214.213 129.613C214.023 130.056 213.968 130.547 214.056 131.022C213.035 129.836 211.727 128.942 210.262 128.429C209.34 128.062 208.329 127.987 207.364 128.215C206.015 128.605 205.03 129.825 204.492 131.143C204.056 132.146 203.906 133.253 204.058 134.338C204.137 134.878 204.328 135.395 204.616 135.856C204.905 136.316 205.285 136.71 205.733 137.011C206.848 137.714 208.271 137.663 209.552 137.376C210.833 137.089 212.073 136.59 213.379 136.464C214.685 136.338 216.139 136.669 216.933 137.731C217.493 138.48 217.637 139.457 217.762 140.389L218.416 145.234C218.469 145.935 218.645 146.621 218.935 147.259C218.985 147.351 219.047 147.436 219.12 147.511Z" fill="#2D3748"/>
<path d="M237.511 206.332C237.104 206.038 236.767 205.658 236.523 205.219C236.279 204.781 236.133 204.293 236.098 203.792C236.062 203.291 236.136 202.788 236.315 202.319C236.495 201.85 236.774 201.426 237.135 201.077L232 190L238.268 190.938L242.183 201.313C242.729 201.958 243.019 202.782 242.999 203.628C242.979 204.473 242.65 205.282 242.074 205.901C241.498 206.519 240.715 206.905 239.874 206.985C239.033 207.064 238.192 206.832 237.511 206.332V206.332Z" fill="#FFDCDC"/>
<path d="M241 194.592L234.913 198L212.204 166.955C211.691 166.255 211.331 165.457 211.145 164.613C210.959 163.769 210.952 162.896 211.124 162.049C211.296 161.203 211.643 160.4 212.144 159.691C212.644 158.982 213.288 158.383 214.035 157.931C214.781 157.478 215.614 157.182 216.482 157.062C217.349 156.941 218.233 156.998 219.077 157.229C219.921 157.46 220.708 157.86 221.389 158.405C222.069 158.949 222.628 159.626 223.031 160.393L241 194.592Z" fill="#0BC5EA"/>
<path d="M186 83.2702H184.689V46.9956C184.689 41.4272 182.498 36.0869 178.599 32.1495C174.7 28.212 169.412 26 163.898 26H87.7911C82.2769 26 76.9887 28.212 73.0896 32.1495C69.1905 36.0869 67 41.4272 67 46.9956V246.004C67 251.573 69.1905 256.913 73.0896 260.851C76.9887 264.788 82.2769 267 87.7911 267H163.898C169.412 267 174.7 264.788 178.599 260.85C182.498 256.913 184.688 251.573 184.688 246.004V109.091H186L186 83.2702Z" fill="#E2E8F0"/>
<path d="M165.261 31H155.191C155.654 32.1357 155.831 33.3678 155.706 34.5879C155.58 35.8081 155.157 36.9786 154.473 37.9966C153.789 39.0145 152.865 39.8486 151.783 40.4253C150.701 41.0019 149.493 41.3035 148.267 41.3035H104.069C102.842 41.3034 101.635 41.0018 100.553 40.425C99.4705 39.8483 98.5467 39.0142 97.8627 37.9963C97.1787 36.9784 96.7555 35.8078 96.6304 34.5878C96.5053 33.3677 96.682 32.1356 97.1452 31H87.7394C83.565 31 79.5617 32.6585 76.61 35.6108C73.6583 38.563 72 42.567 72 46.7421V246.258C72 250.433 73.6583 254.437 76.61 257.389C79.5617 260.341 83.565 262 87.7394 262H165.261C169.435 262 173.438 260.341 176.39 257.389C179.342 254.437 181 250.433 181 246.258V46.7418C181 42.5668 179.342 38.5628 176.39 35.6106C173.438 32.6585 169.435 31 165.261 31H165.261Z" fill="white"/>
<path d="M126.5 149C119.281 149 112.224 146.859 106.222 142.849C100.219 138.838 95.541 133.137 92.7784 126.468C90.0158 119.798 89.293 112.46 90.7014 105.379C92.1097 98.2989 95.586 91.7952 100.691 86.6906C105.795 81.586 112.299 78.1097 119.379 76.7014C126.46 75.293 133.798 76.0158 140.468 78.7784C147.137 81.541 152.838 86.2193 156.849 92.2217C160.859 98.2241 163 105.281 163 112.5C162.989 122.177 159.14 131.455 152.297 138.297C145.455 145.14 136.177 148.989 126.5 149ZM126.5 76.6953C119.418 76.6953 112.496 78.7952 106.608 82.7294C100.72 86.6637 96.1307 92.2557 93.4207 98.7981C90.7108 105.341 90.0017 112.54 91.3832 119.485C92.7648 126.431 96.1748 132.81 101.182 137.818C106.19 142.825 112.569 146.235 119.515 147.617C126.46 148.998 133.659 148.289 140.202 145.579C146.744 142.869 152.336 138.28 156.271 132.392C160.205 126.504 162.305 119.582 162.305 112.5C162.294 103.007 158.518 93.9064 151.806 87.1941C145.094 80.4817 135.993 76.706 126.5 76.6953Z" fill="#4A5568"/>
<path d="M139.456 101.962C142.54 99.3072 144.413 95.114 143.922 91.0318C143.431 86.9497 140.388 83.197 136.441 82.3301C132.495 81.4633 127.996 83.8629 126.797 87.7901C126.137 80.2185 125.377 72.3298 121.425 65.8819C117.847 60.0435 111.649 55.8659 104.932 55.1185C98.2154 54.3711 91.1433 57.1939 86.9542 62.5943C82.7651 67.9946 81.7395 75.8457 84.6734 82.0458C86.8347 86.6132 90.8166 90.0123 94.9887 92.7776C108.299 101.6 124.81 104.581 140.521 102.226L139.456 101.962Z" fill="#E2E8F0"/>
<path d="M93.1299 58.1543C98.7654 62.7135 103.935 67.8127 108.565 73.3781C115.81 82.0581 121.673 91.7899 125.95 102.235C126.263 102.997 125.017 103.328 124.708 102.575C117.711 85.6 106.541 70.6386 92.219 59.059C91.5759 58.5389 92.4921 57.6384 93.1299 58.1543Z" fill="white"/>
<path d="M95.5 185C97.433 185 99 183.209 99 181C99 178.791 97.433 177 95.5 177C93.567 177 92 178.791 92 181C92 183.209 93.567 185 95.5 185Z" fill="#4A5568"/>
<path d="M158.231 184H109.769C109.035 184 108.33 183.684 107.811 183.121C107.292 182.559 107 181.796 107 181C107 180.204 107.292 179.441 107.811 178.879C108.33 178.316 109.035 178 109.769 178H158.231C158.965 178 159.67 178.316 160.189 178.879C160.708 179.441 161 180.204 161 181C161 181.796 160.708 182.559 160.189 183.121C159.67 183.684 158.965 184 158.231 184Z" fill="#CBD5E0"/>
<path d="M143.214 184H109.786C109.047 184 108.338 183.684 107.816 183.121C107.293 182.559 107 181.796 107 181C107 180.204 107.293 179.441 107.816 178.879C108.338 178.316 109.047 178 109.786 178H143.214C143.953 178 144.662 178.316 145.184 178.879C145.707 179.441 146 180.204 146 181C146 181.796 145.707 182.559 145.184 183.121C144.662 183.684 143.953 184 143.214 184Z" fill="#0BC5EA"/>
<path d="M95.5 201C97.433 201 99 199.433 99 197.5C99 195.567 97.433 194 95.5 194C93.567 194 92 195.567 92 197.5C92 199.433 93.567 201 95.5 201Z" fill="#4A5568"/>
<path d="M158.231 200H109.769C109.035 200 108.33 199.737 107.811 199.268C107.292 198.799 107 198.163 107 197.5C107 196.837 107.292 196.201 107.811 195.732C108.33 195.263 109.035 195 109.769 195H158.231C158.965 195 159.67 195.263 160.189 195.732C160.708 196.201 161 196.837 161 197.5C161 198.163 160.708 198.799 160.189 199.268C159.67 199.737 158.965 200 158.231 200Z" fill="#CBD5E0"/>
<path d="M95.5 218C97.433 218 99 216.209 99 214C99 211.791 97.433 210 95.5 210C93.567 210 92 211.791 92 214C92 216.209 93.567 218 95.5 218Z" fill="#4A5568"/>
<path d="M158.231 217H109.769C109.035 217 108.33 216.684 107.811 216.121C107.292 215.559 107 214.796 107 214C107 213.204 107.292 212.441 107.811 211.879C108.33 211.316 109.035 211 109.769 211H158.231C158.965 211 159.67 211.316 160.189 211.879C160.708 212.441 161 213.204 161 214C161 214.796 160.708 215.559 160.189 216.121C159.67 216.684 158.965 217 158.231 217Z" fill="#CBD5E0"/>
<path d="M132.213 200H109.787C109.048 200 108.339 199.737 107.816 199.268C107.294 198.799 107 198.163 107 197.5C107 196.837 107.294 196.201 107.816 195.732C108.339 195.263 109.048 195 109.787 195H132.213C132.952 195 133.661 195.263 134.184 195.732C134.706 196.201 135 196.837 135 197.5C135 198.163 134.706 198.799 134.184 199.268C133.661 199.737 132.952 200 132.213 200Z" fill="#0BC5EA"/>
<path d="M152.211 217H109.789C109.049 217 108.34 216.684 107.817 216.121C107.294 215.559 107 214.796 107 214C107 213.204 107.294 212.441 107.817 211.879C108.34 211.316 109.049 211 109.789 211H152.211C152.951 211 153.66 211.316 154.183 211.879C154.706 212.441 155 213.204 155 214C155 214.796 154.706 215.559 154.183 216.121C153.66 216.684 152.951 217 152.211 217Z" fill="#0BC5EA"/>
<path d="M146 107H141V92.5959C141 92.1728 141.173 91.7672 141.48 91.468C141.787 91.1688 142.203 91.0005 142.637 91H144.363C144.797 91.0005 145.213 91.1688 145.52 91.468C145.827 91.7672 146 92.1728 146 92.5959V107Z" fill="#4A5568"/>
<path d="M149 131H103.165L103 105.301C102.998 104.904 103.077 104.511 103.231 104.144C103.385 103.778 103.611 103.446 103.896 103.169L115.411 92.0119C115.957 91.4808 116.689 91.1809 117.452 91.1753L136.724 91.0001C137.161 90.9974 137.593 91.0902 137.99 91.2719C138.387 91.4536 138.739 91.7199 139.021 92.0518L139.023 92.0538L148.176 103.221C148.708 103.871 148.999 104.685 149 105.524L149 131Z" fill="#4A5568"/>
<path d="M149 131H124V108.246C124 107.553 124.255 106.882 124.72 106.355L135.582 94.0231V94.0233C135.864 93.7022 136.215 93.4444 136.611 93.2677C137.006 93.091 137.436 92.9997 137.872 93H137.883C138.321 93.0013 138.752 93.095 139.149 93.2746C139.545 93.4542 139.896 93.7154 140.177 94.0399L148.295 103.398C148.75 103.924 149 104.587 149 105.273V131Z" fill="#0BC5EA"/>
<path d="M138.178 122H134.822C134.604 122 134.395 121.903 134.241 121.73C134.087 121.557 134 121.323 134 121.078V117.922C134 117.677 134.087 117.443 134.241 117.27C134.395 117.097 134.604 117 134.822 117H138.178C138.396 117 138.605 117.097 138.759 117.27C138.913 117.443 139 117.677 139 117.922V121.078C139 121.323 138.913 121.557 138.759 121.73C138.605 121.903 138.396 122 138.178 122Z" fill="white"/>
<path d="M138.178 115H134.822C134.604 115 134.395 114.901 134.241 114.726C134.087 114.55 134 114.313 134 114.065V110.935C134 110.687 134.087 110.45 134.241 110.274C134.395 110.099 134.604 110 134.822 110H138.178C138.396 110 138.605 110.099 138.759 110.274C138.913 110.45 139 110.687 139 110.935V114.065C139 114.313 138.913 114.55 138.759 114.726C138.605 114.901 138.396 115 138.178 115Z" fill="white"/>
<path d="M116.178 121H112.822C112.604 121 112.395 120.903 112.241 120.73C112.087 120.557 112 120.323 112 120.078V116.922C112 116.677 112.087 116.443 112.241 116.27C112.395 116.097 112.604 116 112.822 116H116.178C116.396 116 116.605 116.097 116.759 116.27C116.913 116.443 117 116.677 117 116.922V120.078C117 120.323 116.913 120.557 116.759 120.73C116.605 120.903 116.396 121 116.178 121Z" fill="white"/>
<path d="M116.178 113H112.822C112.604 113 112.395 112.921 112.241 112.781C112.087 112.64 112 112.45 112 112.252V109.748C112 109.55 112.087 109.36 112.241 109.219C112.395 109.079 112.604 109 112.822 109H116.178C116.396 109 116.605 109.079 116.759 109.219C116.913 109.36 117 109.55 117 109.748V112.252C117 112.45 116.913 112.64 116.759 112.781C116.605 112.921 116.396 113 116.178 113Z" fill="white"/>
<path d="M298.654 268H16.3455C16.2539 268 16.166 267.947 16.1012 267.854C16.0364 267.76 16 267.633 16 267.5C16 267.367 16.0364 267.24 16.1012 267.146C16.166 267.053 16.2539 267 16.3455 267H298.654C298.746 267 298.834 267.053 298.899 267.146C298.964 267.24 299 267.367 299 267.5C299 267.633 298.964 267.76 298.899 267.854C298.834 267.947 298.746 268 298.654 268Z" fill="#4A5568"/>
</svg>
