<svg width="316" height="297" viewBox="0 0 316 297" fill="none" xmlns="http://www.w3.org/2000/svg">
<g clip-path="url(#clip0_125_6078)">
<path d="M272.513 215.552L284.671 217.449C288.786 212.475 291.623 206.574 292.935 200.258C284.045 207.522 270.526 203.662 259.747 207.627C256.395 208.89 253.37 210.889 250.897 213.477C248.423 216.065 246.566 219.176 245.46 222.578L239.519 228.958C244.897 231.084 250.673 232.02 256.449 231.702C262.224 231.385 267.862 229.822 272.974 227.12C275.827 225.576 278.473 223.679 280.851 221.475C276.597 218.802 272.513 215.552 272.513 215.552Z" fill="#E2E8F0"/>
<path d="M268.198 196.144L279.926 192.43C281.387 186.147 281.29 179.602 279.642 173.365C274.931 183.823 261.107 186.387 253.231 194.734C250.794 197.357 248.98 200.493 247.923 203.91C246.865 207.328 246.592 210.939 247.123 214.476L244.656 222.831C250.419 222.339 256.007 220.606 261.035 217.751C266.062 214.896 270.41 210.987 273.778 206.293C275.642 203.641 277.163 200.765 278.307 197.734C273.305 197.235 268.198 196.144 268.198 196.144Z" fill="#E2E8F0"/>
<path d="M293 232.824C293 232.886 292.988 232.948 292.964 233.006C292.94 233.064 292.905 233.117 292.861 233.161C292.816 233.205 292.764 233.24 292.706 233.264C292.648 233.288 292.585 233.3 292.523 233.3H22.4773C22.3507 233.3 22.2293 233.25 22.1398 233.161C22.0503 233.071 22 232.95 22 232.824C22 232.697 22.0503 232.576 22.1398 232.487C22.2293 232.397 22.3507 232.347 22.4773 232.347H292.523C292.585 232.347 292.648 232.359 292.706 232.383C292.764 232.407 292.816 232.442 292.861 232.486C292.905 232.531 292.94 232.583 292.964 232.641C292.988 232.699 293 232.761 293 232.824Z" fill="#A0AEC0"/>
<path d="M133.901 212.513C181.527 212.513 220.134 173.976 220.134 126.438C220.134 78.8996 181.527 40.3624 133.901 40.3624C86.2763 40.3624 47.6685 78.8996 47.6685 126.438C47.6685 173.976 86.2763 212.513 133.901 212.513Z" fill="#E2E8F0"/>
<path d="M208.102 126.438C208.111 137.995 205.406 149.393 200.205 159.718C195.004 170.043 187.452 179.008 178.153 185.894C177.531 186.358 176.898 186.81 176.26 187.251C163.826 195.878 149.045 200.502 133.902 200.502C118.758 200.502 103.977 195.878 91.5432 187.251C90.9054 186.81 90.2717 186.358 89.65 185.894C80.358 179.002 72.8101 170.036 67.6098 159.712C62.4096 149.388 59.7012 137.993 59.7012 126.438C59.7012 114.882 62.4096 103.487 67.6098 93.1635C72.8101 82.8397 80.358 73.8735 89.65 66.9817C90.2717 66.5173 90.9054 66.0649 91.5432 65.6245C103.977 56.997 118.758 52.3729 133.902 52.3729C149.045 52.3729 163.826 56.997 176.26 65.6245C176.898 66.0649 177.531 66.5173 178.153 66.9817C187.452 73.8675 195.004 82.8324 200.205 93.1576C205.406 103.483 208.111 114.881 208.102 126.438Z" fill="white"/>
<path d="M133.901 194.097C171.337 194.097 201.684 163.805 201.684 126.438C201.684 89.0705 171.337 58.7785 133.901 58.7785C96.4657 58.7785 66.1182 89.0705 66.1182 126.438C66.1182 163.805 96.4657 194.097 133.901 194.097Z" fill="#0BC5EA"/>
<path opacity="0.2" d="M134.078 58.9677C133.051 58.9677 132.029 58.9945 131.013 59.0396C148.145 60.5423 164.064 68.4891 175.545 81.27C187.026 94.0509 193.21 110.71 192.845 127.873C192.48 145.035 185.593 161.418 173.579 173.701C161.565 185.984 145.323 193.249 128.143 194.025C130.099 194.194 132.078 194.286 134.078 194.286C152.055 194.286 169.296 187.158 182.008 174.469C194.72 161.781 201.861 144.571 201.861 126.627C201.861 108.683 194.72 91.4731 182.008 78.7846C169.296 66.096 152.055 58.9677 134.078 58.9677V58.9677Z" fill="#0987A0"/>
<path d="M134.102 53.9743C133.517 53.9753 132.957 54.2076 132.543 54.6204C132.13 55.0331 131.897 55.5926 131.896 56.1762V65.7846C131.896 66.3686 132.128 66.9287 132.542 67.3416C132.956 67.7546 133.517 67.9866 134.102 67.9866C134.687 67.9866 135.248 67.7546 135.662 67.3416C136.076 66.9287 136.308 66.3686 136.308 65.7846V56.1762C136.307 55.5926 136.074 55.0331 135.661 54.6204C135.247 54.2076 134.687 53.9753 134.102 53.9743Z" fill="white"/>
<path d="M178.153 66.9817C177.531 66.5173 176.897 66.0649 176.26 65.6245C175.877 65.5996 175.494 65.6748 175.15 65.8426C174.805 66.0104 174.51 66.265 174.294 66.5814L168.876 74.5203C168.546 75.0029 168.423 75.5963 168.532 76.1699C168.641 76.7435 168.974 77.2504 169.457 77.579C169.941 77.9076 170.535 78.0311 171.11 77.9222C171.685 77.8133 172.192 77.4811 172.522 76.9985L177.94 69.0595C178.146 68.7584 178.274 68.4105 178.311 68.0476C178.348 67.6847 178.294 67.3183 178.153 66.9817Z" fill="white"/>
<path d="M202.771 103.181C202.662 102.914 202.502 102.67 202.298 102.464C202.095 102.259 201.853 102.095 201.587 101.983C201.32 101.871 201.034 101.812 200.744 101.81C200.455 101.808 200.168 101.863 199.9 101.972L190.98 105.587C190.438 105.808 190.006 106.233 189.779 106.771C189.552 107.309 189.548 107.915 189.768 108.455C189.988 108.996 190.414 109.427 190.953 109.654C191.491 109.882 192.098 109.886 192.64 109.667L201.56 106.052C202.101 105.831 202.533 105.404 202.76 104.866C202.987 104.328 202.991 103.722 202.771 103.181Z" fill="white"/>
<path d="M98.927 74.5203L93.5084 66.5814C93.2925 66.265 92.9976 66.0104 92.653 65.8426C92.3083 65.6748 91.9258 65.5996 91.5431 65.6245C90.9054 66.0649 90.2717 66.5173 89.65 66.9817C89.5091 67.3183 89.4547 67.6847 89.4918 68.0476C89.5289 68.4105 89.6564 68.7584 89.8626 69.0595L95.2812 76.9985C95.6104 77.4811 96.1182 77.8133 96.6929 77.9222C97.2675 78.0311 97.862 77.9076 98.3455 77.579C98.8289 77.2504 99.1618 76.7435 99.2709 76.1699C99.3799 75.5963 99.2563 75.0029 98.927 74.5203Z" fill="white"/>
<path d="M76.8234 105.587L67.9033 101.972C67.3613 101.753 66.7542 101.757 66.2153 101.984C65.6765 102.211 65.2501 102.643 65.0299 103.184C64.8097 103.724 64.8138 104.33 65.0413 104.868C65.2687 105.406 65.7009 105.832 66.2428 106.052L75.1629 109.667C75.7047 109.886 76.3116 109.882 76.8501 109.654C77.3886 109.427 77.8147 108.996 78.0348 108.455C78.2548 107.915 78.2509 107.309 78.0237 106.771C77.7966 106.233 77.3648 105.808 76.8234 105.587V105.587Z" fill="white"/>
<path d="M134.102 184.889C133.517 184.89 132.957 185.122 132.543 185.535C132.13 185.948 131.897 186.507 131.896 187.091V196.699C131.896 197.283 132.128 197.843 132.542 198.256C132.956 198.669 133.517 198.901 134.102 198.901C134.687 198.901 135.248 198.669 135.662 198.256C136.076 197.843 136.308 197.283 136.308 196.699V187.091C136.307 186.507 136.074 185.948 135.661 185.535C135.247 185.122 134.687 184.89 134.102 184.889Z" fill="white"/>
<path d="M177.94 183.816L172.522 175.877C172.359 175.638 172.15 175.433 171.908 175.275C171.666 175.116 171.394 175.007 171.11 174.953C170.825 174.899 170.533 174.902 170.249 174.961C169.966 175.02 169.697 175.134 169.457 175.296C169.218 175.459 169.013 175.667 168.854 175.909C168.695 176.151 168.586 176.421 168.532 176.705C168.478 176.99 168.48 177.281 168.539 177.564C168.598 177.847 168.713 178.116 168.876 178.355L174.294 186.294C174.51 186.61 174.805 186.865 175.15 187.033C175.494 187.201 175.877 187.276 176.26 187.251C176.897 186.81 177.531 186.358 178.153 185.894C178.294 185.557 178.348 185.191 178.311 184.828C178.274 184.465 178.146 184.117 177.94 183.816Z" fill="white"/>
<path d="M201.56 146.824L192.64 143.208C192.098 142.989 191.491 142.993 190.952 143.22C190.413 143.447 189.987 143.879 189.767 144.42C189.547 144.96 189.551 145.567 189.778 146.104C190.006 146.642 190.438 147.068 190.98 147.288L199.9 150.903C200.442 151.122 201.048 151.118 201.587 150.89C202.125 150.663 202.552 150.232 202.772 149.691C202.992 149.151 202.988 148.545 202.761 148.007C202.533 147.469 202.102 147.044 201.56 146.823V146.824Z" fill="white"/>
<path d="M98.3454 175.296C97.8619 174.968 97.2675 174.845 96.6929 174.953C96.1183 175.062 95.6105 175.394 95.2812 175.877L89.8626 183.816C89.6564 184.117 89.5289 184.465 89.4918 184.828C89.4547 185.191 89.5091 185.557 89.65 185.894C90.2717 186.358 90.9054 186.81 91.5431 187.251C91.9258 187.276 92.3083 187.201 92.653 187.033C92.9976 186.865 93.2925 186.61 93.5084 186.294L98.927 178.355C99.0901 178.116 99.2044 177.847 99.2634 177.564C99.3224 177.281 99.325 176.99 99.2709 176.706C99.2169 176.421 99.1074 176.151 98.9486 175.909C98.7898 175.667 98.5849 175.459 98.3454 175.296Z" fill="white"/>
<path d="M78.0346 144.417C77.9257 144.15 77.765 143.906 77.5616 143.7C77.3583 143.495 77.1164 143.331 76.8497 143.219C76.583 143.107 76.2968 143.048 76.0073 143.046C75.7179 143.044 75.4309 143.099 75.1629 143.208L66.2428 146.823C65.7013 147.044 65.2696 147.469 65.0424 148.007C64.8153 148.545 64.8113 149.151 65.0314 149.691C65.2514 150.232 65.6775 150.663 66.216 150.89C66.7545 151.118 67.3614 151.122 67.9033 150.903L76.8233 147.288C77.3645 147.067 77.7959 146.64 78.0229 146.102C78.2499 145.564 78.2541 144.958 78.0346 144.417Z" fill="white"/>
<path d="M136.964 125.345C137.168 126.549 136.885 127.784 136.178 128.779C135.47 129.775 134.396 130.45 133.191 130.656L94.0456 137.302C93.4484 137.404 92.8372 137.387 92.2466 137.252C91.656 137.118 91.0978 136.869 90.6037 136.519C90.1097 136.169 89.6895 135.726 89.3671 135.214C89.0447 134.702 88.8266 134.132 88.725 133.536C88.6234 132.939 88.6405 132.329 88.7751 131.74C88.9098 131.15 89.1595 130.593 89.5099 130.1C89.8603 129.607 90.3046 129.187 90.8174 128.866C91.3302 128.544 91.9015 128.326 92.4987 128.225L131.644 121.578C132.849 121.375 134.087 121.657 135.084 122.364C136.082 123.07 136.758 124.142 136.964 125.345Z" fill="#2D3748"/>
<path d="M178.163 168.635C177.601 169.2 176.837 169.519 176.039 169.522C175.242 169.525 174.476 169.212 173.909 168.652L131.77 126.92C131.204 126.359 130.885 125.597 130.882 124.801C130.88 124.005 131.193 123.241 131.755 122.676C132.317 122.111 133.08 121.791 133.877 121.788C134.675 121.784 135.441 122.097 136.007 122.657L178.146 164.389C178.712 164.95 179.031 165.713 179.034 166.509C179.037 167.305 178.724 168.07 178.163 168.635Z" fill="#2D3748"/>
<path d="M133.902 131.642C136.781 131.642 139.116 129.312 139.116 126.438C139.116 123.563 136.781 121.233 133.902 121.233C131.022 121.233 128.688 123.563 128.688 126.438C128.688 129.312 131.022 131.642 133.902 131.642Z" fill="#E2E8F0"/>
<path d="M97.9869 36.1903C89.9833 48.7503 77.7717 57.0856 62.7117 62.5615C62.4141 62.784 62.0755 62.9458 61.7153 63.0376C61.3551 63.1295 60.9802 63.1497 60.6122 63.0969C60.2442 63.0442 59.8901 62.9196 59.5703 62.7303C59.2505 62.541 58.9712 62.2907 58.7483 61.9937C50.5679 51.0911 52.415 35.5093 63.2115 27.1785C65.8217 25.1679 68.8061 23.6948 71.9913 22.8449C75.1765 21.995 78.4991 21.7851 81.7662 22.2274C85.0334 22.6697 88.1799 23.7554 91.0233 25.4214C93.8666 27.0875 96.3501 29.3007 98.3295 31.9327L98.5558 32.2342C98.7787 32.5313 98.9407 32.8692 99.0328 33.2288C99.1248 33.5884 99.145 33.9625 99.0922 34.3299C99.0393 34.6972 98.9145 35.0506 98.7249 35.3698C98.5352 35.689 98.2845 35.9678 97.9869 36.1903Z" fill="#E2E8F0"/>
<path d="M169.473 31.9327C171.452 29.3007 173.936 27.0875 176.779 25.4214C179.623 23.7553 182.769 22.6697 186.036 22.2274C189.303 21.7851 192.626 21.995 195.811 22.8449C198.996 23.6948 201.981 25.1679 204.591 27.1785C215.387 35.5093 217.235 51.0911 209.054 61.9937C208.831 62.2907 208.552 62.541 208.232 62.7303C207.912 62.9196 207.558 63.0442 207.19 63.0969C206.822 63.1497 206.447 63.1295 206.087 63.0376C205.727 62.9458 205.388 62.784 205.091 62.5615C191.11 57.2187 179.645 47.973 169.816 36.1903C169.215 35.741 168.817 35.0718 168.71 34.3298C168.604 33.5879 168.797 32.8341 169.247 32.2342L169.473 31.9327Z" fill="#E2E8F0"/>
<path d="M165.965 201.01C165.455 201.296 165.08 201.772 164.921 202.334C164.762 202.896 164.833 203.497 165.117 204.007L177.849 226.716C178.134 227.225 178.611 227.601 179.174 227.759C179.737 227.918 180.34 227.847 180.851 227.562C181.361 227.277 181.737 226.801 181.896 226.239C182.055 225.677 181.984 225.075 181.699 224.565L168.967 201.856C168.681 201.348 168.204 200.973 167.641 200.814C167.079 200.656 166.476 200.726 165.965 201.01Z" fill="#E2E8F0"/>
<path d="M98.835 201.856L86.1039 224.565C85.8184 225.075 85.7473 225.677 85.9063 226.239C86.0654 226.801 86.4415 227.277 86.952 227.562C87.4624 227.847 88.0655 227.918 88.6284 227.759C89.1914 227.601 89.6682 227.225 89.954 226.716L102.685 204.007C102.827 203.755 102.917 203.477 102.951 203.19C102.985 202.903 102.962 202.611 102.883 202.333C102.805 202.055 102.672 201.795 102.492 201.568C102.313 201.341 102.09 201.151 101.838 201.01C101.585 200.869 101.307 200.778 101.019 200.745C100.731 200.711 100.439 200.734 100.161 200.812C99.8818 200.891 99.6212 201.024 99.3938 201.203C99.1663 201.382 98.9765 201.604 98.8351 201.856H98.835Z" fill="#E2E8F0"/>
<path d="M180.427 232.53C184.193 232.53 187.245 229.483 187.245 225.725C187.245 221.966 184.193 218.919 180.427 218.919C176.661 218.919 173.608 221.966 173.608 225.725C173.608 229.483 176.661 232.53 180.427 232.53Z" fill="#E2E8F0"/>
<path d="M185.24 58.3782C189.006 58.3782 192.058 55.331 192.058 51.5722C192.058 47.8134 189.006 44.7663 185.24 44.7663C181.474 44.7663 178.421 47.8134 178.421 51.5722C178.421 55.331 181.474 58.3782 185.24 58.3782Z" fill="#E2E8F0"/>
<path d="M133.5 42.3642C137.266 42.3642 140.318 39.317 140.318 35.5582C140.318 31.7994 137.266 28.7523 133.5 28.7523C129.734 28.7523 126.682 31.7994 126.682 35.5582C126.682 39.317 129.734 42.3642 133.5 42.3642Z" fill="#E2E8F0"/>
<path d="M84.167 57.5775C87.9328 57.5775 90.9855 54.5304 90.9855 50.7715C90.9855 47.0127 87.9328 43.9656 84.167 43.9656C80.4013 43.9656 77.3486 47.0127 77.3486 50.7715C77.3486 54.5304 80.4013 57.5775 84.167 57.5775Z" fill="#E2E8F0"/>
<path d="M88.5792 232.53C92.3449 232.53 95.3976 229.483 95.3976 225.725C95.3976 221.966 92.3449 218.919 88.5792 218.919C84.8135 218.919 81.7607 221.966 81.7607 225.725C81.7607 229.483 84.8135 232.53 88.5792 232.53Z" fill="#E2E8F0"/>
<path d="M175.079 164.808C175.348 165.228 175.705 165.584 176.127 165.851C176.549 166.118 177.024 166.29 177.519 166.354C178.014 166.418 178.517 166.372 178.993 166.221C179.469 166.07 179.906 165.817 180.273 165.479L190.972 171.201L190.398 164.931L180.326 160.458C179.717 159.88 178.916 159.546 178.076 159.518C177.235 159.49 176.414 159.77 175.767 160.307C175.12 160.843 174.693 161.597 174.566 162.426C174.439 163.256 174.622 164.103 175.079 164.808H175.079Z" fill="#FFB7B7"/>
<path d="M182.874 166.996L187.067 161.219L207.265 170.75L232.4 166.042C233.642 165.81 234.921 165.853 236.145 166.169C237.368 166.485 238.508 167.066 239.481 167.871C240.455 168.676 241.239 169.685 241.778 170.826C242.317 171.967 242.597 173.213 242.6 174.475C242.601 176.754 241.697 178.94 240.086 180.555C238.474 182.169 236.287 183.08 234.004 183.086L205.2 183.14L182.874 166.996Z" fill="#718096"/>
<path d="M176.417 266.774L172.174 264.749L178.002 247.05L184.262 250.039L176.417 266.774Z" fill="#FFB7B7"/>
<path d="M204.856 263.92C204.547 264.113 204.239 264.303 203.927 264.493C203.307 264.872 202.681 265.245 202.055 265.612C201.74 265.796 201.422 265.979 201.107 266.16V266.169L201.089 266.172L201.082 266.175L200.603 266.294L199.914 264.477L199.596 263.641L199.147 262.456L198.325 260.288L193.994 248.873L200.727 247.215L200.98 248.245H200.983L201.107 248.755L203.46 258.279L203.94 260.226L203.955 260.285L204.245 261.448L204.494 262.456L204.772 263.581L204.856 263.92Z" fill="#FFB7B7"/>
<path d="M245.024 223.835C244.597 224.52 244.16 225.201 243.721 225.876C242.905 227.132 242.067 228.37 241.207 229.589C241.207 229.592 241.203 229.592 241.2 229.595C240.699 230.059 240.144 230.463 239.549 230.799C239.524 230.818 239.496 230.83 239.471 230.846C239.032 231.088 238.566 231.275 238.081 231.402C237.907 231.446 237.729 231.49 237.555 231.533C236.925 231.682 236.302 231.81 235.682 231.922C234.579 232.118 233.488 232.258 232.404 232.345C232.317 232.354 232.23 232.36 232.142 232.367C227.684 232.693 223.343 232.168 218.813 231.306C216.575 230.883 214.291 230.376 211.926 229.85C211.154 229.676 210.378 229.505 209.593 229.334C209.533 229.322 209.471 229.306 209.409 229.294C208.287 229.048 207.147 228.805 205.978 228.566C204.507 228.264 202.99 227.972 201.413 227.695L201.525 229.913C201.619 231.619 201.974 233.3 202.579 234.898C203.252 236.864 203.784 238.419 202.66 241.657L202.117 243.224C202.398 244.003 202.495 244.836 202.399 245.658C202.304 246.479 202.018 247.268 201.566 247.961L201.457 248.126L205.978 259.544L206.271 260.284H203.956L201.108 260.287H196.281L189.317 246.341L188.984 245.675V245.641L189.704 218.84C189.713 218.604 189.732 218.364 189.763 218.128C189.89 217.054 190.23 216.015 190.763 215.073C191.297 214.131 192.013 213.305 192.869 212.642C193.69 212.001 194.631 211.53 195.636 211.256C196.641 210.981 197.691 210.909 198.724 211.043L201.108 211.351L205.978 211.979L209.409 212.424L209.477 212.433L219.595 213.74L220.321 210.785L220.455 210.735L224.714 209.177L239.446 203.787L239.483 203.774L240.452 203.42L240.568 203.607C240.602 203.663 240.636 203.718 240.667 203.774C241.625 205.488 242.405 207.295 242.995 209.168C243.987 212.226 244.804 215.338 245.441 218.489C245.469 218.626 245.494 218.75 245.516 218.862L245.525 218.896C245.535 218.949 245.541 218.983 245.544 218.993C245.884 220.405 245.647 222.128 245.024 223.835Z" fill="#4A5568"/>
<path d="M245.646 213.959C245.599 213.759 245.54 213.557 245.477 213.361C244.983 211.877 244.406 210.422 243.751 209.001C243.016 207.384 242.134 205.651 241.084 203.776C240.576 202.867 240.03 201.923 239.445 200.942C239.152 200.451 238.848 199.95 238.532 199.44C238.52 199.417 238.506 199.394 238.492 199.372L238.401 199.222L223.825 201.169L218.397 201.894L218.073 204.594L217.995 205.262C217.992 205.262 217.992 205.262 217.995 205.266L217.777 207.088V207.091L217.487 209.498L217.462 209.495L209.408 208.453L201.107 207.38L196.648 206.805C195.615 206.671 194.565 206.743 193.56 207.017C192.555 207.292 191.614 207.763 190.793 208.404C189.937 209.067 189.221 209.893 188.687 210.835C188.154 211.777 187.814 212.816 187.687 213.89C187.659 214.108 187.64 214.332 187.631 214.553L183.424 224.502C180.907 230.453 179.304 236.748 178.669 243.176L175.584 253.02L176.024 253.06L182.561 253.667L184.287 253.828L188.089 248.289C188.522 247.658 188.933 247.008 189.316 246.342C189.947 245.255 190.508 244.129 190.996 242.971L199.219 223.438C199.854 223.547 200.484 223.651 201.107 223.75C203.989 224.216 206.756 224.597 209.408 224.891C218.029 225.852 225.495 225.927 232.141 225.112C234.008 224.885 235.812 224.586 237.554 224.216C238.192 224.082 238.823 223.938 239.445 223.784C239.591 223.75 239.735 223.715 239.878 223.678C241.166 223.346 242.35 222.698 243.321 221.792C244.293 220.885 245.022 219.75 245.44 218.49C245.94 217.03 246.011 215.458 245.646 213.959Z" fill="#4A5568"/>
<path d="M177.772 263.884L173.182 261.688L172.462 261.343L171.312 264.161L163.286 265.924C162.889 266.011 162.53 266.222 162.262 266.527C161.994 266.832 161.831 267.214 161.796 267.618C161.761 268.022 161.857 268.427 162.069 268.773C162.281 269.119 162.598 269.388 162.974 269.541L170.817 272.735L173.307 270.499L172.696 273.5L175.65 274.704L178.887 264.419L177.772 263.884Z" fill="#2D3748"/>
<path d="M205.978 259.544L206.271 260.284H205.978V259.544Z" fill="#2F2E41"/>
<path d="M204.38 260.442L199.57 262.105L198.816 262.366L199.985 265.175L195.525 272.066C195.304 272.406 195.198 272.808 195.222 273.213C195.247 273.618 195.4 274.004 195.66 274.316C195.92 274.627 196.273 274.848 196.668 274.945C197.062 275.042 197.478 275.01 197.853 274.855L205.677 271.616L205.87 268.279L207.552 270.841L210.499 269.621L205.549 260.039L204.38 260.442Z" fill="#2D3748"/>
<path d="M244.446 218.465C244.161 218.464 243.88 218.394 243.627 218.262L218.249 205.025L217.955 203.827L217.403 200.035L217.41 199.999L219.824 188.892C219.78 188.797 219.687 188.641 219.583 188.464C218.505 186.641 215.226 181.095 221.485 173.458L232.472 160.672L241.903 160.266L242.01 160.402C244.532 163.561 246.233 167.293 246.961 171.266C247.689 175.24 247.423 179.331 246.186 183.177L245.204 200.879L246.257 204.454C246.873 206.555 246.771 208.801 245.968 210.838L246.209 216.626C246.218 216.864 246.18 217.1 246.096 217.322C246.011 217.544 245.883 217.747 245.719 217.919C245.554 218.09 245.357 218.227 245.138 218.321C244.92 218.415 244.684 218.464 244.446 218.465L244.446 218.465Z" fill="#718096"/>
<path d="M222.432 233.064C222.862 232.81 223.231 232.466 223.513 232.054C223.796 231.643 223.984 231.175 224.065 230.683C224.147 230.192 224.119 229.688 223.984 229.208C223.849 228.728 223.611 228.283 223.285 227.906L229.387 217.431L223.089 217.786L218.26 227.678C217.661 228.266 217.298 229.053 217.24 229.89C217.183 230.727 217.436 231.557 217.95 232.22C218.464 232.884 219.204 233.337 220.031 233.492C220.857 233.648 221.711 233.495 222.432 233.064L222.432 233.064Z" fill="#FFB7B7"/>
<path d="M224.895 225.363L219.256 220.98L229.502 201.162L225.663 175.925C225.473 174.677 225.561 173.403 225.92 172.193C226.279 170.984 226.9 169.867 227.74 168.924C228.579 167.981 229.617 167.234 230.778 166.736C231.94 166.238 233.197 166.002 234.46 166.043C236.742 166.121 238.9 167.098 240.46 168.762C242.021 170.426 242.856 172.64 242.783 174.917L241.835 203.653L224.895 225.363Z" fill="#718096"/>
<path d="M226.423 155.358V146.043C226.421 142.733 227.737 139.557 230.08 137.215C232.424 134.873 235.603 133.556 238.92 133.554C242.236 133.552 245.418 134.865 247.764 137.204C250.111 139.543 251.43 142.717 251.433 146.027V146.043C253.636 150.628 252.258 152.807 251.433 155.358C251.432 155.803 251.255 156.228 250.94 156.543C250.625 156.857 250.199 157.033 249.754 157.034H228.103C227.658 157.034 227.231 156.857 226.916 156.543C226.601 156.229 226.424 155.803 226.423 155.358Z" fill="#2D3748"/>
<path d="M234.828 156.429C239.997 156.429 244.188 152.246 244.188 147.086C244.188 141.926 239.997 137.743 234.828 137.743C229.658 137.743 225.468 141.926 225.468 147.086C225.468 152.246 229.658 156.429 234.828 156.429Z" fill="#FFB7B7"/>
<path d="M244.624 149.535C244.539 149.522 244.454 149.504 244.369 149.491C242.909 149.232 241.449 148.978 239.994 148.715L239.86 145.422L238.096 148.372C234.073 149.704 230.309 148.951 226.768 147.289C225.6 146.736 224.467 146.112 223.375 145.422C223.672 143.6 224.374 141.868 225.429 140.352C226.483 138.836 227.864 137.574 229.47 136.66C229.604 136.584 229.733 136.517 229.867 136.45C229.868 136.45 229.868 136.45 229.869 136.45C229.869 136.449 229.87 136.449 229.87 136.449C229.871 136.448 229.871 136.448 229.871 136.447C229.871 136.447 229.872 136.446 229.872 136.446C230.099 136.339 230.331 136.236 230.564 136.143C232.381 135.433 234.363 135.254 236.279 135.625C238.195 135.995 239.966 136.901 241.387 138.237C244.244 140.96 245.53 145.457 244.624 149.535Z" fill="#2D3748"/>
</g>
<defs>
<clipPath id="clip0_125_6078">
<rect width="271" height="253" fill="white" transform="translate(22 22)"/>
</clipPath>
</defs>
</svg>
