<svg width="138" height="93" fill="none" xmlns="http://www.w3.org/2000/svg"><path d="M10.437 11.509c.056-.348.227-.71.514-1.085.26-.412.591-.764.995-1.056a4.95 4.95 0 011.194-.782c.42-.192.819-.258 1.198-.197a41.6 41.6 0 013.39.687 42.18 42.18 0 003.437.694l.948.151a275.75 275.75 0 0012.512 1.706c4.17.471 8.356 1.042 12.559 1.713l1.99.318a10.082 10.082 0 01-.178-.71c-.07-.367-.157-.737-.26-1.11-.066-.4-.137-.767-.213-1.103-.039-.363-.051-.592-.036-.687.05-.316.22-.662.506-1.037.287-.375.616-.712.987-1.009a5.646 5.646 0 011.147-.79c.42-.191.787-.262 1.103-.212.285.046.468.22.549.525a17.93 17.93 0 01.805 3.483c.192 1.23.421 2.433.687 3.61 2.044.39 4.204.865 6.48 1.422a76.87 76.87 0 016.84 1.918c2.31.758 4.549 1.65 6.718 2.677 2.206 1 4.255 2.17 6.148 3.509a27.497 27.497 0 015.05 4.597 19.85 19.85 0 013.45 5.8 27.123 27.123 0 011.573 6.279 22.314 22.314 0 01-.105 6.448c-.394 2.465-1.211 4.846-2.453 7.143a24.17 24.17 0 01-4.567 6.076 22.98 22.98 0 01-6.188 4.359 19.085 19.085 0 01-7.302 1.897c.09.24.286.742.586 1.503l1.02 2.739c.382 1.065.79 2.167 1.223 3.306.466 1.144.88 2.198 1.245 3.164.36.997.651 1.805.877 2.424.252.656.375 1 .37 1.031-.05.316-.22.662-.506 1.038a5.783 5.783 0 01-.987 1.009 4.983 4.983 0 01-1.194.781c-.42.192-.788.263-1.104.213a.519.519 0 01-.356-.203 1.57 1.57 0 01-.152-.267 52.248 52.248 0 01-3.594-8.545 660.267 660.267 0 00-2.925-8.78c-.31-.081-.878-.285-1.7-.61a23.434 23.434 0 01-2.44-1.168c-.807-.42-1.53-.86-2.17-1.319-.609-.453-.885-.854-.83-1.201.051-.316.206-.68.467-1.092.286-.376.602-.73.947-1.064a4.95 4.95 0 011.194-.782c.42-.192.787-.263 1.103-.213.222.035.417.132.586.288.17.157.342.298.516.423a83.455 83.455 0 01-1.008-3.126 50.94 50.94 0 00-1.055-3.134 31.398 31.398 0 00-2.13-4.617 106.104 106.104 0 00-2.509-4.386A63.822 63.822 0 0043.755 29.95 74.139 74.139 0 0028.83 19.305a64.813 64.813 0 00-8.794-3.98 160.907 160.907 0 00-9.176-3.117c-.342-.087-.483-.32-.423-.7zm45.012 7.914a580.523 580.523 0 003.5 13.391c1.24 4.41 2.578 8.82 4.013 13.23.247.687.46 1.386.638 2.095.21.714.438 1.414.685 2.102.777 2.036 1.525 4.05 2.243 6.045.75 2 1.393 4.062 1.929 6.19.184.061.372.107.561.138l.616.098c1.865.297 3.603.267 5.216-.091 1.65-.385 3.144-1.021 4.485-1.909a13.96 13.96 0 003.599-3.363 17.359 17.359 0 002.438-4.617l-.007.047c.366-1.076.637-2.166.814-3.272a20.217 20.217 0 00-.03-6.518 24.125 24.125 0 00-1.81-6.317c-1.144-2.58-2.811-4.823-5.002-6.728a34.391 34.391 0 00-7.341-4.866 51.946 51.946 0 00-8.404-3.383c-2.9-.917-5.614-1.674-8.143-2.272zm-1.453 13.67a648.57 648.57 0 01-1.992-7.318c-.611-2.463-1.22-4.942-1.826-7.437-2.102-.432-4.26-.825-6.472-1.178a162.81 162.81 0 00-5.56-.79 336.959 336.959 0 00-5.569-.744 73.821 73.821 0 0111.558 7.678 66.715 66.715 0 019.86 9.789zm37.565 9.982a5.044 5.044 0 012.197-1.886c.166-.232.37-.492.61-.777.245-.318.517-.598.815-.842.303-.276.614-.502.934-.677.32-.176.643-.27.969-.283l.19.03c.252.04.456.186.61.438l-.08-.11a23.867 23.867 0 001.67 2.94 33.344 33.344 0 001.999 2.7 52.989 52.989 0 013.147 4.343 14.63 14.63 0 012.133 4.91 8.59 8.59 0 01.2 2.705 9.555 9.555 0 01-.613 2.624 4.218 4.218 0 01-.436.903c-.14.269-.312.533-.515.792l.538.28c.185.063.351.138.499.226a27.83 27.83 0 013.787 2.16 32.923 32.923 0 013.696 2.729 35.94 35.94 0 013.336 3.157 32.931 32.931 0 012.816 3.366c.133.183.184.37.154.56-.035.22-.1.42-.193.6-.109.275-.301.568-.578.88-.277.313-.58.588-.91.827-.334.27-.693.489-1.076.655-.383.165-.733.223-1.049.173a.519.519 0 01-.356-.203c-1.912-2.639-3.987-4.865-6.225-6.68-2.238-1.816-4.803-3.408-7.695-4.778l-.095-.015c.005-.031-.008-.05-.04-.055a23268.44 23268.44 0 00.744 2.647.933.933 0 01-.113.71 3.317 3.317 0 01-.343.627c-.13.206-.329.433-.595.682-.267.25-.562.478-.887.685a3.139 3.139 0 01-.912.535c-.315.144-.598.196-.851.156a.65.65 0 01-.556-.478c-.296-.987-.579-1.956-.848-2.906a93.859 93.859 0 00-.809-2.851c-.986-3.365-1.974-6.715-2.965-10.049-.954-3.36-1.89-6.734-2.808-10.121a.935.935 0 01.114-.711c.135-.238.265-.444.39-.618zm5.54 4.578c.71 2.447 1.409 4.875 2.093 7.285a684.12 684.12 0 012.054 7.23c.079-.084.201-.243.368-.476.172-.264.297-.438.375-.523a1.08 1.08 0 00.18-.214l.015-.095c.037-.027.058-.056.063-.087a.66.66 0 00.093-.277c-.005.031.018-.014.07-.135a.759.759 0 00.06-.38 2.28 2.28 0 01.116-.418c.042-.058.054-.137.038-.237l.038-.237.053-.332c.005-.032-.009-.05-.04-.055l.015-.095.007-.047a14.86 14.86 0 00-.313-1.994 7.142 7.142 0 00-.621-1.898 18.725 18.725 0 00-2.14-3.647 130.726 130.726 0 00-2.524-3.368zm19.239.155c.634-.515 1.385-.962 2.256-1.341.876-.412 1.743-.565 2.601-.46.411.065.748.184 1.013.356.237.135.359.284.366.447.043.137.044.331.004.584.576.449 1.149 1.123 1.718 2.024a26.489 26.489 0 011.742 3.097 33.679 33.679 0 011.556 3.651 39.38 39.38 0 011.273 3.898c.382 1.26.675 2.473.877 3.64.208 1.134.31 2.123.305 2.965.012.941-.143 1.808-.464 2.6a5.077 5.077 0 01-1.038 1.632 7.04 7.04 0 01-1.617 1.297c-.576.362-1.2.619-1.873.77a5.135 5.135 0 01-1.956.077c-1.169-.186-2.257-.781-3.264-1.785a17.82 17.82 0 01-2.699-3.493 27.323 27.323 0 01-2.017-4.113c-.551-1.417-.972-2.634-1.264-3.653a26.97 26.97 0 01-.647-3.554 17.08 17.08 0 01.093-3.631 6.568 6.568 0 011.03-2.8 9.375 9.375 0 012.005-2.208zm1.137 3.535l-.022.142c.026.037.035.087.024.15l-.015.095c-.062 2.42.341 4.867 1.211 7.338.869 2.472 2.007 4.68 3.415 6.621a18.038 18.038 0 001.631 1.962c.556.575 1.248 1.01 2.076 1.304-.056-1.273-.257-2.65-.604-4.131a36.336 36.336 0 00-1.325-4.49 41.146 41.146 0 00-1.844-4.28c-.683-1.405-1.407-2.654-2.173-3.749-.212-.293-.44-.588-.684-.887a2.545 2.545 0 00-.897-.775 4.74 4.74 0 00-.317-.148 1.403 1.403 0 00-.324-.1c-.037.027-.063.087-.078.182l-.06.38c.011.13.007.26-.014.386z" fill="#8B8B8B"/></svg>