<svg width="64" height="64" viewBox="0 0 64 64" fill="none" xmlns="http://www.w3.org/2000/svg">
<g clip-path="url(#clip0_1638_3076)">
<path d="M57.4508 10.0263L28.0613 2.00292C26.0324 1.44902 23.9469 2.67578 23.4033 4.74296L11.5909 49.6585C11.0473 51.7257 12.2513 53.8505 14.2803 54.4044L43.6697 62.4278C45.6987 62.9817 47.7841 61.7549 48.3278 59.6877L60.1401 14.7722C60.6838 12.705 59.4797 10.5802 57.4508 10.0263Z" fill="#85A7C6"/>
<path d="M27.4898 8.69727L53.1505 15.6693L52.6594 17.5279L26.9986 10.5558L27.4898 8.69727ZM26.2619 13.3437L32.1836 14.9527L31.6925 16.8112L25.7708 15.2023L26.2619 13.3437Z" fill="#5D879E"/>
<path d="M25.5922 14.4688L51.253 21.4408L50.7618 23.2994L25.1011 16.3273L25.5922 14.4688ZM24.3644 19.1152L30.2861 20.7242L29.795 22.5827L23.8733 20.9738L24.3644 19.1152Z" fill="#5D879E"/>
<path d="M18.9508 25.0508L44.6115 32.0229L44.1203 33.8814L18.4596 26.9094L18.9508 25.0508ZM17.7229 29.6972L23.6446 31.3062L23.1535 33.1647L17.2318 31.5558L17.7229 29.6972Z" fill="#5D879E"/>
<path d="M19.8995 32.748L45.5602 39.7201L45.069 41.5787L19.4083 34.6066L19.8995 32.748ZM18.6716 37.3945L24.5933 39.0035L24.1022 40.862L18.1805 39.253L18.6716 37.3945Z" fill="#5D879E"/>
<path d="M18.0019 39.4824L43.6626 46.4545L43.1715 48.3131L17.5108 41.341L18.0019 39.4824ZM16.7741 44.1288L22.6958 45.7378L22.2047 47.5964L16.283 45.9875L16.7741 44.1288Z" fill="#5D879E"/>
<path d="M10.6066 12.625C12.707 12.625 14.4098 10.8901 14.4098 8.75V1H37.2295C39.33 1 41.0328 2.7349 41.0328 4.875V51.375C41.0328 53.5151 39.33 55.25 37.2295 55.25H6.80328C4.70278 55.25 3 53.5151 3 51.375V12.625H10.6066Z" fill="#E9EBFB"/>
<path d="M8.70492 6.8125L14.4098 1V8.75C14.4098 10.8901 12.707 12.625 10.6066 12.625H3L8.70492 6.8125Z" fill="#B4DFFF"/>
<mask id="mask0_1638_3076" style="mask-type:alpha" maskUnits="userSpaceOnUse" x="3" y="1" width="39" height="55">
<path d="M10.6066 12.625C12.707 12.625 14.4098 10.8901 14.4098 8.75V1H37.2295C39.33 1 41.0328 2.7349 41.0328 4.875V51.375C41.0328 53.5151 39.33 55.25 37.2295 55.25H6.80328C4.70278 55.25 3 53.5151 3 51.375V12.625H10.6066Z" fill="#EEF1FA"/>
</mask>
<g mask="url(#mask0_1638_3076)">
<g filter="url(#filter0_f_1638_3076)">
<path d="M57.4508 10.0263L28.0613 2.00292C26.0324 1.44902 23.947 2.67578 23.4033 4.74296L11.591 49.6585C11.0473 51.7257 12.2514 53.8505 14.2803 54.4044L43.6698 62.4278C45.6987 62.9817 47.7842 61.7549 48.3278 59.6877L60.1402 14.7722C60.6838 12.705 59.4797 10.5802 57.4508 10.0263Z" fill="#A1D7FF" fill-opacity="0.4"/>
</g>
</g>
<path d="M8.70492 6.8125L14.4098 1V8.75C14.4098 10.8901 12.707 12.625 10.6066 12.625H3L8.70492 6.8125Z" fill="#7BA5BC"/>
<mask id="mask1_1638_3076" style="mask-type:alpha" maskUnits="userSpaceOnUse" x="3" y="1" width="39" height="55">
<path d="M10.6066 12.625C12.707 12.625 14.4098 10.8901 14.4098 8.75V1H37.2295C39.33 1 41.0328 2.7349 41.0328 4.875V51.375C41.0328 53.5151 39.33 55.25 37.2295 55.25H6.80328C4.70278 55.25 3 53.5151 3 51.375V12.625H10.6066Z" fill="#EEF1FA"/>
</mask>
<g mask="url(#mask1_1638_3076)">
<g filter="url(#filter1_f_1638_3076)">
<path d="M57.4508 10.0263L28.0613 2.00292C26.0324 1.44902 23.947 2.67578 23.4033 4.74296L11.591 49.6585C11.0473 51.7257 12.2514 53.8505 14.2803 54.4044L43.6698 62.4278C45.6987 62.9817 47.7842 61.7549 48.3278 59.6877L60.1402 14.7722C60.6838 12.705 59.4797 10.5802 57.4508 10.0263Z" fill="#85B4CD" fill-opacity="0.4"/>
</g>
</g>
<path d="M21.9756 47.0186C27.6523 47.0186 32.2541 42.3523 32.2541 36.5962C32.2541 30.8401 27.6523 26.1738 21.9756 26.1738C16.2989 26.1738 11.6971 30.8401 11.6971 36.5962C11.6971 42.3523 16.2989 47.0186 21.9756 47.0186Z" stroke="#7BA5BC" stroke-width="2" stroke-linecap="round" stroke-linejoin="round"/>
<path d="M25.0592 33.4688L18.8921 39.7221" stroke="#7BA5BC" stroke-width="2" stroke-linecap="round" stroke-linejoin="round"/>
<path d="M18.8921 33.4688L25.0592 39.7221" stroke="#7BA5BC" stroke-width="2" stroke-linecap="round" stroke-linejoin="round"/>
<path d="M8.69272 17.3555H35.2586V19.2796H8.69272V17.3555ZM8.69272 22.1658H14.8233V24.0899H8.69272V22.1658Z" fill="#7BA5BC"/>
<path d="M33.1714 10.6211H35.2588V12.5452H33.1714V10.6211ZM28.9968 10.6211H31.0841V12.5452H28.9968V10.6211ZM24.8221 10.6211H26.9094V12.5452H24.8221V10.6211Z" fill="#7BA5BC"/>
</g>
<defs>
<filter id="filter0_f_1638_3076" x="-0.539551" y="-10.1309" width="72.8102" height="84.6914" filterUnits="userSpaceOnUse" color-interpolation-filters="sRGB">
<feFlood flood-opacity="0" result="BackgroundImageFix"/>
<feBlend mode="normal" in="SourceGraphic" in2="BackgroundImageFix" result="shape"/>
<feGaussianBlur stdDeviation="6" result="effect1_foregroundBlur_1638_3076"/>
</filter>
<filter id="filter1_f_1638_3076" x="-0.539551" y="-10.1309" width="72.8102" height="84.6914" filterUnits="userSpaceOnUse" color-interpolation-filters="sRGB">
<feFlood flood-opacity="0" result="BackgroundImageFix"/>
<feBlend mode="normal" in="SourceGraphic" in2="BackgroundImageFix" result="shape"/>
<feGaussianBlur stdDeviation="6" result="effect1_foregroundBlur_1638_3076"/>
</filter>
<clipPath id="clip0_1638_3076">
<rect width="58" height="62" fill="white" transform="translate(3 1)"/>
</clipPath>
</defs>
</svg>
