<svg width="64" height="64" viewBox="0 0 64 64" fill="none" xmlns="http://www.w3.org/2000/svg">
<g clip-path="url(#clip0_1632_11294)">
<path d="M57.3312 27.8256C55.8644 26.7417 53.8379 27.1107 52.8049 28.65L46.8813 37.4771C46.8046 37.5898 46.7162 37.6936 46.6176 37.7865L46.4297 37.9474L46.7734 38.3027H48.3655L58.4154 31.5999L58.7054 30.9673C58.7332 29.8238 58.2547 28.5079 57.3312 27.8256Z" fill="#FFCEBE"/>
<path d="M56.5191 28.65C56.7359 28.3259 57.006 28.0435 57.317 27.8156C55.8512 26.7444 53.8346 27.1157 52.8049 28.65L46.8813 37.4771C46.8046 37.5899 46.7162 37.6936 46.6176 37.7865L46.4297 37.9475L46.7734 38.3027H48.3655L51.3991 36.2794L56.5191 28.65Z" fill="#FFB1A0"/>
<path d="M59.6224 4H28.5635C26.4843 4 24.7988 5.69823 24.7988 7.7931V26.7586C24.7988 28.8535 26.4843 30.5517 28.5635 30.5517H59.6224C61.7015 30.5517 63.3871 28.8535 63.3871 26.7586V7.7931C63.3871 5.69823 61.7015 4 59.6224 4Z" fill="#E9ECF7"/>
<mask id="mask0_1632_11294" style="mask-type:alpha" maskUnits="userSpaceOnUse" x="24" y="4" width="40" height="27">
<path d="M60.5635 4H27.6224C26.063 4 24.7988 5.27367 24.7988 6.84483V27.7069C24.7988 29.2781 26.063 30.5517 27.6224 30.5517H60.5635C62.1229 30.5517 63.3871 29.2781 63.3871 27.7069V6.84483C63.3871 5.27367 62.1229 4 60.5635 4Z" fill="#BDC2D3"/>
</mask>
<g mask="url(#mask0_1632_11294)">
<g filter="url(#filter0_f_1632_11294)">
<path d="M57.3312 27.8256C55.8644 26.7417 53.8379 27.1107 52.8049 28.65L46.8813 37.4771C46.8046 37.5898 46.7162 37.6936 46.6176 37.7865L46.4297 37.9474L46.7734 38.3027H48.3655L58.4154 31.5999L58.7054 30.9673C58.7332 29.8238 58.2547 28.5079 57.3312 27.8256Z" fill="#FFCEBE"/>
</g>
<g filter="url(#filter1_f_1632_11294)">
<path d="M56.5191 28.65C56.7359 28.3259 57.006 28.0435 57.317 27.8156C55.8512 26.7444 53.8346 27.1157 52.8049 28.65L46.8813 37.4771C46.8046 37.5899 46.7162 37.6936 46.6176 37.7865L46.4297 37.9475L46.7734 38.3027H48.3655L51.3991 36.2794L56.5191 28.65Z" fill="#FFB1A0"/>
</g>
</g>
<path d="M41.4799 26.2634H27.8477V24.2535H41.4799V26.2634ZM41.4799 22.2437H39.5325V18.224H41.4799V22.2437ZM37.5851 22.2437H35.6376V18.224H37.5851V22.2437ZM33.6901 22.2437H31.7426V18.224H33.6901V22.2437ZM29.7951 22.2437H27.8477V18.224H29.7951V22.2437Z" fill="#8FB9D0"/>
<path d="M57.9957 22.2437H56.0482V18.224H57.9957V22.2437ZM54.1007 22.2437H52.1532V18.224H54.1007V22.2437ZM50.2057 22.2437H48.2582V18.224H50.2057V22.2437ZM46.3108 22.2437H44.3633V18.224H46.3108V22.2437Z" fill="#8FB9D0"/>
<path d="M31.386 13.4827C32.9454 13.4827 34.2096 12.2091 34.2096 10.6379C34.2096 9.06676 32.9454 7.79309 31.386 7.79309C29.8266 7.79309 28.5625 9.06676 28.5625 10.6379C28.5625 12.2091 29.8266 13.4827 31.386 13.4827Z" fill="#8FB9D0"/>
<path d="M35.1519 12.5344C36.1915 12.5344 37.0342 11.6853 37.0342 10.6379C37.0342 9.59045 36.1915 8.74133 35.1519 8.74133C34.1123 8.74133 33.2695 9.59045 33.2695 10.6379C33.2695 11.6853 34.1123 12.5344 35.1519 12.5344Z" stroke="#8FB9D0" stroke-width="2"/>
<path d="M61.6002 32.4722C60.5856 30.883 58.5011 30.4874 57.005 31.5768L48.6094 37.6896C48.2351 37.9621 47.7785 38.0862 47.323 38.0395L41.1791 37.4071C41.1357 37.4027 41.1328 37.337 41.1761 37.3299C42.7097 37.0777 43.9621 35.8103 44.1586 34.1437C44.3908 32.1745 43.0605 30.371 41.1531 30.0697L26.7184 27.7888C25.0866 27.5306 23.4215 27.9347 22.0717 28.9167L14.3584 34.5327L13.9336 36.1094L21.5803 47.4259H23.195C26.3216 45.5759 29.8702 44.6237 33.4727 44.6682L46.4797 44.8319C48.7112 44.8897 50.9016 44.2039 52.7269 42.8759L60.6966 37.0731C62.1342 36.0266 62.5666 33.986 61.6002 32.4722Z" fill="#FFDECF"/>
<path d="M21.4605 36.8732C21.171 36.4446 21.0575 35.9151 21.145 35.4004C21.2323 34.8857 21.5135 34.4277 21.9268 34.1267L29.0823 28.9167C29.3984 28.687 29.7341 28.4876 30.0851 28.3209L26.7183 27.7888C25.0866 27.5306 23.4215 27.9347 22.0717 28.9167L14.3584 34.5327L13.9336 36.1094L21.5802 47.4259H23.195C24.5059 46.6514 25.8966 46.031 27.3411 45.5764L21.4605 36.8732Z" fill="#FFCEBE"/>
<path d="M35.0456 36.8721L41.1466 37.3758C41.1427 37.356 41.1509 37.3339 41.1753 37.3301C41.6968 37.2439 42.1933 37.0397 42.6295 36.7321C43.0656 36.4244 43.4306 36.021 43.6983 35.5506C43.6822 35.5483 43.6663 35.5453 43.6497 35.544L35.202 34.8467C34.6603 34.8008 34.187 35.2192 34.1437 35.7786C34.1335 35.9116 34.1486 36.0454 34.1884 36.1723C34.2282 36.2993 34.2917 36.4169 34.3755 36.5184C34.4592 36.62 34.5614 36.7035 34.6764 36.7642C34.7915 36.8249 34.9168 36.8616 35.0456 36.8721Z" fill="#FFCEBE"/>
<path d="M24.0979 48.7456L13.4169 33.1616C12.9512 32.4821 12.0338 32.3264 11.3677 32.814L8.25195 35.0948V36.4768L19.5686 52.6428L20.6193 53.1393L23.7351 50.8586C24.4013 50.3711 24.5636 49.425 24.0979 48.7456Z" fill="#A1D7FF"/>
<path d="M14.979 35.4406L13.4169 33.1616C12.9512 32.4821 12.0338 32.3264 11.3677 32.814L8.25195 35.0946V36.4767L10.0515 39.0474L14.979 35.4406Z" fill="#81B7E0"/>
<path d="M8.2527 35.0947L0.648285 40.6609C-0.0310763 41.1583 -0.204256 42.1122 0.261333 42.7916L10.9423 58.3756C11.408 59.055 12.3363 59.2027 13.0156 58.7055L20.62 53.1393L8.2527 35.0947Z" fill="#A3CDE4"/>
<path d="M6.25991 43.6709C5.7942 42.9915 6.05073 41.9765 6.83303 41.4039L10.658 38.6041L8.2527 35.0947L0.648285 40.6609C-0.0310763 41.1583 -0.204256 42.1122 0.261333 42.7916L10.9423 58.3756C11.408 59.055 12.3363 59.2027 13.0156 58.7055L15.3788 56.9758L6.25991 43.6709Z" fill="#8FB9D0"/>
</g>
<defs>
<filter id="filter0_f_1632_11294" x="38.4297" y="19.2036" width="28.2773" height="27.099" filterUnits="userSpaceOnUse" color-interpolation-filters="sRGB">
<feFlood flood-opacity="0" result="BackgroundImageFix"/>
<feBlend mode="normal" in="SourceGraphic" in2="BackgroundImageFix" result="shape"/>
<feGaussianBlur stdDeviation="4" result="effect1_foregroundBlur_1632_11294"/>
</filter>
<filter id="filter1_f_1632_11294" x="38.4297" y="19.2039" width="26.8867" height="27.0989" filterUnits="userSpaceOnUse" color-interpolation-filters="sRGB">
<feFlood flood-opacity="0" result="BackgroundImageFix"/>
<feBlend mode="normal" in="SourceGraphic" in2="BackgroundImageFix" result="shape"/>
<feGaussianBlur stdDeviation="4" result="effect1_foregroundBlur_1632_11294"/>
</filter>
<clipPath id="clip0_1632_11294">
<rect width="64" height="55" fill="white" transform="translate(0 4)"/>
</clipPath>
</defs>
</svg>
