<svg width="64" height="64" viewBox="0 0 64 64" fill="none" xmlns="http://www.w3.org/2000/svg">
<g clip-path="url(#clip0_1632_21537)">
<path d="M7 17.0008L7 55.5723H46.1305V17.0008H7Z" fill="#A0D8A7"/>
<path d="M22.2171 14.8571C24.6183 14.8571 26.5649 12.9383 26.5649 10.5714V2H52.652C55.0531 2 56.9997 3.91878 56.9997 6.28571V57.7143C56.9997 60.0811 55.0531 62 52.652 62H17.8694C15.4681 62 13.5215 60.0811 13.5215 57.7143V14.8571H22.2171Z" fill="#E9FBED"/>
<mask id="mask0_1632_21537" style="mask-type:alpha" maskUnits="userSpaceOnUse" x="13" y="2" width="44" height="60">
<path d="M22.2171 14.8571C24.6183 14.8571 26.5649 12.9383 26.5649 10.5714V2H52.652C55.0531 2 56.9997 3.91878 56.9997 6.28571V57.7143C56.9997 60.0811 55.0531 62 52.652 62H17.8694C15.4681 62 13.5215 60.0811 13.5215 57.7143V14.8571H22.2171Z" fill="#E9FBED"/>
</mask>
<g mask="url(#mask0_1632_21537)">
<g filter="url(#filter0_f_1632_21537)">
<path d="M7 17.0008L7 55.5723H46.1305V17.0008H7Z" fill="#A0D8A7" fill-opacity="0.4"/>
</g>
</g>
<path d="M20.0293 20.0879H50.3989V22.2159H20.0293V20.0879ZM20.0293 25.4081H24.8637V27.5361H20.0293V25.4081Z" fill="#78B07F"/>
<path d="M20.043 48.0723H50.4126V50.2004H20.043V48.0723ZM20.043 53.3925H41.1818V55.5206H20.043V53.3925Z" fill="#78B07F"/>
<path d="M20.043 37.3574H23.2386V39.4855H20.043V37.3574ZM20.043 42.6776H27.0514V44.8057H20.043V42.6776Z" fill="#78B07F"/>
<path d="M50.9644 37.3574H45.5949V39.4855H50.9644V37.3574ZM50.9644 42.6776H42.8691V44.8057H50.9644V42.6776Z" fill="#78B07F"/>
<path d="M43.957 12.7148H50.9654V14.8429H43.957V12.7148Z" fill="#78B07F"/>
<path d="M43.7194 28.2714C43.7023 28.1497 43.6496 28.0356 43.5679 27.9431C43.4863 27.8508 43.3791 27.7839 43.2595 27.751L35.4307 25.5953C35.3191 25.5646 35.2011 25.5646 35.0895 25.5953L27.2607 27.751C27.1412 27.7839 27.034 27.8507 26.9522 27.9431C26.8705 28.0356 26.8179 28.1497 26.8008 28.2714C26.7554 28.5947 25.7195 36.2331 28.3765 40.0329C31.0303 43.8282 34.9453 44.8008 35.1106 44.8404C35.2089 44.8639 35.3114 44.8639 35.4095 44.8404C35.575 44.8008 39.4899 43.8282 42.1438 40.0329C44.8007 36.2331 43.7648 28.5948 43.7194 28.2714ZM40.3087 32.7308L34.9687 38.0179C34.8444 38.141 34.6815 38.2025 34.5186 38.2025C34.3557 38.2025 34.1927 38.1411 34.0685 38.0179L30.7668 34.7489C30.7076 34.6904 30.6607 34.621 30.6288 34.5445C30.5968 34.468 30.5802 34.386 30.5802 34.3032C30.5802 34.2205 30.5968 34.1386 30.6288 34.0621C30.6607 33.9856 30.7076 33.9162 30.7668 33.8576L31.4223 33.2086C31.5418 33.0904 31.7036 33.024 31.8724 33.024C32.0413 33.024 32.2031 33.0904 32.3225 33.2086L34.5186 35.3829L38.7529 31.1903C38.812 31.1318 38.8821 31.0853 38.9595 31.0536C39.0367 31.022 39.1195 31.0056 39.203 31.0056C39.2866 31.0056 39.3694 31.022 39.4467 31.0536C39.5239 31.0853 39.594 31.1318 39.6531 31.1903L40.3087 31.8394C40.3678 31.8979 40.4146 31.9674 40.4467 32.0439C40.4787 32.1204 40.4951 32.2023 40.4951 32.2851C40.4951 32.3678 40.4787 32.4498 40.4467 32.5263C40.4146 32.6028 40.3678 32.6722 40.3087 32.7308Z" fill="#78B07F"/>
<path d="M20.0432 8.42857L26.5649 2V10.5714C26.5649 12.9383 24.6183 14.8571 22.2171 14.8571H13.5215L20.0432 8.42857Z" fill="#A0D8A7"/>
</g>
<defs>
<filter id="filter0_f_1632_21537" x="-5" y="5" width="63.1309" height="62.5723" filterUnits="userSpaceOnUse" color-interpolation-filters="sRGB">
<feFlood flood-opacity="0" result="BackgroundImageFix"/>
<feBlend mode="normal" in="SourceGraphic" in2="BackgroundImageFix" result="shape"/>
<feGaussianBlur stdDeviation="6" result="effect1_foregroundBlur_1632_21537"/>
</filter>
<clipPath id="clip0_1632_21537">
<rect width="50" height="60" fill="white" transform="translate(7 2)"/>
</clipPath>
</defs>
</svg>
