<svg width="64" height="64" viewBox="0 0 64 64" fill="none" xmlns="http://www.w3.org/2000/svg">
<g clip-path="url(#clip0_1632_2939)">
<path d="M7 17L7 55.5714H46.1305V17H7Z" fill="#A1D7FF"/>
<path d="M22.2175 14.8571C24.6187 14.8571 26.5653 12.9383 26.5653 10.5714V2H52.6523C55.0535 2 57.0001 3.91878 57.0001 6.28571V57.7143C57.0001 60.0811 55.0535 62 52.6523 62H17.8697C15.4684 62 13.5219 60.0811 13.5219 57.7143V14.8571H22.2175Z" fill="#E9EDFB"/>
<mask id="mask0_1632_2939" style="mask-type:alpha" maskUnits="userSpaceOnUse" x="13" y="2" width="45" height="60">
<path d="M22.2175 14.8571C24.6187 14.8571 26.5653 12.9383 26.5653 10.5714V2H52.6523C55.0535 2 57.0001 3.91878 57.0001 6.28571V57.7143C57.0001 60.0811 55.0535 62 52.6523 62H17.8697C15.4684 62 13.5219 60.0811 13.5219 57.7143V14.8571H22.2175Z" fill="#EEF1FA"/>
</mask>
<g mask="url(#mask0_1632_2939)">
<g filter="url(#filter0_f_1632_2939)">
<path d="M7 17L7 55.5714H46.1305V17H7Z" fill="#A1D7FF" fill-opacity="0.5"/>
</g>
</g>
<path d="M20.0296 20.0887H50.3992V22.2167H20.0296V20.0887ZM20.0296 25.4089H24.864V27.5369H20.0296V25.4089Z" fill="#8FB9D0"/>
<path d="M20.0436 48.0714H50.4133V50.1995H20.0436V48.0714ZM20.0436 53.3916H41.1825V55.5197H20.0436V53.3916Z" fill="#8FB9D0"/>
<path d="M20.0436 37.3571H23.2393V39.4852H20.0436V37.3571ZM20.0436 42.6773H27.0521V44.8054H20.0436V42.6773Z" fill="#8FB9D0"/>
<path d="M50.965 37.3571H45.5955V39.4852H50.965V37.3571ZM50.965 42.6773H42.8697V44.8054H50.965V42.6773Z" fill="#8FB9D0"/>
<path d="M43.9565 12.7143H50.9649V14.8424H43.9565V12.7143Z" fill="#8FB9D0"/>
<path d="M43.7203 28.2706C43.7032 28.1489 43.6505 28.0348 43.5688 27.9423C43.4871 27.8499 43.3799 27.7831 43.2603 27.7501L35.4316 25.5945C35.3199 25.5637 35.2019 25.5637 35.0904 25.5945L27.2616 27.7501C27.142 27.7831 27.0348 27.8498 26.9531 27.9423C26.8714 28.0348 26.8188 28.1489 26.8017 28.2706C26.7563 28.5938 25.7203 36.2322 28.3773 40.032C31.0312 43.8273 34.9462 44.7999 35.1115 44.8395C35.2097 44.8631 35.3122 44.8631 35.4104 44.8395C35.5759 44.7999 39.4908 43.8273 42.1446 40.032C44.8016 36.2323 43.7657 28.5939 43.7203 28.2706ZM40.3095 32.7299L34.9695 38.0171C34.8452 38.1401 34.6823 38.2016 34.5194 38.2016C34.3566 38.2016 34.1936 38.1402 34.0693 38.0171L30.7676 34.748C30.7085 34.6895 30.6616 34.6201 30.6296 34.5436C30.5976 34.4671 30.5811 34.3851 30.5811 34.3024C30.5811 34.2196 30.5976 34.1377 30.6296 34.0612C30.6616 33.9848 30.7085 33.9153 30.7676 33.8568L31.4232 33.2077C31.5426 33.0895 31.7044 33.0231 31.8733 33.0231C32.0421 33.0231 32.204 33.0895 32.3234 33.2077L34.5194 35.382L38.7538 31.1894C38.8129 31.131 38.883 31.0845 38.9603 31.0528C39.0375 31.0211 39.1203 31.0048 39.2039 31.0048C39.2874 31.0048 39.3702 31.0211 39.4475 31.0528C39.5247 31.0845 39.5948 31.131 39.654 31.1894L40.3095 31.8386C40.3687 31.8971 40.4155 31.9666 40.4475 32.0431C40.4795 32.1195 40.496 32.2014 40.496 32.2842C40.496 32.367 40.4795 32.449 40.4475 32.5254C40.4155 32.6019 40.3687 32.6713 40.3095 32.7299Z" fill="#8FB9D0"/>
<path d="M20.0436 8.42857L26.5653 2V10.5714C26.5653 12.9383 24.6187 14.8571 22.2175 14.8571H13.5219L20.0436 8.42857Z" fill="#B4DFFF"/>
</g>
<defs>
<filter id="filter0_f_1632_2939" x="-5" y="5" width="63.1305" height="62.5714" filterUnits="userSpaceOnUse" color-interpolation-filters="sRGB">
<feFlood flood-opacity="0" result="BackgroundImageFix"/>
<feBlend mode="normal" in="SourceGraphic" in2="BackgroundImageFix" result="shape"/>
<feGaussianBlur stdDeviation="6" result="effect1_foregroundBlur_1632_2939"/>
</filter>
<clipPath id="clip0_1632_2939">
<rect width="50" height="60" fill="white" transform="translate(7 2)"/>
</clipPath>
</defs>
</svg>
