<svg width="64" height="55" viewBox="0 0 64 55" fill="none" xmlns="http://www.w3.org/2000/svg">
<g clip-path="url(#clip0_1638_3130)">
<path d="M57.3305 23.8252C55.8637 22.7412 53.8371 23.1102 52.8042 24.6495L46.8805 33.4766C46.8038 33.5894 46.7154 33.6931 46.6169 33.786L46.429 33.947L46.7727 34.3022H48.3648L58.4146 27.5994L58.7046 26.9668C58.7325 25.8233 58.254 24.5074 57.3305 23.8252Z" fill="#FFCEBE"/>
<path d="M56.5184 24.6493C56.7351 24.3251 57.0052 24.0427 57.3163 23.8149C55.8505 22.7437 53.8338 23.1149 52.8042 24.6493L46.8805 33.4764C46.8038 33.5891 46.7154 33.6929 46.6169 33.7858L46.429 33.9467L46.7727 34.3019H48.3648L51.3984 32.2787L56.5184 24.6493Z" fill="#FFB1A0"/>
<path d="M59.6216 0H28.5628C26.4836 0 24.7981 1.69823 24.7981 3.7931V22.7586C24.7981 24.8535 26.4836 26.5517 28.5628 26.5517H59.6216C61.7008 26.5517 63.3863 24.8535 63.3863 22.7586V3.7931C63.3863 1.69823 61.7008 0 59.6216 0Z" fill="#E9ECF7"/>
<mask id="mask0_1638_3130" style="mask-type:alpha" maskUnits="userSpaceOnUse" x="24" y="0" width="40" height="27">
<path d="M60.5628 0H27.6216C26.0622 0 24.7981 1.27367 24.7981 2.84483V23.7069C24.7981 25.2781 26.0622 26.5517 27.6216 26.5517H60.5628C62.1222 26.5517 63.3863 25.2781 63.3863 23.7069V2.84483C63.3863 1.27367 62.1222 0 60.5628 0Z" fill="#E9EBFB"/>
</mask>
<g mask="url(#mask0_1638_3130)">
<g filter="url(#filter0_f_1638_3130)">
<path d="M57.3304 23.8252C55.8636 22.7412 53.837 23.1102 52.8041 24.6495L46.8804 33.4766C46.8037 33.5894 46.7153 33.6931 46.6168 33.786L46.4288 33.947L46.7726 34.3022H48.3646L58.4145 27.5994L58.7045 26.9668C58.7324 25.8233 58.2539 24.5074 57.3304 23.8252Z" fill="#FFCEBE"/>
</g>
<g filter="url(#filter1_f_1638_3130)">
<path d="M56.5182 24.6493C56.735 24.3251 57.0051 24.0427 57.3162 23.8149C55.8504 22.7437 53.8337 23.1149 52.8041 24.6493L46.8804 33.4764C46.8037 33.5891 46.7153 33.6929 46.6168 33.7858L46.4288 33.9467L46.7726 34.3019H48.3646L51.3982 32.2787L56.5182 24.6493Z" fill="#FFB1A0"/>
</g>
</g>
<path d="M41.4796 22.264H27.8473V20.2541H41.4796V22.264ZM41.4796 18.2443H39.5322V14.2246H41.4796V18.2443ZM37.5847 18.2443H35.6372V14.2246H37.5847V18.2443ZM33.6897 18.2443H31.7423V14.2246H33.6897V18.2443ZM29.7948 18.2443H27.8473V14.2246H29.7948V18.2443Z" fill="#85A7C6"/>
<path d="M57.9964 18.2444H56.0489V14.2246H57.9964V18.2444ZM54.1014 18.2444H52.1539V14.2246H54.1014V18.2444ZM50.2065 18.2444H48.259V14.2246H50.2065V18.2444ZM46.3115 18.2444H44.364V14.2246H46.3115V18.2444Z" fill="#85A7C6"/>
<path d="M31.3864 9.48262C32.9458 9.48262 34.2099 8.20895 34.2099 6.6378C34.2099 5.06664 32.9458 3.79297 31.3864 3.79297C29.827 3.79297 28.5629 5.06664 28.5629 6.6378C28.5629 8.20895 29.827 9.48262 31.3864 9.48262Z" fill="#85A7C6"/>
<path d="M35.151 8.53529C36.1906 8.53529 37.0334 7.68618 37.0334 6.63874C37.0334 5.5913 36.1906 4.74219 35.151 4.74219C34.1114 4.74219 33.2687 5.5913 33.2687 6.63874C33.2687 7.68618 34.1114 8.53529 35.151 8.53529Z" stroke="#85A7C6" stroke-width="2"/>
<path d="M61.5995 28.4725C60.5849 26.8832 58.5004 26.4876 57.0043 27.577L48.6086 33.6899C48.2344 33.9623 47.7778 34.0864 47.3222 34.0397L41.1784 33.4074C41.1349 33.4029 41.1321 33.3372 41.1754 33.3301C42.709 33.078 43.9614 31.8106 44.1579 30.144C44.3901 28.1747 43.0597 26.3713 41.1523 26.0699L26.7177 23.789C25.0859 23.5308 23.4208 23.935 22.0709 24.9169L14.3577 30.533L13.9329 32.1097L21.5795 43.4261H23.1942C26.3209 41.5761 29.8694 40.624 33.472 40.6684L46.4789 40.8321C48.7105 40.89 50.9009 40.2042 52.7262 38.8762L60.6959 33.0733C62.1334 32.0268 62.5659 29.9863 61.5995 28.4725Z" fill="#FFDECF"/>
<path d="M21.4596 32.8734C21.1701 32.4449 21.0567 31.9154 21.1441 31.4006C21.2315 30.8859 21.5126 30.4279 21.926 30.1269L29.0814 24.9169C29.3976 24.6872 29.7332 24.4878 30.0843 24.3211L26.7175 23.789C25.0858 23.5308 23.4206 23.935 22.0708 24.9169L14.3576 30.533L13.9327 32.1097L21.5793 43.4261H23.1941C24.5051 42.6517 25.8958 42.0313 27.3403 41.5767L21.4596 32.8734Z" fill="#FFCEBE"/>
<path d="M35.0455 32.8726L41.1464 33.3762C41.1426 33.3565 41.1508 33.3344 41.1751 33.3305C41.6967 33.2443 42.1932 33.0402 42.6294 32.7326C43.0655 32.4249 43.4305 32.0214 43.6982 31.5511C43.6821 31.5488 43.6662 31.5458 43.6496 31.5445L35.2019 30.8472C34.6601 30.8013 34.1869 31.2197 34.1436 31.7791C34.1334 31.9121 34.1485 32.0459 34.1882 32.1728C34.228 32.2998 34.2916 32.4173 34.3753 32.5189C34.4591 32.6205 34.5613 32.704 34.6763 32.7647C34.7913 32.8254 34.9167 32.8621 35.0455 32.8726Z" fill="#FFCEBE"/>
<path d="M24.0987 44.745L13.4176 29.161C12.952 28.4815 12.0345 28.3258 11.3684 28.8134L8.25269 31.0942V32.4762L19.5694 48.6422L20.62 49.1387L23.7359 46.858C24.402 46.3705 24.5644 45.4244 24.0987 44.745Z" fill="#85A7C6"/>
<path d="M14.9797 31.44L13.4176 29.161C12.952 28.4815 12.0345 28.3258 11.3684 28.8134L8.25269 31.094V32.4761L10.0522 35.0468L14.9797 31.44Z" fill="#7193B2"/>
<path d="M8.2527 31.0938L0.648285 36.6599C-0.0310763 37.1573 -0.204256 38.1112 0.261333 38.7906L10.9423 54.3746C11.408 55.054 12.3363 55.2018 13.0156 54.7045L20.62 49.1383L8.2527 31.0938Z" fill="#719BB2"/>
<path d="M6.25991 39.67C5.7942 38.9905 6.05073 37.9755 6.83303 37.4029L10.658 34.6031L8.2527 31.0938L0.648285 36.6599C-0.0310763 37.1573 -0.204256 38.1112 0.261333 38.7906L10.9423 54.3746C11.408 55.054 12.3363 55.2018 13.0156 54.7045L15.3788 52.9748L6.25991 39.67Z" fill="#5D879E"/>
</g>
<defs>
<filter id="filter0_f_1638_3130" x="38.4288" y="15.2031" width="28.2769" height="27.0996" filterUnits="userSpaceOnUse" color-interpolation-filters="sRGB">
<feFlood flood-opacity="0" result="BackgroundImageFix"/>
<feBlend mode="normal" in="SourceGraphic" in2="BackgroundImageFix" result="shape"/>
<feGaussianBlur stdDeviation="4" result="effect1_foregroundBlur_1638_3130"/>
</filter>
<filter id="filter1_f_1638_3130" x="38.4288" y="15.2031" width="26.8873" height="27.0996" filterUnits="userSpaceOnUse" color-interpolation-filters="sRGB">
<feFlood flood-opacity="0" result="BackgroundImageFix"/>
<feBlend mode="normal" in="SourceGraphic" in2="BackgroundImageFix" result="shape"/>
<feGaussianBlur stdDeviation="4" result="effect1_foregroundBlur_1638_3130"/>
</filter>
<clipPath id="clip0_1638_3130">
<rect width="64" height="55" fill="white"/>
</clipPath>
</defs>
</svg>
