<svg width="58" height="62" viewBox="0 0 58 62" fill="none" xmlns="http://www.w3.org/2000/svg">
<g clip-path="url(#clip0_1632_7391)">
<path d="M54.4509 9.02631L25.0614 1.00292C23.0325 0.449024 20.947 1.67578 20.4033 3.74296L8.591 48.6585C8.04736 50.7257 9.25141 52.8505 11.2803 53.4044L40.6698 61.4278C42.6987 61.9817 44.7842 60.7549 45.3278 58.6877L57.1402 13.7722C57.6838 11.705 56.4798 9.58021 54.4509 9.02631Z" fill="#FFD188"/>
<path d="M24.4895 7.69653L50.1502 14.6686L49.6591 16.5272L23.9983 9.55511L24.4895 7.69653ZM23.2616 12.3429L29.1833 13.9519L28.6922 15.8105L22.7705 14.2016L23.2616 12.3429Z" fill="#F2AF70"/>
<path d="M22.5919 13.4689L48.2528 20.441L47.7616 22.2995L22.1008 15.3274L22.5919 13.4689ZM21.3641 18.1153L27.2858 19.7243L26.7948 21.5828L20.873 19.9739L21.3641 18.1153Z" fill="#F2AF70"/>
<path d="M15.9504 24.0518L41.6112 31.0239L41.12 32.8824L15.4592 25.9104L15.9504 24.0518ZM14.7225 28.6982L20.6442 30.3072L20.1531 32.1657L14.2314 30.5568L14.7225 28.6982Z" fill="#F2AF70"/>
<path d="M16.8997 31.748L42.5604 38.7201L42.0692 40.5787L16.4085 33.6066L16.8997 31.748ZM15.6718 36.3945L21.5935 38.0035L21.1024 39.862L15.1807 38.253L15.6718 36.3945Z" fill="#F2AF70"/>
<path d="M15.0021 38.4827L40.6628 45.4548L40.1717 47.3133L14.511 40.3412L15.0021 38.4827ZM13.7743 43.1291L19.696 44.7381L19.2049 46.5966L13.2832 44.9877L13.7743 43.1291Z" fill="#F2AF70"/>
<path d="M7.60656 11.625C9.70701 11.625 11.4098 9.89007 11.4098 7.75V0H34.2295C36.33 0 38.0328 1.7349 38.0328 3.875V50.375C38.0328 52.5151 36.33 54.25 34.2295 54.25H3.80328C1.70278 54.25 0 52.5151 0 50.375V11.625H7.60656Z" fill="#FBF6E9"/>
<path d="M5.70492 5.8125L11.4098 0V7.75C11.4098 9.89007 9.70701 11.625 7.60656 11.625H0L5.70492 5.8125Z" fill="#B4DFFF"/>
<mask id="mask0_1632_7391" style="mask-type:alpha" maskUnits="userSpaceOnUse" x="0" y="0" width="39" height="55">
<path d="M7.60656 11.625C9.70701 11.625 11.4098 9.89007 11.4098 7.75V0H34.2295C36.33 0 38.0328 1.7349 38.0328 3.875V50.375C38.0328 52.5151 36.33 54.25 34.2295 54.25H3.80328C1.70278 54.25 0 52.5151 0 50.375V11.625H7.60656Z" fill="#EEF1FA"/>
</mask>
<g mask="url(#mask0_1632_7391)">
<g filter="url(#filter0_f_1632_7391)">
<path d="M54.4509 9.02631L25.0614 1.00292C23.0325 0.449024 20.947 1.67578 20.4033 3.74296L8.591 48.6585C8.04736 50.7257 9.25141 52.8505 11.2803 53.4044L40.6698 61.4278C42.6987 61.9817 44.7842 60.7549 45.3278 58.6877L57.1402 13.7722C57.6838 11.705 56.4798 9.58021 54.4509 9.02631Z" fill="#A1D7FF" fill-opacity="0.4"/>
</g>
</g>
<path d="M5.70492 5.8125L11.4098 0V7.75C11.4098 9.89007 9.70701 11.625 7.60656 11.625H0L5.70492 5.8125Z" fill="#FFD188"/>
<mask id="mask1_1632_7391" style="mask-type:alpha" maskUnits="userSpaceOnUse" x="0" y="0" width="39" height="55">
<path d="M7.60656 11.625C9.70701 11.625 11.4098 9.89007 11.4098 7.75V0H34.2295C36.33 0 38.0328 1.7349 38.0328 3.875V50.375C38.0328 52.5151 36.33 54.25 34.2295 54.25H3.80328C1.70278 54.25 0 52.5151 0 50.375V11.625H7.60656Z" fill="#FFEDBE"/>
</mask>
<g mask="url(#mask1_1632_7391)">
<g filter="url(#filter1_f_1632_7391)">
<path d="M54.4509 9.02631L25.0614 1.00292C23.0325 0.449024 20.947 1.67578 20.4033 3.74296L8.591 48.6585C8.04736 50.7257 9.25141 52.8505 11.2803 53.4044L40.6698 61.4278C42.6987 61.9817 44.7842 60.7549 45.3278 58.6877L57.1402 13.7722C57.6838 11.705 56.4798 9.58021 54.4509 9.02631Z" fill="#FCBF87" fill-opacity="0.5"/>
</g>
</g>
<path d="M18.9757 46.0189C24.6524 46.0189 29.2542 41.3526 29.2542 35.5965C29.2542 29.8403 24.6524 25.1741 18.9757 25.1741C13.2991 25.1741 8.69727 29.8403 8.69727 35.5965C8.69727 41.3526 13.2991 46.0189 18.9757 46.0189Z" stroke="#F2AF70" stroke-width="2" stroke-linecap="round" stroke-linejoin="round"/>
<path d="M22.0597 32.4697L15.8926 38.7231" stroke="#F2AF70" stroke-width="2" stroke-linecap="round" stroke-linejoin="round"/>
<path d="M15.8926 32.4697L22.0597 38.7231" stroke="#F2AF70" stroke-width="2" stroke-linecap="round" stroke-linejoin="round"/>
<path d="M5.69238 16.3552H32.2583V18.2794H5.69238V16.3552ZM5.69238 21.1656H11.823V23.0897H5.69238V21.1656Z" fill="#F2AF70"/>
<path d="M30.1716 9.62061H32.2589V11.5447H30.1716V9.62061ZM25.9969 9.62061H28.0843V11.5447H25.9969V9.62061ZM21.8223 9.62061H23.9096V11.5447H21.8223V9.62061Z" fill="#F2AF70"/>
</g>
<defs>
<filter id="filter0_f_1632_7391" x="-3.53906" y="-11.1301" width="72.8096" height="84.6909" filterUnits="userSpaceOnUse" color-interpolation-filters="sRGB">
<feFlood flood-opacity="0" result="BackgroundImageFix"/>
<feBlend mode="normal" in="SourceGraphic" in2="BackgroundImageFix" result="shape"/>
<feGaussianBlur stdDeviation="6" result="effect1_foregroundBlur_1632_7391"/>
</filter>
<filter id="filter1_f_1632_7391" x="-3.53906" y="-11.1301" width="72.8096" height="84.6909" filterUnits="userSpaceOnUse" color-interpolation-filters="sRGB">
<feFlood flood-opacity="0" result="BackgroundImageFix"/>
<feBlend mode="normal" in="SourceGraphic" in2="BackgroundImageFix" result="shape"/>
<feGaussianBlur stdDeviation="6" result="effect1_foregroundBlur_1632_7391"/>
</filter>
<clipPath id="clip0_1632_7391">
<rect width="58" height="62" fill="white"/>
</clipPath>
</defs>
</svg>
