<svg width="64" height="64" viewBox="0 0 64 64" fill="none" xmlns="http://www.w3.org/2000/svg">
<g clip-path="url(#clip0_1638_3108)">
<path d="M7 17.0008L7 55.5723H46.1305V17.0008H7Z" fill="#85A7C6"/>
<path d="M22.2175 14.8571C24.6187 14.8571 26.5653 12.9383 26.5653 10.5714V2H52.6523C55.0535 2 57.0001 3.91878 57.0001 6.28571V57.7143C57.0001 60.0811 55.0535 62 52.6523 62H17.8697C15.4684 62 13.5219 60.0811 13.5219 57.7143V14.8571H22.2175Z" fill="#E9EBFB"/>
<mask id="mask0_1638_3108" style="mask-type:alpha" maskUnits="userSpaceOnUse" x="13" y="2" width="45" height="60">
<path d="M22.2175 14.8571C24.6187 14.8571 26.5653 12.9383 26.5653 10.5714V2H52.6523C55.0535 2 57.0001 3.91878 57.0001 6.28571V57.7143C57.0001 60.0811 55.0535 62 52.6523 62H17.8697C15.4684 62 13.5219 60.0811 13.5219 57.7143V14.8571H22.2175Z" fill="#EEF1FA"/>
</mask>
<g mask="url(#mask0_1638_3108)">
<g filter="url(#filter0_f_1638_3108)">
<path d="M7 17.0008L7 55.5723H46.1305V17.0008H7Z" fill="#85BFDF" fill-opacity="0.5"/>
</g>
</g>
<path d="M20.0296 20.0879H50.3992V22.2159H20.0296V20.0879ZM20.0296 25.4081H24.864V27.5361H20.0296V25.4081Z" fill="#7BA5BC"/>
<path d="M20.0436 48.0723H50.4133V50.2004H20.0436V48.0723ZM20.0436 53.3925H41.1825V55.5206H20.0436V53.3925Z" fill="#7BA5BC"/>
<path d="M20.0436 37.3574H23.2393V39.4855H20.0436V37.3574ZM20.0436 42.6776H27.0521V44.8057H20.0436V42.6776Z" fill="#7BA5BC"/>
<path d="M50.965 37.3574H45.5955V39.4855H50.965V37.3574ZM50.965 42.6776H42.8697V44.8057H50.965V42.6776Z" fill="#7BA5BC"/>
<path d="M43.9565 12.7148H50.9649V14.8429H43.9565V12.7148Z" fill="#7BA5BC"/>
<path d="M43.7203 28.2714C43.7032 28.1497 43.6505 28.0356 43.5688 27.9431C43.4871 27.8508 43.3799 27.7839 43.2603 27.751L35.4316 25.5953C35.3199 25.5646 35.2019 25.5646 35.0904 25.5953L27.2616 27.751C27.142 27.7839 27.0348 27.8507 26.9531 27.9431C26.8714 28.0356 26.8188 28.1497 26.8017 28.2714C26.7563 28.5947 25.7203 36.2331 28.3773 40.0329C31.0312 43.8282 34.9462 44.8008 35.1115 44.8404C35.2097 44.8639 35.3122 44.8639 35.4104 44.8404C35.5759 44.8008 39.4908 43.8282 42.1446 40.0329C44.8016 36.2331 43.7657 28.5948 43.7203 28.2714ZM40.3095 32.7308L34.9695 38.0179C34.8452 38.141 34.6823 38.2025 34.5194 38.2025C34.3566 38.2025 34.1936 38.1411 34.0693 38.0179L30.7676 34.7489C30.7085 34.6904 30.6616 34.621 30.6296 34.5445C30.5976 34.468 30.5811 34.386 30.5811 34.3032C30.5811 34.2205 30.5976 34.1386 30.6296 34.0621C30.6616 33.9856 30.7085 33.9162 30.7676 33.8576L31.4232 33.2086C31.5426 33.0904 31.7044 33.024 31.8733 33.024C32.0421 33.024 32.204 33.0904 32.3234 33.2086L34.5194 35.3829L38.7538 31.1903C38.8129 31.1318 38.883 31.0853 38.9603 31.0536C39.0375 31.022 39.1203 31.0056 39.2039 31.0056C39.2874 31.0056 39.3702 31.022 39.4475 31.0536C39.5247 31.0853 39.5948 31.1318 39.654 31.1903L40.3095 31.8394C40.3687 31.8979 40.4155 31.9674 40.4475 32.0439C40.4795 32.1204 40.496 32.2023 40.496 32.2851C40.496 32.3678 40.4795 32.4498 40.4475 32.5263C40.4155 32.6028 40.3687 32.6722 40.3095 32.7308Z" fill="#7BA5BC"/>
<path d="M20.0436 8.42857L26.5653 2V10.5714C26.5653 12.9383 24.6187 14.8571 22.2175 14.8571H13.5219L20.0436 8.42857Z" fill="#7BA5BC"/>
</g>
<defs>
<filter id="filter0_f_1638_3108" x="-5" y="5" width="63.1305" height="62.5723" filterUnits="userSpaceOnUse" color-interpolation-filters="sRGB">
<feFlood flood-opacity="0" result="BackgroundImageFix"/>
<feBlend mode="normal" in="SourceGraphic" in2="BackgroundImageFix" result="shape"/>
<feGaussianBlur stdDeviation="6" result="effect1_foregroundBlur_1638_3108"/>
</filter>
<clipPath id="clip0_1638_3108">
<rect width="50" height="60" fill="white" transform="translate(7 2)"/>
</clipPath>
</defs>
</svg>
