<svg width="64" height="64" viewBox="0 0 64 64" fill="none" xmlns="http://www.w3.org/2000/svg">
<g clip-path="url(#clip0_1632_21558)">
<path d="M57.3312 27.8252C55.8644 26.7412 53.8379 27.1102 52.8049 28.6495L46.8813 37.4766C46.8046 37.5894 46.7162 37.6931 46.6176 37.786L46.4297 37.947L46.7734 38.3022H48.3655L58.4154 31.5994L58.7054 30.9668C58.7332 29.8233 58.2547 28.5074 57.3312 27.8252Z" fill="#FFCEBE"/>
<path d="M56.5191 28.6493C56.7359 28.3251 57.006 28.0427 57.317 27.8149C55.8512 26.7437 53.8346 27.1149 52.8049 28.6493L46.8813 37.4764C46.8046 37.5891 46.7162 37.6929 46.6176 37.7858L46.4297 37.9467L46.7734 38.3019H48.3655L51.3991 36.2787L56.5191 28.6493Z" fill="#FFB1A0"/>
<path d="M59.6224 4H28.5635C26.4843 4 24.7988 5.69823 24.7988 7.7931V26.7586C24.7988 28.8535 26.4843 30.5517 28.5635 30.5517H59.6224C61.7015 30.5517 63.3871 28.8535 63.3871 26.7586V7.7931C63.3871 5.69823 61.7015 4 59.6224 4Z" fill="#E9FBED"/>
<mask id="mask0_1632_21558" style="mask-type:alpha" maskUnits="userSpaceOnUse" x="24" y="4" width="40" height="27">
<path d="M60.5635 4H27.6224C26.063 4 24.7988 5.27367 24.7988 6.84483V27.7069C24.7988 29.2781 26.063 30.5517 27.6224 30.5517H60.5635C62.1229 30.5517 63.3871 29.2781 63.3871 27.7069V6.84483C63.3871 5.27367 62.1229 4 60.5635 4Z" fill="#BDC2D3"/>
</mask>
<g mask="url(#mask0_1632_21558)">
<g filter="url(#filter0_f_1632_21558)">
<path d="M57.3312 27.8252C55.8644 26.7412 53.8379 27.1102 52.8049 28.6495L46.8813 37.4766C46.8046 37.5894 46.7162 37.6931 46.6176 37.786L46.4297 37.947L46.7734 38.3022H48.3655L58.4154 31.5994L58.7054 30.9668C58.7332 29.8233 58.2547 28.5074 57.3312 27.8252Z" fill="#FFCEBE"/>
</g>
<g filter="url(#filter1_f_1632_21558)">
<path d="M56.5191 28.6493C56.7359 28.3251 57.006 28.0427 57.317 27.8149C55.8512 26.7437 53.8346 27.1149 52.8049 28.6493L46.8813 37.4764C46.8046 37.5891 46.7162 37.6929 46.6176 37.7858L46.4297 37.9467L46.7734 38.3019H48.3655L51.3991 36.2787L56.5191 28.6493Z" fill="#FFB1A0"/>
</g>
</g>
<path d="M41.4799 26.264H27.8477V24.2541H41.4799V26.264ZM41.4799 22.2443H39.5325V18.2246H41.4799V22.2443ZM37.5851 22.2443H35.6376V18.2246H37.5851V22.2443ZM33.6901 22.2443H31.7426V18.2246H33.6901V22.2443ZM29.7951 22.2443H27.8477V18.2246H29.7951V22.2443Z" fill="#78B07F"/>
<path d="M57.9957 22.2444H56.0482V18.2246H57.9957V22.2444ZM54.1007 22.2444H52.1532V18.2246H54.1007V22.2444ZM50.2057 22.2444H48.2582V18.2246H50.2057V22.2444ZM46.3108 22.2444H44.3633V18.2246H46.3108V22.2444Z" fill="#78B07F"/>
<path d="M31.386 13.4826C32.9454 13.4826 34.2096 12.209 34.2096 10.6378C34.2096 9.06664 32.9454 7.79297 31.386 7.79297C29.8266 7.79297 28.5625 9.06664 28.5625 10.6378C28.5625 12.209 29.8266 13.4826 31.386 13.4826Z" fill="#78B07F"/>
<path d="M35.1519 12.5353C36.1915 12.5353 37.0342 11.6862 37.0342 10.6387C37.0342 9.5913 36.1915 8.74219 35.1519 8.74219C34.1123 8.74219 33.2695 9.5913 33.2695 10.6387C33.2695 11.6862 34.1123 12.5353 35.1519 12.5353Z" stroke="#78B07F" stroke-width="2"/>
<path d="M61.6002 32.4725C60.5856 30.8832 58.5011 30.4876 57.005 31.577L48.6094 37.6899C48.2351 37.9623 47.7785 38.0864 47.323 38.0397L41.1791 37.4074C41.1357 37.4029 41.1328 37.3372 41.1761 37.3301C42.7097 37.078 43.9621 35.8106 44.1586 34.144C44.3908 32.1747 43.0605 30.3713 41.1531 30.0699L26.7184 27.789C25.0866 27.5308 23.4215 27.935 22.0717 28.9169L14.3584 34.533L13.9336 36.1097L21.5803 47.4261H23.195C26.3216 45.5761 29.8702 44.624 33.4727 44.6684L46.4797 44.8321C48.7112 44.89 50.9016 44.2042 52.7269 42.8762L60.6966 37.0733C62.1342 36.0268 62.5666 33.9863 61.6002 32.4725Z" fill="#FFDECF"/>
<path d="M21.4605 36.8734C21.171 36.4449 21.0575 35.9154 21.145 35.4006C21.2323 34.8859 21.5135 34.4279 21.9268 34.1269L29.0823 28.9169C29.3984 28.6872 29.7341 28.4878 30.0851 28.3211L26.7183 27.789C25.0866 27.5308 23.4215 27.935 22.0717 28.9169L14.3584 34.533L13.9336 36.1097L21.5802 47.4261H23.195C24.5059 46.6517 25.8966 46.0313 27.3411 45.5767L21.4605 36.8734Z" fill="#FFCEBE"/>
<path d="M35.0456 36.8726L41.1466 37.3762C41.1427 37.3565 41.1509 37.3344 41.1753 37.3305C41.6968 37.2443 42.1933 37.0402 42.6295 36.7326C43.0656 36.4249 43.4306 36.0214 43.6983 35.5511C43.6822 35.5488 43.6663 35.5458 43.6497 35.5445L35.202 34.8472C34.6603 34.8013 34.187 35.2197 34.1437 35.7791C34.1335 35.9121 34.1486 36.0459 34.1884 36.1728C34.2282 36.2998 34.2917 36.4173 34.3755 36.5189C34.4592 36.6205 34.5614 36.704 34.6764 36.7647C34.7915 36.8254 34.9168 36.8621 35.0456 36.8726Z" fill="#FFCEBE"/>
<path d="M24.0979 48.745L13.4169 33.161C12.9512 32.4815 12.0338 32.3258 11.3677 32.8134L8.25195 35.0942V36.4762L19.5686 52.6422L20.6193 53.1387L23.7351 50.858C24.4013 50.3705 24.5636 49.4244 24.0979 48.745Z" fill="#A0D8A7"/>
<path d="M14.979 35.44L13.4169 33.161C12.9512 32.4815 12.0338 32.3258 11.3677 32.8134L8.25195 35.094V36.4761L10.0515 39.0468L14.979 35.44Z" fill="#96CE9D"/>
<path d="M8.2527 35.0938L0.648285 40.6599C-0.0310763 41.1573 -0.204256 42.1112 0.261333 42.7906L10.9423 58.3746C11.408 59.054 12.3363 59.2018 13.0156 58.7045L20.62 53.1383L8.2527 35.0938Z" fill="#8CC493"/>
<path d="M6.25991 43.67C5.7942 42.9905 6.05073 41.9755 6.83303 41.4029L10.658 38.6031L8.2527 35.0938L0.648285 40.6599C-0.0310763 41.1573 -0.204256 42.1112 0.261333 42.7906L10.9423 58.3746C11.408 59.054 12.3363 59.2018 13.0156 58.7045L15.3788 56.9748L6.25991 43.67Z" fill="#78B07F"/>
</g>
<defs>
<filter id="filter0_f_1632_21558" x="38.4297" y="19.2031" width="28.2773" height="27.0996" filterUnits="userSpaceOnUse" color-interpolation-filters="sRGB">
<feFlood flood-opacity="0" result="BackgroundImageFix"/>
<feBlend mode="normal" in="SourceGraphic" in2="BackgroundImageFix" result="shape"/>
<feGaussianBlur stdDeviation="4" result="effect1_foregroundBlur_1632_21558"/>
</filter>
<filter id="filter1_f_1632_21558" x="38.4297" y="19.2031" width="26.8867" height="27.0996" filterUnits="userSpaceOnUse" color-interpolation-filters="sRGB">
<feFlood flood-opacity="0" result="BackgroundImageFix"/>
<feBlend mode="normal" in="SourceGraphic" in2="BackgroundImageFix" result="shape"/>
<feGaussianBlur stdDeviation="4" result="effect1_foregroundBlur_1632_21558"/>
</filter>
<clipPath id="clip0_1632_21558">
<rect width="64" height="55" fill="white" transform="translate(0 4)"/>
</clipPath>
</defs>
</svg>
