<svg width="64" height="64" viewBox="0 0 64 64" fill="none" xmlns="http://www.w3.org/2000/svg">
<g clip-path="url(#clip0_1632_2960)">
<path d="M57.3305 27.8256C55.8637 26.7417 53.8371 27.1107 52.8042 28.65L46.8805 37.4771C46.8038 37.5898 46.7154 37.6936 46.6169 37.7865L46.429 37.9474L46.7727 38.3027H48.3648L58.4146 31.5999L58.7046 30.9673C58.7325 29.8238 58.254 28.5079 57.3305 27.8256Z" fill="#FFCEBE"/>
<path d="M56.5184 28.65C56.7351 28.3259 57.0052 28.0435 57.3163 27.8156C55.8505 26.7444 53.8338 27.1157 52.8042 28.65L46.8805 37.4771C46.8038 37.5899 46.7154 37.6936 46.6169 37.7865L46.429 37.9475L46.7727 38.3027H48.3648L51.3984 36.2794L56.5184 28.65Z" fill="#FFB1A0"/>
<path d="M59.6216 4H28.5628C26.4836 4 24.7981 5.69823 24.7981 7.7931V26.7586C24.7981 28.8535 26.4836 30.5517 28.5628 30.5517H59.6216C61.7008 30.5517 63.3863 28.8535 63.3863 26.7586V7.7931C63.3863 5.69823 61.7008 4 59.6216 4Z" fill="#E9ECF7"/>
<mask id="mask0_1632_2960" style="mask-type:alpha" maskUnits="userSpaceOnUse" x="24" y="4" width="40" height="27">
<path d="M60.5628 4H27.6216C26.0622 4 24.7981 5.27367 24.7981 6.84483V27.7069C24.7981 29.2781 26.0622 30.5517 27.6216 30.5517H60.5628C62.1222 30.5517 63.3863 29.2781 63.3863 27.7069V6.84483C63.3863 5.27367 62.1222 4 60.5628 4Z" fill="#BDC2D3"/>
</mask>
<g mask="url(#mask0_1632_2960)">
<g filter="url(#filter0_f_1632_2960)">
<path d="M57.3304 27.8256C55.8636 26.7417 53.837 27.1107 52.8041 28.65L46.8804 37.4771C46.8037 37.5898 46.7153 37.6936 46.6168 37.7865L46.4288 37.9474L46.7726 38.3027H48.3646L58.4145 31.5999L58.7045 30.9673C58.7324 29.8238 58.2539 28.5079 57.3304 27.8256Z" fill="#FFCEBE"/>
</g>
<g filter="url(#filter1_f_1632_2960)">
<path d="M56.5182 28.65C56.735 28.3259 57.0051 28.0435 57.3162 27.8156C55.8504 26.7444 53.8337 27.1157 52.8041 28.65L46.8804 37.4771C46.8037 37.5899 46.7153 37.6936 46.6168 37.7865L46.4288 37.9475L46.7726 38.3027H48.3646L51.3982 36.2794L56.5182 28.65Z" fill="#FFB1A0"/>
</g>
</g>
<path d="M41.4796 26.2634H27.8473V24.2536H41.4796V26.2634ZM41.4796 22.2438H39.5322V18.2241H41.4796V22.2438ZM37.5847 22.2438H35.6372V18.2241H37.5847V22.2438ZM33.6897 22.2438H31.7423V18.2241H33.6897V22.2438ZM29.7948 22.2438H27.8473V18.2241H29.7948V22.2438Z" fill="#8FB9D0"/>
<path d="M57.9964 22.2437H56.0489V18.2239H57.9964V22.2437ZM54.1014 22.2437H52.1539V18.2239H54.1014V22.2437ZM50.2065 22.2437H48.259V18.2239H50.2065V22.2437ZM46.3115 22.2437H44.364V18.2239H46.3115V22.2437Z" fill="#8FB9D0"/>
<path d="M31.3864 13.4827C32.9458 13.4827 34.2099 12.2091 34.2099 10.6379C34.2099 9.06676 32.9458 7.79309 31.3864 7.79309C29.827 7.79309 28.5629 9.06676 28.5629 10.6379C28.5629 12.2091 29.827 13.4827 31.3864 13.4827Z" fill="#8FB9D0"/>
<path d="M35.151 12.5345C36.1906 12.5345 37.0334 11.6854 37.0334 10.6379C37.0334 9.59051 36.1906 8.74139 35.151 8.74139C34.1114 8.74139 33.2687 9.59051 33.2687 10.6379C33.2687 11.6854 34.1114 12.5345 35.151 12.5345Z" stroke="#8FB9D0" stroke-width="2"/>
<path d="M61.5995 32.4723C60.5849 30.8831 58.5004 30.4874 57.0043 31.5768L48.6086 37.6897C48.2344 37.9621 47.7778 38.0863 47.3222 38.0395L41.1784 37.4072C41.1349 37.4027 41.1321 37.337 41.1754 37.3299C42.709 37.0778 43.9614 35.8104 44.1579 34.1438C44.3901 32.1745 43.0597 30.3711 41.1523 30.0697L26.7177 27.7888C25.0859 27.5306 23.4208 27.9348 22.0709 28.9167L14.3577 34.5328L13.9329 36.1095L21.5795 47.4259H23.1942C26.3209 45.5759 29.8694 44.6238 33.472 44.6683L46.4789 44.8319C48.7105 44.8898 50.9009 44.204 52.7262 42.876L60.6959 37.0731C62.1334 36.0266 62.5659 33.9861 61.5995 32.4723Z" fill="#FFDECF"/>
<path d="M21.4596 36.8732C21.1701 36.4447 21.0567 35.9152 21.1441 35.4005C21.2315 34.8857 21.5126 34.4277 21.926 34.1267L29.0814 28.9167C29.3976 28.6871 29.7332 28.4876 30.0843 28.3209L26.7175 27.7888C25.0858 27.5306 23.4206 27.9348 22.0708 28.9167L14.3576 34.5328L13.9327 36.1095L21.5793 47.4259H23.1941C24.5051 46.6515 25.8958 46.0311 27.3403 45.5765L21.4596 36.8732Z" fill="#FFCEBE"/>
<path d="M35.0455 36.8722L41.1464 37.3758C41.1426 37.3561 41.1508 37.334 41.1751 37.3301C41.6967 37.2439 42.1932 37.0397 42.6294 36.7321C43.0655 36.4245 43.4305 36.021 43.6982 35.5507C43.6821 35.5484 43.6662 35.5454 43.6496 35.544L35.2019 34.8468C34.6601 34.8009 34.1869 35.2192 34.1436 35.7786C34.1334 35.9117 34.1485 36.0455 34.1882 36.1724C34.228 36.2993 34.2916 36.4169 34.3753 36.5185C34.4591 36.62 34.5613 36.7036 34.6763 36.7643C34.7913 36.825 34.9167 36.8617 35.0455 36.8722Z" fill="#FFCEBE"/>
<path d="M24.0987 48.7456L13.4176 33.1617C12.952 32.4821 12.0345 32.3264 11.3684 32.814L8.25269 35.0948V36.4768L19.5694 52.6429L20.62 53.1394L23.7359 50.8587C24.402 50.3712 24.5644 49.4251 24.0987 48.7456Z" fill="#A1D7FF"/>
<path d="M14.9797 35.4407L13.4176 33.1617C12.952 32.4821 12.0345 32.3264 11.3684 32.814L8.25269 35.0946V36.4767L10.0522 39.0474L14.9797 35.4407Z" fill="#81B7E0"/>
<path d="M8.2527 35.0947L0.648285 40.6609C-0.0310763 41.1583 -0.204256 42.1122 0.261333 42.7916L10.9423 58.3756C11.408 59.055 12.3363 59.2027 13.0156 58.7055L20.62 53.1393L8.2527 35.0947Z" fill="#A3CDE4"/>
<path d="M6.25991 43.6709C5.7942 42.9915 6.05073 41.9765 6.83303 41.4039L10.658 38.6041L8.2527 35.0947L0.648285 40.6609C-0.0310763 41.1583 -0.204256 42.1122 0.261333 42.7916L10.9423 58.3756C11.408 59.055 12.3363 59.2027 13.0156 58.7055L15.3788 56.9758L6.25991 43.6709Z" fill="#8FB9D0"/>
</g>
<defs>
<filter id="filter0_f_1632_2960" x="38.4288" y="19.2036" width="28.2769" height="27.0991" filterUnits="userSpaceOnUse" color-interpolation-filters="sRGB">
<feFlood flood-opacity="0" result="BackgroundImageFix"/>
<feBlend mode="normal" in="SourceGraphic" in2="BackgroundImageFix" result="shape"/>
<feGaussianBlur stdDeviation="4" result="effect1_foregroundBlur_1632_2960"/>
</filter>
<filter id="filter1_f_1632_2960" x="38.4288" y="19.2039" width="26.8873" height="27.0988" filterUnits="userSpaceOnUse" color-interpolation-filters="sRGB">
<feFlood flood-opacity="0" result="BackgroundImageFix"/>
<feBlend mode="normal" in="SourceGraphic" in2="BackgroundImageFix" result="shape"/>
<feGaussianBlur stdDeviation="4" result="effect1_foregroundBlur_1632_2960"/>
</filter>
<clipPath id="clip0_1632_2960">
<rect width="64" height="55" fill="white" transform="translate(0 4)"/>
</clipPath>
</defs>
</svg>
