<svg width="64" height="64" viewBox="0 0 64 64" fill="none" xmlns="http://www.w3.org/2000/svg">
<g clip-path="url(#clip0_1632_7422)">
<path d="M7 17L7 55.5714H46.1305V17H7Z" fill="#FFD188"/>
<path d="M22.2171 14.8571C24.6183 14.8571 26.5649 12.9383 26.5649 10.5714V2H52.652C55.0531 2 56.9997 3.91878 56.9997 6.28571V57.7143C56.9997 60.0811 55.0531 62 52.652 62H17.8694C15.4681 62 13.5215 60.0811 13.5215 57.7143V14.8571H22.2171Z" fill="#FBF6E9"/>
<mask id="mask0_1632_7422" style="mask-type:alpha" maskUnits="userSpaceOnUse" x="13" y="2" width="44" height="60">
<path d="M22.2171 14.8571C24.6183 14.8571 26.5649 12.9383 26.5649 10.5714V2H52.652C55.0531 2 56.9997 3.91878 56.9997 6.28571V57.7143C56.9997 60.0811 55.0531 62 52.652 62H17.8694C15.4681 62 13.5215 60.0811 13.5215 57.7143V14.8571H22.2171Z" fill="#FBF6E9"/>
</mask>
<g mask="url(#mask0_1632_7422)">
<g filter="url(#filter0_f_1632_7422)">
<path d="M7 17L7 55.5714H46.1305V17H7Z" fill="#FCBF87" fill-opacity="0.5"/>
</g>
</g>
<path d="M20.0293 20.0887H50.3989V22.2167H20.0293V20.0887ZM20.0293 25.4089H24.8637V27.5369H20.0293V25.4089Z" fill="#F2AF70"/>
<path d="M20.0439 48.0714H50.4136V50.1995H20.0439V48.0714ZM20.0439 53.3916H41.1828V55.5197H20.0439V53.3916Z" fill="#F2AF70"/>
<path d="M20.0439 37.3572H23.2396V39.4853H20.0439V37.3572ZM20.0439 42.6774H27.0524V44.8055H20.0439V42.6774Z" fill="#F2AF70"/>
<path d="M50.9654 37.3572H45.5959V39.4853H50.9654V37.3572ZM50.9654 42.6774H42.8701V44.8055H50.9654V42.6774Z" fill="#F2AF70"/>
<path d="M43.9561 12.7144H50.9644V14.8425H43.9561V12.7144Z" fill="#F2AF70"/>
<path d="M43.7204 28.2706C43.7033 28.1489 43.6506 28.0348 43.5689 27.9423C43.4873 27.8499 43.38 27.7831 43.2604 27.7501L35.4317 25.5945C35.32 25.5637 35.2021 25.5637 35.0905 25.5945L27.2617 27.7501C27.1422 27.7831 27.0349 27.8498 26.9532 27.9423C26.8715 28.0348 26.8189 28.1489 26.8018 28.2706C26.7564 28.5938 25.7204 36.2322 28.3774 40.032C31.0313 43.8273 34.9463 44.7999 35.1116 44.8395C35.2099 44.8631 35.3124 44.8631 35.4105 44.8395C35.576 44.7999 39.4909 43.8273 42.1448 40.032C44.8017 36.2323 43.7658 28.5939 43.7204 28.2706ZM40.3097 32.7299L34.9697 38.0171C34.8453 38.1401 34.6824 38.2016 34.5196 38.2016C34.3567 38.2016 34.1937 38.1402 34.0695 38.0171L30.7677 34.748C30.7086 34.6895 30.6617 34.6201 30.6298 34.5436C30.5977 34.4671 30.5812 34.3851 30.5812 34.3024C30.5812 34.2196 30.5977 34.1377 30.6298 34.0612C30.6617 33.9848 30.7086 33.9153 30.7677 33.8568L31.4233 33.2077C31.5427 33.0895 31.7046 33.0231 31.8734 33.0231C32.0423 33.0231 32.2041 33.0895 32.3235 33.2077L34.5196 35.382L38.7539 31.1894C38.813 31.131 38.8831 31.0845 38.9604 31.0528C39.0376 31.0211 39.1204 31.0048 39.204 31.0048C39.2875 31.0048 39.3703 31.0211 39.4476 31.0528C39.5249 31.0845 39.5949 31.131 39.6541 31.1894L40.3097 31.8386C40.3688 31.8971 40.4156 31.9666 40.4476 32.0431C40.4797 32.1195 40.4961 32.2014 40.4961 32.2842C40.4961 32.367 40.4797 32.449 40.4476 32.5254C40.4156 32.6019 40.3688 32.6713 40.3097 32.7299Z" fill="#F2AF70"/>
<path d="M20.0432 8.42857L26.5649 2V10.5714C26.5649 12.9383 24.6183 14.8571 22.2171 14.8571H13.5215L20.0432 8.42857Z" fill="#FFD188"/>
</g>
<defs>
<filter id="filter0_f_1632_7422" x="-5" y="5" width="63.1309" height="62.5714" filterUnits="userSpaceOnUse" color-interpolation-filters="sRGB">
<feFlood flood-opacity="0" result="BackgroundImageFix"/>
<feBlend mode="normal" in="SourceGraphic" in2="BackgroundImageFix" result="shape"/>
<feGaussianBlur stdDeviation="6" result="effect1_foregroundBlur_1632_7422"/>
</filter>
<clipPath id="clip0_1632_7422">
<rect width="50" height="60" fill="white" transform="translate(7 2)"/>
</clipPath>
</defs>
</svg>
