<svg width="64" height="64" viewBox="0 0 64 64" fill="none" xmlns="http://www.w3.org/2000/svg">
<g clip-path="url(#clip0_1632_7443)">
<path d="M57.3303 27.8256C55.8634 26.7417 53.8369 27.1107 52.804 28.65L46.8803 37.4771C46.8036 37.5898 46.7152 37.6936 46.6167 37.7865L46.4287 37.9474L46.7724 38.3027H48.3645L58.4144 31.5999L58.7044 30.9673C58.7322 29.8238 58.2537 28.5079 57.3303 27.8256Z" fill="#FFCEBE"/>
<path d="M56.5181 28.65C56.7349 28.3259 57.005 28.0435 57.3161 27.8156C55.8503 26.7444 53.8336 27.1157 52.804 28.65L46.8803 37.4771C46.8036 37.5899 46.7152 37.6936 46.6167 37.7865L46.4287 37.9475L46.7724 38.3027H48.3645L51.3981 36.2794L56.5181 28.65Z" fill="#FFB1A0"/>
<path d="M59.6214 4H28.5626C26.4834 4 24.7979 5.69823 24.7979 7.7931V26.7586C24.7979 28.8535 26.4834 30.5517 28.5626 30.5517H59.6214C61.7006 30.5517 63.3861 28.8535 63.3861 26.7586V7.7931C63.3861 5.69823 61.7006 4 59.6214 4Z" fill="#FBF6E9"/>
<mask id="mask0_1632_7443" style="mask-type:alpha" maskUnits="userSpaceOnUse" x="24" y="4" width="40" height="27">
<path d="M60.5626 4H27.6214C26.062 4 24.7979 5.27367 24.7979 6.84483V27.7069C24.7979 29.2781 26.062 30.5517 27.6214 30.5517H60.5626C62.1219 30.5517 63.3861 29.2781 63.3861 27.7069V6.84483C63.3861 5.27367 62.1219 4 60.5626 4Z" fill="#FBF6E9"/>
</mask>
<g mask="url(#mask0_1632_7443)">
<g filter="url(#filter0_f_1632_7443)">
<path d="M57.3303 27.8256C55.8634 26.7417 53.8369 27.1107 52.804 28.65L46.8803 37.4771C46.8036 37.5898 46.7152 37.6936 46.6167 37.7865L46.4287 37.9474L46.7724 38.3027H48.3645L58.4144 31.5999L58.7044 30.9673C58.7322 29.8238 58.2537 28.5079 57.3303 27.8256Z" fill="#FFCEBE"/>
</g>
<g filter="url(#filter1_f_1632_7443)">
<path d="M56.5181 28.65C56.7349 28.3259 57.005 28.0435 57.3161 27.8156C55.8503 26.7444 53.8336 27.1157 52.804 28.65L46.8803 37.4771C46.8036 37.5899 46.7152 37.6936 46.6167 37.7865L46.4287 37.9475L46.7724 38.3027H48.3645L51.3981 36.2794L56.5181 28.65Z" fill="#FFB1A0"/>
</g>
</g>
<path d="M41.4799 26.2635H27.8477V24.2536H41.4799V26.2635ZM41.4799 22.2439H39.5325V18.2241H41.4799V22.2439ZM37.5851 22.2439H35.6376V18.2241H37.5851V22.2439ZM33.6901 22.2439H31.7426V18.2241H33.6901V22.2439ZM29.7951 22.2439H27.8477V18.2241H29.7951V22.2439Z" fill="#F2AF70"/>
<path d="M57.9966 22.2436H56.0492V18.2239H57.9966V22.2436ZM54.1017 22.2436H52.1542V18.2239H54.1017V22.2436ZM50.2067 22.2436H48.2592V18.2239H50.2067V22.2436ZM46.3117 22.2436H44.3643V18.2239H46.3117V22.2436Z" fill="#F2AF70"/>
<path d="M31.386 13.4827C32.9454 13.4827 34.2096 12.2091 34.2096 10.6379C34.2096 9.06676 32.9454 7.79309 31.386 7.79309C29.8266 7.79309 28.5625 9.06676 28.5625 10.6379C28.5625 12.2091 29.8266 13.4827 31.386 13.4827Z" fill="#F2AF70"/>
<path d="M35.1509 12.5344C36.1905 12.5344 37.0333 11.6853 37.0333 10.6379C37.0333 9.59045 36.1905 8.74133 35.1509 8.74133C34.1113 8.74133 33.2686 9.59045 33.2686 10.6379C33.2686 11.6853 34.1113 12.5344 35.1509 12.5344Z" stroke="#F2AF70" stroke-width="2"/>
<path d="M61.5993 32.4722C60.5847 30.883 58.5001 30.4874 57.0041 31.5768L48.6084 37.6896C48.2342 37.9621 47.7775 38.0862 47.322 38.0395L41.1782 37.4071C41.1347 37.4027 41.1319 37.337 41.1752 37.3299C42.7087 37.0777 43.9611 35.8103 44.1577 34.1437C44.3898 32.1745 43.0595 30.371 41.1521 30.0697L26.7175 27.7888C25.0857 27.5306 23.4205 27.9347 22.0707 28.9167L14.3575 34.5327L13.9326 36.1094L21.5793 47.4259H23.194C26.3207 45.5759 29.8692 44.6237 33.4717 44.6682L46.4787 44.8319C48.7102 44.8897 50.9006 44.2039 52.7259 42.8759L60.6956 37.0731C62.1332 36.0266 62.5657 33.986 61.5993 32.4722Z" fill="#FFDECF"/>
<path d="M21.4595 36.8732C21.17 36.4446 21.0566 35.9151 21.144 35.4004C21.2313 34.8857 21.5125 34.4277 21.9258 34.1267L29.0813 28.9167C29.3975 28.687 29.7331 28.4876 30.0841 28.3209L26.7174 27.7888C25.0857 27.5306 23.4205 27.9347 22.0707 28.9167L14.3575 34.5327L13.9326 36.1094L21.5792 47.4259H23.194C24.5049 46.6514 25.8956 46.031 27.3401 45.5764L21.4595 36.8732Z" fill="#FFCEBE"/>
<path d="M35.0456 36.8721L41.1466 37.3758C41.1427 37.356 41.1509 37.3339 41.1753 37.3301C41.6968 37.2439 42.1933 37.0397 42.6295 36.7321C43.0656 36.4244 43.4306 36.021 43.6983 35.5506C43.6822 35.5483 43.6663 35.5453 43.6497 35.544L35.202 34.8467C34.6603 34.8008 34.187 35.2192 34.1437 35.7786C34.1335 35.9116 34.1486 36.0454 34.1884 36.1723C34.2282 36.2993 34.2917 36.4169 34.3755 36.5184C34.4592 36.62 34.5614 36.7035 34.6764 36.7642C34.7915 36.8249 34.9168 36.8616 35.0456 36.8721Z" fill="#FFCEBE"/>
<path d="M24.0989 48.7457L13.4179 33.1617C12.9522 32.4822 12.0347 32.3265 11.3687 32.8141L8.25293 35.0949V36.4769L19.5696 52.6429L20.6202 53.1394L23.7361 50.8587C24.4023 50.3712 24.5646 49.4251 24.0989 48.7457Z" fill="#FFD188"/>
<path d="M14.98 35.4407L13.4179 33.1617C12.9522 32.4822 12.0347 32.3265 11.3687 32.8141L8.25293 35.0947V36.4768L10.0524 39.0475L14.98 35.4407Z" fill="#F5C77E"/>
<path d="M8.2527 35.0947L0.648285 40.6609C-0.0310763 41.1583 -0.204256 42.1122 0.261333 42.7916L10.9423 58.3756C11.408 59.055 12.3363 59.2027 13.0156 58.7055L20.62 53.1393L8.2527 35.0947Z" fill="#FCBF87"/>
<path d="M6.25991 43.6709C5.7942 42.9915 6.05073 41.9765 6.83303 41.4039L10.658 38.6041L8.2527 35.0947L0.648285 40.6609C-0.0310763 41.1583 -0.204256 42.1122 0.261333 42.7916L10.9423 58.3756C11.408 59.055 12.3363 59.2027 13.0156 58.7055L15.3788 56.9758L6.25991 43.6709Z" fill="#F2AF70"/>
</g>
<defs>
<filter id="filter0_f_1632_7443" x="38.4287" y="19.2036" width="28.2764" height="27.099" filterUnits="userSpaceOnUse" color-interpolation-filters="sRGB">
<feFlood flood-opacity="0" result="BackgroundImageFix"/>
<feBlend mode="normal" in="SourceGraphic" in2="BackgroundImageFix" result="shape"/>
<feGaussianBlur stdDeviation="4" result="effect1_foregroundBlur_1632_7443"/>
</filter>
<filter id="filter1_f_1632_7443" x="38.4287" y="19.2039" width="26.8877" height="27.0989" filterUnits="userSpaceOnUse" color-interpolation-filters="sRGB">
<feFlood flood-opacity="0" result="BackgroundImageFix"/>
<feBlend mode="normal" in="SourceGraphic" in2="BackgroundImageFix" result="shape"/>
<feGaussianBlur stdDeviation="4" result="effect1_foregroundBlur_1632_7443"/>
</filter>
<clipPath id="clip0_1632_7443">
<rect width="64" height="55" fill="white" transform="translate(0 4)"/>
</clipPath>
</defs>
</svg>
