<svg width="64" height="64" viewBox="0 0 64 64" fill="none" xmlns="http://www.w3.org/2000/svg">
<g clip-path="url(#clip0_1632_11241)">
<path d="M57.4499 10.0263L28.0604 2.00292C26.0315 1.44902 23.946 2.67578 23.4024 4.74296L11.59 49.6585C11.0464 51.7257 12.2504 53.8505 14.2794 54.4044L43.6688 62.4278C45.6977 62.9817 47.7832 61.7549 48.3269 59.6877L60.1392 14.7722C60.6829 12.705 59.4788 10.5802 57.4499 10.0263Z" fill="url(#paint0_linear_1632_11241)"/>
<path d="M27.4905 8.69653L53.1512 15.6686L52.6601 17.5272L26.9993 10.5551L27.4905 8.69653ZM26.2626 13.3429L32.1843 14.9519L31.6932 16.8105L25.7715 15.2016L26.2626 13.3429Z" fill="#81B7E0"/>
<path d="M25.5919 14.4689L51.2528 21.441L50.7616 23.2995L25.1008 16.3274L25.5919 14.4689ZM24.3641 19.1153L30.2858 20.7243L29.7948 22.5828L23.873 20.9739L24.3641 19.1153Z" fill="#81B7E0"/>
<path d="M18.9514 25.0518L44.6121 32.0239L44.1209 33.8824L18.4602 26.9104L18.9514 25.0518ZM17.7235 29.6982L23.6452 31.3072L23.1541 33.1657L17.2324 31.5568L17.7235 29.6982Z" fill="#81B7E0"/>
<path d="M19.8987 32.748L45.5594 39.7201L45.0682 41.5787L19.4075 34.6066L19.8987 32.748ZM18.6708 37.3945L24.5925 39.0035L24.1014 40.862L18.1797 39.253L18.6708 37.3945Z" fill="#81B7E0"/>
<path d="M18.0021 39.4827L43.6628 46.4548L43.1717 48.3133L17.511 41.3412L18.0021 39.4827ZM16.7743 44.1291L22.696 45.7381L22.2049 47.5966L16.2832 45.9877L16.7743 44.1291Z" fill="#81B7E0"/>
<path d="M10.6066 12.625C12.707 12.625 14.4098 10.8901 14.4098 8.75V1H37.2295C39.33 1 41.0328 2.7349 41.0328 4.875V51.375C41.0328 53.5151 39.33 55.25 37.2295 55.25H6.80328C4.70278 55.25 3 53.5151 3 51.375V12.625H10.6066Z" fill="#E9EDFB"/>
<path d="M8.70492 6.8125L14.4098 1V8.75C14.4098 10.8901 12.707 12.625 10.6066 12.625H3L8.70492 6.8125Z" fill="#B4DFFF"/>
<mask id="mask0_1632_11241" style="mask-type:alpha" maskUnits="userSpaceOnUse" x="3" y="1" width="39" height="55">
<path d="M10.6066 12.625C12.707 12.625 14.4098 10.8901 14.4098 8.75V1H37.2295C39.33 1 41.0328 2.7349 41.0328 4.875V51.375C41.0328 53.5151 39.33 55.25 37.2295 55.25H6.80328C4.70278 55.25 3 53.5151 3 51.375V12.625H10.6066Z" fill="#EEF1FA"/>
</mask>
<g mask="url(#mask0_1632_11241)">
<g filter="url(#filter0_f_1632_11241)">
<path d="M57.4518 10.0263L28.0624 2.00292C26.0334 1.44902 23.948 2.67578 23.4043 4.74296L11.592 49.6585C11.0483 51.7257 12.2524 53.8505 14.2813 54.4044L43.6708 62.4278C45.6997 62.9817 47.7852 61.7549 48.3288 59.6877L60.1412 14.7722C60.6848 12.705 59.4808 10.5802 57.4518 10.0263Z" fill="#A1D7FF" fill-opacity="0.4"/>
</g>
</g>
<path d="M8.70492 6.8125L14.4098 1V8.75C14.4098 10.8901 12.707 12.625 10.6066 12.625H3L8.70492 6.8125Z" fill="#B4DFFF"/>
<mask id="mask1_1632_11241" style="mask-type:alpha" maskUnits="userSpaceOnUse" x="3" y="1" width="39" height="55">
<path d="M10.6066 12.625C12.707 12.625 14.4098 10.8901 14.4098 8.75V1H37.2295C39.33 1 41.0328 2.7349 41.0328 4.875V51.375C41.0328 53.5151 39.33 55.25 37.2295 55.25H6.80328C4.70278 55.25 3 53.5151 3 51.375V12.625H10.6066Z" fill="#EEF1FA"/>
</mask>
<g mask="url(#mask1_1632_11241)">
<g filter="url(#filter1_f_1632_11241)">
<path d="M57.4518 10.0263L28.0624 2.00292C26.0334 1.44902 23.948 2.67578 23.4043 4.74296L11.592 49.6585C11.0483 51.7257 12.2524 53.8505 14.2813 54.4044L43.6708 62.4278C45.6997 62.9817 47.7852 61.7549 48.3288 59.6877L60.1412 14.7722C60.6848 12.705 59.4808 10.5802 57.4518 10.0263Z" fill="#A1D7FF" fill-opacity="0.4"/>
</g>
</g>
<path d="M21.9757 47.0189C27.6524 47.0189 32.2542 42.3526 32.2542 36.5965C32.2542 30.8403 27.6524 26.1741 21.9757 26.1741C16.2991 26.1741 11.6973 30.8403 11.6973 36.5965C11.6973 42.3526 16.2991 47.0189 21.9757 47.0189Z" stroke="#8FB9D0" stroke-width="2" stroke-linecap="round" stroke-linejoin="round"/>
<path d="M25.0597 33.4697L18.8926 39.7231" stroke="#8FB9D0" stroke-width="2" stroke-linecap="round" stroke-linejoin="round"/>
<path d="M18.8926 33.4697L25.0597 39.7231" stroke="#8FB9D0" stroke-width="2" stroke-linecap="round" stroke-linejoin="round"/>
<path d="M8.69336 17.3552H35.2593V19.2794H8.69336V17.3552ZM8.69336 22.1656H14.824V24.0897H8.69336V22.1656Z" fill="#8FB9D0"/>
<path d="M33.1716 10.6206H35.2589V12.5447H33.1716V10.6206ZM28.9969 10.6206H31.0843V12.5447H28.9969V10.6206ZM24.8223 10.6206H26.9096V12.5447H24.8223V10.6206Z" fill="#8FB9D0"/>
</g>
<defs>
<filter id="filter0_f_1632_11241" x="-0.539062" y="-10.1301" width="72.8105" height="84.6909" filterUnits="userSpaceOnUse" color-interpolation-filters="sRGB">
<feFlood flood-opacity="0" result="BackgroundImageFix"/>
<feBlend mode="normal" in="SourceGraphic" in2="BackgroundImageFix" result="shape"/>
<feGaussianBlur stdDeviation="6" result="effect1_foregroundBlur_1632_11241"/>
</filter>
<filter id="filter1_f_1632_11241" x="-0.539062" y="-10.1301" width="72.8105" height="84.6909" filterUnits="userSpaceOnUse" color-interpolation-filters="sRGB">
<feFlood flood-opacity="0" result="BackgroundImageFix"/>
<feBlend mode="normal" in="SourceGraphic" in2="BackgroundImageFix" result="shape"/>
<feGaussianBlur stdDeviation="6" result="effect1_foregroundBlur_1632_11241"/>
</filter>
<linearGradient id="paint0_linear_1632_11241" x1="28.974" y1="5.84374" x2="28.9741" y2="58.4161" gradientUnits="userSpaceOnUse">
<stop stop-color="#A1D7FF"/>
<stop offset="1" stop-color="#99D1FA"/>
</linearGradient>
<clipPath id="clip0_1632_11241">
<rect width="58" height="62" fill="white" transform="translate(3 1)"/>
</clipPath>
</defs>
</svg>
