<svg width="64" height="64" viewBox="0 0 64 64" fill="none" xmlns="http://www.w3.org/2000/svg">
<g clip-path="url(#clip0_1632_21505)">
<path d="M57.4499 10.0263L28.0604 2.00292C26.0315 1.44902 23.946 2.67578 23.4024 4.74296L11.59 49.6585C11.0464 51.7257 12.2504 53.8505 14.2794 54.4044L43.6688 62.4278C45.6977 62.9817 47.7832 61.7549 48.3269 59.6877L60.1392 14.7722C60.6829 12.705 59.4788 10.5802 57.4499 10.0263Z" fill="#A0D8A7"/>
<path d="M27.4905 8.69727L53.1512 15.6693L52.6601 17.5279L26.9993 10.5558L27.4905 8.69727ZM26.2626 13.3437L32.1843 14.9527L31.6932 16.8112L25.7715 15.2023L26.2626 13.3437Z" fill="#78B07F"/>
<path d="M25.5919 14.4688L51.2528 21.4408L50.7616 23.2994L25.1008 16.3273L25.5919 14.4688ZM24.3641 19.1152L30.2858 20.7242L29.7948 22.5827L23.873 20.9738L24.3641 19.1152Z" fill="#78B07F"/>
<path d="M18.9514 25.0508L44.6121 32.0229L44.1209 33.8814L18.4602 26.9094L18.9514 25.0508ZM17.7235 29.6972L23.6452 31.3062L23.1541 33.1647L17.2324 31.5558L17.7235 29.6972Z" fill="#78B07F"/>
<path d="M19.8987 32.748L45.5594 39.7201L45.0682 41.5787L19.4075 34.6066L19.8987 32.748ZM18.6708 37.3945L24.5925 39.0035L24.1014 40.862L18.1797 39.253L18.6708 37.3945Z" fill="#78B07F"/>
<path d="M18.0021 39.4824L43.6628 46.4545L43.1717 48.3131L17.511 41.341L18.0021 39.4824ZM16.7743 44.1288L22.696 45.7378L22.2049 47.5964L16.2832 45.9875L16.7743 44.1288Z" fill="#78B07F"/>
<path d="M10.6066 12.625C12.707 12.625 14.4098 10.8901 14.4098 8.75V1H37.2295C39.33 1 41.0328 2.7349 41.0328 4.875V51.375C41.0328 53.5151 39.33 55.25 37.2295 55.25H6.80328C4.70278 55.25 3 53.5151 3 51.375V12.625H10.6066Z" fill="#E9FBED"/>
<path d="M8.70492 6.8125L14.4098 1V8.75C14.4098 10.8901 12.707 12.625 10.6066 12.625H3L8.70492 6.8125Z" fill="#B4DFFF"/>
<mask id="mask0_1632_21505" style="mask-type:alpha" maskUnits="userSpaceOnUse" x="3" y="1" width="39" height="55">
<path d="M10.6066 12.625C12.707 12.625 14.4098 10.8901 14.4098 8.75V1H37.2295C39.33 1 41.0328 2.7349 41.0328 4.875V51.375C41.0328 53.5151 39.33 55.25 37.2295 55.25H6.80328C4.70278 55.25 3 53.5151 3 51.375V12.625H10.6066Z" fill="#EEF1FA"/>
</mask>
<g mask="url(#mask0_1632_21505)">
<g filter="url(#filter0_f_1632_21505)">
<path d="M57.4518 10.0263L28.0624 2.00292C26.0334 1.44902 23.948 2.67578 23.4043 4.74296L11.592 49.6585C11.0483 51.7257 12.2524 53.8505 14.2813 54.4044L43.6708 62.4278C45.6997 62.9817 47.7852 61.7549 48.3288 59.6877L60.1412 14.7722C60.6848 12.705 59.4808 10.5802 57.4518 10.0263Z" fill="#A0D8A7" fill-opacity="0.4"/>
</g>
</g>
<path d="M8.70492 6.8125L14.4098 1V8.75C14.4098 10.8901 12.707 12.625 10.6066 12.625H3L8.70492 6.8125Z" fill="#A0D8A7"/>
<mask id="mask1_1632_21505" style="mask-type:alpha" maskUnits="userSpaceOnUse" x="3" y="1" width="39" height="55">
<path d="M10.6066 12.625C12.707 12.625 14.4098 10.8901 14.4098 8.75V1H37.2295C39.33 1 41.0328 2.7349 41.0328 4.875V51.375C41.0328 53.5151 39.33 55.25 37.2295 55.25H6.80328C4.70278 55.25 3 53.5151 3 51.375V12.625H10.6066Z" fill="#EEF1FA"/>
</mask>
<g mask="url(#mask1_1632_21505)">
<g filter="url(#filter1_f_1632_21505)">
<path d="M57.4518 10.0263L28.0624 2.00292C26.0334 1.44902 23.948 2.67578 23.4043 4.74296L11.592 49.6585C11.0483 51.7257 12.2524 53.8505 14.2813 54.4044L43.6708 62.4278C45.6997 62.9817 47.7852 61.7549 48.3288 59.6877L60.1412 14.7722C60.6848 12.705 59.4808 10.5802 57.4518 10.0263Z" fill="#A0D8A7" fill-opacity="0.4"/>
</g>
</g>
<path d="M21.9757 47.0186C27.6524 47.0186 32.2542 42.3523 32.2542 36.5962C32.2542 30.8401 27.6524 26.1738 21.9757 26.1738C16.2991 26.1738 11.6973 30.8401 11.6973 36.5962C11.6973 42.3523 16.2991 47.0186 21.9757 47.0186Z" stroke="#78B07F" stroke-width="2" stroke-linecap="round" stroke-linejoin="round"/>
<path d="M25.0597 33.4688L18.8926 39.7221" stroke="#78B07F" stroke-width="2" stroke-linecap="round" stroke-linejoin="round"/>
<path d="M18.8926 33.4688L25.0597 39.7221" stroke="#78B07F" stroke-width="2" stroke-linecap="round" stroke-linejoin="round"/>
<path d="M8.69336 17.3555H35.2593V19.2796H8.69336V17.3555ZM8.69336 22.1658H14.824V24.0899H8.69336V22.1658Z" fill="#78B07F"/>
<path d="M33.1716 10.6211H35.2589V12.5452H33.1716V10.6211ZM28.9969 10.6211H31.0843V12.5452H28.9969V10.6211ZM24.8223 10.6211H26.9096V12.5452H24.8223V10.6211Z" fill="#78B07F"/>
</g>
<defs>
<filter id="filter0_f_1632_21505" x="-0.539062" y="-10.1309" width="72.8105" height="84.6914" filterUnits="userSpaceOnUse" color-interpolation-filters="sRGB">
<feFlood flood-opacity="0" result="BackgroundImageFix"/>
<feBlend mode="normal" in="SourceGraphic" in2="BackgroundImageFix" result="shape"/>
<feGaussianBlur stdDeviation="6" result="effect1_foregroundBlur_1632_21505"/>
</filter>
<filter id="filter1_f_1632_21505" x="-0.539062" y="-10.1309" width="72.8105" height="84.6914" filterUnits="userSpaceOnUse" color-interpolation-filters="sRGB">
<feFlood flood-opacity="0" result="BackgroundImageFix"/>
<feBlend mode="normal" in="SourceGraphic" in2="BackgroundImageFix" result="shape"/>
<feGaussianBlur stdDeviation="6" result="effect1_foregroundBlur_1632_21505"/>
</filter>
<clipPath id="clip0_1632_21505">
<rect width="58" height="62" fill="white" transform="translate(3 1)"/>
</clipPath>
</defs>
</svg>
