<svg width="64" height="64" viewBox="0 0 64 64" fill="none" xmlns="http://www.w3.org/2000/svg">
<g clip-path="url(#clip0_1632_2907)">
<path d="M57.4508 10.0263L28.0613 2.00292C26.0324 1.44902 23.9469 2.67578 23.4033 4.74296L11.5909 49.6585C11.0473 51.7257 12.2513 53.8505 14.2803 54.4044L43.6697 62.4278C45.6987 62.9817 47.7841 61.7549 48.3278 59.6877L60.1401 14.7722C60.6838 12.705 59.4797 10.5802 57.4508 10.0263Z" fill="url(#paint0_linear_1632_2907)"/>
<path d="M27.4898 8.69653L53.1505 15.6686L52.6594 17.5272L26.9986 10.5551L27.4898 8.69653ZM26.2619 13.3429L32.1836 14.9519L31.6925 16.8105L25.7708 15.2016L26.2619 13.3429Z" fill="#81B7E0"/>
<path d="M25.5922 14.4688L51.253 21.4409L50.7618 23.2995L25.1011 16.3274L25.5922 14.4688ZM24.3644 19.1152L30.2861 20.7242L29.795 22.5828L23.8733 20.9739L24.3644 19.1152Z" fill="#81B7E0"/>
<path d="M18.9508 25.0518L44.6115 32.0239L44.1203 33.8824L18.4596 26.9104L18.9508 25.0518ZM17.7229 29.6982L23.6446 31.3072L23.1535 33.1657L17.2318 31.5568L17.7229 29.6982Z" fill="#81B7E0"/>
<path d="M19.8995 32.748L45.5602 39.7201L45.069 41.5787L19.4083 34.6066L19.8995 32.748ZM18.6716 37.3945L24.5933 39.0035L24.1022 40.862L18.1805 39.253L18.6716 37.3945Z" fill="#81B7E0"/>
<path d="M18.0019 39.4827L43.6626 46.4548L43.1715 48.3134L17.5108 41.3413L18.0019 39.4827ZM16.7741 44.1291L22.6958 45.7381L22.2047 47.5967L16.283 45.9878L16.7741 44.1291Z" fill="#81B7E0"/>
<path d="M10.6066 12.625C12.707 12.625 14.4098 10.8901 14.4098 8.75V1H37.2295C39.33 1 41.0328 2.7349 41.0328 4.875V51.375C41.0328 53.5151 39.33 55.25 37.2295 55.25H6.80328C4.70278 55.25 3 53.5151 3 51.375V12.625H10.6066Z" fill="#E9EDFB"/>
<path d="M8.70492 6.8125L14.4098 1V8.75C14.4098 10.8901 12.707 12.625 10.6066 12.625H3L8.70492 6.8125Z" fill="#B4DFFF"/>
<mask id="mask0_1632_2907" style="mask-type:alpha" maskUnits="userSpaceOnUse" x="3" y="1" width="39" height="55">
<path d="M10.6066 12.625C12.707 12.625 14.4098 10.8901 14.4098 8.75V1H37.2295C39.33 1 41.0328 2.7349 41.0328 4.875V51.375C41.0328 53.5151 39.33 55.25 37.2295 55.25H6.80328C4.70278 55.25 3 53.5151 3 51.375V12.625H10.6066Z" fill="#EEF1FA"/>
</mask>
<g mask="url(#mask0_1632_2907)">
<g filter="url(#filter0_f_1632_2907)">
<path d="M57.4508 10.0263L28.0613 2.00292C26.0324 1.44902 23.947 2.67578 23.4033 4.74296L11.591 49.6585C11.0473 51.7257 12.2514 53.8505 14.2803 54.4044L43.6698 62.4278C45.6987 62.9817 47.7842 61.7549 48.3278 59.6877L60.1402 14.7722C60.6838 12.705 59.4797 10.5802 57.4508 10.0263Z" fill="#A1D7FF" fill-opacity="0.4"/>
</g>
</g>
<path d="M8.70492 6.8125L14.4098 1V8.75C14.4098 10.8901 12.707 12.625 10.6066 12.625H3L8.70492 6.8125Z" fill="#B4DFFF"/>
<mask id="mask1_1632_2907" style="mask-type:alpha" maskUnits="userSpaceOnUse" x="3" y="1" width="39" height="55">
<path d="M10.6066 12.625C12.707 12.625 14.4098 10.8901 14.4098 8.75V1H37.2295C39.33 1 41.0328 2.7349 41.0328 4.875V51.375C41.0328 53.5151 39.33 55.25 37.2295 55.25H6.80328C4.70278 55.25 3 53.5151 3 51.375V12.625H10.6066Z" fill="#EEF1FA"/>
</mask>
<g mask="url(#mask1_1632_2907)">
<g filter="url(#filter1_f_1632_2907)">
<path d="M57.4508 10.0263L28.0613 2.00292C26.0324 1.44902 23.947 2.67578 23.4033 4.74296L11.591 49.6585C11.0473 51.7257 12.2514 53.8505 14.2803 54.4044L43.6698 62.4278C45.6987 62.9817 47.7842 61.7549 48.3278 59.6877L60.1402 14.7722C60.6838 12.705 59.4797 10.5802 57.4508 10.0263Z" fill="#A1D7FF" fill-opacity="0.4"/>
</g>
</g>
<path d="M21.9756 47.0188C27.6523 47.0188 32.2541 42.3525 32.2541 36.5964C32.2541 30.8403 27.6523 26.174 21.9756 26.174C16.2989 26.174 11.6971 30.8403 11.6971 36.5964C11.6971 42.3525 16.2989 47.0188 21.9756 47.0188Z" stroke="#8FB9D0" stroke-width="2" stroke-linecap="round" stroke-linejoin="round"/>
<path d="M25.0592 33.4697L18.8921 39.723" stroke="#8FB9D0" stroke-width="2" stroke-linecap="round" stroke-linejoin="round"/>
<path d="M18.8921 33.4697L25.0592 39.723" stroke="#8FB9D0" stroke-width="2" stroke-linecap="round" stroke-linejoin="round"/>
<path d="M8.69272 17.3552H35.2586V19.2794H8.69272V17.3552ZM8.69272 22.1656H14.8233V24.0897H8.69272V22.1656Z" fill="#8FB9D0"/>
<path d="M33.1714 10.6205H35.2588V12.5447H33.1714V10.6205ZM28.9968 10.6205H31.0841V12.5447H28.9968V10.6205ZM24.8221 10.6205H26.9094V12.5447H24.8221V10.6205Z" fill="#8FB9D0"/>
</g>
<defs>
<filter id="filter0_f_1632_2907" x="-0.539551" y="-10.1301" width="72.8102" height="84.6909" filterUnits="userSpaceOnUse" color-interpolation-filters="sRGB">
<feFlood flood-opacity="0" result="BackgroundImageFix"/>
<feBlend mode="normal" in="SourceGraphic" in2="BackgroundImageFix" result="shape"/>
<feGaussianBlur stdDeviation="6" result="effect1_foregroundBlur_1632_2907"/>
</filter>
<filter id="filter1_f_1632_2907" x="-0.539551" y="-10.1301" width="72.8102" height="84.6909" filterUnits="userSpaceOnUse" color-interpolation-filters="sRGB">
<feFlood flood-opacity="0" result="BackgroundImageFix"/>
<feBlend mode="normal" in="SourceGraphic" in2="BackgroundImageFix" result="shape"/>
<feGaussianBlur stdDeviation="6" result="effect1_foregroundBlur_1632_2907"/>
</filter>
<linearGradient id="paint0_linear_1632_2907" x1="28.975" y1="5.84374" x2="28.975" y2="58.4161" gradientUnits="userSpaceOnUse">
<stop stop-color="#A1D7FF"/>
<stop offset="1" stop-color="#99D1FA"/>
</linearGradient>
<clipPath id="clip0_1632_2907">
<rect width="58" height="62" fill="white" transform="translate(3 1)"/>
</clipPath>
</defs>
</svg>
