<svg width="64" height="64" viewBox="0 0 64 64" fill="none" xmlns="http://www.w3.org/2000/svg">
<g clip-path="url(#clip0_1632_11273)">
<path d="M7 17L7 55.5714H46.1305V17H7Z" fill="#A1D7FF"/>
<path d="M22.2171 14.8571C24.6183 14.8571 26.5649 12.9383 26.5649 10.5714V2H52.652C55.0531 2 56.9997 3.91878 56.9997 6.28571V57.7143C56.9997 60.0811 55.0531 62 52.652 62H17.8694C15.4681 62 13.5215 60.0811 13.5215 57.7143V14.8571H22.2171Z" fill="#E9EDFB"/>
<mask id="mask0_1632_11273" style="mask-type:alpha" maskUnits="userSpaceOnUse" x="13" y="2" width="44" height="60">
<path d="M22.2171 14.8571C24.6183 14.8571 26.5649 12.9383 26.5649 10.5714V2H52.652C55.0531 2 56.9997 3.91878 56.9997 6.28571V57.7143C56.9997 60.0811 55.0531 62 52.652 62H17.8694C15.4681 62 13.5215 60.0811 13.5215 57.7143V14.8571H22.2171Z" fill="#EEF1FA"/>
</mask>
<g mask="url(#mask0_1632_11273)">
<g filter="url(#filter0_f_1632_11273)">
<path d="M7 17L7 55.5714H46.1305V17H7Z" fill="#A1D7FF" fill-opacity="0.5"/>
</g>
</g>
<path d="M20.0293 20.0887H50.3989V22.2167H20.0293V20.0887ZM20.0293 25.4089H24.8637V27.5369H20.0293V25.4089Z" fill="#8FB9D0"/>
<path d="M20.043 48.0714H50.4126V50.1995H20.043V48.0714ZM20.043 53.3916H41.1818V55.5197H20.043V53.3916Z" fill="#8FB9D0"/>
<path d="M20.043 37.3572H23.2386V39.4853H20.043V37.3572ZM20.043 42.6774H27.0514V44.8055H20.043V42.6774Z" fill="#8FB9D0"/>
<path d="M50.9644 37.3572H45.5949V39.4853H50.9644V37.3572ZM50.9644 42.6774H42.8691V44.8055H50.9644V42.6774Z" fill="#8FB9D0"/>
<path d="M43.957 12.7142H50.9654V14.8423H43.957V12.7142Z" fill="#8FB9D0"/>
<path d="M43.7194 28.2706C43.7023 28.1489 43.6496 28.0348 43.5679 27.9423C43.4863 27.8499 43.3791 27.7831 43.2595 27.7501L35.4307 25.5945C35.3191 25.5637 35.2011 25.5637 35.0895 25.5945L27.2607 27.7501C27.1412 27.7831 27.034 27.8498 26.9522 27.9423C26.8705 28.0348 26.8179 28.1489 26.8008 28.2706C26.7554 28.5938 25.7195 36.2322 28.3765 40.032C31.0303 43.8273 34.9453 44.7999 35.1106 44.8395C35.2089 44.8631 35.3114 44.8631 35.4095 44.8395C35.575 44.7999 39.4899 43.8273 42.1438 40.032C44.8007 36.2323 43.7648 28.5939 43.7194 28.2706ZM40.3087 32.7299L34.9687 38.0171C34.8444 38.1401 34.6815 38.2016 34.5186 38.2016C34.3557 38.2016 34.1927 38.1402 34.0685 38.0171L30.7668 34.748C30.7076 34.6895 30.6607 34.6201 30.6288 34.5436C30.5968 34.4671 30.5802 34.3851 30.5802 34.3024C30.5802 34.2196 30.5968 34.1377 30.6288 34.0612C30.6607 33.9848 30.7076 33.9153 30.7668 33.8568L31.4223 33.2077C31.5418 33.0895 31.7036 33.0231 31.8724 33.0231C32.0413 33.0231 32.2031 33.0895 32.3225 33.2077L34.5186 35.382L38.7529 31.1894C38.812 31.131 38.8821 31.0845 38.9595 31.0528C39.0367 31.0211 39.1195 31.0048 39.203 31.0048C39.2866 31.0048 39.3694 31.0211 39.4467 31.0528C39.5239 31.0845 39.594 31.131 39.6531 31.1894L40.3087 31.8386C40.3678 31.8971 40.4146 31.9666 40.4467 32.0431C40.4787 32.1195 40.4951 32.2014 40.4951 32.2842C40.4951 32.367 40.4787 32.449 40.4467 32.5254C40.4146 32.6019 40.3678 32.6713 40.3087 32.7299Z" fill="#8FB9D0"/>
<path d="M20.0432 8.42857L26.5649 2V10.5714C26.5649 12.9383 24.6183 14.8571 22.2171 14.8571H13.5215L20.0432 8.42857Z" fill="#B4DFFF"/>
</g>
<defs>
<filter id="filter0_f_1632_11273" x="-5" y="5" width="63.1309" height="62.5714" filterUnits="userSpaceOnUse" color-interpolation-filters="sRGB">
<feFlood flood-opacity="0" result="BackgroundImageFix"/>
<feBlend mode="normal" in="SourceGraphic" in2="BackgroundImageFix" result="shape"/>
<feGaussianBlur stdDeviation="6" result="effect1_foregroundBlur_1632_11273"/>
</filter>
<clipPath id="clip0_1632_11273">
<rect width="50" height="60" fill="white" transform="translate(7 2)"/>
</clipPath>
</defs>
</svg>
