<svg width="620" height="400" viewBox="0 0 620 400" fill="none" xmlns="http://www.w3.org/2000/svg">
<g clip-path="url(#clip0_1632_3019)">
<path d="M0 0H620V400H0V0Z" fill="url(#paint0_linear_1632_3019)"/>
<mask id="mask0_1632_3019" style="mask-type:alpha" maskUnits="userSpaceOnUse" x="-406" y="-668" width="1806" height="1836">
<path d="M-398.084 -76.3999L758.929 -665.929C765.51 -669.282 773.563 -666.665 776.916 -660.084L1397.93 558.72C1401.28 565.301 1398.67 573.354 1392.08 576.707L235.071 1166.24C228.49 1169.59 220.437 1166.97 217.084 1160.39L-403.929 -58.413C-407.282 -64.9938 -404.665 -73.0468 -398.084 -76.3999Z" fill="#8FB9D0" fill-opacity="0.6"/>
</mask>
<g mask="url(#mask0_1632_3019)">
<path d="M-967.988 1455.77C-1150.83 1248.41 -1281.07 989.572 -1345.43 707.107C-1408.05 432.964 -1401.32 151.314 -1327.02 -86.6333C-1265.69 -284.388 -1150.72 -476.626 -974.994 -673.883C-818.433 -849.495 -629.894 -1012.99 -447.243 -1171.05C-409.585 -1203.81 -370.341 -1237.53 -332.394 -1271.05C-292.326 -1306.02 -251.97 -1341.75 -212.953 -1376.26C152.372 -1699.34 497.397 -2004.7 931.312 -2092.83C1171.14 -2141.63 1435.87 -2124.24 1676.16 -2044.18C1926.37 -1960.89 2123.31 -1815.58 2230.72 -1635.75C2305.31 -1510.85 2346.27 -1357.41 2359.94 -1153.53C2371.93 -971.884 2360.77 -772.359 2348.88 -560.753C2339.49 -392.081 2329.6 -217.503 2330.91 -39.3805C2332.12 121.988 2342.45 287.33 2352.5 446.997C2381.71 910.487 2409.38 1348.15 2216.74 1645.23C2182.65 1697.96 2140.46 1747.28 2091.2 1792.71C2050.25 1830.48 2003.99 1865.72 1952.93 1898.45C1847.93 1965.08 1722.03 2019.78 1578.88 2061.16C1312.41 2138.01 994.518 2167.17 659.091 2145.64C333.419 2125.01 17.9753 2055.31 -253.055 1945.16C-546.888 1825.31 -787.62 1660.45 -967.988 1455.77ZM-249.944 1938.32C20.3251 2048.2 335.007 2117.6 659.649 2138.19C994.291 2159.95 1311.4 2131.01 1576.85 2054.11C1719.21 2012.96 1844.34 1958.49 1948.8 1892.36C2060.14 1821.87 2148.08 1737.28 2210.44 1641.62C2401.73 1346.29 2374.01 909.664 2345.01 447.466C2334.71 287.535 2324.39 122.191 2323.44 -39.4244C2322.13 -217.547 2332.02 -392.125 2341.43 -561.311C2353.3 -772.403 2364.7 -971.658 2352.45 -1153.06C2338.98 -1355.64 2298.23 -1507.78 2224.38 -1631.88C2117.96 -1810.64 1922.25 -1954.61 1673.83 -2037.58C1434.81 -2117.33 1171.63 -2134.66 932.831 -2085.8C500.728 -1997.86 156.507 -1693.25 -208.015 -1370.9C-247.033 -1336.4 -287.389 -1300.66 -327.456 -1265.69C-365.65 -1232.44 -404.647 -1198.46 -442.306 -1165.7C-533.641 -1086.41 -626.563 -1006.16 -716.232 -923.447C-805.366 -841.236 -891.495 -756.84 -969.519 -669.024C-1144.45 -472.507 -1259.13 -281.03 -1320.15 -84.5515C-1393.86 151.873 -1400.56 432.494 -1338.39 705.074C-1274.24 986.241 -1144.46 1244.03 -962.612 1450.32C-782.758 1654.98 -543.015 1818.77 -249.944 1938.32Z" fill="url(#paint1_linear_1632_3019)" fill-opacity="0.5"/>
<path d="M-1229.2 713.351C-1287.63 456.638 -1281.62 192.999 -1211.82 -29.4111C-1154.61 -214.447 -1046.59 -394.338 -882.18 -579.168C-735.608 -743.587 -559.093 -896.491 -388.446 -1044.47C-353.196 -1075 -316.609 -1106.77 -280.824 -1137.79C-243.165 -1170.55 -205.733 -1204.08 -169.124 -1236.36C172.688 -1538.75 495.27 -1824.39 901.643 -1906.94C1126.4 -1952.75 1373.66 -1936.57 1598.68 -1861.26C1832.86 -1782.99 2017.29 -1646.95 2117.69 -1478.48C2187.19 -1361.77 2225.73 -1218.48 2238.12 -1027.8C2249.3 -857.783 2238.91 -670.853 2227.57 -473.141C2218.62 -315.275 2209.44 -151.749 2210.71 14.5184C2211.83 165.575 2221.56 320.071 2230.97 469.92C2258.3 903.443 2284.27 1312.94 2103.72 1591.44C2071.57 1640.91 2032.34 1687 1986.3 1729.46C1947.76 1765.01 1904.69 1797.8 1856.82 1828.08C1758.7 1890.35 1640.92 1941.51 1506.89 1980.42C1257.63 2052.3 959.915 2079.71 646.345 2059.31C341.502 2039.78 46.4743 1975.03 -207.31 1871.75C-482.642 1759.61 -707.839 1605.69 -876.87 1413.84C-1047.1 1219.61 -1169.26 977.594 -1229.2 713.351ZM-203.953 1865.19C49.0711 1968.18 343.336 2032.64 647.151 2052.13C960.202 2072.5 1256.89 2045.06 1505.37 1973.41C1638.62 1934.72 1755.86 1884.05 1853.46 1821.76C1957.66 1755.88 2039.72 1676.73 2098.23 1587.09C2277.16 1310.6 2251.38 902.388 2224.01 469.892C2214.6 320.049 2204.86 165.551 2203.51 14.2273C2202.25 -152.555 2211.43 -316.081 2220.39 -473.946C2231.46 -671.412 2242.09 -858.07 2230.65 -1027.84C2218.44 -1216.71 2180.13 -1359.22 2111.12 -1475.4C2011.44 -1642.55 1828.76 -1777.23 1596.11 -1854.92C1372.6 -1929.66 1126.11 -1945.54 902.919 -1900.19C498.623 -1818.07 176.575 -1532.92 -164.433 -1231.28C-201.042 -1198.99 -238.721 -1165.73 -276.133 -1132.71C-311.671 -1101.41 -348.505 -1069.92 -383.755 -1039.39C-469.202 -965.531 -556.255 -890.187 -640.037 -812.913C-723.552 -735.884 -804.057 -656.672 -876.931 -575.091C-1040.78 -391.27 -1148 -212.119 -1205.18 -28.1118C-1274.15 193.043 -1280.37 455.389 -1222.14 710.798C-1162.16 974.014 -1040.47 1214.98 -870.716 1408.16C-702.712 1599.97 -478.255 1753.09 -203.953 1865.19Z" fill="url(#paint2_linear_1632_3019)" fill-opacity="0.5"/>
<path d="M-1113.22 719.323C-1167.73 480.296 -1161.93 234.684 -1097.38 27.5243C-978.265 -356.79 -648.748 -641.895 -330.432 -917.662C-297.592 -945.967 -263.413 -975.514 -230.284 -1004.58C-195.549 -1035.13 -160.279 -1066.18 -126.079 -1096.24C192.219 -1377.93 492.872 -1643.84 871.189 -1720.82C1080.61 -1763.38 1310.91 -1748.41 1520.44 -1678.62C1738.6 -1605.89 1910.52 -1479.12 2003.9 -1322.02C2068.82 -1212.97 2104.66 -1079.58 2116.55 -901.8C2126.91 -743.411 2117.31 -569.594 2107.03 -385.239C2098.76 -237.911 2090.3 -85.9528 2091.51 68.9738C2092.53 209.718 2101.65 353.884 2110.47 492.882C2136.16 896.703 2159.93 1278.03 1992 1537.45C1962.05 1583.4 1925.52 1626.5 1882.69 1666.01C1846.82 1699.08 1806.68 1729.68 1761.98 1758.03C1670.47 1816.18 1560.83 1863.8 1435.94 1899.73C1203.62 1966.88 926.605 1992.03 634.355 1973.27C350.591 1955.1 75.486 1894.77 -160.539 1798.39C-416.855 1693.98 -626.762 1550.72 -783.946 1371.72C-943.391 1191.33 -1056.94 965.638 -1113.22 719.323ZM-158.21 1791.79C77.3208 1887.63 351.396 1947.92 634.4 1965.79C925.865 1984.78 1202.11 1959.35 1433.65 1892.42C1557.76 1856.72 1666.89 1809.07 1757.87 1751.41C1854.67 1689.87 1931.6 1616.44 1985.47 1533.06C2152.03 1275.9 2127.97 895.343 2102.48 492.816C2093.69 353.304 2084.81 209.407 2083.55 68.3942C2082.6 -86.7788 2090.81 -239.005 2099.08 -386.333C2120.59 -759.385 2138.77 -1081.8 1997.58 -1318.67C1904.92 -1474.45 1734.48 -1599.62 1518.1 -1672.01C1309.86 -1741.5 1080.59 -1756.43 872.465 -1714.07C496.225 -1637.52 196.354 -1371.84 -121.141 -1090.88C-155.341 -1060.83 -190.364 -1029.52 -225.346 -999.228C-258.475 -970.161 -292.654 -940.613 -325.495 -912.309C-405.074 -843.366 -485.991 -773.19 -564.151 -701.099C-642.043 -629.255 -716.911 -555.742 -784.681 -479.366C-937.203 -307.972 -1036.95 -141.662 -1090.26 29.8735C-1154.5 235.757 -1160.26 480.34 -1106.2 717.804C-1050.37 962.549 -937.297 1187.19 -778.857 1367.03C-622.149 1544.98 -413.251 1687.68 -158.21 1791.79Z" fill="url(#paint3_linear_1632_3019)" fill-opacity="0.5"/>
<path d="M-996.989 725.566C-1047.58 504.219 -1041.99 276.64 -982.188 84.7498C-871.948 -271.061 -566.975 -535.511 -271.637 -791.073C-241.184 -817.675 -209.682 -844.749 -178.962 -871.595C-146.636 -899.927 -114.043 -928.502 -82.4992 -956.608C212.285 -1217.6 490.761 -1464.06 841.271 -1535.19C1035.12 -1574.78 1248.69 -1560.74 1442.7 -1495.95C1644.84 -1428.26 1804 -1311.02 1890.64 -1165.53C2022.42 -944.768 2005.41 -644.722 1986.24 -297.602C1978.67 -161.327 1970.67 -20.689 1971.83 122.896C1972.74 253.33 1981.27 386.647 1989.21 515.556C2012.75 889.658 2035.07 1243.09 1879.51 1483.17C1852.04 1525.35 1818.49 1564.71 1778.88 1601.25C1677.16 1695.07 1536.56 1769.28 1364.46 1819.02C1149.35 1881.2 892.51 1904.58 621.858 1887.2C358.898 1870.66 104.251 1814.24 -114.549 1725.26C-352.097 1628.3 -546.448 1495.47 -692.065 1330.07C-839.93 1162.78 -945.126 953.66 -996.989 725.566ZM-111.953 1718.41C106.085 1807.1 359.724 1862.96 622.167 1879.49C892.04 1897.09 1147.85 1873.66 1362.18 1811.71C1599.71 1743.22 1776.25 1627.95 1873.24 1479.05C2027.43 1240.72 2005.32 888.586 1981.98 515.783C1973.8 386.603 1965.27 253.285 1964.35 122.852C1963.46 -20.9802 1971.22 -161.886 1978.78 -298.161C1998.16 -643.984 2015.14 -943 1884.32 -1162.18C1798.4 -1306.35 1640.74 -1422.5 1440.37 -1489.35C1247.64 -1553.83 1035.34 -1567.55 842.548 -1528.44C493.849 -1457.49 216.173 -1211.78 -77.8086 -951.52C-109.352 -923.419 -141.946 -894.839 -174.272 -866.512C-204.991 -839.663 -236.761 -812.342 -266.946 -785.987C-340.389 -722.21 -414.615 -658.206 -486.083 -592.287C-701.021 -394.037 -892.915 -179.394 -975.292 86.316C-1034.79 276.932 -1040.06 503.236 -989.95 723.528C-938.292 950.328 -833.3 1158.16 -686.961 1324.87C-542.103 1489.97 -348.492 1622.01 -111.953 1718.41Z" fill="url(#paint4_linear_1632_3019)" fill-opacity="0.5"/>
<path d="M-881.031 732.053C-927.424 528.142 -922.567 318.569 -867.251 142.22C-765.879 -185.601 -484.953 -428.861 -213.375 -663.994C-185.332 -688.373 -156.486 -713.493 -128.175 -738.12C-98.2585 -764.227 -68.321 -790.849 -39.4536 -816.484C231.817 -1056.78 488.098 -1283.26 810.818 -1349.07C989.324 -1385.42 1185.95 -1372.58 1364.44 -1312.8C1550.56 -1250.65 1697.21 -1142.68 1776.84 -1008.55C1898.23 -804.959 1882.71 -529.075 1864.66 -209.742C1857.53 -84.2725 1850.23 45.3131 1851.33 177.557C1852.42 297.43 1860.09 420.146 1867.41 538.728C1889.32 883.128 1909.69 1208.14 1766.5 1429.38C1741.22 1468.05 1710.38 1504.42 1673.97 1538C1580.29 1624.41 1451 1692.64 1292.21 1738.53C1094.3 1795.74 857.636 1817.36 608.841 1801.13C366.711 1785.68 132.481 1734.21 -69.074 1652.11C-287.874 1563.13 -466.669 1440.71 -600.705 1288.41C-736.204 1133.98 -833.317 941.687 -881.031 732.053ZM-65.964 1645.28C134.829 1727.09 368.299 1778.26 609.399 1793.67C857.681 1809.89 1093.32 1788.22 1290.44 1731.25C1508.95 1667.92 1671.46 1562.13 1760.48 1425.02C1902.57 1205.79 1882.16 881.807 1860.45 538.706C1852.88 419.858 1845.22 297.143 1844.4 177.019C1843.3 44.775 1850.86 -85.0576 1857.99 -210.527C1876 -528.831 1891.24 -803.953 1771.03 -1005.18C1692.11 -1137.47 1546.96 -1244.35 1362.63 -1306.17C1185.14 -1365.4 990.065 -1378.17 812.856 -1342.04C492.214 -1276.65 236.466 -1050.67 -34.0015 -811.11C-62.8684 -785.475 -92.8063 -758.853 -122.723 -732.745C-151.034 -708.119 -180.148 -682.752 -208.191 -658.373C-276.013 -599.78 -343.856 -540.672 -409.703 -479.938C-607.513 -297.489 -784.023 -100.005 -859.616 144.59C-914.374 319.933 -919.44 528.209 -873.246 730.821C-825.764 939.671 -729.121 1130.92 -594.343 1284.03C-461.542 1434.99 -283.487 1556.6 -65.964 1645.28Z" fill="url(#paint5_linear_1632_3019)" fill-opacity="0.5"/>
<path d="M-765.045 738.025C-807.521 551.795 -803.14 360.503 -752.547 198.907C-659.787 -100.658 -403.425 -322.747 -155.094 -537.429C-129.459 -559.587 -103.022 -582.485 -77.0996 -605.404C-49.8593 -629.042 -22.3311 -653.443 4.12695 -676.856C252.131 -896.192 485.993 -1103.47 780.9 -1163.45C944.075 -1196.55 1123.74 -1184.91 1286.98 -1130.39C1457.09 -1073.78 1590.96 -974.824 1663.84 -852.309C1774.87 -666.404 1760.57 -414.437 1744.13 -122.355C1737.71 -7.93787 1731.11 110.595 1731.91 231.23C1732.9 340.79 1739.71 452.908 1746.66 561.425C1766.42 876.1 1785.35 1173.22 1654.26 1375.37C1631.17 1411.03 1602.77 1444.16 1569.58 1474.77C1483.93 1553.78 1365.7 1616.26 1220.74 1657.82C1040.04 1710.05 824.061 1729.93 596.338 1715.06C375.287 1700.98 160.978 1653.92 -23.0836 1578.97C-222.869 1497.72 -386.374 1385.97 -508.828 1246.77C-632.494 1105.7 -721.259 929.974 -765.045 738.025ZM-19.973 1572.14C163.328 1646.81 376.607 1693.82 596.896 1707.61C823.591 1722.44 1038.79 1702.79 1218.97 1650.53C1418.44 1592.88 1566.92 1496.05 1648.25 1371.01C1777.95 1171.12 1758.99 875.028 1739.44 561.646C1732.48 453.129 1725.67 341.017 1724.44 231.186C1723.4 110.283 1729.99 -8.25012 1736.68 -122.913C1752.81 -413.72 1767.07 -664.658 1657.25 -848.71C1585.34 -969.641 1452.7 -1067.26 1284.38 -1123.53C1122.42 -1177.75 944.031 -1189.08 782.154 -1156.19C489.325 -1096.63 255.752 -890.115 8.79724 -671.255C-17.6608 -647.842 -45.1896 -623.442 -72.4294 -599.804C-98.0844 -577.131 -124.789 -553.987 -150.423 -531.829C-212.11 -478.4 -274.599 -424.23 -334.558 -368.927C-515.237 -202.279 -676.367 -21.9559 -745.426 201.257C-795.443 361.326 -799.78 551.596 -757.779 736.771C-714.198 927.427 -626.421 1102.08 -502.96 1241.85C-381.247 1380.25 -218.482 1491.2 -19.973 1572.14Z" fill="url(#paint6_linear_1632_3019)" fill-opacity="0.5"/>
<path d="M-648.819 744.268C-687.365 575.718 -683.202 402.454 -637.348 256.131C-553.47 -14.9293 -321.136 -216.343 -96.297 -410.843C-73.072 -430.779 -49.2908 -451.722 -25.5306 -472.151C-0.946106 -493.836 23.9058 -515.767 47.9549 -536.958C272.445 -735.596 484.374 -923.143 751.231 -977.564C898.82 -1007.68 1061.77 -996.974 1209.25 -947.724C1363.33 -896.143 1484.71 -806.974 1550.57 -695.822C1650.97 -527.355 1638.14 -299.036 1623.34 -34.7198C1617.35 68.8912 1611.73 176.125 1612.47 285.419C1613.11 384.399 1619.58 485.937 1625.92 584.121C1643.8 868.829 1660.75 1138.03 1542.29 1321.11C1521.41 1353.25 1495.71 1383.4 1465.73 1411.05C1388.1 1482.64 1281.19 1539.14 1150.05 1576.88C986.291 1624.39 790.751 1642.25 584.619 1628.77C384.398 1615.79 190.526 1573.17 23.9567 1505.37C-156.813 1431.84 -304.763 1330.51 -415.901 1204.65C-529.035 1077.15 -609.183 917.753 -648.819 744.268ZM26.0175 1499.01C191.825 1566.52 384.936 1608.86 584.398 1621.55C789.768 1634.74 984.529 1617.1 1147.23 1570.07C1327.66 1518.09 1461.85 1430.48 1535.74 1317.24C1653.1 1136.18 1636.08 868.514 1618.16 584.839C1611.81 486.655 1605.62 384.874 1604.73 285.623C1603.99 176.328 1609.88 68.847 1615.87 -34.7635C1630.63 -298.051 1643.42 -525.341 1543.97 -691.709C1478.8 -801.028 1358.94 -889.623 1206.63 -940.354C1059.92 -989.316 898.759 -999.692 752.214 -970.05C487.192 -916.331 275.798 -729.276 52.3572 -531.111C28.3081 -509.92 3.45618 -487.989 -21.1278 -466.304C-44.3736 -445.855 -68.6697 -424.932 -91.8946 -404.996C-147.713 -356.484 -204.314 -307.746 -258.652 -257.627C-422.199 -106.779 -567.947 56.3838 -630.741 258.462C-676.019 403.261 -680.141 575.497 -641.8 742.743C-602.636 915.183 -522.694 1073.29 -411.329 1199.94C-300.932 1325 -153.723 1425.52 26.0175 1499.01Z" fill="url(#paint7_linear_1632_3019)" fill-opacity="0.5"/>
<path d="M-532.591 750.506C-566.946 599.398 -563.509 444.14 -522.395 313.088C-447.132 70.2826 -239.362 -109.961 -38.0154 -284.278C-16.9111 -302.753 4.17279 -320.714 25.2771 -339.189C47.1848 -358.404 69.3599 -377.867 90.7531 -397.103C291.73 -575.044 481.733 -742.862 720.534 -791.714C852.786 -818.584 998.778 -809.079 1131 -765.083C1269.07 -719.048 1377.68 -638.897 1436.79 -539.357C1526.82 -388.574 1515.21 -184.172 1501.79 52.6265C1496.75 145.452 1491.07 241.345 1492.02 339.05C1492.56 427.72 1498.43 518.413 1503.89 606.509C1520.14 861.514 1535.4 1102.56 1429.05 1266.54C1410.37 1295.16 1387.36 1322.32 1360.33 1347.26C1291 1411.21 1195.15 1461.97 1077.3 1495.86C930.505 1538.12 755.651 1554.25 570.846 1542.41C391.43 1531.04 217.994 1492.85 68.6703 1431.92C-93.3307 1365.86 -225.991 1275.2 -325.279 1162.18C-425.06 1048.63 -497.126 906.045 -532.591 750.506ZM72.2748 1425.63C220.59 1486 393.511 1524.16 572.166 1535.24C755.944 1547.05 930.014 1531.14 1076.03 1489.11C1237.68 1442.55 1357.59 1364.16 1423.53 1262.71C1528.25 1100.73 1513.2 860.973 1497.43 607.017C1491.97 518.921 1486.1 428.234 1485.58 339.05C1484.9 241.095 1490.32 144.935 1495.36 52.1093C1508.48 -183.413 1520.05 -386.786 1431.23 -535.716C1373.08 -633.671 1265.72 -712.483 1129.43 -758.189C998.236 -802.143 853.791 -811.585 722.832 -784.921C485.601 -736.521 296.647 -569.176 96.2262 -392.243C74.3185 -373.028 52.6578 -353.545 30.4827 -334.082C9.37842 -315.607 -11.4585 -297.379 -32.8098 -279.172C-83.0075 -235.844 -133.226 -192.003 -181.942 -147.069C-328.359 -12.0219 -458.992 134.228 -514.986 314.673C-555.523 444.207 -558.918 598.431 -525.015 747.976C-489.756 902.216 -418.678 1043.73 -318.629 1157.03C-220.371 1270.01 -88.7178 1360.11 72.2748 1425.63Z" fill="url(#paint8_linear_1632_3019)" fill-opacity="0.5"/>
<path d="M-416.364 756.749C-446.794 623.321 -443.571 486.097 -407.465 370.559C-341.063 155.744 -157.341 -3.30951 20.4914 -156.931C39.1868 -173.183 57.6148 -189.189 76.3102 -205.442C95.8085 -222.436 115.06 -239.697 134.291 -256.444C311.755 -413.688 479.584 -562.044 690.821 -604.793C807.735 -628.417 936.522 -620.381 1053.47 -581.125C1175.27 -540.385 1271.36 -469.502 1324 -381.819C1403.39 -248.474 1393.53 -67.9684 1381.47 141.312C1376.86 223.332 1372.16 307.928 1372.54 394.272C1372.98 472.627 1378.24 552.983 1383.11 630.233C1397.2 855.514 1410.76 1068.41 1317.03 1213.31C1300.54 1238.93 1280.25 1262.59 1256.43 1284.57C1195.14 1341.1 1110.09 1385.86 1006.57 1415.95C876.985 1453.24 722.297 1467.6 559.348 1456.9C401.012 1446.9 247.498 1413.12 115.667 1359.35C-27.3185 1301 -144.69 1221.01 -232.395 1121.09C-321.602 1020.08 -385.317 894.067 -416.364 756.749ZM118.017 1352.23C249.087 1405.71 401.591 1438.93 559.149 1449.16C721.335 1459.58 875.239 1445.44 1004.04 1408.38C1146.41 1367.23 1252.53 1298.07 1310.78 1208.68C1403.39 1065.79 1390.03 854.193 1375.9 629.94C1371.06 552.181 1365.8 471.821 1365.35 393.465C1364.73 306.85 1369.43 222.259 1374.3 139.992C1386.06 -68.012 1395.88 -247.489 1317.7 -378.982C1266.3 -465.326 1171.7 -535.117 1051.44 -575.28C935.489 -613.98 808 -622.222 692.379 -598.803C482.954 -556.238 316.178 -408.355 139.27 -252.12C120.018 -234.859 100.788 -218.111 81.2894 -201.118C62.594 -184.865 44.1665 -168.859 25.471 -152.606C-18.8586 -114.195 -63.1883 -75.7852 -106.284 -36.0362C-235.569 83.2105 -350.821 212.301 -400.035 371.631C-435.585 486.163 -439.013 622.089 -408.789 754.219C-377.701 890.509 -314.705 1015.2 -226.753 1115.39C-140.324 1215.01 -23.9604 1294.44 118.017 1352.23Z" fill="url(#paint9_linear_1632_3019)" fill-opacity="0.5"/>
<path d="M-300.383 762.722C-326.889 646.974 -323.878 527.783 -292.759 427.245C-235.239 240.935 -75.8139 102.806 78.5264 -30.6328C94.8129 -44.6635 110.832 -58.4478 126.871 -72.7464C143.96 -87.518 160.535 -102.311 177.11 -117.103C331.307 -253.382 476.695 -382.028 660.141 -419.458C761.474 -440.104 873.278 -432.753 974.982 -398.752C1081.01 -363.287 1164.35 -301.939 1209.97 -225.621C1279 -109.96 1270.09 46.8761 1260.18 228.411C1256.28 299.38 1252.01 373.167 1252.6 447.925C1252.94 515.971 1257.61 585.48 1261.84 652.907C1274.3 848.492 1285.65 1033.2 1204.28 1159.28C1189.99 1181.38 1172.4 1202.06 1151.52 1221.32C1098.25 1270.45 1024.54 1309.22 934.312 1335.47C821.669 1368.03 687.694 1380.14 546.066 1371.07C408.558 1362.16 275.482 1332.82 160.875 1286.45C36.6371 1236.07 -64.9109 1166.26 -141.3 1079.67C-218.142 991.528 -273.261 882.36 -300.383 762.722ZM164.007 1279.1C277.584 1325.43 409.899 1354.49 546.646 1363.1C755.866 1376.71 1008.49 1342.84 1146.07 1215.94C1166.15 1197.43 1183.47 1177 1198.03 1154.65C1278.29 1030.59 1266.62 847.149 1254.37 652.863C1250.14 585.436 1245.74 515.678 1245.4 447.632C1244.83 372.36 1248.83 298.822 1252.99 227.605C1263.11 47.3672 1271.98 -108.44 1203.92 -222.515C1159.26 -297.248 1077.18 -357.773 973.191 -392.639C872.758 -426.331 762.237 -433.373 662.196 -412.933C480.827 -375.934 335.977 -247.782 182.583 -112.243C166.008 -97.4508 148.919 -82.6792 132.344 -67.8866C116.058 -53.8559 100.286 -39.8037 83.9994 -25.773C45.8052 7.47357 6.82925 40.9461 -30.3771 75.2634C-142.531 178.709 -242.401 290.64 -285.35 428.836C-316.16 528.092 -319.108 645.741 -293.075 760.44C-266.158 878.78 -211.512 986.903 -135.123 1073.48C-59.7628 1160.02 41.0444 1229.03 164.007 1279.1Z" fill="url(#paint10_linear_1632_3019)" fill-opacity="0.5"/>
<path d="M-184.155 768.965C-206.469 670.654 -204.186 569.469 -177.56 484.473C-128.655 326.414 6.72139 209.477 137.322 95.9534C151.199 84.1443 164.83 72.0678 178.192 60.2377C192.358 47.6673 206.524 35.0968 220.937 22.7938C351.62 -92.7882 474.833 -201.972 630.466 -233.567C716.468 -250.967 811.309 -244.816 897.77 -216.07C987.783 -186.148 1058.34 -133.82 1097.22 -69.1137C1155.86 29.3768 1148.44 162.05 1139.9 316.066C1136.44 376.227 1133.14 438.715 1133.43 501.865C1133.94 559.353 1137.48 618.509 1141.1 675.604C1151.41 841.464 1161.57 998.042 1092.31 1105.02C1079.67 1124.61 1064.53 1142.04 1047.13 1158.09C929.091 1266.96 712.733 1296.11 534.099 1284.51C288.371 1268.92 75.8074 1178.64 -48.6207 1037.29C-114.436 963.251 -161.184 870.133 -184.155 768.965ZM534.143 1277.04C711.235 1288.57 925.246 1260.11 1041.68 1152.71C1058.54 1137.16 1073.41 1119.98 1085.79 1100.64C1153.67 995.92 1143.97 840.392 1133.35 675.808C1129.74 618.708 1126.2 559.552 1125.44 501.799C1125.18 438.135 1128.47 375.647 1131.94 315.486C1140.68 162.768 1147.81 30.8559 1090.63 -65.5142C1014.86 -192.786 813.359 -263.546 631.991 -226.547C478.429 -195.384 355.755 -86.6942 225.875 28.1475C211.709 40.718 197.543 53.2884 183.13 65.5914C169.499 77.6679 155.89 89.23 142.26 101.307C109.687 129.368 77.093 157.945 45.5079 187.078C-49.5152 274.722 -134.003 369.492 -170.419 486.307C-196.488 570.292 -198.978 670.178 -176.868 767.197C-154.102 867.072 -108.074 958.87 -43.2675 1032.35C79.6589 1172.61 290.205 1261.78 534.143 1277.04Z" fill="url(#paint11_linear_1632_3019)" fill-opacity="0.5"/>
<path d="M-68.1933 775.451C-86.5833 694.82 -84.5131 611.669 -62.8739 541.673C-22.5835 411.874 87.983 315.839 195.584 223.032C206.806 213.177 218.274 203.59 229.228 193.982C240.985 183.634 252.474 173.532 264.23 163.183C371.401 68.298 472.684 -21.1553 600.261 -47.1835C751.745 -77.9162 919.942 -18.5514 983.418 87.8653C1031.7 168.671 1025.23 277.673 1018.33 403.924C1015.55 453.549 1012.73 504.202 1013.2 556.275C1013.62 603.453 1016.56 651.764 1019.57 698.527C1028.24 834.685 1036.2 963.08 979.562 1050.99C969.12 1067.06 956.683 1081.5 942.495 1094.59C845.332 1184.21 668.108 1207.97 521.336 1198.7C319.567 1185.65 145.508 1111.87 42.9897 995.892C-10.707 934.455 -49.1255 858.425 -68.1933 775.451ZM521.646 1190.98C666.605 1200.44 842.023 1176.86 937.312 1088.97C951.23 1076.13 963.13 1062.18 973.556 1046.62C1029.08 960.732 1021.08 833.364 1012.61 698.505C1009.61 651.736 1006.41 603.16 1006.27 555.739C1005.79 503.667 1008.9 452.251 1011.41 402.874C1018.52 277.921 1024.7 169.677 977.368 90.9709C915.35 -13.3253 750.424 -70.7536 601.802 -40.6789C475.789 -15.1032 375.556 73.8777 269.189 168.022C257.432 178.371 245.943 188.472 234.187 198.821C222.965 208.676 211.744 218.53 200.543 227.871C173.838 251.015 147.133 274.159 121.169 298.11C43.5444 369.708 -25.8294 447.566 -55.4649 543.259C-76.7946 611.978 -78.8029 693.588 -60.886 773.17C-42.2906 855.094 -4.34498 930.068 48.6319 990.191C149.38 1105.33 321.67 1178.26 521.646 1190.98Z" fill="url(#paint12_linear_1632_3019)" fill-opacity="0.5"/>
<path d="M52.0784 598.63C83.4862 497.335 170.271 422.245 253.866 349.597C262.678 341.967 271.491 334.331 280.035 326.944C289.116 319.066 298.463 310.939 307.296 302.795C390.952 228.605 470.059 158.614 569.829 138.42C673.76 117.364 814.144 150.866 869.637 244.333C907.278 307.701 902.555 392.808 897.019 491.539C894.947 530.115 892.56 569.961 892.731 610.426C893.046 647.288 895.4 684.748 897.527 721.428C904.317 827.618 910.555 928.372 866.294 996.937C858.056 1009.49 848.316 1020.95 837.343 1031.07C761.325 1101.19 622.444 1119.8 508.071 1112.35C350.515 1102.12 214.198 1044.56 134.373 953.715C49.3838 856.735 16.24 713.92 52.0784 598.63ZM509.143 1104.92C621.974 1112.31 758.778 1094.13 832.918 1025.74C843.625 1015.87 853.101 1004.65 861.051 992.859C904.196 926.311 898.162 826.856 891.328 721.693C888.936 685.262 886.604 647.288 886.289 610.42C885.875 569.69 888.256 529.844 890.599 491.025C896.09 393.322 900.776 309.242 864.079 247.974C815.801 167.168 687.489 122.041 571.868 145.46C473.905 165.469 395.602 234.72 312.749 308.165C303.668 316.049 294.568 324.442 285.487 332.32C276.675 339.956 267.863 347.586 259.05 355.221C238.481 373.2 217.13 391.41 197.054 409.924C136.561 465.721 82.3227 526.148 59.1995 600.978C24.5562 712.196 57.947 855.276 140.487 949.063C218.832 1038.3 353.379 1095.02 509.143 1104.92Z" fill="url(#paint13_linear_1632_3019)" fill-opacity="0.5"/>
<path d="M167.277 655.852C189.824 582.546 252.56 528.645 312.662 476.18C319.065 470.771 325.222 465.091 331.625 459.682C338.296 454.024 344.72 448.102 351.391 442.444C411.781 389.216 468.711 338.69 540.425 324.06C615.521 308.8 716.838 333.248 757.154 400.592C784.43 446.273 781.171 507.733 777.005 578.95C775.369 606.713 773.961 635.26 774.071 664.388C774.287 690.936 776.027 718.069 777.806 744.163C782.696 820.9 787.259 892.984 754.839 942.698C748.805 951.731 742.032 959.963 733.733 967.615C678.859 1018.22 578.846 1031.71 496.601 1026.32C382.985 1019.16 284.946 977.317 227.278 912.112C165.167 842.082 141.249 738.809 167.277 655.852ZM496.645 1018.85C589.426 1024.92 704.058 1006.88 748.568 938.576C779.353 890.857 774.751 819.806 770.065 744.368C768.557 718.025 766.817 690.891 766.601 664.344C766.242 634.951 767.922 606.155 769.557 578.392C773.414 508.451 776.872 448.289 750.811 404.46C716.296 346.63 624.819 314.585 542.193 331.348C472.042 345.525 415.914 395.31 356.329 447.798C349.904 453.721 343.234 459.378 336.563 465.036C330.159 470.445 324.003 476.124 317.599 481.533C302.652 494.335 287.683 507.644 273.228 520.976C229.865 560.971 191.009 604.243 174.419 657.686C149.565 737.086 173.503 839.845 232.385 906.907C288.55 971.019 384.841 1011.51 496.645 1018.85Z" fill="url(#paint14_linear_1632_3019)" fill-opacity="0.5"/>
</g>
</g>
<defs>
<linearGradient id="paint0_linear_1632_3019" x1="0" y1="0" x2="655.649" y2="71.0562" gradientUnits="userSpaceOnUse">
<stop stop-color="#8FB9D0"/>
<stop offset="1" stop-color="#719BB2"/>
</linearGradient>
<linearGradient id="paint1_linear_1632_3019" x1="-259.5" y1="-270.5" x2="1015" y2="504.5" gradientUnits="userSpaceOnUse">
<stop stop-color="#8FB9D0"/>
<stop offset="1" stop-color="#7BA5BC"/>
</linearGradient>
<linearGradient id="paint2_linear_1632_3019" x1="-213.061" y1="-201.667" x2="979.574" y2="523.452" gradientUnits="userSpaceOnUse">
<stop stop-color="#8FB9D0"/>
<stop offset="1" stop-color="#7BA5BC"/>
</linearGradient>
<linearGradient id="paint3_linear_1632_3019" x1="-166.523" y1="-132.579" x2="944.42" y2="543.106" gradientUnits="userSpaceOnUse">
<stop stop-color="#8FB9D0"/>
<stop offset="1" stop-color="#7BA5BC"/>
</linearGradient>
<linearGradient id="paint4_linear_1632_3019" x1="-120.056" y1="-63.8021" x2="909.106" y2="562.027" gradientUnits="userSpaceOnUse">
<stop stop-color="#8FB9D0"/>
<stop offset="1" stop-color="#7BA5BC"/>
</linearGradient>
<linearGradient id="paint5_linear_1632_3019" x1="-73.8501" y1="5.36993" x2="873.442" y2="581.368" gradientUnits="userSpaceOnUse">
<stop stop-color="#8FB9D0"/>
<stop offset="1" stop-color="#7BA5BC"/>
</linearGradient>
<linearGradient id="paint6_linear_1632_3019" x1="-27.4846" y1="74.2103" x2="838.146" y2="600.621" gradientUnits="userSpaceOnUse">
<stop stop-color="#8FB9D0"/>
<stop offset="1" stop-color="#7BA5BC"/>
</linearGradient>
<linearGradient id="paint7_linear_1632_3019" x1="19.1548" y1="143.044" x2="803.021" y2="619.809" gradientUnits="userSpaceOnUse">
<stop stop-color="#8FB9D0"/>
<stop offset="1" stop-color="#7BA5BC"/>
</linearGradient>
<linearGradient id="paint8_linear_1632_3019" x1="65.4822" y1="211.822" x2="767.371" y2="638.654" gradientUnits="userSpaceOnUse">
<stop stop-color="#8FB9D0"/>
<stop offset="1" stop-color="#7BA5BC"/>
</linearGradient>
<linearGradient id="paint9_linear_1632_3019" x1="112.054" y1="281.658" x2="732.124" y2="658.822" gradientUnits="userSpaceOnUse">
<stop stop-color="#8FB9D0"/>
<stop offset="1" stop-color="#7BA5BC"/>
</linearGradient>
<linearGradient id="paint10_linear_1632_3019" x1="158.378" y1="350.376" x2="696.795" y2="677.781" gradientUnits="userSpaceOnUse">
<stop stop-color="#8FB9D0"/>
<stop offset="1" stop-color="#7BA5BC"/>
</linearGradient>
<linearGradient id="paint11_linear_1632_3019" x1="205.036" y1="419.113" x2="661.605" y2="696.909" gradientUnits="userSpaceOnUse">
<stop stop-color="#8FB9D0"/>
<stop offset="1" stop-color="#7BA5BC"/>
</linearGradient>
<linearGradient id="paint12_linear_1632_3019" x1="251.271" y1="488.357" x2="626.014" y2="716.394" gradientUnits="userSpaceOnUse">
<stop stop-color="#8FB9D0"/>
<stop offset="1" stop-color="#7BA5BC"/>
</linearGradient>
<linearGradient id="paint13_linear_1632_3019" x1="297.183" y1="557.243" x2="590.042" y2="735.419" gradientUnits="userSpaceOnUse">
<stop stop-color="#8FB9D0"/>
<stop offset="1" stop-color="#7BA5BC"/>
</linearGradient>
<linearGradient id="paint14_linear_1632_3019" x1="344.217" y1="626.054" x2="555.543" y2="754.827" gradientUnits="userSpaceOnUse">
<stop stop-color="#8FB9D0"/>
<stop offset="1" stop-color="#7BA5BC"/>
</linearGradient>
<clipPath id="clip0_1632_3019">
<rect width="620" height="400" fill="white"/>
</clipPath>
</defs>
</svg>
