<svg width="44" height="40" viewBox="0 0 44 40" fill="none" xmlns="http://www.w3.org/2000/svg">
<path fill-rule="evenodd" clip-rule="evenodd" d="M17.8124 7.45076C16.6938 8.06296 16.5049 8.51687 14.1948 16.1414C12.3496 22.2323 12.1752 23.0399 12.4685 24.1349C12.6609 24.8533 13.1472 25.5991 13.6539 25.9528C14.7473 26.7156 35.2924 33.0025 36.6835 33C38.2528 32.9968 39.4449 32.2267 39.9819 30.8687C41.0034 28.2867 44 17.8464 44 16.87C44 15.3069 43.2302 14.1056 41.8801 13.5623C39.0434 12.4207 20.6784 6.9886 19.6948 7.00002C19.0997 7.007 18.2526 7.21 17.8124 7.45076ZM30.3056 12.7042C36.0121 14.453 40.8785 16.0827 41.1204 16.3257C41.4963 16.7038 41.2765 17.703 39.6051 23.2175C38.5303 26.7648 37.4562 29.867 37.2187 30.1116C36.8491 30.4916 35.2259 30.0783 26.0049 27.2568C19.9035 25.3897 15.1522 23.7736 15.0605 23.5335C14.8681 23.0317 18.327 11.2743 18.9716 10.2386C19.216 9.84594 19.5317 9.52493 19.6733 9.52493C19.8146 9.52493 24.5993 10.9555 30.3056 12.7042ZM5.50837 11.666C5.33397 12.1456 5.12898 12.7169 5.05298 12.9348C4.9467 13.2387 5.86126 13.3313 8.96603 13.3313H13.0175L13.3376 12.0625L13.6577 10.7937H9.74152H5.82499L5.50837 11.666ZM6.58061 18.0893L6.2438 19.3582H8.68883C11.0083 19.3582 11.1433 19.3191 11.324 18.5947C11.429 18.1747 11.6015 17.6037 11.7075 17.3258C11.8737 16.89 11.5583 16.8205 9.40881 16.8205H6.9171L6.58061 18.0893ZM0.462518 24.0369C0.28812 24.5168 0.0831328 25.0877 0.00712965 25.3057C-0.0997793 25.6118 0.973725 25.7022 4.7127 25.7022H9.55672L9.7472 24.9387C9.85221 24.5187 10.0247 23.9477 10.1307 23.6699C10.3016 23.2213 9.78725 23.1646 5.55126 23.1646H0.779145L0.462518 24.0369ZM6.45446 29.4293C6.28007 29.9092 6.07508 30.4802 5.99908 30.6981C5.89154 31.0054 7.09182 31.0946 11.3354 31.0946H16.8101L17.0006 30.3311C17.1056 29.9111 17.2781 29.3401 17.3841 29.0623C17.5556 28.6122 16.987 28.557 12.1739 28.557H6.77109L6.45446 29.4293Z" fill="#0089EE"/>
<path fill-rule="evenodd" clip-rule="evenodd" d="M20.6938 13.0614C20.1498 14.6309 20.2425 14.7835 22.0476 15.2888L23.7478 15.7649L24.1193 14.5173C24.3236 13.8309 24.4457 13.2327 24.3902 13.1876C24.2905 13.1068 21.2469 12.0625 21.1107 12.0625C21.0716 12.0625 20.8843 12.512 20.6938 13.0614Z" fill="#1E1E1E"/>
</svg>
