<svg width="180" height="30" viewBox="0 0 180 30" fill="none" xmlns="http://www.w3.org/2000/svg">
<g clip-path="url(#clip0_1637_2827)">
<path fill-rule="evenodd" clip-rule="evenodd" d="M12.4868 0.252545C11.1669 0.474478 7.87539 1.56169 7.87539 1.77538C7.87539 1.82398 11.3793 4.84153 15.6621 8.48083C23.1746 14.8646 23.4285 15.1135 22.8727 15.5472C22.5557 15.7944 19.0577 18.746 15.099 22.1063C7.13207 28.8688 7.38596 28.4863 10.2684 29.3846C12.5232 30.0873 16.1687 30.2067 18.2904 29.6471C23.6485 28.2346 27.8128 24.144 29.1869 18.9432C29.7277 16.8964 29.7077 12.928 29.1468 11.0045C27.5612 5.567 23.2062 1.55288 17.6077 0.368769C15.4288 -0.0918628 14.6398 -0.109765 12.4868 0.252545ZM5.60198 3.26299C3.58753 4.80402 1.76575 7.28904 0.817629 9.79054C0.0500459 11.8152 -0.246437 16.1621 0.230023 18.401C0.953882 21.8002 3.28089 25.2804 6.27647 27.4426L7.56706 28.3744L7.84746 27.3005C8.00177 26.7097 8.71942 23.7331 9.44215 20.6854L10.7564 15.1442L9.27261 8.7505C8.45651 5.23396 7.69908 2.25307 7.58906 2.12633C7.47933 1.99959 6.58508 2.51109 5.60198 3.26299ZM38.6713 6.64853C37.1285 7.42316 36.3096 8.32255 35.2054 10.4555C34.6237 11.5788 34.5428 12.1315 34.5383 15.0021C34.5338 18.0143 34.5955 18.3973 35.3264 19.8966C36.639 22.5891 39.3644 24.3796 42.1501 24.3796C43.7462 24.3796 45.9547 23.5291 47.1254 22.4635C50.0942 19.7616 50.9802 14.022 49.0487 10.0028C48.3031 8.45127 46.346 6.68405 44.8844 6.24303C42.914 5.64827 40.3277 5.81706 38.6713 6.64853ZM75.7632 6.42859C75.4859 6.73719 75.2964 7.42942 75.2964 8.13358V9.31883H77.4121H79.5278V7.61384V5.90885H77.879C76.6397 5.90885 76.1142 6.03786 75.7632 6.42859ZM67.2823 6.83239L66.5711 7.47176L66.4907 14.4338C66.4021 22.0963 66.5367 22.9266 67.9875 23.6825C68.4753 23.9366 69.5991 24.0954 70.9098 24.0954H73.0396V22.5592C73.0396 21.1631 72.988 21.0364 72.476 21.1714C72.1659 21.2529 71.5947 21.1103 71.2065 20.8539C70.5185 20.3998 70.5007 20.3021 70.5007 16.9847V13.5813H71.7702H73.0396V12.3026V11.0238H71.7702H70.5007V8.60842V6.19301H69.2471C68.3455 6.19301 67.7934 6.37261 67.2823 6.83239ZM122.688 15.1274V24.0954H127.188C132.474 24.0954 134.177 23.8039 135.165 22.7303C136.501 21.2788 136.886 18.8679 136.062 17.1177C135.616 16.1706 133.789 15.0021 132.755 15.0021C131.945 15.0021 132.233 14.5142 133.153 14.3289C133.632 14.2323 134.458 13.7177 134.986 13.1852C135.831 12.3347 135.947 12.0397 135.947 10.7539C135.947 9.12219 135.521 8.10175 134.4 7.04551C133.657 6.34533 133.567 6.33396 128.167 6.24729L122.688 6.1592V15.1274ZM167.824 6.76134C167.285 7.3041 167.26 7.70847 167.26 15.7125V24.0954H168.542C169.527 24.0954 169.984 23.934 170.516 23.3978L171.209 22.7004V14.4466V6.19301H169.799C168.764 6.19301 168.238 6.34447 167.824 6.76134ZM43.3986 9.45011C44.6139 10.0832 45.1124 11.6805 45.1104 14.9368C45.1087 18.2425 44.7789 19.6087 43.795 20.3885C42.132 21.7059 40.1102 20.7127 39.502 18.2797C39.0428 16.442 39.1367 13.0951 39.6941 11.4501C40.0716 10.3356 40.3884 9.92211 41.1627 9.53252C42.3585 8.93066 42.3986 8.92924 43.3986 9.45011ZM131.235 9.67404C132.037 10.2762 132.128 11.6334 131.426 12.5319C130.843 13.2784 130.703 13.3165 128.831 13.238L126.852 13.1551L126.814 11.2369L126.775 9.31883H128.768C129.922 9.31883 130.961 9.4683 131.235 9.67404ZM58.6626 10.8175C58.1249 11.009 57.4267 11.566 57.111 12.0551C56.7954 12.5444 56.3858 13.1838 56.201 13.4759C55.918 13.9234 55.8622 13.7492 55.8484 12.3736L55.8317 10.7397H53.9981H52.1645V19.7269V28.7142L53.6288 28.5727C54.7654 28.4627 55.239 28.2601 55.7446 27.6682C56.3217 26.9922 56.3965 26.6083 56.4007 24.2926L56.4055 21.68L56.9993 22.6141C58.6806 25.2594 62.0347 24.859 63.7304 21.811C64.3637 20.6726 64.4357 20.2242 64.4357 17.4175C64.4357 14.6071 64.3646 14.1653 63.7304 13.0383C62.5295 10.9033 60.6872 10.0963 58.6626 10.8175ZM88.4257 10.6541C87.4835 10.9099 86.5695 11.6413 86.1353 12.4867C85.5333 13.6597 85.1697 13.4833 85.1697 12.0184V10.7397H83.3361H81.5025V17.4175V24.0954H83.6182H85.7339V19.3087C85.7339 15.0323 85.7889 14.4719 86.2499 14.0516C86.9187 13.4418 87.7881 13.4529 88.3487 14.0786C88.7027 14.4736 88.8133 15.4437 88.8861 18.7932C88.9741 22.828 89.0068 23.0338 89.6441 23.5529C90.0962 23.9215 90.7524 24.0954 91.6892 24.0954H93.0684V19.536C93.0684 15.043 93.0788 14.9658 93.7785 14.261C94.4865 13.5478 95.3176 13.5236 96.0304 14.1951C96.1856 14.3412 96.376 16.4474 96.4536 18.8756C96.6155 23.944 96.6908 24.0954 99.0463 24.0954H100.403V18.54C100.403 11.6592 100.306 11.3989 97.4409 10.6254C96.3193 10.3225 94.6518 10.9539 93.7598 12.0192L92.8994 13.0465L92.5141 12.3213C91.8348 11.0426 89.9005 10.254 88.4257 10.6541ZM106.934 10.7465C105.282 11.0929 104.063 11.8513 103.282 13.0198C102.674 13.9288 102.664 14.0033 103.14 14.1923C104.281 14.6458 106.013 14.4386 107.059 13.7234C107.63 13.3327 108.404 13.013 108.777 13.013C109.684 13.013 110.904 14.2659 110.789 15.0791C110.71 15.6404 110.474 15.7373 108.725 15.9294C104.779 16.3627 102.646 17.679 102.224 19.9398C101.954 21.3904 102.879 23.2972 104.145 23.9027C106.242 24.905 108.954 24.2608 110.091 22.4907C110.86 21.2955 111.123 21.2916 111.123 22.4757C111.123 23.7803 111.559 24.0954 113.365 24.0957L114.931 24.096L114.837 18.7793C114.729 12.6748 114.574 12.1238 112.725 11.3034C111.278 10.6612 108.578 10.4018 106.934 10.7465ZM142.946 10.7354C142.218 10.8655 141.225 11.2074 140.74 11.4952C139.823 12.0389 138.574 13.7652 138.877 14.0701C138.973 14.1664 139.755 14.3039 140.616 14.3758C141.93 14.4855 142.283 14.4102 142.815 13.9061C144.355 12.4486 146.667 13.0005 146.667 14.8257V15.7731L144.733 15.9541C141.423 16.2638 139.411 17.2146 138.651 18.827C138.045 20.1134 138.09 21.4888 138.775 22.6206C140.267 25.0857 144.708 24.8914 146.269 22.2927L146.808 21.3958L146.902 22.2483C147.057 23.6498 147.674 24.0954 149.461 24.096L151.039 24.0963L150.898 18.5729L150.757 13.0493L149.935 12.1852C149.483 11.7101 148.721 11.1974 148.242 11.0463C146.893 10.6206 144.406 10.4745 142.946 10.7354ZM160.107 10.7388C159.067 11.0642 158.304 11.7709 157.651 13.0127L157.129 14.0076L157.117 12.3736L157.104 10.7397H155.13H153.155V17.4175V24.0954H155.252H157.348L157.438 19.4357C157.517 15.3284 157.591 14.7052 158.065 14.1786C158.701 13.4713 159.709 13.4043 160.328 14.0277C160.69 14.3926 160.771 15.2272 160.771 18.5874C160.771 22.5754 160.793 22.7218 161.464 23.3978C162.016 23.9542 162.445 24.0954 163.58 24.0954H165.003L164.999 18.6252C164.996 14.8495 164.887 12.9434 164.646 12.4719C163.9 11.009 161.802 10.2083 160.107 10.7388ZM75.2964 17.5596V24.0954H76.6755C77.6127 24.0954 78.2682 23.9215 78.7207 23.5527C79.3772 23.0179 79.3879 22.9235 79.4731 17.0169L79.5594 11.0238H77.4279H75.2964V17.5596ZM173.948 13.4497C172.894 14.7805 171.963 16.0518 171.878 16.2746C171.793 16.4977 172.631 18.3485 173.741 20.3876L175.758 24.0954H177.879H180L179.443 23.1719C179.137 22.6641 178.113 20.9298 177.169 19.3183L175.451 16.3883L177.279 13.8791C178.285 12.4989 179.108 11.2921 179.108 11.1969C179.108 11.1017 178.378 11.0252 177.486 11.0269L175.864 11.0301L173.948 13.4497ZM59.4784 14.0459C59.9737 14.6802 60.0626 15.1908 60.0589 17.3849C60.0544 20.3132 59.7227 21.2529 58.5469 21.6695C57.845 21.9181 57.6653 21.8562 57.0718 21.1611C56.454 20.4376 56.3959 20.1199 56.3959 17.465C56.3959 15.296 56.5071 14.4003 56.8351 13.9288C57.4577 13.0332 58.732 13.0897 59.4784 14.0459ZM131.587 17.1206C132.434 17.9728 132.471 18.9435 131.695 19.9367C131.154 20.6292 130.948 20.6854 128.945 20.686L126.779 20.6868L126.872 18.5548L126.965 16.423H128.93C130.64 16.423 130.985 16.5133 131.587 17.1206ZM110.747 19.0245C110.538 20.8008 109.713 21.8221 108.486 21.8221C108.021 21.8221 107.409 21.6104 107.125 21.3518C105.673 20.0282 107.582 17.6051 110.104 17.5707L110.919 17.5596L110.747 19.0245ZM146.667 18.9932C146.667 20.721 145.801 21.8221 144.443 21.8221C143.035 21.8221 142.336 20.5945 142.901 19.1126C143.113 18.5553 145.098 17.575 146.032 17.5659C146.607 17.5602 146.667 17.694 146.667 18.9932Z" fill="white"/>
</g>
<defs>
<clipPath id="clip0_1637_2827">
<rect width="180" height="30" fill="white"/>
</clipPath>
</defs>
</svg>
