<svg width="116" height="30" viewBox="0 0 116 30" fill="none" xmlns="http://www.w3.org/2000/svg">
<path d="M0 15.1078C0 22.5737 6.07567 28.6003 13.6023 28.6003C21.1288 28.6003 27.2045 22.5737 27.2045 15.1078C27.2045 7.64191 21.1288 1.61523 13.6023 1.61523C6.07567 1.61523 0 7.64191 0 15.1078ZM4.71545 15.1078C4.71545 10.4304 8.34271 6.65246 12.9675 6.29265V10.9701C10.9725 11.2399 9.43089 12.949 9.43089 15.0178C9.43089 17.2666 11.2445 19.1556 13.6023 19.1556C15.96 19.1556 17.7736 17.3566 17.7736 15.0178C17.7736 12.949 16.232 11.2399 14.237 10.9701V6.29265C18.8618 6.5625 22.4891 10.4304 22.4891 15.1078C22.4891 19.9651 18.4991 23.9229 13.6023 23.9229C8.70544 23.9229 4.71545 19.9651 4.71545 15.1078ZM11.7886 3.95394C11.7886 2.96449 12.6048 2.15494 13.6023 2.15494C14.5998 2.15494 15.4159 2.96449 15.4159 3.95394C15.4159 4.9434 14.5998 5.75295 13.6023 5.75295C12.6048 5.75295 11.7886 4.9434 11.7886 3.95394Z" fill="#B74746"/>
<path d="M39.6007 18.8135H35.7014C35.0666 18.8135 34.7039 18.4537 34.7039 17.8241V13.9562C34.7039 13.2366 35.0666 12.9667 35.7014 12.9667H39.6007C40.2354 12.9667 40.5982 13.3265 40.5982 13.9562V17.8241C40.5982 18.4537 40.2354 18.8135 39.6007 18.8135ZM42.9559 13.7763C42.9559 11.6175 41.8677 10.5381 39.782 10.5381H35.52C33.3436 10.5381 32.3461 11.6175 32.3461 13.7763V17.8241C32.3461 19.9829 33.4343 21.0623 35.52 21.0623H39.782C41.8677 21.0623 42.9559 19.9829 42.9559 17.8241V13.7763Z" fill="#B74746"/>
<path d="M54.7445 10.5381H44.1348V12.8768H48.3061V21.1522H50.6638V12.8768H54.7445V10.5381Z" fill="#B74746"/>
<path d="M66.6238 13.7762C66.6238 11.7073 65.6263 10.6279 63.6313 10.6279H55.9234V12.9666H63.1779C63.9034 12.9666 64.2661 13.2365 64.2661 13.8661C64.2661 14.4958 63.9034 14.7656 63.1779 14.7656H60.0948V17.1044H63.1779C63.9034 17.1044 64.2661 17.3742 64.2661 18.0039C64.2661 18.6335 63.9034 18.9034 63.1779 18.9034H55.9234V21.2421H63.1779C65.445 21.2421 66.6238 20.3426 66.6238 18.4536C66.6238 17.5541 66.4425 16.6546 65.9891 16.025C66.4425 15.1254 66.6238 14.4058 66.6238 13.7762Z" fill="#B74746"/>
<path d="M75.0572 18.8135H71.1579C70.5231 18.8135 70.1604 18.4537 70.1604 17.8241V13.9562C70.1604 13.2366 70.5231 12.9667 71.1579 12.9667H75.0572C75.692 12.9667 76.0547 13.3265 76.0547 13.9562V17.8241C76.0547 18.4537 75.692 18.8135 75.0572 18.8135ZM78.4124 13.7763C78.4124 11.6175 77.3243 10.5381 75.2386 10.5381H70.9765C68.8002 10.5381 67.8027 11.6175 67.8027 13.7763V17.8241C67.8027 19.9829 68.8909 21.0623 70.9765 21.0623H75.2386C77.3243 21.0623 78.4124 19.9829 78.4124 17.8241V13.7763Z" fill="#B74746"/>
<path d="M87.934 17.914C87.934 17.2844 87.5713 17.0145 86.9365 17.0145H82.0397V18.8135H86.9365C87.5713 18.8135 87.934 18.4537 87.934 17.914ZM87.934 13.7763C87.934 13.1466 87.5713 12.8768 86.9365 12.8768H82.0397V14.6758H86.9365C87.5713 14.6758 87.934 14.406 87.934 13.7763ZM90.2918 17.914C90.2918 20.0728 89.2036 21.0623 87.1179 21.0623H79.682V10.5381H87.1179C89.2036 10.5381 90.2918 11.6175 90.2918 13.6863C90.2918 14.6758 90.0197 15.3954 89.657 15.7552C90.0197 16.2949 90.2918 17.0145 90.2918 17.914Z" fill="#B74746"/>
<path d="M102.08 21.1522H99.7227V13.7763L93.8284 21.1522H91.4706V10.5381H93.8284V17.914L99.7227 10.5381H102.08V21.1522Z" fill="#B74746"/>
<path d="M109.879 15.8452L114.141 10.5381H111.421L108.065 14.6758H105.617V10.5381H103.259V21.1522H105.617V17.0145H108.065L111.421 21.1522H114.141L109.879 15.8452Z" fill="#B74746"/>
</svg>
