<svg width="64" height="64" viewBox="0 0 64 64" fill="none" xmlns="http://www.w3.org/2000/svg">
<path d="M18 58C24.6274 58 30 52.6274 30 46C30 39.3726 24.6274 34 18 34C11.3726 34 6 39.3726 6 46C6 52.6274 11.3726 58 18 58Z" fill="#1E4165"/>
<path d="M33 56C46.8071 56 58 44.8071 58 31C58 17.1929 46.8071 6 33 6C19.1929 6 8 17.1929 8 31C8 44.8071 19.1929 56 33 56Z" fill="#EFF2FA"/>
<mask id="mask0_1638_2858" style="mask-type:alpha" maskUnits="userSpaceOnUse" x="8" y="6" width="50" height="50">
<path d="M33 56C46.8071 56 58 44.8071 58 31C58 17.1929 46.8071 6 33 6C19.1929 6 8 17.1929 8 31C8 44.8071 19.1929 56 33 56Z" fill="#A0D8A7"/>
</mask>
<g mask="url(#mask0_1638_2858)">
<g filter="url(#filter0_f_1638_2858)">
<path d="M18 58C24.6274 58 30 52.6274 30 46C30 39.3726 24.6274 34 18 34C11.3726 34 6 39.3726 6 46C6 52.6274 11.3726 58 18 58Z" fill="#1E4165"/>
</g>
</g>
<path d="M58 31C58 25.1736 55.9963 19.8062 52.642 15.5506C52.6031 15.4788 52.5518 15.4145 52.4906 15.3605C47.9048 9.65682 40.8713 6 33 6C25.1287 6 18.0955 9.65653 13.5094 15.3605C13.4484 15.4149 13.3972 15.4792 13.358 15.5509C10.0037 19.8063 8 25.1736 8 31C8 36.8273 10.004 42.1952 13.3591 46.4509C13.3979 46.521 13.4481 46.5842 13.5077 46.6378C18.0938 52.3426 25.1278 56 33 56C40.8722 56 47.9063 52.3426 52.492 46.6378C52.5513 46.5844 52.6014 46.5215 52.6401 46.4517C55.9957 42.196 58 36.8276 58 31ZM44.594 39.4588C44.4096 39.4207 44.2176 39.4574 44.0602 39.5608C43.9027 39.6642 43.7928 39.8258 43.7545 40.0102C43.6254 40.6349 43.4803 41.2561 43.3193 41.8733C40.1307 41.1267 36.629 40.7287 33.0119 40.7278H33C29.3787 40.7278 25.873 41.1259 22.6807 41.8733C22.5214 41.2622 22.3776 40.6471 22.2494 40.0287C22.2111 39.8442 22.1011 39.6825 21.9435 39.5791C21.786 39.4758 21.5939 39.4392 21.4094 39.4776C21.2249 39.5159 21.0632 39.6259 20.9598 39.7834C20.8565 39.941 20.8199 40.1331 20.8582 40.3176C20.9935 40.9688 21.1418 41.6043 21.3026 42.223C18.6222 42.9574 16.1986 43.948 14.1597 45.1636C11.3188 41.3938 9.58097 36.748 9.43125 31.7102H12.4983C12.6867 31.7102 12.8673 31.6354 13.0005 31.5022C13.1337 31.369 13.2085 31.1884 13.2085 31C13.2085 30.8116 13.1337 30.631 13.0005 30.4978C12.8673 30.3646 12.6867 30.2898 12.4983 30.2898H9.43097C9.58068 25.252 11.3185 20.606 14.1594 16.8364C16.198 18.0517 18.6219 19.0426 21.302 19.777C21.1383 20.4084 20.9902 21.0437 20.8577 21.6824C20.8387 21.7737 20.8379 21.8679 20.8553 21.9596C20.8728 22.0512 20.9081 22.1386 20.9593 22.2166C21.0104 22.2946 21.0765 22.3617 21.1536 22.4142C21.2307 22.4667 21.3175 22.5035 21.4088 22.5224C21.5002 22.5414 21.5943 22.5422 21.686 22.5248C21.7776 22.5073 21.865 22.472 21.943 22.4209C22.021 22.3697 22.0881 22.3036 22.1406 22.2265C22.1931 22.1494 22.2299 22.0627 22.2489 21.9713C22.3772 21.3529 22.521 20.7379 22.6801 20.1267C25.8724 20.8741 29.3781 21.2722 32.9994 21.2722H33.0114C36.6287 21.2713 40.1301 20.8733 43.319 20.1267C43.4708 20.7085 43.6084 21.2939 43.7318 21.8824C43.7503 21.9743 43.7869 22.0617 43.8393 22.1394C43.8917 22.2171 43.9591 22.2837 44.0374 22.3353C44.1157 22.3869 44.2034 22.4225 44.2955 22.44C44.3877 22.4575 44.4823 22.4565 44.5741 22.4373C44.6659 22.418 44.7529 22.3807 44.8302 22.3276C44.9075 22.2745 44.9735 22.2067 45.0244 22.1279C45.0754 22.0492 45.1102 21.9611 45.1269 21.8689C45.1436 21.7766 45.1419 21.6819 45.1219 21.5903C44.9943 20.9828 44.8526 20.3783 44.6969 19.7773C47.3773 19.0429 49.8011 18.052 51.8398 16.8366C54.681 20.6065 56.4185 25.2523 56.5682 30.2901H53.5014C53.3131 30.2901 53.1324 30.3649 52.9992 30.4981C52.866 30.6313 52.7912 30.8119 52.7912 31.0003C52.7912 31.1887 52.866 31.3693 52.9992 31.5025C53.1324 31.6357 53.3131 31.7105 53.5014 31.7105H56.5682C56.4185 36.7483 54.6807 41.3943 51.8395 45.1639C49.8009 43.9483 47.377 42.9577 44.6969 42.2233C44.8622 41.5856 45.0116 40.944 45.1449 40.2989C45.164 40.2075 45.1649 40.1133 45.1475 40.0217C45.1301 39.93 45.0948 39.8426 45.0437 39.7646C44.9925 39.6866 44.9265 39.6194 44.8493 39.5669C44.7721 39.5145 44.6854 39.4777 44.594 39.4588ZM32.3009 54.5347C28.5361 54.0551 25.0506 49.7386 23.0668 43.2389C25.9276 42.575 29.0568 42.2006 32.3009 42.1534V54.5347ZM33.7213 54.5321V42.154C36.9574 42.2026 40.0793 42.5767 42.9332 43.2392C40.9534 49.7267 37.4784 54.0386 33.7213 54.5321ZM33.7213 7.46818C37.4739 7.9625 40.9528 12.2767 42.9332 18.7611C40.079 19.4236 36.9574 19.7977 33.7213 19.8463V7.46818ZM32.3009 7.46534V19.8466C29.0568 19.7994 25.9276 19.425 23.0668 18.7611C25.0509 12.2611 28.5361 7.9446 32.3009 7.46534ZM50.9426 15.717C49.0438 16.8253 46.7977 17.7324 44.3151 18.4119C42.8929 13.694 40.7222 10.0696 38.1514 7.9875C43.2219 9.12159 47.681 11.8938 50.9426 15.717ZM27.8438 7.98835C25.2741 10.0705 23.1057 13.694 21.6847 18.4116C19.2023 17.7321 16.9563 16.8247 15.0577 15.7168C18.3179 11.8949 22.7753 9.1233 27.8438 7.98835ZM15.0574 46.283C16.956 45.175 19.202 44.2676 21.6844 43.5881C23.1054 48.306 25.2739 51.9295 27.8435 54.0114C22.7753 52.8767 18.3179 50.1051 15.0574 46.283ZM38.1571 54.0114C40.7264 51.9293 42.8943 48.306 44.3153 43.5881C46.7977 44.2676 49.044 45.175 50.9426 46.283C47.6824 50.1048 43.225 52.8764 38.1571 54.0114Z" fill="url(#paint0_linear_1638_2858)"/>
<path d="M22.214 30.8346C21.863 30.64 21.3728 30.4601 20.7151 30.2852C20.0193 30.1001 19.6812 29.9139 19.52 29.7905C19.3406 29.653 19.2607 29.4959 19.2607 29.2804C19.2607 29.0403 19.353 28.8654 19.56 28.7134C19.7954 28.5409 20.1324 28.4533 20.5616 28.4533C20.9995 28.4533 21.3306 28.5557 21.5741 28.7668C21.8062 28.9675 21.9142 29.2204 21.9142 29.5629C21.9142 29.6719 21.9587 29.7763 22.0378 29.8533C22.1169 29.9303 22.2242 29.9736 22.3361 29.9736H22.9211C23.033 29.9736 23.1404 29.9303 23.2195 29.8533C23.2986 29.7763 23.343 29.6719 23.343 29.5629C23.343 29.1101 23.2213 28.6921 22.9808 28.3197C22.7409 27.9493 22.4011 27.6577 21.9716 27.4532C21.5547 27.2547 21.0802 27.1543 20.5616 27.1543C19.7974 27.1543 19.1533 27.3437 18.647 27.718C18.1061 28.1182 17.8319 28.648 17.8319 29.2919C17.8319 29.9468 18.1345 30.5039 18.7055 30.9017C19.0762 31.1623 19.6289 31.3909 20.3951 31.6001C21.206 31.8221 21.5564 32.0143 21.7075 32.1362C21.8774 32.2733 21.9564 32.4524 21.9564 32.6999C21.9564 32.9493 21.8599 33.1289 21.6439 33.2819C21.395 33.4585 21.0451 33.5478 20.604 33.5478C20.1017 33.5478 19.7029 33.4393 19.4185 33.2247C19.1597 33.03 19.0393 32.7787 19.0393 32.4332C19.0393 32.3243 18.9949 32.2198 18.9158 32.1428C18.8366 32.0658 18.7293 32.0226 18.6174 32.0226H18.0369C17.925 32.0226 17.8177 32.0658 17.7386 32.1428C17.6594 32.2198 17.615 32.3243 17.615 32.4332C17.615 32.9069 17.7447 33.3345 18.0003 33.7049C18.2546 34.0734 18.6264 34.3612 19.1049 34.5607C19.56 34.7505 20.0643 34.8466 20.604 34.8466C21.4029 34.8466 22.0638 34.6579 22.5693 34.2859C23.1107 33.887 23.3852 33.3504 23.3852 32.6906C23.3852 32.2791 23.282 31.9128 23.0784 31.6018C22.8812 31.3012 22.5901 31.043 22.214 30.8346ZM32.3392 27.2462H31.7449C31.6506 27.2463 31.559 27.277 31.4848 27.3336C31.4106 27.3901 31.358 27.4693 31.3353 27.5583L30.2434 31.8555L28.9549 27.5425C28.9294 27.4571 28.8762 27.3821 28.8031 27.3288C28.7301 27.2754 28.6412 27.2465 28.5499 27.2465H28.0265C27.8394 27.2465 27.6746 27.3664 27.622 27.5411L26.3197 31.8443L25.2177 27.5573C25.1949 27.4684 25.1422 27.3896 25.0681 27.3332C24.9939 27.2769 24.9025 27.2463 24.8085 27.2462H24.2136C24.1493 27.2463 24.0858 27.2607 24.0281 27.2882C23.9704 27.3158 23.9199 27.3558 23.8804 27.4052C23.841 27.4546 23.8136 27.5122 23.8005 27.5734C23.7874 27.6347 23.7888 27.6981 23.8046 27.7588L25.5603 34.4466C25.5835 34.5349 25.6363 34.6132 25.7103 34.6691C25.7843 34.725 25.8753 34.7554 25.969 34.7554H26.5256C26.6166 34.7554 26.7051 34.7268 26.778 34.6739C26.8508 34.6209 26.9042 34.5465 26.9301 34.4616L28.29 30.0004L29.6171 34.4592C29.6425 34.5446 29.6957 34.6197 29.7687 34.6732C29.8418 34.7267 29.9307 34.7556 30.0221 34.7557H30.5793C30.673 34.7557 30.764 34.7253 30.838 34.6694C30.912 34.6135 30.9647 34.5352 30.988 34.4468L32.7482 27.759C32.7642 27.6983 32.7657 27.6349 32.7526 27.5735C32.7396 27.5122 32.7122 27.4546 32.6728 27.4051C32.6333 27.3556 32.5827 27.3155 32.5249 27.288C32.4671 27.2605 32.4036 27.2462 32.3392 27.2462ZM34.7452 27.2462H34.1649C34.053 27.2462 33.9457 27.2895 33.8666 27.3665C33.7875 27.4435 33.743 27.548 33.743 27.6569V34.3447C33.743 34.4536 33.7875 34.5581 33.8666 34.6351C33.9457 34.7121 34.053 34.7554 34.1649 34.7554H34.7452C34.8571 34.7554 34.9644 34.7121 35.0435 34.6351C35.1226 34.5581 35.1671 34.4536 35.1671 34.3447V27.6569C35.1671 27.548 35.1226 27.4435 35.0435 27.3665C34.9644 27.2895 34.8571 27.2462 34.7452 27.2462ZM41.4459 27.2462H37.1894C37.0775 27.2462 36.9702 27.2895 36.8911 27.3665C36.8119 27.4435 36.7675 27.548 36.7675 27.6569V34.3447C36.7675 34.4536 36.8119 34.5581 36.8911 34.6351C36.9702 34.7121 37.0775 34.7554 37.1894 34.7554H37.7697C37.8816 34.7554 37.9889 34.7121 38.068 34.6351C38.1471 34.5581 38.1916 34.4536 38.1916 34.3447V31.6275H40.9742C41.0861 31.6275 41.1934 31.5842 41.2725 31.5072C41.3516 31.4302 41.3961 31.3257 41.3961 31.2168V30.7391C41.3961 30.6302 41.3516 30.5257 41.2725 30.4487C41.1934 30.3717 41.0861 30.3284 40.9742 30.3284H38.1916V28.5453H41.4459C41.5578 28.5453 41.6651 28.502 41.7442 28.425C41.8233 28.348 41.8678 28.2436 41.8678 28.1346V27.6569C41.8678 27.548 41.8233 27.4435 41.7442 27.3665C41.6651 27.2895 41.5578 27.2462 41.4459 27.2462ZM47.9623 27.2462H42.677C42.5651 27.2462 42.4578 27.2895 42.3786 27.3665C42.2995 27.4435 42.2551 27.548 42.2551 27.6569V28.1346C42.2551 28.2436 42.2995 28.348 42.3786 28.425C42.4578 28.502 42.5651 28.5453 42.677 28.5453H44.6051V34.3447C44.6051 34.4536 44.6495 34.5581 44.7287 34.6351C44.8078 34.7121 44.9151 34.7554 45.027 34.7554H45.6072C45.7191 34.7554 45.8265 34.7121 45.9056 34.6351C45.9847 34.5581 46.0291 34.4536 46.0291 34.3447V28.5453H47.9623C48.0742 28.5453 48.1815 28.502 48.2606 28.425C48.3398 28.348 48.3842 28.2436 48.3842 28.1346V27.6569C48.3842 27.548 48.3398 27.4435 48.2606 27.3665C48.1815 27.2895 48.0742 27.2462 47.9623 27.2462Z" fill="#1E4165"/>
<defs>
<filter id="filter0_f_1638_2858" x="-14" y="14" width="64" height="64" filterUnits="userSpaceOnUse" color-interpolation-filters="sRGB">
<feFlood flood-opacity="0" result="BackgroundImageFix"/>
<feBlend mode="normal" in="SourceGraphic" in2="BackgroundImageFix" result="shape"/>
<feGaussianBlur stdDeviation="10" result="effect1_foregroundBlur_1638_2858"/>
</filter>
<linearGradient id="paint0_linear_1638_2858" x1="58" y1="7.5625" x2="15.2917" y2="49.2292" gradientUnits="userSpaceOnUse">
<stop offset="0.351015" stop-color="#1E4165"/>
<stop offset="1" stop-color="#1E4165" stop-opacity="0"/>
</linearGradient>
</defs>
</svg>
