<svg width="64" height="64" viewBox="0 0 64 64" fill="none" xmlns="http://www.w3.org/2000/svg">
<path d="M57 3H37C34.7909 3 33 4.79086 33 7V27C33 29.2091 34.7909 31 37 31H57C59.2091 31 61 29.2091 61 27V7C61 4.79086 59.2091 3 57 3Z" fill="#4B9754"/>
<path d="M44.1671 7.83398H17.9004C11.273 7.83398 5.90039 13.2066 5.90039 19.834V46.1007C5.90039 52.7281 11.273 58.1007 17.9004 58.1007H44.1671C50.7945 58.1007 56.1671 52.7281 56.1671 46.1007V19.834C56.1671 13.2066 50.7945 7.83398 44.1671 7.83398Z" fill="#EFF2FA"/>
<mask id="mask0_1632_21303" style="mask-type:alpha" maskUnits="userSpaceOnUse" x="5" y="7" width="52" height="52">
<path d="M44.1671 7.83398H17.9004C11.273 7.83398 5.90039 13.2066 5.90039 19.834V46.1007C5.90039 52.7281 11.273 58.1007 17.9004 58.1007H44.1671C50.7945 58.1007 56.1671 52.7281 56.1671 46.1007V19.834C56.1671 13.2066 50.7945 7.83398 44.1671 7.83398Z" fill="#A0D8A7"/>
</mask>
<g mask="url(#mask0_1632_21303)">
<g filter="url(#filter0_f_1632_21303)">
<path d="M57 3H37C34.7909 3 33 4.79086 33 7V27C33 29.2091 34.7909 31 37 31H57C59.2091 31 61 29.2091 61 27V7C61 4.79086 59.2091 3 57 3Z" fill="#4B9754"/>
</g>
</g>
<path fill-rule="evenodd" clip-rule="evenodd" d="M21.659 41.6668H42.3991V39.4021H21.659V41.6668ZM31.9688 18.4668L34.7228 21.0014L31.9688 23.4829L29.275 21.0014L31.9688 18.4668ZM46.5 29.3645C42.8086 26.3961 38.0036 24.51 32.674 24.3473V38.4314C32.674 38.4314 36.6567 38.3772 37.7112 38.4314C38.5916 38.4314 38.8829 37.6745 38.8829 37.6745L42.5743 29.474C42.9247 29.6909 43.2762 29.9067 43.5708 30.1226L39.8213 38.4314H42.4582L46.4989 29.3666V29.3634L46.5 29.3645ZM36.4234 36.3763C36.131 36.4294 35.1346 36.3763 35.1346 36.3763V26.8288C37.0104 27.0988 38.7668 27.64 40.4674 28.3938L37.0104 36.0552C36.776 36.4348 36.4234 36.3795 36.4234 36.3795V36.3774V36.3763ZM17.5 29.3634C21.1903 26.3971 26.0534 24.51 31.326 24.3473V38.4314C31.326 38.4314 27.3422 38.3772 26.2877 38.4314C25.4084 38.4314 25.116 37.6745 25.116 37.6745L21.4257 29.474C21.0742 29.6909 20.7205 29.9067 20.4292 30.1226L24.2367 38.4314H21.5418L17.5 29.3666V29.3634ZM27.5766 36.3774C27.869 36.4305 28.8654 36.3774 28.8654 36.3774V26.8288C27.0378 27.0942 25.2609 27.6216 23.5928 28.3938L26.9918 36.0552C27.2284 36.4348 27.5766 36.3795 27.5766 36.3795V36.3774Z" fill="#4B9754"/>
<defs>
<filter id="filter0_f_1632_21303" x="13" y="-17" width="68" height="68" filterUnits="userSpaceOnUse" color-interpolation-filters="sRGB">
<feFlood flood-opacity="0" result="BackgroundImageFix"/>
<feBlend mode="normal" in="SourceGraphic" in2="BackgroundImageFix" result="shape"/>
<feGaussianBlur stdDeviation="10" result="effect1_foregroundBlur_1632_21303"/>
</filter>
</defs>
</svg>
