<svg width="64" height="64" viewBox="0 0 64 64" fill="none" xmlns="http://www.w3.org/2000/svg">
<path d="M18 58C24.6274 58 30 52.6274 30 46C30 39.3726 24.6274 34 18 34C11.3726 34 6 39.3726 6 46C6 52.6274 11.3726 58 18 58Z" fill="#E37640"/>
<path d="M33 56C46.8071 56 58 44.8071 58 31C58 17.1929 46.8071 6 33 6C19.1929 6 8 17.1929 8 31C8 44.8071 19.1929 56 33 56Z" fill="#EFF2FA"/>
<mask id="mask0_1927_2519" style="mask-type:alpha" maskUnits="userSpaceOnUse" x="8" y="6" width="50" height="50">
<path d="M33 56C46.8071 56 58 44.8071 58 31C58 17.1929 46.8071 6 33 6C19.1929 6 8 17.1929 8 31C8 44.8071 19.1929 56 33 56Z" fill="#FBF6E9"/>
</mask>
<g mask="url(#mask0_1927_2519)">
<g filter="url(#filter0_f_1927_2519)">
<path d="M18 58C24.6274 58 30 52.6274 30 46C30 39.3726 24.6274 34 18 34C11.3726 34 6 39.3726 6 46C6 52.6274 11.3726 58 18 58Z" fill="#E37640"/>
</g>
</g>
<path d="M58 31C58 25.1736 55.9963 19.8062 52.642 15.5506C52.6031 15.4788 52.5518 15.4145 52.4906 15.3605C47.9048 9.65682 40.8713 6 33 6C25.1287 6 18.0955 9.65653 13.5094 15.3605C13.4484 15.4149 13.3972 15.4792 13.358 15.5509C10.0037 19.8063 8 25.1736 8 31C8 36.8273 10.004 42.1952 13.3591 46.4509C13.3979 46.521 13.4481 46.5842 13.5077 46.6378C18.0938 52.3426 25.1278 56 33 56C40.8722 56 47.9063 52.3426 52.492 46.6378C52.5513 46.5844 52.6014 46.5215 52.6401 46.4517C55.9957 42.196 58 36.8276 58 31ZM44.594 39.4588C44.4096 39.4207 44.2176 39.4574 44.0602 39.5608C43.9027 39.6642 43.7928 39.8258 43.7545 40.0102C43.6254 40.6349 43.4803 41.2561 43.3193 41.8733C40.1307 41.1267 36.629 40.7287 33.0119 40.7278H33C29.3787 40.7278 25.873 41.1259 22.6807 41.8733C22.5214 41.2622 22.3776 40.6471 22.2494 40.0287C22.2111 39.8442 22.1011 39.6825 21.9435 39.5791C21.786 39.4758 21.5939 39.4392 21.4094 39.4776C21.2249 39.5159 21.0632 39.6259 20.9598 39.7834C20.8565 39.941 20.8199 40.1331 20.8582 40.3176C20.9935 40.9688 21.1418 41.6043 21.3026 42.223C18.6222 42.9574 16.1986 43.948 14.1597 45.1636C11.3188 41.3938 9.58097 36.748 9.43125 31.7102H12.4983C12.6867 31.7102 12.8673 31.6354 13.0005 31.5022C13.1337 31.369 13.2085 31.1884 13.2085 31C13.2085 30.8116 13.1337 30.631 13.0005 30.4978C12.8673 30.3646 12.6867 30.2898 12.4983 30.2898H9.43097C9.58068 25.252 11.3185 20.606 14.1594 16.8364C16.198 18.0517 18.6219 19.0426 21.302 19.777C21.1383 20.4084 20.9902 21.0437 20.8577 21.6824C20.8387 21.7737 20.8379 21.8679 20.8553 21.9596C20.8728 22.0512 20.9081 22.1386 20.9593 22.2166C21.0104 22.2946 21.0765 22.3617 21.1536 22.4142C21.2307 22.4667 21.3175 22.5035 21.4088 22.5224C21.5002 22.5414 21.5943 22.5422 21.686 22.5248C21.7776 22.5073 21.865 22.472 21.943 22.4209C22.021 22.3697 22.0881 22.3036 22.1406 22.2265C22.1931 22.1494 22.2299 22.0627 22.2489 21.9713C22.3772 21.3529 22.521 20.7379 22.6801 20.1267C25.8724 20.8741 29.3781 21.2722 32.9994 21.2722H33.0114C36.6287 21.2713 40.1301 20.8733 43.319 20.1267C43.4708 20.7085 43.6084 21.2939 43.7318 21.8824C43.7503 21.9743 43.7869 22.0617 43.8393 22.1394C43.8917 22.2171 43.9591 22.2837 44.0374 22.3353C44.1157 22.3869 44.2034 22.4225 44.2955 22.44C44.3877 22.4575 44.4823 22.4565 44.5741 22.4373C44.6659 22.418 44.7529 22.3807 44.8302 22.3276C44.9075 22.2745 44.9735 22.2067 45.0244 22.1279C45.0754 22.0492 45.1102 21.9611 45.1269 21.8689C45.1436 21.7766 45.1419 21.6819 45.1219 21.5903C44.9943 20.9828 44.8526 20.3783 44.6969 19.7773C47.3773 19.0429 49.8011 18.052 51.8398 16.8366C54.681 20.6065 56.4185 25.2523 56.5682 30.2901H53.5014C53.3131 30.2901 53.1324 30.3649 52.9992 30.4981C52.866 30.6313 52.7912 30.8119 52.7912 31.0003C52.7912 31.1887 52.866 31.3693 52.9992 31.5025C53.1324 31.6357 53.3131 31.7105 53.5014 31.7105H56.5682C56.4185 36.7483 54.6807 41.3943 51.8395 45.1639C49.8009 43.9483 47.377 42.9577 44.6969 42.2233C44.8622 41.5856 45.0116 40.944 45.1449 40.2989C45.164 40.2075 45.1649 40.1133 45.1475 40.0217C45.1301 39.93 45.0948 39.8426 45.0437 39.7646C44.9925 39.6866 44.9265 39.6194 44.8493 39.5669C44.7721 39.5145 44.6854 39.4777 44.594 39.4588ZM32.3009 54.5347C28.5361 54.0551 25.0506 49.7386 23.0668 43.2389C25.9276 42.575 29.0568 42.2006 32.3009 42.1534V54.5347ZM33.7213 54.5321V42.154C36.9574 42.2026 40.0793 42.5767 42.9332 43.2392C40.9534 49.7267 37.4784 54.0386 33.7213 54.5321ZM33.7213 7.46818C37.4739 7.9625 40.9528 12.2767 42.9332 18.7611C40.079 19.4236 36.9574 19.7977 33.7213 19.8463V7.46818ZM32.3009 7.46534V19.8466C29.0568 19.7994 25.9276 19.425 23.0668 18.7611C25.0509 12.2611 28.5361 7.9446 32.3009 7.46534ZM50.9426 15.717C49.0438 16.8253 46.7977 17.7324 44.3151 18.4119C42.8929 13.694 40.7222 10.0696 38.1514 7.9875C43.2219 9.12159 47.681 11.8938 50.9426 15.717ZM27.8438 7.98835C25.2741 10.0705 23.1057 13.694 21.6847 18.4116C19.2023 17.7321 16.9563 16.8247 15.0577 15.7168C18.3179 11.8949 22.7753 9.1233 27.8438 7.98835ZM15.0574 46.283C16.956 45.175 19.202 44.2676 21.6844 43.5881C23.1054 48.306 25.2739 51.9295 27.8435 54.0114C22.7753 52.8767 18.3179 50.1051 15.0574 46.283ZM38.1571 54.0114C40.7264 51.9293 42.8943 48.306 44.3153 43.5881C46.7977 44.2676 49.044 45.175 50.9426 46.283C47.6824 50.1048 43.225 52.8764 38.1571 54.0114Z" fill="url(#paint0_linear_1927_2519)"/>
<path d="M22.2142 30.8346C21.8632 30.64 21.373 30.4601 20.7153 30.2852C20.0195 30.1001 19.6814 29.9139 19.5202 29.7905C19.3408 29.653 19.2609 29.4959 19.2609 29.2804C19.2609 29.0403 19.3532 28.8654 19.5602 28.7134C19.7956 28.5409 20.1326 28.4533 20.5618 28.4533C20.9997 28.4533 21.3308 28.5557 21.5743 28.7668C21.8064 28.9675 21.9144 29.2204 21.9144 29.5629C21.9144 29.6719 21.9589 29.7763 22.038 29.8533C22.1171 29.9303 22.2244 29.9736 22.3363 29.9736H22.9213C23.0332 29.9736 23.1406 29.9303 23.2197 29.8533C23.2988 29.7763 23.3432 29.6719 23.3432 29.5629C23.3432 29.1101 23.2215 28.6921 22.981 28.3197C22.7411 27.9493 22.4013 27.6577 21.9718 27.4532C21.5549 27.2547 21.0804 27.1543 20.5618 27.1543C19.7976 27.1543 19.1535 27.3437 18.6472 27.718C18.1063 28.1182 17.8321 28.648 17.8321 29.2919C17.8321 29.9468 18.1347 30.5039 18.7057 30.9017C19.0764 31.1623 19.6291 31.3909 20.3953 31.6001C21.2062 31.8221 21.5566 32.0143 21.7077 32.1362C21.8776 32.2733 21.9566 32.4524 21.9566 32.6999C21.9566 32.9493 21.8601 33.1289 21.6441 33.2819C21.3952 33.4585 21.0453 33.5478 20.6042 33.5478C20.1019 33.5478 19.7031 33.4393 19.4187 33.2247C19.1599 33.03 19.0395 32.7787 19.0395 32.4332C19.0395 32.3243 18.9951 32.2198 18.916 32.1428C18.8368 32.0658 18.7295 32.0226 18.6176 32.0226H18.0371C17.9252 32.0226 17.8179 32.0658 17.7388 32.1428C17.6596 32.2198 17.6152 32.3243 17.6152 32.4332C17.6152 32.9069 17.7449 33.3345 18.0005 33.7049C18.2548 34.0734 18.6266 34.3612 19.1051 34.5607C19.5602 34.7505 20.0645 34.8466 20.6042 34.8466C21.4031 34.8466 22.064 34.6579 22.5695 34.2859C23.1109 33.887 23.3854 33.3504 23.3854 32.6906C23.3854 32.2791 23.2822 31.9128 23.0786 31.6018C22.8814 31.3012 22.5903 31.043 22.2142 30.8346ZM32.3394 27.2462H31.7451C31.6508 27.2463 31.5592 27.277 31.485 27.3336C31.4108 27.3901 31.3582 27.4693 31.3355 27.5583L30.2436 31.8555L28.9551 27.5425C28.9296 27.4571 28.8764 27.3821 28.8033 27.3288C28.7303 27.2754 28.6414 27.2465 28.5501 27.2465H28.0267C27.8396 27.2465 27.6748 27.3664 27.6222 27.5411L26.3199 31.8443L25.2179 27.5573C25.1951 27.4684 25.1424 27.3896 25.0683 27.3332C24.9941 27.2769 24.9027 27.2463 24.8087 27.2462H24.2138C24.1495 27.2463 24.086 27.2607 24.0283 27.2882C23.9706 27.3158 23.9201 27.3558 23.8806 27.4052C23.8412 27.4546 23.8138 27.5122 23.8007 27.5734C23.7876 27.6347 23.789 27.6981 23.8048 27.7588L25.5605 34.4466C25.5837 34.5349 25.6365 34.6132 25.7105 34.6691C25.7845 34.725 25.8755 34.7554 25.9692 34.7554H26.5258C26.6168 34.7554 26.7053 34.7268 26.7782 34.6739C26.851 34.6209 26.9044 34.5465 26.9303 34.4616L28.2902 30.0004L29.6173 34.4592C29.6427 34.5446 29.6959 34.6197 29.7689 34.6732C29.842 34.7267 29.9309 34.7556 30.0223 34.7557H30.5795C30.6732 34.7557 30.7642 34.7253 30.8382 34.6694C30.9122 34.6135 30.9649 34.5352 30.9882 34.4468L32.7484 27.759C32.7644 27.6983 32.7659 27.6349 32.7528 27.5735C32.7398 27.5122 32.7124 27.4546 32.673 27.4051C32.6335 27.3556 32.5829 27.3155 32.5251 27.288C32.4673 27.2605 32.4038 27.2462 32.3394 27.2462ZM34.7454 27.2462H34.1651C34.0532 27.2462 33.9459 27.2895 33.8668 27.3665C33.7877 27.4435 33.7432 27.548 33.7432 27.6569V34.3447C33.7432 34.4536 33.7877 34.5581 33.8668 34.6351C33.9459 34.7121 34.0532 34.7554 34.1651 34.7554H34.7454C34.8573 34.7554 34.9646 34.7121 35.0437 34.6351C35.1228 34.5581 35.1673 34.4536 35.1673 34.3447V27.6569C35.1673 27.548 35.1228 27.4435 35.0437 27.3665C34.9646 27.2895 34.8573 27.2462 34.7454 27.2462ZM41.4461 27.2462H37.1896C37.0777 27.2462 36.9704 27.2895 36.8913 27.3665C36.8121 27.4435 36.7677 27.548 36.7677 27.6569V34.3447C36.7677 34.4536 36.8121 34.5581 36.8913 34.6351C36.9704 34.7121 37.0777 34.7554 37.1896 34.7554H37.7699C37.8818 34.7554 37.9891 34.7121 38.0682 34.6351C38.1473 34.5581 38.1918 34.4536 38.1918 34.3447V31.6275H40.9744C41.0863 31.6275 41.1936 31.5842 41.2727 31.5072C41.3518 31.4302 41.3963 31.3257 41.3963 31.2168V30.7391C41.3963 30.6302 41.3518 30.5257 41.2727 30.4487C41.1936 30.3717 41.0863 30.3284 40.9744 30.3284H38.1918V28.5453H41.4461C41.558 28.5453 41.6653 28.502 41.7444 28.425C41.8235 28.348 41.868 28.2436 41.868 28.1346V27.6569C41.868 27.548 41.8235 27.4435 41.7444 27.3665C41.6653 27.2895 41.558 27.2462 41.4461 27.2462ZM47.9625 27.2462H42.6772C42.5653 27.2462 42.458 27.2895 42.3788 27.3665C42.2997 27.4435 42.2553 27.548 42.2553 27.6569V28.1346C42.2553 28.2436 42.2997 28.348 42.3788 28.425C42.458 28.502 42.5653 28.5453 42.6772 28.5453H44.6053V34.3447C44.6053 34.4536 44.6497 34.5581 44.7289 34.6351C44.808 34.7121 44.9153 34.7554 45.0272 34.7554H45.6074C45.7193 34.7554 45.8267 34.7121 45.9058 34.6351C45.9849 34.5581 46.0293 34.4536 46.0293 34.3447V28.5453H47.9625C48.0744 28.5453 48.1817 28.502 48.2608 28.425C48.34 28.348 48.3844 28.2436 48.3844 28.1346V27.6569C48.3844 27.548 48.34 27.4435 48.2608 27.3665C48.1817 27.2895 48.0744 27.2462 47.9625 27.2462Z" fill="#E37640"/>
<defs>
<filter id="filter0_f_1927_2519" x="-14" y="14" width="64" height="64" filterUnits="userSpaceOnUse" color-interpolation-filters="sRGB">
<feFlood flood-opacity="0" result="BackgroundImageFix"/>
<feBlend mode="normal" in="SourceGraphic" in2="BackgroundImageFix" result="shape"/>
<feGaussianBlur stdDeviation="10" result="effect1_foregroundBlur_1927_2519"/>
</filter>
<linearGradient id="paint0_linear_1927_2519" x1="58" y1="7.5625" x2="15.2917" y2="49.2292" gradientUnits="userSpaceOnUse">
<stop offset="0.351015" stop-color="#E37640"/>
<stop offset="1" stop-color="#FFD188" stop-opacity="0"/>
</linearGradient>
</defs>
</svg>
