<svg width="64" height="64" viewBox="0 0 64 64" fill="none" xmlns="http://www.w3.org/2000/svg">
<path fill-rule="evenodd" clip-rule="evenodd" d="M45.0645 42.7014C48.765 42.7014 52.7797 43.9579 57.2246 47.8577C57.67 48.248 58.2628 47.7628 57.8735 47.2775C53.5064 41.8163 49.4671 40.7766 45.4388 39.8983C40.5102 38.822 37.9763 36.0758 36.21 33.0612C35.859 32.4621 35.7005 32.5678 35.6691 33.3391C35.6295 34.2811 35.6964 35.5295 35.9095 36.7576C35.7101 36.7657 35.5106 36.7644 35.3085 36.7644C28.2599 36.7644 22.5445 31.1039 22.5445 24.1218C22.5445 17.1411 28.2599 11.4819 35.3098 11.4819C42.3584 11.4819 48.0738 17.1411 48.0738 24.1218C48.0738 24.6193 48.0492 25.1113 47.9918 25.5925C47.0602 25.4258 45.2257 25.4068 43.9389 25.5166C43.4553 25.5586 43.5236 25.7823 43.8897 25.8473C48.1093 26.6023 51.0066 29.1927 51.6705 33.8921C51.6841 34.0006 51.8289 34.0317 51.8849 33.9382C53.6791 30.9738 54.6242 27.5798 54.6183 24.1218C54.6183 13.5626 45.9729 5 35.3098 5C24.6454 5 16 13.5612 16 24.1218C16 34.6837 24.6454 43.2463 35.3098 43.2463C38.1375 43.2463 40.946 42.7014 45.0645 42.7014ZM46.5015 35.7586C47.3607 36.477 47.6216 37.3323 47.1681 37.9355C46.9154 38.2663 46.5056 38.4492 46.0138 38.4492C45.5341 38.4494 45.0696 38.2824 44.7011 37.9775C43.9198 37.3012 43.6903 36.2059 44.1998 35.5838C44.3992 35.3398 44.723 35.2056 45.1109 35.2056C45.5822 35.2056 46.0767 35.4021 46.5015 35.7586ZM50.4657 33.9314C50.5913 34.7691 50.325 35.1161 50.0559 35.1161C49.7622 35.1161 49.3947 34.7772 48.9617 34.1063C48.5328 33.4448 48.3757 32.6857 48.5888 32.3021C48.7281 32.0487 49.0218 31.9375 49.392 32.0771C50.1091 32.3442 50.3892 33.4313 50.4657 33.9314Z" fill="#E37640"/>
<path d="M21 59C29.8366 59 37 51.8366 37 43C37 34.1634 29.8366 27 21 27C12.1634 27 5 34.1634 5 43C5 51.8366 12.1634 59 21 59Z" fill="#EFF2FA"/>
<mask id="mask0_1927_2632" style="mask-type:alpha" maskUnits="userSpaceOnUse" x="5" y="27" width="32" height="32">
<path d="M21 59C29.8366 59 37 51.8366 37 43C37 34.1634 29.8366 27 21 27C12.1634 27 5 34.1634 5 43C5 51.8366 12.1634 59 21 59Z" fill="#FBF6E9"/>
</mask>
<g mask="url(#mask0_1927_2632)">
<g filter="url(#filter0_f_1927_2632)">
<path fill-rule="evenodd" clip-rule="evenodd" d="M45.0645 42.7014C48.765 42.7014 52.7797 43.9579 57.2246 47.8577C57.67 48.248 58.2628 47.7628 57.8735 47.2775C53.5064 41.8163 49.4671 40.7766 45.4388 39.8983C40.5102 38.822 37.9763 36.0758 36.21 33.0612C35.859 32.4621 35.7005 32.5678 35.6691 33.3391C35.6295 34.2811 35.6964 35.5295 35.9095 36.7576C35.7101 36.7657 35.5106 36.7644 35.3085 36.7644C28.2599 36.7644 22.5445 31.1039 22.5445 24.1218C22.5445 17.1411 28.2599 11.4819 35.3098 11.4819C42.3584 11.4819 48.0738 17.1411 48.0738 24.1218C48.0738 24.6193 48.0492 25.1113 47.9918 25.5925C47.0602 25.4258 45.2257 25.4068 43.9389 25.5166C43.4553 25.5586 43.5236 25.7823 43.8897 25.8473C48.1093 26.6023 51.0066 29.1927 51.6705 33.8921C51.6841 34.0006 51.8289 34.0317 51.8849 33.9382C53.6791 30.9738 54.6242 27.5798 54.6183 24.1218C54.6183 13.5626 45.9729 5 35.3098 5C24.6454 5 16 13.5612 16 24.1218C16 34.6837 24.6454 43.2463 35.3098 43.2463C38.1375 43.2463 40.946 42.7014 45.0645 42.7014ZM46.5015 35.7586C47.3607 36.477 47.6216 37.3323 47.1681 37.9355C46.9154 38.2663 46.5056 38.4492 46.0138 38.4492C45.5341 38.4494 45.0696 38.2824 44.7011 37.9775C43.9198 37.3012 43.6903 36.2059 44.1998 35.5838C44.3992 35.3398 44.723 35.2056 45.1109 35.2056C45.5822 35.2056 46.0767 35.4021 46.5015 35.7586ZM50.4657 33.9314C50.5913 34.7691 50.325 35.1161 50.0559 35.1161C49.7622 35.1161 49.3947 34.7772 48.9617 34.1063C48.5328 33.4448 48.3757 32.6857 48.5888 32.3021C48.7281 32.0487 49.0218 31.9375 49.392 32.0771C50.1091 32.3442 50.3892 33.4313 50.4657 33.9314Z" fill="#E37640"/>
</g>
</g>
<defs>
<filter id="filter0_f_1927_2632" x="4" y="-7" width="66" height="67" filterUnits="userSpaceOnUse" color-interpolation-filters="sRGB">
<feFlood flood-opacity="0" result="BackgroundImageFix"/>
<feBlend mode="normal" in="SourceGraphic" in2="BackgroundImageFix" result="shape"/>
<feGaussianBlur stdDeviation="6" result="effect1_foregroundBlur_1927_2632"/>
</filter>
</defs>
</svg>
