<svg width="64" height="64" viewBox="0 0 64 64" fill="none" xmlns="http://www.w3.org/2000/svg">
<path d="M37 27H5V59H37V27Z" fill="#E37640"/>
<path d="M58 6H10V54H58V6Z" fill="#EFF2FA"/>
<mask id="mask0_1927_2686" style="mask-type:alpha" maskUnits="userSpaceOnUse" x="10" y="6" width="48" height="48">
<path d="M58 6H10V54H58V6Z" fill="#FBF6E9"/>
</mask>
<g mask="url(#mask0_1927_2686)">
<g filter="url(#filter0_f_1927_2686)">
<path d="M37 27H5V59H37V27Z" fill="#E37640"/>
</g>
</g>
<path d="M40 13V14.7952H44.6931V22H47.3164V14.7952H52V13H40Z" fill="#E37640"/>
<path d="M25.6117 13L22.5 18.9522L19.3969 13H16V22H18.3856V15.5612L21.4195 21.0026H23.5891L26.623 15.5612V22H29V13H25.6117Z" fill="#E37640"/>
<path d="M49.3747 45.9363C49.3079 46.2801 49.1361 46.5628 48.8592 46.7767C48.6014 46.9753 48.2482 47.1205 47.8091 47.2046C47.3795 47.281 46.7399 47.3268 46.0717 47.3268C45.3747 47.3268 44.7637 47.258 44.2387 47.1129C43.7327 46.9753 43.3317 46.7309 43.0549 46.3947C42.7685 46.0585 42.6253 45.5696 42.6253 44.9355V44.0569C42.6253 43.4304 42.7685 42.9414 43.0549 42.5976C43.3413 42.2614 43.7327 42.017 44.2387 41.8795C44.7542 41.7343 45.3747 41.6656 46.0717 41.6656C46.7399 41.6656 47.3795 41.7114 47.8091 41.7878C48.2482 41.8719 48.6014 42.0093 48.8592 42.2156C49.1361 42.4295 49.3079 42.7122 49.3747 43.056H52C51.9236 42.3455 51.6278 41.742 51.1027 41.253C50.6254 40.8099 49.9571 40.489 49.1265 40.2903C48.3246 40.0993 47.2649 40 46.0717 40C44.8115 40 43.7231 40.1452 42.8257 40.4279C41.9189 40.7182 41.2124 41.1995 40.7256 41.8642C40.2578 42.4983 40.0191 43.354 40 44.393V44.4924L40.1432 44.5L40 44.5076V44.5153V44.607C40.0191 45.646 40.2578 46.5017 40.7256 47.1358C41.2124 47.8005 41.9189 48.2818 42.8257 48.5722C43.7231 48.8548 44.8115 49 46.0717 49C47.2649 49 48.3246 48.9007 49.1265 48.7097C49.9571 48.511 50.6158 48.1901 51.1027 47.747C51.6278 47.2657 51.9332 46.6545 52 45.9439H49.3747V45.9363Z" fill="#E37640"/>
<defs>
<filter id="filter0_f_1927_2686" x="-7" y="15" width="56" height="56" filterUnits="userSpaceOnUse" color-interpolation-filters="sRGB">
<feFlood flood-opacity="0" result="BackgroundImageFix"/>
<feBlend mode="normal" in="SourceGraphic" in2="BackgroundImageFix" result="shape"/>
<feGaussianBlur stdDeviation="6" result="effect1_foregroundBlur_1927_2686"/>
</filter>
</defs>
</svg>
