<svg width="40" height="40" fill="none" xmlns="http://www.w3.org/2000/svg"><circle cx="20" cy="20" r="20" fill="#fff"/><path fill-rule="evenodd" clip-rule="evenodd" d="M19.005 9.905a5.675 5.675 0 00-3.068 1.676c-1.003 1.056-1.522 2.363-1.523 3.835 0 1.467.523 2.784 1.523 3.836a5.508 5.508 0 004.067 1.75c1.464 0 2.78-.522 3.831-1.523a5.509 5.509 0 001.751-4.063c0-1.561-.61-2.978-1.75-4.062A5.53 5.53 0 0020.962 9.9c-.49-.086-1.478-.084-1.958.004zm-5.02 10.734c-1.762.737-3.166 1.942-3.77 3.236-.264.567-.34.888-.37 1.57-.022.508-.011.658.075 1.002.15.605.394 1.046.833 1.51.53.558 1.224.997 2.115 1.333.893.338 2.517.65 4.124.793.946.085 5.077.085 6.016 0 3.252-.293 5.1-.923 6.238-2.126.44-.464.683-.905.834-1.51.086-.344.097-.494.075-1.003-.03-.662-.106-.999-.346-1.52-.454-.984-1.29-1.866-2.458-2.592-.388-.241-1.517-.807-1.61-.807-.024 0-.225.173-.446.384a7.937 7.937 0 01-3.444 1.91c-2.527.646-5.277-.094-7.181-1.932-.206-.199-.386-.361-.4-.36a3.687 3.687 0 00-.286.112z" fill="#EC26CC"/></svg>