<svg width="21" height="21" fill="none" xmlns="http://www.w3.org/2000/svg"><path fill-rule="evenodd" clip-rule="evenodd" d="M3.454.082a2.48 2.48 0 00-1.595 1.28c-.276.545-.26.074-.26 7.425 0 6.566.002 6.661.084 6.958.102.369.183.529.428.855.397.529 1.183.951 1.774.954h.132l.012-6.08.013-6.08.089-.316c.381-1.348 1.398-2.307 2.712-2.56.247-.047 1.088-.057 4.713-.057h4.411l-.023-.28c-.078-.925-.707-1.691-1.7-2.07l-.237-.09L8.88.011C3.937.004 3.742.006 3.454.082zM6.89 3.51c-.845.223-1.53.897-1.79 1.761-.069.232-.074.625-.086 6.685-.008 3.934.002 6.576.026 6.791.115 1.03.693 1.753 1.715 2.143l.237.09 5.086.012c5.604.013 5.372.022 5.927-.24a2.52 2.52 0 001.33-1.624c.058-.224.065-.96.065-6.907 0-6.639 0-6.658-.087-6.977a2.483 2.483 0 00-1.555-1.665l-.307-.112-5.168-.008c-4.397-.007-5.201 0-5.393.051z" fill="#fff"/></svg>