<svg width="155" height="38" fill="none" xmlns="http://www.w3.org/2000/svg"><path opacity=".6" fill-rule="evenodd" clip-rule="evenodd" d="M4.355.068c-.08.035-.252.067-.38.07-.13.002-.255.038-.28.079-.025.041-.095.074-.156.074-.136 0-1.082.454-1.116.536-.013.033-.071.06-.128.06-.057 0-.104.033-.104.074 0 .04-.043.074-.096.074-.053 0-.358.28-.679.622C.672 2.452.302 3.18.067 4.307c-.113.546-.072 30.601.042 31.058.268 1.064 1.151 2.039 2.192 2.417.556.202.923.218 4.906.218h4.155v-9.743c0-5.359.016-9.744.036-9.744.046 0 3.842 2.874 4.176 3.161.048.041.139.108.203.15.064.04.993.743 2.064 1.561 1.07.818 2.037 1.555 2.147 1.636.94.697 4.319 3.278 4.572 3.493.177.15.363.256.412.237.05-.02.676-.482 1.392-1.027.717-.546 1.374-1.042 1.462-1.104a78.54 78.54 0 001.173-.892 81.25 81.25 0 011.174-.893c.087-.06.34-.251.56-.422a237.62 237.62 0 012.494-1.899 63.614 63.614 0 001.247-.955 3.61 3.61 0 01.293-.222c.141-.1.307-.222.367-.272.331-.273 3.373-2.552 3.406-2.552.021 0 .04 4.377.04 9.725l.002 9.725 4.054.022c4.452.025 4.498.022 5.39-.415.665-.325 1.226-.904 1.569-1.615l.25-.521.02-15.275c.02-15.98.03-15.356-.262-16.522-.328-1.315-1.633-2.676-3.078-3.21a9.503 9.503 0 01-.33-.131c-.414-.175-1.802-.275-2.2-.16-.152.045-.417.12-.588.167-.432.12-1.329.548-1.445.69-.053.064-.128.117-.167.117-.039 0-.241.144-.45.321a9.94 9.94 0 01-.635.501 8.37 8.37 0 00-.367.27c-.398.325-1.215.936-1.65 1.233-.283.193-.646.452-.807.574a21.83 21.83 0 01-.48.354c-.102.072-.642.482-1.2.912-.56.43-1.108.847-1.22.93-.112.081-.406.307-.652.501-.247.195-.477.354-.512.354-.035 0-.107.053-.16.117-.053.065-.742.607-1.532 1.204-.789.598-1.942 1.473-2.562 1.947-.62.473-1.198.91-1.284.97a4.326 4.326 0 00-.34.28c-.1.092-.205.167-.233.167-.027 0-.094.043-.147.096a3.769 3.769 0 01-.354.275 2.36 2.36 0 00-.293.23c-.02.027-.173.146-.339.263-.166.118-.562.413-.88.656l-.66.502c-.073.055-.383-.153-1.348-.905-.142-.11-.849-.65-1.57-1.198a547.051 547.051 0 01-1.578-1.2 154.058 154.058 0 01-1.794-1.36c-.588-.449-2.263-1.72-3.723-2.825a236.88 236.88 0 01-2.803-2.138c-.082-.072-.169-.13-.193-.13-.025 0-.127-.077-.227-.17-.26-.239-3.32-2.566-3.875-2.947a5.316 5.316 0 00-.844-.468l-.527-.21c-.48-.196-1.875-.29-2.2-.148zm72.91 5.845c-1.097.09-2.95.444-3.32.635a.635.635 0 01-.24.065.638.638 0 00-.239.066c-.07.036-.21.1-.31.142-.871.36-2.057 1.042-2.938 1.689-.82.603-2.416 2.22-2.859 2.898l-.46.697c-.57.863-1.183 2.158-1.484 3.136-.212.689-.259.895-.433 1.897-.317 1.822-.207 4.636.244 6.228.043.154.108.388.143.521.103.391.507 1.434.74 1.915.712 1.463 1.91 3.056 3.105 4.128.547.49 1.902 1.497 2.364 1.754.403.225 1.139.595 1.339.673l.33.132c.626.256 1.346.462 2.22.634 3.069.607 6.601.165 9.064-1.133 1.302-.686 2.038-1.246 3.188-2.426.956-.98 1.518-1.764 2.058-2.87.19-.388.373-.764.409-.835a.704.704 0 00.065-.264.38.38 0 01.058-.205c.118-.143.36-1.102.61-2.412.107-.558.12-3.263.02-3.832l-.066-.372-6.293-.02-6.292-.018.02 1.58.02 1.582 4.68.019 4.681.019-.036.241c-.02.133-.058.409-.084.613-.043.347-.148.796-.314 1.348-.069.228-.117.346-.452 1.103-.415.942-1.713 2.525-2.524 3.08-.962.66-1.492.938-2.32 1.22-1.097.375-1.58.474-2.824.58-.872.076-1.165.07-1.944-.03-1.82-.234-2.869-.57-4.04-1.293-.721-.444-.803-.5-.803-.557 0-.032-.04-.06-.091-.06-.05 0-.24-.137-.422-.305a48.707 48.707 0 00-.514-.466c-.327-.289-1.467-1.681-1.467-1.79 0-.029-.093-.191-.205-.362-.655-.993-1.183-2.541-1.35-3.955-.152-1.292-.1-3.145.117-4.091.01-.041.042-.192.073-.335.03-.143.155-.561.275-.93.815-2.488 2.626-4.598 4.942-5.757 1.535-.768 2.651-1.013 4.585-1.006 1.249.005 2.103.08 2.171.192.022.035.128.064.236.064.11 0 .487.101.84.224 1.41.491 2.496 1.145 3.41 2.052.265.264.51.47.542.46.095-.034 2.34-2.3 2.34-2.363 0-.2-1.752-1.661-2.459-2.052-.767-.424-1.318-.7-1.687-.843-.242-.094-.506-.2-.587-.235a9.815 9.815 0 00-.807-.244c-.626-.17-.962-.24-1.981-.414-.475-.082-2.507-.156-3.045-.112zm67.937.319c-.95.202-1.745 1.064-1.876 2.034-.091.673.246 1.626.716 2.027.616.525 1.525.821 1.994.649.134-.049.294-.09.355-.09.342 0 1.201-.737 1.408-1.208.296-.674.337-1.119.158-1.718-.293-.977-1.129-1.666-2.092-1.725-.222-.013-.52 0-.663.031zm6.494.324c-.019.052-.027 5.985-.017 13.185l.019 13.09H155V6.502l-1.634-.02c-1.268-.016-1.642 0-1.67.074zm-49.231 7.717c-.203.03-.566.113-.807.184-.428.126-1.576.622-1.649.712-.02.025-.181.132-.358.238-.389.232-1.354 1.178-1.596 1.563-.097.154-.207.28-.246.28-.042 0-.08-.499-.091-1.21l-.02-1.208h-3.155l-.019 8.98-.018 8.979.167.042c.092.024.843.033 1.67.02l1.501-.022.045-5.616c.043-5.35.07-6.121.22-6.215.036-.023.066-.1.066-.173 0-.161.423-1.056.691-1.46.439-.663 1.647-1.746 1.947-1.746a.58.58 0 00.206-.067c.351-.185.764-.24 1.595-.21.814.03 1.148.072 1.43.184l.415.161c.63.244 1.176.852 1.475 1.643.375.991.385 1.181.385 7.486 0 4.467.021 5.893.088 5.96.1.102 3.038.13 3.191.031.067-.043.095-1.42.117-5.67.033-6.274-.008-5.802.604-7.1.632-1.34 1.586-2.206 2.902-2.63.338-.11 1.797-.11 2.25-.001 1.264.305 2.013.991 2.383 2.184.266.854.277 1.16.277 7.232v5.967l.172.044c.094.023.845.032 1.669.02l1.498-.024.019-5.913c.017-5.44-.007-6.492-.175-7.717-.024-.174-.073-.335-.109-.358-.036-.022-.065-.118-.065-.213 0-.49-.886-2.116-1.505-2.76-.578-.604-1.825-1.269-2.788-1.487-.844-.191-2.742-.196-3.448-.008-.865.23-1.661.574-2.238.966-.602.41-1.537 1.326-1.902 1.864-.128.188-.261.342-.295.342-.034 0-.151-.174-.261-.386a6.133 6.133 0 00-.356-.607c-.224-.315-.902-1.015-.983-1.015-.038 0-.128-.066-.199-.147-.132-.148-1.354-.794-1.62-.857a13.251 13.251 0 01-.437-.117c-.672-.192-1.884-.258-2.643-.145zm28.396-.031c-.613.086-1.267.202-1.431.255-.1.033-.381.117-.623.188-.609.18-1.295.516-1.944.956-.878.595-2.173 2.01-1.972 2.155.287.206 1.7 1.09 1.743 1.09.032 0 .119.066.192.148.073.082.163.149.2.149.037 0 .21.1.384.221l.318.222.131-.203c.43-.669 1.528-1.552 2.268-1.825.941-.346 1.902-.475 2.652-.354.317.05.643.12.723.152l.545.218c1.267.503 2.417 1.828 2.646 3.048.067.363.107 1.496.052 1.496-.032 0-.646-.287-.802-.375a.632.632 0 00-.26-.071.356.356 0 01-.203-.062c-.073-.064-1.15-.323-1.898-.456-.558-.1-2.638-.1-3.265-.001-2.121.335-3.585 1.008-4.636 2.133-.349.373-.897 1.138-.916 1.277a2.13 2.13 0 01-.098.27c-.352.858-.472 1.58-.427 2.581.069 1.51.48 2.564 1.417 3.635 1.294 1.479 3.21 2.294 5.398 2.298 2.213.004 3.973-.905 5.367-2.773.113-.151.237-.275.275-.275.042 0 .07.495.07 1.226 0 1.21.003 1.226.166 1.267.09.023.808.032 1.595.02l1.431-.021.023-5.764c.023-5.68.001-6.392-.22-7.364-.251-1.1-.707-2.064-1.348-2.85-.379-.466-1.209-1.192-1.657-1.45a44.09 44.09 0 01-.503-.294c-.349-.207-1.237-.508-2.026-.687-.63-.142-2.806-.259-3.367-.18zm13.219.602c-.027.027-.049 4.077-.049 8.998v8.949l.165.04c.091.023.826.032 1.633.02l1.467-.02.019-9.018.018-9.018h-1.602c-.881 0-1.624.022-1.651.05zm-12.485 9.06c-1.011.138-1.098.164-1.981.599-1.203.591-1.944 1.654-1.944 2.787 0 .45.083.762.347 1.301.293.6.767 1.026 1.545 1.387.595.276.831.317 1.849.315 1.115-.002 1.365-.045 1.925-.334a.59.59 0 01.206-.066c.333 0 2.171-1.61 2.436-2.135.058-.114.176-.332.261-.485.229-.404.434-1.088.493-1.638.054-.515.069-.48-.368-.819-.372-.288-.994-.536-1.981-.79-.27-.07-1.9-.245-2.059-.222l-.729.1z" fill="#fff"/></svg>