<svg width="32" height="32" fill="none" xmlns="http://www.w3.org/2000/svg"><path d="M16.58 19.107L3.89 11.03a3 3 0 013.221-5.06l9.31 5.924 8.36-5.851a3 3 0 013.44 4.915l-11.64 8.149z" fill="#EA4435"/><path d="M27.5 26.5h-4v-18a3 3 0 016 0v16a2 2 0 01-2 2z" fill="#00AC47"/><path d="M29.456 8.066c-.009-.06-.008-.122-.02-.182-.02-.091-.055-.176-.083-.265a2.907 2.907 0 00-.096-.3c-.02-.047-.05-.088-.073-.135a2.979 2.979 0 00-.216-.384c-.04-.058-.09-.108-.134-.163a3.015 3.015 0 00-.245-.285c-.067-.064-.142-.118-.215-.177a3.007 3.007 0 00-.24-.185c-.08-.052-.166-.092-.25-.136-.088-.046-.175-.097-.267-.133-.089-.036-.184-.059-.276-.086-.093-.028-.186-.06-.281-.078a3.057 3.057 0 00-.357-.036c-.076-.005-.151-.019-.227-.018a2.98 2.98 0 00-.422.043c-.057.008-.113.007-.17.019-.188.058-.376.117-.564.178-.051.022-.096.055-.146.08A2.901 2.901 0 0023.5 8.5v5.762l4.72-3.304a2.888 2.888 0 001.236-2.892z" fill="#FFBA00"/><path d="M5.5 5.5a3 3 0 013 3v18h-4a2 2 0 01-2-2v-16a3 3 0 013-3z" fill="#4285F4"/><path d="M2.544 8.066c.009-.06.008-.122.02-.182.02-.091.055-.176.083-.265.026-.101.058-.201.096-.299.02-.048.05-.09.073-.135a2.97 2.97 0 01.216-.385c.04-.058.09-.108.134-.163.076-.1.158-.195.245-.284.067-.065.143-.12.215-.178.077-.066.157-.127.24-.185.08-.052.166-.092.25-.136.087-.05.176-.094.267-.134.089-.036.184-.059.277-.086.092-.027.185-.06.28-.078.118-.019.238-.03.357-.036.076-.005.151-.018.228-.018.141.005.282.019.421.043.057.008.113.008.17.02.096.024.192.053.285.088.095.025.188.055.279.09.051.021.096.054.146.079.13.06.255.13.375.21A2.994 2.994 0 018.5 8.5v5.762l-4.72-3.304a2.89 2.89 0 01-1.237-2.892z" fill="#C52528"/></svg>