<svg width="749" height="756" fill="none" xmlns="http://www.w3.org/2000/svg"><path d="M297.513 123.32a2 2 0 113.863 1.035l-5.952 22.216a2 2 0 01-3.864-1.035l5.953-22.216zm-12.717 49.391a2 2 0 113.864 1.035l-12.424 46.365a2 2 0 11-3.863-1.035l12.423-46.365zm-17.082 63.752a2 2 0 113.864 1.035l-12.424 46.365a2 2 0 11-3.864-1.035l12.424-46.365z" fill="#0B1020"/><path d="M315.154 76.8L169.309 621.1c-7.246 27.046-1.409 47.762 42.057 59.409l225.544 60.434c37.188 9.965 57.138-.736 65.161-30.68l145.974-544.782c8.023-29.944-2.858-60.812-38.115-70.259L396.461 38.023c-46.365-12.423-71.213 1.106-81.307 38.778z" fill="url(#paint0_linear_1091_5)" stroke="#EC26CC"/><rect x="434.811" y="72.628" width="115" height="28" rx="14" transform="rotate(15 434.811 72.628)" stroke="#EC26CC"/><circle cx="446.995" cy="90.905" r="4" transform="rotate(15 446.995 90.905)" fill="#0B1020"/><circle opacity=".1" cx="410.695" cy="388.655" r="125" transform="rotate(15 410.695 388.655)" fill="#EC26CC"/><circle opacity=".2" cx="410.86" cy="386.111" r="92.5" transform="rotate(15 410.86 386.111)" fill="#EC26CC"/><path d="M483.82 308.996c17.297 3.977 19.879 9.496 17.182 22.715l-20.168 75.785-18.694 70.24c-4.84 12.132-11.08 19.192-30.081 14.619l-3.746-1.008-40.272-10.834-44.019-11.842-1.873-.504c-13.208-3.361-22.023-10.583-20.652-20.453l20.365-79.937 18.944-74.36c2.294-11.47 10.857-15.056 22.442-12.632l9.312 2.612 42.836 12.016 42.837 12.016 5.587 1.567z" fill="#C070B3"/><path d="M392.56 283.397l-9.312-2.612c-11.585-2.424-20.148 1.162-22.442 12.632l-18.944 74.36m50.698-84.38l-12.92 48.616 13.713 24.976m-.793-73.592l42.836 12.016m-42.043 61.576l24.793 5.785m-24.793-5.785l-6.031 22.108m55.617-10.538l23.366-14.232 11.928-46.898m-35.294 61.13l-24.793-5.785m24.793 5.785l-6.896 26.938m42.19-88.068l5.587 1.567c17.297 3.977 19.879 9.496 17.182 22.715l-20.168 75.785m-2.601-100.067l-42.837-12.016m0 0l-17.25 67.361m-38.362 43.957l-23.366 14.231-12.396 47.709m35.762-61.94l24.793 5.784-16.536 67.998m-8.257-73.782l7.538-27.634m-43.3 89.574l-1.873-.504c-13.208-3.361-22.023-10.583-20.652-20.453l20.365-79.937m2.16 100.894l44.019 11.842m0 0l40.272 10.834m-86.451-123.57l45.46 11.32m40.991 112.25l3.746 1.008c19.001 4.573 25.241-2.487 30.081-14.619l18.694-70.24m-52.521 83.851l13.147-49.008-12.314-19.903 6.897-26.939m0 0l44.791 11.999" stroke="#fff"/><rect x="263.554" y="671.199" width="136" height="4" rx="2" transform="rotate(15 263.554 671.199)" fill="#0B1020"/><path fill-rule="evenodd" clip-rule="evenodd" d="M71.174 61.386a10.489 10.489 0 00-8.674-4.581c-5.799 0-10.5 4.7-10.5 10.5 0 5.799 4.701 10.5 10.5 10.5S73 73.104 73 67.305c0-1.66-.385-3.228-1.07-4.623C180.936-4.19 361.925-25.466 524.688 45.986c24.213 11.566 36.38 24.524 38.693 37.15l1.476-.271c-2.449-13.366-15.2-26.616-39.533-38.238l-.011-.005-.011-.005c-163.184-71.64-344.68-50.359-454.128 16.77zM93.531 315.22c39.524-31.674 94.429-59.437 182.692-94.522l.554 1.394c-88.218 35.067-142.943 62.759-182.28 94.277-10.954 10.584-17.686 19.941-20.385 28.277-2.683 8.284-1.395 15.585 3.79 22.197 5.226 6.662 14.444 12.663 27.706 18.16 13.242 5.49 30.437 10.446 51.532 15.065 69.771 11.184 142.614 16.123 213.3 20.915 28.809 1.954 57.259 3.883 84.997 6.2 95.744 8 183.015 20.63 246.918 54.962 22.711 12.201 33.489 33.297 33.573 55.454.084 22.138-10.502 45.316-30.451 61.785-38.199 31.538-109.713 61.225-194.812 80.425l-.33-1.463c85.015-19.181 156.257-48.803 194.188-80.119 19.621-16.199 29.987-38.959 29.905-60.622-.082-21.644-10.589-42.215-32.783-54.139-63.597-34.167-150.576-46.787-246.332-54.788-27.688-2.313-56.109-4.24-84.902-6.193-70.72-4.795-143.681-9.742-213.53-20.939l-.021-.003-.02-.005c-21.146-4.629-38.444-9.609-51.807-15.149-13.348-5.534-22.849-11.657-28.31-18.62-5.502-7.014-6.87-14.838-4.038-23.585 2.814-8.689 9.761-18.261 20.794-28.918l.025-.024.027-.022zM107.5 677c3.891 0 7.288-2.117 9.102-5.262 52.02 18.033 106.102 27.213 164.869 29.511l.058-1.498c-58.58-2.292-112.46-11.433-164.269-29.372.478-1.2.74-2.509.74-3.879 0-5.799-4.701-10.5-10.5-10.5S97 660.701 97 666.5s4.701 10.5 10.5 10.5z" fill="#0B1020"/><g opacity=".1" filter="url(#filter0_f_1091_5)"><path fill-rule="evenodd" clip-rule="evenodd" d="M71.174 76.386a10.489 10.489 0 00-8.674-4.581c-5.799 0-10.5 4.7-10.5 10.5 0 5.799 4.701 10.5 10.5 10.5S73 88.104 73 82.305c0-1.66-.385-3.228-1.07-4.623C180.936 10.81 361.925-10.466 524.688 60.986c24.213 11.566 36.38 24.524 38.693 37.15l1.476-.271c-2.449-13.366-15.2-26.616-39.533-38.238l-.011-.005-.011-.005c-163.184-71.64-344.68-50.359-454.128 16.77zM93.531 330.22c39.524-31.674 94.429-59.437 182.692-94.522l.554 1.394c-88.218 35.067-142.943 62.759-182.28 94.277-10.954 10.584-17.686 19.941-20.385 28.277-2.683 8.284-1.395 15.585 3.79 22.197 5.226 6.662 14.444 12.663 27.706 18.16 13.242 5.49 30.437 10.446 51.532 15.065 69.771 11.184 142.614 16.123 213.3 20.915 28.809 1.954 57.259 3.883 84.997 6.2 95.744 8 183.015 20.63 246.918 54.962 22.711 12.201 33.489 33.297 33.573 55.454.084 22.138-10.502 45.316-30.451 61.785-38.199 31.538-109.713 61.225-194.812 80.425l-.33-1.463c85.015-19.181 156.257-48.803 194.188-80.119 19.621-16.199 29.987-38.959 29.905-60.622-.082-21.644-10.589-42.215-32.783-54.139-63.597-34.167-150.576-46.787-246.332-54.788-27.688-2.313-56.109-4.24-84.902-6.193-70.72-4.795-143.681-9.742-213.53-20.939l-.021-.003-.02-.005c-21.146-4.629-38.444-9.609-51.807-15.149-13.348-5.534-22.849-11.657-28.31-18.62-5.502-7.014-6.87-14.838-4.038-23.585 2.814-8.689 9.761-18.261 20.794-28.918l.025-.024.027-.022zM107.5 692c3.891 0 7.288-2.117 9.102-5.262 52.02 18.033 106.102 27.213 164.869 29.511l.058-1.498c-58.58-2.292-112.46-11.433-164.269-29.372.478-1.2.74-2.509.74-3.879 0-5.799-4.701-10.5-10.5-10.5S97 675.701 97 681.5s4.701 10.5 10.5 10.5z" fill="#0B1020"/></g><path d="M66.95 160.888c-.302-.917-1.598-.917-1.9 0l-3.724 11.322a4.886 4.886 0 01-3.116 3.116l-11.322 3.724c-.917.302-.917 1.598 0 1.9l11.322 3.724a4.89 4.89 0 013.116 3.116l3.724 11.322c.302.917 1.598.917 1.9 0l3.724-11.322a4.886 4.886 0 013.116-3.116l11.322-3.724c.917-.302.917-1.598 0-1.9l-11.322-3.724a4.89 4.89 0 01-3.116-3.116l-3.724-11.322zm-53 104c-.302-.917-1.598-.917-1.9 0l-1.812 5.509a2.894 2.894 0 01-1.841 1.841l-5.509 1.812c-.917.302-.917 1.598 0 1.9l5.509 1.812a2.882 2.882 0 011.841 1.841l1.812 5.509c.302.917 1.598.917 1.9 0l1.812-5.509a2.894 2.894 0 011.841-1.841l5.509-1.812c.917-.302.917-1.598 0-1.9l-5.509-1.812a2.883 2.883 0 01-1.841-1.841l-1.812-5.509zm723 111c-.302-.917-1.598-.917-1.9 0l-1.812 5.509a2.888 2.888 0 01-1.841 1.841l-5.509 1.812c-.917.302-.917 1.598 0 1.9l5.509 1.812a2.888 2.888 0 011.841 1.841l1.812 5.509c.302.917 1.598.917 1.9 0l1.812-5.509a2.888 2.888 0 011.841-1.841l5.509-1.812c.917-.302.917-1.598 0-1.9l-5.509-1.812a2.888 2.888 0 01-1.841-1.841l-1.812-5.509z" fill="#0B1020"/><defs><linearGradient id="paint0_linear_1091_5" x1="306.501" y1="704" x2="569.501" y2="-79.5" gradientUnits="userSpaceOnUse"><stop stop-color="#FFCCF7"/><stop offset="1" stop-color="#ECB6FF"/></linearGradient><filter id="filter0_f_1091_5" x="48" y="11" width="691.929" height="709.249" filterUnits="userSpaceOnUse" color-interpolation-filters="sRGB"><feFlood flood-opacity="0" result="BackgroundImageFix"/><feBlend in="SourceGraphic" in2="BackgroundImageFix" result="shape"/><feGaussianBlur stdDeviation="2" result="effect1_foregroundBlur_1091_5"/></filter></defs></svg>