<svg width="157" height="43" fill="none" xmlns="http://www.w3.org/2000/svg"><path d="M47.75 1.447c3.27-1.003 4.233-.33 5.056 2.135l3.936 14.59 3.648 13.521c.36 2.49 0 4.27-3.611 5.338l-.723.192-7.764 2.072-8.486 2.265-.36.096c-2.529.712-4.695.356-5.418-1.423l-4.302-15.3-4.003-14.234c-.722-2.135.36-3.558 2.528-4.27l1.805-.461 8.306-2.122 8.305-2.122 1.084-.277z" fill="#FFB2F3"/><path d="M30.056 5.968l-1.805.46c-2.167.713-3.25 2.136-2.528 4.27l4.003 14.234m.33-18.964l2.528 9.357 4.694 2.846M30.056 5.968l8.306-2.122m-8.637 21.086l4.303 15.301c.723 1.78 2.89 2.135 5.417 1.423l.361-.096m-10.08-16.628l8.676-2.49m-1.123-4.27l4.694-1.424m-4.694 1.423l1.123 4.27m-.04-18.595l8.305-2.122m-8.305 2.122l3.61 12.902m0 0l4.695-1.423m-8.265 7.116l1.404 5.338m6.861-12.454l2.528-4.626-2.528-8.975m0 13.6l1.445 5.16m-1.445-18.76l1.084-.277c3.27-1.003 4.232-.33 5.055 2.135l3.936 14.59m-8.63 2.312l1.444 5.16 3.973 2.135 2.527 9.444m-7.944-16.739l8.63-2.313m0 0l3.648 13.522c.36 2.49 0 4.27-3.611 5.338l-.723.192m-16.25-9.444l-2.527 4.626 2.527 9.155m0-13.781l4.695-1.424 3.791 12.94m-8.486 2.265l8.486-2.265m0 0l7.764-2.072M0 13.5h18M8 35h18m-8 5h10.5M16 24.5h8" stroke="#0B1020"/><path d="M81.9 28.28c-1.107 0-2.134-.173-3.08-.52a7.353 7.353 0 01-2.46-1.52 7.137 7.137 0 01-1.6-2.3c-.387-.893-.58-1.873-.58-2.94s.193-2.04.58-2.92a6.938 6.938 0 011.62-2.32 7.101 7.101 0 012.46-1.5c.96-.36 2.006-.54 3.14-.54 1.32 0 2.5.22 3.54.66 1.04.44 1.9 1.073 2.58 1.9l-2.52 2.28c-.48-.52-1-.906-1.56-1.16-.547-.266-1.16-.4-1.84-.4a4.6 4.6 0 00-1.64.28c-.494.187-.914.46-1.26.82a3.75 3.75 0 00-.82 1.26c-.187.48-.28 1.027-.28 1.64 0 .587.093 1.127.28 1.62.2.493.473.92.82 1.28.346.347.76.62 1.24.82.493.187 1.033.28 1.62.28.586 0 1.16-.093 1.72-.28.56-.2 1.126-.533 1.7-1l2.22 2.78c-.8.573-1.727 1.014-2.78 1.32a11.05 11.05 0 01-3.1.46zm2.38-2.3V20.7h3.5v5.8l-3.5-.52zm11.27 2.2c-1.186 0-2.24-.24-3.16-.72a5.59 5.59 0 01-2.18-1.98c-.52-.853-.78-1.826-.78-2.92 0-1.093.26-2.06.78-2.9a5.444 5.444 0 012.18-1.96c.92-.48 1.974-.72 3.16-.72 1.187 0 2.24.24 3.16.72.934.467 1.661 1.12 2.181 1.96.52.84.78 1.807.78 2.9 0 1.094-.26 2.067-.78 2.92-.52.84-1.247 1.5-2.18 1.98-.92.48-1.974.72-3.16.72zm0-3.02c.44 0 .827-.1 1.16-.3.347-.2.62-.493.82-.88.2-.4.3-.873.3-1.42 0-.546-.1-1.006-.3-1.38a2.1 2.1 0 00-.82-.88c-.333-.2-.72-.3-1.16-.3-.426 0-.813.1-1.16.3a2.28 2.28 0 00-.82.88c-.2.373-.3.834-.3 1.38 0 .547.1 1.02.3 1.42.214.387.487.68.82.88.347.2.734.3 1.16.3zm12.721 3.02c-1.387 0-2.467-.34-3.24-1.02-.773-.693-1.16-1.733-1.16-3.12v-9.3h3.8V24c0 .387.107.694.32.92.213.213.487.32.82.32.453 0 .84-.113 1.16-.34l.94 2.66c-.32.213-.713.367-1.18.46-.467.107-.953.16-1.46.16zm-5.98-7.78v-2.84h7.86v2.84h-7.86zm15.185 7.88c-1.146 0-2.253-.14-3.32-.42-1.053-.293-1.913-.666-2.58-1.12l1.3-2.92a9.51 9.51 0 002.16 1c.827.253 1.647.38 2.46.38.547 0 .987-.046 1.32-.14.334-.107.574-.24.72-.4a.858.858 0 00.24-.6c0-.32-.146-.573-.44-.76-.293-.187-.673-.34-1.14-.46-.466-.12-.986-.24-1.56-.36-.56-.12-1.126-.273-1.7-.46a7.11 7.11 0 01-1.54-.72 3.722 3.722 0 01-1.14-1.18c-.293-.493-.44-1.113-.44-1.86 0-.84.227-1.6.68-2.28.467-.68 1.16-1.226 2.08-1.64.92-.413 2.067-.62 3.44-.62.92 0 1.82.107 2.7.32.894.2 1.687.5 2.38.9l-1.22 2.94a9.04 9.04 0 00-1.98-.8 6.897 6.897 0 00-1.9-.28c-.546 0-.986.06-1.32.18-.333.107-.573.253-.72.44-.146.187-.22.4-.22.64 0 .307.14.553.42.74.294.174.674.32 1.14.44.48.107 1 .22 1.56.34.574.12 1.14.274 1.7.46a5.943 5.943 0 011.56.72c.467.293.84.687 1.12 1.18.294.48.44 1.087.44 1.82 0 .813-.233 1.567-.7 2.26-.453.68-1.14 1.227-2.06 1.64-.906.413-2.053.62-3.44.62zm8.029-.28V14h3.26l5.8 9.52h-1.72l5.64-9.52h3.26l.04 14h-3.64l-.04-8.46h.62l-4.22 7.08h-1.76l-4.34-7.08h.76V28h-3.66zm24.003.28c-1.147 0-2.254-.14-3.32-.42-1.054-.293-1.914-.666-2.58-1.12l1.3-2.92a9.47 9.47 0 002.16 1c.826.253 1.646.38 2.46.38.546 0 .986-.046 1.32-.14.333-.107.573-.24.72-.4a.858.858 0 00.24-.6c0-.32-.147-.573-.44-.76-.294-.187-.674-.34-1.14-.46-.467-.12-.987-.24-1.56-.36a16.96 16.96 0 01-1.7-.46 7.087 7.087 0 01-1.54-.72 3.7 3.7 0 01-1.14-1.18c-.294-.493-.441-1.113-.441-1.86 0-.84.227-1.6.681-2.28.466-.68 1.16-1.226 2.08-1.64.92-.413 2.066-.62 3.44-.62.92 0 1.82.107 2.7.32.893.2 1.686.5 2.38.9l-1.22 2.94a9.08 9.08 0 00-1.98-.8 6.908 6.908 0 00-1.9-.28c-.547 0-.987.06-1.32.18-.334.107-.574.253-.72.44-.147.187-.22.4-.22.64 0 .307.14.553.42.74.293.174.673.32 1.14.44.48.107 1 .22 1.56.34.573.12 1.14.274 1.7.46a5.973 5.973 0 011.56.72c.466.293.84.687 1.12 1.18.293.48.44 1.087.44 1.82 0 .813-.234 1.567-.7 2.26-.454.68-1.14 1.227-2.06 1.64-.907.413-2.054.62-3.44.62z" fill="#0B1020"/></svg>