<svg width="59" height="70" fill="none" xmlns="http://www.w3.org/2000/svg"><path d="M58.5 35c0 16.034-12.984 29.031-29 29.031S.5 51.034.5 35s12.984-29.031 29-29.031 29 12.997 29 29.031z" stroke="#0B1020"/><path fill-rule="evenodd" clip-rule="evenodd" d="M16.433 34.135c6.598-2.772 10.99-4.615 13.196-5.509 6.277-2.535 7.596-2.973 8.445-2.991.188 0 .603.036.886.255.226.183.282.42.32.602.038.182.075.566.038.857-.34 3.466-1.81 11.876-2.564 15.743-.32 1.642-.942 2.189-1.546 2.244-1.32.109-2.318-.84-3.581-1.642-1.998-1.259-3.11-2.043-5.052-3.284-2.243-1.422-.792-2.207.49-3.484.34-.328 6.126-5.436 6.24-5.892.018-.054.018-.273-.114-.383-.132-.11-.32-.073-.471-.036-.207.036-3.374 2.08-9.538 6.11-.905.602-1.716.894-2.45.876-.811-.018-2.357-.438-3.526-.803-1.414-.437-2.545-.674-2.45-1.44.056-.402.622-.803 1.677-1.223z" fill="#0B1020"/></svg>