<svg width="521" height="343" fill="none" xmlns="http://www.w3.org/2000/svg"><g opacity=".4"><path fill="url(#paint0_linear_428_2192)" d="M0 177.031h447.362v.598H0z"/><path fill="url(#paint1_linear_428_2192)" d="M224.279 107.056h223.083v.598H224.279z"/><path fill="url(#paint2_linear_428_2192)" d="M224.279 35.287h223.083v.598H224.279z"/><path fill="url(#paint3_linear_428_2192)" d="M0 249.996h447.362v.598H0z"/><path fill="url(#paint4_linear_428_2192)" d="M255.977 319.971h264.948v.598H255.977z"/><path opacity=".1" fill="#D9D9D9" d="M241.025 0h.598v236.839h-.598z"/><path fill="url(#paint5_linear_428_2192)" d="M313.991 0h.598v342.1h-.598z"/><path fill="url(#paint6_linear_428_2192)" d="M384.564 0h.598v342.1h-.598z"/></g><defs><linearGradient id="paint0_linear_428_2192" x1="97.188" y1="177.038" x2="427.625" y2="177.038" gradientUnits="userSpaceOnUse"><stop stop-color="#EC26CC"/><stop offset=".5" stop-color="#D9D9D9" stop-opacity=".53"/><stop offset="1" stop-color="#EC26CC"/></linearGradient><linearGradient id="paint1_linear_428_2192" x1="415.664" y1="107.057" x2="330.737" y2="107.056" gradientUnits="userSpaceOnUse"><stop stop-color="#EC26CC"/><stop offset="1" stop-color="#D9D9D9" stop-opacity="0"/></linearGradient><linearGradient id="paint2_linear_428_2192" x1="436.597" y1="35.884" x2="350.474" y2="35.884" gradientUnits="userSpaceOnUse"><stop stop-color="#EC26CC"/><stop offset="1" stop-color="#D9D9D9" stop-opacity="0"/></linearGradient><linearGradient id="paint3_linear_428_2192" x1="97.188" y1="250.004" x2="427.625" y2="250.004" gradientUnits="userSpaceOnUse"><stop stop-color="#EC26CC"/><stop offset=".5" stop-color="#D9D9D9" stop-opacity=".442"/><stop offset="1" stop-color="#EC26CC"/></linearGradient><linearGradient id="paint4_linear_428_2192" x1="459.323" y1="319.97" x2="337.316" y2="320.568" gradientUnits="userSpaceOnUse"><stop stop-color="#EC26CC"/><stop offset="1" stop-color="#D9D9D9" stop-opacity="0"/></linearGradient><linearGradient id="paint5_linear_428_2192" x1="313.991" y1="264.649" x2="313.991" y2="57.416" gradientUnits="userSpaceOnUse"><stop stop-color="#EC26CC"/><stop offset="1" stop-color="#D9D9D9" stop-opacity="0"/></linearGradient><linearGradient id="paint6_linear_428_2192" x1="384.863" y1="112.14" x2="384.863" y2="342.1" gradientUnits="userSpaceOnUse"><stop stop-color="#D9D9D9" stop-opacity="0"/><stop offset="1" stop-color="#EC26CC"/></linearGradient></defs></svg>