<svg width="25" height="22" fill="none" xmlns="http://www.w3.org/2000/svg"><path fill-rule="evenodd" clip-rule="evenodd" d="M7.469 3.266c-.422.122-1.582.83-2.179 1.328-1.737 1.452-2.8 3.343-3.164 5.627-.096.6-.095 1.934.001 2.55.379 2.425 1.644 4.519 3.592 5.943a8.954 8.954 0 007.466 1.442c1.628-.41 3.276-1.389 4.367-2.593.817-.902 1.67-2.306 1.67-2.748 0-.305-.293-.601-.595-.601-.076 0-.301.064-.502.141-2.041.794-4.232.716-6.182-.22a7.182 7.182 0 01-2.006-1.398c-1.58-1.516-2.452-3.684-2.354-5.85.04-.886.199-1.637.535-2.53.176-.467.183-.54.073-.769a.624.624 0 00-.722-.322z" fill="#E0E0E0"/><path d="M15.727 1.03a.3.3 0 00-.57 0l-.39 1.183a.705.705 0 01-.45.45l-1.183.39a.3.3 0 000 .57l1.184.389a.706.706 0 01.45.45l.389 1.183a.3.3 0 00.57 0l.39-1.184a.705.705 0 01.45-.45l1.183-.389a.3.3 0 000-.57l-1.184-.39a.706.706 0 01-.45-.449l-.389-1.184zm6.803 9.976a.3.3 0 00-.57 0l-.1.305a.404.404 0 01-.258.257l-.305.1a.3.3 0 000 .57l.305.1a.405.405 0 01.257.258l.1.305a.3.3 0 00.57 0l.101-.305a.403.403 0 01.257-.257l.305-.1a.3.3 0 000-.57l-.305-.1a.402.402 0 01-.257-.258l-.1-.305z" fill="#E0E0E0"/></svg>