<svg width="228" height="225" fill="none" xmlns="http://www.w3.org/2000/svg"><path fill-rule="evenodd" clip-rule="evenodd" d="M1.642 3.75c-.34 2.063-.625 10.613-.63 19L.999 38h39V0H2.262l-.62 3.75zm43.566 4l.292 7.75 4.75.305c4.697.301 4.75.27 4.75-2.75C55 10.442 54.63 10 52.434 10c-2.21 0-2.523-.382-2.25-2.75.226-1.969.955-2.841 2.566-3.07C54.196 3.975 55 3.171 55 1.93 55 .278 54.273 0 49.958 0h-5.042l.292 7.75zM61 1.934c0 1.366.807 2.026 2.75 2.25 2.16.248 2.818.906 3.066 3.066.285 2.471.006 2.75-2.75 2.75-3.05 0-3.066.029-3.066 5.5 0 5.2-.136 5.5-2.5 5.5-2.47 0-2.5.1-2.5 8.5V38h-3c-2.97 0-3-.056-3-5.5 0-5.2-.136-5.5-2.5-5.5H45v21h2.5c1.833 0 2.5-.533 2.5-2 0-1.758.667-2 5.5-2H61V27h6v-8.5c0-8.338.046-8.5 2.434-8.5 1.911 0 2.501.59 2.75 2.75.313 2.725.391 2.753 8.566 3.04 8.018.283 8.25.36 8.25 2.75 0 1.957-.51 2.46-2.5 2.46-2.11 0-2.5.467-2.5 3 0 2.667-.333 3-3 3-2.97 0-3 .056-3 5.5s-.03 5.5-3 5.5c-2.533 0-3-.389-3-2.5 0-2-.5-2.5-2.5-2.5-2.364 0-2.5.3-2.5 5.5s.136 5.5 2.5 5.5c1.811 0 2.5.537 2.5 1.948 0 1.644-.817 1.995-5.25 2.25-4.897.282-5.27.487-5.566 3.052-.316 2.742-.339 2.75-8.25 2.75H45v3c0 2.533-.389 3-2.5 3-2.11 0-2.5-.467-2.5-3 0-2.667-.333-3-3-3s-3-.333-3-3 .333-3 3-3c2.333 0 3-.444 3-2s-.667-2-3-2-3 .444-3 2c0 1.467-.667 2-2.5 2-2.11 0-2.5.467-2.5 3 0 2.511.396 3 2.434 3 1.911 0 2.501.59 2.75 2.75.248 2.16.906 2.818 3.066 3.066 2.16.249 2.75.839 2.75 2.75C40 64.847 39.657 65 34.55 65H29.1l-.3 5.75c-.284 5.443-.447 5.767-3.05 6.066-2.136.246-2.75.845-2.75 2.684 0 1.839.614 2.438 2.75 2.684 2.16.248 2.818.906 3.066 3.066.25 2.16.84 2.75 2.75 2.75 1.767 0 2.434.548 2.434 2s-.667 2-2.434 2c-1.91 0-2.5.59-2.75 2.75-.248 2.16-.906 2.818-3.066 3.066-2.47.285-2.75.006-2.75-2.75 0-2.604.377-3.066 2.5-3.066 1.833 0 2.5-.533 2.5-2 0-1.76-.667-2-5.55-2H16.9l.3-5.75c.284-5.443.447-5.767 3.05-6.066 2.624-.302 2.75-.566 2.75-5.75 0-5.13.14-5.434 2.5-5.434 2 0 2.5-.5 2.5-2.5 0-2.364-.3-2.5-5.5-2.5H17v5.5c0 5.16-.15 5.5-2.434 5.5-1.91 0-2.5.59-2.75 2.75-.248 2.16-.906 2.818-3.066 3.066-2.624.302-2.75.566-2.75 5.75C6 87.696 5.86 88 3.5 88c-2.444 0-2.5.167-2.5 7.5s.056 7.5 2.5 7.5 2.5-.167 2.5-7.5V88h11v5c0 4.913.053 5 3.066 5 2.756 0 3.035.279 2.75 2.75-.248 2.16-.906 2.818-3.066 3.066-2.16.249-2.75.839-2.75 2.75 0 1.93-.518 2.434-2.5 2.434-2 0-2.5-.5-2.5-2.5 0-2.111-.467-2.5-3-2.5-2.51 0-3 .397-3 2.43 0 1.76-.62 2.519-2.25 2.75-1.955.278-2.289.998-2.55 5.494-.274 4.742-.107 5.201 2 5.5 2.007.285 2.364 1.026 2.8 5.826.461 5.067.697 5.5 3 5.5 2.44 0 2.507-.197 2.79-8.199l.29-8.199 5.21-.301c4.853-.28 5.232-.489 5.526-3.051.246-2.136.845-2.75 2.684-2.75 1.84 0 2.438-.614 2.684-2.75.302-2.628.56-2.75 5.816-2.75 5.257 0 5.514.122 5.816 2.75.312 2.709.233 2.75-5.25 2.75-5.518 0-5.566.026-5.566 3 0 2.97.056 3 5.5 3 5.2 0 5.5.136 5.5 2.5s-.3 2.5-5.5 2.5H29v6c0 5.733.111 6 2.5 6 1.833 0 2.5.533 2.5 2s-.667 2-2.5 2c-2.364 0-2.5.3-2.5 5.5v5.5h5.5c5.2 0 5.5-.136 5.5-2.5 0-2.111-.467-2.5-3-2.5-2.667 0-3-.333-3-3 0-2.97.056-3 5.5-3H45v5.5c0 5.2.136 5.5 2.5 5.5s2.5-.3 2.5-5.5.136-5.5 2.5-5.5c1.833 0 2.5-.533 2.5-2s-.667-2-2.5-2c-2.11 0-2.5-.467-2.5-3s.39-3 2.5-3c2.111 0 2.5-.467 2.5-3s-.389-3-2.5-3c-2 0-2.5-.5-2.5-2.5 0-2.333-.333-2.5-5-2.5-4.889 0-5-.067-5-3 0-2.511.396-3 2.434-3 1.911 0 2.501-.59 2.75-2.75l.316-2.75h21l.316 2.75c.312 2.709.233 2.75-5.25 2.75H56v5.5c0 5.2.136 5.5 2.5 5.5 1.982 0 2.5-.504 2.5-2.434 0-1.911.59-2.501 2.75-2.75 2.16-.248 2.818-.906 3.066-3.066.25-2.16.84-2.75 2.75-2.75 2.28 0 2.434.344 2.434 5.43 0 4.871-.232 5.464-2.25 5.75-1.61.229-2.34 1.101-2.566 3.07-.273 2.368.04 2.75 2.25 2.75 2.184 0 2.566.446 2.566 3 0 2.97-.056 3-5.5 3s-5.5-.03-5.5-3c0-2.533-.389-3-2.5-3-2.11 0-2.5.467-2.5 3s.39 3 2.5 3c2.333 0 2.5.333 2.5 5s-.167 5-2.5 5c-2.364 0-2.5.3-2.5 5.5s.136 5.5 2.5 5.5 2.5-.3 2.5-5.5V142h8.5c8.352 0 8.5.043 8.5 2.448 0 2.248-.429 2.472-5.25 2.75-4.897.282-5.27.487-5.566 3.052-.312 2.709-.233 2.75 5.25 2.75 5.518 0 5.566-.026 5.566-3 0-2.667.333-3 3-3h3v6c0 5.733.111 6 2.5 6 2.364 0 2.5.3 2.5 5.5v5.5H71.867l.317-2.75c.248-2.16.906-2.818 3.066-3.066 2.16-.249 2.75-.839 2.75-2.75 0-2.284-.34-2.434-5.5-2.434H67v21h-3c-2.933 0-3-.111-3-5 0-4.63-.18-5-2.434-5-1.91 0-2.5.59-2.75 2.75-.248 2.16-.906 2.818-3.066 3.066-1.943.224-2.75.884-2.75 2.25 0 1.41-.696 1.934-2.566 1.934-2.21 0-2.523.382-2.25 2.75.295 2.565.67 2.77 5.566 3.052l5.25.303v5.447c0 5.145.14 5.448 2.5 5.448s2.5-.304 2.5-5.434c0-5.184.126-5.448 2.75-5.75 2.16-.248 2.818-.906 3.066-3.066.302-2.624.566-2.75 5.75-2.75 5.371 0 5.434.035 5.434 3 0 2.667-.333 3-3 3h-3v16h26.895l.303-5.25c.282-4.897.487-5.271 3.052-5.566 2.482-.286 2.75-.012 2.75 2.816s.268 3.102 2.75 2.816c2.725-.313 2.753-.391 3.04-8.566.283-8.018.36-8.25 2.75-8.25 2.315 0 2.46.324 2.46 5.5 0 5.444.03 5.5 3 5.5 2.533 0 3-.389 3-2.5 0-2 .5-2.5 2.5-2.5 2.111 0 2.5-.467 2.5-3 0-2.97-.056-3-5.5-3-4.833 0-5.5-.242-5.5-2s-.667-2-5.5-2-5.5.242-5.5 2c0 1.556-.667 2-3 2-2.297 0-3-.452-3-1.93 0-1.241-.804-2.045-2.25-2.25-2.098-.298-2.27-.878-2.54-8.57-.29-8.245-.289-8.25 2.25-8.25 2.438 0 2.54-.241 2.54-6 0-5.733-.11-6-2.5-6-2 0-2.5-.5-2.5-2.5 0-2.364.3-2.5 5.5-2.5 5.16 0 5.5.15 5.5 2.434 0 1.911.59 2.501 2.75 2.75 2.16.248 2.818.906 3.066 3.066.285 2.471.006 2.75-2.75 2.75-3.05 0-3.066.029-3.066 5.5v5.5h5.5c5.444 0 5.5.03 5.5 3 0 2.667.333 3 3 3 2.97 0 3-.056 3-5.5V159h-5.5c-5.444 0-5.5-.03-5.5-3s.056-3 5.5-3c5.471 0 5.5-.016 5.5-3.066 0-2.756.279-3.035 2.75-2.75 2.16.248 2.818.906 3.066 3.066.246 2.136.845 2.75 2.684 2.75 1.839 0 2.438-.614 2.684-2.75.289-2.518.716-2.776 5.066-3.055 4.697-.301 4.75-.27 4.75 2.75 0 3.036.034 3.055 5.5 3.055h5.5v-5.5c0-5.2-.136-5.5-2.5-5.5-2.111 0-2.5-.467-2.5-3 0-2.97-.056-3-5.5-3-4.833 0-5.5-.242-5.5-2 0-1.843.667-2 8.5-2h8.5v5c0 4.667.167 5 2.5 5 2.111 0 2.5-.467 2.5-3 0-2.667.333-3 3-3s3 .333 3 3c0 2.97.056 3 5.5 3s5.5-.03 5.5-3c0-2.333.444-3 2-3 1.292 0 2-.667 2-1.883 0-1.043-.893-2.117-2-2.407-1.351-.353-2-1.364-2-3.116 0-2.477-.247-2.594-5.5-2.594-5.471 0-5.5.016-5.5 3.066 0 2.756-.279 3.035-2.75 2.75-2.143-.246-2.819-.91-3.061-3.005-.24-2.079-.921-2.76-3-3-2.095-.242-2.759-.918-3.005-3.061-.249-2.16-.839-2.75-2.75-2.75-1.93 0-2.434-.518-2.434-2.5 0-2.111-.467-2.5-3-2.5-2.667 0-3-.333-3-3 0-2.533-.389-3-2.5-3-2.111 0-2.5.467-2.5 3 0 2.549-.383 3-2.55 3-2.472 0-2.541-.175-2.25-5.75.266-5.094.557-5.786 2.55-6.07 1.629-.231 2.25-.99 2.25-2.75 0-1.925.519-2.43 2.5-2.43 2.111 0 2.5-.467 2.5-3s-.389-3-2.5-3c-1.811 0-2.5-.537-2.5-1.948 0-1.644.817-1.995 5.25-2.25 4.897-.282 5.271-.487 5.566-3.052.312-2.709.233-2.75-5.25-2.75H138v-8.5c0-8.4.029-8.5 2.5-8.5 2.364 0 2.5-.3 2.5-5.5 0-5.417.044-5.5 2.934-5.5 2.456 0 2.985.447 3.25 2.75.248 2.16.906 2.818 3.066 3.066 2.16.249 2.75.839 2.75 2.75 0 1.93.518 2.434 2.5 2.434 2.123 0 2.5.462 2.5 3.066 0 2.756-.279 3.035-2.75 2.75-2.16-.248-2.818-.906-3.066-3.066-.249-2.16-.839-2.75-2.75-2.75-2.038 0-2.434.489-2.434 3 0 2.667-.333 3-3 3-2.533 0-3 .389-3 2.5 0 2.471.1 2.5 8.5 2.5s8.5-.029 8.5-2.5c0-2.111.467-2.5 3-2.5 2.667 0 3-.333 3-3 0-2.533.389-3 2.5-3 2 0 2.5-.5 2.5-2.5s-.5-2.5-2.5-2.5-2.5.5-2.5 2.5c0 2.111-.467 2.5-3 2.5h-3V48h3c2.667 0 3 .333 3 3v3h15v-6h-7.5c-6.833 0-7.5-.178-7.5-2 0-1.556-.667-2-3-2-2.97 0-3-.056-3-5.5s.03-5.5 3-5.5c2.533 0 3 .389 3 2.5 0 1.982.504 2.5 2.434 2.5 1.911 0 2.501.59 2.75 2.75.289 2.518.716 2.776 5.066 3.055l4.75.305V21h-25.867l-.317 2.75c-.246 2.139-.911 2.819-2.994 3.059-2.282.264-2.725-.105-3-2.5-.257-2.244-.825-2.809-2.822-2.809-1.984 0-2.565.568-2.816 2.75-.246 2.136-.845 2.75-2.684 2.75-1.839 0-2.438-.614-2.684-2.75-.226-1.969-.955-2.841-2.566-3.07-1.629-.231-2.25-.99-2.25-2.75 0-1.925-.519-2.43-2.5-2.43-2.364 0-2.5.3-2.5 5.5V27h5c4.889 0 5 .067 5 3 0 2.533-.389 3-2.5 3-2 0-2.5.5-2.5 2.5 0 2.111-.467 2.5-3 2.5s-3-.389-3-2.5c0-2-.5-2.5-2.5-2.5-2.364 0-2.5.3-2.5 5.5V44h-17v-5.5c0-5.444.03-5.5 3-5.5 2.533 0 3 .389 3 2.5 0 2 .5 2.5 2.5 2.5s2.5-.5 2.5-2.5-.5-2.5-2.5-2.5c-2.389 0-2.5-.267-2.5-6s.111-6 2.5-6c2.111 0 2.5.467 2.5 3 0 2.681.326 3 3.066 3 2.756 0 3.035-.279 2.75-2.75-.248-2.16-.906-2.818-3.066-3.066-2.16-.249-2.75-.839-2.75-2.75 0-1.93-.518-2.434-2.5-2.434-2.111 0-2.5-.467-2.5-3 0-2.511.396-3 2.434-3 1.911 0 2.501-.59 2.75-2.75.248-2.16.906-2.818 3.066-3.066 1.943-.224 2.75-.884 2.75-2.25C122 .26 121.271 0 116.57 0c-4.871 0-5.464.232-5.75 2.25-.229 1.611-1.101 2.34-3.07 2.566-2.16.249-2.75.839-2.75 2.75 0 2.038-.489 2.434-3 2.434-2.933 0-3-.111-3-5 0-4.629-.18-5-2.43-5-1.76 0-2.519.621-2.75 2.25-.206 1.446-1.124 2.364-2.57 2.57-1.629.231-2.25.99-2.25 2.75 0 2.384-.16 2.43-8.566 2.43h-8.567l.317-2.75c.3-2.603.623-2.766 6.066-3.05C83.182 3.943 84 3.623 84 1.95 84 .13 83.235 0 72.5 0 61.798 0 61 .134 61 1.934zM133 5c0 4.667.167 5 2.5 5s2.5-.333 2.5-5-.167-5-2.5-5-2.5.333-2.5 5zm16-3.052c0 1.644.817 1.995 5.25 2.25 4.897.282 5.271.487 5.566 3.052.273 2.368-.04 2.75-2.25 2.75-2.184 0-2.566.446-2.566 3v3h26V0h-16c-15.19 0-16 .099-16 1.948zM187 19v19h40V22.125c0-8.731-.281-17.281-.625-19L225.75 0H187v19zM6.448 5.274c-.281.732-.384 7.158-.229 14.279L6.5 32.5l13.778.278 13.777.279-.277-14.279L33.5 4.5l-13.27-.279C9.901 4.004 6.846 4.237 6.448 5.274zm160.265-.653c-.392.392-.713 1.762-.713 3.046 0 2.165.402 2.333 5.566 2.333 5.483 0 5.562-.041 5.25-2.75-.287-2.497-.733-2.777-4.853-3.046-2.496-.163-4.858.025-5.25.417zm26.981.018c-.382.382-.694 6.932-.694 14.556v13.861l13.75-.278 13.75-.278v-28l-13.056-.278c-7.18-.152-13.368.035-13.75.417zM122 7.5c0 2 .5 2.5 2.5 2.5s2.5-.5 2.5-2.5-.5-2.5-2.5-2.5-2.5.5-2.5 2.5zm-110 11V27h16V10H12v8.5zM89 13c0 2.533.39 3 2.5 3 2 0 2.5.5 2.5 2.5s-.5 2.5-2.5 2.5c-2.11 0-2.5.467-2.5 3 0 2.933.111 3 5 3 4.89 0 5 .067 5 3 0 2.533-.389 3-2.5 3-2 0-2.5.5-2.5 2.5s.5 2.5 2.5 2.5 2.5-.5 2.5-2.5c0-2.111.467-2.5 3-2.5 2.667 0 3-.333 3-3s-.333-3-3-3c-2.97 0-3-.056-3-5.5 0-5.2-.136-5.5-2.5-5.5-2.11 0-2.5-.467-2.5-3s-.389-3-2.5-3c-2.11 0-2.5.467-2.5 3zm54.362-1.5c-.972 2.531.453 4.665 2.884 4.32 1.615-.229 2.344-1.099 2.57-3.07.274-2.375-.037-2.75-2.281-2.75-1.429 0-2.857.675-3.173 1.5zm55.305-.833c-.367.366-.667 4.191-.667 8.5V27h17V10h-7.833c-4.309 0-8.134.3-8.5.667zM143 30c0 2.533-.389 3-2.5 3-2 0-2.5.5-2.5 2.5s-.5 2.5-2.5 2.5c-2.457 0-2.5.138-2.5 7.934 0 7.911-.008 7.934-2.75 8.25-2.182.251-2.75.832-2.75 2.816s.568 2.565 2.75 2.816c2.136.246 2.75.845 2.75 2.684 0 1.839-.614 2.438-2.75 2.684-2.182.251-2.75.832-2.75 2.816s.568 2.565 2.75 2.816c2.471.285 2.75.006 2.75-2.75 0-2.604.377-3.066 2.5-3.066 2 0 2.5-.5 2.5-2.5s-.5-2.5-2.5-2.5c-2.111 0-2.5-.467-2.5-3 0-2.928.118-3 4.934-3 4.638 0 4.952-.164 5.25-2.75.248-2.16.906-2.818 3.066-3.066 2.482-.286 2.75-.012 2.75 2.816s.268 3.102 2.75 2.816c2.16-.248 2.818-.906 3.066-3.066.249-2.16.839-2.75 2.75-2.75 1.767 0 2.434-.548 2.434-2 0-1.556-.667-2-3-2s-3 .444-3 2c0 1.467-.667 2-2.5 2s-2.5-.533-2.5-2c0-1.556-.667-2-3-2-2.97 0-3-.056-3-5.5s.03-5.5 3-5.5c2.533 0 3 .389 3 2.5 0 2.111.467 2.5 3 2.5s3-.389 3-2.5c0-2.111-.467-2.5-3-2.5-2.667 0-3-.333-3-3s-.333-3-3-3-3 .333-3 3zm28 2.5c0 5.444.03 5.5 3 5.5s3-.056 3-5.5-.03-5.5-3-5.5-3 .056-3 5.5zm-87 6c0 5.2.136 5.5 2.5 5.5s2.5-.3 2.5-5.5-.136-5.5-2.5-5.5-2.5.3-2.5 5.5zM12 46c0 1.467.667 2 2.5 2 2.111 0 2.5.467 2.5 3 0 2.667.333 3 3 3s3-.333 3-3c0-2.533.39-3 2.5-3 1.833 0 2.5-.533 2.5-2 0-1.833-.667-2-8-2s-8 .167-8 2zm82-.042c0 1.75-.822 1.989-7.75 2.25-7.629.287-7.755.335-8.066 3.042L77.867 54H61.133l-.317 2.75c-.295 2.565-.669 2.77-5.566 3.052l-5.25.303v5.447c0 5.105.153 5.448 2.434 5.448 1.911 0 2.501.59 2.75 2.75.248 2.16.906 2.818 3.066 3.066 2.136.246 2.75.845 2.75 2.684 0 1.839-.614 2.438-2.75 2.684-2.182.251-2.75.832-2.75 2.816s.568 2.565 2.75 2.816c2.586.298 2.75.612 2.75 5.25 0 4.816.072 4.934 3 4.934 2.667 0 3-.333 3-3v-3h22v3c0 2.533-.389 3-2.5 3-1.982 0-2.5.504-2.5 2.434 0 1.911-.59 2.501-2.75 2.75-2.608.3-2.766.617-3.052 6.137l-.302 5.822 2.802-.322c2.624-.301 2.821-.653 3.103-5.528l.301-5.207 7.2-.293c7.026-.286 7.206-.359 7.514-3.043.265-2.303.794-2.75 3.25-2.75H105V82h5.566c5.483 0 5.562-.041 5.25-2.75-.226-1.969-.955-2.841-2.566-3.07-1.629-.231-2.25-.99-2.25-2.75 0-2.279.342-2.43 5.5-2.43 5.444 0 5.5-.03 5.5-3 0-2.667-.333-3-3-3-2.511 0-3-.396-3-2.434 0-1.911.59-2.501 2.75-2.75 2.16-.248 2.818-.906 3.066-3.066.285-2.471.006-2.75-2.75-2.75-2.752 0-3.066-.313-3.066-3.052v-3.053l-5.25.303c-4.897.282-5.271.487-5.566 3.052-.285 2.471-.006 2.75 2.75 2.75 3.05 0 3.066.029 3.066 5.5 0 5.444-.03 5.5-3 5.5-2.511 0-3-.396-3-2.434 0-1.911-.59-2.501-2.75-2.75-2.16-.248-2.818-.906-3.066-3.066-.249-2.16-.839-2.75-2.75-2.75C94.396 54 94 53.511 94 51c0-2.533.39-3 2.5-3 1.833 0 2.5-.533 2.5-2s-.667-2-2.5-2c-1.815 0-2.5.536-2.5 1.958zM182 46c0 1.467.667 2 2.5 2 2.389 0 2.5.267 2.5 6s-.111 6-2.5 6c-2 0-2.5.5-2.5 2.5s.5 2.5 2.5 2.5c2.111 0 2.5.467 2.5 3 0 2.511-.396 3-2.434 3-1.911 0-2.501.59-2.75 2.75-.226 1.969-.955 2.841-2.566 3.07-1.608.228-2.25.993-2.25 2.68 0 1.687.642 2.452 2.25 2.68 1.92.273 2.295 1.017 2.555 5.07.275 4.289.542 4.75 2.75 4.75 2.05 0 2.445.485 2.445 3 0 2.667.333 3 3 3 2.51 0 3 .397 3 2.43 0 1.76.621 2.519 2.25 2.75 1.611.229 2.34 1.101 2.566 3.07.273 2.368-.04 2.75-2.25 2.75-2.07 0-2.566-.483-2.566-2.5 0-2.111-.467-2.5-3-2.5s-3 .389-3 2.5c0 2.111.467 2.5 3 2.5 2.667 0 3 .333 3 3s-.333 3-3 3c-2.533 0-3 .389-3 2.5 0 2-.5 2.5-2.5 2.5-2.389 0-2.5.267-2.5 6v6h5.5c4.833 0 5.5.242 5.5 2s-.667 2-5.5 2H182v5.5c0 5.2.136 5.5 2.5 5.5 1.982 0 2.5-.504 2.5-2.434 0-1.911.59-2.501 2.75-2.75 2.16-.248 2.818-.906 3.066-3.066.249-2.16.839-2.75 2.75-2.75 2.284 0 2.434.34 2.434 5.5v5.5h23v-2.5c0-2.471-.1-2.5-8.5-2.5H204v-3c0-2.667.333-3 3-3 2.333 0 3-.444 3-2s-.667-2-3-2c-2.667 0-3-.333-3-3 0-2.681.326-3 3.066-3 2.756 0 3.035-.279 2.75-2.75-.248-2.16-.906-2.818-3.066-3.066-2.16-.249-2.75-.839-2.75-2.75 0-2.284.34-2.434 5.5-2.434 5.2 0 5.5.136 5.5 2.5 0 2.389.267 2.5 6 2.5s6-.111 6-2.5-.267-2.5-6-2.5h-6v-3c0-2.533-.389-3-2.5-3-1.982 0-2.5-.504-2.5-2.434 0-1.911-.59-2.501-2.75-2.75-2.16-.248-2.818-.906-3.066-3.066-.285-2.471-.006-2.75 2.75-2.75 2.604 0 3.066.377 3.066 2.5 0 2 .5 2.5 2.5 2.5s2.5-.5 2.5-2.5-.5-2.5-2.5-2.5c-2.111 0-2.5-.467-2.5-3s.389-3 2.5-3c1.833 0 2.5-.533 2.5-2 0-1.452-.667-2-2.434-2-1.911 0-2.501-.59-2.75-2.75-.3-2.607-.618-2.766-6.127-3.052-5.661-.294-5.804-.371-5.5-3 .243-2.105.916-2.768 3.061-3.014 2.16-.249 2.75-.839 2.75-2.75 0-2.049-.485-2.434-3.066-2.434-2.756 0-3.035-.279-2.75-2.75.299-2.603.623-2.766 6.066-3.05l5.75-.3v5.55c0 5.253.134 5.55 2.5 5.55 2.364 0 2.5-.3 2.5-5.5 0-5.444.03-5.5 3-5.5s3 .056 3 5.5c0 5.458.023 5.5 3.034 5.5h3.034l-.284-10.75-.284-10.75-2.75-.316c-2.303-.265-2.75-.794-2.75-3.25 0-2.593.348-2.934 3-2.934 2.333 0 3-.444 3-2 0-1.843-.667-2-8.5-2s-8.5.157-8.5 2c0 1.467.667 2 2.5 2 2.111 0 2.5.467 2.5 3s-.389 3-2.5 3c-2.123 0-2.5.462-2.5 3.066 0 2.756-.279 3.035-2.75 2.75-2.556-.294-2.785-.704-3.25-5.816-.465-5.112-.694-5.522-3.25-5.816-1.943-.224-2.75-.884-2.75-2.25 0-1.751-.758-1.934-8-1.934-7.333 0-8 .167-8 2zM5.816 56.75c-.226 1.969-.955 2.841-2.566 3.07-1.629.231-2.25.99-2.25 2.75C1 64.849 1.342 65 6.5 65H12v-5.5c0-5.417-.044-5.5-2.934-5.5-2.456 0-2.985.447-3.25 2.75zM84 57v3h-8.5c-8.4 0-8.5.029-8.5 2.5s.1 2.5 8.5 2.5 8.5-.029 8.5-2.5c0-2.333.333-2.5 5-2.5h5v5.5c0 5.2-.136 5.5-2.5 5.5-3.437 0-3.664 4.696-.25 5.18 1.611.229 2.34 1.101 2.566 3.07l.317 2.75H72v-2.5c0-2-.5-2.5-2.5-2.5s-2.5.5-2.5 2.5c0 2.111-.467 2.5-3 2.5-2.667 0-3 .333-3 3v3h33v5c0 4.667.167 5 2.5 5s2.5-.333 2.5-5-.167-5-2.5-5c-2.11 0-2.5-.467-2.5-3s.39-3 2.5-3c2.364 0 2.5-.3 2.5-5.5 0-5.444.03-5.5 3-5.5 2.667 0 3-.333 3-3s-.333-3-3-3c-2.533 0-3-.389-3-2.5 0-2-.5-2.5-2.5-2.5-2.11 0-2.5-.467-2.5-3 0-2.933-.11-3-5-3-4.889 0-5 .067-5 3zm131 0c0 2.533-.389 3-2.5 3-2 0-2.5.5-2.5 2.5s.5 2.5 2.5 2.5c1.982 0 2.5-.504 2.5-2.434 0-1.911.59-2.501 2.75-2.75 2.16-.248 2.818-.906 3.066-3.066.285-2.471.006-2.75-2.75-2.75-2.74 0-3.066.319-3.066 3zM40 68c0 2.681-.326 3-3.066 3-2.756 0-3.035.279-2.75 2.75.248 2.16.906 2.818 3.066 3.066 2.16.249 2.75.839 2.75 2.75C40 81.604 39.511 82 37 82c-2.68 0-3 .326-3 3.066 0 2.756.28 3.035 2.75 2.75 2.16-.248 2.818-.906 3.066-3.066.246-2.136.845-2.75 2.684-2.75 1.84 0 2.438.614 2.684 2.75.23 1.99.952 2.84 2.618 3.076 2.205.313 2.29.081 2-5.5L49.5 76.5l-4.75-.305c-4.289-.275-4.75-.542-4.75-2.75 0-1.941.515-2.445 2.5-2.445 2.111 0 2.5-.467 2.5-3s-.389-3-2.5-3c-2.11 0-2.5.467-2.5 3zm137 0c0 2.333.444 3 2 3s2-.667 2-3-.444-3-2-3-2 .667-2 3zM61 73.5c0 2.111.467 2.5 3 2.5s3-.389 3-2.5c0-2.111-.467-2.5-3-2.5s-3 .389-3 2.5zm17 0c0 2.111.467 2.5 3 2.5s3-.389 3-2.5c0-2.111-.467-2.5-3-2.5s-3 .389-3 2.5zm109 3c0 5.444.03 5.5 3 5.5s3-.056 3-5.5-.03-5.5-3-5.5-3 .056-3 5.5zm-59.291.124c-.39.39-.709 1.759-.709 3.043 0 1.822-.548 2.333-2.5 2.333-2.111 0-2.5.467-2.5 3 0 2.973.05 3 5.55 3h5.55l-.3-5.75c-.256-4.908-.599-5.793-2.341-6.042-1.123-.161-2.36.027-2.75.416zM160 79.5c0 2-.5 2.5-2.5 2.5-2.111 0-2.5.467-2.5 3s.389 3 2.5 3c1.833 0 2.5.533 2.5 2 0 1.556.667 2 3 2 2.97 0 3 .056 3 5.5 0 5.2.136 5.5 2.5 5.5 2 0 2.5-.5 2.5-2.5 0-2.111.467-2.5 3-2.5 2.97 0 3 .056 3 5.5v5.5h-5.5c-5.444 0-5.5.03-5.5 3 0 2.533.389 3 2.5 3 2 0 2.5.5 2.5 2.5 0 2.333.333 2.5 5 2.5s5-.167 5-2.5c0-1.833-.533-2.5-2-2.5-1.556 0-2-.667-2-3s.444-3 2-3c1.843 0 2-.667 2-8.5V92h-7.5c-6.833 0-7.5-.178-7.5-2 0-1.467.667-2 2.5-2 2.111 0 2.5-.467 2.5-3s-.389-3-2.5-3c-2 0-2.5-.5-2.5-2.5 0-2.111-.467-2.5-3-2.5s-3 .389-3 2.5zm55 0c0 2.111.467 2.5 3 2.5s3-.389 3-2.5c0-2.111-.467-2.5-3-2.5s-3 .389-3 2.5zM160 85c0 2.667.333 3 3 3s3-.333 3-3-.333-3-3-3-3 .333-3 3zm27 5c0 1.556.667 2 3 2 2.667 0 3 .333 3 3 0 2.533.389 3 2.5 3 2.111 0 2.5-.467 2.5-3 0-2.667.333-3 3-3 2.333 0 3-.444 3-2s-.667-2-3-2-3 .444-3 2c0 1.467-.667 2-2.5 2s-2.5-.533-2.5-2c0-1.556-.667-2-3-2s-3 .444-3 2zM34 94.934c0 2.755.311 3.066 3.066 3.066 2.756 0 3.035-.279 2.75-2.75-.248-2.16-.906-2.818-3.066-3.066-2.47-.285-2.75-.006-2.75 2.75zm82.667-2.267c-.367.366-.667 1.716-.667 3 0 1.926.524 2.333 3 2.333 2.52 0 3 .393 3 2.46 0 2.39-.232 2.467-8.25 2.75-8.175.287-8.253.315-8.566 3.04-.302 2.624-.566 2.75-5.75 2.75H94v11H72v6h16.867l.317 2.75c.227 1.978.878 2.75 2.316 2.75 1.438 0 2.09-.772 2.316-2.75.25-2.16.84-2.75 2.75-2.75 2.254 0 2.434.37 2.434 5v5h12v3c0 2.533.389 3 2.5 3 2.111 0 2.5-.467 2.5-3s-.389-3-2.5-3c-1.805 0-2.5-.538-2.5-1.934 0-1.366-.807-2.026-2.75-2.25-2.16-.248-2.818-.906-3.066-3.066-.312-2.705-.227-2.75 5.183-2.75 5.257 0 5.514.122 5.817 2.75.248 2.16.906 2.818 3.066 3.066 1.943.224 2.75.884 2.75 2.25 0 1.382.695 1.934 2.434 1.934 1.911 0 2.501.59 2.75 2.75.298 2.591.605 2.75 5.316 2.75s5.018-.159 5.316-2.75c.309-2.68.187-2.75-4.75-2.75H128v-5c0-4.63.18-5 2.434-5 1.911 0 2.501.59 2.75 2.75.226 1.969.955 2.841 2.566 3.07 2.121.301 2.25-.028 2.25-5.75 0-5.808.108-6.07 2.5-6.07 2.111 0 2.5.467 2.5 3 0 2.667.333 3 3 3s3-.333 3-3-.333-3-3-3c-2.533 0-3-.389-3-2.5 0-2-.5-2.5-2.5-2.5s-2.5.5-2.5 2.5c0 2.333-.333 2.5-5 2.5s-5-.167-5-2.5c0-2.111-.467-2.5-3-2.5s-3 .389-3 2.5c0 2.364-.3 2.5-5.5 2.5s-5.5-.136-5.5-2.5c0-2.111-.467-2.5-3-2.5-2.667 0-3-.333-3-3v-3h8.5c8.338 0 8.5-.046 8.5-2.434 0-1.911.59-2.501 2.75-2.75 2.16-.248 2.818-.906 3.066-3.066.249-2.16.839-2.75 2.75-2.75 2.049 0 2.434-.485 2.434-3.066 0-2.756-.279-3.035-2.75-2.75-2.16.248-2.818.906-3.066 3.066-.249 2.16-.839 2.75-2.75 2.75-2.038 0-2.434-.489-2.434-3 0-2.476-.407-3-2.333-3-1.284 0-2.634.3-3 .667zM149 100.5c0 8.4.029 8.5 2.5 8.5s2.5-.1 2.5-8.5-.029-8.5-2.5-8.5-2.5.1-2.5 8.5zm72-5.5c0 2.828.268 3.102 2.75 2.816 2.182-.251 2.75-.832 2.75-2.816s-.568-2.565-2.75-2.816c-2.482-.286-2.75-.012-2.75 2.816zm0 11.5c0 2.111.467 2.5 3 2.5s3-.389 3-2.5c0-2.111-.467-2.5-3-2.5s-3 .389-3 2.5zM6 112c0 2.667.333 3 3 3s3-.333 3-3-.333-3-3-3-3 .333-3 3zm149 2.5c0 5.2.136 5.5 2.5 5.5s2.5-.3 2.5-5.5-.136-5.5-2.5-5.5-2.5.3-2.5 5.5zm-56 6c0 5.444.03 5.5 3 5.5s3-.056 3-5.5-.03-5.5-3-5.5-3 .056-3 5.5zm94-3c0 2.111-.467 2.5-3 2.5-2.667 0-3 .333-3 3s.333 3 3 3 3 .333 3 3c0 2.533.389 3 2.5 3 1.833 0 2.5.533 2.5 2 0 1.556.667 2 3 2 2.299 0 3-.452 3-1.934 0-1.366-.807-2.026-2.75-2.25-2.16-.248-2.818-.906-3.066-3.066-.249-2.16-.839-2.75-2.75-2.75-2.038 0-2.434-.489-2.434-3 0-2.533.389-3 2.5-3 2 0 2.5-.5 2.5-2.5s-.5-2.5-2.5-2.5-2.5.5-2.5 2.5zM40 123c0 2.667-.333 3-3 3s-3 .333-3 3c0 2.97.056 3 5.5 3 4.833 0 5.5.242 5.5 2 0 1.467.667 2 2.5 2 3.323 0 3.545-3.712.25-4.18-1.61-.229-2.34-1.101-2.566-3.07-.273-2.368.04-2.75 2.25-2.75 2.184 0 2.566-.446 2.566-3 0-2.933-.11-3-5-3-4.889 0-5 .067-5 3zm82 0c0 2.533.389 3 2.5 3 2.111 0 2.5-.467 2.5-3s-.389-3-2.5-3c-2.111 0-2.5.467-2.5 3zm-105 8c0 4.667-.167 5-2.5 5-2.11 0-2.5.467-2.5 3s.39 3 2.5 3c2.364 0 2.5.3 2.5 5.5s-.136 5.5-2.5 5.5c-2.123 0-2.5.462-2.5 3.066 0 2.756-.279 3.035-2.75 2.75-2.725-.313-2.753-.391-3.04-8.566-.283-8.039-.354-8.25-2.773-8.25H.957l.271 18.75c.27 18.589.291 18.753 2.522 19.07 2.174.308 2.25.046 2.25-7.75V164h3c2.533 0 3-.389 3-2.5 0-2 .5-2.5 2.5-2.5 2.111 0 2.5-.467 2.5-3 0-2.97.056-3 5.5-3s5.5-.03 5.5-3c0-2.533-.389-3-2.5-3-2.364 0-2.5-.3-2.5-5.5s.136-5.5 2.5-5.5c1.833 0 2.5-.533 2.5-2s-.667-2-2.5-2c-2.11 0-2.5-.467-2.5-3 0-2.667-.333-3-3-3-2.933 0-3 .111-3 5zm198-.05V136h12.11l-.305-4.75-.305-4.75-5.75-.3-5.75-.3v5.05zM166 134c0 1.467.667 2 2.5 2s2.5-.533 2.5-2-.667-2-2.5-2-2.5.533-2.5 2zm-82 7.5c0 5.2.136 5.5 2.5 5.5 2.111 0 2.5.467 2.5 3s.39 3 2.5 3c2.111 0 2.5-.467 2.5-3s-.389-3-2.5-3c-2 0-2.5-.5-2.5-2.5s.5-2.5 2.5-2.5c2.111 0 2.5-.467 2.5-3 0-2.933-.11-3-5-3h-5v5.5zm59 3c0 2.111.467 2.5 3 2.5s3-.389 3-2.5c0-2.111-.467-2.5-3-2.5s-3 .389-3 2.5zm23.667 3.167c-.367.366-.667 1.716-.667 3 0 2.161-.405 2.333-5.5 2.333-5.444 0-5.5.03-5.5 3 0 2.533.389 3 2.5 3 2 0 2.5.5 2.5 2.5 0 2.111-.467 2.5-3 2.5s-3-.389-3-2.5c0-2-.5-2.5-2.5-2.5H149v21h2.5c2.333 0 2.5-.333 2.5-5v-5h6c5.688 0 6 .127 6 2.43 0 1.76.621 2.519 2.25 2.75 1.446.206 2.364 1.124 2.57 2.57.26 1.832-.158 2.25-2.25 2.25-1.903 0-2.57-.519-2.57-2 0-1.556-.667-2-3-2s-3 .444-3 2c0 1.467-.667 2-2.5 2-2.111 0-2.5.467-2.5 3s.389 3 2.5 3c2.364 0 2.5.3 2.5 5.5v5.5h17.133l-.317 2.75-.316 2.75-10.75.284c-10.684.282-10.75.299-10.75 2.75 0 1.964.509 2.466 2.5 2.466 2.111 0 2.5.467 2.5 3s-.389 3-2.5 3c-2 0-2.5.5-2.5 2.5 0 2.111-.467 2.5-3 2.5s-3-.389-3-2.5c0-2 .5-2.5 2.5-2.5 2.111 0 2.5-.467 2.5-3v-3h-21v3.066c0 2.756-.279 3.035-2.75 2.75-2.565-.295-2.77-.669-3.052-5.566-.278-4.821-.502-5.25-2.75-5.25-2.304 0-2.448.327-2.448 5.566 0 5.483-.041 5.562-2.75 5.25-2.565-.295-2.77-.669-3.052-5.566-.278-4.821-.502-5.25-2.75-5.25-1.945 0-2.448.514-2.448 2.5 0 2.111-.467 2.5-3 2.5-2.667 0-3 .333-3 3s.333 3 3 3c2.533 0 3 .389 3 2.5 0 2 .5 2.5 2.5 2.5 2.111 0 2.5.467 2.5 3 0 2.667.333 3 3 3 2.681 0 3-.326 3-3.066 0-2.756.279-3.035 2.75-2.75 2.16.248 2.818.906 3.066 3.066.246 2.136.845 2.75 2.684 2.75 1.839 0 2.438-.614 2.684-2.75.227-1.978.878-2.75 2.316-2.75 1.438 0 2.089.772 2.316 2.75l.317 2.75H177v-3.07c0-2.611.336-3.021 2.25-2.75 1.611.229 2.34 1.101 2.566 3.07.246 2.136.845 2.75 2.684 2.75 1.839 0 2.438-.614 2.684-2.75.295-2.565.669-2.77 5.566-3.052l5.25-.303v3.053c0 2.709.33 3.052 2.934 3.052 2.456 0 2.985-.447 3.25-2.75.313-2.725.391-2.753 8.566-3.04l8.25-.291v-5.459c0-5.4.033-5.46 3-5.46 2.511 0 3-.396 3-2.434 0-1.911-.59-2.501-2.75-2.75-2.139-.246-2.819-.911-3.059-2.994-.264-2.282.105-2.725 2.5-3 2.244-.257 2.809-.825 2.809-2.822 0-1.984-.568-2.565-2.75-2.816-2.136-.246-2.75-.845-2.75-2.684 0-1.839.614-2.438 2.75-2.684 2.182-.251 2.75-.832 2.75-2.816s-.568-2.565-2.75-2.816c-2.471-.285-2.75-.006-2.75 2.75 0 2.74-.319 3.066-3 3.066-2.533 0-3 .389-3 2.5 0 2.111.467 2.5 3 2.5 2.667 0 3 .333 3 3v3h-17v-17h5.5c4.784 0 5.5-.254 5.5-1.948 0-1.644-.817-1.995-5.25-2.25l-5.25-.302-.3-5.75-.3-5.75h3.05c2.587 0 3.05-.38 3.05-2.5 0-2 .5-2.5 2.5-2.5s2.5.5 2.5 2.5c0 2.389.267 2.5 6 2.5s6-.111 6-2.5c0-2.111-.467-2.5-3-2.5-2.667 0-3-.333-3-3v-3h-16.867l-.317 2.75c-.295 2.565-.669 2.77-5.566 3.052-4.821.278-5.25.502-5.25 2.75 0 2.301-.331 2.448-5.5 2.448-5.444 0-5.5.03-5.5 3 0 2.974.048 3 5.566 3 5.483 0 5.562.041 5.25 2.75-.302 2.628-.559 2.75-5.816 2.75s-5.514-.122-5.816-2.75c-.224-1.943-.884-2.75-2.25-2.75-1.482 0-1.934-.701-1.934-3 0-2.333.444-3 2-3 1.467 0 2-.667 2-2.5s-.533-2.5-2-2.5-2 .667-2 2.5c0 2.111-.467 2.5-3 2.5s-3-.389-3-2.5c0-2-.5-2.5-2.5-2.5-2.111 0-2.5-.467-2.5-3s.389-3 2.5-3c2.111 0 2.5-.467 2.5-3 0-2.242-.463-3-1.833-3-1.009 0-2.134.3-2.5.667zm11 0c-.367.366-.667 1.716-.667 3 0 1.666.571 2.333 2 2.333 1.556 0 2-.667 2-3 0-2.821-1.674-3.993-3.333-2.333zm-148.85 8.083c-.249 2.16-.907 2.818-3.067 3.066-2.136.246-2.75.845-2.75 2.684 0 1.839-.614 2.438-2.75 2.684-2.16.248-2.818.906-3.066 3.066-.286 2.482-.012 2.75 2.816 2.75s3.102.268 2.816 2.75c-.248 2.16-.906 2.818-3.066 3.066-1.943.224-2.75.884-2.75 2.25 0 1.677.73 1.934 5.5 1.934H28v-5c0-4.667-.167-5-2.5-5-2.123 0-2.5-.462-2.5-3.066 0-2.756.28-3.035 2.75-2.75 2.16.248 2.818.906 3.066 3.066.302 2.624.566 2.75 5.75 2.75 5.13 0 5.434.14 5.434 2.5 0 2.333.333 2.5 5 2.5s5-.167 5-2.5-.333-2.5-5-2.5c-4.889 0-5-.067-5-3 0-2.533.39-3 2.5-3 2 0 2.5-.5 2.5-2.5s-.5-2.5-2.5-2.5c-2.11 0-2.5-.467-2.5-3 0-2.965-.063-3-5.434-3-5.184 0-5.448.126-5.75 2.75zm153.183.32c0 2.611.336 3.021 2.25 2.75 1.611-.229 2.34-1.101 2.566-3.07.273-2.368-.04-2.75-2.25-2.75-2.197 0-2.566.441-2.566 3.07zM34 161.5c0 2.111.467 2.5 3 2.5s3-.389 3-2.5c0-2.111-.467-2.5-3-2.5s-3 .389-3 2.5zm94 3c0 5.238.122 5.5 2.566 5.5 2.21 0 2.523.382 2.25 2.75-.226 1.969-.955 2.841-2.566 3.07-3.247.461-3.083 4.18.184 4.18 1.911 0 2.501.59 2.75 2.75.226 1.969.955 2.841 2.566 3.07 2.018.286 2.25.879 2.25 5.75V197h-5c-4.667 0-5 .167-5 2.5 0 2.444.167 2.5 7.5 2.5s7.5-.056 7.5-2.5c0-2.111.467-2.5 3-2.5 2.667 0 3-.333 3-3 0-2.533.389-3 2.5-3 2 0 2.5-.5 2.5-2.5s-.5-2.5-2.5-2.5-2.5.5-2.5 2.5c0 2.111-.467 2.5-3 2.5h-3v-10.5c0-10.457-.01-10.5-2.434-10.5-1.911 0-2.501-.59-2.75-2.75-.226-1.969-.955-2.841-2.566-3.07-1.629-.231-2.25-.99-2.25-2.75 0-1.925-.519-2.43-2.5-2.43-2.364 0-2.5.3-2.5 5.5zm65 2.5c0 2.533.389 3 2.5 3 2.111 0 2.5-.467 2.5-3s-.389-3-2.5-3c-2.111 0-2.5.467-2.5 3zm22 5.5c0 2.111.467 2.5 3 2.5s3-.389 3-2.5c0-2.111-.467-2.5-3-2.5s-3 .389-3 2.5zm-136.287 3.121c-.392.392-.713 1.537-.713 2.546 0 1.555.833 1.833 5.5 1.833 5.444 0 5.5.03 5.5 3s-.056 3-5.5 3H78v5.5c0 5.444.03 5.5 3 5.5 2.667 0 3-.333 3-3 0-2.533.39-3 2.5-3 1.981 0 2.5-.505 2.5-2.43 0-1.76.621-2.519 2.25-2.75 1.611-.229 2.34-1.101 2.566-3.07.271-2.35-.046-2.75-2.18-2.75-1.828 0-2.583-.603-2.816-2.25-.27-1.902-1.022-2.296-4.857-2.546-2.496-.163-4.858.025-5.25.417zM34 178c0 1.556.667 2 3 2s3-.444 3-2-.667-2-3-2-3 .444-3 2zm137 5c0 2.533-.389 3-2.5 3-2 0-2.5.5-2.5 2.5s.5 2.5 2.5 2.5c1.982 0 2.5-.504 2.5-2.434 0-1.911.59-2.501 2.75-2.75 2.16-.248 2.818-.906 3.066-3.066.285-2.471.006-2.75-2.75-2.75-2.74 0-3.066.319-3.066 3zm10.419-1.651c-.284.742-.383 4.455-.218 8.25l.299 6.901 8.25.29 8.25.291V180h-8.031c-5.818 0-8.174.372-8.55 1.349zM1.011 201.75c.006 8.662.29 17.438.631 19.5l.62 3.75H40v-39H1l.011 15.75zM187 188.5c0 2.111.467 2.5 3 2.5s3-.389 3-2.5c0-2.111-.467-2.5-3-2.5s-3 .389-3 2.5zM6 205v14h28v-28H6v14zm6 .5v8.5h16v-17H12v8.5zm33.21-.25l.29 8.25 5.25.302c4.78.275 5.25.516 5.25 2.684 0 1.854-.608 2.451-2.75 2.698-2.16.248-2.818.906-3.066 3.066l-.317 2.75h17.266l-.317-2.75c-.248-2.16-.906-2.818-3.066-3.066-2.624-.302-2.75-.566-2.75-5.75V208h5.5c5.176 0 5.5-.145 5.5-2.46 0-2.39-.232-2.467-8.25-2.75-8.175-.287-8.253-.315-8.566-3.04-.298-2.589-.608-2.75-5.29-2.75h-4.975l.291 8.25zM116 199.5c0 2.111.467 2.5 3 2.5s3-.389 3-2.5c0-2.111-.467-2.5-3-2.5s-3 .389-3 2.5zm65.712 3.122c-.392.391-.712 1.761-.712 3.045 0 2.237-.31 2.333-7.5 2.333H166v3c0 2.667-.333 3-3 3-2.533 0-3 .389-3 2.5 0 2.111.467 2.5 3 2.5s3-.389 3-2.5c0-2 .5-2.5 2.5-2.5s2.5.5 2.5 2.5c0 2.111.467 2.5 3 2.5 2.51 0 3-.397 3-2.43 0-1.76.621-2.519 2.25-2.75 1.611-.229 2.34-1.101 2.566-3.07.303-2.628.56-2.75 5.817-2.75 5.41 0 5.495-.045 5.183-2.75-.293-2.548-.687-2.772-5.354-3.045-2.772-.162-5.359.025-5.75.417zm16.997.002c-.39.39-.709 1.759-.709 3.043 0 1.926.524 2.333 3 2.333 2.681 0 3 .326 3 3.066 0 2.756.279 3.035 2.75 2.75 2.16-.248 2.818-.906 3.066-3.066.283-2.459 0-2.75-2.683-2.75-2.53 0-3.05-.431-3.317-2.75-.31-2.696-3.432-4.301-5.107-2.626zM78 213.367c0 5.257-.122 5.514-2.75 5.817-2.16.248-2.818.906-3.066 3.066-.315 2.733-.278 2.75 5.75 2.75H84v-3c0-2.533.39-3 2.5-3 2 0 2.5-.5 2.5-2.5 0-1.982-.504-2.5-2.434-2.5-1.91 0-2.5-.59-2.75-2.75-.248-2.16-.906-2.818-3.066-3.066-2.705-.312-2.75-.227-2.75 5.183zm16 3.133c0 2 .5 2.5 2.5 2.5s2.5-.5 2.5-2.5-.5-2.5-2.5-2.5-2.5.5-2.5 2.5zm11.709 3.124c-.39.39-.709 1.759-.709 3.043 0 1.937.521 2.333 3.066 2.333 2.756 0 3.035-.279 2.75-2.75-.31-2.696-3.432-4.301-5.107-2.626z" fill="#fff"/></svg>