<svg width="151" height="42" fill="none" xmlns="http://www.w3.org/2000/svg"><path d="M25.55 2.833c-1.89-1.3-4.36-1.952-7.405-1.952H6.353c-.934 0-1.45.467-1.548 1.4L.015 32.349a.985.985 0 00.221.811.905.905 0 00.737.369h5.6c.983 0 1.523-.466 1.622-1.4l1.326-8.107c.049-.393.222-.712.516-.958.295-.245.664-.406 1.106-.48a7.7 7.7 0 011.253-.11c.392 0 .859.025 1.4.074.54.05.884.073 1.032.073 4.225 0 7.541-1.19 9.949-3.574 2.407-2.382 3.611-5.686 3.611-9.912 0-2.899-.946-4.999-2.837-6.302zm-6.08 9.029c-.245 1.72-.883 2.85-1.915 3.39-1.032.541-2.506.81-4.422.81l-2.432.074 1.253-7.886c.098-.54.417-.81.958-.81h1.4c1.965 0 3.39.283 4.275.847.884.566 1.179 1.757.884 3.575zM149.988.88h-5.454c-.541 0-.86.271-.958.812l-4.79 30.657-.074.148c0 .247.098.479.295.7.196.22.442.331.737.331h4.864c.932 0 1.448-.465 1.548-1.4l4.79-30.142v-.073c0-.688-.32-1.032-.958-1.032zM84.102 12.746c0-.245-.099-.48-.294-.7-.197-.221-.418-.332-.663-.332H77.47c-.541 0-.983.247-1.327.737l-7.811 11.497-3.243-11.055c-.247-.785-.787-1.18-1.621-1.18H57.94c-.246 0-.467.112-.663.333-.197.22-.295.455-.295.7 0 .099.48 1.547 1.437 4.348.958 2.8 1.99 5.822 3.095 9.065 1.106 3.242 1.683 4.963 1.732 5.158-4.029 5.503-6.043 8.451-6.043 8.844 0 .639.32.958.958.958h5.675c.54 0 .982-.245 1.327-.737l18.792-27.12c.098-.098.147-.27.147-.516zm52.841-1.032h-5.601c-.688 0-1.105.81-1.252 2.432-1.279-1.964-3.611-2.948-7.002-2.948-3.537 0-6.547 1.327-9.028 3.98-2.481 2.653-3.721 5.773-3.721 9.36 0 2.899.847 5.208 2.542 6.927 1.695 1.72 3.967 2.58 6.818 2.58 1.424 0 2.873-.296 4.347-.885 1.474-.59 2.628-1.375 3.464-2.358 0 .049-.05.27-.147.663-.099.393-.148.689-.148.884 0 .787.319 1.179.959 1.179h5.085c.932 0 1.473-.466 1.621-1.4l3.021-19.235a.99.99 0 00-.221-.81c-.197-.246-.442-.37-.737-.37zm-9.617 14.519c-1.253 1.228-2.764 1.842-4.532 1.842-1.426 0-2.579-.393-3.464-1.18-.885-.784-1.327-1.865-1.327-3.242 0-1.817.614-3.353 1.843-4.606 1.227-1.253 2.751-1.88 4.569-1.88 1.374 0 2.517.406 3.427 1.216.908.812 1.363 1.93 1.363 3.354 0 1.769-.626 3.268-1.879 4.496zM53.224 11.714h-5.601c-.689 0-1.106.81-1.253 2.432-1.327-1.964-3.66-2.948-7.001-2.948-3.538 0-6.548 1.327-9.028 3.98-2.482 2.653-3.722 5.773-3.722 9.36 0 2.899.848 5.208 2.543 6.927 1.695 1.72 3.967 2.58 6.817 2.58 1.375 0 2.8-.296 4.274-.885 1.474-.59 2.653-1.375 3.537-2.358-.197.59-.294 1.105-.294 1.547 0 .787.319 1.179.958 1.179h5.085c.932 0 1.474-.466 1.621-1.4l3.021-19.235a.993.993 0 00-.22-.81.909.909 0 00-.737-.37zm-9.618 14.555c-1.253 1.205-2.789 1.806-4.605 1.806-1.426 0-2.568-.393-3.428-1.18-.86-.784-1.29-1.865-1.29-3.242 0-1.817.614-3.353 1.843-4.606 1.228-1.253 2.75-1.88 4.57-1.88 1.374 0 2.517.406 3.427 1.216.908.812 1.363 1.93 1.363 3.354 0 1.818-.627 3.33-1.88 4.532zM109.27 2.833c-1.891-1.3-4.36-1.952-7.406-1.952H90.146c-.983 0-1.523.467-1.621 1.4l-4.79 30.068a.984.984 0 00.22.811.904.904 0 00.738.369h6.042c.59 0 .983-.32 1.18-.958l1.326-8.549c.05-.393.221-.712.516-.958.295-.245.663-.406 1.106-.48.442-.073.859-.11 1.253-.11.392 0 .859.025 1.4.074.54.05.885.073 1.031.073 4.226 0 7.542-1.19 9.949-3.574 2.408-2.382 3.612-5.686 3.612-9.912 0-2.899-.947-4.999-2.838-6.302zm-7.553 12.124c-1.081.737-2.703 1.105-4.864 1.105l-2.359.074 1.253-7.886c.098-.54.417-.81.958-.81h1.326c1.08 0 1.94.049 2.58.147.638.099 1.253.405 1.843.921.59.516.884 1.265.884 2.248 0 2.064-.541 3.463-1.621 4.2z" fill="#fff"/></svg>