<svg width="25" height="25" fill="none" xmlns="http://www.w3.org/2000/svg"><path fill-rule="evenodd" clip-rule="evenodd" d="M12.44.576a1.005 1.005 0 00-.281.244l-.126.165-.013 1.328c-.016 1.489-.006 1.547.31 1.787.134.103.214.127.43.127s.296-.024.43-.127c.308-.234.32-.3.32-1.725 0-1.42-.013-1.492-.313-1.72a.773.773 0 00-.757-.079zm8.26 2.998c-.08.04-.548.477-1.039.972-.96.969-1 1.03-.926 1.424.043.231.324.511.555.555.394.074.455.034 1.424-.927.496-.492.934-.962.974-1.046.292-.616-.378-1.28-.988-.978zM4.585 3.83c-.197.059-.444.318-.5.524-.1.376-.029.488.956 1.483.494.5.966.937 1.05.973a.75.75 0 00.945-.31.758.758 0 00.034-.67c-.036-.082-.474-.554-.973-1.048-.735-.727-.943-.908-1.095-.95-.214-.057-.231-.058-.417-.002zm7.237 1.991c-1.415.196-2.65.794-3.717 1.8-2.781 2.624-2.781 7.134 0 9.758 1.083 1.02 2.309 1.608 3.764 1.803a6.72 6.72 0 006.15-2.458c1.927-2.395 1.983-5.85.135-8.278a6.753 6.753 0 00-6.332-2.625zM1.19 11.83a.97.97 0 00-.281.241.753.753 0 000 .86c.235.308.301.32 1.726.32s1.491-.012 1.725-.32a.753.753 0 000-.86c-.234-.308-.3-.32-1.732-.319-1.091.001-1.305.013-1.438.078zm20.25 0a.97.97 0 00-.281.241.753.753 0 000 .86c.235.308.301.32 1.726.32s1.491-.012 1.725-.32a.753.753 0 000-.86c-.234-.308-.3-.32-1.732-.319-1.091.001-1.305.013-1.438.078zM6.69 17.7c-.239.055-.302.11-1.203 1.018-.736.742-.883.914-.928 1.082a.732.732 0 00.9.9c.168-.045.34-.192 1.082-.928.485-.481.915-.936.954-1.012a.947.947 0 00.073-.363.734.734 0 00-.878-.697zm12.063.525a.754.754 0 00-.303.944c.036.082.474.554.973 1.048.766.758.938.907 1.107.952a.738.738 0 00.9-.9c-.045-.168-.195-.343-.952-1.107-.494-.5-.966-.937-1.049-.973a.773.773 0 00-.676.036zm-6.313 2.6a1.005 1.005 0 00-.281.244l-.126.165-.013 1.328c-.016 1.489-.006 1.547.31 1.787.236.18.624.18.86 0 .308-.234.32-.3.32-1.725 0-1.42-.013-1.492-.313-1.72a.773.773 0 00-.757-.079z" fill="#fff"/></svg>