<svg width="330" height="53" fill="none" xmlns="http://www.w3.org/2000/svg"><path d="M322.356 44.287C319.614 30.692 305.677 11.615 285.8 6.13c14.164 3.566 32.5 22.22 36.556 38.156zM295.224 7.102c10.51 5.255 21.306 16.05 26.389 27.531-4.532-8.034-11.595-18.906-26.389-27.53z" stroke="#fff" stroke-width=".6"/><path d="M62.76 50.48c-3.973 0-7.08-1.107-9.32-3.32s-3.36-5.373-3.36-9.48V22h6.48v15.44c0 2.667.547 4.587 1.64 5.76s2.627 1.76 4.6 1.76c1.973 0 3.507-.587 4.6-1.76 1.093-1.173 1.64-3.093 1.64-5.76V22h6.4v15.68c0 4.107-1.12 7.267-3.36 9.48-2.24 2.213-5.347 3.32-9.32 3.32zm28.283 0a23.32 23.32 0 01-6.44-.88c-2.053-.613-3.706-1.4-4.96-2.36l2.2-4.88c1.2.853 2.614 1.56 4.24 2.12a16.2 16.2 0 005 .8c1.28 0 2.307-.12 3.08-.36.8-.267 1.387-.627 1.76-1.08a2.38 2.38 0 00.56-1.56c0-.747-.293-1.333-.88-1.76-.586-.453-1.36-.813-2.32-1.08-.96-.293-2.026-.56-3.2-.8a45.435 45.435 0 01-3.48-.96 14.848 14.848 0 01-3.16-1.44 7.265 7.265 0 01-2.36-2.32c-.586-.96-.88-2.187-.88-3.68 0-1.6.427-3.053 1.28-4.36.88-1.333 2.187-2.387 3.92-3.16 1.76-.8 3.96-1.2 6.6-1.2 1.76 0 3.494.213 5.2.64 1.707.4 3.214 1.013 4.52 1.84l-2 4.92c-1.306-.747-2.613-1.293-3.92-1.64a13.94 13.94 0 00-3.84-.56c-1.253 0-2.28.147-3.08.44-.8.293-1.373.68-1.72 1.16-.346.453-.52.987-.52 1.6 0 .72.294 1.307.88 1.76.587.427 1.36.773 2.32 1.04.96.267 2.014.533 3.16.8 1.174.267 2.334.573 3.48.92 1.174.347 2.24.813 3.2 1.4a6.892 6.892 0 012.32 2.32c.614.96.92 2.173.92 3.64a7.57 7.57 0 01-1.32 4.32c-.88 1.307-2.2 2.36-3.96 3.16-1.733.8-3.933 1.2-6.6 1.2zm16.308-.48V22h12.72c3.04 0 5.72.587 8.04 1.76 2.32 1.147 4.134 2.76 5.44 4.84 1.307 2.08 1.96 4.547 1.96 7.4 0 2.827-.653 5.293-1.96 7.4-1.306 2.08-3.12 3.707-5.44 4.88-2.32 1.147-5 1.72-8.04 1.72h-12.72zm6.48-5.32h5.92c1.867 0 3.48-.347 4.84-1.04 1.387-.72 2.454-1.733 3.2-3.04.774-1.307 1.16-2.84 1.16-4.6 0-1.787-.386-3.32-1.16-4.6-.746-1.307-1.813-2.307-3.2-3-1.36-.72-2.973-1.08-4.84-1.08h-5.92v17.36zM145.808 50V27.28h-8.96V22h24.4v5.28h-8.96V50h-6.48zm36.054 0V27.28h-8.96V22h24.4v5.28h-8.96V50h-6.48zm18.927 0V22h12.12c2.506 0 4.666.413 6.48 1.24 1.813.8 3.213 1.96 4.2 3.48.986 1.52 1.48 3.333 1.48 5.44 0 2.08-.494 3.88-1.48 5.4-.987 1.493-2.387 2.64-4.2 3.44-1.814.8-3.974 1.2-6.48 1.2h-8.52l2.88-2.84V50h-6.48zm17.8 0l-7-10.16h6.92l7.08 10.16h-7zm-11.32-9.92l-2.88-3.04h8.16c2 0 3.493-.427 4.48-1.28.986-.88 1.48-2.08 1.48-3.6 0-1.547-.494-2.747-1.48-3.6-.987-.853-2.48-1.28-4.48-1.28h-8.16l2.88-3.08v15.88zm36.334 10.4c-2.16 0-4.174-.347-6.04-1.04-1.84-.72-3.44-1.733-4.8-3.04a14.269 14.269 0 01-3.2-4.6c-.747-1.76-1.12-3.693-1.12-5.8 0-2.107.373-4.04 1.12-5.8a14.269 14.269 0 013.2-4.6c1.386-1.307 3-2.307 4.84-3 1.84-.72 3.853-1.08 6.04-1.08 2.426 0 4.613.427 6.56 1.28a12.618 12.618 0 014.96 3.68l-4.16 3.84c-.96-1.093-2.027-1.907-3.2-2.44-1.174-.56-2.454-.84-3.84-.84-1.307 0-2.507.213-3.6.64a8.155 8.155 0 00-2.84 1.84c-.8.8-1.427 1.747-1.88 2.84-.427 1.093-.64 2.307-.64 3.64 0 1.333.213 2.547.64 3.64a8.652 8.652 0 001.88 2.84 8.16 8.16 0 002.84 1.84c1.093.427 2.293.64 3.6.64 1.386 0 2.666-.267 3.84-.8 1.173-.56 2.24-1.4 3.2-2.52l4.16 3.84c-1.334 1.627-2.987 2.867-4.96 3.72-1.947.853-4.147 1.28-6.6 1.28zm13.819-.48v-4.2l10.8-10.2c.853-.773 1.48-1.467 1.88-2.08.4-.613.666-1.173.8-1.68.16-.507.24-.973.24-1.4 0-1.12-.387-1.973-1.16-2.56-.747-.613-1.854-.92-3.32-.92a7.936 7.936 0 00-3.28.68c-.987.453-1.827 1.16-2.52 2.12l-4.72-3.04c1.066-1.6 2.56-2.867 4.48-3.8 1.92-.933 4.133-1.4 6.64-1.4 2.08 0 3.893.347 5.44 1.04 1.573.667 2.786 1.613 3.64 2.84.88 1.227 1.32 2.693 1.32 4.4 0 .907-.12 1.813-.36 2.72-.214.88-.667 1.813-1.36 2.8-.667.987-1.654 2.093-2.96 3.32l-8.96 8.44-1.24-2.36h15.8V50h-21.16zm35.833.48c-2.293 0-4.346-.56-6.16-1.68-1.813-1.147-3.24-2.8-4.28-4.96s-1.56-4.773-1.56-7.84.52-5.68 1.56-7.84 2.467-3.8 4.28-4.92c1.814-1.147 3.867-1.72 6.16-1.72 2.32 0 4.374.573 6.16 1.72 1.814 1.12 3.24 2.76 4.28 4.92s1.56 4.773 1.56 7.84-.52 5.68-1.56 7.84-2.466 3.813-4.28 4.96c-1.786 1.12-3.84 1.68-6.16 1.68zm0-5.48c1.094 0 2.04-.307 2.84-.92.827-.613 1.467-1.587 1.92-2.92.48-1.333.72-3.053.72-5.16s-.24-3.827-.72-5.16c-.453-1.333-1.093-2.307-1.92-2.92-.8-.613-1.746-.92-2.84-.92-1.066 0-2.013.307-2.84.92-.8.613-1.44 1.587-1.92 2.92-.453 1.333-.68 3.053-.68 5.16s.227 3.827.68 5.16c.48 1.333 1.12 2.307 1.92 2.92.827.613 1.774.92 2.84.92z" fill="#EC26CC"/><g clip-path="url(#clip0_204_5)"><path fill-rule="evenodd" clip-rule="evenodd" d="M6.346 21.243c-.058.026-.08.052-.122.133C6.096 21.63.059 34.318.03 34.395c-.028.073-.03.097-.014.157.018.065.777.797 8.436 8.138 7.055 6.76 8.428 8.069 8.483 8.084a.24.24 0 00.13 0c.056-.015 1.4-1.296 8.476-8.077 4.625-4.433 8.418-8.08 8.428-8.105a.821.821 0 01.033-.075c.017-.034.02-.092.004-.076-.006.007-.028-.029-.048-.078-.049-.115-6.116-12.858-6.184-12.987-.04-.075-.067-.105-.123-.132l-.07-.034H16.998c-10.372 0-10.583.001-10.653.033zm2.579 5.977v1.98h5.933v2.584h-.075c-.04 0-.21.008-.378.017-3.82.22-6.788.894-7.69 1.746-.207.194-.292.36-.293.563 0 .11.008.14.064.255.492 1 3.74 1.818 8.155 2.053l.217.012v8.308h4.301v-8.31l.174-.01.583-.036c4.076-.257 7.127-1.063 7.591-2.005.054-.11.058-.13.058-.28 0-.15-.005-.171-.055-.267-.304-.585-1.524-1.11-3.489-1.502-1.298-.259-2.845-.442-4.467-.529l-.395-.021V29.2h5.933v-3.961H8.925v1.98zm5.482 4.889c-3.53.203-6.154.762-6.803 1.447-.12.129-.164.219-.164.345 0 .332.436.644 1.306.935 2.66.888 8.564 1.185 13.124.661 2.62-.3 4.363-.835 4.649-1.424a.457.457 0 000-.348c-.04-.088-.21-.261-.339-.345-.803-.52-2.692-.945-5.202-1.17a60.474 60.474 0 00-1.61-.112l-.209-.011v2.889l-.055.01c-.415.073-3.512.073-4.157 0l-.089-.01V32.09l-.106.002-.345.017zM.004 34.487c0 .023.004.033.008.021a.065.065 0 000-.042c-.004-.012-.008-.002-.008.021z" fill="#fff"/></g><defs><clipPath id="clip0_204_5"><path fill="#fff" transform="translate(0 19)" d="M0 0h34v34H0z"/></clipPath></defs></svg>