<svg width="68" height="68" fill="none" xmlns="http://www.w3.org/2000/svg"><circle cx="34" cy="34" r="33.5" stroke="#fff"/><circle cx="34.234" cy="34.234" r="21.541" stroke="#fff"/><path d="M55.776 34c0 1.087-.53 2.17-1.583 3.202-1.054 1.035-2.606 1.99-4.565 2.802-3.914 1.624-9.356 2.64-15.394 2.64-6.037 0-11.48-1.016-15.394-2.64-1.958-.812-3.51-1.767-4.565-2.802-1.053-1.032-1.582-2.114-1.582-3.202s.53-2.17 1.582-3.203c1.055-1.035 2.607-1.99 4.565-2.802 3.915-1.624 9.357-2.64 15.394-2.64 6.038 0 11.48 1.016 15.394 2.64 1.959.813 3.51 1.767 4.565 2.802 1.053 1.033 1.583 2.115 1.583 3.203z" stroke="#EC26CC"/><path d="M34.469 55.307c-.539 0-1.18-.418-1.858-1.498-.664-1.055-1.28-2.614-1.804-4.586-1.047-3.936-1.7-9.401-1.7-15.457 0-6.056.653-11.521 1.7-15.457.524-1.972 1.14-3.532 1.804-4.586.679-1.08 1.32-1.499 1.858-1.499s1.18.418 1.858 1.499c.664 1.054 1.28 2.614 1.804 4.586 1.047 3.936 1.7 9.4 1.7 15.457 0 6.056-.653 11.52-1.7 15.457-.525 1.971-1.14 3.531-1.803 4.586-.68 1.08-1.32 1.498-1.859 1.498z" stroke="#EC26CC"/></svg>