<svg width="68" height="68" fill="none" xmlns="http://www.w3.org/2000/svg"><path d="M31 16.5v1H20v-1h11z" fill="#fff"/><circle cx="33" cy="17" r="3" fill="#EC26CC"/><path d="M32.5 18.5h1v13h-1v-13zm0 17h1v13h-1v-13z" fill="#EC26CC"/><path d="M31 32.5v1H20v-1h11zm16 0v1H35v-1h12z" fill="#fff"/><circle cx="33" cy="33" r="3" fill="#EC26CC"/><circle cx="49" cy="49" r="2.5" stroke="#fff"/><circle cx="49" cy="33" r="2.5" stroke="#fff"/><circle cx="18" cy="33" r="2.5" stroke="#fff"/><path d="M17.5 19h1v12h-1V19zm31 17h1v10h-1V36zm-2 12.5v1h-11v-1h11z" fill="#fff"/><circle cx="18" cy="17" r="2.5" stroke="#fff"/><circle cx="34" cy="34" r="33.5" stroke="#fff"/><circle cx="33" cy="49" r="3" fill="#EC26CC"/></svg>