<svg width="35" height="30" fill="none" xmlns="http://www.w3.org/2000/svg"><path fill-rule="evenodd" clip-rule="evenodd" d="M6.471.243c-.058.026-.08.052-.122.133C6.221.63.184 13.318.155 13.395c-.028.073-.03.097-.013.158.017.064.776.796 8.436 8.137 7.054 6.76 8.427 8.069 8.482 8.084a.239.239 0 00.131 0c.055-.015 1.4-1.296 8.475-8.077 4.626-4.433 8.418-8.08 8.428-8.105l.033-.075c.018-.034.02-.092.004-.075-.006.006-.028-.03-.048-.078C34.035 13.248 27.967.504 27.9.376c-.04-.075-.068-.105-.123-.131L27.705.21h-10.58C6.751.21 6.54.211 6.47.243zm2.58 5.977V8.2h5.932v2.584h-.074c-.041 0-.212.008-.379.018-3.82.22-6.788.893-7.69 1.745-.206.194-.292.36-.292.563 0 .11.007.14.064.255.492 1 3.74 1.818 8.154 2.053l.217.012v8.308h4.301v-8.31l.175-.01.582-.036c4.076-.257 7.128-1.063 7.591-2.005.055-.11.059-.13.058-.28 0-.15-.004-.171-.054-.267-.304-.585-1.524-1.11-3.49-1.502-1.298-.258-2.844-.442-4.466-.529l-.396-.021V8.2h5.933V4.239H9.05v1.98zm5.482 4.889c-3.53.203-6.155.762-6.803 1.447-.122.129-.165.219-.165.345 0 .332.436.645 1.307.935 2.66.887 8.563 1.185 13.124.661 2.62-.3 4.363-.835 4.648-1.424a.457.457 0 00.001-.348c-.04-.088-.21-.261-.34-.345-.802-.52-2.692-.945-5.202-1.17a59.616 59.616 0 00-1.61-.112l-.209-.011v2.889l-.055.01c-.415.073-3.511.073-4.156 0l-.09-.01V11.09l-.106.002-.344.017zM.128 13.487c0 .023.004.033.008.021a.065.065 0 000-.042c-.004-.012-.008-.002-.008.021z" fill="#fff"/></svg>