<svg width="35" height="34" fill="none" xmlns="http://www.w3.org/2000/svg"><path fill-rule="evenodd" clip-rule="evenodd" d="M12.316 9.705C9.345 15.04 6.939 19.43 6.97 19.46c.03.03 2.46 1.24 5.397 2.686l5.342 2.63.48-.22c1.377-.63 10.38-5.076 10.382-5.128C28.576 19.35 17.8 0 17.753.002c-.02.001-2.466 4.367-5.437 9.703zm2.18-1.87v1.063h2.059V6.773h-2.059v1.063zm0 4.019v1.029h2.059v-2.059h-2.059v1.03zm-5.98 9.745c1.807 2.46 9.21 12.398 9.238 12.4.02 0 .573-.723 1.228-1.608.656-.885 2.768-3.73 4.694-6.321 1.926-2.592 3.49-4.722 3.479-4.735-.013-.012-2.132 1.008-4.71 2.268l-4.685 2.29-4.689-2.288c-2.579-1.259-4.705-2.289-4.725-2.289-.02 0 .056.127.17.283z" fill="#fff"/></svg>