<svg width="197" height="44" fill="none" xmlns="http://www.w3.org/2000/svg"><path opacity=".6" fill-rule="evenodd" clip-rule="evenodd" d="M20.237.162c-1.397.301-2.318.706-4.76 2.092-.947.536-1.717.887-2.3 1.046-3.656.998-4.75 1.444-6.043 2.461-1.777 1.399-2.628 2.94-3.597 6.524-.442 1.633-.588 2.005-1.246 3.171C.652 18.364.14 19.726.022 21.477c-.142 2.134.37 3.729 2.291 7.13.653 1.155.851 1.693 1.499 4.062.78 2.857 1.823 4.55 3.565 5.793 1.25.892 2.553 1.422 5.292 2.155 1.013.27 1.605.507 2.404.96 3.537 2 4.436 2.339 6.422 2.413 2.108.08 3.473-.318 5.965-1.735 2.055-1.169 2.547-1.382 4.161-1.8 3.115-.804 4.296-1.392 5.747-2.863 1.444-1.462 2.048-2.715 2.992-6.202.371-1.372.528-1.752 1.254-3.027 1.82-3.2 2.214-4.444 2.119-6.688-.085-2.007-.438-3.01-2.09-5.944-.834-1.482-.954-1.8-1.698-4.506-.958-3.483-2.592-5.492-5.467-6.722-.432-.185-1.71-.605-2.841-.932-1.942-.563-2.154-.652-3.799-1.594-.957-.55-2.112-1.142-2.565-1.318-1.671-.647-3.502-.828-5.036-.497zm173.076 9.44c-1.363.655-1.928 2.128-1.321 3.44.477 1.03 1.664 1.692 2.745 1.529 2.04-.308 2.97-2.745 1.649-4.32-.704-.84-2.075-1.13-3.073-.65zm-34.098.227c-1.051.378-1.577 1.177-1.498 2.277.162 2.247 3.197 2.958 4.193.982.312-.62.366-1.54.125-2.122-.413-.994-1.735-1.527-2.82-1.137zm34.432.218c-1.217.574-1.583 2.128-.758 3.226.354.47 1.098.748 1.76.657 1.706-.235 2.269-2.572.878-3.64-.473-.363-1.377-.48-1.88-.243zm-.137.584c-.098.04-.137.42-.137 1.367v1.312h.329c.321 0 .328-.012.328-.55 0-.576.039-.614.465-.451.174.066.305.248.395.55.118.396.173.45.46.45.299 0 .32-.024.256-.302a2.946 2.946 0 00-.267-.651c-.191-.339-.19-.355.013-.54.393-.358.213-.939-.351-1.136-.35-.123-1.237-.152-1.491-.05zm-133.765.18l-.273.139-.028 9.603-.028 9.603 1.888-.03 1.889-.03.054-5.302.055-5.303 2.189 3.15c2.943 4.236 3.06 4.392 3.452 4.595.787.41 1.288-.067 3.414-3.25 1.383-2.07 2.556-3.674 2.972-4.064l.285-.266v3.018c0 1.66.033 4.022.073 5.248l.071 2.229h3.796V10.923l-.423-.127c-.566-.171-1.365-.162-1.796.021-.194.082-.544.367-.778.633-.234.266-1.876 2.614-3.648 5.217-1.773 2.603-3.28 4.79-3.35 4.86-.097.097-.853-.933-3.138-4.28-3.315-4.854-3.863-5.595-4.463-6.031-.734-.533-1.637-.698-2.213-.405zm83.47.038c-.041.042-.075 4.377-.075 9.634v9.558h13.571v-3.743h-9.767l.04-7.732.041-7.733-1.867-.03c-1.027-.016-1.901.004-1.943.046zm50.815.59c0 .294.036.33.332.33.408 0 .562-.295.267-.511-.356-.262-.599-.19-.599.18zM22.426 11.29c-3.495.148-8.21.913-9.238 1.5-.52.297-.665.512-.578.86.174.7 1.686.997 4.89.963 3.63-.038 4.62.003 5.512.233 1.72.442 2.717 1.226 3.788 2.979.975 1.596 1.636 2.055 3.128 2.168.801.06 2.332-.118 2.703-.316.472-.251.095-1.096-1.14-2.557-.674-.795-1.184-1.704-1.183-2.105.001-.42.167-.532.752-.511.908.032 1.245-.51.787-1.265-.659-1.086-2.523-1.694-5.864-1.91-1.573-.103-1.958-.107-3.557-.04zm64.982 4.216c-1.987.366-3.94 1.555-4.908 2.99-.996 1.475-1.362 2.679-1.35 4.444.02 3.023 1.5 5.48 4.04 6.712 1.253.608 1.996.763 3.667.764 1.335 0 1.561-.029 2.353-.306 1.292-.453 1.978-.888 2.96-1.879 1.471-1.484 2.134-3.123 2.14-5.295.008-2.483-.933-4.485-2.79-5.935-1.27-.992-2.661-1.476-4.444-1.545-.632-.025-1.383-.002-1.668.05zm16.824.092a5.28 5.28 0 00-2.069 1.308c-.599.611-.716.55-.719-.378l-.002-.578h-3.611v14.09h3.686l.067-4.21c.077-4.86.108-5.055.918-5.927.806-.866 2.151-1.21 3.339-.851.659.198 1.347.874 1.639 1.608.242.611.25.752.287 5.007l.039 4.378 1.825-.03 1.825-.03-.004-4.788c-.004-5.235-.057-5.849-.602-6.998-.581-1.227-1.912-2.221-3.505-2.62-.947-.236-2.404-.227-3.113.02zm14.229-.02c-2.964.614-5.488 3.444-5.733 6.427-.271 3.3 1.275 6.365 3.831 7.59 1.24.596 2.247.8 3.926.797 1.525-.002 2.556-.206 4.017-.794 1.046-.421 2.143-1.082 2.075-1.249-.081-.201-1.096-2.002-1.276-2.265l-.164-.24-.731.335c-1.588.725-3.707 1.108-4.914.887-1.305-.238-2.109-.803-2.579-1.814-.475-1.022-.943-.93 4.91-.962l5.169-.029.144-.605c.172-.725.107-2.18-.142-3.137-.495-1.91-1.771-3.513-3.444-4.328-1.549-.755-3.359-.973-5.089-.614zm51.067-.061c-1.626.292-2.978.996-4.129 2.15-1.982 1.986-2.599 4.813-1.692 7.75.676 2.189 2.441 3.92 4.805 4.713.725.244 1.032.282 2.262.284 1.661.004 2.404-.158 3.721-.807 2.462-1.214 4.019-3.846 4.007-6.776-.008-2.048-.699-3.715-2.147-5.176-.977-.987-1.88-1.526-3.228-1.927-.936-.278-2.661-.38-3.599-.211zm17.072.057c-.797.216-1.788.761-2.421 1.334-.288.26-.553.474-.589.474-.037 0-.066-.347-.066-.771v-.77h-3.502v14.204l1.833-.03 1.833-.03.011-3.908c.005-2.149.045-4.182.087-4.517.143-1.145.889-2.104 1.92-2.47 1.305-.463 2.796-.046 3.478.973.194.29.403.709.465.931.067.244.112 2.125.112 4.726l.001 4.32h3.701l.078-.94c.043-.518.052-2.76.02-4.982-.062-4.368-.109-4.765-.687-5.915-.589-1.17-2.191-2.343-3.67-2.686-.68-.158-1.91-.13-2.604.057zm-59.501.302c-.035.09.019.325.12.521.101.197.32.684.487 1.084.166.4.732 1.692 1.256 2.872 2.526 5.685 3.891 8.864 3.955 9.208.188 1.006-.656 2.225-1.847 2.666-.746.276-1.711.306-2.367.072-.35-.124-.467-.13-.5-.027-.048.152-.604 2.805-.604 2.885 0 .102.94.533 1.478.677 1.111.299 2.638.127 3.696-.416.671-.345 1.883-1.57 2.434-2.46.263-.425.698-1.292.967-1.928.468-1.104 2.776-7.12 4.867-12.685l.982-2.615h-1.825c-2.013 0-2.156.04-2.494.695-.1.193-.537 1.44-.972 2.773a236.299 236.299 0 01-1.367 4.059l-.577 1.638-.642-1.638c-1.647-4.197-2.867-7.09-3.067-7.272-.19-.173-.468-.205-2.068-.236-1.563-.031-1.859-.012-1.912.127zm31.034 7.12v7.044h3.612V15.952h-3.612v7.044zm-137.458-5.38c-1.648.088-3.46.372-4.233.663-1.027.386-1.669 1.416-1.531 2.458.08.61.538.972 1.59 1.255 2.89.779 5.558.529 7.365-.69.37-.25.772-.59.896-.756l.224-.303-.24-.75c-.28-.873-.846-1.605-1.364-1.764-.54-.166-1.21-.194-2.707-.113zm98.293 1.102c-.829.24-1.713 1.027-2.086 1.856-.426.947-.666.88 3.166.88 2.739 0 3.392-.028 3.392-.145 0-.08-.082-.39-.183-.687-.247-.728-1.111-1.597-1.835-1.845-.59-.203-1.852-.232-2.454-.058zm-31.615.438c-.77.297-1.693 1.163-2.076 1.947-.276.565-.305.74-.305 1.784 0 1.085.022 1.205.356 1.887.415.849 1.009 1.43 1.874 1.839.523.246.762.29 1.6.288.861-.002 1.058-.04 1.563-.307 1.197-.63 1.968-1.678 2.203-2.993.328-1.841-.76-3.812-2.457-4.45-.801-.302-1.97-.3-2.758.005zm82.315-.084c-1.913.63-3.036 2.756-2.521 4.776.333 1.31.985 2.177 2.063 2.747.508.268.7.306 1.564.307.857 0 1.074-.04 1.673-.319.864-.4 1.662-1.25 2.005-2.13.188-.482.249-.869.254-1.625.007-.908-.023-1.056-.352-1.728a3.991 3.991 0 00-1.86-1.855c-.639-.308-2.136-.4-2.826-.173zM33.367 22.12c-.17.183-.393.585-.495.893-.25.76-.18 2.173.14 2.791.24.462.786 1.071 1.212 1.353.23.152.279.147.547-.05.451-.333.678-.88.676-1.633-.002-1.265-.49-2.735-1.116-3.364-.406-.408-.578-.406-.964.01zm-8.324.665c-1.489.73-2.116 1.14-2.271 1.483-.07.155-.127.715-.127 1.247 0 1.206.098 1.32 1.477 1.7 1.76.485 2.04.53 2.628.416.683-.131 2.835-1.272 3.064-1.624.186-.285.219-.59.185-1.725-.03-1-.26-1.236-1.665-1.707-1.496-.501-1.891-.476-3.291.21zm4.872 5.476c-1.661.956-1.844 1.217-2.255 3.219-.175.851-.044 1.03 1.236 1.688.797.41 1.091.51 1.349.458.512-.103 2.35-1.172 2.585-1.503.413-.584.693-2.764.44-3.433-.056-.147-.358-.472-.672-.723-.824-.66-1.07-.633-2.683.294z" fill="#fff"/></svg>