<svg width="25" height="24" fill="none" xmlns="http://www.w3.org/2000/svg"><g clip-path="url(#clip0_544_514)"><path fill-rule="evenodd" clip-rule="evenodd" d="M11.472.033c-.97.075-2.27.354-3.164.678a13.233 13.233 0 00-3.422 1.915c-.785.626-1.734 1.638-2.328 2.483a11.948 11.948 0 00-.84 12.4c.59 1.142 1.212 1.986 2.18 2.955.97.969 1.814 1.592 2.956 2.18 4.204 2.17 9.141 1.704 12.915-1.215.55-.426 1.64-1.529 2.069-2.093 1.06-1.396 1.726-2.76 2.15-4.404.145-.564.328-1.717.328-2.067 0-.115.021-.209.047-.209.029 0 .047-.235.047-.612 0-.396-.017-.602-.047-.583-.03.018-.047-.083-.047-.27 0-.55-.173-1.588-.401-2.402a12.205 12.205 0 00-4.075-6.162c-.916-.731-2.285-1.503-3.375-1.903-1.512-.555-3.396-.815-4.993-.691zm-.058.999a11.205 11.205 0 00-5.004 1.72l-.492.318.309.024c.17.013.339.047.375.076a.66.66 0 00.23.086c.283.056.322.075.352.168.025.08.073.092.377.092.192 0 .349-.012.349-.027a.453.453 0 00-.049-.117c-.04-.076-.1-.09-.359-.09-.29 0-.305-.006-.24-.083.135-.16.057-.24-.25-.255L6.73 2.93l.303-.223c.289-.212.32-.223.608-.223.304 0 .305 0 .477.211.16.195.19.211.39.211.18 0 .244-.025.367-.145.131-.127.163-.138.254-.089.103.055.102.058-.099.262-.19.193-.219.207-.453.207h-.251l.015.175.014.176.344.014c.305.012.346.004.367-.076.018-.068.08-.096.26-.118.276-.032.258-.021.278-.171.014-.099-.004-.12-.114-.133-.11-.012-.127-.03-.101-.117a.373.373 0 01.105-.16c.086-.069.787-.082.827-.016.015.023-.054.107-.153.185-.155.122-.177.163-.159.289.023.157.033.163.304.208l.176.03-.03-.257-.03-.256.229-.116c.142-.072.357-.128.57-.149.339-.034.35-.031.856.19l.513.224v.2c0 .182.012.2.14.23.157.033.166.058.087.231-.048.106-.082.12-.297.12-.242 0-.243 0-.305.19-.035.103-.086.18-.113.17-.028-.011-.26-.068-.515-.127-.526-.122-.525-.12-.005-.383.352-.178.337-.16.231-.276-.148-.164-.222-.18-.584-.13-.294.04-.374.072-.524.208-.119.107-.224.16-.318.16-.15 0-.2.12-.07.17.112.044.082.097-.07.128-.078.015-.141.058-.141.094 0 .037-.06.075-.137.086-.124.019-.14.005-.166-.135-.016-.085-.046-.155-.066-.155-.117 0-.543.185-.892.388-.55.319-.54.308-.47.544.073.243.25.358.618.402l.27.032v.301c0 .292.003.301.119.301.1 0 .138-.042.233-.255.11-.248.121-.258.407-.346l.295-.09.013-.38c.014-.37.018-.383.173-.5.17-.131.115-.133.722.025l.205.053-.031.231-.03.231h.143c.08 0 .248-.052.375-.117.127-.064.243-.117.256-.117.014 0 .025.138.025.306v.306l.211.127c.197.119.211.14.211.325 0 .19-.007.2-.187.254-.265.08-.248.191.047.318.206.089.234.118.234.24 0 .171-.06.177-.46.041-.25-.084-.29-.114-.29-.212 0-.063.032-.126.07-.141.098-.038.093-.252-.006-.252-.043 0-.1.032-.13.072-.061.085-.543.155-.543.079 0-.093-.147-.197-.276-.197-.155 0-.24.077-.24.217 0 .085.036.112.184.143l.184.038-.088.108c-.084.103-.093.104-.206.03-.116-.076-.123-.073-.378.144-.142.122-.258.249-.258.282 0 .033-.153.144-.34.247-.405.223-1.02.825-1.02 1-.002.16-.04.203-.377.418-.166.107-.382.27-.478.363-.172.165-.176.177-.176.511 0 .188-.012.342-.025.342-.014 0-.108-.042-.209-.093-.164-.084-.184-.114-.197-.293l-.014-.2-.62-.013-.62-.013-.367.185c-.34.17-.38.207-.513.459-.23.432-.272.648-.172.87.092.205.21.27.492.27.146 0 .261-.05.532-.233a3.18 3.18 0 01.404-.246c.132-.03.126.217-.011.463l-.135.242.325.054.324.055.034.486c.022.33.052.493.093.51.034.012.233.049.444.08l.382.06.196-.23c.108-.125.229-.269.27-.319.068-.084.093-.086.412-.03.313.057.35.076.466.243.108.155.145.177.26.156a2.11 2.11 0 01.314-.025c.136 0 .185-.022.208-.092.028-.088.035-.089.195-.013.113.054.233.183.372.397l.205.317h.69l.121.223c.07.128.135.343.153.507l.032.284.405.15c.354.13.464.15.863.149h.457l.143.23c.11.181.185.246.339.299.19.064.197.073.182.246-.01.131-.08.264-.262.498l-.249.32-.061.655-.062.655-.19.154c-.168.135-.234.156-.541.177-.338.023-.352.029-.442.183-.09.152-.09.173-.02.511l.074.353-.318.403a7.36 7.36 0 00-.455.637c-.115.196-.188.258-.462.39a2.37 2.37 0 01-.536.189c-.168.024-.214.05-.225.13-.011.08.016.108.129.133.19.042.19.195.002.376l-.14.134.102.109a.348.348 0 00.24.108c.132 0 .136.006.109.176-.093.577-.102.534.153.732.195.151.227.197.196.28-.032.087-.08.103-.346.115l-.31.014-.34-.297a2.608 2.608 0 01-.589-.717l-.248-.42.028-.46.028-.459-.193-.255-.193-.256.072-.38c.093-.491.093-.495-.045-.53l-.117-.029v-1.908l-.34-.234c-.187-.128-.403-.248-.48-.267-.159-.038-.21-.098-.21-.246-.001-.058-.187-.334-.425-.633-.424-.53-.424-.53-.392-.741.018-.116.045-.348.06-.515l.029-.304.273-.188.273-.188-.033-.328c-.018-.181-.056-.345-.085-.363-.03-.02-.161-.035-.293-.036-.445 0-.506-.031-.848-.425l-.318-.368-.375-.089c-.362-.085-.375-.094-.375-.224 0-.12-.02-.138-.176-.163-.13-.021-.176-.013-.176.034 0 .085-.095.078-.572-.044l-.407-.104-.19-.295c-.188-.29-.19-.297-.116-.44l.075-.145-.304-.45c-.193-.287-.315-.52-.334-.639-.069-.428-.076-.445-.195-.445-.087 0-.113.024-.11.105.008.31.09.568.27.844.18.275.247.515.16.566a.472.472 0 01-.186-.002c-.13-.02-.18-.073-.363-.386-.212-.36-.212-.364-.212-.807v-.445l-.235-.11-.234-.11-.004-.308c-.004-.3-.005-.305-.069-.167-.159.342-.488 1.46-.601 2.039a10.478 10.478 0 00-.167 3.093c.403 4.358 3.379 8.103 7.52 9.465 2.764.908 5.634.714 8.25-.559 1.217-.592 2.175-1.298 3.186-2.347l.56-.582-.197-.014-.197-.015-.001-.384c-.001-.381-.003-.386-.211-.662l-.21-.277v-.429c0-.413-.005-.433-.139-.561a.557.557 0 01-.168-.333c-.027-.177-.006-.244.182-.59l.213-.391-.39-.686-.391-.686.04-.346c.073-.628.093-.585-.291-.617-.273-.023-.358-.05-.46-.148-.165-.158-.595-.173-.729-.025-.073.08-.144.094-.522.094-.261 0-.439.019-.439.046 0 .026-.103.047-.23.047h-.232l-.518-.592-.52-.593v-.466c0-.399.013-.478.09-.544a.464.464 0 00.115-.23c.026-.143.02-.153-.107-.153-.116 0-.138-.022-.165-.165-.017-.09-.018-.184-.003-.21.015-.024.28-.225.588-.446l.56-.403v-.629l.293-.16c.27-.15.319-.16.652-.15.303.011.394-.005.586-.102.182-.092.332-.121.743-.147.284-.018.553-.043.598-.055.072-.02.082.015.082.302v.326l.514.128c.282.07.538.157.568.193.03.036.104.065.166.065.095 0 .111-.023.111-.159 0-.185.053-.216.37-.216.187 0 .264.03.474.188l.251.187h.46c.363 0 .46-.014.46-.065 0-.036-.065-.247-.146-.47l-.147-.402h-.294c-.277 0-.301-.01-.439-.166-.114-.13-.145-.209-.145-.367 0-.25-.026-.278-.186-.195-.1.052-.144.13-.211.377l-.084.311-.2-.196c-.169-.166-.205-.234-.23-.44-.029-.226-.053-.265-.307-.488-.254-.223-.295-.243-.51-.243h-.235l.071.21c.062.182.11.23.37.376.31.173.406.263.311.294-.03.01-.055.099-.055.197 0 .152-.02.186-.137.234a.419.419 0 01-.413-.056c-.106-.085-.063-.13.123-.13.128 0 .192-.023.213-.078.016-.043.012-.09-.01-.105-.61-.407-.805-.56-.828-.649-.036-.138-.076-.133-.235.034-.118.123-.155.135-.33.111l-.196-.026-.289.383c-.158.21-.288.414-.288.452 0 .037-.055.089-.12.114-.196.074-.748.055-.93-.032-.15-.072-.166-.099-.203-.363-.034-.24-.008-.497.06-.582a1.88 1.88 0 01.262-.073 1.06 1.06 0 01.532 0c.155.03.287.051.293.045a.887.887 0 00.04-.158c.026-.13.016-.15-.094-.177-.085-.022-.118-.056-.104-.108a3.52 3.52 0 00.05-.247c.028-.168.03-.17.306-.2.276-.032.278-.033.489-.328.19-.266.231-.3.405-.323.107-.014.31-.014.45 0l.256.027-.032-.253a2.287 2.287 0 00-.043-.266.951.951 0 00-.227.08l-.216.093-.092-.209c-.074-.166-.117-.208-.209-.208-.091 0-.123-.031-.147-.144-.042-.19.059-.301.43-.469.277-.125.444-.296.36-.369a11.273 11.273 0 00-5.667-2.605c-.572-.088-1.9-.125-2.517-.07zM6.13 3.609c0 .026-.053.047-.118.047-.093 0-.117.024-.117.117 0 .112.014.118.265.118.276 0 .387-.07.39-.246.001-.067-.04-.083-.21-.083-.116 0-.21.022-.21.047zm-.012.62c-.1.026-.176.075-.176.114 0 .053.062.065.293.054.263-.013.295-.025.308-.12.013-.089-.006-.104-.117-.1a1.731 1.731 0 00-.308.051zm14.263.494l-.002.246-.234.129c-.347.19-.3.266.172.283.375.013.383.011.48-.125a.58.58 0 00.097-.177c0-.022-.116-.167-.256-.321l-.255-.281-.002.246zm-2.8.012a.271.271 0 00-.137.17c-.026.104-.008.146.104.236a.97.97 0 00.218.136c.094.03.115.254.024.255-.112.001-.168.07-.202.253l-.034.182.382-.026c.326-.022.396-.042.474-.136.118-.142.118-.143-.043-.235a.896.896 0 01-.251-.257c-.112-.178-.138-.244-.194-.497-.03-.137-.138-.163-.342-.08zm-.427.461c-.063.018-.16.122-.23.246-.223.391-.025.491.397.2.178-.123.246-.2.246-.279 0-.17-.166-.237-.413-.167zM7 5.404c-.08.058-.08.069-.001.234.071.149.099.168.203.144.162-.038.179-.058.216-.262l.032-.176h-.183a.556.556 0 00-.267.06zm-4.066.924c-.282.487-.288.536-.023.19.097-.129.17-.27.161-.317-.011-.06-.05-.025-.138.127zm4.805-.116c-.358.157-.184.304.36.304.316 0 .325-.004.325-.118 0-.064-.02-.117-.046-.117s-.047-.031-.047-.07c0-.091-.383-.09-.592.001zm.826.182c0 .09.019.108.096.088.09-.024.09-.03.016-.113-.102-.113-.112-.11-.112.025zm2.842.192c-.017.044-.088.07-.195.07-.132 0-.166.017-.154.077a.223.223 0 00.09.124c.1.063.323.003.323-.086 0-.038.053-.09.117-.115.065-.024.118-.066.118-.092 0-.077-.268-.057-.299.022zm-2.4.027c-.05.083.052.153.147.1.076-.042.075-.05-.016-.098-.07-.038-.107-.038-.13-.002zm-1.344.125c-.153.161-.215.38-.124.438.119.075.164.045.384-.262l.22-.305h-.179a.36.36 0 00-.301.13zm.715.035c0 .126.019.165.083.165.126 0 .292-.135.292-.238 0-.075-.034-.09-.188-.09-.183 0-.187.003-.187.163zm2.305-.06c-.1.1-.066.224.062.224.083 0 .117-.025.117-.088 0-.124-.108-.206-.18-.135zm-1.837.22c0 .187.052.239.24.239.16 0 .182-.014.182-.11 0-.087-.038-.121-.181-.164-.236-.07-.24-.07-.24.036zm-.492.182a2.56 2.56 0 01-.146.08.581.581 0 00-.039.106c-.03.097-.017.105.151.105.205 0 .339-.108.339-.273 0-.125-.109-.131-.305-.018zm13.758.174c0 .255.001.258.14.258.078 0 .141-.02.141-.046 0-.077-.204-.47-.244-.47-.02 0-.037.116-.037.258zM.38 12.094c0 .348.008.49.017.316a7.421 7.421 0 000-.633c-.01-.174-.017-.031-.017.317z" fill="#EC26CC"/></g><defs><clipPath id="clip0_544_514"><path fill="#fff" transform="translate(.363)" d="M0 0h24v24H0z"/></clipPath></defs></svg>