<svg width="234" height="66" fill="none" xmlns="http://www.w3.org/2000/svg"><circle cx="33" cy="33" r="32.5" fill="#0B1020" stroke="#BDBDBD"/><path d="M26.185 44.089c-1.883.006-3.772.012-5.655.006-.509 0-.836-.448-.751-.969.315-2.004.611-4.008.926-6.006.285-1.798.594-3.596.878-5.4.206-1.302.388-2.604.594-3.906.302-1.92.617-3.839.926-5.758.176-1.102.34-2.204.509-3.306.109-.72.678-1.21 1.416-1.21 3.185 0 6.376-.025 9.56.011 1.738.018 3.464.236 5.044 1.042 1.641.823 2.64 2.161 2.967 3.978.152.847.097 1.695-.066 2.543a8.11 8.11 0 00-2.132-.715c-.92-.181-1.865-.23-2.803-.242a400.99 400.99 0 00-7.108 0c-.503.006-.95.212-1.15.727-.091.236-.122.502-.158.762-.164.993-.321 1.992-.478 2.991-.122.77-.255 1.538-.37 2.307-.145.975-.272 1.956-.46 2.925-.06.32-.194.648-.097.993a4.181 4.181 0 00-.175.666c-.17 1.12-.346 2.24-.521 3.36-.212 1.356-.412 2.718-.642 4.075-.073.375-.048.775-.254 1.126z" fill="#fff"/><path d="M26.185 44.09c.206-.346.182-.752.242-1.127.23-1.356.43-2.712.642-4.075.176-1.12.351-2.24.52-3.36a4.14 4.14 0 01.176-.666c.327-.509.781-.733 1.399-.727 1.544 0 3.088.08 4.626-.115 1.374-.17 2.688-.52 3.911-1.174 1.883-1.011 3.167-2.555 3.972-4.511.381-.933.684-1.895.811-2.9.012-.024.018-.049.03-.067l.037-.181c1.44.762 2.21 1.985 2.416 3.584.17 1.314-.03 2.591-.358 3.863a9.45 9.45 0 01-1.229 2.833c-.926 1.43-2.216 2.422-3.82 2.991-.836.297-1.696.467-2.573.57-.733.084-1.466.084-2.198.09-.739 0-1.211.406-1.314 1.133-.224 1.531-.448 3.063-.715 4.595-.09.52-.163 1.048-.254 1.562-.115.63-.563 1.005-1.199 1.005h-4.631c-.588 0-.872-.339-.775-.908.114-.702.23-1.399.345-2.1.018-.116.048-.231-.061-.316z" fill="#D7BCC4"/><path opacity=".5" d="M42.557 25.174l-.036.182c-.012.024-.018.048-.03.066-.128 1.005-.43 1.968-.812 2.9-.805 1.956-2.089 3.5-3.972 4.511-1.223.654-2.543 1.005-3.911 1.175-1.538.188-3.082.115-4.626.115-.617 0-1.072.218-1.398.727-.097-.34.036-.672.096-.993.182-.97.315-1.95.46-2.925.116-.769.249-1.538.37-2.307.157-.999.315-1.992.478-2.99.043-.255.067-.521.158-.764.2-.514.648-.726 1.15-.726a400.99 400.99 0 017.108 0c.939.012 1.877.06 2.804.242.738.145 1.459.37 2.13.715.013.036.025.054.031.072z" fill="#D7BCC4"/><circle cx="89" cy="33" r="32.5" fill="#0B1020" stroke="#BDBDBD"/><path d="M101.093 26.396v4.505c-.242 0-.532.048-.823.048-2.18 0-4.214-.823-5.764-2.13v9.59c0 1.937-.63 3.778-1.744 5.231a8.643 8.643 0 01-6.927 3.487 8.61 8.61 0 01-7.313-4.068c1.55 1.453 3.632 2.373 5.909 2.373a8.486 8.486 0 006.878-3.487c1.066-1.453 1.744-3.246 1.744-5.231v-9.64c1.55 1.357 3.536 2.132 5.764 2.132.29 0 .533 0 .823-.049v-2.906c.436.097.824.145 1.26.145h.193z" fill="#D7BCC4"/><path d="M87.046 29.739v4.989a4.038 4.038 0 00-1.065-.145c-2.131 0-3.875 1.792-3.875 3.971 0 .485.097.92.242 1.357-.969-.727-1.647-1.89-1.647-3.197 0-2.18 1.744-3.972 3.875-3.972.388 0 .727.048 1.066.145V29.69h.29c.388 0 .775 0 1.114.049zm8.186-6.927c-.872-.775-1.501-1.84-1.84-2.955h1.162v.678c.097.776.34 1.55.678 2.277z" fill="#D7BCC4"/><path d="M99.69 26.3v2.906c-.243.048-.534.048-.824.048-2.18 0-4.214-.823-5.764-2.131v9.59c0 1.938-.63 3.779-1.744 5.232-1.598 2.131-4.069 3.487-6.878 3.487-2.277 0-4.36-.92-5.91-2.373-.823-1.356-1.307-2.906-1.307-4.602 0-4.698 3.73-8.525 8.38-8.67v3.197a4.034 4.034 0 00-1.066-.145c-2.132 0-3.875 1.792-3.875 3.971 0 1.308.63 2.52 1.647 3.197.532 1.502 1.986 2.616 3.632 2.616 2.132 0 3.875-1.792 3.875-3.972V19.857h3.536c.34 1.163.97 2.18 1.841 2.955a6.644 6.644 0 004.456 3.488z" fill="#fff"/><path opacity=".5" d="M85.642 28.044v1.647c-4.65.145-8.38 3.972-8.38 8.67 0 1.696.485 3.246 1.308 4.602a8.768 8.768 0 01-2.664-6.345c0-4.796 3.875-8.67 8.622-8.67.388 0 .775.048 1.114.096z" fill="#FF61E6"/><path opacity=".5" d="M93.392 19.858h-3.536v18.697c0 2.18-1.743 3.972-3.875 3.972-1.695 0-3.1-1.066-3.632-2.616.63.436 1.404.727 2.228.727 2.131 0 3.875-1.744 3.875-3.924V17.97h4.698v.097c0 .193 0 .387.049.58 0 .388.097.824.193 1.212zm6.298 4.65v1.744c-1.938-.388-3.585-1.696-4.505-3.44 1.21 1.115 2.76 1.744 4.504 1.696z" fill="#FF61E6"/><circle cx="145" cy="33" r="32.5" fill="#0B1020" stroke="#BDBDBD"/><path d="M151.456 29.527c0 1.011.037 2.016-.012 3.027-.048 1.15.303 2.138 1.03 3.01.084.102.163.205.236.314.26.394.212.666-.146.97-.763.64-1.519 1.289-2.282 1.93-.454.382-.739.376-1.199 0-.618-.502-1.102-1.12-1.532-1.78-.103-.157-.157-.15-.284-.03-.763.745-1.569 1.435-2.592 1.78-1.58.54-3.185.624-4.771.06-1.526-.544-2.44-1.67-2.779-3.238-.375-1.75-.182-3.415.896-4.899.817-1.12 1.95-1.78 3.251-2.185 1.345-.412 2.731-.57 4.124-.709.393-.042.781-.079 1.174-.115.097-.006.182-.018.176-.145-.012-.642.054-1.296-.097-1.925-.194-.806-.721-1.278-1.526-1.454a3.128 3.128 0 00-1.701.097c-.848.29-1.375.878-1.587 1.75-.115.478-.339.648-.805.6-.993-.104-1.986-.206-2.973-.31-.405-.042-.617-.35-.532-.744.514-2.513 2.161-3.923 4.535-4.571 1.822-.497 3.669-.527 5.497-.012 1.471.411 2.707 1.138 3.397 2.579.393.817.484 1.701.496 2.585.012 1.132 0 2.277.006 3.415zm-4.71 1.89c0-.304-.012-.606.006-.91.012-.187-.055-.253-.242-.235-.46.042-.927.048-1.387.109-.805.103-1.592.302-2.246.811-.951.745-1.151 1.762-.993 2.906.188 1.344 1.386 2.09 2.67 1.641.872-.303 1.405-.944 1.774-1.75.388-.817.418-1.695.418-2.573z" fill="#fff"/><path d="M144.506 45.082c-4.62-.03-8.767-1.217-12.515-3.718a20.014 20.014 0 01-2.18-1.677 1.166 1.166 0 01-.17-.176c-.066-.09-.115-.2-.036-.309.079-.12.212-.133.327-.078.266.127.521.266.781.4a29.57 29.57 0 007.532 2.742c2.386.52 4.795.763 7.242.696a29.031 29.031 0 0010.099-2.1c.157-.067.321-.134.484-.17.23-.042.46-.012.563.236.097.23-.03.412-.2.557-.121.103-.26.188-.399.279-2.089 1.356-4.378 2.228-6.8 2.767a22.379 22.379 0 01-4.728.55z" fill="#F6A61F"/><path d="M156.161 39.687c-.697-.006-1.387.084-2.077.157-.133.012-.285.048-.345-.097-.073-.163.066-.26.181-.339.86-.569 1.823-.793 2.834-.848.696-.042 1.387-.012 2.065.194.309.091.46.273.454.588-.037 1.683-.6 3.148-1.817 4.34a1.11 1.11 0 01-.139.116c-.109.078-.242.151-.357.054-.109-.09-.049-.224 0-.333.357-.89.72-1.774.896-2.724.024-.121.03-.242.036-.358.006-.393-.133-.563-.52-.66-.406-.108-.812-.09-1.211-.09z" fill="#F6A61F"/><circle cx="201" cy="33" r="32.5" fill="#0B1020" stroke="#BDBDBD"/><path d="M201.561 36.01l-12.293-7.824a2.905 2.905 0 013.12-4.903l9.019 5.74 8.098-5.67a2.906 2.906 0 013.333 4.762l-11.277 7.895z" fill="#fff"/><path d="M212.141 43.173h-3.875V25.735a2.906 2.906 0 115.812 0v15.5a1.939 1.939 0 01-1.937 1.938z" fill="#BDBDBD"/><path d="M214.036 25.314c-.008-.059-.008-.118-.02-.176-.018-.089-.053-.171-.08-.257a2.687 2.687 0 00-.092-.29c-.02-.046-.05-.086-.072-.131-.06-.13-.13-.254-.208-.373-.039-.056-.087-.104-.13-.157a3.008 3.008 0 00-.238-.276c-.065-.063-.138-.115-.208-.172a2.745 2.745 0 00-.233-.18c-.076-.05-.16-.088-.242-.131-.085-.045-.169-.093-.258-.13-.086-.034-.178-.056-.268-.082-.09-.027-.18-.058-.272-.076a2.96 2.96 0 00-.346-.034c-.074-.006-.146-.018-.22-.018a2.892 2.892 0 00-.409.041c-.055.008-.109.008-.164.019a32.6 32.6 0 00-.546.172c-.05.022-.094.053-.142.077a2.812 2.812 0 00-1.622 2.594v5.582l4.573-3.2a2.793 2.793 0 001.197-2.802z" fill="#747474"/><path d="M190.828 22.828a2.906 2.906 0 012.906 2.906v17.438h-3.875a1.94 1.94 0 01-1.937-1.938v-15.5a2.906 2.906 0 012.906-2.906z" fill="#9BA6B8"/><path d="M187.964 25.313c.009-.058.008-.117.02-.175.019-.09.053-.171.08-.257.025-.099.056-.195.093-.29.019-.046.049-.087.071-.131.06-.13.13-.254.208-.373.039-.056.088-.104.13-.157.074-.097.153-.19.238-.276.065-.063.138-.116.208-.172.075-.064.152-.124.233-.18.077-.05.161-.089.242-.131.084-.048.17-.091.259-.13.086-.035.178-.057.268-.083.089-.027.179-.058.271-.076.115-.018.23-.03.346-.035.074-.005.147-.018.22-.017.138.004.274.018.409.041.055.008.11.008.164.019.094.024.186.053.277.086.091.024.181.053.27.086.05.022.093.053.142.077.125.06.246.127.362.204a2.898 2.898 0 011.259 2.391v5.582l-4.573-3.2a2.807 2.807 0 01-1.197-2.802z" fill="#A8B8C5"/></svg>