<svg width="810" height="572" fill="none" xmlns="http://www.w3.org/2000/svg"><g opacity=".2"><path fill="url(#paint0_linear_35_329)" d="M0 296h748v1H0z"/><path fill="url(#paint1_linear_35_329)" d="M375 179h373v1H375z"/><path fill="url(#paint2_linear_35_329)" d="M375 59h373v1H375z"/><path fill="url(#paint3_linear_35_329)" d="M0 418h748v1H0z"/><path fill="url(#paint4_linear_35_329)" d="M428 535h443v1H428z"/><path opacity=".1" fill="#D9D9D9" d="M403 0h1v396h-1z"/><path fill="url(#paint5_linear_35_329)" d="M525 0h1v572h-1z"/><path fill="url(#paint6_linear_35_329)" d="M643 0h1v572h-1z"/></g><defs><linearGradient id="paint0_linear_35_329" x1="162.5" y1="296.012" x2="715" y2="296.012" gradientUnits="userSpaceOnUse"><stop stop-color="#EC26CC"/><stop offset=".5" stop-color="#D9D9D9" stop-opacity=".442"/><stop offset="1" stop-color="#EC26CC"/></linearGradient><linearGradient id="paint1_linear_35_329" x1="695" y1="179.001" x2="553" y2="179" gradientUnits="userSpaceOnUse"><stop stop-color="#EC26CC"/><stop offset="1" stop-color="#D9D9D9" stop-opacity="0"/></linearGradient><linearGradient id="paint2_linear_35_329" x1="730" y1="59.999" x2="586" y2="59.999" gradientUnits="userSpaceOnUse"><stop stop-color="#EC26CC"/><stop offset="1" stop-color="#D9D9D9" stop-opacity="0"/></linearGradient><linearGradient id="paint3_linear_35_329" x1="162.5" y1="418.012" x2="715" y2="418.012" gradientUnits="userSpaceOnUse"><stop stop-color="#EC26CC"/><stop offset=".5" stop-color="#D9D9D9" stop-opacity=".442"/><stop offset="1" stop-color="#EC26CC"/></linearGradient><linearGradient id="paint4_linear_35_329" x1="768" y1="534.998" x2="564" y2="535.998" gradientUnits="userSpaceOnUse"><stop stop-color="#EC26CC"/><stop offset="1" stop-color="#D9D9D9" stop-opacity="0"/></linearGradient><linearGradient id="paint5_linear_35_329" x1="525" y1="442.5" x2="525" y2="96" gradientUnits="userSpaceOnUse"><stop stop-color="#EC26CC"/><stop offset="1" stop-color="#D9D9D9" stop-opacity="0"/></linearGradient><linearGradient id="paint6_linear_35_329" x1="643.5" y1="187.5" x2="643.5" y2="572" gradientUnits="userSpaceOnUse"><stop stop-color="#D9D9D9" stop-opacity="0"/><stop offset="1" stop-color="#EC26CC"/></linearGradient></defs></svg>