<svg width="26" height="26" fill="none" xmlns="http://www.w3.org/2000/svg"><path fill-rule="evenodd" clip-rule="evenodd" d="M9.546 2.264a8.684 8.684 0 00-7.29 7.384c-.114.784-.077 2.14.079 2.87.5 2.35 1.803 4.27 3.784 5.574 2.139 1.408 4.857 1.776 7.338.993.644-.203 1.702-.723 2.234-1.098l.432-.304 3.021 3.01c3.292 3.28 3.144 3.154 3.708 3.113a.998.998 0 00.954-.954c.04-.564.165-.416-3.114-3.707l-3.01-3.022.305-.432c.374-.532.894-1.59 1.098-2.234.923-2.924.258-6.048-1.786-8.379-1.198-1.368-2.938-2.364-4.798-2.75-.67-.138-2.267-.173-2.955-.064zm.59 2.103c-2.102.264-3.887 1.428-4.918 3.208a6.45 6.45 0 00.41 7.135 6.544 6.544 0 004.168 2.532c1.036.173 2.388.039 3.356-.334 1.67-.642 3.073-2.037 3.737-3.713.389-.981.53-2.34.353-3.398a6.323 6.323 0 00-1.743-3.457c-.967-1-2.141-1.643-3.458-1.892-.51-.097-1.457-.137-1.905-.081z" fill="#EC26CC"/></svg>