<svg width="268" height="269" fill="none" xmlns="http://www.w3.org/2000/svg"><path fill="#0B1020" d="M0 .016h268v268H0z"/><path fill-rule="evenodd" clip-rule="evenodd" d="M2.8 7.372c-.398 2.406-.729 12.375-.736 22.154l-.013 17.782h45.474V3H3.523L2.8 7.372zm50.797 4.664l.34 9.037 5.54.355c5.476.351 5.538.315 5.538-3.206 0-3.047-.433-3.562-2.992-3.562-2.577 0-2.942-.446-2.623-3.207.263-2.295 1.113-3.312 2.991-3.58 1.686-.238 2.624-1.176 2.624-2.623 0-1.926-.848-2.25-5.88-2.25h-5.878l.34 9.036zm18.414-6.781c0 1.593.94 2.362 3.206 2.624 2.519.289 3.286 1.056 3.575 3.574.332 2.882.007 3.207-3.206 3.207-3.556 0-3.575.034-3.575 6.413 0 6.063-.159 6.413-2.915 6.413-2.881 0-2.915.116-2.915 9.91v9.912h-3.498c-3.463 0-3.498-.066-3.498-6.413 0-6.063-.159-6.413-2.915-6.413h-2.915v24.486h2.915c2.137 0 2.915-.622 2.915-2.332 0-2.05.778-2.332 6.413-2.332h6.413V34.482h6.996V24.57c0-9.722.053-9.911 2.838-9.911 2.228 0 2.916.688 3.206 3.206.365 3.178.456 3.21 9.988 3.545 9.349.33 9.62.42 9.62 3.206 0 2.282-.596 2.869-2.915 2.869-2.462 0-2.915.544-2.915 3.498 0 3.11-.389 3.498-3.498 3.498-3.463 0-3.498.065-3.498 6.413 0 6.347-.035 6.413-3.498 6.413-2.954 0-3.498-.454-3.498-2.915 0-2.332-.583-2.915-2.915-2.915-2.757 0-2.915.35-2.915 6.413 0 6.063.158 6.413 2.915 6.413 2.111 0 2.915.626 2.915 2.271 0 1.917-.953 2.326-6.122 2.623-5.71.33-6.146.568-6.49 3.56-.368 3.196-.395 3.206-9.62 3.206h-9.25v3.498c0 2.953-.454 3.498-2.915 3.498s-2.915-.545-2.915-3.498c0-3.11-.388-3.498-3.498-3.498-3.11 0-3.498-.389-3.498-3.498 0-3.11.388-3.498 3.498-3.498 2.72 0 3.498-.518 3.498-2.332 0-1.815-.778-2.332-3.498-2.332s-3.498.517-3.498 2.332c0 1.71-.778 2.332-2.915 2.332-2.461 0-2.915.544-2.915 3.498 0 2.927.462 3.498 2.838 3.498 2.228 0 2.916.688 3.207 3.206.289 2.519 1.056 3.286 3.575 3.575 2.518.29 3.206.978 3.206 3.206 0 2.66-.4 2.839-6.355 2.839h-6.354l-.35 6.704c-.331 6.346-.521 6.724-3.556 7.073-2.491.287-3.207.985-3.207 3.13 0 2.144.716 2.842 3.207 3.129 2.518.289 3.285 1.056 3.574 3.575.29 2.518.979 3.206 3.207 3.206 2.06 0 2.838.639 2.838 2.332 0 1.693-.778 2.332-2.838 2.332-2.228 0-2.916.688-3.207 3.207-.289 2.518-1.056 3.285-3.574 3.575-2.882.332-3.207.007-3.207-3.207 0-3.036.44-3.575 2.915-3.575 2.137 0 2.915-.621 2.915-2.332 0-2.052-.778-2.332-6.471-2.332H20.59l.35-6.704c.33-6.347.52-6.724 3.556-7.073 3.06-.352 3.206-.66 3.206-6.704 0-5.982.163-6.337 2.915-6.337 2.332 0 2.915-.582 2.915-2.915 0-2.756-.35-2.914-6.413-2.914h-6.413v6.413c0 6.016-.175 6.412-2.838 6.412-2.228 0-2.916.688-3.206 3.207-.29 2.518-1.057 3.286-3.575 3.575-3.06.352-3.207.66-3.207 6.704 0 5.982-.163 6.336-2.915 6.336-2.85 0-2.915.195-2.915 8.745 0 8.55.066 8.745 2.915 8.745 2.85 0 2.915-.195 2.915-8.745v-8.745h12.826v5.83c0 5.729.062 5.83 3.575 5.83 3.214 0 3.539.326 3.207 3.207-.29 2.518-1.057 3.285-3.575 3.575-2.519.29-3.207.978-3.207 3.206 0 2.25-.604 2.838-2.915 2.838-2.332 0-2.915-.583-2.915-2.915 0-2.461-.544-2.915-3.498-2.915-2.926 0-3.498.463-3.498 2.834 0 2.052-.724 2.937-2.623 3.206-2.28.324-2.67 1.164-2.974 6.406-.319 5.529-.124 6.064 2.332 6.413 2.34.332 2.757 1.196 3.265 6.793.538 5.908.813 6.413 3.498 6.413 2.845 0 2.923-.23 3.253-9.56l.337-9.56 6.076-.351c5.659-.326 6.1-.57 6.444-3.557.286-2.491.985-3.207 3.13-3.207 2.143 0 2.842-.716 3.129-3.206.352-3.065.651-3.207 6.781-3.207s6.43.142 6.781 3.207c.364 3.158.272 3.206-6.121 3.206-6.434 0-6.49.03-6.49 3.498 0 3.463.065 3.498 6.413 3.498 6.063 0 6.413.159 6.413 2.915 0 2.756-.35 2.915-6.413 2.915h-6.413v6.996c0 6.685.13 6.996 2.915 6.996 2.137 0 2.915.621 2.915 2.332 0 1.71-.778 2.332-2.915 2.332-2.756 0-2.915.35-2.915 6.413v6.413h6.413c6.063 0 6.413-.159 6.413-2.915 0-2.462-.544-2.915-3.498-2.915-3.11 0-3.498-.388-3.498-3.498 0-3.463.065-3.498 6.413-3.498h6.413v6.413c0 6.063.159 6.413 2.915 6.413 2.756 0 2.915-.35 2.915-6.413 0-6.063.158-6.413 2.915-6.413 2.137 0 2.915-.622 2.915-2.332 0-1.711-.778-2.332-2.915-2.332-2.462 0-2.915-.545-2.915-3.498 0-2.954.453-3.498 2.915-3.498 2.461 0 2.915-.545 2.915-3.498 0-2.953-.454-3.498-2.915-3.498-2.332 0-2.915-.583-2.915-2.915 0-2.72-.388-2.915-5.83-2.915-5.7 0-5.83-.078-5.83-3.498 0-2.928.462-3.498 2.838-3.498 2.228 0 2.916-.688 3.206-3.206l.369-3.207h24.486l.368 3.207c.364 3.158.272 3.206-6.121 3.206h-6.49v6.413c0 6.063.158 6.413 2.915 6.413 2.31 0 2.915-.588 2.915-2.838 0-2.228.688-2.916 3.206-3.206 2.519-.29 3.286-1.057 3.575-3.575.29-2.519.978-3.207 3.207-3.207 2.658 0 2.838.401 2.838 6.331 0 5.68-.27 6.371-2.624 6.705-1.878.267-2.728 1.284-2.992 3.579-.318 2.762.047 3.207 2.624 3.207 2.546 0 2.992.52 2.992 3.498 0 3.463-.066 3.498-6.413 3.498-6.348 0-6.413-.035-6.413-3.498 0-2.954-.454-3.498-2.915-3.498-2.462 0-2.915.544-2.915 3.498 0 2.953.453 3.498 2.915 3.498 2.72 0 2.915.388 2.915 5.83s-.195 5.83-2.915 5.83c-2.757 0-2.915.35-2.915 6.413 0 6.063.158 6.413 2.915 6.413 2.756 0 2.915-.35 2.915-6.413v-6.413h9.91c9.74 0 9.912.05 9.912 2.854 0 2.621-.5 2.883-6.122 3.207-5.71.328-6.146.568-6.49 3.558-.364 3.159-.271 3.207 6.122 3.207 6.434 0 6.49-.031 6.49-3.498 0-3.11.388-3.498 3.498-3.498h3.498v6.996c0 6.684.13 6.996 2.915 6.996 2.756 0 2.915.35 2.915 6.413v6.413H84.681l.37-3.207c.29-2.518 1.057-3.286 3.575-3.575 2.519-.29 3.207-.978 3.207-3.206 0-2.663-.397-2.838-6.413-2.838h-6.413v24.486h-3.498c-3.42 0-3.498-.13-3.498-5.83 0-5.399-.21-5.83-2.838-5.83-2.228 0-2.916.688-3.207 3.206-.289 2.519-1.056 3.286-3.575 3.575-2.265.261-3.206 1.031-3.206 2.624 0 1.644-.812 2.255-2.992 2.255-2.577 0-2.942.445-2.623 3.206.343 2.991.78 3.23 6.49 3.559l6.12.353v6.351c0 5.999.163 6.352 2.916 6.352 2.752 0 2.915-.354 2.915-6.336 0-6.044.147-6.352 3.206-6.704 2.519-.289 3.286-1.056 3.575-3.575.352-3.06.66-3.206 6.705-3.206 6.262 0 6.336.04 6.336 3.498 0 3.109-.389 3.497-3.498 3.497h-3.498v18.656h31.359l.353-6.121c.329-5.71.568-6.146 3.559-6.49 2.894-.333 3.206-.014 3.206 3.283 0 3.298.313 3.617 3.207 3.284 3.177-.365 3.21-.456 3.545-9.988.33-9.349.419-9.619 3.206-9.619 2.699 0 2.868.377 2.868 6.413 0 6.347.035 6.412 3.498 6.412 2.954 0 3.498-.453 3.498-2.915 0-2.332.583-2.915 2.915-2.915 2.462 0 2.915-.544 2.915-3.497 0-3.463-.065-3.498-6.413-3.498-5.635 0-6.413-.283-6.413-2.332 0-2.05-.777-2.332-6.413-2.332-5.635 0-6.413.282-6.413 2.332 0 1.814-.777 2.332-3.498 2.332-2.678 0-3.497-.527-3.497-2.251 0-1.447-.938-2.384-2.624-2.623-2.446-.348-2.647-1.024-2.962-9.993-.339-9.613-.337-9.619 2.624-9.619 2.843 0 2.962-.281 2.962-6.996 0-6.685-.13-6.996-2.915-6.996-2.332 0-2.915-.583-2.915-2.915 0-2.757.349-2.915 6.413-2.915 6.016 0 6.412.175 6.412 2.838 0 2.228.688 2.916 3.207 3.206 2.518.29 3.286 1.057 3.575 3.575.332 2.881.007 3.207-3.207 3.207-3.556 0-3.575.034-3.575 6.413v6.413h6.413c6.348 0 6.413.035 6.413 3.498 0 3.109.389 3.498 3.498 3.498 3.463 0 3.498-.066 3.498-6.413v-6.413h-6.413c-6.347 0-6.413-.035-6.413-3.498s.066-3.498 6.413-3.498c6.38 0 6.413-.019 6.413-3.575 0-3.214.326-3.539 3.207-3.207 2.518.29 3.286 1.057 3.575 3.575.287 2.491.985 3.207 3.129 3.207 2.145 0 2.843-.716 3.13-3.207.337-2.936.835-3.236 5.907-3.562 5.476-.351 5.538-.315 5.538 3.207 0 3.54.04 3.562 6.413 3.562h6.413v-6.413c0-6.063-.158-6.413-2.915-6.413-2.461 0-2.915-.545-2.915-3.498 0-3.463-.065-3.498-6.413-3.498-5.635 0-6.413-.282-6.413-2.332 0-2.149.778-2.332 9.911-2.332h9.911v5.83c0 5.442.195 5.83 2.915 5.83 2.461 0 2.915-.545 2.915-3.498 0-3.11.388-3.498 3.498-3.498 3.11 0 3.498.388 3.498 3.498 0 3.463.065 3.498 6.413 3.498s6.413-.035 6.413-3.498c0-2.72.518-3.498 2.332-3.498 1.506 0 2.332-.778 2.332-2.196 0-1.216-1.041-2.468-2.332-2.806-1.575-.412-2.332-1.591-2.332-3.633 0-2.889-.288-3.025-6.413-3.025-6.379 0-6.413.019-6.413 3.575 0 3.213-.325 3.539-3.206 3.206-2.499-.286-3.287-1.061-3.57-3.503-.279-2.425-1.073-3.219-3.498-3.498-2.442-.283-3.217-1.071-3.503-3.569-.291-2.519-.979-3.207-3.207-3.207-2.25 0-2.838-.604-2.838-2.915 0-2.461-.544-2.915-3.498-2.915-3.11 0-3.498-.388-3.498-3.498 0-2.953-.453-3.498-2.915-3.498-2.461 0-2.915.545-2.915 3.498 0 2.972-.446 3.498-2.973 3.498-2.882 0-2.963-.204-2.624-6.704.311-5.94.65-6.747 2.974-7.078 1.899-.269 2.623-1.154 2.623-3.206 0-2.245.605-2.834 2.915-2.834 2.462 0 2.915-.544 2.915-3.498 0-2.953-.453-3.498-2.915-3.498-2.111 0-2.915-.626-2.915-2.271 0-1.917.953-2.326 6.122-2.624 5.71-.328 6.146-.567 6.49-3.558.363-3.159.271-3.207-6.122-3.207h-6.49V88.7c0-9.795.034-9.911 2.915-9.911 2.757 0 2.915-.35 2.915-6.414 0-6.316.051-6.412 3.421-6.412 2.864 0 3.481.52 3.79 3.206.289 2.519 1.056 3.286 3.575 3.575 2.518.29 3.206.978 3.206 3.206 0 2.25.604 2.839 2.915 2.839 2.475 0 2.915.538 2.915 3.574 0 3.214-.325 3.54-3.206 3.207-2.519-.29-3.286-1.056-3.575-3.575-.291-2.519-.979-3.206-3.207-3.206-2.376 0-2.838.57-2.838 3.497 0 3.11-.388 3.498-3.498 3.498-2.953 0-3.498.454-3.498 2.915 0 2.882.117 2.915 9.911 2.915 9.794 0 9.911-.033 9.911-2.915 0-2.461.545-2.915 3.498-2.915 3.11 0 3.498-.388 3.498-3.498 0-2.953.454-3.498 2.915-3.498 2.332 0 2.915-.582 2.915-2.915 0-2.331-.583-2.914-2.915-2.914s-2.915.583-2.915 2.915c0 2.46-.545 2.915-3.498 2.915h-3.498V58.968h3.498c3.11 0 3.498.388 3.498 3.498v3.498h17.49v-6.996h-8.745c-7.967 0-8.745-.208-8.745-2.332 0-1.815-.778-2.332-3.498-2.332-3.463 0-3.498-.066-3.498-6.413 0-6.348.035-6.413 3.498-6.413 2.953 0 3.498.453 3.498 2.915 0 2.31.588 2.915 2.838 2.915 2.228 0 2.916.688 3.206 3.206.337 2.936.835 3.237 5.907 3.562l5.539.356V27.486h-30.161l-.369 3.206c-.287 2.494-1.063 3.287-3.491 3.567-2.661.308-3.178-.122-3.498-2.915-.3-2.616-.962-3.275-3.291-3.275-2.313 0-2.991.662-3.283 3.206-.287 2.49-.986 3.207-3.13 3.207s-2.842-.716-3.129-3.207c-.264-2.295-1.114-3.312-2.992-3.58-1.9-.269-2.624-1.154-2.624-3.206 0-2.244-.605-2.833-2.915-2.833-2.756 0-2.915.35-2.915 6.413v6.413h5.83c5.701 0 5.83.078 5.83 3.498 0 2.953-.453 3.498-2.915 3.498-2.332 0-2.915.583-2.915 2.915 0 2.461-.544 2.915-3.498 2.915-2.953 0-3.498-.454-3.498-2.915 0-2.332-.583-2.915-2.915-2.915-2.756 0-2.915.35-2.915 6.413v6.413h-19.822V47.89c0-6.348.035-6.413 3.498-6.413 2.954 0 3.498.453 3.498 2.915 0 2.332.583 2.915 2.915 2.915s2.915-.583 2.915-2.915-.583-2.915-2.915-2.915c-2.785 0-2.915-.312-2.915-6.996 0-6.685.13-6.996 2.915-6.996 2.462 0 2.915.544 2.915 3.498 0 3.126.38 3.498 3.575 3.498 3.214 0 3.539-.325 3.207-3.207-.289-2.518-1.057-3.285-3.575-3.575-2.519-.29-3.207-.978-3.207-3.206 0-2.25-.604-2.838-2.915-2.838-2.461 0-2.915-.545-2.915-3.498 0-2.928.462-3.498 2.838-3.498 2.229 0 2.917-.688 3.207-3.207.289-2.518 1.056-3.285 3.575-3.574 2.265-.262 3.206-1.031 3.206-2.624 0-1.952-.85-2.255-6.331-2.255-5.68 0-6.371.27-6.704 2.623-.267 1.879-1.284 2.729-3.58 2.992-2.519.29-3.207.979-3.207 3.207 0 2.376-.57 2.838-3.498 2.838-3.419 0-3.497-.13-3.497-5.83 0-5.397-.212-5.83-2.834-5.83-2.052 0-2.937.724-3.206 2.623-.241 1.687-1.311 2.757-2.997 2.997-1.899.27-2.623 1.154-2.623 3.207 0 2.78-.188 2.833-9.988 2.833h-9.99l.37-3.207c.349-3.035.727-3.225 7.073-3.556 5.75-.3 6.705-.673 6.705-2.623 0-2.122-.892-2.274-13.41-2.274-12.478 0-13.408.156-13.408 2.255zm83.951 3.575c0 5.442.195 5.83 2.915 5.83 2.721 0 2.915-.388 2.915-5.83S161.598 3 158.877 3c-2.72 0-2.915.388-2.915 5.83zm18.656-3.559c0 1.917.953 2.327 6.122 2.624 5.709.329 6.146.568 6.489 3.558.319 2.761-.046 3.207-2.623 3.207-2.547 0-2.992.52-2.992 3.498v3.498h30.316V3h-18.656c-17.711 0-18.656.115-18.656 2.271zm44.308 19.883v22.154h46.64v-18.51c0-10.18-.328-20.15-.729-22.154L264.108 3h-45.182v22.154zM8.404 9.149c-.328.854-.448 8.347-.267 16.65l.327 15.096 16.065.324 16.064.325-.323-16.649-.324-16.648-15.473-.325C12.43 7.669 8.868 7.94 8.403 9.149zm186.867-.76c-.457.456-.831 2.054-.831 3.55 0 2.525.469 2.72 6.49 2.72 6.393 0 6.485-.047 6.121-3.206-.334-2.911-.854-3.238-5.658-3.551-2.911-.19-5.665.029-6.122.486zm31.46.02c-.445.445-.809 8.083-.809 16.972v16.162l16.032-.324 16.033-.324V8.247l-15.224-.324c-8.371-.177-15.587.04-16.032.486zm-83.595 3.336c0 2.332.583 2.915 2.915 2.915s2.915-.583 2.915-2.915-.583-2.915-2.915-2.915-2.915.583-2.915 2.915zM14.877 24.57v9.91h18.656V14.66H14.877v9.91zm89.782-6.413c0 2.953.453 3.498 2.915 3.498 2.332 0 2.915.583 2.915 2.915s-.583 2.915-2.915 2.915c-2.462 0-2.915.544-2.915 3.498 0 3.42.129 3.498 5.83 3.498 5.7 0 5.83.078 5.83 3.498 0 2.953-.454 3.498-2.915 3.498-2.332 0-2.915.583-2.915 2.915s.583 2.915 2.915 2.915 2.915-.583 2.915-2.915c0-2.462.544-2.915 3.497-2.915 3.11 0 3.498-.389 3.498-3.498 0-3.11-.388-3.498-3.498-3.498-3.462 0-3.497-.066-3.497-6.413 0-6.063-.159-6.413-2.915-6.413-2.462 0-2.915-.545-2.915-3.498 0-2.954-.454-3.498-2.915-3.498-2.462 0-2.915.544-2.915 3.498zm63.385-1.75c-1.133 2.952.528 5.44 3.363 5.038 1.883-.267 2.733-1.281 2.997-3.58.319-2.769-.044-3.206-2.66-3.206-1.666 0-3.331.787-3.7 1.749zm64.485-.97c-.427.426-.777 4.886-.777 9.91v9.134h19.822V14.66h-9.134c-5.024 0-9.484.35-9.911.778zM167.622 37.98c0 2.953-.453 3.498-2.915 3.498-2.332 0-2.915.583-2.915 2.915s-.583 2.915-2.915 2.915c-2.865 0-2.915.16-2.915 9.25 0 9.225-.009 9.252-3.206 9.62-2.544.293-3.207.97-3.207 3.284 0 2.313.663 2.99 3.207 3.283 2.49.287 3.206.985 3.206 3.13 0 2.144-.716 2.842-3.206 3.129-2.544.293-3.207.97-3.207 3.283 0 2.314.663 2.991 3.207 3.284 2.881.332 3.206.007 3.206-3.207 0-3.036.44-3.575 2.915-3.575 2.332 0 2.915-.582 2.915-2.915 0-2.331-.583-2.914-2.915-2.914-2.461 0-2.915-.545-2.915-3.498 0-3.415.138-3.498 5.753-3.498 5.408 0 5.774-.192 6.122-3.207.289-2.518 1.056-3.286 3.575-3.575 2.894-.333 3.206-.014 3.206 3.284 0 3.297.313 3.616 3.207 3.283 2.518-.29 3.285-1.056 3.575-3.575.29-2.518.978-3.206 3.206-3.206 2.06 0 2.838-.64 2.838-2.332 0-1.815-.778-2.332-3.498-2.332s-3.498.517-3.498 2.332c0 1.71-.778 2.332-2.915 2.332s-2.915-.622-2.915-2.332c0-1.815-.778-2.332-3.498-2.332-3.463 0-3.498-.066-3.498-6.413 0-6.348.035-6.413 3.498-6.413 2.954 0 3.498.453 3.498 2.915 0 2.461.545 2.915 3.498 2.915 2.954 0 3.498-.454 3.498-2.915 0-2.462-.544-2.915-3.498-2.915-3.11 0-3.498-.389-3.498-3.498 0-3.11-.388-3.498-3.498-3.498-3.11 0-3.498.388-3.498 3.498zm32.648 2.915c0 6.347.035 6.413 3.498 6.413s3.498-.066 3.498-6.413c0-6.348-.035-6.413-3.498-6.413s-3.498.065-3.498 6.413zM98.829 47.89c0 6.063.158 6.413 2.915 6.413 2.756 0 2.915-.35 2.915-6.413 0-6.063-.159-6.413-2.915-6.413-2.757 0-2.915.35-2.915 6.413zm-83.952 8.745c0 1.71.778 2.332 2.915 2.332 2.462 0 2.915.544 2.915 3.498 0 3.11.388 3.498 3.498 3.498 3.11 0 3.498-.389 3.498-3.498 0-2.954.454-3.498 2.915-3.498 2.137 0 2.915-.622 2.915-2.332 0-2.138-.778-2.332-9.328-2.332-8.55 0-9.328.194-9.328 2.332zm95.612-.05c0 2.041-.959 2.32-9.037 2.624-8.895.335-9.042.39-9.405 3.547l-.37 3.207h-19.51l-.37 3.206c-.344 2.99-.78 3.23-6.49 3.559l-6.121.353v6.351c0 5.952.178 6.352 2.838 6.352 2.228 0 2.916.688 3.206 3.207.29 2.518 1.057 3.286 3.575 3.575 2.49.287 3.207.985 3.207 3.13 0 2.144-.716 2.842-3.207 3.129-2.544.293-3.206.97-3.206 3.283 0 2.314.662 2.991 3.206 3.284 3.016.347 3.207.713 3.207 6.121 0 5.616.084 5.753 3.498 5.753 3.11 0 3.498-.388 3.498-3.498v-3.498h25.652v3.498c0 2.954-.454 3.498-2.915 3.498-2.311 0-2.915.588-2.915 2.838 0 2.228-.688 2.916-3.207 3.207-3.04.35-3.225.719-3.558 7.155l-.353 6.789 3.267-.376c3.06-.351 3.29-.761 3.619-6.445l.35-6.072 8.395-.341c8.193-.334 8.403-.419 8.762-3.548.309-2.686.926-3.207 3.789-3.207h3.421V98.611h6.49c6.394 0 6.486-.047 6.122-3.206-.264-2.296-1.114-3.313-2.992-3.58-1.899-.27-2.624-1.154-2.624-3.206 0-2.657.399-2.834 6.413-2.834 6.348 0 6.413-.035 6.413-3.498 0-3.11-.388-3.498-3.498-3.498-2.927 0-3.498-.461-3.498-2.838 0-2.228.688-2.916 3.207-3.206 2.518-.29 3.286-1.056 3.575-3.575.332-2.881.007-3.206-3.207-3.206-3.208 0-3.575-.365-3.575-3.559v-3.56l-6.121.354c-5.71.328-6.146.567-6.49 3.558-.332 2.881-.007 3.207 3.206 3.207 3.557 0 3.575.033 3.575 6.412 0 6.348-.035 6.413-3.498 6.413-2.927 0-3.498-.461-3.498-2.838 0-2.228-.687-2.916-3.206-3.206-2.519-.29-3.286-1.056-3.575-3.575-.29-2.519-.978-3.206-3.206-3.206-2.377 0-2.838-.57-2.838-3.498 0-2.954.453-3.498 2.915-3.498 2.137 0 2.915-.622 2.915-2.332s-.778-2.332-2.915-2.332c-2.117 0-2.915.625-2.915 2.283zm102.607.05c0 1.71.778 2.332 2.915 2.332 2.785 0 2.915.31 2.915 6.996 0 6.684-.13 6.996-2.915 6.996-2.332 0-2.915.583-2.915 2.915s.583 2.915 2.915 2.915c2.461 0 2.915.544 2.915 3.497 0 2.928-.462 3.498-2.838 3.498-2.228 0-2.916.688-3.207 3.207-.263 2.296-1.113 3.313-2.992 3.58-1.875.265-2.623 1.157-2.623 3.124s.748 2.86 2.623 3.125c2.239.319 2.676 1.186 2.979 5.912.321 5.001.632 5.538 3.207 5.538 2.39 0 2.851.566 2.851 3.498 0 3.11.388 3.498 3.498 3.498 2.926 0 3.498.463 3.498 2.834 0 2.052.724 2.937 2.623 3.206 1.879.267 2.729 1.284 2.992 3.58.319 2.761-.046 3.206-2.623 3.206-2.414 0-2.992-.563-2.992-2.915 0-2.461-.545-2.915-3.498-2.915-2.954 0-3.498.454-3.498 2.915 0 2.462.544 2.915 3.498 2.915 3.109 0 3.498.388 3.498 3.498 0 3.11-.389 3.498-3.498 3.498-2.954 0-3.498.454-3.498 2.915 0 2.332-.583 2.915-2.915 2.915-2.786 0-2.915.311-2.915 6.996v6.996h6.413c5.635 0 6.413.282 6.413 2.332s-.778 2.332-6.413 2.332h-6.413v6.413c0 6.063.158 6.413 2.915 6.413 2.311 0 2.915-.588 2.915-2.838 0-2.228.688-2.916 3.206-3.207 2.519-.289 3.286-1.056 3.575-3.575.291-2.518.979-3.206 3.207-3.206 2.663 0 2.838.396 2.838 6.413v6.413h26.818v-2.915c0-2.881-.117-2.915-9.911-2.915h-9.911v-3.498c0-3.11.388-3.498 3.498-3.498 2.72 0 3.498-.518 3.498-2.332 0-1.814-.778-2.332-3.498-2.332-3.11 0-3.498-.388-3.498-3.498 0-3.126.38-3.498 3.575-3.498 3.213 0 3.538-.325 3.206-3.207-.289-2.518-1.056-3.285-3.575-3.574-2.518-.291-3.206-.979-3.206-3.207 0-2.663.396-2.838 6.413-2.838 6.063 0 6.413.159 6.413 2.915 0 2.786.311 2.915 6.996 2.915 6.684 0 6.996-.129 6.996-2.915s-.312-2.915-6.996-2.915h-6.996v-3.498c0-2.953-.454-3.498-2.915-3.498-2.311 0-2.915-.588-2.915-2.838 0-2.228-.688-2.916-3.207-3.206-2.518-.29-3.286-1.057-3.575-3.575-.332-2.881-.007-3.207 3.207-3.207 3.036 0 3.575.44 3.575 2.915 0 2.332.583 2.915 2.915 2.915s2.915-.583 2.915-2.915-.583-2.915-2.915-2.915c-2.462 0-2.915-.544-2.915-3.498 0-2.953.453-3.498 2.915-3.498 2.137 0 2.915-.621 2.915-2.332 0-1.693-.778-2.332-2.838-2.332-2.229 0-2.917-.688-3.207-3.206-.35-3.04-.72-3.225-7.144-3.559-6.601-.343-6.767-.432-6.413-3.498.283-2.454 1.068-3.227 3.569-3.514 2.519-.29 3.207-.978 3.207-3.207 0-2.389-.566-2.838-3.575-2.838-3.214 0-3.539-.325-3.207-3.206.349-3.035.727-3.225 7.073-3.556l6.705-.35v6.471c0 6.125.156 6.471 2.915 6.471 2.756 0 2.915-.35 2.915-6.413 0-6.347.035-6.412 3.498-6.412s3.498.065 3.498 6.412c0 6.364.026 6.413 3.537 6.413h3.538l-.331-12.534-.331-12.534-3.207-.369c-2.685-.309-3.206-.926-3.206-3.79 0-3.023.405-3.42 3.498-3.42 2.72 0 3.498-.518 3.498-2.332 0-2.15-.778-2.332-9.911-2.332-9.134 0-9.911.183-9.911 2.332 0 1.71.777 2.332 2.915 2.332 2.461 0 2.915.544 2.915 3.498 0 2.953-.454 3.498-2.915 3.498-2.476 0-2.915.538-2.915 3.575 0 3.213-.326 3.538-3.207 3.206-2.98-.343-3.247-.82-3.789-6.781-.542-5.961-.81-6.439-3.79-6.782-2.265-.261-3.206-1.03-3.206-2.623 0-2.042-.884-2.255-9.328-2.255-8.55 0-9.328.194-9.328 2.332zM7.666 69.17c-.263 2.296-1.113 3.313-2.991 3.58-1.9.269-2.624 1.154-2.624 3.206 0 2.657.4 2.834 6.413 2.834h6.413v-6.414c0-6.316-.051-6.412-3.42-6.412-2.864 0-3.481.52-3.79 3.206zm91.163.291v3.499h-9.911c-9.795 0-9.911.033-9.911 2.915 0 2.88.116 2.915 9.91 2.915 9.795 0 9.912-.034 9.912-2.916 0-2.72.388-2.914 5.83-2.914h5.83v6.413c0 6.063-.159 6.412-2.915 6.412-4.008 0-4.273 5.476-.292 6.04 1.878.267 2.729 1.284 2.992 3.58l.37 3.206H84.837v-2.915c0-2.332-.583-2.915-2.915-2.915s-2.915.583-2.915 2.915c0 2.462-.545 2.915-3.498 2.915-3.11 0-3.498.389-3.498 3.498v3.498h38.478v5.83c0 5.442.194 5.83 2.915 5.83 2.72 0 2.915-.388 2.915-5.83 0-5.441-.195-5.83-2.915-5.83-2.462 0-2.915-.544-2.915-3.498 0-2.953.453-3.498 2.915-3.498 2.756 0 2.915-.35 2.915-6.413 0-6.347.035-6.413 3.497-6.413 3.11 0 3.498-.388 3.498-3.498 0-3.11-.388-3.498-3.498-3.498-2.953 0-3.497-.453-3.497-2.915 0-2.331-.583-2.914-2.915-2.914-2.462 0-2.915-.545-2.915-3.498 0-3.42-.13-3.498-5.83-3.498s-5.83.078-5.83 3.498zm152.745 0c0 2.954-.454 3.499-2.915 3.499-2.332 0-2.915.583-2.915 2.915s.583 2.915 2.915 2.915c2.311 0 2.915-.588 2.915-2.839 0-2.228.688-2.916 3.206-3.206 2.519-.29 3.286-1.056 3.575-3.575.332-2.881.007-3.206-3.206-3.206-3.195 0-3.575.371-3.575 3.498zM47.525 82.287c0 3.126-.38 3.498-3.575 3.498-3.213 0-3.539.326-3.206 3.207.289 2.518 1.056 3.286 3.575 3.575 2.518.29 3.206.978 3.206 3.206 0 2.377-.57 2.838-3.498 2.838-3.126 0-3.498.38-3.498 3.575 0 3.214.325 3.539 3.206 3.207 2.52-.289 3.286-1.057 3.575-3.575.287-2.49.986-3.207 3.13-3.207s2.843.716 3.13 3.207c.267 2.32 1.11 3.311 3.052 3.586 2.571.365 2.67.095 2.332-6.413l-.352-6.793-5.538-.355c-5.002-.32-5.539-.632-5.539-3.207 0-2.263.6-2.85 2.915-2.85 2.461 0 2.915-.545 2.915-3.499 0-2.953-.454-3.498-2.915-3.498s-2.915.545-2.915 3.498zm159.741 0c0 2.72.518 3.498 2.332 3.498 1.814 0 2.332-.777 2.332-3.498 0-2.72-.518-3.498-2.332-3.498-1.814 0-2.332.778-2.332 3.498zM72.011 88.7c0 2.462.544 2.915 3.498 2.915 2.953 0 3.498-.453 3.498-2.915 0-2.461-.545-2.915-3.498-2.915-2.954 0-3.498.454-3.498 2.915zm19.822 0c0 2.462.544 2.915 3.498 2.915 2.953 0 3.498-.453 3.498-2.915 0-2.461-.545-2.915-3.498-2.915-2.954 0-3.498.454-3.498 2.915zm127.093 3.498c0 6.348.035 6.413 3.498 6.413s3.498-.065 3.498-6.413c0-6.347-.035-6.413-3.498-6.413s-3.498.066-3.498 6.413zm-69.133.145c-.455.455-.827 2.05-.827 3.548 0 2.124-.639 2.72-2.915 2.72-2.461 0-2.915.545-2.915 3.498 0 3.467.059 3.498 6.472 3.498h6.471l-.35-6.704c-.298-5.723-.698-6.755-2.73-7.045-1.309-.188-2.751.031-3.206.485zm37.651 3.353c0 2.332-.583 2.915-2.915 2.915-2.461 0-2.915.545-2.915 3.498 0 2.954.454 3.498 2.915 3.498 2.137 0 2.915.622 2.915 2.332 0 1.815.778 2.332 3.498 2.332 3.463 0 3.498.066 3.498 6.413 0 6.063.159 6.413 2.915 6.413 2.332 0 2.915-.583 2.915-2.915 0-2.461.544-2.915 3.498-2.915 3.463 0 3.498.066 3.498 6.413v6.413h-6.413c-6.348 0-6.413.035-6.413 3.498 0 2.954.454 3.498 2.915 3.498 2.332 0 2.915.583 2.915 2.915 0 2.72.388 2.915 5.83 2.915s5.83-.195 5.83-2.915c0-2.137-.622-2.915-2.332-2.915-1.814 0-2.332-.778-2.332-3.498s.518-3.498 2.332-3.498c2.149 0 2.332-.778 2.332-9.911v-9.911h-8.745c-7.967 0-8.745-.207-8.745-2.332 0-1.71.778-2.332 2.915-2.332 2.461 0 2.915-.544 2.915-3.498 0-2.953-.454-3.498-2.915-3.498-2.332 0-2.915-.583-2.915-2.915 0-2.461-.545-2.915-3.498-2.915-2.953 0-3.498.454-3.498 2.915zm64.13 0c0 2.462.544 2.915 3.498 2.915 2.953 0 3.498-.453 3.498-2.915 0-2.461-.545-2.915-3.498-2.915-2.954 0-3.498.454-3.498 2.915zm-64.13 6.413c0 3.11.388 3.498 3.498 3.498 3.11 0 3.498-.388 3.498-3.498 0-3.11-.388-3.498-3.498-3.498-3.11 0-3.498.389-3.498 3.498zm31.482 5.83c0 1.815.778 2.332 3.498 2.332 3.109 0 3.498.389 3.498 3.498 0 2.954.453 3.498 2.915 3.498 2.461 0 2.915-.544 2.915-3.498 0-3.109.388-3.498 3.498-3.498 2.72 0 3.498-.517 3.498-2.332 0-1.814-.778-2.332-3.498-2.332-2.721 0-3.498.518-3.498 2.332 0 1.711-.778 2.332-2.915 2.332-2.138 0-2.915-.621-2.915-2.332 0-1.814-.778-2.332-3.498-2.332s-3.498.518-3.498 2.332zm-178.397 5.753c0 3.213.363 3.575 3.575 3.575 3.213 0 3.539-.325 3.206-3.206-.289-2.519-1.056-3.286-3.575-3.575-2.88-.333-3.206-.007-3.206 3.206zm96.389-2.643c-.428.427-.778 2.001-.778 3.498 0 2.246.611 2.72 3.498 2.72 2.939 0 3.498.458 3.498 2.869 0 2.786-.27 2.876-9.619 3.206-9.532.335-9.623.367-9.988 3.545-.352 3.059-.66 3.206-6.704 3.206h-6.336v12.826H84.837v6.996h19.667l.369 3.206c.265 2.307 1.024 3.207 2.701 3.207 1.676 0 2.435-.9 2.7-3.207.29-2.518.978-3.206 3.206-3.206 2.629 0 2.839.431 2.839 5.83v5.83h13.991v3.498c0 2.953.454 3.498 2.915 3.498 2.462 0 2.915-.545 2.915-3.498 0-2.954-.453-3.498-2.915-3.498-2.104 0-2.915-.627-2.915-2.255 0-1.593-.941-2.362-3.206-2.624-2.519-.289-3.286-1.056-3.575-3.575-.364-3.154-.265-3.206 6.043-3.206 6.13 0 6.43.142 6.783 3.206.289 2.519 1.056 3.286 3.575 3.575 2.265.262 3.206 1.031 3.206 2.624 0 1.611.811 2.255 2.838 2.255 2.229 0 2.917.688 3.207 3.206.347 3.021.705 3.207 6.198 3.207s5.851-.186 6.199-3.207c.36-3.124.218-3.206-5.539-3.206h-5.907v-5.83c0-5.399.21-5.83 2.838-5.83 2.229 0 2.916.688 3.207 3.206.263 2.296 1.113 3.313 2.992 3.58 2.473.351 2.623-.033 2.623-6.704 0-6.772.126-7.078 2.915-7.078 2.462 0 2.915.545 2.915 3.498 0 3.11.388 3.498 3.498 3.498 3.11 0 3.498-.388 3.498-3.498 0-3.11-.388-3.498-3.498-3.498-2.953 0-3.498-.454-3.498-2.915 0-2.332-.583-2.915-2.915-2.915s-2.915.583-2.915 2.915c0 2.72-.388 2.915-5.83 2.915-5.441 0-5.83-.195-5.83-2.915 0-2.461-.544-2.915-3.498-2.915-2.953 0-3.498.454-3.498 2.915 0 2.756-.349 2.915-6.413 2.915-6.063 0-6.413-.159-6.413-2.915 0-2.461-.544-2.915-3.498-2.915-3.109 0-3.498-.388-3.498-3.498v-3.498h9.911c9.722 0 9.911-.054 9.911-2.838 0-2.228.688-2.916 3.207-3.206 2.518-.29 3.286-1.057 3.575-3.575.29-2.519.978-3.207 3.206-3.207 2.389 0 2.838-.565 2.838-3.575 0-3.213-.325-3.539-3.206-3.206-2.519.289-3.286 1.056-3.575 3.575-.29 2.518-.978 3.206-3.207 3.206-2.376 0-2.838-.57-2.838-3.498 0-2.887-.474-3.498-2.72-3.498-1.497 0-3.071.35-3.498.778zm37.7 9.133c0 9.795.034 9.911 2.915 9.911 2.881 0 2.915-.116 2.915-9.911 0-9.794-.034-9.911-2.915-9.911-2.881 0-2.915.117-2.915 9.911zm83.952-6.413c0 3.298.312 3.617 3.206 3.284 2.544-.293 3.207-.97 3.207-3.284 0-2.313-.663-2.991-3.207-3.283-2.894-.334-3.206-.014-3.206 3.283zm0 13.409c0 2.462.544 2.915 3.498 2.915 2.953 0 3.498-.453 3.498-2.915 0-2.461-.545-2.915-3.498-2.915-2.954 0-3.498.454-3.498 2.915zM7.881 133.591c0 3.11.389 3.498 3.498 3.498 3.11 0 3.498-.388 3.498-3.498 0-3.11-.388-3.498-3.498-3.498-3.11 0-3.498.388-3.498 3.498zm173.733 2.915c0 6.063.159 6.413 2.915 6.413 2.756 0 2.915-.35 2.915-6.413 0-6.063-.159-6.413-2.915-6.413-2.756 0-2.915.35-2.915 6.413zm-65.295 6.996c0 6.348.035 6.413 3.497 6.413 3.463 0 3.498-.065 3.498-6.413s-.035-6.413-3.498-6.413c-3.462 0-3.497.065-3.497 6.413zm109.603-3.498c0 2.461-.545 2.915-3.498 2.915-3.11 0-3.498.388-3.498 3.498 0 3.11.388 3.498 3.498 3.498 3.109 0 3.498.388 3.498 3.498 0 2.953.453 3.498 2.915 3.498 2.137 0 2.915.621 2.915 2.332 0 1.814.777 2.332 3.498 2.332 2.68 0 3.498-.527 3.498-2.255 0-1.593-.941-2.362-3.207-2.624-2.518-.289-3.286-1.056-3.575-3.575-.29-2.518-.978-3.206-3.206-3.206-2.376 0-2.838-.57-2.838-3.498 0-2.953.453-3.498 2.915-3.498 2.332 0 2.915-.583 2.915-2.915s-.583-2.915-2.915-2.915-2.915.583-2.915 2.915zm-178.397 6.413c0 3.11-.388 3.498-3.498 3.498-3.11 0-3.498.388-3.498 3.498 0 3.463.065 3.498 6.413 3.498 5.635 0 6.413.282 6.413 2.332 0 1.71.778 2.332 2.915 2.332 3.874 0 4.133-4.328.291-4.874-1.878-.267-2.728-1.284-2.992-3.58-.318-2.761.047-3.206 2.624-3.206 2.547 0 2.992-.52 2.992-3.498 0-3.42-.13-3.498-5.83-3.498s-5.83.078-5.83 3.498zm95.611 0c0 2.953.454 3.498 2.915 3.498 2.462 0 2.915-.545 2.915-3.498 0-2.953-.453-3.498-2.915-3.498-2.461 0-2.915.545-2.915 3.498zm-122.429 9.328c0 5.442-.195 5.83-2.915 5.83-2.461 0-2.915.544-2.915 3.498 0 2.953.454 3.498 2.915 3.498 2.757 0 2.915.35 2.915 6.413 0 6.063-.158 6.413-2.915 6.413-2.475 0-2.915.538-2.915 3.575 0 3.213-.325 3.538-3.206 3.206-3.178-.365-3.21-.456-3.545-9.988-.33-9.373-.413-9.619-3.233-9.619H2l.317 21.862c.315 21.675.34 21.866 2.94 22.236 2.536.359 2.624.053 2.624-9.037v-9.409h3.498c2.954 0 3.498-.454 3.498-2.915 0-2.332.583-2.915 2.915-2.915 2.462 0 2.915-.545 2.915-3.498 0-3.463.066-3.498 6.413-3.498 6.348 0 6.413-.035 6.413-3.498 0-2.954-.453-3.498-2.915-3.498-2.756 0-2.915-.35-2.915-6.413 0-6.063.159-6.413 2.915-6.413 2.137 0 2.915-.622 2.915-2.332 0-1.711-.778-2.332-2.915-2.332-2.461 0-2.915-.545-2.915-3.498 0-3.11-.388-3.498-3.498-3.498-3.42 0-3.498.129-3.498 5.83zm230.867-.058v5.888h14.12l-.356-5.539-.355-5.538-6.705-.35-6.704-.35v5.889zm-57.134 3.556c0 1.71.778 2.332 2.915 2.332s2.915-.622 2.915-2.332c0-1.711-.778-2.332-2.915-2.332s-2.915.621-2.915 2.332zm-95.611 8.745c0 6.063.158 6.413 2.915 6.413 2.461 0 2.915.544 2.915 3.498 0 2.953.453 3.498 2.915 3.498 2.461 0 2.915-.545 2.915-3.498 0-2.954-.454-3.498-2.915-3.498-2.332 0-2.915-.583-2.915-2.915s.583-2.915 2.915-2.915c2.461 0 2.915-.545 2.915-3.498 0-3.42-.13-3.498-5.83-3.498h-5.83v6.413zm68.793 3.498c0 2.461.545 2.915 3.498 2.915 2.954 0 3.498-.454 3.498-2.915 0-2.462-.544-2.915-3.498-2.915-2.953 0-3.498.453-3.498 2.915zm27.596 3.693c-.428.426-.778 2-.778 3.498 0 2.519-.472 2.72-6.413 2.72-6.348 0-6.413.035-6.413 3.498 0 2.953.454 3.498 2.915 3.498 2.332 0 2.915.583 2.915 2.915 0 2.461-.544 2.915-3.498 2.915-2.953 0-3.498-.454-3.498-2.915 0-2.332-.583-2.915-2.915-2.915h-2.915v24.486h2.915c2.72 0 2.915-.389 2.915-5.83v-5.83h6.996c6.632 0 6.996.148 6.996 2.833 0 2.052.724 2.937 2.623 3.206 1.687.241 2.757 1.311 2.997 2.997.303 2.136-.184 2.624-2.623 2.624-2.219 0-2.997-.606-2.997-2.332 0-1.815-.778-2.332-3.498-2.332s-3.498.517-3.498 2.332c0 1.71-.778 2.332-2.915 2.332-2.461 0-2.915.544-2.915 3.498 0 2.953.454 3.497 2.915 3.497 2.756 0 2.915.35 2.915 6.413v6.413h19.977l-.37 3.207-.368 3.206-12.535.332c-12.457.328-12.534.348-12.534 3.206 0 2.29.594 2.875 2.915 2.875 2.461 0 2.915.545 2.915 3.498 0 2.954-.454 3.498-2.915 3.498-2.332 0-2.915.583-2.915 2.915 0 2.462-.544 2.915-3.498 2.915-2.953 0-3.498-.453-3.498-2.915 0-2.332.583-2.915 2.915-2.915 2.462 0 2.915-.544 2.915-3.498v-3.498h-24.486v3.575c0 3.214-.325 3.539-3.206 3.207-2.991-.344-3.23-.78-3.559-6.49-.324-5.621-.585-6.122-3.206-6.122-2.687 0-2.855.382-2.855 6.49 0 6.393-.047 6.486-3.206 6.122-2.991-.344-3.23-.78-3.559-6.49-.324-5.621-.585-6.122-3.206-6.122-2.268 0-2.855.6-2.855 2.915 0 2.462-.544 2.915-3.498 2.915-3.109 0-3.498.389-3.498 3.498 0 3.11.389 3.498 3.498 3.498 2.954 0 3.498.454 3.498 2.915 0 2.332.583 2.915 2.915 2.915 2.462 0 2.915.545 2.915 3.498 0 3.11.389 3.498 3.498 3.498 3.126 0 3.498-.38 3.498-3.575 0-3.213.326-3.539 3.207-3.206 2.518.289 3.286 1.056 3.575 3.575.287 2.49.985 3.206 3.129 3.206 2.145 0 2.843-.716 3.13-3.206.264-2.307 1.024-3.207 2.7-3.207 1.677 0 2.436.9 2.701 3.207l.369 3.206h45.319v-3.579c0-3.045.392-3.523 2.623-3.207 1.879.267 2.729 1.284 2.992 3.58.287 2.49.986 3.206 3.13 3.206s2.843-.716 3.129-3.206c.344-2.991.78-3.23 6.49-3.559l6.122-.353v3.56c0 3.158.385 3.558 3.421 3.558 2.863 0 3.48-.521 3.789-3.206.365-3.178.456-3.21 9.988-3.545l9.62-.339v-6.365c0-6.297.038-6.367 3.498-6.367 2.927 0 3.498-.461 3.498-2.838 0-2.228-.688-2.916-3.207-3.206-2.494-.287-3.287-1.062-3.567-3.491-.308-2.661.123-3.177 2.915-3.498 2.617-.3 3.276-.962 3.276-3.291 0-2.313-.663-2.99-3.207-3.283-2.491-.287-3.206-.985-3.206-3.13 0-2.144.715-2.842 3.206-3.129 2.544-.293 3.207-.97 3.207-3.283 0-2.314-.663-2.991-3.207-3.284-2.881-.332-3.206-.007-3.206 3.207 0 3.194-.372 3.574-3.498 3.574-2.954 0-3.498.454-3.498 2.915 0 2.462.544 2.915 3.498 2.915 3.109 0 3.498.389 3.498 3.498v3.498h-19.822v-19.821h6.413c5.578 0 6.413-.297 6.413-2.272 0-1.917-.953-2.326-6.122-2.623l-6.121-.352-.35-6.705-.35-6.704h3.556c3.017 0 3.557-.443 3.557-2.915 0-2.332.583-2.915 2.915-2.915s2.915.583 2.915 2.915c0 2.785.311 2.915 6.996 2.915 6.684 0 6.996-.13 6.996-2.915 0-2.462-.545-2.915-3.498-2.915-3.11 0-3.498-.389-3.498-3.498v-3.498h-19.667l-.37 3.206c-.344 2.991-.78 3.23-6.49 3.559-5.621.324-6.121.585-6.121 3.206 0 2.683-.386 2.855-6.413 2.855-6.348 0-6.413.035-6.413 3.498 0 3.467.056 3.498 6.49 3.498 6.393 0 6.485.047 6.121 3.206-.352 3.064-.652 3.207-6.781 3.207-6.13 0-6.429-.143-6.782-3.207-.261-2.265-1.03-3.206-2.623-3.206-1.728 0-2.255-.818-2.255-3.498 0-2.721.518-3.498 2.332-3.498 1.71 0 2.332-.778 2.332-2.915 0-2.138-.622-2.915-2.332-2.915-1.711 0-2.332.777-2.332 2.915 0 2.461-.545 2.915-3.498 2.915-2.954 0-3.498-.454-3.498-2.915 0-2.332-.583-2.915-2.915-2.915-2.461 0-2.915-.545-2.915-3.498 0-2.954.454-3.498 2.915-3.498s2.915-.545 2.915-3.498c0-2.614-.54-3.498-2.137-3.498-1.177 0-2.489.35-2.915.778zm12.826 0c-.428.426-.778 2-.778 3.498 0 1.942.666 2.72 2.332 2.72 1.814 0 2.332-.778 2.332-3.498 0-3.289-1.952-4.656-3.886-2.72zm-173.56 9.424c-.289 2.519-1.056 3.286-3.574 3.575-2.491.287-3.207.985-3.207 3.13 0 2.144-.716 2.842-3.206 3.129-2.519.289-3.286 1.057-3.575 3.575-.334 2.894-.014 3.207 3.283 3.207 3.298 0 3.617.312 3.284 3.206-.29 2.519-1.057 3.286-3.575 3.575-2.266.261-3.207 1.031-3.207 2.624 0 1.955.851 2.255 6.413 2.255h6.413v-5.83c0-5.442-.195-5.83-2.915-5.83-2.475 0-2.915-.539-2.915-3.575 0-3.214.325-3.539 3.207-3.207 2.518.289 3.285 1.057 3.574 3.575.353 3.06.66 3.207 6.705 3.207 5.981 0 6.336.163 6.336 2.915 0 2.72.388 2.915 5.83 2.915s5.83-.195 5.83-2.915c0-2.721-.388-2.915-5.83-2.915-5.7 0-5.83-.079-5.83-3.498 0-2.954.454-3.498 2.915-3.498 2.332 0 2.915-.583 2.915-2.915s-.583-2.915-2.915-2.915c-2.461 0-2.915-.545-2.915-3.498 0-3.457-.073-3.498-6.336-3.498-6.044 0-6.352.147-6.705 3.206zm178.612.373c0 3.045.392 3.523 2.623 3.207 1.879-.267 2.729-1.284 2.992-3.58.319-2.761-.046-3.206-2.623-3.206-2.562 0-2.992.514-2.992 3.579zm-172.567 6.332c0 2.461.545 2.915 3.498 2.915 2.953 0 3.498-.454 3.498-2.915 0-2.462-.544-2.915-3.498-2.915-2.953 0-3.498.453-3.498 2.915zm109.603 3.498c0 6.107.143 6.413 2.992 6.413 2.577 0 2.942.445 2.624 3.206-.264 2.296-1.114 3.313-2.992 3.58-3.786.537-3.595 4.874.214 4.874 2.229 0 2.916.687 3.207 3.206.263 2.296 1.113 3.313 2.992 3.58 2.353.333 2.623 1.025 2.623 6.704v6.331h-5.83c-5.441 0-5.83.195-5.83 2.915 0 2.85.195 2.915 8.745 2.915 8.55 0 8.745-.065 8.745-2.915 0-2.461.545-2.915 3.498-2.915 3.11 0 3.498-.388 3.498-3.498 0-2.953.454-3.498 2.915-3.498 2.332 0 2.915-.583 2.915-2.915s-.583-2.915-2.915-2.915-2.915.583-2.915 2.915c0 2.462-.544 2.915-3.498 2.915h-3.498v-12.242c0-12.193-.011-12.243-2.838-12.243-2.228 0-2.916-.688-3.206-3.207-.264-2.296-1.114-3.312-2.992-3.579-1.9-.27-2.624-1.155-2.624-3.207 0-2.244-.605-2.833-2.915-2.833-2.756 0-2.915.35-2.915 6.413zm75.79 2.915c0 2.953.453 3.498 2.915 3.498 2.461 0 2.915-.545 2.915-3.498 0-2.954-.454-3.498-2.915-3.498-2.462 0-2.915.544-2.915 3.498zm25.652 6.413c0 2.461.544 2.915 3.498 2.915 2.953 0 3.498-.454 3.498-2.915 0-2.462-.545-2.915-3.498-2.915-2.954 0-3.498.453-3.498 2.915zm-158.91 3.639c-.457.457-.831 1.792-.831 2.968 0 1.813.971 2.138 6.413 2.138 6.347 0 6.413.035 6.413 3.498s-.066 3.497-6.413 3.497h-6.413v6.413c0 6.348.035 6.413 3.498 6.413 3.11 0 3.498-.388 3.498-3.498 0-2.953.453-3.498 2.915-3.498 2.309 0 2.915-.588 2.915-2.833 0-2.052.724-2.937 2.623-3.206 1.878-.267 2.729-1.284 2.992-3.58.316-2.74-.054-3.206-2.542-3.206-2.131 0-3.012-.704-3.283-2.624-.316-2.218-1.192-2.677-5.663-2.969-2.91-.19-5.665.03-6.122.487zm-52.135 2.774c0 1.814.778 2.332 3.498 2.332s3.498-.518 3.498-2.332c0-1.815-.778-2.332-3.498-2.332s-3.498.517-3.498 2.332zm159.741 5.83c0 2.953-.454 3.497-2.915 3.497-2.332 0-2.915.583-2.915 2.915s.583 2.915 2.915 2.915c2.311 0 2.915-.587 2.915-2.838 0-2.228.688-2.916 3.206-3.206 2.519-.289 3.286-1.056 3.575-3.575.333-2.881.007-3.206-3.206-3.206-3.195 0-3.575.371-3.575 3.498zm12.148-1.926c-.331.866-.446 5.195-.254 9.62l.349 8.046 9.619.339 9.62.339v-19.916h-9.364c-6.784 0-9.531.433-9.97 1.572zM2.064 238.239c.007 10.1.338 20.332.736 22.737l.723 4.372h44.002v-45.474H2.051l.013 18.365zm216.862-15.45c0 2.462.544 2.915 3.498 2.915 2.953 0 3.498-.453 3.498-2.915 0-2.461-.545-2.915-3.498-2.915-2.954 0-3.498.454-3.498 2.915zM7.881 242.028v16.324H40.53v-32.648H7.881v16.324zm6.996.583v9.911h18.656V232.7H14.877v9.911zm38.723-.291l.338 9.619 6.121.352c5.573.321 6.122.602 6.122 3.13 0 2.162-.71 2.858-3.207 3.146-2.518.289-3.285 1.056-3.574 3.575l-.37 3.206h20.132l-.37-3.206c-.289-2.519-1.056-3.286-3.575-3.575-3.06-.352-3.206-.66-3.206-6.705v-6.336h6.413c6.035 0 6.413-.169 6.413-2.868 0-2.787-.27-2.877-9.62-3.207-9.532-.334-9.623-.367-9.988-3.544-.347-3.019-.709-3.207-6.169-3.207h-5.8l.34 9.62zm82.54-6.705c0 2.462.545 2.915 3.498 2.915 2.954 0 3.498-.453 3.498-2.915 0-2.461-.544-2.915-3.498-2.915-2.953 0-3.498.454-3.498 2.915zm76.62 3.641c-.457.456-.83 2.053-.83 3.55 0 2.608-.362 2.72-8.745 2.72h-8.745v3.498c0 3.11-.388 3.498-3.498 3.498-2.953 0-3.498.454-3.498 2.915 0 2.462.545 2.915 3.498 2.915 2.953 0 3.498-.453 3.498-2.915 0-2.332.583-2.915 2.915-2.915s2.915.583 2.915 2.915c0 2.462.544 2.915 3.498 2.915 2.927 0 3.498-.463 3.498-2.833 0-2.052.724-2.937 2.623-3.207 1.879-.267 2.729-1.283 2.992-3.579.354-3.064.653-3.207 6.783-3.207 6.308 0 6.407-.052 6.043-3.206-.341-2.971-.801-3.232-6.242-3.551-3.233-.188-6.249.03-6.705.487zm19.818.002c-.454.455-.826 2.051-.826 3.548 0 2.246.611 2.72 3.498 2.72 3.126 0 3.498.38 3.498 3.575 0 3.214.325 3.539 3.206 3.207 2.519-.289 3.286-1.057 3.575-3.575.33-2.867 0-3.207-3.128-3.207-2.95 0-3.557-.502-3.868-3.206-.361-3.144-4.002-5.015-5.955-3.062zM91.833 251.784c0 6.13-.143 6.429-3.207 6.783-2.518.289-3.286 1.056-3.575 3.575-.367 3.186-.324 3.206 6.705 3.206h7.073v-3.498c0-2.953.453-3.498 2.915-3.498 2.332 0 2.915-.583 2.915-2.915 0-2.311-.588-2.915-2.838-2.915-2.229 0-2.917-.688-3.207-3.206-.29-2.519-1.056-3.286-3.575-3.575-3.154-.364-3.206-.265-3.206 6.043zm18.656 3.653c0 2.332.583 2.915 2.915 2.915s2.915-.583 2.915-2.915-.583-2.915-2.915-2.915-2.915.583-2.915 2.915zm13.652 3.643c-.455.455-.827 2.051-.827 3.548 0 2.258.608 2.72 3.575 2.72 3.214 0 3.539-.325 3.207-3.206-.362-3.144-4.002-5.015-5.955-3.062z" fill="#fff"/></svg>