<svg width="177" height="50" fill="none" xmlns="http://www.w3.org/2000/svg"><path fill-rule="evenodd" clip-rule="evenodd" d="M23.911 17.758c-.041 17.714-.042 17.761-.36 18.693-1.152 3.368-4.513 5.494-7.889 4.99-1.556-.233-2.79-.839-3.98-1.956-3.066-2.88-3.08-7.586-.03-10.45 1.89-1.775 4.072-2.389 6.668-1.875l.41.08v-8.67l-1.109-.104c-1.402-.132-3.758.137-5.408.617-4.441 1.292-8.21 4.642-10.06 8.94C1.189 30.267.94 31.562.946 34.32c.005 2.113.052 2.568.403 3.885 1.494 5.6 5.784 9.893 11.392 11.405 1.282.346 1.725.39 3.904.39 2.195 0 2.618-.043 3.948-.4 5.867-1.576 9.876-5.757 11.568-12.065.129-.479.205-3.564.266-10.72l.084-10.048.82.526c2.95 1.891 7.032 3.195 10.008 3.195h1.016v-8.524h-.795c-1.896 0-4.972-1.223-6.762-2.688-1.28-1.049-2.32-2.378-3.101-3.967-.752-1.529-1.077-2.66-1.21-4.225L32.391 0h-8.44l-.041 17.758zm29.829-1.607v2.841h6.704v21.684h6.704V19.142h5.353l.9-2.814c.494-1.548.898-2.86.898-2.916 0-.057-4.626-.103-10.28-.103H53.74v2.842zm23.762-2.566c-1.69.808-2.312 2.648-1.468 4.348a3.175 3.175 0 004.883 1.03c1.67-1.382 1.548-3.979-.24-5.167-.81-.538-2.287-.636-3.175-.211zm7.374 13.408v13.683h6.556l.017-3.552.017-3.551.941-.875c.518-.481 1.009-.833 1.092-.782.082.051 1.535 2.077 3.227 4.501l3.078 4.408h6.993l-.809-1.159c-.445-.637-2.502-3.613-4.57-6.613l-3.761-5.454 4.075-3.997 4.076-3.997-3.947-.008-3.946-.007-3.242 3.252-3.241 3.25V13.31h-6.556v13.684zm23.539-10.842v2.841h6.555v21.684h6.704V19.142h5.455l.85-2.685c.468-1.477.89-2.79.939-2.916.079-.208-.981-.232-10.207-.232h-10.296v2.842zm46.779 10.842v13.683h6.555l.001-3.552v-3.551l.979-.88c.561-.503 1.035-.822 1.109-.747.072.072 1.498 2.083 3.168 4.468l3.037 4.337 3.451.04c1.898.022 3.451 0 3.451-.05s-2.024-3.026-4.499-6.613l-4.499-6.522 4.09-4.005 4.089-4.005-3.947-.003-3.946-.003-3.242 3.252-3.242 3.25V13.31h-6.555v13.684zm-18.175-8.3c-3.913 1.044-7.087 4.174-8.114 8-.597 2.223-.41 5.071.469 7.17 1.453 3.468 4.819 6.189 8.437 6.82 1.415.246 5.699.105 6.88-.227 3.696-1.039 6.676-3.933 7.856-7.631.423-1.325.525-4.188.202-5.648-.686-3.093-2.923-6.017-5.729-7.488-1.949-1.022-2.746-1.187-5.979-1.244-2.532-.044-3.048-.012-4.022.248zm-61.38 12.633v9.35h6.558l-.038-9.31-.039-9.308-3.24-.04-3.24-.04v9.348zm63.187-7.096c-1.57.328-2.955 1.384-3.755 2.864-.489.906-.51 1.011-.51 2.516 0 1.502.022 1.61.506 2.507 1.477 2.734 4.758 3.714 7.507 2.243 3.289-1.76 3.821-6.243 1.043-8.791-1.238-1.136-3.172-1.677-4.791-1.339z" fill="#fff"/></svg>