<svg width="198" height="44" fill="none" xmlns="http://www.w3.org/2000/svg"><path fill-rule="evenodd" clip-rule="evenodd" d="M21.182.162c-1.396.301-2.318.706-4.76 2.092-.946.536-1.717.887-2.299 1.046-3.656.998-4.752 1.444-6.044 2.461-1.777 1.399-2.627 2.94-3.597 6.524-.442 1.633-.588 2.005-1.245 3.171-1.64 2.908-2.153 4.27-2.27 6.021-.142 2.134.37 3.729 2.292 7.13.652 1.155.85 1.693 1.498 4.062.781 2.857 1.823 4.55 3.566 5.793 1.249.892 2.553 1.422 5.29 2.155 1.014.27 1.606.507 2.405.96 3.537 2 4.436 2.339 6.423 2.413 2.108.08 3.473-.318 5.964-1.735 2.055-1.169 2.548-1.382 4.161-1.8 3.116-.804 4.296-1.392 5.748-2.863 1.443-1.462 2.047-2.715 2.991-6.202.371-1.372.529-1.752 1.254-3.027 1.82-3.2 2.214-4.444 2.12-6.688-.086-2.007-.438-3.01-2.09-5.944-.835-1.482-.954-1.8-1.699-4.506-.957-3.483-2.591-5.492-5.466-6.722-.432-.185-1.711-.605-2.842-.932-1.942-.563-2.153-.652-3.798-1.594-.958-.55-2.112-1.142-2.565-1.318-1.672-.647-3.503-.828-5.037-.497zm173.076 9.44c-1.362.655-1.928 2.128-1.32 3.44.477 1.03 1.664 1.692 2.744 1.529 2.04-.308 2.97-2.745 1.649-4.32-.704-.84-2.075-1.13-3.073-.65zm-34.098.227c-1.051.378-1.577 1.177-1.498 2.277.162 2.247 3.197 2.958 4.193.982.313-.62.367-1.54.125-2.122-.413-.994-1.734-1.527-2.82-1.137zm34.432.218c-1.217.574-1.582 2.128-.758 3.226.355.47 1.098.748 1.761.657 1.705-.235 2.269-2.572.877-3.64-.473-.363-1.377-.48-1.88-.243zm-.136.584c-.099.04-.137.42-.137 1.367v1.312h.328c.321 0 .328-.012.328-.55 0-.576.04-.614.465-.451.174.066.305.248.395.55.118.396.173.45.46.45.3 0 .32-.024.257-.302a3.046 3.046 0 00-.267-.651c-.191-.339-.191-.355.013-.54.392-.358.213-.939-.352-1.136-.349-.123-1.237-.152-1.49-.05zm-133.765.18l-.274.139-.028 9.603-.028 9.603 1.889-.03 1.888-.03.055-5.302.054-5.303 2.19 3.15c2.943 4.236 3.06 4.392 3.45 4.595.789.41 1.29-.067 3.415-3.25 1.384-2.07 2.557-3.674 2.973-4.064l.285-.266v3.018c0 1.66.032 4.022.072 5.248l.072 2.229h3.795V10.923l-.423-.127c-.566-.171-1.364-.162-1.796.021-.194.082-.544.367-.778.633-.234.266-1.875 2.614-3.648 5.217-1.773 2.603-3.28 4.79-3.35 4.86-.097.097-.853-.933-3.138-4.28-3.314-4.854-3.863-5.595-4.463-6.031-.734-.533-1.637-.698-2.212-.405zm83.469.038c-.041.042-.075 4.377-.075 9.634v9.558h13.571v-3.743h-9.767l.041-7.732.04-7.733-1.867-.03c-1.027-.016-1.901.004-1.943.046zm50.815.59c0 .294.037.33.332.33.408 0 .562-.295.267-.511-.356-.262-.599-.19-.599.18zM23.371 11.29c-3.495.148-8.21.913-9.237 1.5-.521.297-.666.512-.579.86.175.7 1.686.997 4.891.963 3.63-.038 4.62.003 5.512.233 1.72.442 2.716 1.226 3.787 2.979.976 1.596 1.636 2.055 3.128 2.168.802.06 2.333-.118 2.703-.316.472-.251.095-1.096-1.14-2.557-.673-.795-1.184-1.704-1.183-2.105.002-.42.168-.532.752-.511.908.032 1.245-.51.787-1.265-.659-1.086-2.523-1.694-5.864-1.91-1.573-.103-1.958-.107-3.557-.04zm64.982 4.216c-1.987.366-3.939 1.555-4.908 2.99-.996 1.475-1.361 2.679-1.35 4.444.02 3.023 1.5 5.48 4.04 6.712 1.254.608 1.996.763 3.667.764 1.336 0 1.561-.029 2.353-.306 1.292-.453 1.978-.888 2.96-1.879 1.472-1.484 2.134-3.123 2.141-5.295.008-2.483-.934-4.485-2.791-5.935-1.27-.992-2.661-1.476-4.444-1.545-.632-.025-1.383-.002-1.668.05zm16.824.092a5.28 5.28 0 00-2.069 1.308c-.599.611-.716.55-.719-.378l-.001-.578h-3.612v14.09h3.687l.067-4.21c.077-4.86.107-5.055.918-5.927.805-.866 2.15-1.21 3.339-.851.658.198 1.347.874 1.638 1.608.243.611.251.752.288 5.007l.038 4.378 1.825-.03 1.826-.03-.004-4.788c-.005-5.235-.057-5.849-.602-6.998-.582-1.227-1.913-2.221-3.505-2.62-.948-.236-2.405-.227-3.114.02zm14.229-.02c-2.964.614-5.488 3.444-5.733 6.427-.271 3.3 1.276 6.365 3.831 7.59 1.24.596 2.247.8 3.927.797 1.524-.002 2.555-.206 4.016-.794 1.046-.421 2.143-1.082 2.076-1.249-.082-.201-1.097-2.002-1.277-2.265l-.164-.24-.73.335c-1.588.725-3.707 1.108-4.914.887-1.306-.238-2.109-.803-2.58-1.814-.475-1.022-.943-.93 4.911-.962l5.168-.029.144-.605c.173-.725.107-2.18-.141-3.137-.496-1.91-1.772-3.513-3.445-4.328-1.548-.755-3.359-.973-5.089-.614zm51.068-.061c-1.626.292-2.979.996-4.13 2.15-1.981 1.986-2.599 4.813-1.692 7.75.676 2.189 2.442 3.92 4.805 4.713.726.244 1.032.282 2.262.284 1.661.004 2.404-.158 3.721-.807 2.463-1.214 4.019-3.846 4.008-6.776-.008-2.048-.7-3.715-2.147-5.176-.978-.987-1.881-1.526-3.229-1.927-.935-.278-2.661-.38-3.598-.211zm17.072.057c-.798.216-1.788.761-2.422 1.334-.287.26-.553.474-.589.474-.036 0-.066-.347-.066-.771v-.77h-3.502v14.204l1.833-.03 1.833-.03.011-3.908c.006-2.149.045-4.182.087-4.517.143-1.145.889-2.104 1.921-2.47 1.304-.463 2.796-.046 3.478.973.194.29.403.709.464.931.067.244.112 2.125.113 4.726v4.32h3.701l.078-.94c.043-.518.052-2.76.021-4.982-.063-4.368-.109-4.765-.688-5.915-.588-1.17-2.191-2.343-3.67-2.686-.68-.158-1.909-.13-2.603.057zm-59.502.302c-.034.09.02.325.121.521.1.197.319.684.486 1.084.167.4.732 1.692 1.257 2.872 2.525 5.685 3.89 8.864 3.954 9.208.188 1.006-.656 2.225-1.847 2.666-.746.276-1.71.306-2.367.072-.35-.124-.466-.13-.499-.027-.049.152-.605 2.805-.605 2.885 0 .102.94.533 1.478.677 1.111.299 2.638.127 3.697-.416.671-.345 1.882-1.57 2.434-2.46.262-.425.697-1.292.966-1.928.468-1.104 2.776-7.12 4.867-12.685l.983-2.615h-1.826c-2.013 0-2.155.04-2.494.695-.1.193-.537 1.44-.972 2.773a236.299 236.299 0 01-1.367 4.059l-.576 1.638-.643-1.638c-1.647-4.197-2.866-7.09-3.067-7.272-.189-.173-.467-.205-2.068-.236-1.563-.031-1.859-.012-1.912.127zm31.035 7.12v7.044h3.611V15.952h-3.611v7.044zm-137.46-5.38c-1.646.088-3.459.372-4.231.663-1.027.386-1.67 1.416-1.532 2.458.08.61.538.972 1.59 1.255 2.891.779 5.559.529 7.366-.69.369-.25.771-.59.895-.756l.224-.303-.24-.75c-.28-.873-.846-1.605-1.364-1.764-.54-.166-1.21-.194-2.707-.113zm98.295 1.102c-.829.24-1.714 1.027-2.086 1.856-.426.947-.667.88 3.165.88 2.739 0 3.393-.028 3.393-.145 0-.08-.083-.39-.184-.687-.246-.728-1.111-1.597-1.834-1.845-.591-.203-1.853-.232-2.454-.058zm-31.616.438c-.77.297-1.692 1.163-2.075 1.947-.276.565-.306.74-.306 1.784 0 1.085.022 1.205.357 1.887.415.849 1.008 1.43 1.873 1.839.524.246.762.29 1.6.288.861-.002 1.058-.04 1.564-.307 1.196-.63 1.968-1.678 2.202-2.993.328-1.841-.76-3.812-2.457-4.45-.8-.302-1.97-.3-2.758.005zm82.315-.084c-1.913.63-3.036 2.756-2.521 4.776.334 1.31.985 2.177 2.064 2.747.507.268.699.306 1.563.307.858 0 1.074-.04 1.674-.319.863-.4 1.661-1.25 2.005-2.13.187-.482.248-.869.254-1.625.006-.908-.024-1.056-.353-1.728a3.987 3.987 0 00-1.86-1.855c-.639-.308-2.136-.4-2.826-.173zM34.312 22.12c-.17.183-.393.585-.495.893-.25.76-.179 2.173.141 2.791.24.462.785 1.071 1.212 1.353.23.152.278.147.547-.05.45-.333.677-.88.676-1.633-.003-1.265-.49-2.735-1.117-3.364-.405-.408-.577-.406-.964.01zm-8.324.665c-1.488.73-2.115 1.14-2.271 1.483-.07.155-.127.715-.127 1.247 0 1.206.099 1.32 1.477 1.7 1.76.485 2.04.53 2.628.416.683-.131 2.835-1.272 3.064-1.624.186-.285.219-.59.186-1.725-.03-1-.26-1.236-1.666-1.707-1.496-.501-1.89-.476-3.291.21zm4.872 5.476c-1.661.956-1.844 1.217-2.255 3.219-.175.851-.044 1.03 1.237 1.688.797.41 1.09.51 1.348.458.512-.103 2.35-1.172 2.585-1.503.414-.584.693-2.764.44-3.433-.056-.147-.358-.472-.671-.723-.825-.66-1.071-.633-2.684.294z" fill="#fff"/></svg>