<svg width="64" height="64" viewBox="0 0 64 64" fill="none" xmlns="http://www.w3.org/2000/svg">
<rect width="64" height="64" rx="32" transform="matrix(4.37114e-08 1 1 -4.37114e-08 0 0)" fill="#101318"/>
<path fill-rule="evenodd" clip-rule="evenodd" d="M34.0909 35.7348C34.4968 36.1094 35.1294 36.0841 35.504 35.6783L38.7348 32.1783C39.0884 31.7953 39.0884 31.2048 38.7348 30.8218L35.504 27.3217C35.1294 26.9159 34.4968 26.8906 34.091 27.2652C33.6851 27.6398 33.6598 28.2724 34.0344 28.6783L35.716 30.5L26 30.5C25.4477 30.5 25 30.9477 25 31.5C25 32.0523 25.4477 32.5 26 32.5L35.716 32.5L34.0344 34.3217C33.6598 34.7275 33.6851 35.3602 34.0909 35.7348Z" fill="#777E91"/>
<rect x="1" y="1" width="62" height="62" rx="31" transform="matrix(4.37114e-08 1 1 -4.37114e-08 4.37114e-08 -4.37114e-08)" stroke="url(#paint0_linear_1506_11950)" stroke-opacity="0.5" stroke-width="2"/>
<defs>
<linearGradient id="paint0_linear_1506_11950" x1="70.2507" y1="5.62162" x2="-5.44062" y2="8.74597" gradientUnits="userSpaceOnUse">
<stop stop-color="#FF35D3"/>
<stop offset="0.484757" stop-color="#5E2EE6"/>
<stop offset="1" stop-color="#26C3CD"/>
</linearGradient>
</defs>
</svg>
