<svg width="178" height="32" viewBox="0 0 178 32" fill="none" xmlns="http://www.w3.org/2000/svg">
<g clip-path="url(#clip0_532_19036)">
<path d="M13.5834 0.780821C14.2494 0.426858 15.0526 0.909603 15.0526 1.66387V3.39901C15.0526 3.76885 14.8485 4.10848 14.5219 4.28205L1.46931 11.2191C0.803249 11.5731 0 11.0904 0 10.3361V8.60094C0 8.23113 0.204088 7.89151 0.530627 7.71794L4.10526 5.81778L13.5834 0.780821Z" fill="white"/>
<path d="M13.5833 7.44593C14.2494 7.09194 15.0526 7.57468 15.0526 8.32896V10.064C15.0526 10.4339 14.8485 10.7735 14.5219 10.9471L4.63598 16.2008C4.30939 16.3743 4.10526 16.714 4.10526 17.0838V26.1563C4.10526 26.9497 3.2258 27.4271 2.56053 26.995L0.455263 25.6274C0.171325 25.443 0 25.1274 0 24.7888V15.266C0 14.8962 0.204118 14.5566 0.530694 14.383L13.5833 7.44593Z" fill="white"/>
<path d="M25.4793 7.71345C25.8002 7.88878 25.9998 8.22531 25.9998 8.59101V24.7883C25.9998 25.1269 25.8285 25.4425 25.5445 25.6269L23.4393 26.9944C22.774 27.4266 21.8945 26.9491 21.8945 26.1558V7.44077C21.8945 6.6814 22.7076 6.19912 23.374 6.56321L25.4793 7.71345Z" fill="white"/>
<path d="M17.6698 12.0868C18.3363 11.7159 19.156 12.1978 19.156 12.9606V28.7924C19.156 29.131 18.9847 29.4466 18.7008 29.631L16.5955 30.9986C15.9302 31.4307 15.0508 30.9533 15.0508 30.16V14.1321C15.0508 13.7692 15.2474 13.4348 15.5645 13.2583L17.6698 12.0868Z" fill="white"/>
<path d="M19.156 11.2549V11.2564L15.0508 13.5408L19.156 11.2549Z" fill="white"/>
<path d="M10.8297 15.8932C11.4963 15.522 12.3162 16.0039 12.3162 16.7668V30.1567C12.3162 30.95 11.4367 31.4275 10.7715 30.9953L8.6662 29.6278C8.38226 29.4434 8.21094 29.1278 8.21094 28.7892V17.9391C8.21094 17.5763 8.40746 17.2419 8.72445 17.0654L10.8297 15.8932Z" fill="white"/>
<path d="M12.3162 15.0654L8.21094 17.3514V17.3321L12.3162 15.0654Z" fill="white"/>
</g>
<path d="M36.86 23.16C36.4467 23.16 36.12 23.0467 35.88 22.82C35.6533 22.58 35.54 22.24 35.54 21.8V10.26C35.54 9.82 35.6533 9.48667 35.88 9.26C36.12 9.02 36.46 8.9 36.9 8.9H43.88C44.2267 8.9 44.4867 8.98667 44.66 9.16C44.8333 9.33333 44.92 9.58 44.92 9.9C44.92 10.2333 44.8333 10.4933 44.66 10.68C44.4867 10.8533 44.2267 10.94 43.88 10.94H38.1V14.92H43.46C43.7933 14.92 44.0467 15.0067 44.22 15.18C44.4067 15.3533 44.5 15.6 44.5 15.92C44.5 16.2533 44.4067 16.5133 44.22 16.7C44.0467 16.8733 43.7933 16.96 43.46 16.96H38.1V21.8C38.1 22.7067 37.6867 23.16 36.86 23.16ZM48.1713 23.14C47.7713 23.14 47.4646 23.02 47.2513 22.78C47.0379 22.54 46.9313 22.2067 46.9313 21.78V14.44C46.9313 14 47.0379 13.6667 47.2513 13.44C47.4646 13.2 47.7713 13.08 48.1713 13.08C48.5713 13.08 48.8779 13.2 49.0913 13.44C49.3179 13.6667 49.4313 14 49.4313 14.44V21.78C49.4313 22.2067 49.3246 22.54 49.1113 22.78C48.8979 23.02 48.5846 23.14 48.1713 23.14ZM48.1713 11.22C47.7046 11.22 47.3379 11.1067 47.0713 10.88C46.8179 10.64 46.6913 10.3133 46.6913 9.9C46.6913 9.47333 46.8179 9.14667 47.0713 8.92C47.3379 8.69333 47.7046 8.58 48.1713 8.58C48.6513 8.58 49.0179 8.69333 49.2713 8.92C49.5246 9.14667 49.6513 9.47333 49.6513 9.9C49.6513 10.3133 49.5246 10.64 49.2713 10.88C49.0179 11.1067 48.6513 11.22 48.1713 11.22ZM56.1089 23.2C55.2422 23.2 54.5156 23.0533 53.9289 22.76C53.3556 22.4667 52.9289 22.04 52.6489 21.48C52.3689 20.9067 52.2289 20.2 52.2289 19.36V15.1H51.1889C50.8689 15.1 50.6222 15.02 50.4489 14.86C50.2756 14.6867 50.1889 14.4533 50.1889 14.16C50.1889 13.8533 50.2756 13.62 50.4489 13.46C50.6222 13.3 50.8689 13.22 51.1889 13.22H52.2289V11.4C52.2289 10.9867 52.3356 10.6733 52.5489 10.46C52.7756 10.2467 53.0889 10.14 53.4889 10.14C53.8889 10.14 54.1956 10.2467 54.4089 10.46C54.6222 10.6733 54.7289 10.9867 54.7289 11.4V13.22H56.8489C57.1689 13.22 57.4156 13.3 57.5889 13.46C57.7622 13.62 57.8489 13.8533 57.8489 14.16C57.8489 14.4533 57.7622 14.6867 57.5889 14.86C57.4156 15.02 57.1689 15.1 56.8489 15.1H54.7289V19.22C54.7289 19.86 54.8689 20.34 55.1489 20.66C55.4289 20.98 55.8822 21.14 56.5089 21.14C56.7356 21.14 56.9356 21.12 57.1089 21.08C57.2822 21.04 57.4356 21.0133 57.5689 21C57.7289 20.9867 57.8622 21.04 57.9689 21.16C58.0756 21.2667 58.1289 21.4933 58.1289 21.84C58.1289 22.1067 58.0822 22.3467 57.9889 22.56C57.9089 22.76 57.7556 22.9 57.5289 22.98C57.3556 23.0333 57.1289 23.08 56.8489 23.12C56.5689 23.1733 56.3222 23.2 56.1089 23.2ZM60.1447 23.16C59.7447 23.16 59.438 23.0533 59.2247 22.84C59.0114 22.6133 58.9047 22.2933 58.9047 21.88V14.32C58.9047 13.9067 59.0114 13.5933 59.2247 13.38C59.438 13.1667 59.738 13.06 60.1247 13.06C60.5114 13.06 60.8114 13.1667 61.0247 13.38C61.238 13.5933 61.3447 13.9067 61.3447 14.32V15.68L61.1247 15.18C61.418 14.4733 61.8714 13.94 62.4847 13.58C63.1114 13.2067 63.818 13.02 64.6047 13.02C65.3914 13.02 66.038 13.1667 66.5447 13.46C67.0514 13.7533 67.4314 14.2 67.6847 14.8C67.938 15.3867 68.0647 16.1333 68.0647 17.04V21.88C68.0647 22.2933 67.958 22.6133 67.7447 22.84C67.5314 23.0533 67.2247 23.16 66.8247 23.16C66.4247 23.16 66.1114 23.0533 65.8847 22.84C65.6714 22.6133 65.5647 22.2933 65.5647 21.88V17.16C65.5647 16.4 65.418 15.8467 65.1247 15.5C64.8447 15.1533 64.4047 14.98 63.8047 14.98C63.0714 14.98 62.4847 15.2133 62.0447 15.68C61.618 16.1333 61.4047 16.74 61.4047 17.5V21.88C61.4047 22.7333 60.9847 23.16 60.1447 23.16ZM75.0239 23.2C73.9172 23.2 72.9639 22.9933 72.1639 22.58C71.3639 22.1667 70.7439 21.58 70.3039 20.82C69.8772 20.06 69.6639 19.16 69.6639 18.12C69.6639 17.1067 69.8706 16.22 70.2839 15.46C70.7106 14.7 71.2906 14.1067 72.0239 13.68C72.7706 13.24 73.6172 13.02 74.5639 13.02C75.2572 13.02 75.8772 13.1333 76.4239 13.36C76.9839 13.5867 77.4572 13.9133 77.8439 14.34C78.2439 14.7667 78.5439 15.2867 78.7439 15.9C78.9572 16.5 79.0639 17.18 79.0639 17.94C79.0639 18.18 78.9772 18.3667 78.8039 18.5C78.6439 18.62 78.4106 18.68 78.1039 18.68H71.6839V17.24H77.3039L76.9839 17.54C76.9839 16.9267 76.8906 16.4133 76.7039 16C76.5306 15.5867 76.2706 15.2733 75.9239 15.06C75.5906 14.8333 75.1706 14.72 74.6639 14.72C74.1039 14.72 73.6239 14.8533 73.2239 15.12C72.8372 15.3733 72.5372 15.74 72.3239 16.22C72.1239 16.6867 72.0239 17.2467 72.0239 17.9V18.04C72.0239 19.1333 72.2772 19.9533 72.7839 20.5C73.3039 21.0333 74.0639 21.3 75.0639 21.3C75.4106 21.3 75.7972 21.26 76.2239 21.18C76.6639 21.0867 77.0772 20.9333 77.4639 20.72C77.7439 20.56 77.9906 20.4933 78.2039 20.52C78.4172 20.5333 78.5839 20.6067 78.7039 20.74C78.8372 20.8733 78.9172 21.04 78.9439 21.24C78.9706 21.4267 78.9306 21.62 78.8239 21.82C78.7306 22.02 78.5639 22.1933 78.3239 22.34C77.8572 22.6333 77.3172 22.8533 76.7039 23C76.1039 23.1333 75.5439 23.2 75.0239 23.2ZM84.2238 23.2C83.6504 23.2 83.0438 23.14 82.4038 23.02C81.7638 22.9 81.1904 22.6933 80.6838 22.4C80.4704 22.2667 80.3171 22.1133 80.2238 21.94C80.1438 21.7533 80.1104 21.5733 80.1238 21.4C80.1504 21.2133 80.2171 21.0533 80.3238 20.92C80.4438 20.7867 80.5904 20.7 80.7638 20.66C80.9504 20.62 81.1504 20.6533 81.3638 20.76C81.8971 21.0133 82.3971 21.1933 82.8638 21.3C83.3304 21.3933 83.7904 21.44 84.2438 21.44C84.8838 21.44 85.3571 21.3333 85.6638 21.12C85.9838 20.8933 86.1438 20.6 86.1438 20.24C86.1438 19.9333 86.0371 19.7 85.8238 19.54C85.6238 19.3667 85.3171 19.24 84.9038 19.16L82.9038 18.78C82.0771 18.62 81.4438 18.32 81.0038 17.88C80.5771 17.4267 80.3638 16.8467 80.3638 16.14C80.3638 15.5 80.5371 14.9467 80.8838 14.48C81.2438 14.0133 81.7371 13.6533 82.3638 13.4C82.9904 13.1467 83.7104 13.02 84.5238 13.02C85.1104 13.02 85.6571 13.0867 86.1638 13.22C86.6838 13.34 87.1838 13.5333 87.6638 13.8C87.8638 13.9067 87.9971 14.0467 88.0638 14.22C88.1438 14.3933 88.1638 14.5733 88.1238 14.76C88.0838 14.9333 88.0038 15.0933 87.8838 15.24C87.7638 15.3733 87.6104 15.46 87.4238 15.5C87.2504 15.5267 87.0504 15.4867 86.8238 15.38C86.4104 15.1667 86.0104 15.0133 85.6238 14.92C85.2504 14.8267 84.8904 14.78 84.5438 14.78C83.8904 14.78 83.4038 14.8933 83.0838 15.12C82.7771 15.3467 82.6238 15.6467 82.6238 16.02C82.6238 16.3 82.7171 16.5333 82.9038 16.72C83.0904 16.9067 83.3771 17.0333 83.7638 17.1L85.7638 17.48C86.6304 17.64 87.2838 17.9333 87.7238 18.36C88.1771 18.7867 88.4038 19.36 88.4038 20.08C88.4038 21.0533 88.0238 21.82 87.2638 22.38C86.5038 22.9267 85.4904 23.2 84.2238 23.2ZM93.5894 23.2C93.016 23.2 92.4094 23.14 91.7694 23.02C91.1294 22.9 90.556 22.6933 90.0494 22.4C89.836 22.2667 89.6827 22.1133 89.5894 21.94C89.5094 21.7533 89.476 21.5733 89.4894 21.4C89.516 21.2133 89.5827 21.0533 89.6894 20.92C89.8094 20.7867 89.956 20.7 90.1294 20.66C90.316 20.62 90.516 20.6533 90.7294 20.76C91.2627 21.0133 91.7627 21.1933 92.2294 21.3C92.696 21.3933 93.156 21.44 93.6094 21.44C94.2494 21.44 94.7227 21.3333 95.0294 21.12C95.3494 20.8933 95.5094 20.6 95.5094 20.24C95.5094 19.9333 95.4027 19.7 95.1894 19.54C94.9894 19.3667 94.6827 19.24 94.2694 19.16L92.2694 18.78C91.4427 18.62 90.8094 18.32 90.3694 17.88C89.9427 17.4267 89.7294 16.8467 89.7294 16.14C89.7294 15.5 89.9027 14.9467 90.2494 14.48C90.6094 14.0133 91.1027 13.6533 91.7294 13.4C92.356 13.1467 93.076 13.02 93.8894 13.02C94.476 13.02 95.0227 13.0867 95.5294 13.22C96.0494 13.34 96.5494 13.5333 97.0294 13.8C97.2294 13.9067 97.3627 14.0467 97.4294 14.22C97.5094 14.3933 97.5294 14.5733 97.4894 14.76C97.4494 14.9333 97.3694 15.0933 97.2494 15.24C97.1294 15.3733 96.976 15.46 96.7894 15.5C96.616 15.5267 96.416 15.4867 96.1894 15.38C95.776 15.1667 95.376 15.0133 94.9894 14.92C94.616 14.8267 94.256 14.78 93.9094 14.78C93.256 14.78 92.7694 14.8933 92.4494 15.12C92.1427 15.3467 91.9894 15.6467 91.9894 16.02C91.9894 16.3 92.0827 16.5333 92.2694 16.72C92.456 16.9067 92.7427 17.0333 93.1294 17.1L95.1294 17.48C95.996 17.64 96.6494 17.9333 97.0894 18.36C97.5427 18.7867 97.7694 19.36 97.7694 20.08C97.7694 21.0533 97.3894 21.82 96.6294 22.38C95.8694 22.9267 94.856 23.2 93.5894 23.2ZM106.005 23C105.565 23 105.225 22.8867 104.985 22.66C104.758 22.42 104.645 22.08 104.645 21.64V10.26C104.645 9.82 104.758 9.48667 104.985 9.26C105.225 9.02 105.565 8.9 106.005 8.9H113.145C113.478 8.9 113.731 8.98667 113.905 9.16C114.091 9.33333 114.185 9.58 114.185 9.9C114.185 10.2333 114.091 10.4933 113.905 10.68C113.731 10.8533 113.478 10.94 113.145 10.94H107.105V14.82H112.705C113.051 14.82 113.311 14.9067 113.485 15.08C113.658 15.2533 113.745 15.5067 113.745 15.84C113.745 16.1733 113.658 16.4267 113.485 16.6C113.311 16.7733 113.051 16.86 112.705 16.86H107.105V20.96H113.145C113.478 20.96 113.731 21.0467 113.905 21.22C114.091 21.3933 114.185 21.6467 114.185 21.98C114.185 22.3133 114.091 22.5667 113.905 22.74C113.731 22.9133 113.478 23 113.145 23H106.005ZM117.218 23.16C116.818 23.16 116.512 23.0533 116.298 22.84C116.085 22.6133 115.978 22.2933 115.978 21.88V14.32C115.978 13.9067 116.085 13.5933 116.298 13.38C116.512 13.1667 116.812 13.06 117.198 13.06C117.585 13.06 117.885 13.1667 118.098 13.38C118.312 13.5933 118.418 13.9067 118.418 14.32V15.78L118.198 15.18C118.465 14.5133 118.878 13.9867 119.438 13.6C119.998 13.2133 120.665 13.02 121.438 13.02C122.225 13.02 122.872 13.2067 123.378 13.58C123.885 13.9533 124.238 14.5267 124.438 15.3H124.158C124.425 14.5933 124.865 14.04 125.478 13.64C126.092 13.2267 126.798 13.02 127.598 13.02C128.345 13.02 128.958 13.1667 129.438 13.46C129.932 13.7533 130.298 14.2 130.538 14.8C130.778 15.3867 130.898 16.1333 130.898 17.04V21.88C130.898 22.2933 130.785 22.6133 130.558 22.84C130.345 23.0533 130.038 23.16 129.638 23.16C129.238 23.16 128.932 23.0533 128.718 22.84C128.505 22.6133 128.398 22.2933 128.398 21.88V17.14C128.398 16.3933 128.272 15.8467 128.018 15.5C127.778 15.1533 127.365 14.98 126.778 14.98C126.125 14.98 125.612 15.2133 125.238 15.68C124.865 16.1333 124.678 16.7667 124.678 17.58V21.88C124.678 22.2933 124.572 22.6133 124.358 22.84C124.145 23.0533 123.838 23.16 123.438 23.16C123.038 23.16 122.725 23.0533 122.498 22.84C122.285 22.6133 122.178 22.2933 122.178 21.88V17.14C122.178 16.3933 122.052 15.8467 121.798 15.5C121.558 15.1533 121.152 14.98 120.578 14.98C119.925 14.98 119.412 15.2133 119.038 15.68C118.665 16.1333 118.478 16.7667 118.478 17.58V21.88C118.478 22.7333 118.058 23.16 117.218 23.16ZM137.537 23.2C136.524 23.2 135.644 22.9933 134.897 22.58C134.151 22.1667 133.571 21.58 133.157 20.82C132.744 20.0467 132.537 19.14 132.537 18.1C132.537 17.3133 132.651 16.6133 132.877 16C133.117 15.3733 133.457 14.84 133.897 14.4C134.337 13.9467 134.864 13.6067 135.477 13.38C136.091 13.14 136.777 13.02 137.537 13.02C138.551 13.02 139.431 13.2267 140.177 13.64C140.924 14.0533 141.504 14.64 141.917 15.4C142.331 16.16 142.537 17.06 142.537 18.1C142.537 18.8867 142.417 19.5933 142.177 20.22C141.951 20.8467 141.617 21.3867 141.177 21.84C140.737 22.28 140.211 22.62 139.597 22.86C138.984 23.0867 138.297 23.2 137.537 23.2ZM137.537 21.3C138.031 21.3 138.464 21.18 138.837 20.94C139.211 20.7 139.497 20.3467 139.697 19.88C139.911 19.4 140.017 18.8067 140.017 18.1C140.017 17.0333 139.791 16.24 139.337 15.72C138.884 15.1867 138.284 14.92 137.537 14.92C137.044 14.92 136.611 15.04 136.237 15.28C135.864 15.5067 135.571 15.86 135.357 16.34C135.157 16.8067 135.057 17.3933 135.057 18.1C135.057 19.1533 135.284 19.9533 135.737 20.5C136.191 21.0333 136.791 21.3 137.537 21.3ZM148.583 23.2C147.716 23.2 146.99 23.0533 146.403 22.76C145.83 22.4667 145.403 22.04 145.123 21.48C144.843 20.9067 144.703 20.2 144.703 19.36V15.1H143.663C143.343 15.1 143.096 15.02 142.923 14.86C142.75 14.6867 142.663 14.4533 142.663 14.16C142.663 13.8533 142.75 13.62 142.923 13.46C143.096 13.3 143.343 13.22 143.663 13.22H144.703V11.4C144.703 10.9867 144.81 10.6733 145.023 10.46C145.25 10.2467 145.563 10.14 145.963 10.14C146.363 10.14 146.67 10.2467 146.883 10.46C147.096 10.6733 147.203 10.9867 147.203 11.4V13.22H149.323C149.643 13.22 149.89 13.3 150.063 13.46C150.236 13.62 150.323 13.8533 150.323 14.16C150.323 14.4533 150.236 14.6867 150.063 14.86C149.89 15.02 149.643 15.1 149.323 15.1H147.203V19.22C147.203 19.86 147.343 20.34 147.623 20.66C147.903 20.98 148.356 21.14 148.983 21.14C149.21 21.14 149.41 21.12 149.583 21.08C149.756 21.04 149.91 21.0133 150.043 21C150.203 20.9867 150.336 21.04 150.443 21.16C150.55 21.2667 150.603 21.4933 150.603 21.84C150.603 22.1067 150.556 22.3467 150.463 22.56C150.383 22.76 150.23 22.9 150.003 22.98C149.83 23.0333 149.603 23.08 149.323 23.12C149.043 23.1733 148.796 23.2 148.583 23.2ZM152.873 23.14C152.473 23.14 152.166 23.02 151.953 22.78C151.739 22.54 151.633 22.2067 151.633 21.78V14.44C151.633 14 151.739 13.6667 151.953 13.44C152.166 13.2 152.473 13.08 152.873 13.08C153.273 13.08 153.579 13.2 153.793 13.44C154.019 13.6667 154.133 14 154.133 14.44V21.78C154.133 22.2067 154.026 22.54 153.813 22.78C153.599 23.02 153.286 23.14 152.873 23.14ZM152.873 11.22C152.406 11.22 152.039 11.1067 151.773 10.88C151.519 10.64 151.393 10.3133 151.393 9.9C151.393 9.47333 151.519 9.14667 151.773 8.92C152.039 8.69333 152.406 8.58 152.873 8.58C153.353 8.58 153.719 8.69333 153.973 8.92C154.226 9.14667 154.353 9.47333 154.353 9.9C154.353 10.3133 154.226 10.64 153.973 10.88C153.719 11.1067 153.353 11.22 152.873 11.22ZM160.79 23.2C159.777 23.2 158.897 22.9933 158.15 22.58C157.404 22.1667 156.824 21.58 156.41 20.82C155.997 20.0467 155.79 19.14 155.79 18.1C155.79 17.3133 155.904 16.6133 156.13 16C156.37 15.3733 156.71 14.84 157.15 14.4C157.59 13.9467 158.117 13.6067 158.73 13.38C159.344 13.14 160.03 13.02 160.79 13.02C161.804 13.02 162.684 13.2267 163.43 13.64C164.177 14.0533 164.757 14.64 165.17 15.4C165.584 16.16 165.79 17.06 165.79 18.1C165.79 18.8867 165.67 19.5933 165.43 20.22C165.204 20.8467 164.87 21.3867 164.43 21.84C163.99 22.28 163.464 22.62 162.85 22.86C162.237 23.0867 161.55 23.2 160.79 23.2ZM160.79 21.3C161.284 21.3 161.717 21.18 162.09 20.94C162.464 20.7 162.75 20.3467 162.95 19.88C163.164 19.4 163.27 18.8067 163.27 18.1C163.27 17.0333 163.044 16.24 162.59 15.72C162.137 15.1867 161.537 14.92 160.79 14.92C160.297 14.92 159.864 15.04 159.49 15.28C159.117 15.5067 158.824 15.86 158.61 16.34C158.41 16.8067 158.31 17.3933 158.31 18.1C158.31 19.1533 158.537 19.9533 158.99 20.5C159.444 21.0333 160.044 21.3 160.79 21.3ZM168.694 23.16C168.294 23.16 167.987 23.0533 167.774 22.84C167.561 22.6133 167.454 22.2933 167.454 21.88V14.32C167.454 13.9067 167.561 13.5933 167.774 13.38C167.987 13.1667 168.287 13.06 168.674 13.06C169.061 13.06 169.361 13.1667 169.574 13.38C169.787 13.5933 169.894 13.9067 169.894 14.32V15.68L169.674 15.18C169.967 14.4733 170.421 13.94 171.034 13.58C171.661 13.2067 172.367 13.02 173.154 13.02C173.941 13.02 174.587 13.1667 175.094 13.46C175.601 13.7533 175.981 14.2 176.234 14.8C176.487 15.3867 176.614 16.1333 176.614 17.04V21.88C176.614 22.2933 176.507 22.6133 176.294 22.84C176.081 23.0533 175.774 23.16 175.374 23.16C174.974 23.16 174.661 23.0533 174.434 22.84C174.221 22.6133 174.114 22.2933 174.114 21.88V17.16C174.114 16.4 173.967 15.8467 173.674 15.5C173.394 15.1533 172.954 14.98 172.354 14.98C171.621 14.98 171.034 15.2133 170.594 15.68C170.167 16.1333 169.954 16.74 169.954 17.5V21.88C169.954 22.7333 169.534 23.16 168.694 23.16Z" fill="#F4F5F6"/>
<defs>
<clipPath id="clip0_532_19036">
<rect width="26" height="32" fill="white"/>
</clipPath>
</defs>
</svg>
