<svg width="660" height="554" viewBox="0 0 660 554" fill="none" xmlns="http://www.w3.org/2000/svg">
<path d="M327.328 503.812V502.133C330.667 502.133 334.056 502.063 337.404 501.929L337.471 503.609C334.1 503.742 330.689 503.811 327.328 503.812ZM317.188 503.618C313.83 503.487 310.425 503.282 307.064 503.021L307.196 501.347C310.535 501.61 313.919 501.81 317.254 501.94L317.188 503.618ZM347.593 502.999L347.46 501.325C350.793 501.059 354.165 500.719 357.484 500.317L357.686 501.985C354.344 502.389 350.95 502.729 347.593 502.997V502.999ZM296.971 502.02C293.623 501.619 290.244 501.146 286.927 500.613L287.193 498.955C290.487 499.484 293.844 499.954 297.17 500.352L296.971 502.02ZM367.727 500.568L367.459 498.91C370.753 498.377 374.088 497.769 377.368 497.101L377.704 498.746C374.399 499.418 371.041 500.032 367.726 500.568H367.727ZM276.947 498.805C273.642 498.133 270.314 497.39 267.048 496.591L267.448 494.96C270.69 495.754 273.998 496.494 277.28 497.158L276.947 498.805ZM387.602 496.523L387.2 494.894C390.452 494.093 393.726 493.214 396.931 492.291L397.399 493.904C394.171 494.839 390.874 495.722 387.602 496.527V496.523ZM257.248 493.979C254.01 493.045 250.75 492.033 247.561 490.971L248.092 489.376C251.26 490.431 254.497 491.436 257.714 492.364L257.248 493.979ZM407.082 490.882L406.549 489.286C409.719 488.226 412.911 487.088 416.038 485.9L416.635 487.469C413.487 488.666 410.272 489.813 407.081 490.879L407.082 490.882ZM237.978 487.563C234.827 486.369 231.654 485.094 228.546 483.769L229.204 482.224C232.291 483.538 235.444 484.806 238.574 485.991L237.978 487.563ZM426.016 483.69L425.357 482.145C428.427 480.834 431.51 479.444 434.518 478.013L435.24 479.531C432.211 480.971 429.11 482.37 426.016 483.69ZM219.278 479.594C216.227 478.145 213.169 476.617 210.188 475.05L210.97 473.564C213.931 475.12 216.968 476.638 219.998 478.076L219.278 479.594ZM444.294 474.996L443.511 473.51C446.469 471.953 449.432 470.319 452.316 468.649L453.156 470.102C450.251 471.781 447.269 473.429 444.291 474.996L444.294 474.996ZM201.292 470.144C198.366 468.452 195.443 466.683 192.604 464.884L193.502 463.466C196.321 465.252 199.225 467.01 202.132 468.691L201.292 470.144ZM461.82 464.854L460.921 463.436C463.737 461.652 466.56 459.783 469.312 457.88L470.267 459.262C467.496 461.178 464.654 463.059 461.82 464.855V464.854ZM184.136 459.28C181.359 457.361 178.589 455.364 175.903 453.343L176.911 451.999C179.579 454.007 182.331 455.991 185.089 457.897L184.136 459.28ZM478.488 453.333L477.481 451.99C480.143 449.987 482.809 447.897 485.405 445.776L486.468 447.077C483.856 449.211 481.171 451.316 478.491 453.331L478.488 453.333ZM167.919 447.081C165.312 444.951 162.713 442.738 160.194 440.505L161.308 439.245C163.812 441.464 166.395 443.662 168.984 445.777L167.919 447.081ZM494.185 440.509L493.072 439.249C495.573 437.032 498.065 434.733 500.475 432.418L501.638 433.63C499.212 435.959 496.704 438.273 494.185 440.505V440.509ZM152.736 433.623C150.313 431.297 147.9 428.883 145.562 426.453L146.772 425.289C149.095 427.704 151.492 430.1 153.898 432.411L152.736 433.623ZM508.813 426.46L507.603 425.295C509.918 422.888 512.221 420.398 514.44 417.893L515.7 419.008C513.463 421.527 511.147 424.036 508.814 426.46H508.813ZM138.68 419.004C136.441 416.48 134.23 413.882 132.104 411.286L133.405 410.223C135.514 412.803 137.712 415.384 139.936 417.889L138.68 419.004ZM522.274 411.284L520.974 410.221C523.096 407.627 525.19 404.958 527.199 402.291L528.543 403.299C526.521 405.986 524.411 408.673 522.276 411.282L522.274 411.284ZM125.846 403.314C123.823 400.627 121.826 397.864 119.913 395.099L121.294 394.143C123.195 396.89 125.178 399.635 127.188 402.304L125.846 403.314ZM534.483 395.071L533.102 394.116C535.009 391.358 536.881 388.529 538.673 385.708L540.091 386.606C538.29 389.449 536.403 392.297 534.482 395.074L534.483 395.071ZM114.317 386.657C112.518 383.82 110.75 380.906 109.065 377.997L110.518 377.158C112.192 380.047 113.948 382.942 115.735 385.76L114.317 386.657ZM545.359 377.924L543.906 377.085C545.586 374.179 547.228 371.207 548.784 368.25L550.27 369.033C548.705 372.009 547.053 375.001 545.36 377.926L545.359 377.924ZM104.167 369.133C102.603 366.162 101.076 363.117 99.6331 360.084L101.15 359.362C102.585 362.376 104.101 365.4 105.654 368.351L104.167 369.133ZM554.815 359.945L553.298 359.224C554.736 356.201 556.132 353.103 557.447 350.02L558.992 350.679C557.67 353.779 556.261 356.9 554.815 359.945L554.815 359.945ZM95.4632 350.864C94.1407 347.77 92.8661 344.616 91.6754 341.485L93.2447 340.888C94.4279 343.994 95.6941 347.132 97.0073 350.203L95.4632 350.864ZM562.792 341.247L561.222 340.652C562.413 337.51 563.554 334.308 564.613 331.135L566.208 331.667C565.139 334.862 563.991 338.085 562.792 341.247H562.792ZM88.2621 331.932C87.1931 328.741 86.1754 325.482 85.2392 322.251L86.8522 321.783C87.7834 324.992 88.7944 328.228 89.8566 331.399L88.2621 331.932ZM569.219 321.98L567.605 321.514C568.528 318.31 569.407 315.035 570.208 311.781L571.838 312.181C571.031 315.458 570.151 318.755 569.219 321.98H569.219ZM82.6076 312.454C81.8007 309.184 81.0508 305.856 80.3774 302.56L82.0232 302.224C82.6949 305.499 83.4364 308.805 84.2375 312.053L82.6076 312.454ZM574.055 302.285L572.409 301.95C573.073 298.675 573.68 295.344 574.212 292.041L575.871 292.308C575.334 295.636 574.724 298.993 574.055 302.287V302.285ZM78.5469 292.583C78.0087 289.268 77.5301 285.889 77.1237 282.541L78.7904 282.34C79.1935 285.666 79.6696 289.021 80.2045 292.314L78.5469 292.583ZM577.28 282.261L575.612 282.061C576.012 278.736 576.348 275.363 576.612 272.037L578.286 272.169C578.02 275.519 577.681 278.914 577.279 282.261H577.28ZM76.1118 272.451C75.8406 269.097 75.6341 265.691 75.498 262.326L77.1774 262.258C77.3134 265.6 77.5183 268.984 77.7878 272.316L76.1118 272.451ZM578.896 262.047L577.217 261.981C577.348 258.634 577.415 255.245 577.415 251.904V251.348H579.094V251.9C579.093 255.266 579.026 258.677 578.893 262.047H578.896ZM76.9616 252.186H75.2822V251.903C75.2822 248.629 75.3461 245.309 75.472 242.046L77.1514 242.111C77.0271 245.353 76.9633 248.649 76.9633 251.907L76.9616 252.186ZM577.191 241.28C577.053 237.945 576.845 234.562 576.571 231.223L578.245 231.086C578.52 234.445 578.73 237.853 578.869 241.21L577.191 241.28ZM77.7384 232.053L76.064 231.922C76.3277 228.564 76.6636 225.164 77.0607 221.828L78.7283 222.027C78.3336 225.34 78.0011 228.713 77.7383 232.053L77.7384 232.053ZM575.549 221.2C575.144 217.889 574.665 214.533 574.122 211.227L575.78 210.956C576.323 214.284 576.807 217.662 577.213 220.997L575.549 221.2ZM80.1189 212.048L78.4605 211.782C78.9928 208.457 79.5999 205.099 80.2658 201.802L81.9116 202.138C81.2499 205.413 80.647 208.749 80.118 212.052L80.1189 212.048ZM572.297 201.317C571.625 198.036 570.875 194.73 570.072 191.493L571.702 191.089C572.51 194.35 573.263 197.678 573.942 200.981L572.297 201.317ZM84.1048 192.3L82.4733 191.901C83.2719 188.632 84.1527 185.335 85.0806 182.098L86.6944 182.562C85.7683 185.78 84.8983 189.055 84.1049 192.302L84.1048 192.3ZM567.45 181.764C566.516 178.556 565.502 175.322 564.436 172.15L566.031 171.615C567.103 174.806 568.125 178.064 569.065 181.293L567.45 181.764ZM89.6771 172.942L88.0817 172.412C89.1447 169.214 90.2892 165.99 91.4841 162.828L93.0551 163.421C91.8693 166.562 90.7324 169.765 89.6769 172.942L89.6771 172.942ZM561.029 162.667C559.836 159.543 558.566 156.41 557.257 153.354L558.8 152.693C560.119 155.769 561.398 158.922 562.599 162.067L561.029 162.667ZM96.8202 154.049L95.2744 153.391C96.5944 150.289 97.9966 147.169 99.4417 144.121L100.959 144.84C99.5239 147.869 98.1309 150.967 96.8201 154.049L96.8202 154.049ZM553.112 144.201C551.674 141.191 550.155 138.168 548.598 135.216L550.082 134.432C551.652 137.403 553.181 140.446 554.628 143.476L553.112 144.201ZM105.467 135.808L103.98 135.028C105.545 132.045 107.195 129.051 108.881 126.128L110.335 126.967C108.661 129.872 107.022 132.846 105.468 135.809L105.467 135.808ZM543.722 126.42C542.042 123.529 540.284 120.637 538.495 117.823L539.912 116.922C541.714 119.755 543.483 122.666 545.174 125.577L543.722 126.42ZM115.554 118.337L114.135 117.439C115.937 114.591 117.821 111.741 119.734 108.969L121.117 109.923C119.216 112.678 117.346 115.508 115.555 118.338L115.554 118.337ZM532.925 109.441C531.02 106.696 529.034 103.952 527.023 101.288L528.366 100.276C530.392 102.963 532.391 105.721 534.308 108.485L532.925 109.441ZM127.01 101.741L125.667 100.734C127.69 98.0401 129.796 95.3523 131.924 92.7434L133.226 93.8056C131.111 96.396 129.02 99.0671 127.012 101.742L127.01 101.741ZM520.796 93.3748C518.678 90.7903 516.477 88.2141 514.256 85.716L515.511 84.6001C517.747 87.115 519.961 89.7088 522.095 92.311L520.796 93.3748ZM139.76 86.1241L138.501 85.0115C140.73 82.4925 143.043 79.9827 145.375 77.5509L146.587 78.7139C144.27 81.1288 141.968 83.6227 139.758 86.1241H139.76ZM507.42 78.3218C505.096 75.9102 502.696 73.5171 500.282 71.2071L501.445 69.9946C503.871 72.3205 506.288 74.7296 508.626 77.1571L507.42 78.3218ZM153.708 71.5833L152.543 70.3733C154.967 68.0415 157.472 65.7256 159.99 63.4879L161.105 64.7474C158.6 66.9667 156.111 69.2674 153.704 71.5841L153.708 71.5833ZM492.871 64.3813C490.362 62.1628 487.776 59.9679 485.187 57.8569L486.249 56.5554C488.852 58.6798 491.455 60.8899 493.983 63.1234L492.871 64.3813ZM168.764 58.2096L167.699 56.9106C170.302 54.7761 172.989 52.6693 175.668 50.6474L176.676 51.9909C174.015 53.9968 171.351 56.0902 168.763 58.2095L168.764 58.2096ZM477.242 51.6458C474.563 49.6347 471.808 47.6539 469.057 45.7562L470.01 44.3741C472.781 46.2844 475.552 48.2786 478.25 50.3031L477.242 51.6458ZM184.838 46.0887L183.88 44.7083C186.651 42.7896 189.489 40.9053 192.322 39.1059L193.222 40.5233C190.408 42.3101 187.587 44.1818 184.837 46.0879L184.838 46.0887ZM460.64 40.1983C457.809 38.4098 454.903 36.6557 452.004 34.9839L452.844 33.5295C455.762 35.2089 458.686 36.9781 461.538 38.7784L460.64 40.1983ZM201.822 35.3029L200.982 33.8503C203.886 32.1667 206.867 30.5167 209.841 28.9474L210.625 30.4328C207.667 31.9912 204.706 33.6294 201.822 35.3029L201.822 35.3029ZM443.163 30.1212C440.197 28.567 437.158 27.0522 434.13 25.6188L434.848 24.1007C437.896 25.5441 440.956 27.069 443.941 28.635L443.163 30.1212ZM219.607 25.9228L218.884 24.4063C221.912 22.9629 225.014 21.5598 228.103 20.2364L228.764 21.7798C225.696 23.0939 222.614 24.4878 219.606 25.9228H219.607ZM424.917 21.4842C421.83 20.1735 418.676 18.9097 415.542 17.7258L416.136 16.1547C419.291 17.3454 422.466 18.6192 425.572 19.9384L424.917 21.4842ZM238.079 18.0121L237.482 16.4427C240.624 15.2445 243.836 14.0916 247.03 13.0227L247.565 14.6181C244.391 15.6786 241.2 16.8222 238.079 18.0121L238.079 18.0121ZM406.024 14.3511C402.851 13.299 399.612 12.2972 396.398 11.3744L396.863 9.76052C400.098 10.6892 403.357 11.6977 406.552 12.7574L406.024 14.3511ZM257.18 11.607L256.71 9.99479C259.94 9.05518 263.236 8.16847 266.505 7.35985L266.908 8.98969C263.661 9.79154 260.387 10.6724 257.18 11.6069L257.18 11.607ZM386.659 8.79236C383.417 8.00137 380.109 7.26581 376.825 6.60497L377.156 4.95835C380.462 5.62338 383.79 6.36482 387.058 7.16085L386.659 8.79236ZM276.736 6.77039L276.4 5.12544C279.692 4.45369 283.049 3.83485 286.376 3.29241L286.646 4.94995C283.339 5.48651 280.006 6.09948 276.735 6.76871L276.736 6.77039ZM366.91 4.81728C363.607 4.2908 360.249 3.82393 356.93 3.4318L357.127 1.76418C360.468 2.15967 363.845 2.62906 367.173 3.15974L366.91 4.81728ZM296.619 3.53004L296.416 1.86327C299.757 1.45686 303.151 1.10755 306.506 0.839687L306.642 2.51318C303.309 2.78188 299.936 3.12615 296.619 3.52836V3.53004ZM346.904 2.44685C343.575 2.18738 340.187 1.99174 336.846 1.86494L336.909 0.185571C340.277 0.313204 343.682 0.510527 347.034 0.773349L346.904 2.44685ZM316.699 1.89685L316.63 0.217481C319.989 0.0789328 323.4 0.00587781 326.77 0V1.67937C323.424 1.68525 320.034 1.7583 316.698 1.89517L316.699 1.89685Z" fill="#E2E8F0"/>
<path d="M477.299 553.343H181.991C167.231 553.327 155.21 542.023 155.194 528.145V125.804C155.211 111.924 167.232 100.621 181.99 100.605H477.299C492.059 100.621 504.079 111.925 504.096 125.804V528.145C504.079 542.024 492.058 553.328 477.299 553.343Z" fill="#718096"/>
<path d="M480.233 529.125H179.057C174.283 529.12 170.395 525.671 170.39 521.437V135.176C170.395 130.942 174.283 127.493 179.057 127.488H480.232C485.006 127.493 488.894 130.942 488.9 135.176V521.437C488.894 525.671 485.006 529.12 480.233 529.125Z" fill="white"/>
<path d="M329.642 250.907C323.39 250.91 317.199 249.683 311.422 247.295C305.644 244.907 300.395 241.405 295.972 236.99C291.549 232.575 288.04 227.332 285.645 221.562C283.25 215.791 282.016 209.606 282.013 203.359V203.316C282.013 203.216 282.013 203.112 282.018 203.012C282.078 193.612 284.923 184.441 290.193 176.655C295.463 168.869 302.922 162.816 311.63 159.261C320.338 155.705 329.905 154.806 339.124 156.676C348.343 158.547 356.802 163.103 363.432 169.771C370.063 176.439 374.569 184.919 376.382 194.142C378.196 203.366 377.235 212.919 373.621 221.597C370.007 230.276 363.903 237.691 356.077 242.907C348.251 248.123 339.055 250.906 329.647 250.907H329.642V250.907ZM329.642 156.726C317.332 156.754 305.531 161.634 296.802 170.307C288.073 178.979 283.122 190.743 283.024 203.043C283.018 203.149 283.018 203.236 283.018 203.316C283.018 212.531 285.752 221.539 290.875 229.202C295.998 236.864 303.281 242.836 311.801 246.363C320.321 249.89 329.697 250.814 338.742 249.017C347.787 247.219 356.096 242.782 362.618 236.267C369.14 229.751 373.581 221.45 375.381 212.412C377.181 203.374 376.258 194.005 372.73 185.492C369.201 176.978 363.225 169.7 355.557 164.58C347.889 159.46 338.874 156.727 329.651 156.726H329.642Z" fill="#EDF2F7"/>
<path d="M235.902 298.654V283.584C235.902 282.735 235.565 281.921 234.964 281.32C234.363 280.72 233.549 280.383 232.699 280.383C231.85 280.383 231.035 280.72 230.434 281.32C229.834 281.921 229.496 282.735 229.496 283.584V298.654C228.233 299.362 227.239 300.469 226.673 301.801C226.106 303.133 225.997 304.615 226.363 306.016C226.729 307.416 227.55 308.656 228.696 309.541C229.843 310.426 231.25 310.906 232.699 310.906C234.148 310.906 235.556 310.426 236.702 309.541C237.849 308.656 238.669 307.416 239.036 306.016C239.402 304.615 239.293 303.133 238.726 301.801C238.159 300.469 237.166 299.362 235.902 298.654Z" fill="#0BC5EA"/>
<path d="M231.592 283.584C231.615 283.31 231.74 283.056 231.942 282.87C232.144 282.685 232.409 282.582 232.683 282.582C232.958 282.582 233.222 282.685 233.424 282.87C233.626 283.056 233.751 283.31 233.775 283.584V293.308H231.592V283.584Z" fill="white"/>
<path opacity="0.999" d="M440.067 294.581H260.603V296.699H440.067V294.581Z" fill="#A0AEC0"/>
<path d="M319.433 300.665C322.208 300.665 324.458 298.417 324.458 295.644C324.458 292.871 322.208 290.623 319.433 290.623C316.658 290.623 314.408 292.871 314.408 295.644C314.408 298.417 316.658 300.665 319.433 300.665Z" fill="#0BC5EA"/>
<path d="M319.433 294.581H260.603V296.699H319.433V294.581Z" fill="#0BC5EA"/>
<path d="M440.067 354.073H260.603V356.191H440.067V354.073Z" fill="#A0AEC0"/>
<path d="M363.886 360.158C366.662 360.158 368.911 357.911 368.911 355.138C368.911 352.365 366.662 350.117 363.886 350.117C361.111 350.117 358.862 352.365 358.862 355.138C358.862 357.911 361.111 360.158 363.886 360.158Z" fill="#0BC5EA"/>
<path d="M364.371 354.073H260.603V356.191H364.371V354.073Z" fill="#0BC5EA"/>
<path d="M440.067 409.609H260.603V411.727H440.067V409.609Z" fill="#A0AEC0"/>
<path d="M413.103 415.685C415.878 415.685 418.128 413.437 418.128 410.664C418.128 407.891 415.878 405.643 413.103 405.643C410.328 405.643 408.078 407.891 408.078 410.664C408.078 413.437 410.328 415.685 413.103 415.685Z" fill="#0BC5EA"/>
<path d="M413.588 409.609H260.603V411.727H413.588V409.609Z" fill="#0BC5EA"/>
<path d="M440.067 464.837H260.603V466.955H440.067V464.837Z" fill="#A0AEC0"/>
<path d="M319.433 470.913C322.208 470.913 324.458 468.665 324.458 465.892C324.458 463.119 322.208 460.871 319.433 460.871C316.658 460.871 314.408 463.119 314.408 465.892C314.408 468.665 316.658 470.913 319.433 470.913Z" fill="#0BC5EA"/>
<path d="M319.433 464.837H260.603V466.955H319.433V464.837Z" fill="#0BC5EA"/>
<path d="M617.64 431.327C616.909 431.852 616.07 432.209 615.185 432.371C614.299 432.534 613.388 432.499 612.518 432.268C611.744 432.063 611.019 431.707 610.383 431.222C609.747 430.736 609.213 430.13 608.811 429.438C608.41 428.746 608.149 427.982 608.043 427.19C607.937 426.397 607.988 425.591 608.193 424.818C608.215 424.738 608.238 424.658 608.262 424.579C608.352 424.293 608.464 424.014 608.597 423.745L596.615 369.994C596.435 369.379 596.378 368.734 596.447 368.096C596.516 367.459 596.711 366.841 597.019 366.279C597.328 365.717 597.744 365.221 598.245 364.82C598.745 364.419 599.32 364.12 599.936 363.941C600.553 363.762 601.198 363.706 601.836 363.777C602.474 363.848 603.091 364.043 603.653 364.353C604.215 364.662 604.711 365.079 605.111 365.58C605.511 366.081 605.809 366.657 605.987 367.273L605.996 367.304L617.307 421.22C618.157 421.748 618.863 422.478 619.363 423.344C619.864 424.21 620.143 425.185 620.176 426.185C620.209 427.184 619.995 428.176 619.553 429.073C619.111 429.97 618.454 430.745 617.641 431.328L617.64 431.327Z" fill="#FEB8B8"/>
<path d="M633.552 546.653H627.053L623.958 521.605H633.55L633.552 546.653Z" fill="#A0616A"/>
<path d="M635.21 552.949H614.253V552.684C614.253 550.523 615.113 548.45 616.642 546.922C618.172 545.393 620.246 544.535 622.409 544.534H635.209L635.21 552.949Z" fill="#A0616A"/>
<path d="M633.552 546.653H627.053L623.958 521.605H633.55L633.552 546.653Z" fill="#FEB8B8"/>
<path d="M635.21 552.949H614.253V552.684C614.253 550.523 615.113 548.45 616.642 546.922C618.172 545.393 620.246 544.535 622.409 544.534H635.209L635.21 552.949Z" fill="#4A5568"/>
<path d="M568.397 546.448L562.213 544.449L566.986 519.666L576.115 522.616L568.397 546.448Z" fill="#A0616A"/>
<path d="M568.035 552.946L548.099 546.501L548.178 546.249C548.844 544.193 550.3 542.485 552.226 541.501C554.152 540.517 556.39 540.338 558.448 541.003L570.626 544.939L568.035 552.946Z" fill="#A0616A"/>
<path d="M568.397 546.448L562.213 544.449L566.986 519.666L576.115 522.616L568.397 546.448Z" fill="#FEB8B8"/>
<path d="M568.035 552.946L548.099 546.501L548.178 546.249C548.844 544.193 550.3 542.485 552.226 541.501C554.152 540.517 556.39 540.338 558.448 541.003L570.626 544.939L568.035 552.946Z" fill="#4A5568"/>
<path d="M596.572 355.486C602.628 355.486 607.536 350.582 607.536 344.531C607.536 338.48 602.628 333.576 596.572 333.576C590.517 333.576 585.608 338.48 585.608 344.531C585.608 350.582 590.517 355.486 596.572 355.486Z" fill="#FEB8B8"/>
<path d="M612.291 387.121C613.816 381.463 606.834 363.715 606.263 361.464C603.541 360.837 597.233 362.04 593.356 361.242C587.843 365.842 583.457 372.419 580.427 375.538C577.275 378.782 575.244 380.981 578.5 388.574C580.904 394.551 581.952 400.987 581.57 407.417L584.201 430.643C584.201 430.643 573.237 461.319 574.114 481.916L564.027 532.313C564.96 533.817 566.42 534.92 568.123 535.406C569.825 535.892 571.648 535.727 573.236 534.942C573.236 534.942 587.708 509.084 586.393 490.243L602.182 455.184C602.182 455.184 613.146 488.489 616.217 491.557L624.111 538.886C624.111 538.886 631.567 541.077 635.076 538.886C635.076 538.886 636.391 493.31 628.935 485.86C628.935 485.86 621.48 454.308 623.234 445.981C624.989 437.654 625.428 424.946 612.27 413.552C612.27 413.552 612.402 413.613 608.323 406.103L612.291 387.121Z" fill="#4A5568"/>
<path d="M602.293 327.598C601.678 327.599 601.065 327.66 600.461 327.78C599.373 327.252 598.179 326.977 596.969 326.975H596.651C590.532 326.975 585.573 332.507 585.573 339.331H587.623L587.954 336.813L588.439 339.331H590.147C589.615 341.35 589.349 343.43 589.353 345.518V358.098H592.449L594.243 353.439L593.795 358.098H613.72L615.351 353.862L614.943 358.098H617.186V348.223C617.186 336.832 610.517 327.598 602.293 327.598Z" fill="#4A5568"/>
<path d="M580.409 437.553C579.518 437.686 578.609 437.621 577.747 437.362C576.884 437.102 576.09 436.656 575.421 436.053C574.827 435.518 574.344 434.871 574 434.148C573.656 433.426 573.457 432.644 573.416 431.845C573.375 431.046 573.491 430.247 573.759 429.494C574.027 428.74 574.44 428.046 574.976 427.452C575.032 427.391 575.089 427.33 575.147 427.271C575.358 427.057 575.585 426.859 575.827 426.68L589.719 373.391C589.968 372.122 590.711 371.004 591.785 370.283C592.86 369.562 594.176 369.296 595.446 369.545C596.716 369.794 597.835 370.537 598.557 371.611C599.279 372.684 599.544 374 599.295 375.269L599.294 375.277L584.729 428.406C585.243 429.263 585.538 430.234 585.588 431.233C585.638 432.231 585.44 433.227 585.013 434.131C584.586 435.035 583.942 435.82 583.139 436.417C582.336 437.013 581.398 437.403 580.409 437.551V437.553Z" fill="#FEB8B8"/>
<path d="M67.1727 553.994C69.303 553.994 71.0299 551.734 71.0299 548.947C71.0299 546.16 69.303 543.901 67.1727 543.901C65.0425 543.901 63.3156 546.16 63.3156 548.947C63.3156 551.734 65.0425 553.994 67.1727 553.994Z" fill="#EDF2F7"/>
<path d="M81.6172 492.55C84.1775 489.294 85.5693 485.273 85.5693 481.132C85.5693 476.991 84.1775 472.97 81.6172 469.714L81.6156 469.709C82.1419 469.037 82.6225 468.33 83.054 467.593L72.9092 465.922L83.8788 466.005C84.9292 463.717 85.5021 461.239 85.5624 458.722C85.6227 456.206 85.1692 453.703 84.2296 451.368L69.525 458.998L83.092 449.028C81.8212 446.832 80.1112 444.92 78.0686 443.413C76.026 441.906 73.6946 440.835 71.2197 440.268C68.7449 439.7 66.1795 439.648 63.6836 440.115C61.1878 440.582 58.8148 441.557 56.7128 442.98C54.6107 444.404 52.8246 446.244 51.4657 448.388C50.1068 450.531 49.2042 452.931 48.8144 455.438C48.4245 457.945 48.5556 460.505 49.1995 462.96C49.8434 465.414 50.9864 467.709 52.5571 469.703C51.7397 470.74 51.0336 471.86 50.4504 473.044L63.6167 479.879L49.5772 475.206C48.5918 478.116 48.348 481.226 48.8677 484.254C49.3875 487.283 50.6544 490.134 52.554 492.55C50.5894 495.046 49.3024 498.007 48.8173 501.146C48.3322 504.284 48.6654 507.495 49.7847 510.468C50.9041 513.44 52.7717 516.074 55.2071 518.115C57.6426 520.155 60.5636 521.534 63.688 522.117C63.4402 522.808 63.3143 523.536 63.3159 524.269C63.3058 525.351 63.5854 526.417 64.1256 527.355C63.5947 528.297 63.3158 529.36 63.3159 530.441C63.3159 531.522 63.595 532.585 64.126 533.527C63.5954 534.468 63.3164 535.53 63.3159 536.611C63.3154 537.691 63.5935 538.753 64.1233 539.695C63.5846 540.633 63.3059 541.696 63.3159 542.777C63.3159 545.564 65.0427 547.823 67.173 547.823C69.3032 547.823 71.03 545.564 71.03 542.777C70.5007 541.836 70.2226 540.775 70.2226 539.695C70.2226 538.616 70.5007 537.554 71.03 536.613C71.04 535.531 70.7603 534.465 70.2199 533.527C70.751 532.585 71.03 531.522 71.03 530.441C71.0301 529.36 70.7512 528.297 70.2203 527.355C70.7605 526.417 71.0401 525.351 71.03 524.269C71.0317 523.523 70.9014 522.783 70.6451 522.082C73.7505 521.475 76.6477 520.08 79.059 518.033C81.4703 515.985 83.315 513.353 84.4163 510.389C85.5175 507.425 85.8385 504.228 85.3484 501.104C84.8582 497.98 83.5735 495.035 81.6172 492.55Z" fill="#EDF2F7"/>
<path opacity="0.05" d="M48.6054 481.127C48.5975 485.269 49.9903 489.293 52.5578 492.545C50.4143 495.269 49.0813 498.542 48.711 501.987C48.3407 505.433 48.9482 508.914 50.464 512.031C51.9798 515.148 54.3427 517.776 57.2827 519.615C60.2227 521.453 63.6211 522.428 67.0895 522.428C70.5578 522.428 73.9562 521.453 76.8962 519.615C79.8362 517.776 82.1991 515.148 83.7149 512.031C85.2307 508.914 85.8382 505.433 85.4679 501.987C85.0977 498.542 83.7646 495.269 81.6211 492.545C84.0963 489.403 48.6054 479.054 48.6054 481.127Z" fill="#171923"/>
<path d="M35.7442 505.993L35.7392 505.988C36.0323 505.613 36.3 505.219 36.5404 504.808L30.8883 503.877L37.0008 503.924C37.5859 502.649 37.9049 501.269 37.9384 499.867C37.972 498.465 37.7193 497.07 37.1958 495.769L29.0037 500.021L36.5625 494.468C35.8544 493.245 34.9017 492.18 33.7637 491.34C32.6257 490.5 31.3268 489.904 29.9479 489.587C28.569 489.271 27.1398 489.242 25.7492 489.502C24.3586 489.762 23.0366 490.306 21.8654 491.099C20.6942 491.892 19.6991 492.917 18.942 494.111C18.1849 495.305 17.682 496.642 17.4648 498.039C17.2476 499.436 17.3206 500.863 17.6794 502.23C18.0381 503.597 18.6749 504.876 19.55 505.987C19.0946 506.565 18.7011 507.189 18.376 507.849L25.7118 511.656L17.8918 509.053C17.3427 510.674 17.2068 512.407 17.4963 514.094C17.7859 515.781 18.4917 517.37 19.55 518.716C18.4547 520.107 17.737 521.756 17.4665 523.505C17.1961 525.254 17.3819 527.043 18.006 528.699C18.6302 530.355 19.6715 531.822 21.0294 532.959C22.3872 534.095 24.0155 534.862 25.7568 535.185C25.6161 535.57 25.5439 535.976 25.5436 536.386C25.845 536.909 26.0037 537.502 26.0037 538.105C26.0037 538.709 25.845 539.302 25.5436 539.825C25.8448 540.348 26.0033 540.941 26.0033 541.544C26.0033 542.147 25.8448 542.74 25.5436 543.263C25.844 543.785 26.0021 544.377 26.0021 544.98C26.0021 545.583 25.844 546.175 25.5436 546.697C25.8448 547.22 26.0033 547.813 26.0033 548.416C26.0033 549.019 25.8448 549.612 25.5436 550.135C25.5436 551.687 26.5056 552.946 27.6925 552.946C28.8789 552.946 29.8413 551.687 29.8413 550.135C29.5399 549.612 29.3812 549.019 29.3812 548.416C29.3812 547.813 29.5399 547.22 29.8413 546.697C29.5406 546.175 29.3824 545.583 29.3824 544.98C29.3824 544.377 29.5406 543.785 29.8413 543.263C29.5399 542.74 29.3812 542.147 29.3812 541.544C29.3812 540.941 29.5399 540.348 29.8413 539.825C29.5396 539.302 29.3808 538.709 29.3808 538.105C29.3808 537.502 29.5396 536.909 29.8413 536.386C29.8407 535.969 29.7657 535.556 29.62 535.165C31.3514 534.83 32.9675 534.055 34.3129 532.915C35.6583 531.776 36.6879 530.31 37.3029 528.658C37.9178 527.007 38.0974 525.225 37.8245 523.483C37.5515 521.742 36.8352 520.101 35.7442 518.716C37.1706 516.902 37.946 514.662 37.946 512.355C37.946 510.048 37.1706 507.807 35.7442 505.993Z" fill="#EDF2F7"/>
<path d="M110.389 519.706L110.384 519.7C110.61 519.412 110.816 519.109 111.001 518.793L106.651 518.079L111.355 518.115C111.806 517.134 112.051 516.071 112.077 514.992C112.103 513.913 111.909 512.84 111.506 511.838L105.201 515.11L111.019 510.835C110.474 509.892 109.741 509.071 108.865 508.423C107.989 507.776 106.989 507.315 105.927 507.071C104.865 506.827 103.764 506.805 102.693 507.005C101.622 507.205 100.604 507.623 99.7018 508.234C98.7998 508.845 98.0334 509.635 97.4506 510.555C96.8678 511.475 96.481 512.505 96.3144 513.581C96.1478 514.657 96.205 515.755 96.4823 516.808C96.7596 517.861 97.2512 518.846 97.9263 519.7C97.5757 520.145 97.2728 520.626 97.0228 521.134L102.668 524.065L96.6496 522.061C96.227 523.309 96.1224 524.643 96.3454 525.941C96.5683 527.24 97.1117 528.463 97.9264 529.499C97.0831 530.569 96.5306 531.839 96.3222 533.185C96.1139 534.531 96.2569 535.908 96.7372 537.183C97.2176 538.458 98.0192 539.587 99.0643 540.462C100.109 541.336 101.363 541.926 102.703 542.175C102.595 542.472 102.539 542.785 102.539 543.1C102.771 543.503 102.894 543.959 102.894 544.424C102.894 544.889 102.771 545.345 102.539 545.748C102.771 546.15 102.893 546.606 102.893 547.071C102.893 547.535 102.771 547.992 102.539 548.394C102.77 548.796 102.892 549.252 102.892 549.715C102.892 550.179 102.77 550.635 102.539 551.037C102.539 552.232 103.28 553.201 104.193 553.201C105.107 553.201 105.848 552.232 105.848 551.037C105.616 550.635 105.495 550.179 105.495 549.715C105.495 549.252 105.616 548.796 105.848 548.394C105.616 547.991 105.494 547.535 105.494 547.071C105.494 546.606 105.616 546.15 105.848 545.748C105.615 545.345 105.493 544.889 105.493 544.424C105.493 543.959 105.615 543.503 105.848 543.1C105.847 542.779 105.79 542.461 105.677 542.16C107.01 541.901 108.253 541.305 109.289 540.428C110.324 539.551 111.116 538.422 111.59 537.151C112.063 535.879 112.201 534.508 111.991 533.168C111.78 531.828 111.229 530.564 110.389 529.499C111.487 528.102 112.084 526.378 112.084 524.602C112.084 522.826 111.487 521.102 110.389 519.706Z" fill="#EDF2F7"/>
<path d="M329.249 119.899C327.813 119.892 326.424 119.388 325.319 118.473C324.213 117.558 323.459 116.288 323.186 114.88C322.912 113.472 323.135 112.012 323.818 110.75C324.5 109.488 325.6 108.501 326.928 107.958C328.257 107.415 329.733 107.349 331.105 107.771C332.477 108.194 333.66 109.078 334.453 110.274C335.245 111.471 335.598 112.904 335.452 114.331C335.305 115.758 334.668 117.09 333.648 118.101C333.069 118.674 332.383 119.129 331.628 119.437C330.873 119.746 330.064 119.903 329.249 119.899Z" fill="white"/>
<path d="M658.316 553.995H0.88567C0.77412 554.007 0.661243 553.996 0.554399 553.962C0.447555 553.927 0.349149 553.871 0.265583 553.796C0.182018 553.721 0.115178 553.63 0.069418 553.527C0.0236579 553.425 0 553.314 0 553.202C0 553.09 0.0236579 552.979 0.069418 552.877C0.115178 552.774 0.182018 552.683 0.265583 552.608C0.349149 552.533 0.447555 552.477 0.554399 552.442C0.661243 552.408 0.77412 552.397 0.88567 552.409H658.316C658.428 552.397 658.541 552.408 658.648 552.442C658.754 552.477 658.853 552.533 658.936 552.608C659.02 552.683 659.087 552.774 659.133 552.877C659.178 552.979 659.202 553.09 659.202 553.202C659.202 553.314 659.178 553.425 659.133 553.527C659.087 553.63 659.02 553.721 658.936 553.796C658.853 553.871 658.754 553.927 658.648 553.962C658.541 553.996 658.428 554.007 658.316 553.995Z" fill="#A0AEC0"/>
<path d="M232.699 307.501C234.453 307.501 235.874 306.08 235.874 304.328C235.874 302.576 234.453 301.155 232.699 301.155C230.945 301.155 229.524 302.576 229.524 304.328C229.524 306.08 230.945 307.501 232.699 307.501Z" fill="white"/>
<path d="M240.268 351.919C240.32 352.837 240.185 353.755 239.87 354.619C239.554 355.483 239.066 356.273 238.434 356.941C237.802 357.61 237.041 358.142 236.196 358.506C235.351 358.87 234.44 359.057 233.52 359.057C232.6 359.057 231.69 358.87 230.845 358.506C230 358.142 229.239 357.61 228.607 356.941C227.975 356.273 227.487 355.483 227.171 354.619C226.856 353.755 226.72 352.837 226.773 351.919C226.773 347.976 233.124 343.987 233.124 336.848C233.124 333.125 240.268 347.976 240.268 351.919Z" fill="#0BC5EA"/>
<path d="M237.569 351.8C237.601 352.351 237.519 352.903 237.33 353.421C237.141 353.939 236.848 354.413 236.469 354.814C236.09 355.215 235.632 355.535 235.126 355.753C234.619 355.971 234.072 356.084 233.52 356.084C232.968 356.084 232.422 355.971 231.915 355.753C231.408 355.535 230.951 355.215 230.572 354.814C230.193 354.413 229.9 353.939 229.71 353.421C229.521 352.903 229.44 352.351 229.471 351.8C229.471 349.435 233.282 347.041 233.282 342.757C233.282 340.523 237.569 349.435 237.569 351.8Z" fill="white"/>
<path d="M232.695 397.575C227.257 397.575 222.876 401.66 222.876 406.713C222.887 408.219 223.277 409.698 224.009 411.015C224.741 412.331 225.793 413.443 227.067 414.248V417.207C227.079 417.566 227.234 417.906 227.497 418.151C227.761 418.397 228.111 418.528 228.47 418.515L228.472 418.515H236.918C237.278 418.528 237.628 418.398 237.892 418.153C238.155 417.907 238.31 417.568 238.323 417.208L238.323 417.207V414.248C239.6 413.445 240.654 412.334 241.388 411.017C242.122 409.7 242.512 408.22 242.523 406.713C242.523 401.66 238.133 397.575 232.695 397.575Z" fill="#0BC5EA"/>
<path d="M232.696 399.979C228.507 399.979 225.131 403.126 225.131 407.019C225.139 408.179 225.44 409.319 226.004 410.333C226.568 411.348 227.378 412.204 228.36 412.824V415.104C228.365 415.241 228.396 415.376 228.453 415.501C228.51 415.626 228.591 415.738 228.691 415.832C228.792 415.925 228.91 415.998 229.038 416.046C229.167 416.095 229.304 416.117 229.441 416.112H229.442H235.95C236.227 416.122 236.497 416.022 236.7 415.833C236.903 415.644 237.022 415.382 237.032 415.105V415.104V412.824C238.016 412.206 238.828 411.35 239.393 410.335C239.959 409.32 240.26 408.18 240.268 407.019C240.268 403.126 236.886 399.979 232.696 399.979Z" fill="white"/>
<path d="M228.757 419.736C228.547 419.736 228.345 419.82 228.196 419.968C228.047 420.117 227.964 420.319 227.964 420.529C227.964 420.74 228.047 420.941 228.196 421.09C228.345 421.239 228.547 421.322 228.757 421.322H236.696C236.906 421.322 237.108 421.239 237.257 421.09C237.406 420.941 237.489 420.74 237.489 420.529C237.489 420.319 237.406 420.117 237.257 419.968C237.108 419.82 236.906 419.736 236.696 419.736H228.757Z" fill="#0BC5EA"/>
<path d="M228.757 422.909C228.547 422.909 228.345 422.992 228.196 423.141C228.047 423.29 227.964 423.492 227.964 423.702C227.964 423.912 228.047 424.114 228.196 424.263C228.345 424.412 228.547 424.495 228.757 424.495H236.696C236.906 424.495 237.108 424.412 237.257 424.263C237.406 424.114 237.489 423.912 237.489 423.702C237.489 423.492 237.406 423.29 237.257 423.141C237.108 422.992 236.906 422.909 236.696 422.909H228.757Z" fill="#0BC5EA"/>
<path d="M238.238 454.24L238.474 453.652C238.559 453.438 238.591 453.207 238.567 452.977C238.542 452.748 238.462 452.529 238.332 452.338C238.203 452.148 238.029 451.991 237.825 451.883C237.622 451.775 237.395 451.719 237.164 451.719H227.561C227.187 451.719 226.828 451.867 226.563 452.132C226.299 452.396 226.15 452.754 226.15 453.128V454.24H238.238Z" fill="#0BC5EA"/>
<path d="M236.966 462.617H236.966C236.735 462.617 236.508 462.561 236.305 462.453C236.101 462.345 235.927 462.189 235.798 461.998C235.669 461.807 235.588 461.588 235.564 461.358C235.539 461.129 235.571 460.898 235.657 460.684L237.285 456.619H226.15V465.57C226.15 465.755 226.187 465.939 226.258 466.11C226.328 466.281 226.432 466.436 226.563 466.567C226.694 466.698 226.85 466.802 227.021 466.872C227.192 466.943 227.375 466.98 227.561 466.98H229.106C229.48 466.98 229.839 467.128 230.103 467.392C230.368 467.657 230.516 468.015 230.516 468.389V474.097C230.516 474.415 230.623 474.723 230.821 474.972C231.018 475.221 231.293 475.396 231.603 475.469C231.912 475.542 232.237 475.508 232.524 475.374C232.812 475.239 233.046 475.011 233.188 474.727L238.228 464.657C238.335 464.442 238.386 464.203 238.375 463.963C238.364 463.723 238.292 463.49 238.166 463.286C238.039 463.081 237.863 462.913 237.653 462.796C237.443 462.679 237.206 462.617 236.966 462.617Z" fill="#0BC5EA"/>
<path d="M227.567 360.247C227.251 360.247 226.948 360.373 226.725 360.596C226.501 360.819 226.376 361.121 226.376 361.437C226.376 361.753 226.501 362.055 226.725 362.278C226.948 362.501 227.251 362.627 227.567 362.627H238.68C238.996 362.627 239.299 362.501 239.522 362.278C239.745 362.055 239.871 361.753 239.871 361.437C239.871 361.121 239.745 360.819 239.522 360.596C239.299 360.373 238.996 360.247 238.68 360.247H227.567Z" fill="#0BC5EA"/>
<path d="M227.567 365.006C227.251 365.006 226.948 365.132 226.725 365.355C226.501 365.578 226.376 365.881 226.376 366.196C226.376 366.512 226.501 366.814 226.725 367.037C226.948 367.261 227.251 367.386 227.567 367.386H238.68C238.996 367.386 239.299 367.261 239.522 367.037C239.745 366.814 239.871 366.512 239.871 366.196C239.871 365.881 239.745 365.578 239.522 365.355C239.299 365.132 238.996 365.006 238.68 365.006H227.567Z" fill="#0BC5EA"/>
<path d="M333.145 217.077C333.583 217.077 333.938 216.722 333.938 216.284C333.938 215.846 333.583 215.491 333.145 215.491C332.706 215.491 332.351 215.846 332.351 216.284C332.351 216.722 332.706 217.077 333.145 217.077Z" fill="#0BC5EA"/>
<path d="M350.852 201.945L330.179 182.878C330.032 182.743 329.84 182.667 329.64 182.667C329.441 182.667 329.249 182.743 329.102 182.878L319.65 191.599V187.73C319.65 187.519 319.566 187.317 319.417 187.169C319.268 187.02 319.066 186.936 318.856 186.936H317.268C317.058 186.936 316.856 187.02 316.707 187.169C316.558 187.317 316.474 187.519 316.474 187.73V194.529L308.436 201.945C308.319 202.053 308.237 202.195 308.201 202.35C308.165 202.506 308.177 202.668 308.236 202.817C308.294 202.965 308.395 203.093 308.527 203.183C308.659 203.273 308.815 203.321 308.975 203.321H312.954C313.165 203.321 313.367 203.405 313.516 203.553C313.665 203.702 313.748 203.904 313.748 204.114V223.46C313.748 223.67 313.832 223.872 313.981 224.021C314.13 224.17 314.331 224.253 314.542 224.253H344.739C344.949 224.253 345.151 224.17 345.3 224.021C345.449 223.872 345.533 223.67 345.533 223.46V204.114C345.533 203.904 345.616 203.702 345.765 203.553C345.914 203.405 346.116 203.321 346.326 203.321H350.313C350.473 203.321 350.629 203.273 350.761 203.183C350.893 203.093 350.994 202.965 351.053 202.817C351.111 202.668 351.123 202.505 351.087 202.35C351.051 202.194 350.969 202.053 350.852 201.945ZM325.195 210.293H334.086C334.296 210.293 334.498 210.377 334.647 210.526C334.796 210.674 334.88 210.876 334.88 211.086V222.667H324.401V211.086C324.401 210.876 324.485 210.674 324.634 210.526C324.783 210.377 324.984 210.293 325.195 210.293Z" fill="#0BC5EA"/>
</svg>
