<svg width="163" height="16" viewBox="0 0 163 16" fill="none" xmlns="http://www.w3.org/2000/svg">
<path d="M2.82219 10.0272L4.07324 8.13822C4.2343 7.89366 4.51183 7.7475 4.80949 7.7475H9.48441C9.77776 7.7475 10.051 7.60414 10.2135 7.3652L11.5494 5.40738C11.7119 5.16844 11.9851 5.02509 12.2784 5.02509H20.5426C20.7755 5.02509 20.915 5.27948 20.7856 5.46922L19.4928 7.3638C19.3303 7.60273 19.0571 7.74609 18.7638 7.74609H13.82C13.5223 7.74609 13.2462 7.89366 13.0837 8.13681L11.7996 10.075C11.6385 10.3195 11.361 10.4657 11.0633 10.4657H3.06809C2.83657 10.4671 2.69709 10.2169 2.82219 10.0272Z" fill="#0BC5EA"/>
<path d="M8.55644 5.83688H5.8602C5.62725 5.83688 5.48776 5.58249 5.61718 5.39275L8.76639 0.777165C8.92888 0.538234 9.2021 0.394875 9.49545 0.394875H23.3275C23.5604 0.394875 23.6999 0.649267 23.5705 0.839006L22.2778 2.73359C22.1153 2.97252 21.842 3.11588 21.5487 3.11588H11.3519C11.0585 3.11588 10.7853 3.25924 10.6228 3.49817L9.28694 5.456C9.12301 5.69353 8.84979 5.83688 8.55644 5.83688Z" fill="#0BC5EA"/>
<path d="M15.0636 9.65433H17.7598C17.9928 9.65433 18.1323 9.90872 18.0028 10.0985L14.8536 14.714C14.6911 14.953 14.4179 15.0963 14.1246 15.0963H0.292525C0.0595699 15.0963 -0.0799156 14.8419 0.0495036 14.6522L1.34226 12.7576C1.50475 12.5187 1.77797 12.3753 2.07132 12.3753H12.2681C12.5615 12.3753 12.8347 12.232 12.9972 11.993L14.3331 10.0352C14.497 9.79769 14.7702 9.65433 15.0636 9.65433Z" fill="#0BC5EA"/>
<path d="M41.3255 4.4879C41.253 3.82471 40.9474 3.30834 40.4087 2.93878C39.8752 2.56921 39.1811 2.38443 38.3265 2.38443C37.7257 2.38443 37.2103 2.47303 36.7804 2.65021C36.3505 2.8274 36.0216 3.06787 35.7937 3.37162C35.5658 3.67537 35.4492 4.02215 35.444 4.41196C35.444 4.73596 35.5192 5.01693 35.6694 5.25487C35.8248 5.4928 36.0345 5.6953 36.2987 5.86236C36.5628 6.02436 36.8555 6.16105 37.1766 6.27243C37.4978 6.3838 37.8215 6.47746 38.1478 6.55339L39.6395 6.91789C40.2404 7.05458 40.8179 7.23936 41.3721 7.47224C41.9315 7.70511 42.4313 7.99873 42.8716 8.35311C43.3171 8.70748 43.6693 9.13526 43.9282 9.63645C44.1872 10.1376 44.3167 10.7249 44.3167 11.3982C44.3167 12.3094 44.0785 13.1118 43.6019 13.8054C43.1254 14.4939 42.4365 15.0331 41.5353 15.4229C40.6392 15.8076 39.5541 16 38.2799 16C37.042 16 35.9672 15.8127 35.0556 15.4381C34.1491 15.0634 33.4395 14.5167 32.9268 13.7978C32.4192 13.0789 32.1446 12.2031 32.1032 11.1704H34.939C34.9805 11.7121 35.1514 12.1626 35.4518 12.5221C35.7522 12.8815 36.1433 13.1498 36.625 13.327C37.1119 13.5042 37.6557 13.5928 38.2566 13.5928C38.8833 13.5928 39.4324 13.5017 39.9037 13.3194C40.3802 13.1321 40.7531 12.8739 41.0225 12.5449C41.2918 12.2107 41.4291 11.8209 41.4343 11.3754C41.4291 10.9704 41.3074 10.6363 41.0691 10.373C40.8308 10.1047 40.4968 9.88198 40.0668 9.70479C39.6421 9.52254 39.1449 9.36054 38.5751 9.21879L36.7649 8.76317C35.4544 8.43411 34.4185 7.93545 33.6571 7.26721C32.9009 6.59389 32.5228 5.70036 32.5228 4.58662C32.5228 3.67031 32.7766 2.8679 33.2842 2.1794C33.7969 1.4909 34.4936 0.956811 35.3741 0.577124C36.2547 0.192375 37.2517 0 38.3653 0C39.4945 0 40.4838 0.192375 41.3333 0.577124C42.1879 0.956811 42.8587 1.48584 43.3455 2.16421C43.8324 2.83753 44.0836 3.61209 44.0992 4.4879H41.3255Z" fill="white"/>
<path d="M46.8865 0.212625H50.4138L55.1376 11.4817H55.324L60.0478 0.212625H63.5751V15.7646H60.8092V5.08021H60.6616L56.2641 15.719H54.1975L49.8 5.05743H49.6524V15.7646H46.8865V0.212625Z" fill="white"/>
<path d="M69.5964 0.212625V15.7646H66.714V0.212625H69.5964Z" fill="white"/>
<path d="M85.7937 0.212625V15.7646H83.2298L75.7323 5.17133H75.6003V15.7646H72.7178V0.212625H75.2972L82.787 10.8135H82.9268V0.212625H85.7937Z" fill="white"/>
<path d="M88.9345 15.7646V0.212625H91.817V6.79639H99.1901V0.212625H102.08V15.7646H99.1901V9.15804H91.817V15.7646H88.9345Z" fill="white"/>
<path d="M119.433 7.98861C119.433 9.66429 119.112 11.0995 118.47 12.2943C117.833 13.4839 116.963 14.3952 115.859 15.028C114.761 15.6608 113.516 15.9772 112.122 15.9772C110.729 15.9772 109.481 15.6608 108.377 15.028C107.279 14.3901 106.409 13.4763 105.767 12.2867C105.13 11.0919 104.811 9.65923 104.811 7.98861C104.811 6.31293 105.13 4.88024 105.767 3.69056C106.409 2.49581 107.279 1.58203 108.377 0.949217C109.481 0.316406 110.729 0 112.122 0C113.516 0 114.761 0.316406 115.859 0.949217C116.963 1.58203 117.833 2.49581 118.47 3.69056C119.112 4.88024 119.433 6.31293 119.433 7.98861ZM116.535 7.98861C116.535 6.80905 116.346 5.81427 115.968 5.00427C115.595 4.18921 115.077 3.57412 114.414 3.15899C113.751 2.73881 112.987 2.52871 112.122 2.52871C111.257 2.52871 110.493 2.73881 109.83 3.15899C109.167 3.57412 108.647 4.18921 108.269 5.00427C107.896 5.81427 107.709 6.80905 107.709 7.98861C107.709 9.16817 107.896 10.1655 108.269 10.9805C108.647 11.7905 109.167 12.4056 109.83 12.8258C110.493 13.2409 111.257 13.4485 112.122 13.4485C112.987 13.4485 113.751 13.2409 114.414 12.8258C115.077 12.4056 115.595 11.7905 115.968 10.9805C116.346 10.1655 116.535 9.16817 116.535 7.98861Z" fill="white"/>
<path d="M132.189 0.212625H135.071V10.373C135.071 11.4868 134.802 12.4664 134.263 13.3118C133.73 14.1573 132.979 14.8179 132.01 15.2938C131.041 15.7646 129.91 16 128.615 16C127.315 16 126.18 15.7646 125.212 15.2938C124.243 14.8179 123.492 14.1573 122.959 13.3118C122.425 12.4664 122.158 11.4868 122.158 10.373V0.212625H125.041V10.1376C125.041 10.7856 125.186 11.3628 125.476 11.869C125.771 12.3753 126.186 12.7727 126.719 13.0612C127.253 13.3447 127.884 13.4865 128.615 13.4865C129.345 13.4865 129.977 13.3447 130.511 13.0612C131.049 12.7727 131.464 12.3753 131.754 11.869C132.044 11.3628 132.189 10.7856 132.189 10.1376V0.212625Z" fill="white"/>
<path d="M146.852 4.4879C146.779 3.82471 146.473 3.30834 145.935 2.93878C145.401 2.56921 144.707 2.38443 143.853 2.38443C143.252 2.38443 142.736 2.47303 142.306 2.65021C141.877 2.8274 141.548 3.06787 141.32 3.37162C141.092 3.67537 140.975 4.02215 140.97 4.41196C140.97 4.73596 141.045 5.01693 141.195 5.25487C141.351 5.4928 141.561 5.6953 141.825 5.86236C142.089 6.02436 142.382 6.16105 142.703 6.27243C143.024 6.3838 143.348 6.47746 143.674 6.55339L145.166 6.91789C145.766 7.05458 146.344 7.23936 146.898 7.47224C147.458 7.70511 147.957 7.99873 148.398 8.35311C148.843 8.70748 149.195 9.13526 149.454 9.63645C149.713 10.1376 149.843 10.7249 149.843 11.3982C149.843 12.3094 149.605 13.1118 149.128 13.8054C148.651 14.4939 147.963 15.0331 147.061 15.4229C146.165 15.8076 145.08 16 143.806 16C142.568 16 141.493 15.8127 140.582 15.4381C139.675 15.0634 138.966 14.5167 138.453 13.7978C137.945 13.0789 137.671 12.2031 137.629 11.1704H140.465C140.507 11.7121 140.677 12.1626 140.978 12.5221C141.278 12.8815 141.669 13.1498 142.151 13.327C142.638 13.5042 143.182 13.5928 143.783 13.5928C144.409 13.5928 144.958 13.5017 145.43 13.3194C145.906 13.1321 146.279 12.8739 146.549 12.5449C146.818 12.2107 146.955 11.8209 146.96 11.3754C146.955 10.9704 146.833 10.6363 146.595 10.373C146.357 10.1047 146.023 9.88198 145.593 9.70479C145.168 9.52254 144.671 9.36054 144.101 9.21879L142.291 8.76317C140.98 8.43411 139.945 7.93545 139.183 7.26721C138.427 6.59389 138.049 5.70036 138.049 4.58662C138.049 3.67031 138.303 2.8679 138.81 2.1794C139.323 1.4909 140.02 0.956811 140.9 0.577124C141.781 0.192375 142.778 0 143.891 0C145.021 0 146.01 0.192375 146.859 0.577124C147.714 0.956811 148.385 1.48584 148.872 2.16421C149.358 2.83753 149.61 3.61209 149.625 4.4879H146.852Z" fill="white"/>
<path d="M152.413 15.7646V0.212625H162.761V2.57428H155.295V6.79639H162.225V9.15804H155.295V13.4029H162.824V15.7646H152.413Z" fill="white"/>
</svg>
