<svg width="282" height="51" viewBox="0 0 282 51" fill="none" xmlns="http://www.w3.org/2000/svg">
<path d="M6.92876 30.9092L10.0002 26.1643C10.3956 25.5501 11.077 25.1829 11.8078 25.1829H23.2852C24.0054 25.1829 24.6762 24.8228 25.0751 24.2226L28.3548 19.3048C28.7538 18.7046 29.4246 18.3445 30.1448 18.3445H50.4341C51.006 18.3445 51.3484 18.9835 51.0307 19.4601L47.8569 24.2191C47.4579 24.8193 46.7871 25.1794 46.0669 25.1794H33.9294C33.1986 25.1794 32.5207 25.55 32.1218 26.1608L28.9691 31.0293C28.5737 31.6435 27.8924 32.0107 27.1616 32.0107H7.53246C6.96406 32.0142 6.62162 31.3858 6.92876 30.9092Z" fill="#0BC5EA"/>
<path d="M21.0069 20.3836H14.3874C13.8155 20.3836 13.473 19.7446 13.7907 19.268L21.5224 7.67414C21.9213 7.07397 22.5921 6.71387 23.3123 6.71387H57.2713C57.8432 6.71387 58.1857 7.35287 57.868 7.82948L54.6941 12.5885C54.2952 13.1887 53.6244 13.5488 52.9042 13.5488H27.87C27.1498 13.5488 26.4791 13.9089 26.0801 14.509L22.8004 19.4269C22.3979 20.0235 21.7271 20.3836 21.0069 20.3836Z" fill="#0BC5EA"/>
<path d="M36.9826 29.9726H43.6021C44.174 29.9726 44.5165 30.6117 44.1988 31.0883L36.4671 42.6821C36.0682 43.2823 35.3974 43.6424 34.6772 43.6424H0.718177C0.14625 43.6424 -0.196201 43.0034 0.121536 42.5268L3.29539 37.7678C3.69432 37.1676 4.3651 36.8075 5.08531 36.8075H30.1195C30.8397 36.8075 31.5104 36.4474 31.9094 35.8473L35.1891 30.9294C35.5916 30.3328 36.2624 29.9726 36.9826 29.9726Z" fill="#0BC5EA"/>
<path d="M90.1424 20.285C90.0471 19.3233 89.6377 18.5762 88.9145 18.0437C88.1912 17.5112 87.2097 17.245 85.9698 17.245C85.1274 17.245 84.416 17.3642 83.8359 17.6026C83.2557 17.8331 82.8106 18.155 82.5006 18.5683C82.1986 18.9816 82.0476 19.4505 82.0476 19.975C82.0317 20.4122 82.1231 20.7936 82.3218 21.1195C82.5285 21.4454 82.8106 21.7275 83.1682 21.9659C83.5259 22.1964 83.9392 22.3991 84.4081 22.574C84.877 22.7409 85.3777 22.8839 85.9102 23.0031L88.1038 23.5277C89.1688 23.7661 90.1464 24.084 91.0366 24.4814C91.9267 24.8788 92.6976 25.3676 93.3494 25.9478C94.0011 26.528 94.5058 27.2115 94.8634 27.9983C95.229 28.7851 95.4158 29.6872 95.4237 30.7045C95.4158 32.1987 95.0343 33.4942 94.2792 34.591C93.5322 35.6798 92.4513 36.5263 91.0366 37.1303C89.6298 37.7264 87.9329 38.0244 85.946 38.0244C83.9749 38.0244 82.2582 37.7224 80.7958 37.1184C79.3414 36.5144 78.2049 35.6202 77.3862 34.436C76.5756 33.2438 76.1504 31.7695 76.1106 30.0131H81.1058C81.1614 30.8317 81.3959 31.5152 81.8092 32.0636C82.2304 32.6041 82.7907 33.0134 83.4901 33.2915C84.1975 33.5618 84.9962 33.6969 85.8864 33.6969C86.7606 33.6969 87.5197 33.5697 88.1634 33.3154C88.8151 33.061 89.3198 32.7074 89.6775 32.2543C90.0351 31.8013 90.214 31.2807 90.214 30.6926C90.214 30.1442 90.051 29.6832 89.7252 29.3097C89.4073 28.9362 88.9383 28.6182 88.3184 28.356C87.7064 28.0937 86.9554 27.8553 86.0652 27.6407L83.4067 26.973C81.3482 26.4723 79.7229 25.6895 78.5307 24.6245C77.3386 23.5595 76.7464 22.1249 76.7544 20.3208C76.7464 18.8425 77.1399 17.551 77.9346 16.4462C78.7374 15.3415 79.8381 14.4791 81.2369 13.8592C82.6357 13.2393 84.2253 12.9293 86.0056 12.9293C87.8177 12.9293 89.3993 13.2393 90.7504 13.8592C92.1095 14.4791 93.1666 15.3415 93.9216 16.4462C94.6766 17.551 95.0661 18.8305 95.0899 20.285H90.1424ZM98.8959 13.2631H105.262L111.986 29.6673H112.272L118.996 13.2631H125.362V37.6787H120.355V21.7871H120.152L113.834 37.5595H110.424L104.106 21.7275H103.903V37.6787H98.8959V13.2631ZM134.777 13.2631V37.6787H129.615V13.2631H134.777ZM159.446 13.2631V37.6787H154.987L144.365 22.3117H144.186V37.6787H139.024V13.2631H143.555L154.093 28.6182H154.308V13.2631H159.446ZM163.711 37.6787V13.2631H168.873V23.3369H179.352V13.2631H184.502V37.6787H179.352V27.593H168.873V37.6787H163.711ZM211.195 25.4709C211.195 28.1334 210.69 30.3985 209.681 32.2663C208.68 34.134 207.313 35.5606 205.58 36.5462C203.855 37.5237 201.916 38.0125 199.762 38.0125C197.592 38.0125 195.645 37.5198 193.921 36.5342C192.196 35.5487 190.833 34.1221 189.831 32.2543C188.83 30.3866 188.329 28.1255 188.329 25.4709C188.329 22.8084 188.83 20.5433 189.831 18.6756C190.833 16.8078 192.196 15.3852 193.921 14.4076C195.645 13.4221 197.592 12.9293 199.762 12.9293C201.916 12.9293 203.855 13.4221 205.58 14.4076C207.313 15.3852 208.68 16.8078 209.681 18.6756C210.69 20.5433 211.195 22.8084 211.195 25.4709ZM205.961 25.4709C205.961 23.7462 205.703 22.2918 205.187 21.1076C204.678 19.9234 203.959 19.0253 203.029 18.4133C202.099 17.8013 201.01 17.4953 199.762 17.4953C198.514 17.4953 197.426 17.8013 196.496 18.4133C195.566 19.0253 194.843 19.9234 194.326 21.1076C193.817 22.2918 193.563 23.7462 193.563 25.4709C193.563 27.1956 193.817 28.65 194.326 29.8343C194.843 31.0185 195.566 31.9166 196.496 32.5285C197.426 33.1405 198.514 33.4465 199.762 33.4465C201.01 33.4465 202.099 33.1405 203.029 32.5285C203.959 31.9166 204.678 31.0185 205.187 29.8343C205.703 28.65 205.961 27.1956 205.961 25.4709ZM230.1 13.2631H235.262V29.1189C235.262 30.8993 234.837 32.457 233.986 33.7922C233.144 35.1275 231.964 36.1686 230.446 36.9157C228.928 37.6549 227.159 38.0244 225.14 38.0244C223.114 38.0244 221.341 37.6549 219.823 36.9157C218.305 36.1686 217.125 35.1275 216.283 33.7922C215.44 32.457 215.019 30.8993 215.019 29.1189V13.2631H220.181V28.6778C220.181 29.6077 220.384 30.4343 220.789 31.1576C221.202 31.8808 221.783 32.4491 222.53 32.8624C223.277 33.2756 224.147 33.4823 225.14 33.4823C226.142 33.4823 227.012 33.2756 227.751 32.8624C228.498 32.4491 229.075 31.8808 229.48 31.1576C229.893 30.4343 230.1 29.6077 230.1 28.6778V13.2631ZM252.754 20.285C252.659 19.3233 252.249 18.5762 251.526 18.0437C250.803 17.5112 249.821 17.245 248.581 17.245C247.739 17.245 247.028 17.3642 246.447 17.6026C245.867 17.8331 245.422 18.155 245.112 18.5683C244.81 18.9816 244.659 19.4505 244.659 19.975C244.643 20.4122 244.735 20.7936 244.933 21.1195C245.14 21.4454 245.422 21.7275 245.78 21.9659C246.138 22.1964 246.551 22.3991 247.02 22.574C247.489 22.7409 247.989 22.8839 248.522 23.0031L250.715 23.5277C251.78 23.7661 252.758 24.084 253.648 24.4814C254.538 24.8788 255.309 25.3676 255.961 25.9478C256.613 26.528 257.117 27.2115 257.475 27.9983C257.841 28.7851 258.027 29.6872 258.035 30.7045C258.027 32.1987 257.646 33.4942 256.891 34.591C256.144 35.6798 255.063 36.5263 253.648 37.1303C252.241 37.7264 250.545 38.0244 248.558 38.0244C246.587 38.0244 244.87 37.7224 243.407 37.1184C241.953 36.5144 240.816 35.6202 239.998 34.436C239.187 33.2438 238.762 31.7695 238.722 30.0131H243.717C243.773 30.8317 244.008 31.5152 244.421 32.0636C244.842 32.6041 245.402 33.0134 246.102 33.2915C246.809 33.5618 247.608 33.6969 248.498 33.6969C249.372 33.6969 250.131 33.5697 250.775 33.3154C251.427 33.061 251.931 32.7074 252.289 32.2543C252.647 31.8013 252.826 31.2807 252.826 30.6926C252.826 30.1442 252.663 29.6832 252.337 29.3097C252.019 28.9362 251.55 28.6182 250.93 28.356C250.318 28.0937 249.567 27.8553 248.677 27.6407L246.018 26.973C243.96 26.4723 242.335 25.6895 241.142 24.6245C239.95 23.5595 239.358 22.1249 239.366 20.3208C239.358 18.8425 239.751 17.551 240.546 16.4462C241.349 15.3415 242.45 14.4791 243.849 13.8592C245.247 13.2393 246.837 12.9293 248.617 12.9293C250.429 12.9293 252.011 13.2393 253.362 13.8592C254.721 14.4791 255.778 15.3415 256.533 16.4462C257.288 17.551 257.678 18.8305 257.702 20.285H252.754ZM261.508 37.6787V13.2631H277.959V17.5192H266.67V23.3369H277.113V27.593H266.67V33.4227H278.007V37.6787H261.508Z" fill="#CBD5E0"/>
</svg>
