<svg width="735" height="369" viewBox="0 0 735 369" fill="none" xmlns="http://www.w3.org/2000/svg">
<g clip-path="url(#clip0_218_10113)">
<path d="M242.05 369C219.872 369 197.727 368.603 175.616 367.808C144.021 366.671 111.35 365.496 80.9835 348.629C59.7409 336.831 40.9273 317.902 26.5772 293.887C16.9858 277.61 9.95297 259.951 5.72573 241.532C-2.1597 207.996 -1.89111 173.054 6.50891 139.644C9.45259 128.189 13.5107 117.05 18.6249 106.388C40.7698 60.4624 81.1605 29.6336 129.441 21.8073C129.84 21.7555 130.243 21.7468 130.643 21.7816C130.86 21.7932 131.077 21.8057 131.298 21.7964L131.582 21.706C132.31 21.4525 133.058 21.2603 133.818 21.1313C208.279 10.0297 286.995 32.4921 361.45 86.0883C419.019 127.534 495.314 149.853 594.695 154.318L596.106 154.392C623.772 155.983 650.532 167.406 673.498 187.427C696.166 207.187 713.186 233.551 722.718 263.67C723.89 267.342 724.964 271.164 725.911 275.03C726.792 278.622 726.73 282.382 725.73 285.944C724.73 289.505 722.827 292.747 720.206 295.353V295.361L719.958 295.615C719.362 296.209 718.735 296.778 718.094 297.307L717.341 297.93C710.99 303.169 705.974 307.308 699.97 310.523C695.966 312.652 691.707 314.262 687.297 315.315C663.079 321.228 638.485 326.71 614.199 331.61C567.033 341.134 518.625 348.991 470.319 354.961C394.588 364.313 318.355 369.002 242.05 369ZM130.079 23.4082C129.93 23.4068 129.782 23.4168 129.635 23.4383C81.8064 31.1914 41.798 61.7176 19.8727 107.189C14.8089 117.745 10.791 128.773 7.87661 140.115C-0.446872 173.229 -0.712118 207.86 7.10317 241.098C11.289 259.342 18.2537 276.832 27.7525 292.953C41.9622 316.733 60.5833 335.472 81.6032 347.145C111.697 363.861 144.214 365.031 175.66 366.161C274.013 369.681 372.49 365.388 470.166 353.325C518.441 347.358 566.818 339.506 613.953 329.988C638.223 325.092 662.799 319.614 687.001 313.704C691.305 312.678 695.461 311.107 699.369 309.029C705.251 305.88 710.22 301.78 716.51 296.591L717.264 295.969C717.815 295.513 718.355 295.026 718.873 294.52L719.022 294.364C724.191 289.146 726.201 282.262 724.537 275.477V275.477C723.6 271.652 722.537 267.87 721.377 264.236C701.906 202.71 651.536 159.229 596.038 156.037L594.635 155.963C549.238 153.922 509.513 148.271 473.195 138.685C429.839 127.241 391.988 110.015 360.694 87.4846C286.522 34.0937 208.135 11.715 134 22.7639C133.307 22.8835 132.626 23.0604 131.962 23.2928L131.45 23.4363C131.16 23.4493 130.868 23.4458 130.578 23.4258C130.407 23.417 130.241 23.4082 130.079 23.4082H130.079Z" fill="#E2E8F0"/>
<path d="M229.584 120.225C227.531 118.252 225.43 107.251 222.809 106.134C224.769 110.471 223.346 111.619 223.336 116.379C223.36 119.081 223.045 121.776 222.398 124.4H177.994V89.6949C177.994 86.5765 178.607 83.4887 179.799 80.6077C180.99 77.7267 182.737 75.109 184.939 72.904C187.14 70.6989 189.754 68.9498 192.631 67.7565C195.508 66.5633 198.591 65.9491 201.704 65.9492C202.893 65.9725 204.074 66.1456 205.219 66.4645C209.036 67.4965 212.514 69.5154 215.306 72.3188C218.097 75.1222 220.104 78.6115 221.124 82.4366C224.509 94.8279 229.892 115.454 229.584 120.225Z" fill="#2D3748"/>
<path d="M180.6 162.919L180.622 135.868L164.744 137.289L170.348 154.35L167.725 197.233C166.453 197.519 165.292 198.169 164.382 199.104C163.473 200.04 162.855 201.22 162.604 202.501C162.353 203.782 162.48 205.109 162.968 206.319C163.457 207.529 164.287 208.571 165.357 209.317C166.426 210.063 167.69 210.482 168.993 210.521C170.295 210.561 171.582 210.22 172.695 209.54C173.807 208.86 174.699 207.87 175.26 206.692C175.82 205.513 176.027 204.197 175.854 202.903L180.6 162.919Z" fill="#FFB6B6"/>
<path d="M211.846 356.223L218.261 356.223L221.312 331.444H211.845L211.846 356.223Z" fill="#FFB6B6"/>
<path d="M209.674 353.053L219.814 352.447V356.798L229.454 363.466C229.93 363.795 230.289 364.268 230.478 364.816C230.666 365.364 230.675 365.958 230.503 366.511C230.331 367.065 229.986 367.548 229.52 367.892C229.054 368.235 228.491 368.42 227.912 368.42H215.84L213.759 364.117L212.947 368.42H208.395L209.674 353.053Z" fill="#2D3748"/>
<path d="M174.756 356.223L181.171 356.223L184.222 331.444H174.755L174.756 356.223Z" fill="#FFB6B6"/>
<path d="M172.584 353.053L182.724 352.447V356.798L192.365 363.466C192.841 363.795 193.2 364.268 193.388 364.816C193.577 365.364 193.586 365.958 193.414 366.511C193.241 367.065 192.897 367.548 192.431 367.892C191.965 368.235 191.401 368.42 190.823 368.42H178.751L176.67 364.117L175.857 368.42H171.306L172.584 353.053Z" fill="#2D3748"/>
<path d="M206.134 106.655L192.846 106.916L183.466 116.832L175.946 117.937C172.544 118.436 169.417 120.09 167.086 122.622C164.756 125.153 163.364 128.409 163.143 131.845L164.445 139.012H172.262L176.784 165.602C175.026 170.089 174.906 173.631 178.515 175.022L189.719 196.158L222.809 181.284C224.487 178.395 225.025 175.493 223.31 172.671L225.675 131.967H233.629C233.629 124.354 231.058 117.936 223.504 117.088C220.504 116.763 217.489 116.591 214.472 116.571L206.134 106.655Z" fill="#EDFDFD"/>
<path d="M222.809 181.285C222.809 181.285 190.501 187.026 178.515 175.022C178.515 175.022 177.298 177.091 175.465 180.522C174.938 181.509 173.919 182.177 173.304 183.373C172.745 184.459 171.308 185.794 170.699 187.026C170.209 188.017 170.995 189.312 170.485 190.383C164.347 203.277 157.176 221.464 158.713 233.473C159.705 241.218 161.752 259.239 163.909 278.595C164.078 280.107 162.713 282.05 162.882 283.574C163.042 285.011 164.736 286.03 164.895 287.471C165.001 288.427 163.819 289.403 163.924 290.359C164.04 291.407 165.445 292.434 165.56 293.479C168.515 320.204 171.22 345.156 171.22 345.156H186.332L189.183 288.169L186.853 267.396L192.325 225.384L199.881 265.308L200.853 287.778L208.838 346.2H222.809V289.644L223.852 286.705L222.809 282.937L223.852 278.877L222.809 274.455V181.285Z" fill="#2D3748"/>
<path d="M210.212 98.9387C208.154 101.677 205.226 103.632 201.91 104.481C198.594 105.33 195.088 105.023 191.97 103.61C188.852 102.197 186.307 99.7628 184.755 96.708C183.202 93.6532 182.735 90.16 183.43 86.8038C184.125 83.4475 185.94 80.4283 188.577 78.2434C191.214 76.0584 194.516 74.838 197.938 74.7832C201.36 74.7283 204.699 75.8423 207.404 77.9416C210.11 80.0409 212.02 83.0004 212.822 86.3327C212.865 86.5135 212.902 86.6933 212.938 86.8799C213.361 88.9686 213.337 91.1235 212.867 93.2022C212.397 95.2809 211.493 97.2361 210.212 98.9387Z" fill="#FFB6B6"/>
<path d="M207.072 90.3314C206.752 88.7254 205.944 87.2578 204.758 86.1303C204.875 87.6694 204.662 89.2157 204.133 90.6655C200.171 91.0168 196.192 90.2274 192.663 88.3901C190.006 86.5844 186.624 86.7409 182.684 88.3901C182.684 86.471 183.061 84.5708 183.794 82.7977C184.527 81.0247 185.602 79.4138 186.957 78.0568C188.312 76.6998 189.921 75.6235 191.691 74.8892C193.461 74.1549 195.359 73.7771 197.275 73.7773H199.881C203.75 73.7781 207.461 75.3178 210.197 78.0581C212.933 80.7984 214.471 84.5148 214.472 88.3901C212.067 89.2539 209.591 89.9035 207.072 90.3314Z" fill="#2D3748"/>
<path d="M93.0814 276.576C116.232 276.576 134.999 257.781 134.999 234.595C134.999 211.41 116.232 192.615 93.0814 192.615C69.9308 192.615 51.1636 211.41 51.1636 234.595C51.1636 257.781 69.9308 276.576 93.0814 276.576Z" fill="#E2E8F0"/>
<path d="M360.205 83.9605C383.356 83.9605 402.123 65.1653 402.123 41.9803C402.123 18.7952 383.356 0 360.205 0C337.054 0 318.287 18.7952 318.287 41.9803C318.287 65.1653 337.054 83.9605 360.205 83.9605Z" fill="#E2E8F0"/>
<path d="M693.082 283.161C716.233 283.161 735 264.366 735 241.18C735 217.995 716.233 199.2 693.082 199.2C669.931 199.2 651.164 217.995 651.164 241.18C651.164 264.366 669.931 283.161 693.082 283.161Z" fill="#E2E8F0"/>
<path d="M435.822 46.5587V141.752C435.822 143.729 435.043 145.627 433.654 147.032C432.266 148.438 430.379 149.238 428.405 149.258C428.378 149.261 428.35 149.262 428.323 149.262H417.26C408.408 149.262 399.919 145.74 393.66 139.472C387.401 133.203 383.885 124.702 383.885 115.837V46.5587C383.885 44.5669 384.675 42.6568 386.081 41.2484C387.487 39.84 389.395 39.0488 391.383 39.0488H395.866C393.789 45.1159 421.975 47.6702 423.522 39.0488H428.323C430.312 39.0488 432.219 39.8401 433.625 41.2484C435.032 42.6568 435.822 44.567 435.822 46.5587Z" fill="#0BC5EA"/>
<path d="M402.992 31.9305C402.992 31.6695 403.096 31.4194 403.28 31.2349C403.464 31.0504 403.714 30.9466 403.974 30.9463H410.657C410.917 30.947 411.166 31.0511 411.35 31.2355C411.534 31.42 411.637 31.6699 411.637 31.9305C411.637 32.191 411.534 32.4409 411.35 32.6254C411.166 32.8099 410.917 32.9139 410.657 32.9147H403.974C403.714 32.9144 403.464 32.8106 403.28 32.6261C403.096 32.4416 402.992 32.1914 402.992 31.9305Z" fill="#718096"/>
<path d="M430.619 161.336H388.359C385.081 161.332 381.937 160.026 379.619 157.704C377.3 155.383 375.996 152.235 375.992 148.951V82.4071C375.76 82.2402 375.571 82.0203 375.441 81.7657C375.311 81.511 375.243 81.229 375.244 80.9429V74.2504C375.243 73.9644 375.311 73.6824 375.441 73.4278C375.571 73.1732 375.76 72.9534 375.992 72.7866V70.9904C375.76 70.8236 375.571 70.6038 375.441 70.3492C375.311 70.0946 375.243 69.8126 375.244 69.5266V62.8338C375.243 62.5477 375.311 62.2657 375.441 62.0111C375.571 61.7565 375.76 61.5367 375.992 61.3699V58.1236C375.706 57.9695 375.467 57.7403 375.3 57.4605C375.133 57.1807 375.046 56.8609 375.047 56.5352V49.8427C375.046 49.517 375.133 49.1971 375.3 48.9172C375.467 48.6374 375.706 48.4081 375.992 48.2539V39.3585C375.996 36.0749 377.3 32.9269 379.619 30.6051C381.937 28.2833 385.081 26.9773 388.359 26.9736H430.619C433.898 26.9773 437.041 28.2834 439.359 30.6052C441.678 32.927 442.982 36.075 442.986 39.3585V58.7486C443.208 58.8881 443.392 59.082 443.519 59.3121C443.647 59.5422 443.713 59.801 443.714 60.0641V72.8252C443.713 73.0883 443.647 73.3471 443.519 73.5773C443.392 73.8075 443.208 74.0015 442.986 74.1411V148.951C442.982 152.235 441.678 155.383 439.359 157.704C437.041 160.026 433.898 161.332 430.619 161.336ZM388.359 28.6199C385.516 28.6231 382.791 29.7555 380.781 31.7687C378.77 33.7819 377.639 36.5114 377.636 39.3585V49.6543L376.846 49.6848C376.804 49.6863 376.766 49.7035 376.737 49.7329C376.708 49.7622 376.691 49.8016 376.691 49.8428V56.5351C376.692 56.5763 376.708 56.6156 376.737 56.6449C376.766 56.6743 376.805 56.6915 376.846 56.6931L377.636 56.7233V62.5258L377.011 62.6802C376.976 62.6885 376.945 62.7081 376.923 62.7359C376.901 62.7637 376.888 62.7981 376.887 62.8337V69.5266C376.888 69.5622 376.901 69.5966 376.923 69.6244C376.945 69.6522 376.976 69.6718 377.011 69.6801L377.636 69.8345V73.9425L377.011 74.0968C376.976 74.1052 376.945 74.1248 376.923 74.1526C376.901 74.1804 376.888 74.2147 376.887 74.2504V80.9429C376.888 80.9786 376.901 81.013 376.923 81.0409C376.945 81.0687 376.976 81.0884 377.011 81.0968L377.636 81.2511V148.951C377.639 151.798 378.77 154.528 380.781 156.541C382.791 158.554 385.516 159.686 388.359 159.69H430.619C433.462 159.686 436.187 158.554 438.198 156.541C440.208 154.528 441.338 151.798 441.342 148.951V72.7315H442.07V60.1581H441.342V39.3585C441.338 36.5114 440.208 33.7819 438.198 31.7687C436.187 29.7556 433.462 28.6232 430.619 28.6199L388.359 28.6199Z" fill="#718096"/>
<path d="M414.391 32.9147C414.934 32.9147 415.374 32.474 415.374 31.9305C415.374 31.3869 414.934 30.9463 414.391 30.9463C413.849 30.9463 413.409 31.3869 413.409 31.9305C413.409 32.474 413.849 32.9147 414.391 32.9147Z" fill="#718096"/>
<path d="M200.614 222.58H90.6519C89.0903 222.576 87.5938 221.953 86.4895 220.847C85.3853 219.741 84.763 218.243 84.7588 216.679V163.019C84.7628 161.455 85.3849 159.956 86.489 158.851C87.5931 157.745 89.0895 157.121 90.6511 157.117H200.613C202.175 157.121 203.671 157.744 204.776 158.85C205.88 159.956 206.502 161.454 206.506 163.018V216.678C206.502 218.242 205.88 219.741 204.776 220.847C203.672 221.953 202.176 222.576 200.614 222.58Z" fill="white"/>
<path d="M200.614 222.58H90.6519C89.0903 222.576 87.5938 221.953 86.4895 220.847C85.3853 219.741 84.763 218.243 84.7588 216.679V163.019C84.7628 161.455 85.3849 159.956 86.489 158.851C87.5931 157.745 89.0895 157.121 90.6511 157.117H200.613C202.175 157.121 203.671 157.744 204.776 158.85C205.88 159.956 206.502 161.454 206.506 163.018V216.678C206.502 218.242 205.88 219.741 204.776 220.847C203.672 221.953 202.176 222.576 200.614 222.58ZM90.6519 158.763C89.5258 158.767 88.4468 159.216 87.6506 160.014C86.8544 160.811 86.4057 161.892 86.4026 163.02V216.678C86.4059 217.806 86.8547 218.886 87.6511 219.684C88.4474 220.481 89.5266 220.931 90.6527 220.934H200.612C201.739 220.931 202.818 220.481 203.614 219.684C204.411 218.886 204.859 217.805 204.862 216.677V163.019C204.859 161.891 204.41 160.811 203.614 160.013C202.818 159.216 201.738 158.767 200.612 158.764L90.6519 158.763Z" fill="#718096"/>
<path d="M151.526 214.65C129.839 214.65 107.226 214.442 98.7883 214.308C97.6782 214.285 96.6211 213.828 95.8426 213.035C95.0641 212.242 94.6259 211.176 94.6216 210.064V165.646C94.622 165.248 94.7799 164.866 95.0607 164.584C95.3415 164.302 95.7223 164.143 96.1199 164.142H195.141C195.539 164.142 195.92 164.3 196.201 164.581C196.483 164.862 196.642 165.244 196.643 165.642V195.779C196.625 200.698 194.682 205.414 191.231 208.916C187.78 212.417 183.097 214.424 178.185 214.507C170.322 214.61 161.01 214.65 151.526 214.65Z" fill="#0BC5EA"/>
<path d="M189.264 193.01H99.7901C99.0409 193.008 98.3105 192.775 97.6982 192.343C97.0859 191.911 96.6213 191.3 96.3676 190.594L86.2405 162.141C86.0453 161.592 85.9845 161.005 86.0631 160.427C86.1418 159.85 86.3575 159.3 86.6924 158.824C87.0272 158.348 87.4712 157.959 87.9872 157.69C88.5033 157.421 89.0761 157.28 89.6578 157.279L201.498 157.123C202.03 157.122 202.555 157.239 203.037 157.464C203.519 157.688 203.946 158.016 204.287 158.424C204.629 158.832 204.877 159.31 205.014 159.825C205.151 160.339 205.174 160.877 205.081 161.402L205.167 161.438L204.846 162.189L204.843 162.196L192.601 190.805C192.322 191.46 191.857 192.018 191.263 192.41C190.67 192.802 189.975 193.011 189.264 193.01ZM201.503 158.769L89.661 158.925C89.3424 158.926 89.0285 159.003 88.7458 159.15C88.4631 159.297 88.2199 159.51 88.0364 159.771C87.853 160.032 87.7348 160.334 87.6917 160.65C87.6486 160.966 87.6819 161.288 87.7888 161.588L97.9155 190.04C98.0547 190.427 98.3094 190.762 98.645 190.998C98.9805 191.235 99.3808 191.363 99.7913 191.364H189.264C189.653 191.365 190.033 191.25 190.358 191.036C190.683 190.821 190.937 190.515 191.09 190.157L203.333 161.547L203.935 161.806L203.333 161.547C203.462 161.244 203.515 160.914 203.486 160.585C203.456 160.257 203.346 159.94 203.165 159.665C202.984 159.39 202.737 159.164 202.447 159.007C202.157 158.851 201.833 158.769 201.503 158.769Z" fill="#718096"/>
<path d="M145.466 199.204C149.335 199.204 152.472 196.062 152.472 192.187C152.472 188.312 149.335 185.171 145.466 185.171C141.596 185.171 138.459 188.312 138.459 192.187C138.459 196.062 141.596 199.204 145.466 199.204Z" fill="white"/>
<path d="M410.124 138.292C413.993 138.292 417.13 135.15 417.13 131.275C417.13 127.4 413.993 124.259 410.124 124.259C406.254 124.259 403.118 127.4 403.118 131.275C403.118 135.15 406.254 138.292 410.124 138.292Z" fill="white"/>
<path d="M675.107 233.048L656.392 214.543C655.481 213.636 654.4 212.917 653.211 212.428C652.022 211.939 650.748 211.69 649.463 211.695H649.397C648.102 211.699 646.821 211.96 645.627 212.463C644.434 212.966 643.352 213.701 642.444 214.626C638.259 218.867 635.879 224.568 635.804 230.53C635.729 236.492 637.965 242.251 642.041 246.597C642.238 246.811 642.444 247.016 642.649 247.222C643.788 248.355 645.044 249.363 646.397 250.227C650.097 252.621 654.412 253.888 658.816 253.873H658.956C661.98 253.863 664.971 253.252 667.757 252.077C670.544 250.901 673.07 249.184 675.189 247.025C677.026 245.159 678.048 242.639 678.033 240.019C678.018 237.399 676.965 234.892 675.107 233.048ZM674.022 245.864C670.547 249.37 665.972 251.569 661.067 252.09C656.163 252.612 651.229 251.425 647.096 248.729C645.914 247.945 644.81 247.049 643.8 246.053C639.767 242.065 637.482 236.635 637.447 230.959C637.411 225.283 639.629 219.825 643.611 215.786C644.368 215.014 645.271 214.4 646.267 213.98C647.263 213.56 648.333 213.343 649.414 213.342H649.463C650.533 213.338 651.593 213.545 652.583 213.952C653.573 214.359 654.474 214.957 655.233 215.712L673.948 234.225C675.497 235.759 676.375 237.847 676.389 240.029C676.403 242.211 675.552 244.31 674.022 245.864Z" fill="#718096"/>
<path d="M613.701 172.317L594.986 153.804C593.144 151.974 590.652 150.95 588.057 150.956H588C586.703 150.961 585.42 151.224 584.225 151.728C583.03 152.232 581.947 152.969 581.038 153.895C577.579 157.413 575.335 161.949 574.637 166.837C573.939 171.726 574.823 176.71 577.159 181.058L577.167 181.067C578.13 182.845 579.327 184.487 580.726 185.948C580.882 186.129 581.063 186.31 581.244 186.491C585.541 190.764 591.355 193.155 597.411 193.142H597.559C600.582 193.129 603.574 192.517 606.36 191.34C609.146 190.163 611.672 188.445 613.792 186.285C614.702 185.362 615.421 184.269 615.909 183.067C616.397 181.865 616.644 180.579 616.635 179.282C616.627 177.985 616.363 176.702 615.86 175.507C615.357 174.312 614.623 173.228 613.701 172.317V172.317ZM612.616 185.133C610.649 187.137 608.305 188.731 605.719 189.824C603.133 190.916 600.357 191.484 597.55 191.496H597.411C593.196 191.494 589.076 190.245 585.569 187.904C582.062 185.564 579.324 182.237 577.699 178.342C576.075 174.447 575.637 170.159 576.44 166.015C577.243 161.872 579.252 158.059 582.213 155.055C583.746 153.504 585.83 152.625 588.009 152.611C590.188 152.597 592.283 153.449 593.835 154.981L612.55 173.485C614.099 175.023 614.975 177.112 614.987 179.296C615 181.479 614.147 183.578 612.616 185.133L612.616 185.133Z" fill="#718096"/>
<path d="M676.303 238.866L655.67 218.458C654.317 217.122 652.49 216.379 650.591 216.391C648.691 216.403 646.874 217.168 645.538 218.52C643.866 220.212 642.544 222.217 641.646 224.42C640.749 226.624 640.294 228.983 640.307 231.362C640.32 233.742 640.802 236.096 641.724 238.289C642.647 240.483 643.992 242.472 645.682 244.144C647.373 245.817 649.376 247.139 651.578 248.035C653.779 248.932 656.135 249.385 658.511 249.369C660.887 249.353 663.237 248.868 665.426 247.942C667.615 247.015 669.6 245.666 671.268 243.971L676.303 238.866Z" fill="#0BC5EA"/>
<path d="M614.901 178.131L594.269 157.722C592.916 156.387 591.089 155.644 589.19 155.655C587.29 155.667 585.473 156.433 584.136 157.785C582.465 159.476 581.142 161.481 580.245 163.685C579.347 165.888 578.892 168.247 578.906 170.627C578.919 173.007 579.401 175.361 580.323 177.554C581.245 179.747 582.59 181.737 584.281 183.409C585.972 185.081 587.975 186.404 590.176 187.3C592.377 188.197 594.734 188.65 597.11 188.634C599.486 188.617 601.836 188.132 604.025 187.206C606.214 186.28 608.199 184.931 609.867 183.236L614.901 178.131Z" fill="#0BC5EA"/>
<path d="M653.63 251.576L653.137 252.877C650.819 251.996 648.573 251.113 646.397 250.226C607.866 234.48 589.471 216.05 577.167 181.066L577.159 181.058C576.575 179.412 576.008 177.727 575.458 176.004L576.756 175.584C577.19 177.241 577.825 178.839 578.647 180.342C579.321 182.26 580.014 184.128 580.726 185.947C592.29 215.473 609.345 232.348 642.041 246.596C643.685 247.313 645.37 248.023 647.096 248.728C649.1 250.036 651.309 250.999 653.63 251.576Z" fill="#718096"/>
<path d="M594.643 191.644L593.488 192.815L636.177 235.041L637.332 233.869L594.643 191.644Z" fill="#718096"/>
<path d="M233.231 156.656L233.253 129.605L217.376 131.026L222.979 148.087L202.639 178.967C201.367 179.253 200.206 179.903 199.297 180.838C198.387 181.774 197.769 182.954 197.518 184.235C197.267 185.516 197.394 186.843 197.883 188.053C198.371 189.263 199.201 190.305 200.271 191.051C201.34 191.797 202.604 192.216 203.907 192.255C205.21 192.295 206.496 191.954 207.609 191.274C208.721 190.594 209.613 189.604 210.174 188.426C210.734 187.247 210.941 185.931 210.768 184.637L233.231 156.656Z" fill="#FFB6B6"/>
</g>
<defs>
<clipPath id="clip0_218_10113">
<rect width="735" height="369" fill="white"/>
</clipPath>
</defs>
</svg>
