<svg width="32" height="32" viewBox="0 0 32 32" fill="none" xmlns="http://www.w3.org/2000/svg">
<path fill-rule="evenodd" clip-rule="evenodd" d="M18.9674 10.1701C17.0106 9.95145 14.9894 9.95145 13.0325 10.1701C11.5589 10.3349 10.3647 11.4947 10.1902 12.9866C9.95603 14.9887 9.95603 17.0113 10.1902 19.0134C10.3647 20.5053 11.5589 21.6652 13.0326 21.8299C14.9894 22.0486 17.0106 22.0486 18.9674 21.8299C20.4411 21.6652 21.6353 20.5053 21.8098 19.0134C22.044 17.0113 22.044 14.9887 21.8098 12.9866C21.6353 11.4947 20.4411 10.3349 18.9674 10.1701ZM13.306 12.6165C15.0811 12.4181 16.9189 12.4181 18.694 12.6165C19.0486 12.6561 19.3257 12.9374 19.3649 13.2726C19.5769 15.0847 19.5769 16.9153 19.3649 18.7274C19.3257 19.0626 19.0486 19.3439 18.694 19.3836C16.9189 19.5819 15.0811 19.5819 13.306 19.3836C12.9514 19.3439 12.6743 19.0626 12.6351 18.7274C12.4231 16.9153 12.4231 15.0847 12.6351 13.2726C12.6743 12.9374 12.9514 12.6561 13.306 12.6165Z" fill="white"/>
<path fill-rule="evenodd" clip-rule="evenodd" d="M22.1538 1.23077C22.1538 0.551034 21.6028 0 20.9231 0C20.2433 0 19.6923 0.551034 19.6923 1.23077V5.37209C18.8746 5.31466 18.0533 5.27639 17.2308 5.25729V2.87179C17.2308 2.19206 16.6797 1.64103 16 1.64103C15.3203 1.64103 14.7692 2.19206 14.7692 2.8718V5.25729C13.9467 5.2764 13.1254 5.31466 12.3077 5.37209V1.23077C12.3077 0.551034 11.7567 0 11.0769 0C10.3972 0 9.84615 0.551034 9.84615 1.23077V5.61564C7.71292 6.00418 6.01026 7.6897 5.64169 9.84615H1.23077C0.551034 9.84615 0 10.3972 0 11.0769C0 11.7567 0.551034 12.3077 1.23077 12.3077H5.3947C5.33479 13.1274 5.29486 13.9481 5.2749 14.7692H2.8718C2.19206 14.7692 1.64103 15.3203 1.64103 16C1.64103 16.6797 2.19206 17.2308 2.87179 17.2308H5.2749C5.29486 18.0519 5.33479 18.8726 5.39471 19.6923H1.23077C0.551034 19.6923 0 20.2433 0 20.9231C0 21.6028 0.551034 22.1538 1.23077 22.1538H5.64169C6.01027 24.3103 7.71292 25.9958 9.84615 26.3844V30.7692C9.84615 31.449 10.3972 32 11.0769 32C11.7567 32 12.3077 31.449 12.3077 30.7692V26.6279C13.1254 26.6853 13.9467 26.7236 14.7692 26.7427V29.1282C14.7692 29.8079 15.3203 30.359 16 30.359C16.6797 30.359 17.2308 29.8079 17.2308 29.1282V26.7427C18.0533 26.7236 18.8746 26.6853 19.6923 26.6279V30.7692C19.6923 31.449 20.2433 32 20.9231 32C21.6028 32 22.1538 31.449 22.1538 30.7692V26.3844C24.2871 25.9958 25.9897 24.3103 26.3583 22.1538H30.7692C31.449 22.1538 32 21.6028 32 20.9231C32 20.2433 31.449 19.6923 30.7692 19.6923H26.6053C26.6652 18.8726 26.7052 18.0519 26.7251 17.2308H29.1282C29.8079 17.2308 30.359 16.6797 30.359 16C30.359 15.3203 29.8079 14.7692 29.1282 14.7692H26.7251C26.7052 13.9481 26.6652 13.1274 26.6053 12.3077H30.7692C31.449 12.3077 32 11.7567 32 11.0769C32 10.3972 31.449 9.84615 30.7692 9.84615H26.3583C25.9898 7.68969 24.2871 6.00418 22.1538 5.61563V1.23077ZM10.4752 8.00975C14.1163 7.6028 17.8837 7.6028 21.5248 8.00975C22.7934 8.15154 23.8062 9.1534 23.9523 10.4022C24.3873 14.1214 24.3873 17.8786 23.9523 21.5978C23.8062 22.8466 22.7934 23.8485 21.5248 23.9902C17.8837 24.3972 14.1163 24.3972 10.4752 23.9902C9.2066 23.8485 8.19378 22.8466 8.04772 21.5978C7.61273 17.8786 7.61273 14.1214 8.04772 10.4022C8.19378 9.1534 9.2066 8.15154 10.4752 8.00975Z" fill="white"/>
</svg>
