<svg width="514" height="456" viewBox="0 0 514 456" fill="none" xmlns="http://www.w3.org/2000/svg">
<path d="M255.279 67.2916C253.62 85.6017 248.891 104.909 241.476 123.537C232.306 146.574 219.777 166.865 205.244 182.216L204.437 181.512C218.9 166.235 231.372 146.034 240.504 123.092C248.757 102.36 253.666 80.7855 254.706 60.71L255.737 60.8827C255.627 63.003 255.475 65.1392 255.279 67.2916Z" fill="#E2E8F0"/>
<path d="M254.785 90.0882C253.125 108.398 248.397 127.705 240.981 146.334C231.811 169.371 219.282 189.662 204.749 205.013L203.943 204.309C218.406 189.032 230.877 168.83 240.009 145.889C248.262 125.157 253.171 103.582 254.211 83.5066L255.242 83.6794C255.133 85.7996 254.98 87.9359 254.785 90.0882Z" fill="#E2E8F0"/>
<path d="M133.542 36.9996L132.65 37.4697C122.042 22.76 109.518 14.6118 96.43 13.9062C79.7922 13.0095 64.0815 24.2216 52.192 45.4773C40.2423 66.8414 33.6106 95.7551 33.5195 126.893L32.4517 126.836C32.5435 95.5615 39.2119 66.5063 51.2289 45.0231C63.3059 23.4317 79.3596 12.0475 96.4326 12.9677C109.896 13.6935 122.728 22.0036 133.542 36.9996Z" fill="#A0AEC0"/>
<path d="M39.1292 98.8714C38.7209 104.974 38.5047 111.215 38.4865 117.42C38.3818 153.13 44.5955 187.104 56.458 215.671L55.4574 215.947C43.5521 187.273 37.3136 153.183 37.4187 117.363C37.4371 111.14 37.6539 104.881 38.0635 98.7615L39.1292 98.8714Z" fill="#A0AEC0"/>
<path d="M47.0364 120.258C46.6281 126.361 46.4119 132.602 46.3937 138.807C46.2891 174.516 52.5027 208.491 64.3652 237.058L63.3647 237.334C51.4594 208.66 45.2208 174.57 45.3259 138.75C45.3443 132.527 45.5611 126.268 45.9707 120.148L47.0364 120.258Z" fill="#A0AEC0"/>
<path d="M389.517 435.052H0.218994V436.336H389.517V435.052Z" fill="#A0AEC0"/>
<path d="M120.926 114.832H117.359L102.199 169.808C102.199 169.808 101.901 206.359 105.469 224.189C105.469 224.189 111.414 216.463 115.575 216.463C119.737 216.463 123.601 177.534 123.601 177.534C123.601 177.534 139.951 121.964 120.926 114.832Z" fill="#A0AEC0"/>
<path d="M199.402 220.028C199.402 220.028 189.89 246.773 198.808 248.556C207.726 250.339 212.482 227.755 210.104 224.783C207.726 221.811 199.402 220.028 199.402 220.028Z" fill="#FEB8B8"/>
<path d="M104.501 214.503C104.501 214.503 107.175 242.762 116.012 240.614C124.849 238.466 119.621 215.986 116.21 214.296C112.799 212.606 104.501 214.503 104.501 214.503Z" fill="#FEB8B8"/>
<path d="M127.466 379.903C127.466 379.903 131.628 400.111 124.493 405.46C117.359 410.809 126.871 422.101 126.871 422.101L149.463 398.328C149.463 398.328 139.951 383.469 140.545 374.554L127.466 379.903Z" fill="#FEB8B8"/>
<path d="M163.137 398.328L160.76 414.375L160.165 425.667L173.244 424.478L175.028 401.3L163.137 398.328Z" fill="#FEB8B8"/>
<path d="M112.801 217.335C112.801 217.335 105.469 220.028 106.063 227.755C106.658 235.481 108.441 259.849 108.441 259.849C108.441 259.849 103.091 312.15 108.441 329.98C113.792 347.81 123.899 383.469 123.899 383.469C123.899 383.469 139.356 386.441 142.924 375.149C142.924 375.149 142.329 336.517 135.789 328.197C129.25 319.876 134.006 317.499 134.6 316.31C135.195 315.121 136.978 313.338 136.978 311.555C136.978 309.772 137.573 303.235 137.573 300.857C137.573 298.48 136.978 299.074 138.167 295.508C139.356 291.942 140.546 290.754 140.546 290.159C140.546 289.565 150.652 258.066 150.652 258.066L163.732 331.168C163.732 331.168 160.759 403.082 161.948 403.082C163.137 403.082 176.217 407.837 180.973 403.082C180.973 403.082 192.863 341.272 190.485 337.706C188.107 334.14 187.513 333.546 188.107 329.98C188.702 326.414 189.891 324.631 188.702 322.848C187.513 321.065 185.729 315.121 187.513 313.338C189.296 311.555 189.891 303.235 189.891 303.235C189.891 303.235 199.997 244.99 193.458 236.67C186.918 228.349 112.801 217.335 112.801 217.335Z" fill="#2F2E41"/>
<path d="M132.816 406.054C132.816 406.054 125.682 397.139 123.304 401.3C120.926 405.46 117.359 411.998 117.359 411.998C117.359 411.998 90.6056 435.176 105.469 435.771C120.332 436.365 129.844 425.667 129.844 425.667C129.844 425.667 132.222 413.781 139.356 413.781L140.545 416.752L153.625 408.432C153.625 408.432 151.783 392.651 146.461 393.112L132.816 406.054Z" fill="#2F2E41"/>
<path d="M157.787 423.884C157.787 423.884 173.244 417.941 175.028 423.884C176.811 429.828 176.811 432.799 176.811 432.799C176.811 432.799 189.891 454.195 176.811 455.384C163.732 456.573 157.787 448.252 157.787 448.252C157.787 448.252 159.57 438.148 157.787 436.96C156.003 435.771 157.787 423.884 157.787 423.884Z" fill="#2F2E41"/>
<path d="M168.487 95.8131C179.979 95.8131 189.296 86.4999 189.296 75.0115C189.296 63.5231 179.979 54.21 168.487 54.21C156.995 54.21 147.679 63.5231 147.679 75.0115C147.679 86.4999 156.995 95.8131 168.487 95.8131Z" fill="#FEB8B8"/>
<path d="M153.031 79.7664L148.869 102.945L178 110.077C178 110.077 171.163 93.1388 178.595 85.7097C180.475 83.8302 153.031 79.7664 153.031 79.7664Z" fill="#FEB8B8"/>
<path d="M150.642 93.0703C149.94 93.2025 149.289 93.53 148.765 94.0152C148.241 94.5004 147.865 95.1236 147.68 95.8132C147.161 97.5207 146.357 99.1283 145.302 100.568C145.302 100.568 117.359 113.643 117.359 115.426C117.359 117.209 128.655 155.246 128.655 155.246C128.655 155.246 129.25 179.02 124.493 184.368C119.737 189.717 114.981 209.33 116.17 211.113C117.359 212.896 107.847 217.057 111.414 220.028C114.981 223 164.921 251.528 194.647 238.453C194.647 238.453 195.241 233.104 194.647 229.538C194.052 225.972 198.214 214.085 197.025 209.925C195.836 205.764 197.025 162.973 197.025 162.973L203.152 112.302C203.269 111.339 203.043 110.367 202.514 109.554C201.985 108.742 201.186 108.141 200.258 107.859C193.406 105.777 177.515 97.2534 175.325 99.082C172.489 101.45 154.793 99.8368 150.642 93.0703Z" fill="#A0AEC0"/>
<path d="M197.619 107.7L197.657 107.685C198.508 107.344 199.447 107.295 200.328 107.548C201.209 107.8 201.98 108.338 202.521 109.077C206.205 114.117 213.958 125.444 214.86 132.662C216.049 142.171 219.617 167.727 219.022 171.293C218.428 174.859 217.833 175.453 219.022 177.236C220.211 179.019 219.617 178.425 219.022 180.208C218.428 181.991 211.293 231.321 211.293 231.321C211.293 231.321 206.537 220.623 197.619 224.189C197.619 224.189 198.808 214.679 197.619 211.708C196.43 208.736 195.241 206.953 196.43 204.576C197.619 202.198 196.43 179.019 195.836 176.642C195.241 174.265 195.836 161.784 195.836 161.784L190.485 137.416L197.619 107.7Z" fill="#A0AEC0"/>
<path d="M164.602 78.5532L165.305 73.6552C165.468 72.5135 166.137 71.0125 167.248 71.323C168.193 71.587 170.252 72.3957 170.597 72.1516C171.887 71.2374 173.841 72.8359 175.198 72.0239C175.767 71.6836 176.138 70.9546 176.799 70.906C177.243 70.9343 177.661 71.1236 177.974 71.4382C178.856 72.2043 179.894 72.7682 181.016 73.0902C181.58 73.2435 182.173 73.2435 182.737 73.09C183.3 72.9366 183.811 72.6354 184.219 72.2176C184.363 71.9951 184.557 71.8092 184.785 71.6749C185.053 71.5977 185.34 71.6108 185.6 71.7124L189.068 72.6564C189.578 70.8074 189.683 68.8702 189.375 66.977C189.067 65.0838 188.354 63.2794 187.285 61.687C185.878 59.7777 184.172 58.1076 182.233 56.7411C180.085 55.1076 177.868 53.5711 175.583 52.1317C173.082 50.552 170.429 49.0619 167.504 48.6178C164.579 48.1738 161.304 48.9682 159.464 51.2843C158.599 50.6582 157.948 49.7798 157.602 48.7695C157.396 48.9571 157.233 49.1878 157.126 49.4451C157.018 49.7024 156.969 49.9801 156.98 50.2586C156.992 50.5372 157.065 50.8098 157.193 51.0572C157.322 51.3046 157.503 51.5207 157.725 51.6903L154.791 49.8177C153.967 50.6833 155.578 52.2528 154.875 53.22C154.663 53.4592 154.39 53.6372 154.086 53.7354C152.493 54.356 151.033 55.2745 149.784 56.4417C148.098 58.1318 147.183 60.4259 146.397 62.6798C144.649 67.6929 143.379 73.442 145.862 78.1346C146.144 78.6666 149.86 87.4475 150.355 87.7899C152.029 88.9474 150.94 86.1462 152.139 87.7899C153.079 89.0789 152.903 84.1455 154.301 85.2284C154.849 85.6203 155.499 85.8451 156.172 85.8753C156.845 85.9056 157.513 85.7401 158.094 85.3989C158.673 84.9971 158.486 82.7662 158.174 80.7175C158.114 80.3272 158.151 79.9283 158.281 79.5556C158.411 79.1829 158.631 78.8479 158.921 78.5799C159.211 78.3118 159.562 78.119 159.944 78.0182C160.326 77.9175 160.727 77.9119 161.111 78.002C162.852 78.4113 164.572 78.7611 164.602 78.5532Z" fill="#2D3748"/>
<path opacity="0.1" d="M193.252 125.893L198.511 185.26C198.511 185.26 187.398 135.469 193.252 125.893Z" fill="#2D3748"/>
<path d="M95.5523 331.419C87.0418 343.445 84.7937 411.893 84.2927 433.834C84.2799 434.328 84.267 434.797 84.2606 435.24H62.7177C62.4543 434.771 62.2103 434.309 61.979 433.834C49.21 408.638 56.2946 378.427 56.6672 376.899C55.6973 381.702 60.0842 395.622 65.0428 409.106C68.068 367.646 93.9337 333.512 95.5523 331.419Z" fill="#0BC5EA"/>
<path d="M439.22 158.507C447.261 158.507 453.779 151.99 453.779 143.952C453.779 135.914 447.261 129.398 439.22 129.398C431.18 129.398 424.661 135.914 424.661 143.952C424.661 151.99 431.18 158.507 439.22 158.507Z" fill="#0BC5EA"/>
<path d="M442.132 165.783H376.617C370.825 165.783 365.271 163.483 361.175 159.389C357.08 155.295 354.779 149.742 354.779 143.952C354.779 138.162 357.08 132.609 361.175 128.515C365.271 124.421 370.825 122.121 376.617 122.121H442.132C447.924 122.121 453.479 124.421 457.574 128.515C461.67 132.609 463.971 138.162 463.971 143.952C463.971 149.742 461.67 155.295 457.574 159.389C453.479 163.483 447.924 165.783 442.132 165.783ZM376.617 125.031C371.598 125.031 366.783 127.025 363.234 130.573C359.685 134.121 357.691 138.934 357.691 143.952C357.691 148.97 359.685 153.783 363.234 157.331C366.783 160.879 371.598 162.873 376.617 162.873H442.132C447.152 162.873 451.966 160.879 455.515 157.331C459.065 153.783 461.059 148.97 461.059 143.952C461.059 138.934 459.065 134.121 455.515 130.573C451.966 127.025 447.152 125.031 442.132 125.031H376.617Z" fill="#2D3748"/>
<path d="M378.976 238.627C387.017 238.627 393.535 232.11 393.535 224.072C393.535 216.034 387.017 209.518 378.976 209.518C370.936 209.518 364.417 216.034 364.417 224.072C364.417 232.11 370.936 238.627 378.976 238.627Z" fill="#A0AEC0"/>
<path d="M442.132 245.904H376.617C370.825 245.904 365.271 243.604 361.175 239.51C357.08 235.416 354.779 229.863 354.779 224.073C354.779 218.283 357.08 212.73 361.175 208.635C365.271 204.541 370.825 202.241 376.617 202.241H442.132C447.924 202.241 453.479 204.541 457.574 208.635C461.67 212.73 463.971 218.283 463.971 224.073C463.971 229.863 461.67 235.416 457.574 239.51C453.479 243.604 447.924 245.904 442.132 245.904ZM376.617 205.152C371.598 205.152 366.783 207.145 363.234 210.694C359.685 214.242 357.691 219.055 357.691 224.073C357.691 229.091 359.685 233.903 363.234 237.451C366.783 241 371.598 242.993 376.617 242.993H442.132C447.152 242.993 451.966 241 455.515 237.451C459.065 233.903 461.059 229.091 461.059 224.073C461.059 219.055 459.065 214.242 455.515 210.694C451.966 207.145 447.152 205.152 442.132 205.152H376.617Z" fill="#A0AEC0"/>
<path d="M378.976 318.747C387.017 318.747 393.535 312.231 393.535 304.193C393.535 296.155 387.017 289.638 378.976 289.638C370.936 289.638 364.417 296.155 364.417 304.193C364.417 312.231 370.936 318.747 378.976 318.747Z" fill="#A0AEC0"/>
<path d="M442.132 326.024H376.617C370.825 326.024 365.271 323.724 361.175 319.63C357.08 315.535 354.779 309.983 354.779 304.193C354.779 298.402 357.08 292.85 361.175 288.755C365.271 284.661 370.825 282.361 376.617 282.361H442.132C447.924 282.361 453.479 284.661 457.574 288.755C461.67 292.85 463.971 298.402 463.971 304.193C463.971 309.983 461.67 315.535 457.574 319.63C453.479 323.724 447.924 326.024 442.132 326.024ZM376.617 285.272C371.598 285.272 366.783 287.265 363.234 290.814C359.685 294.362 357.691 299.174 357.691 304.193C357.691 309.211 359.685 314.023 363.234 317.571C366.783 321.12 371.598 323.113 376.617 323.113H442.132C444.618 323.113 447.079 322.624 449.375 321.673C451.671 320.722 453.758 319.328 455.515 317.571C457.273 315.814 458.667 313.729 459.618 311.433C460.569 309.138 461.059 306.677 461.059 304.193C461.059 301.708 460.569 299.247 459.618 296.952C458.667 294.656 457.273 292.571 455.515 290.814C453.758 289.057 451.671 287.663 449.375 286.712C447.079 285.761 444.618 285.272 442.132 285.272H376.617Z" fill="#A0AEC0"/>
<path d="M510.538 387.8H308.212C307.36 387.799 306.544 387.461 305.942 386.859C305.34 386.257 305.001 385.441 305 384.59V63.555C305.001 62.7038 305.34 61.8878 305.942 61.2859C306.544 60.6841 307.36 60.3455 308.212 60.3445H510.538C511.389 60.3455 512.206 60.6841 512.808 61.2859C513.41 61.8878 513.748 62.7038 513.749 63.555V384.59C513.748 385.441 513.41 386.257 512.808 386.859C512.206 387.461 511.389 387.799 510.538 387.8ZM308.212 61.6287C307.701 61.6292 307.211 61.8324 306.85 62.1935C306.488 62.5546 306.285 63.0443 306.285 63.555V384.59C306.285 385.1 306.488 385.59 306.85 385.951C307.211 386.312 307.701 386.515 308.212 386.516H510.538C511.049 386.515 511.539 386.312 511.9 385.951C512.261 385.59 512.464 385.1 512.465 384.59V63.555C512.464 63.0443 512.261 62.5546 511.9 62.1935C511.539 61.8324 511.049 61.6292 510.538 61.6287H308.212Z" fill="#A0AEC0"/>
</svg>
