<svg width="488" height="400" viewBox="0 0 488 400" fill="none" xmlns="http://www.w3.org/2000/svg">
<g clip-path="url(#clip0_1052_7018)">
<path d="M487.022 387.771C487.171 403.354 388.969 404.782 387.099 387.772C386.95 372.189 485.151 370.761 487.022 387.771Z" fill="#CBD5E0"/>
<path d="M410.19 333.671L402.891 337.652L407.536 352.912L414.834 353.575L418.815 344.95L410.19 333.671Z" fill="#FEB8B8"/>
<path d="M432.748 364.191V371.489L444.026 370.825L443.869 364.815L432.748 364.191Z" fill="#FEB8B8"/>
<path d="M407.536 246.093L411.516 295.854L424.122 368.835L444.026 366.181L437.392 308.459L440.046 255.382L407.536 246.093Z" fill="#4A5568"/>
<path d="M460.613 208.939L412.843 209.603L407.536 246.094L440.046 261.353L448.007 290.546L407.536 333.671L423.459 353.575C423.459 353.575 446.017 323.056 462.604 305.806C479.19 288.556 471.229 236.142 471.229 236.142L460.613 208.939Z" fill="#4A5568"/>
<path d="M432.084 114.727C440.145 114.727 446.68 108.192 446.68 100.13C446.68 92.0692 440.145 85.5342 432.084 85.5342C424.023 85.5342 417.488 92.0692 417.488 100.13C417.488 108.192 424.023 114.727 432.084 114.727Z" fill="#FEB8B8"/>
<path d="M426.776 110.082V124.679L436.728 140.602C436.728 140.602 451.988 129.323 448.671 126.669C445.353 124.015 444.69 103.448 444.69 103.448L426.776 110.082Z" fill="#FEB8B8"/>
<path d="M426.776 122.025L416.824 133.967L420.805 216.901L451.988 216.237L457.296 143.92L450.661 125.342L446.11 119.15L438.055 131.313L426.776 122.025Z" fill="#CBD5E0"/>
<path d="M410.853 165.151L403.555 193.016L410.853 220.882L398.911 236.805L388.295 186.382C388.295 186.382 396.257 145.247 396.92 140.602C397.584 135.958 398.911 135.294 398.911 135.294L404.218 135.958L410.853 165.151Z" fill="#4A5568"/>
<path d="M463.93 175.766L468.575 184.391L469.902 198.987L467.248 215.574L476.536 230.834L485.825 189.035L475.873 135.294H471.892L463.93 175.766Z" fill="#4A5568"/>
<path d="M407.536 333.008C407.536 333.008 398.247 335.662 394.93 336.325C391.612 336.989 396.92 349.594 396.92 349.594C396.92 349.594 400.238 366.845 400.901 370.162C401.565 373.479 406.209 384.758 412.18 386.085C418.151 387.412 414.17 362.864 414.17 362.864C414.17 362.864 416.824 354.902 416.824 352.248C416.824 349.594 412.844 350.921 412.844 350.921C402.228 349.595 407.536 333.008 407.536 333.008Z" fill="#2D3748"/>
<path d="M429.43 384.095C430.094 388.076 428.767 388.076 439.382 389.403C449.998 390.73 447.344 382.105 447.344 382.105C446.9 378.038 446.01 374.034 444.69 370.162C442.7 364.854 432.084 371.489 432.084 371.489C432.084 371.489 428.767 380.114 429.43 384.095Z" fill="#2D3748"/>
<path d="M444.707 103.911L445.053 109.812C445.053 109.812 449.334 100.131 449.998 90.1785C450.661 80.2265 439.382 78.2361 432.748 77.5727C426.113 76.9092 414.834 81.5535 414.834 86.8612C414.834 92.169 426.776 90.842 431.421 89.5151C436.065 88.1882 438.055 99.4671 438.055 99.4671L440.709 100.131L444.707 103.911Z" fill="#2D3748"/>
<path d="M422.86 126.723L426.776 122.025L438.055 131.313L426.776 139.275L422.86 126.723Z" fill="#D0CDE1"/>
<path d="M450.661 125.342L446.017 119.371L438.055 131.313L448.007 138.612L450.661 125.342Z" fill="#D0CDE1"/>
<path d="M408.863 174.439L411.517 199.651L406.209 214.911L402.892 229.507C402.892 229.507 402.892 243.44 416.161 244.103C429.43 244.767 440.709 202.305 440.709 202.305C440.709 202.305 442.7 211.593 444.027 216.901C445.354 222.209 467.911 243.44 467.911 243.44C467.911 243.44 473.219 242.776 477.863 232.161C482.508 221.545 468.575 211.593 468.575 211.593L464.594 197.66L465.921 180.41L475.21 135.294L447.676 121.03L450.661 159.179L440.709 189.035L425.781 123.02L420.805 126.669L399.574 135.294L408.863 174.439Z" fill="#4A5568"/>
<path d="M146.654 274.79C145.342 274.779 144.015 274.77 142.712 274.73L142.752 273.416C144.042 273.455 145.361 273.473 146.654 273.475C147.953 273.475 149.277 273.454 150.59 273.411L150.632 274.725C149.305 274.768 147.967 274.79 146.654 274.79ZM134.808 274.234C132.191 273.986 129.548 273.651 126.952 273.237L127.159 271.938C129.727 272.348 132.342 272.681 134.932 272.926L134.808 274.234ZM158.535 274.22L158.41 272.912C160.999 272.664 163.613 272.328 166.181 271.915L166.391 273.213C163.795 273.631 161.152 273.97 158.535 274.22H158.535ZM119.175 271.736C116.613 271.155 114.034 270.482 111.512 269.737L111.884 268.476C114.38 269.214 116.931 269.879 119.466 270.454L119.175 271.736ZM174.165 271.704L173.873 270.422C176.414 269.842 178.965 269.174 181.453 268.435L181.827 269.696C179.312 270.443 176.734 271.118 174.165 271.704H174.165ZM103.992 267.249C101.519 266.34 99.0446 265.34 96.6378 264.275L97.1701 263.073C99.5508 264.126 101.998 265.116 104.445 266.015L103.992 267.249ZM189.343 267.197L188.888 265.964C191.32 265.068 193.759 264.079 196.138 263.023L196.671 264.225C194.266 265.292 191.801 266.292 189.343 267.197H189.343ZM89.4935 260.834C87.1664 259.619 84.8423 258.31 82.5867 256.942L83.2685 255.818C85.5004 257.172 87.7993 258.466 90.1018 259.668L89.4935 260.834ZM203.796 260.786L203.187 259.621C205.484 258.42 207.778 257.125 210.004 255.772L210.687 256.896C208.437 258.263 206.118 259.571 203.796 260.786H203.796ZM75.9454 252.617C73.7899 251.113 71.6537 249.517 69.5955 247.876L70.4153 246.848C72.4517 248.472 74.5655 250.05 76.6978 251.538L75.9454 252.617ZM217.317 252.57L216.564 251.493C218.696 250.003 220.806 248.425 222.838 246.802L223.658 247.829C221.605 249.469 219.472 251.064 217.317 252.57ZM63.5619 242.74C61.6134 240.971 59.6978 239.118 57.8691 237.232L58.8128 236.317C60.6222 238.182 62.5177 240.016 64.4459 241.766L63.5619 242.74ZM229.686 242.694L228.801 241.721C230.724 239.974 232.618 238.139 234.431 236.269L235.374 237.183C233.543 239.074 231.629 240.928 229.686 242.694ZM52.5393 231.375C50.8332 229.374 49.1699 227.294 47.5948 225.191L48.6473 224.402C50.2057 226.483 51.8514 228.542 53.5395 230.521L52.5393 231.375ZM240.703 231.32L239.703 230.468C241.39 228.487 243.036 226.426 244.594 224.342L245.647 225.129C244.073 227.235 242.409 229.318 240.703 231.32V231.32ZM43.0556 218.704C41.6172 216.501 40.2331 214.227 38.9415 211.943L40.0861 211.296C41.3637 213.555 42.7333 215.806 44.1566 217.985L43.0556 218.704ZM250.188 218.633L249.086 217.915C250.51 215.732 251.88 213.477 253.158 211.213L254.303 211.858C253.012 214.148 251.627 216.427 250.188 218.633ZM35.27 204.934C34.1259 202.568 33.0452 200.136 32.0578 197.705L33.2756 197.211C34.2527 199.615 35.322 202.021 36.4538 204.361L35.27 204.934ZM257.976 204.831L256.792 204.26C257.923 201.915 258.993 199.503 259.971 197.088L261.19 197.581C260.201 200.022 259.12 202.462 257.976 204.831ZM29.3133 190.276C28.4816 187.778 27.7218 185.224 27.0548 182.683L28.3266 182.349C28.9862 184.862 29.738 187.39 30.5607 189.86L29.3133 190.276ZM263.929 190.136L262.681 189.723C263.499 187.256 264.248 184.728 264.906 182.209L266.179 182.542C265.513 185.088 264.756 187.643 263.929 190.136ZM25.291 174.962C24.7886 172.383 24.3636 169.753 24.0275 167.144L25.3314 166.976C25.664 169.557 26.0845 172.159 26.5814 174.711L25.291 174.962ZM267.933 174.818L266.643 174.569C267.136 172.018 267.554 169.414 267.883 166.832L269.188 166.999C268.854 169.609 268.432 172.24 267.933 174.818V174.818ZM23.2674 159.262C23.0989 156.641 23.0119 153.978 23.009 151.345L24.3238 151.344C24.3267 153.949 24.4127 156.584 24.5796 159.177L23.2674 159.262ZM269.939 159.115L268.626 159.032C268.79 156.441 268.873 153.806 268.873 151.2L268.872 150.912H270.187L270.188 151.196C270.188 153.833 270.104 156.496 269.939 159.115ZM24.5613 143.512L23.2491 143.431C23.4122 140.805 23.6616 138.152 23.9906 135.546L25.2951 135.71C24.9693 138.29 24.7225 140.914 24.5613 143.512ZM268.609 143.08C268.438 140.481 268.182 137.858 267.847 135.282L269.15 135.113C269.489 137.716 269.748 140.367 269.921 142.994L268.609 143.08ZM26.5265 127.973L25.2355 127.725C25.7314 125.144 26.3188 122.545 26.9807 120L28.2531 120.33C27.5983 122.849 27.0173 125.42 26.5265 127.973ZM266.587 127.549C266.086 124.995 265.496 122.425 264.833 119.912L266.104 119.577C266.774 122.117 267.371 124.714 267.877 127.296L266.587 127.549ZM30.4698 112.814L29.2212 112.402C30.0465 109.904 30.9651 107.398 31.9522 104.954L33.1713 105.446C32.1948 107.864 31.2861 110.343 30.4698 112.814ZM262.591 112.405C261.766 109.937 260.85 107.465 259.868 105.057L261.085 104.561C262.078 106.995 263.004 109.493 263.838 111.987L262.591 112.405ZM36.3427 98.2687L35.1576 97.6987C36.2981 95.3278 37.5313 92.9621 38.8227 90.6677L39.9686 91.3128C38.6908 93.5826 37.471 95.923 36.3427 98.2687ZM256.682 97.9102C255.549 95.5756 254.325 93.2439 253.041 90.98L254.185 90.3316C255.483 92.6196 256.72 94.9766 257.864 97.3369L256.682 97.9102ZM44.0324 84.6051L42.9301 83.888C44.364 81.6841 45.889 79.4965 47.4625 77.3867L48.5166 78.1724C46.9598 80.2602 45.4509 82.4243 44.0324 84.6051ZM248.963 84.2957C247.54 82.1229 246.027 79.9655 244.464 77.8836L245.516 77.0945C247.095 79.199 248.625 81.3795 250.063 83.5754L248.963 84.2957ZM53.4015 72.0412L52.4 71.1899C54.1029 69.1866 55.893 67.2119 57.7208 65.3209L58.6664 66.2344C56.8579 68.1055 55.0867 70.0594 53.4015 72.0412ZM239.565 71.7703C237.874 69.7939 236.097 67.8458 234.284 65.9802L235.227 65.0641C237.06 66.9493 238.855 68.9182 240.563 70.9158L239.565 71.7703ZM64.2892 60.7753L63.4039 59.8034C65.3495 58.0312 67.3756 56.3007 69.4254 54.6604L70.2471 55.687C68.2188 57.3099 66.2142 59.0221 64.2892 60.7753ZM228.644 60.5368C226.717 58.7916 224.706 57.0846 222.669 55.4636L223.488 54.4345C225.547 56.0731 227.579 57.7981 229.526 59.5623L228.644 60.5368ZM76.5158 50.9892L75.7615 49.9126C77.9128 48.4049 80.1417 46.9473 82.3864 45.5799L83.0705 46.7027C80.8498 48.0557 78.6443 49.4979 76.5158 50.9892ZM216.381 50.78C214.241 49.2902 212.029 47.8528 209.805 46.5076L210.486 45.3828C212.733 46.7422 214.97 48.195 217.132 49.7008L216.381 50.78ZM89.8832 42.8457L89.2727 41.6811C91.597 40.462 93.9928 39.3019 96.3929 38.2334L96.9277 39.4345C94.553 40.4915 92.1831 41.6394 89.8832 42.8457ZM202.968 42.6653C200.659 41.4635 198.28 40.3211 195.896 39.2695L196.426 38.0664C198.836 39.1292 201.241 40.2842 203.575 41.4988L202.968 42.6653ZM104.174 36.4852L103.718 35.252C106.183 34.34 108.711 33.4965 111.231 32.745L111.607 34.0052C109.113 34.7483 106.613 35.5829 104.174 36.4852H104.174ZM188.617 36.336C186.173 35.442 183.67 34.6164 181.175 33.8826L181.547 32.6211C184.068 33.3629 186.599 34.1975 189.069 35.1014L188.617 36.336ZM119.184 32.0103L118.89 30.7289C121.448 30.1428 124.063 29.6321 126.663 29.21L126.874 30.508C124.302 30.9253 121.714 31.4306 119.184 32.0103ZM173.591 31.9146C171.056 31.3433 168.467 30.847 165.896 30.4394L166.102 29.1406C168.7 29.5528 171.318 30.0545 173.88 30.6319L173.591 31.9146ZM134.644 29.5017L134.517 28.1934C137.127 27.9401 139.786 27.7671 142.419 27.6795L142.463 28.9936C139.857 29.0803 137.227 29.2514 134.644 29.5017ZM158.122 29.461C155.535 29.2193 152.904 29.0575 150.301 28.9801L150.34 27.666C152.97 27.7443 155.63 27.9077 158.244 28.152L158.122 29.461Z" fill="#D0CDE1"/>
<path d="M141.997 61.7948C159.061 61.7948 172.894 47.9615 172.894 30.8974C172.894 13.8332 159.061 0 141.997 0C124.932 0 111.099 13.8332 111.099 30.8974C111.099 47.9615 124.932 61.7948 141.997 61.7948Z" fill="#0BC5EA"/>
<path d="M261.642 145.941C278.706 145.941 292.539 132.108 292.539 115.043C292.539 97.9792 278.706 84.146 261.642 84.146C244.578 84.146 230.744 97.9792 230.744 115.043C230.744 132.108 244.578 145.941 261.642 145.941Z" fill="#0BC5EA"/>
<path d="M224.17 274.789C241.234 274.789 255.068 260.956 255.068 243.892C255.068 226.828 241.234 212.995 224.17 212.995C207.106 212.995 193.273 226.828 193.273 243.892C193.273 260.956 207.106 274.789 224.17 274.789Z" fill="#0BC5EA"/>
<path d="M75.6 280.049C92.6642 280.049 106.497 266.215 106.497 249.151C106.497 232.087 92.6642 218.254 75.6 218.254C58.5359 218.254 44.7026 232.087 44.7026 249.151C44.7026 266.215 58.5359 280.049 75.6 280.049Z" fill="#0BC5EA"/>
<path d="M30.8974 145.941C47.9615 145.941 61.7948 132.108 61.7948 115.043C61.7948 97.9792 47.9615 84.146 30.8974 84.146C13.8332 84.146 0 97.9792 0 115.043C0 132.108 13.8332 145.941 30.8974 145.941Z" fill="#0BC5EA"/>
<path d="M155.237 28.4339H144.46C143.48 28.4339 142.54 28.0446 141.847 27.3517C141.154 26.6587 140.765 25.7189 140.765 24.7389V13.9617C140.765 13.9213 140.757 13.8812 140.741 13.8439C140.726 13.8065 140.703 13.7726 140.675 13.744C140.646 13.7154 140.612 13.6927 140.575 13.6772C140.537 13.6618 140.497 13.6538 140.457 13.6538H133.375C132.068 13.6538 130.815 14.1729 129.891 15.0968C128.967 16.0207 128.448 17.2739 128.448 18.5805V43.214C128.448 44.5206 128.967 45.7737 129.891 46.6977C130.815 47.6216 132.068 48.1407 133.375 48.1407H150.618C151.925 48.1407 153.178 47.6216 154.102 46.6977C155.026 45.7737 155.545 44.5206 155.545 43.214V28.7418C155.545 28.7014 155.537 28.6613 155.522 28.624C155.506 28.5866 155.483 28.5527 155.455 28.5241C155.426 28.4955 155.392 28.4728 155.355 28.4573C155.318 28.4419 155.277 28.4339 155.237 28.4339ZM148.155 40.7506H135.838C135.512 40.7506 135.198 40.6209 134.967 40.3899C134.736 40.1589 134.606 39.8456 134.606 39.519C134.606 39.1923 134.736 38.879 134.967 38.648C135.198 38.4171 135.512 38.2873 135.838 38.2873H148.155C148.482 38.2873 148.795 38.4171 149.026 38.648C149.257 38.879 149.387 39.1923 149.387 39.519C149.387 39.8456 149.257 40.1589 149.026 40.3899C148.795 40.6209 148.482 40.7506 148.155 40.7506ZM148.155 34.5923H135.838C135.512 34.5923 135.198 34.4625 134.967 34.2315C134.736 34.0005 134.606 33.6873 134.606 33.3606C134.606 33.0339 134.736 32.7206 134.967 32.4897C135.198 32.2587 135.512 32.1289 135.838 32.1289H148.155C148.482 32.1289 148.795 32.2587 149.026 32.4897C149.257 32.7206 149.387 33.0339 149.387 33.3606C149.387 33.6873 149.257 34.0005 149.026 34.2315C148.795 34.4625 148.482 34.5923 148.155 34.5923Z" fill="white"/>
<path d="M154.561 25.708L143.491 14.6375C143.469 14.6161 143.442 14.6016 143.412 14.5957C143.382 14.5898 143.351 14.5929 143.323 14.6045C143.295 14.6161 143.271 14.6357 143.254 14.6609C143.237 14.6861 143.228 14.7157 143.228 14.7461V24.7388C143.228 25.0655 143.358 25.3788 143.589 25.6097C143.82 25.8407 144.133 25.9705 144.46 25.9705H154.453C154.483 25.9704 154.513 25.9613 154.538 25.9443C154.563 25.9274 154.583 25.9034 154.594 25.8754C154.606 25.8473 154.609 25.8165 154.603 25.7867C154.597 25.7569 154.583 25.7295 154.561 25.708L154.561 25.708Z" fill="white"/>
<path d="M228.639 237.806C228.261 237.806 227.893 237.937 227.601 238.178C227.308 238.418 227.108 238.753 227.034 239.124C226.96 239.496 227.018 239.882 227.197 240.216C227.375 240.55 227.664 240.811 228.014 240.956C228.364 241.101 228.754 241.12 229.116 241.01C229.479 240.9 229.792 240.667 230.002 240.352C230.212 240.037 230.307 239.659 230.27 239.282C230.232 238.905 230.066 238.553 229.798 238.285C229.645 238.133 229.465 238.012 229.266 237.93C229.067 237.848 228.854 237.806 228.639 237.806Z" fill="white"/>
<path d="M237.755 231.258V231.252C237.703 231.025 237.589 230.816 237.425 230.651C237.261 230.485 237.054 230.368 236.827 230.314C234.999 229.868 232.123 230.343 228.936 231.619C225.871 232.811 223.067 234.586 220.679 236.847C220.027 237.496 219.421 238.189 218.866 238.923C217.64 238.838 216.411 239.036 215.273 239.5C211.731 241.059 210.719 245.049 210.45 246.687C210.411 246.919 210.426 247.158 210.494 247.384C210.563 247.61 210.682 247.817 210.843 247.989C211.005 248.161 211.204 248.294 211.425 248.376C211.646 248.459 211.883 248.49 212.118 248.466H212.126L216.072 248.035C216.077 248.085 216.082 248.131 216.086 248.174C216.137 248.655 216.352 249.103 216.694 249.445L218.62 251.372C218.961 251.715 219.409 251.929 219.89 251.98L220.022 251.994L219.593 255.935V255.943C219.572 256.143 219.591 256.346 219.648 256.539C219.706 256.732 219.801 256.912 219.928 257.068C220.055 257.224 220.212 257.354 220.389 257.45C220.566 257.546 220.76 257.606 220.96 257.626C221.008 257.631 221.055 257.634 221.102 257.635C221.188 257.635 221.273 257.628 221.357 257.614C223.004 257.349 226.992 256.349 228.547 252.788C229.007 251.654 229.206 250.43 229.126 249.209C229.863 248.655 230.559 248.049 231.209 247.396C233.469 245.031 235.247 242.249 236.443 239.204C237.712 236.053 238.19 233.156 237.755 231.258ZM231.187 241.987C230.683 242.491 230.041 242.835 229.342 242.974C228.642 243.114 227.917 243.043 227.258 242.77C226.599 242.498 226.036 242.036 225.64 241.443C225.243 240.85 225.031 240.153 225.031 239.44C225.03 238.727 225.242 238.03 225.637 237.437C226.033 236.844 226.596 236.381 227.255 236.108C227.914 235.835 228.638 235.763 229.338 235.902C230.037 236.041 230.68 236.384 231.185 236.888L231.187 236.89C231.863 237.556 232.247 238.463 232.254 239.411C232.261 240.36 231.891 241.273 231.225 241.948L231.187 241.987Z" fill="white"/>
<path d="M218.399 251.895C218.161 251.865 217.921 251.923 217.724 252.058C217.332 252.326 216.938 252.591 216.541 252.85C216.368 252.961 216.163 253.011 215.959 252.991C215.754 252.972 215.563 252.884 215.414 252.743C215.265 252.601 215.169 252.414 215.139 252.211C215.11 252.008 215.15 251.801 215.252 251.623L215.998 250.334C216.104 250.178 216.163 249.995 216.168 249.806C216.173 249.618 216.124 249.431 216.026 249.27C215.928 249.109 215.785 248.979 215.615 248.897C215.445 248.815 215.255 248.783 215.068 248.806C214.24 248.911 213.471 249.288 212.882 249.877C212.657 250.102 211.974 250.786 211.607 253.39C211.502 254.138 211.436 254.891 211.409 255.646C211.406 255.775 211.428 255.903 211.474 256.023C211.521 256.144 211.59 256.254 211.679 256.347C211.768 256.441 211.874 256.516 211.992 256.568C212.11 256.621 212.237 256.649 212.365 256.652C212.374 256.653 212.382 256.653 212.391 256.653H212.415C213.171 256.626 213.924 256.561 214.673 256.456C217.279 256.088 217.962 255.405 218.187 255.18C218.779 254.591 219.155 253.818 219.253 252.988C219.285 252.729 219.213 252.469 219.052 252.264C218.892 252.059 218.657 251.926 218.399 251.895Z" fill="white"/>
<path d="M64.9665 265.941H62.7279C62.2826 265.941 61.8556 265.764 61.5407 265.449C61.2258 265.134 61.049 264.707 61.049 264.262V254.188C61.049 253.743 61.2258 253.316 61.5407 253.001C61.8556 252.686 62.2826 252.509 62.7279 252.509H64.9665C65.4118 252.509 65.8389 252.686 66.1538 253.001C66.4686 253.316 66.6455 253.743 66.6455 254.188V264.262C66.6455 264.707 66.4686 265.134 66.1538 265.449C65.8389 265.764 65.4118 265.941 64.9665 265.941Z" fill="white"/>
<path d="M80.6368 265.941H78.3982C77.9529 265.941 77.5259 265.764 77.211 265.449C76.8961 265.134 76.7192 264.707 76.7192 264.262V247.472C76.7192 247.027 76.8961 246.6 77.211 246.285C77.5259 245.97 77.9529 245.793 78.3982 245.793H80.6368C81.0821 245.793 81.5092 245.97 81.8241 246.285C82.1389 246.6 82.3158 247.027 82.3158 247.472V264.262C82.3158 264.707 82.1389 265.134 81.8241 265.449C81.5092 265.764 81.0821 265.941 80.6368 265.941Z" fill="white"/>
<path d="M88.472 265.941H86.2334C85.7881 265.941 85.3611 265.764 85.0462 265.449C84.7313 265.134 84.5544 264.707 84.5544 264.262V239.637C84.5544 239.192 84.7313 238.765 85.0462 238.45C85.3611 238.135 85.7881 237.958 86.2334 237.958H88.472C88.9173 237.958 89.3444 238.135 89.6593 238.45C89.9741 238.765 90.151 239.192 90.151 239.637V264.262C90.151 264.707 89.9741 265.134 89.6593 265.449C89.3444 265.764 88.9173 265.941 88.472 265.941Z" fill="white"/>
<path d="M72.8017 265.941H70.5631C70.1178 265.941 69.6908 265.764 69.3759 265.449C69.061 265.135 68.8842 264.707 68.8842 264.262V234.041C68.8842 233.595 69.061 233.168 69.3759 232.854C69.6908 232.539 70.1178 232.362 70.5631 232.362H72.8017C73.247 232.362 73.6741 232.539 73.989 232.854C74.3038 233.168 74.4807 233.595 74.4807 234.041V264.262C74.4807 264.483 74.4373 264.701 74.3529 264.905C74.2685 265.108 74.1449 265.293 73.9889 265.449C73.833 265.605 73.648 265.729 73.4442 265.813C73.2405 265.898 73.0222 265.941 72.8017 265.941Z" fill="white"/>
<path d="M263.122 114.234L261.523 112.634C261.156 112.268 260.66 112.061 260.141 112.06C259.623 112.059 259.126 112.263 258.757 112.627L247.638 122.889C247.23 123.25 246.98 123.758 246.943 124.302C246.931 124.572 246.975 124.841 247.072 125.094C247.169 125.346 247.317 125.576 247.507 125.768L249.896 128.183L249.9 128.188C250.269 128.556 250.769 128.763 251.29 128.765H251.362C251.632 128.749 251.896 128.681 252.14 128.564C252.383 128.446 252.601 128.282 252.781 128.08L263.115 117.012C263.484 116.646 263.693 116.148 263.695 115.628C263.697 115.108 263.493 114.609 263.127 114.24L263.122 114.234Z" fill="white"/>
<path d="M275.976 111L275.957 110.981L273.857 108.904C273.734 108.781 273.588 108.684 273.428 108.618C273.267 108.552 273.095 108.519 272.921 108.52C272.64 108.52 272.366 108.609 272.138 108.774C272.138 108.747 272.142 108.722 272.144 108.699C272.228 108.162 272.115 107.613 271.825 107.154C271.363 106.531 270.855 105.942 270.306 105.394L270.301 105.389C268.766 103.916 266.963 102.753 264.989 101.962C263.957 101.539 262.853 101.321 261.737 101.322C260.294 101.309 258.891 101.8 257.771 102.711C257.452 103.016 257.162 103.348 256.903 103.705C256.779 103.876 256.713 104.082 256.716 104.293C256.719 104.504 256.79 104.708 256.918 104.876C257.047 105.043 257.226 105.165 257.429 105.223C257.632 105.28 257.848 105.271 258.045 105.196C258.217 105.132 258.392 105.078 258.571 105.035C258.942 104.956 259.323 104.932 259.701 104.964C260.485 105.046 261.236 105.322 261.887 105.766C262.252 106.073 262.542 106.46 262.736 106.896C262.93 107.332 263.022 107.806 263.005 108.283C262.733 109.058 262.318 109.774 261.78 110.395C261.637 110.584 261.567 110.818 261.583 111.055C261.6 111.292 261.701 111.514 261.869 111.681L263.977 113.789C264.154 113.967 264.392 114.07 264.643 114.077C264.894 114.084 265.138 113.995 265.325 113.827C265.921 113.295 266.828 112.493 267.146 112.296C267.417 112.114 267.724 111.993 268.046 111.941C268.286 111.917 268.528 111.968 268.738 112.086C268.739 112.097 268.738 112.107 268.734 112.118C268.731 112.128 268.726 112.137 268.719 112.145L268.607 112.251L268.589 112.268C268.341 112.514 268.202 112.849 268.201 113.199C268.2 113.549 268.339 113.884 268.585 114.132L268.592 114.138L270.69 116.216C270.813 116.338 270.96 116.435 271.12 116.501C271.281 116.566 271.453 116.6 271.626 116.598C271.975 116.599 272.31 116.463 272.559 116.219L275.958 112.861C275.97 112.849 275.982 112.837 275.993 112.825C276.221 112.575 276.346 112.247 276.343 111.909C276.339 111.571 276.208 111.246 275.976 111Z" fill="white"/>
<path d="M35.803 113.204C35.5605 113.204 35.3234 113.132 35.1217 112.997C34.92 112.862 34.7628 112.671 34.67 112.447C34.5772 112.223 34.5529 111.976 34.6002 111.738C34.6476 111.5 34.7643 111.282 34.9358 111.11L37.7479 108.298L34.9358 105.486C34.7059 105.256 34.5767 104.944 34.5767 104.619C34.5767 104.294 34.7059 103.982 34.9358 103.752C35.1658 103.522 35.4778 103.393 35.803 103.393C36.1283 103.393 36.4403 103.522 36.6702 103.752L40.3495 107.431C40.4634 107.545 40.5538 107.68 40.6154 107.829C40.677 107.978 40.7087 108.137 40.7087 108.298C40.7087 108.459 40.677 108.619 40.6154 108.768C40.5538 108.916 40.4634 109.052 40.3495 109.165L36.6702 112.845C36.5565 112.959 36.4213 113.049 36.2725 113.111C36.1237 113.173 35.9641 113.204 35.803 113.204Z" fill="white"/>
<path d="M16.1803 116.883C16.0192 116.883 15.8597 116.851 15.7109 116.79C15.5621 116.728 15.4269 116.638 15.3131 116.524C15.1992 116.41 15.1088 116.275 15.0472 116.126C14.9856 115.977 14.9539 115.818 14.9539 115.657V114.43C14.9635 112.482 15.7413 110.617 17.1185 109.239C18.4956 107.861 20.3607 107.082 22.3088 107.072H38.2559C38.5812 107.072 38.8931 107.201 39.1231 107.431C39.3531 107.661 39.4823 107.973 39.4823 108.298C39.4823 108.623 39.3531 108.935 39.1231 109.165C38.8931 109.395 38.5812 109.525 38.2559 109.525H22.3124C21.0131 109.532 19.7692 110.052 18.8508 110.971C17.9323 111.89 17.4134 113.135 17.4067 114.434V115.657C17.4067 115.818 17.375 115.977 17.3134 116.126C17.2517 116.275 17.1614 116.41 17.0475 116.524C16.9336 116.638 16.7984 116.728 16.6496 116.79C16.5008 116.851 16.3413 116.883 16.1803 116.883Z" fill="white"/>
<path d="M25.9917 126.694C25.8306 126.695 25.671 126.663 25.5222 126.601C25.3734 126.54 25.2382 126.449 25.1245 126.335L21.4452 122.656C21.3313 122.542 21.2409 122.407 21.1793 122.258C21.1177 122.109 21.0859 121.95 21.0859 121.789C21.0859 121.628 21.1177 121.468 21.1793 121.319C21.2409 121.171 21.3313 121.035 21.4452 120.921L25.1245 117.242C25.3545 117.013 25.6663 116.884 25.9914 116.884C26.3165 116.884 26.6282 117.013 26.8581 117.243C27.0879 117.473 27.2171 117.785 27.2172 118.11C27.2174 118.435 27.0885 118.747 26.8588 118.977L24.0468 121.789L26.8588 124.601C27.0303 124.772 27.1472 124.991 27.1945 125.229C27.2418 125.467 27.2175 125.713 27.1247 125.937C27.0319 126.161 26.8747 126.353 26.673 126.488C26.4713 126.622 26.2342 126.694 25.9917 126.694Z" fill="white"/>
<path d="M23.5389 123.015C23.2136 123.015 22.9017 122.886 22.6717 122.656C22.4417 122.426 22.3125 122.114 22.3125 121.789C22.3125 121.463 22.4417 121.151 22.6717 120.921C22.9017 120.691 23.2136 120.562 23.5389 120.562H39.4824C40.7817 120.554 42.0256 120.035 42.944 119.115C43.8624 118.196 44.3813 116.952 44.3881 115.653V114.43C44.3881 114.105 44.5173 113.793 44.7473 113.563C44.9773 113.333 45.2892 113.204 45.6145 113.204C45.9398 113.204 46.2517 113.333 46.4817 113.563C46.7117 113.793 46.8409 114.105 46.8409 114.43V115.656C46.8313 117.604 46.0534 119.47 44.6763 120.848C43.2992 122.226 41.434 123.004 39.486 123.015L23.5389 123.015Z" fill="white"/>
</g>
<defs>
<clipPath id="clip0_1052_7018">
<rect width="487.022" height="400" fill="white"/>
</clipPath>
</defs>
</svg>
