<svg width="25" height="24" viewBox="0 0 25 24" fill="none" xmlns="http://www.w3.org/2000/svg">
<path fill-rule="evenodd" clip-rule="evenodd" d="M3.78681 9.14189C6.16989 14.3311 10.4105 18.4566 15.6822 20.6921L15.6989 20.6991L16.7173 21.1531C18.0141 21.7309 19.5384 21.3205 20.3699 20.1697L22.0691 17.8181C22.1729 17.6744 22.1461 17.4747 22.0082 17.3634L19.0419 14.9704C18.8944 14.8514 18.6776 14.8791 18.5648 15.0313L17.4103 16.5892C17.1299 16.9675 16.6235 17.099 16.1945 16.9048C12.2527 15.1209 9.08505 11.9533 7.30114 8.01142C7.10699 7.58241 7.23846 7.07607 7.61679 6.7957L9.17463 5.64122C9.32685 5.52841 9.35456 5.31157 9.23559 5.16411L6.8422 2.19739C6.73097 2.0595 6.5313 2.03272 6.38766 2.13641L4.02327 3.84329C2.86489 4.67954 2.45694 6.21667 3.04823 7.51727L3.78601 9.14015C3.78628 9.14073 3.78654 9.14131 3.78681 9.14189ZM14.893 22.5298C9.16498 20.0984 4.55783 15.6143 1.96844 9.97467L1.96688 9.97128L1.22754 8.34499C0.242077 6.17733 0.921981 3.61545 2.85262 2.22169L5.21701 0.514815C6.22251 -0.21106 7.62015 -0.0235873 8.39881 0.941604L10.7922 3.90833C11.6249 4.94056 11.431 6.45842 10.3654 7.24807L9.47276 7.90961C10.9807 10.8355 13.3705 13.2253 16.2963 14.7332L16.9579 13.8405C17.7476 12.775 19.2654 12.581 20.2976 13.4138L23.264 15.8068C24.2294 16.5857 24.4167 17.9839 23.6902 18.9894L21.991 21.341C20.6052 23.259 18.0647 23.943 15.9033 22.98L14.893 22.5298Z" fill="#F7FAFC"/>
</svg>
