<svg width="24" height="29" viewBox="0 0 24 29" fill="none" xmlns="http://www.w3.org/2000/svg">
<path fill-rule="evenodd" clip-rule="evenodd" d="M5.66654 12.3337C5.66654 8.83586 8.50207 6.00033 11.9999 6.00033C15.4977 6.00033 18.3332 8.83586 18.3332 12.3337C18.3332 15.8315 15.4977 18.667 11.9999 18.667C8.50207 18.667 5.66654 15.8315 5.66654 12.3337ZM11.9999 8.00033C9.60664 8.00033 7.66654 9.94043 7.66654 12.3337C7.66654 14.7269 9.60664 16.667 11.9999 16.667C14.3931 16.667 16.3332 14.7269 16.3332 12.3337C16.3332 9.94043 14.3931 8.00033 11.9999 8.00033Z" fill="#F7FAFC"/>
<path fill-rule="evenodd" clip-rule="evenodd" d="M0.699022 10.8095C1.17146 5.07798 5.96099 0.666992 11.7119 0.666992H12.2878C18.0388 0.666992 22.8283 5.07798 23.3007 10.8095C23.5545 13.8883 22.6035 16.9455 20.6479 19.3371L14.2572 27.1528C13.0905 28.5796 10.9092 28.5796 9.74257 27.1528L3.35182 19.3371C1.39628 16.9455 0.445236 13.8883 0.699022 10.8095ZM11.7119 2.66699C7.00186 2.66699 3.07919 6.27963 2.69226 10.9738C2.48104 13.5362 3.27257 16.0806 4.90012 18.0711L11.2909 25.8868C11.6573 26.3349 12.3424 26.3349 12.7089 25.8868L19.0996 18.0711C20.7272 16.0806 21.5187 13.5362 21.3075 10.9738C20.9206 6.27963 16.9979 2.66699 12.2878 2.66699H11.7119Z" fill="#F7FAFC"/>
</svg>
