<svg width="90" height="90" viewBox="0 0 90 90" fill="none" xmlns="http://www.w3.org/2000/svg">
<rect width="90" height="90" rx="20" fill="#2D3748"/>
<path fill-rule="evenodd" clip-rule="evenodd" d="M47.2194 27.0368C46.1616 26.3998 44.8383 26.3998 43.7804 27.0368L42.4036 27.8659C38.7203 30.0838 34.5853 31.4447 30.3048 31.848L29.4374 31.9297C29.0949 31.962 28.8333 32.2495 28.8333 32.5935V36.9772C28.8333 43.6639 31.548 50.0642 36.3556 54.7118L45.0366 63.1038C45.295 63.3536 45.7049 63.3536 45.9633 63.1038L54.6442 54.7118C59.4518 50.0642 62.1666 43.6639 62.1666 36.9772V32.5935C62.1666 32.2495 61.9049 31.962 61.5625 31.9297L60.695 31.848C56.4145 31.4447 52.2795 30.0837 48.5962 27.8659L47.2194 27.0368ZM41.717 23.6101C44.0443 22.2087 46.9556 22.2087 49.2828 23.6101L50.6596 24.4391C53.829 26.3476 57.387 27.5186 61.0702 27.8656L61.9376 27.9474C64.3348 28.1732 66.1666 30.1857 66.1666 32.5935V36.9772C66.1666 44.7483 63.0116 52.1864 57.4244 57.5877L48.7434 65.9797C46.9346 67.7283 44.0652 67.7283 42.2564 65.9797L33.5754 57.5877C27.9882 52.1864 24.8333 44.7483 24.8333 36.9772V32.5935C24.8333 30.1857 26.6651 28.1732 29.0622 27.9474L29.9296 27.8656C33.6129 27.5186 37.1709 26.3476 40.3402 24.4391L41.717 23.6101Z" fill="#EDF2F7"/>
</svg>
