<svg width="90" height="90" viewBox="0 0 90 90" fill="none" xmlns="http://www.w3.org/2000/svg">
<rect width="90" height="90" rx="20" fill="#2D3748"/>
<path fill-rule="evenodd" clip-rule="evenodd" d="M39.5041 19.6992C43.6625 19.2259 47.8611 19.2259 52.0195 19.6992L56.2737 20.1834C56.883 20.2528 57.4269 20.5979 57.7491 21.1197C58.0714 21.6414 58.1364 22.2822 57.9256 22.8581L52.0523 38.9023H58.3332C58.9893 38.9023 59.6037 39.2241 59.9773 39.7635C60.3509 40.3028 60.4362 40.9911 60.2056 41.6053L59.6977 42.9579C56.1745 52.3419 51.1933 61.1115 44.9378 68.9436L43.8959 70.248C43.3657 70.9119 42.4738 71.1683 41.6719 70.8874C40.8701 70.6065 40.3332 69.8495 40.3332 68.9999V49.9267H35.4761C34.44 49.9267 33.5755 49.1355 33.4839 48.1035L33.1569 44.4188C32.6036 38.1843 32.6036 31.913 33.1569 25.6786L33.4839 21.9938C33.5679 21.0475 34.306 20.2909 35.2499 20.1834L39.5041 19.6992ZM51.5671 23.6736C47.7093 23.2345 43.8142 23.2345 39.9565 23.6736L37.324 23.9732L37.1412 26.0321C36.6088 32.0314 36.6088 38.0659 37.1412 44.0652L37.3064 45.9267H42.3332C43.4378 45.9267 44.3332 46.8221 44.3332 47.9267V63.1393C48.8722 56.8932 52.6029 50.0936 55.4337 42.9023H49.1904C48.5372 42.9023 47.9251 42.5834 47.551 42.0479C47.1768 41.5125 47.0877 40.8282 47.3122 40.2148L53.2955 23.8703L51.5671 23.6736Z" fill="#EDF2F7"/>
</svg>
