<svg width="90" height="90" viewBox="0 0 90 90" fill="none" xmlns="http://www.w3.org/2000/svg">
<rect width="90" height="90" rx="20" fill="#2D3748"/>
<path fill-rule="evenodd" clip-rule="evenodd" d="M43 23.0897C31.787 24.1001 23 33.5239 23 45C23 57.1503 32.8497 67 45 67C51.1903 67 56.7828 64.4452 60.7826 60.3269L43.7429 46.5555C43.273 46.1758 43 45.6041 43 45V23.0897ZM47 23.0897V43H66.9103C65.9592 32.4457 57.5543 24.0408 47 23.0897ZM66.9104 47H50.6565L63.2988 57.2174C65.2886 54.2438 66.572 50.7593 66.9104 47ZM19 45C19 30.6406 30.6406 19 45 19C59.3594 19 71 30.6406 71 45C71 51.1899 68.8345 56.8793 65.2214 61.3443C60.4581 67.2307 53.1685 71 45 71C30.6406 71 19 59.3594 19 45Z" fill="#EDF2F7"/>
</svg>
