<svg width="90" height="90" viewBox="0 0 90 90" fill="none" xmlns="http://www.w3.org/2000/svg">
<rect width="90" height="90" rx="20" fill="#2D3748"/>
<path fill-rule="evenodd" clip-rule="evenodd" d="M31.5001 32.9998C31.5001 26.7406 36.5742 21.6665 42.8334 21.6665C49.0926 21.6665 54.1667 26.7406 54.1667 32.9998C54.1667 39.2591 49.0926 44.3332 42.8334 44.3332C36.5742 44.3332 31.5001 39.2591 31.5001 32.9998ZM42.8334 25.6665C38.7833 25.6665 35.5001 28.9497 35.5001 32.9998C35.5001 37.0499 38.7833 40.3332 42.8334 40.3332C46.8835 40.3332 50.1667 37.0499 50.1667 32.9998C50.1667 28.9497 46.8835 25.6665 42.8334 25.6665Z" fill="#EDF2F7"/>
<path fill-rule="evenodd" clip-rule="evenodd" d="M22.1667 58.3332C22.1667 52.8103 26.6439 48.3332 32.1667 48.3332H33.0757C33.5677 48.3332 34.0566 48.411 34.5243 48.5637L36.8323 49.3173C40.7317 50.5906 44.9351 50.5906 48.8345 49.3173L51.1426 48.5637C51.6102 48.411 52.0991 48.3332 52.5911 48.3332H53.5001C59.0229 48.3332 63.5001 52.8103 63.5001 58.3332V61.5019C63.5001 63.5105 62.0444 65.2232 60.062 65.5468C48.6518 67.4097 37.015 67.4097 25.6048 65.5468C23.6224 65.2232 22.1667 63.5105 22.1667 61.5019V58.3332ZM32.1667 52.3332C28.853 52.3332 26.1667 55.0195 26.1667 58.3332V61.5019C26.1667 61.5502 26.2017 61.5913 26.2493 61.5991C37.2327 63.3923 48.4342 63.3923 59.4175 61.5991C59.4651 61.5913 59.5001 61.5502 59.5001 61.5019V58.3332C59.5001 55.0195 56.8138 52.3332 53.5001 52.3332H52.5911C52.5208 52.3332 52.451 52.3443 52.3842 52.3661L50.0761 53.1197C45.3699 54.6565 40.2969 54.6565 35.5907 53.1197L33.2827 52.3661C33.2159 52.3443 33.146 52.3332 33.0757 52.3332H32.1667Z" fill="#EDF2F7"/>
<path d="M65.5001 29.6665C66.6047 29.6665 67.5001 30.5619 67.5001 31.6665V36.3332H72.1667C73.2713 36.3332 74.1667 37.2286 74.1667 38.3332C74.1667 39.4377 73.2713 40.3332 72.1667 40.3332H67.5001V44.9998C67.5001 46.1044 66.6047 46.9998 65.5001 46.9998C64.3955 46.9998 63.5001 46.1044 63.5001 44.9998V40.3332H58.8334C57.7288 40.3332 56.8334 39.4377 56.8334 38.3332C56.8334 37.2286 57.7288 36.3332 58.8334 36.3332H63.5001V31.6665C63.5001 30.5619 64.3955 29.6665 65.5001 29.6665Z" fill="#EDF2F7"/>
</svg>
