<svg width="375" height="704" viewBox="0 0 375 704" fill="none" xmlns="http://www.w3.org/2000/svg">
<ellipse opacity="0.1" cx="187.165" cy="352" rx="350.165" ry="350" fill="#171923" stroke="#086F83" stroke-width="3" stroke-miterlimit="4.62023" stroke-linecap="round" stroke-dasharray="35 50 15 15"/>
<path opacity="0.1" d="M509.047 352C509.047 529.679 364.937 673.717 187.165 673.717C9.39401 673.717 -134.717 529.679 -134.717 352C-134.717 174.321 9.39401 30.2832 187.165 30.2832C364.937 30.2832 509.047 174.321 509.047 352Z" fill="#171923" stroke="#086F83" stroke-width="3"/>
<ellipse opacity="0.2" cx="187.165" cy="352" rx="296.268" ry="296.103" fill="#171923" stroke="#086F83" stroke-width="3" stroke-miterlimit="4.62023" stroke-linecap="round" stroke-dasharray="35 50 15 15"/>
<path opacity="0.3" d="M455.481 352C455.481 500.095 335.353 620.151 187.165 620.151C38.9777 620.151 -81.1505 500.095 -81.1505 352C-81.1505 203.906 38.9777 83.8496 187.165 83.8496C335.353 83.8496 455.481 203.906 455.481 352Z" fill="#171923" stroke="#086F83" stroke-width="3"/>
<ellipse opacity="0.4" cx="187.165" cy="352" rx="242.702" ry="242.537" fill="#171923" stroke="#086F83" stroke-width="3" stroke-miterlimit="4.62023" stroke-linecap="round" stroke-dasharray="35 50 15 15"/>
<path opacity="0.5" d="M400.923 352C400.923 469.962 305.222 565.592 187.166 565.592C69.1096 565.592 -26.5918 469.962 -26.5918 352C-26.5918 234.037 69.1096 138.408 187.166 138.408C305.222 138.408 400.923 234.037 400.923 352Z" fill="#171923" stroke="#086F83" stroke-width="3"/>
<path opacity="0.6" d="M371.826 352C371.826 455.536 287.82 539.47 184.19 539.47C80.5607 539.47 -3.44531 455.536 -3.44531 352C-3.44531 248.464 80.5607 164.53 184.19 164.53C287.82 164.53 371.826 248.464 371.826 352Z" fill="#171923" stroke="#086F83" stroke-width="3"/>
<ellipse opacity="0.7" cx="187.165" cy="352" rx="163.675" ry="163.51" fill="#171923" stroke="#086F83" stroke-width="3" stroke-miterlimit="4.62023" stroke-linecap="round" stroke-dasharray="35 50 15 15"/>
<path opacity="0.8" d="M320.905 352C320.905 425.769 261.03 485.573 187.166 485.573C113.303 485.573 53.4277 425.769 53.4277 352C53.4277 278.231 113.303 218.427 187.166 218.427C261.03 218.427 320.905 278.231 320.905 352Z" fill="#171923" stroke="#086F83" stroke-width="3"/>
<ellipse opacity="0.9" cx="187.165" cy="352" rx="104.157" ry="103.991" fill="#171923" stroke="#086F83" stroke-width="3" stroke-miterlimit="4.62023" stroke-linecap="round" stroke-dasharray="35 50 15 15"/>
<mask id="mask0_218_6932" style="mask-type:alpha" maskUnits="userSpaceOnUse" x="112" y="277" width="150" height="150">
<path d="M260.063 352C260.063 392.166 227.429 424.732 187.165 424.732C146.902 424.732 114.268 392.166 114.268 352C114.268 311.834 146.902 279.268 187.165 279.268C227.429 279.268 260.063 311.834 260.063 352Z" fill="#171923" stroke="#086F83" stroke-width="3"/>
</mask>
<g mask="url(#mask0_218_6932)">
<ellipse cx="187.165" cy="352" rx="49.9291" ry="49.7638" fill="#171923" stroke="#086F83" stroke-width="3" stroke-miterlimit="4.62023" stroke-linecap="round" stroke-dasharray="35 50 15 15"/>
</g>
</svg>
