<svg width="1440" height="2121" viewBox="0 0 1440 2121" fill="none" xmlns="http://www.w3.org/2000/svg">
<ellipse opacity="0.1" cx="720" cy="1060.5" rx="1059" ry="1058.5" fill="#171923" stroke="#086F83" stroke-width="3" stroke-miterlimit="4.62023" stroke-linecap="round" stroke-dasharray="35 50 15 15"/>
<path opacity="0.1" d="M1696.5 1060.5C1696.5 1599.53 1259.31 2036.5 720 2036.5C180.693 2036.5 -256.5 1599.53 -256.5 1060.5C-256.5 521.471 180.693 84.5 720 84.5C1259.31 84.5 1696.5 521.471 1696.5 1060.5Z" fill="#171923" stroke="#086F83" stroke-width="3"/>
<ellipse opacity="0.2" cx="720" cy="1060.5" rx="896" ry="895.5" fill="#171923" stroke="#086F83" stroke-width="3" stroke-miterlimit="4.62023" stroke-linecap="round" stroke-dasharray="35 50 15 15"/>
<path opacity="0.3" d="M1534.5 1060.5C1534.5 1510.06 1169.84 1874.5 720 1874.5C270.163 1874.5 -94.5 1510.06 -94.5 1060.5C-94.5 610.941 270.163 246.5 720 246.5C1169.84 246.5 1534.5 610.941 1534.5 1060.5Z" fill="#171923" stroke="#086F83" stroke-width="3"/>
<ellipse opacity="0.4" cx="720" cy="1060.5" rx="734" ry="733.5" fill="#171923" stroke="#086F83" stroke-width="3" stroke-miterlimit="4.62023" stroke-linecap="round" stroke-dasharray="35 50 15 15"/>
<path opacity="0.5" d="M1369.5 1060.5C1369.5 1418.93 1078.71 1709.5 720 1709.5C361.29 1709.5 70.5 1418.93 70.5 1060.5C70.5 702.068 361.29 411.5 720 411.5C1078.71 411.5 1369.5 702.068 1369.5 1060.5Z" fill="#171923" stroke="#086F83" stroke-width="3"/>
<path opacity="0.6" d="M1290.5 1060.5C1290.5 1375.3 1035.08 1630.5 720 1630.5C404.92 1630.5 149.5 1375.3 149.5 1060.5C149.5 745.699 404.92 490.5 720 490.5C1035.08 490.5 1290.5 745.699 1290.5 1060.5Z" fill="#171923" stroke="#086F83" stroke-width="3"/>
<ellipse opacity="0.7" cx="720" cy="1060.5" rx="495" ry="494.5" fill="#171923" stroke="#086F83" stroke-width="3" stroke-miterlimit="4.62023" stroke-linecap="round" stroke-dasharray="35 50 15 15"/>
<path opacity="0.8" d="M1127.5 1060.5C1127.5 1285.28 945.058 1467.5 720 1467.5C494.942 1467.5 312.5 1285.28 312.5 1060.5C312.5 835.722 494.942 653.5 720 653.5C945.058 653.5 1127.5 835.722 1127.5 1060.5Z" fill="#171923" stroke="#086F83" stroke-width="3"/>
<ellipse opacity="0.9" cx="720" cy="1060.5" rx="315" ry="314.5" fill="#171923" stroke="#086F83" stroke-width="3" stroke-miterlimit="4.62023" stroke-linecap="round" stroke-dasharray="35 50 15 15"/>
<path d="M943.5 1060.5C943.5 1183.66 843.439 1283.5 720 1283.5C596.561 1283.5 496.5 1183.66 496.5 1060.5C496.5 937.344 596.561 837.5 720 837.5C843.439 837.5 943.5 937.344 943.5 1060.5Z" fill="#171923" stroke="#086F83" stroke-width="3"/>
<ellipse cx="720" cy="1060.5" rx="151" ry="150.5" fill="#171923" stroke="#086F83" stroke-width="3" stroke-miterlimit="4.62023" stroke-linecap="round" stroke-dasharray="35 50 15 15"/>
</svg>
