<svg width="90" height="90" viewBox="0 0 90 90" fill="none" xmlns="http://www.w3.org/2000/svg">
<rect width="90" height="90" rx="20" fill="#2D3748"/>
<path fill-rule="evenodd" clip-rule="evenodd" d="M42.4632 19.5537C43.7921 18.8154 45.4079 18.8154 46.7368 19.5537L65.9368 30.2204C67.3337 30.9964 68.2 32.4687 68.2 34.0667V55.2423C68.2 56.8403 67.3337 58.3126 65.9368 59.0886L46.7368 69.7553C45.4079 70.4936 43.7921 70.4936 42.4632 69.7553L23.2632 59.0886C21.8663 58.3126 21 56.8403 21 55.2423V34.0667C21 32.4687 21.8663 30.9964 23.2632 30.2204L42.4632 19.5537ZM44.7943 23.0503C44.6734 22.9832 44.5266 22.9832 44.4057 23.0503L25.2057 33.717C25.0788 33.7876 25 33.9214 25 34.0667V55.2423C25 55.3876 25.0788 55.5214 25.2057 55.592L44.4057 66.2587C44.5266 66.3258 44.6735 66.3258 44.7943 66.2587L63.9943 55.592C64.1212 55.5214 64.2 55.3876 64.2 55.2423V34.0667C64.2 33.9214 64.1212 33.7876 63.9943 33.717L44.7943 23.0503Z" fill="#EDF2F7"/>
<path fill-rule="evenodd" clip-rule="evenodd" d="M31.9333 44.6545C31.9333 37.6589 37.6044 31.9878 44.6 31.9878C51.5956 31.9878 57.2667 37.6589 57.2667 44.6545C57.2667 51.6501 51.5956 57.3212 44.6 57.3212C37.6044 57.3212 31.9333 51.6501 31.9333 44.6545ZM44.6 35.9878C39.8135 35.9878 35.9333 39.868 35.9333 44.6545C35.9333 49.441 39.8135 53.3212 44.6 53.3212C49.3865 53.3212 53.2667 49.441 53.2667 44.6545C53.2667 39.868 49.3865 35.9878 44.6 35.9878Z" fill="#EDF2F7"/>
</svg>
