<svg width="90" height="90" viewBox="0 0 90 90" fill="none" xmlns="http://www.w3.org/2000/svg">
<rect width="90" height="90" rx="20" fill="#2D3748"/>
<path d="M30.1435 19.4347C30.8698 18.6025 30.784 17.3391 29.9518 16.6128C29.1196 15.8865 27.8562 15.9724 27.1299 16.8046L23.685 20.7517C21.731 22.9906 20.6264 25.8454 20.5644 28.8164L20.4133 36.0635C20.3903 37.1678 21.2668 38.0818 22.3711 38.1048C23.4755 38.1278 24.3894 37.2513 24.4124 36.1469L24.5636 28.8998C24.606 26.867 25.3617 24.9138 26.6987 23.3819L30.1435 19.4347Z" fill="#EDF2F7"/>
<path fill-rule="evenodd" clip-rule="evenodd" d="M29.6321 33.5355C30.0025 27.6135 34.9134 23.0002 40.8469 23.0002H42.3334V21.0002C42.3334 19.5274 43.5273 18.3335 45 18.3335C46.4728 18.3335 47.6667 19.5274 47.6667 21.0002V23.0002H49.1531C55.0866 23.0002 59.9976 27.6135 60.368 33.5355L60.9573 42.958C61.182 46.5506 62.3881 50.0126 64.4443 52.967C66.3021 55.6365 64.6482 59.3234 61.419 59.7109L52.3334 60.8012V63.6668C52.3334 67.7169 49.0501 71.0002 45 71.0002C40.9499 71.0002 37.6667 67.7169 37.6667 63.6668V60.8012L28.581 59.7109C25.3519 59.3234 23.698 55.6365 25.5558 52.967C27.6119 50.0126 28.818 46.5506 29.0427 42.958L29.6321 33.5355ZM40.8469 27.0002C37.0256 27.0002 33.8628 29.9713 33.6243 33.7852L33.0349 43.2077C32.7646 47.5308 31.3132 51.6967 28.8389 55.252C28.7047 55.4449 28.8242 55.7114 29.0576 55.7394L39.0247 56.9354C42.994 57.4118 47.006 57.4118 50.9753 56.9354L60.9424 55.7394C61.1758 55.7114 61.2954 55.4449 61.1611 55.252C58.6868 51.6967 57.2355 47.5308 56.9651 43.2077L56.3758 33.7852C56.1372 29.9713 52.9745 27.0002 49.1531 27.0002H40.8469ZM45 67.0002C43.1591 67.0002 41.6667 65.5078 41.6667 63.6668V61.6668H48.3334V63.6668C48.3334 65.5078 46.841 67.0002 45 67.0002Z" fill="#EDF2F7"/>
<path d="M60.0483 16.6128C59.2161 17.3391 59.1302 18.6025 59.8565 19.4347L63.3014 23.3819C64.6383 24.9138 65.3941 26.867 65.4365 28.8998L65.5877 36.1469C65.6107 37.2513 66.5246 38.1278 67.6289 38.1048C68.7332 38.0818 69.6098 37.1678 69.5868 36.0635L69.4356 28.8164C69.3737 25.8454 68.2691 22.9906 66.315 20.7517L62.8702 16.8046C62.1439 15.9724 60.8805 15.8865 60.0483 16.6128Z" fill="#EDF2F7"/>
</svg>
