<svg width="135" height="65" viewBox="0 0 135 65" fill="none" xmlns="http://www.w3.org/2000/svg">
<path d="M41 1L1 1V32.5V64H41" stroke="#FF5D2A" stroke-width="2"/>
<path d="M92.8441 9H93.475C94.3327 9.11899 95.1016 9.74367 95.3678 10.5865C95.5946 11.2707 95.496 12.0639 95.0721 12.6589C94.589 13.3827 93.6722 13.7694 92.8145 13.6306C92.0653 13.5314 91.395 13.0158 91.0696 12.3316C90.6852 11.5285 90.8035 10.5171 91.3752 9.83291C91.7301 9.37679 92.2723 9.08924 92.8441 9ZM112.058 10.3882C113.329 10.18 114.601 9.97173 115.883 9.77342C115.883 11.5285 115.883 13.2935 115.883 15.0485C115.893 15.5443 115.853 16.0401 115.824 16.5359C116.8 15.4947 118.19 14.8601 119.629 14.8502C120.703 14.8105 121.857 15.0188 122.714 15.7129C123.602 16.4268 123.888 17.6365 123.907 18.7272C123.907 22.3068 123.917 25.8863 123.897 29.4559C122.685 29.4361 121.463 29.4757 120.25 29.4361C120.26 26.3622 120.25 23.2785 120.26 20.2046C120.26 19.6196 120.28 18.9949 119.964 18.4793C119.747 18.1323 119.323 18.0034 118.929 18.0034C118.042 17.9835 117.125 18.3207 116.524 18.985C115.922 19.6692 115.912 20.6409 115.883 21.5036C115.883 24.1511 115.883 26.8084 115.883 29.4559C114.611 29.4559 113.329 29.4658 112.058 29.446C112.068 23.0901 112.058 16.7441 112.058 10.3882ZM9.02957 10.1304C14.0178 10.1502 19.0061 10.1304 23.9943 10.1403C24.2999 10.2395 24.4675 10.5667 24.7239 10.7551C27.0405 13.0654 29.3572 15.3857 31.6838 17.696C34.1877 15.1675 36.7312 12.6688 39.245 10.1403C44.2431 10.1304 49.2412 10.1403 54.2492 10.1403C54.2492 15.1973 54.2591 20.2542 54.2393 25.3211C52.7113 26.858 51.1537 28.3751 49.6356 29.9219C48.7286 30.8441 47.7625 31.7167 46.9048 32.6884C46.8161 32.6884 46.7372 32.6884 46.6485 32.6884C46.4711 32.4504 46.2443 32.262 46.0275 32.0538C42.6757 28.6825 39.2943 25.3508 35.9425 21.9895C34.8877 20.9979 33.9117 19.927 32.8569 18.9354C32.4625 18.5388 32.0781 18.1422 31.6838 17.7555C30.5501 18.8165 29.5051 19.9667 28.3714 21.0276C24.6844 24.7262 20.9777 28.3949 17.2908 32.0935C17.0936 32.2819 16.8866 32.4603 16.7288 32.6785C16.6401 32.6785 16.5613 32.6884 16.4725 32.6884C15.329 31.439 14.077 30.2987 12.894 29.0791C11.6617 27.8198 10.3999 26.5903 9.14787 25.331C8.95071 25.1724 9.02957 24.8848 9 24.6667C9.02957 19.8179 8.99014 14.9791 9.02957 10.1304ZM61.4851 29.446C61.495 23.0108 61.4753 16.5755 61.495 10.1304C62.8061 10.1502 64.1173 10.1304 65.4284 10.1403C65.4284 13.0456 65.4284 15.9508 65.4284 18.8561C67.2818 15.9707 69.0562 13.0257 70.9096 10.1403C72.4475 10.1502 73.9755 10.1403 75.5134 10.1502C73.5319 13.1249 71.5011 16.0698 69.5393 19.0445C69.5886 19.2726 69.7759 19.461 69.8843 19.6593C71.9841 22.9215 74.0938 26.1738 76.1837 29.446C74.5374 29.446 72.8812 29.4559 71.2349 29.446C70.1209 27.4926 68.9774 25.5492 67.8535 23.5958C67.0452 22.2175 66.2762 20.8194 65.4284 19.461C65.4284 22.7827 65.4284 26.1143 65.4284 29.4361C64.1173 29.446 62.8061 29.4559 61.4851 29.446ZM127.259 11.8954C128.501 11.6772 129.743 11.4888 130.986 11.2806C130.986 12.5795 130.986 13.8884 130.986 15.1973C132.09 15.2072 133.204 15.1973 134.308 15.1973C133.992 16.0698 133.667 16.9424 133.342 17.8051C132.563 17.8051 131.774 17.8051 130.986 17.8051C130.986 20.2542 130.986 22.7133 130.986 25.1624C130.995 25.6384 131.015 26.1441 131.232 26.5804C131.4 26.9274 131.764 27.1257 132.139 27.1654C132.76 27.2844 133.352 27.0365 133.943 26.8878C134.091 27.6116 134.258 28.3354 134.416 29.0692V29.1783C133.49 29.4857 132.543 29.803 131.557 29.8129C130.364 29.8624 129.103 29.5749 128.206 28.7519C127.535 28.1371 127.259 27.2051 127.279 26.3127C127.259 23.4768 127.279 20.6409 127.269 17.8051C126.786 17.8051 126.303 17.8051 125.82 17.8051C125.81 16.9325 125.81 16.0698 125.82 15.1973C126.303 15.1973 126.786 15.1973 127.269 15.1973C127.269 14.0966 127.279 12.996 127.259 11.8954ZM80.6002 16.8432C81.4776 15.7922 82.7592 15.0882 84.1294 14.9791C85.4209 14.8205 86.8503 15.1873 87.7376 16.1888C88.3291 16.8432 88.4276 17.7654 88.4473 18.6082C88.4473 22.2175 88.4473 25.8268 88.4473 29.4361C87.2348 29.446 86.0124 29.4361 84.7998 29.4361C84.7998 26.5209 84.7998 23.5958 84.7998 20.6806C84.7998 20.0559 84.8195 19.4114 84.6125 18.8165C84.5041 18.4793 84.2182 18.1918 83.8534 18.1323C82.9859 17.9835 82.0789 18.3901 81.5367 19.0643C81.0734 19.6593 80.9551 20.4426 80.9551 21.1863C80.9551 23.9329 80.9551 26.6795 80.9551 29.4361C79.7031 29.446 78.4413 29.4361 77.1893 29.446C77.1794 24.7956 77.1893 20.1451 77.1893 15.4947C78.254 15.3262 79.3088 15.1378 80.3735 14.989C80.4425 15.6137 80.5213 16.2285 80.6002 16.8432ZM91.2668 15.4947C92.5188 15.2964 93.7806 15.0981 95.0326 14.8899C95.0425 19.7485 95.0425 24.5973 95.0326 29.4559C93.7806 29.446 92.5188 29.4658 91.2668 29.446C91.2668 24.7956 91.2569 20.1451 91.2668 15.4947ZM98.8773 16.8829C99.7744 15.703 101.214 15.0287 102.663 14.9692C104.023 14.8205 105.364 15.4253 106.301 16.407C106.379 16.05 106.468 15.703 106.557 15.346C107.484 15.1873 108.42 15.0485 109.347 14.8899C109.376 19.6989 109.307 24.508 109.327 29.3171C109.317 30.5962 109.278 31.9249 108.686 33.085C108.105 34.1857 106.931 34.8203 105.768 35.1376C103.885 35.6135 101.864 35.5838 100.011 34.9888C99.1928 34.7409 98.414 34.3939 97.6451 34.0171C97.9211 33.1346 98.2563 32.2719 98.552 31.3895C99.9815 32.0935 101.549 32.6586 103.166 32.5892C103.816 32.5694 104.516 32.5099 105.058 32.1232C105.423 31.8654 105.62 31.4489 105.699 31.0226C105.867 30.1302 105.778 29.2179 105.808 28.3156C105.147 29.0791 104.171 29.5253 103.166 29.6046C101.647 29.6939 100.041 29.208 98.9858 28.0677C97.6451 26.6399 97.2212 24.5873 97.2113 22.6736C97.2409 20.6608 97.6056 18.5091 98.8773 16.8829ZM102.811 18.1719C102.239 18.4 101.855 18.9454 101.677 19.5205C101.322 20.6013 101.371 21.7614 101.371 22.8918C101.391 23.7247 101.411 24.5774 101.687 25.3707C101.864 25.926 102.288 26.4118 102.86 26.5804C103.58 26.7886 104.457 26.8084 105.049 26.273C105.66 25.7276 105.788 24.8551 105.818 24.0816C105.818 22.3464 105.827 20.6013 105.818 18.866C105.029 18.0926 103.826 17.7555 102.811 18.1719ZM16.4824 32.8074C16.5711 32.8074 16.65 32.8074 16.7387 32.8173C17.064 33.2635 17.5076 33.6006 17.8823 33.9973C21.1848 37.319 24.5168 40.611 27.8193 43.9426C29.1305 45.192 30.3628 46.5306 31.6838 47.78C36.3664 43.0998 41.0589 38.4295 45.7416 33.7395C46.057 33.442 46.3823 33.1544 46.6485 32.8173C46.7372 32.8173 46.8161 32.8173 46.9048 32.8272C47.1809 33.1941 47.5358 33.4916 47.8512 33.8188C49.2215 35.2169 50.6312 36.5753 52.0015 37.9734C52.7113 38.6774 53.4014 39.4112 54.1309 40.0954C54.2591 40.1747 54.2492 40.3234 54.2492 40.4523C54.2492 45.43 54.2492 50.4076 54.2492 55.3951C49.33 55.3951 44.4107 55.3951 39.4816 55.3951C39.1563 55.4447 38.9985 55.1076 38.7817 54.9291C37.5198 53.6897 36.2777 52.4304 35.0257 51.1711C33.892 50.0903 32.8273 48.9401 31.6838 47.8593C31.3486 48.1171 31.0725 48.4542 30.7669 48.7517C29.3178 50.1597 27.9081 51.6272 26.449 53.0352C25.6505 53.8186 24.8914 54.6416 24.0732 55.3951C19.0554 55.3951 14.0375 55.3852 9.01972 55.3951C8.98028 53.6401 9.02957 51.8949 9 50.1498C9.04929 48.365 8.99014 46.5802 9.01972 44.7954C8.99014 43.4369 9.03943 42.0884 9.00986 40.73C9.02957 40.5614 8.97043 40.3532 9.1183 40.2342C11.3463 37.9734 13.6038 35.7523 15.8416 33.5015C16.0486 33.2734 16.2852 33.0553 16.4824 32.8074ZM109.771 36.3671C111.023 36.1589 112.285 35.9605 113.546 35.7622C113.546 39.55 113.546 43.3278 113.546 47.1156C114.788 45.1127 115.981 43.07 117.194 41.0572C118.712 41.0572 120.23 41.0572 121.748 41.0572C120.25 43.0601 118.702 45.0333 117.174 47.0165C119.028 49.7928 120.93 52.5395 122.803 55.3059C121.324 55.3059 119.846 55.3158 118.367 55.296C117.292 53.4715 116.188 51.6669 115.094 49.8523C114.572 49.0095 114.098 48.1369 113.537 47.3238C113.527 49.9812 113.537 52.6485 113.537 55.3059C112.275 55.3059 111.023 55.3059 109.761 55.3059C109.771 48.9897 109.771 42.6833 109.771 36.3671ZM61.4457 35.9903C64.9355 36.0002 68.4253 36.0002 71.9151 35.9903C71.7475 37.0314 71.6095 38.0726 71.4124 39.0939C69.3618 39.084 67.3113 39.0939 65.2608 39.084C65.2608 40.5812 65.251 42.0785 65.2608 43.5757C66.9072 43.5658 68.5633 43.5658 70.2097 43.5757C70.2097 44.6367 70.2097 45.6878 70.2097 46.7487C68.5633 46.7487 66.9072 46.7487 65.2608 46.7487C65.2608 49.5945 65.251 52.4403 65.2608 55.2861C63.9891 55.3059 62.7076 55.2861 61.4358 55.296C61.4457 48.8707 61.4358 42.4255 61.4457 35.9903ZM78.4117 40.8093C79.1412 40.5713 79.9397 40.6705 80.6298 40.9878C80.3045 42.0884 79.989 43.1989 79.6735 44.3095C78.8849 43.9823 77.9385 43.8732 77.1794 44.3392C76.4893 44.7061 76.2133 45.5291 76.2133 46.2728C76.2133 49.2772 76.2034 52.2816 76.2133 55.2861C74.9515 55.296 73.6896 55.296 72.4376 55.2861C72.4475 50.6753 72.4376 46.0646 72.4475 41.4637C73.4629 41.3249 74.4684 41.0968 75.4838 40.9977C75.6317 41.6025 75.7105 42.2173 75.8387 42.8222C76.4992 41.9694 77.3371 41.1563 78.4117 40.8093ZM87.008 40.7795C88.3981 40.6903 89.8965 40.7895 91.0992 41.5728C91.8977 42.0785 92.4498 42.9511 92.5582 43.903C92.7061 45.1523 92.6075 46.4116 92.6371 47.6709C92.6667 48.9302 92.5484 50.1895 92.6469 51.4487C92.6864 52.004 92.8737 52.5494 93.2286 52.9757C93.4553 53.2534 93.7511 53.4616 93.9975 53.7194C93.337 54.5127 92.6075 55.2365 91.9273 56H91.8583C91.0499 55.653 90.35 55.058 89.8965 54.2945C89.3346 54.8895 88.6445 55.3753 87.8559 55.6034C87.0672 55.8711 86.2292 55.8116 85.411 55.8017C84.1097 55.7323 82.7493 55.2068 81.9902 54.0863C81.2016 52.9063 81.1128 51.3694 81.3987 50.011C81.6452 48.831 82.493 47.8295 83.5675 47.3139C85.2336 46.4909 87.1461 46.4612 88.96 46.481C88.9501 45.777 89.029 45.0234 88.6839 44.3789C88.4079 43.8831 87.7967 43.7741 87.2841 43.7741C85.7265 43.7641 84.2872 44.4681 82.9859 45.2713C82.5324 44.4384 82.0592 43.6154 81.6057 42.7924C83.2521 41.781 85.0561 40.9084 87.008 40.7795ZM86.4067 49.2574C85.9335 49.4359 85.5392 49.8325 85.4012 50.3283C85.2237 50.9728 85.204 51.7065 85.5392 52.3015C85.7659 52.7278 86.2095 53.0352 86.6926 53.0947C87.5207 53.1741 88.3488 52.8369 88.9205 52.2321C88.9107 51.1314 88.9205 50.0308 88.9107 48.9302C88.0727 48.95 87.1954 48.9401 86.4067 49.2574ZM95.7227 41.3546C96.7775 41.1762 97.8225 40.9977 98.8872 40.8489C98.9661 41.4637 99.0449 42.0785 99.1238 42.6833C99.9815 41.7017 101.184 40.9977 102.485 40.8589C103.57 40.7002 104.733 40.8787 105.65 41.5034C106.212 41.8703 106.655 42.4354 106.813 43.0998C107.02 43.8732 106.971 44.6863 106.971 45.4895C106.971 48.7616 106.961 52.0338 106.981 55.296C105.758 55.3059 104.546 55.3059 103.323 55.296C103.333 52.4205 103.323 49.5449 103.333 46.6793C103.333 46.0051 103.383 45.3011 103.136 44.6565C103.018 44.3293 102.742 44.0616 102.397 44.0021C101.293 43.8038 100.11 44.5078 99.7251 45.5589C99.4294 46.3224 99.4984 47.1652 99.4885 47.9684C99.4885 50.4076 99.4787 52.8468 99.4885 55.296C98.2366 55.3059 96.9846 55.3059 95.7326 55.296C95.7326 50.6456 95.7227 46.0051 95.7227 41.3546Z" fill="white"/>
</svg>
