<svg width="68" height="68" viewBox="0 0 68 68" fill="none" xmlns="http://www.w3.org/2000/svg">
<circle cx="34" cy="34" r="33.5" stroke="white"/>
<circle cx="34.2343" cy="34.2343" r="21.5414" stroke="white"/>
<path d="M55.7756 33.9998C55.7756 35.0875 55.2464 36.1695 54.1934 37.2024C53.1386 38.2371 51.5866 39.1919 49.6283 40.0043C45.7138 41.6284 40.2715 42.6446 34.2343 42.6446C28.197 42.6446 22.7547 41.6284 18.8403 40.0043C16.8819 39.1919 15.3299 38.2371 14.2751 37.2024C13.2221 36.1695 12.6929 35.0875 12.6929 33.9998C12.6929 32.9121 13.2221 31.8301 14.2751 30.7972C15.3299 29.7625 16.8819 28.8078 18.8403 27.9953C22.7547 26.3712 28.197 25.355 34.2343 25.355C40.2715 25.355 45.7138 26.3712 49.6283 27.9953C51.5866 28.8078 53.1386 29.7625 54.1934 30.7972C55.2464 31.8301 55.7756 32.9121 55.7756 33.9998Z" stroke="#EC26CC"/>
<path d="M34.469 55.3071C33.9304 55.3071 33.2897 54.889 32.6105 53.8088C31.9472 52.754 31.3314 51.1945 30.8071 49.2228C29.7603 45.2869 29.1069 39.8218 29.1069 33.7657C29.1069 27.7097 29.7603 22.2446 30.8071 18.3086C31.3315 16.337 31.9472 14.7775 32.6105 13.7226C33.2897 12.6425 33.9304 12.2244 34.469 12.2244C35.0075 12.2244 35.6483 12.6425 36.3275 13.7226C36.9908 14.7775 37.6065 16.337 38.1309 18.3086C39.1777 22.2446 39.8311 27.7097 39.8311 33.7657C39.8311 39.8218 39.1777 45.2869 38.1309 49.2228C37.6065 51.1945 36.9908 52.754 36.3275 53.8088C35.6483 54.889 35.0075 55.3071 34.469 55.3071Z" stroke="#EC26CC"/>
</svg>
