<svg width="197" height="44" viewBox="0 0 197 44" fill="none" xmlns="http://www.w3.org/2000/svg">
<path opacity="0.6" fill-rule="evenodd" clip-rule="evenodd" d="M20.2368 0.161939C18.8404 0.463098 17.9191 0.867835 15.4761 2.25365C14.5303 2.79014 13.7599 3.14083 13.1778 3.29978C9.5214 4.29825 8.42611 4.74426 7.13415 5.76111C5.3566 7.15991 4.50646 8.70148 3.5368 12.2848C3.09477 13.9185 2.94877 14.2901 2.29147 15.4562C0.652252 18.3639 0.13908 19.7256 0.0223059 21.4774C-0.119968 23.6115 0.392328 25.2059 2.31336 28.6073C2.96574 29.7624 3.16405 30.2999 3.81161 32.6687C4.5927 35.5256 5.63458 37.2184 7.37744 38.4621C8.62671 39.3537 9.93038 39.8845 12.6686 40.6168C13.682 40.8878 14.2736 41.1238 15.0728 41.5761C18.6099 43.5779 19.5088 43.9158 21.4954 43.9904C23.6033 44.0696 24.9682 43.6724 27.46 42.2548C29.5145 41.0861 30.0073 40.873 31.6211 40.4559C34.7364 39.6508 35.9172 39.0625 37.3685 37.5921C38.812 36.1297 39.4159 34.8775 40.3599 31.3895C40.7311 30.0179 40.8884 29.6383 41.6139 28.3625C43.4332 25.1638 43.8276 23.9189 43.7328 21.6753C43.648 19.6683 43.2955 18.6657 41.6436 15.7314C40.8089 14.2488 40.6894 13.9317 39.9449 11.2245C38.9874 7.7422 37.3535 5.73304 34.4784 4.50254C34.0464 4.31762 32.7676 3.89835 31.6367 3.57067C29.695 3.0082 29.4833 2.91937 27.8385 1.9766C26.8805 1.42755 25.7262 0.834813 25.2734 0.659467C23.6018 0.0120201 21.7707 -0.168829 20.2368 0.161939ZM193.313 9.60143C191.95 10.2567 191.385 11.7305 191.992 13.0424C192.469 14.0727 193.656 14.7336 194.737 14.5706C196.777 14.2629 197.707 11.8262 196.386 10.2504C195.682 9.41057 194.311 9.12108 193.313 9.60143ZM159.215 9.82928C158.164 10.2072 157.638 11.0059 157.717 12.1057C157.879 14.3529 160.914 15.0643 161.91 13.0882C162.222 12.4677 162.276 11.5475 162.035 10.9655C161.622 9.97194 160.3 9.4393 159.215 9.82928ZM193.647 10.0474C192.43 10.6213 192.064 12.1755 192.889 13.2725C193.243 13.7434 193.987 14.0212 194.649 13.9298C196.355 13.6947 196.918 11.3578 195.527 10.2904C195.054 9.92725 194.15 9.81046 193.647 10.0474ZM193.51 10.6308C193.412 10.6709 193.373 11.0518 193.373 11.998V13.3098H193.702C194.023 13.3098 194.03 13.2976 194.03 12.7594C194.03 12.1838 194.069 12.1458 194.495 12.3086C194.669 12.3752 194.8 12.5574 194.89 12.8589C195.008 13.2555 195.063 13.3098 195.35 13.3098C195.649 13.3098 195.67 13.2852 195.606 13.0071C195.568 12.8405 195.448 12.5474 195.339 12.3556C195.148 12.0173 195.149 12.001 195.352 11.8157C195.745 11.4583 195.565 10.8775 195.001 10.6796C194.651 10.557 193.764 10.528 193.51 10.6308ZM59.7452 10.8105L59.4716 10.9497L59.4437 20.5529L59.4157 30.1561L61.3042 30.126L63.1927 30.0959L63.2474 24.7937L63.3021 19.4913L65.4909 22.6411C68.4342 26.8767 68.5516 27.0329 68.9426 27.2362C69.7303 27.6459 70.231 27.1694 72.3572 23.9868C73.7405 21.9162 74.9135 20.3123 75.3295 19.9225L75.6143 19.6556L75.6146 22.6743C75.6147 24.3345 75.6471 26.696 75.6866 27.9219L75.7584 30.1509H77.6563H79.5542V20.5369V10.9231L79.1311 10.7955C78.5646 10.6248 77.7662 10.6344 77.3345 10.817C77.1408 10.899 76.7909 11.1837 76.557 11.4499C76.323 11.7161 74.6813 14.0638 72.9086 16.667C71.1358 19.2702 69.6282 21.4575 69.5581 21.5276C69.4615 21.6244 68.7061 20.5937 66.4212 17.2474C63.1065 12.3929 62.558 11.6518 61.9577 11.216C61.2236 10.6831 60.3208 10.5177 59.7452 10.8105ZM143.215 10.849C143.174 10.8907 143.14 15.2259 143.14 20.4829V30.0408H149.925H156.711V28.1696V26.2983H151.827H146.944L146.984 18.5657L147.025 10.8331L145.158 10.8031C144.131 10.7866 143.257 10.8073 143.215 10.849ZM194.03 11.4385C194.03 11.7329 194.066 11.7688 194.362 11.7688C194.77 11.7688 194.924 11.4743 194.629 11.2575C194.273 10.9955 194.03 11.0688 194.03 11.4385ZM22.4257 11.2909C18.9308 11.4389 14.2158 12.2044 13.1883 12.7908C12.6675 13.088 12.5231 13.3031 12.6101 13.6516C12.7843 14.3501 14.2961 14.6475 17.5008 14.6138C21.1298 14.5756 22.1206 14.6174 23.0125 14.8469C24.7323 15.2893 25.729 16.0733 26.7998 17.8257C27.7754 19.4224 28.4362 19.8805 29.9282 19.9939C30.7294 20.0549 32.2605 19.8762 32.6311 19.6784C33.1027 19.4267 32.7259 18.582 31.4901 17.1208C30.8175 16.3256 30.3071 15.4165 30.3082 15.0159C30.3094 14.5969 30.4754 14.4839 31.0596 14.5047C31.9678 14.5371 32.3046 13.9956 31.8465 13.24C31.188 12.1538 29.3241 11.5465 25.9825 11.3296C24.4102 11.2274 24.0247 11.2232 22.4257 11.2909ZM87.408 15.5073C85.4207 15.8728 83.4689 17.0617 82.4998 18.497C81.5041 19.9717 81.1383 21.1759 81.1502 22.9411C81.1703 25.9643 82.6492 28.4211 85.1904 29.6534C86.4433 30.2609 87.1862 30.4155 88.8567 30.4168C90.1923 30.4178 90.4182 30.3884 91.2097 30.1112C92.5019 29.6585 93.1876 29.2232 94.1698 28.2324C95.6414 26.7478 96.3041 25.1087 96.3108 22.9366C96.3183 20.4543 95.3767 18.452 93.5196 17.0016C92.25 16.0101 90.8587 15.5264 89.0756 15.4569C88.4436 15.4321 87.6932 15.4549 87.408 15.5073ZM104.232 15.5992C103.435 15.8763 102.747 16.3112 102.163 16.9073C101.564 17.5184 101.447 17.4569 101.444 16.5294L101.442 15.9515H99.6367H97.8309V22.9962V30.0408H99.6741H101.517L101.584 25.8305C101.661 20.9707 101.692 20.7755 102.502 19.904C103.308 19.0377 104.653 18.6949 105.841 19.0529C106.5 19.2515 107.188 19.9269 107.48 20.6607C107.722 21.2723 107.73 21.4131 107.767 25.6681L107.806 30.0461L109.631 30.0159L111.456 29.9858L111.452 25.1976C111.448 19.9626 111.395 19.3491 110.85 18.1999C110.269 16.9728 108.938 15.9785 107.345 15.5806C106.398 15.3439 104.941 15.3526 104.232 15.5992ZM118.461 15.5782C115.497 16.1932 112.973 19.0235 112.728 22.0055C112.457 25.3067 114.003 28.3707 116.559 29.5968C117.799 30.1916 118.806 30.3959 120.485 30.3933C122.01 30.391 123.041 30.187 124.502 29.5988C125.548 29.1776 126.645 28.5172 126.577 28.35C126.496 28.1488 125.481 26.348 125.301 26.0855L125.137 25.8459L124.406 26.1795C122.818 26.9046 120.699 27.2876 119.492 27.0674C118.187 26.8292 117.383 26.2642 116.913 25.2527C116.438 24.2313 115.97 24.323 121.823 24.2906L126.992 24.262L127.136 23.6566C127.308 22.932 127.243 21.4766 126.994 20.5195C126.499 18.6101 125.223 17.0068 123.55 16.1916C122.001 15.4373 120.191 15.219 118.461 15.5782ZM169.528 15.5179C167.902 15.8096 166.55 16.5139 165.399 17.6673C163.417 19.6544 162.8 22.4806 163.707 25.4178C164.383 27.6067 166.148 29.3386 168.512 30.1313C169.237 30.3746 169.544 30.4131 170.774 30.4154C172.435 30.4186 173.178 30.2573 174.495 29.6081C176.957 28.3942 178.514 25.7623 178.502 22.8322C178.494 20.784 177.803 19.1171 176.355 17.6556C175.378 16.6685 174.475 16.1301 173.127 15.7292C172.191 15.451 170.466 15.3498 169.528 15.5179ZM186.6 15.5752C185.803 15.7909 184.812 16.3364 184.179 16.9093C183.891 17.1695 183.626 17.3825 183.59 17.3825C183.553 17.3825 183.524 17.0357 183.524 16.612V15.8415H181.773H180.022V22.9438V30.0461L181.855 30.0159L183.688 29.9858L183.699 26.0782C183.704 23.929 183.744 21.8961 183.786 21.5606C183.929 20.4157 184.675 19.4568 185.706 19.0908C187.011 18.6279 188.502 19.0453 189.184 20.0637C189.378 20.3535 189.587 20.7727 189.649 20.9954C189.716 21.239 189.761 23.1196 189.761 25.7205L189.762 30.0408H191.613H193.463L193.541 29.1001C193.584 28.5828 193.593 26.3415 193.561 24.1194C193.499 19.7513 193.452 19.3538 192.874 18.2038C192.285 17.0335 190.683 15.8612 189.204 15.5182C188.524 15.3605 187.294 15.3875 186.6 15.5752ZM127.099 15.8772C127.064 15.9677 127.118 16.2022 127.219 16.3983C127.32 16.5945 127.539 17.0819 127.706 17.4815C127.872 17.8811 128.438 19.1739 128.962 20.3544C131.488 26.0388 132.853 29.2176 132.917 29.5617C133.105 30.5683 132.261 31.7868 131.07 32.2279C130.324 32.504 129.359 32.5336 128.703 32.3005C128.353 32.1763 128.236 32.17 128.203 32.273C128.155 32.4247 127.599 35.0777 127.599 35.1579C127.599 35.2598 128.539 35.6907 129.077 35.8352C130.188 36.1338 131.715 35.9617 132.773 35.4186C133.444 35.0744 134.656 33.8497 135.207 32.9588C135.47 32.5345 135.905 31.6671 136.174 31.0315C136.642 29.9266 138.95 23.9111 141.041 18.3456L142.023 15.7314H140.198C138.185 15.7314 138.042 15.7711 137.704 16.426C137.604 16.6191 137.167 17.8668 136.732 19.1987C136.297 20.5305 135.682 22.3572 135.365 23.258L134.788 24.8957L134.146 23.258C132.499 19.0614 131.279 16.1686 131.079 15.9863C130.889 15.8133 130.611 15.7815 129.011 15.7497C127.448 15.7185 127.152 15.7383 127.099 15.8772ZM158.133 22.9962V30.0408H159.939H161.745V22.9962V15.9515H159.939H158.133V22.9962ZM20.6746 17.6166C19.0272 17.7052 17.2147 17.9891 16.4423 18.2797C15.4154 18.6659 14.7732 19.6964 14.9105 20.7376C14.9911 21.3484 15.449 21.7098 16.5016 21.9933C19.3919 22.772 22.0594 22.5218 23.8665 21.3023C24.2353 21.0534 24.638 20.7135 24.7615 20.5469L24.9858 20.244L24.7455 19.4935C24.4662 18.6214 23.8998 17.8891 23.3815 17.73C22.8413 17.5641 22.1726 17.5361 20.6746 17.6166ZM118.968 18.7195C118.139 18.9595 117.255 19.7461 116.882 20.5746C116.456 21.5221 116.216 21.4552 120.048 21.4552C122.787 21.4552 123.44 21.4272 123.44 21.3096C123.44 21.2296 123.358 20.9204 123.257 20.6227C123.01 19.8952 122.146 19.0256 121.422 18.7777C120.832 18.5754 119.57 18.5455 118.968 18.7195ZM87.3527 19.1567C86.5826 19.4545 85.6601 20.32 85.2773 21.104C85.0014 21.6691 84.9715 21.8434 84.9715 22.8884C84.9715 23.9732 84.9941 24.0926 85.3283 24.7753C85.7434 25.6236 86.3368 26.2057 87.202 26.6137C87.7254 26.8605 87.9638 26.9034 88.802 26.9017C89.6631 26.8998 89.8597 26.8613 90.3655 26.5951C91.5618 25.9655 92.3333 24.9168 92.568 23.6016C92.8962 21.7608 91.808 19.7901 90.1108 19.1514C89.3099 18.8501 88.1403 18.8523 87.3527 19.1567ZM169.668 19.0733C167.755 19.7024 166.632 21.8293 167.147 23.8492C167.48 25.1596 168.132 26.0265 169.21 26.5963C169.718 26.8641 169.91 26.9019 170.774 26.9028C171.631 26.9036 171.848 26.8624 172.447 26.584C173.311 26.1831 174.109 25.3349 174.452 24.4543C174.64 23.9723 174.701 23.5853 174.706 22.8288C174.713 21.9208 174.683 21.7728 174.354 21.1009C173.953 20.2821 173.307 19.6381 172.494 19.2457C171.855 18.9377 170.358 18.8463 169.668 19.0733ZM33.3666 22.119C33.1962 22.3024 32.9736 22.7045 32.872 23.0125C32.6215 23.7711 32.6929 25.1853 33.0129 25.803C33.2525 26.2654 33.7976 26.8742 34.2242 27.1559C34.4545 27.3078 34.5028 27.3034 34.7714 27.1053C35.2223 26.773 35.4491 26.2254 35.4475 25.4728C35.4446 24.2077 34.9571 22.7382 34.331 22.1087C33.9255 21.7007 33.7534 21.7026 33.3666 22.119ZM25.0425 22.7843C23.5544 23.5138 22.9273 23.9234 22.7715 24.2674C22.7017 24.4215 22.6445 24.9823 22.6445 25.5139C22.6445 26.7198 22.7433 26.8333 24.122 27.2137C25.8823 27.6992 26.162 27.7436 26.75 27.6303C27.4332 27.4988 29.5846 26.3583 29.814 26.0061C29.9999 25.7207 30.0326 25.4166 29.9992 24.281C29.9698 23.2811 29.739 23.0445 28.3341 22.5737C26.8381 22.0726 26.4428 22.0978 25.0425 22.7843ZM29.915 28.2604C28.2536 29.2163 28.0709 29.4771 27.6598 31.4788C27.485 32.33 27.6161 32.509 28.8964 33.1671C29.6933 33.5768 29.9875 33.6766 30.2449 33.6249C30.7568 33.5219 32.5954 32.4531 32.8295 32.1224C33.2435 31.5377 33.5226 29.3585 33.2694 28.6886C33.2141 28.5424 32.9121 28.2172 32.5984 27.9659C31.7738 27.3056 31.5274 27.3327 29.915 28.2604Z" fill="white"/>
</svg>
