<svg width="32" height="32" viewBox="0 0 32 32" fill="none" xmlns="http://www.w3.org/2000/svg">
<path d="M16.5801 19.1068L3.8901 11.0311C3.23405 10.5973 2.77462 9.9231 2.61076 9.15382C2.4469 8.38454 2.5917 7.58168 3.01399 6.91812C3.43629 6.25456 4.10228 5.78338 4.86857 5.60605C5.63486 5.42872 6.44014 5.55943 7.111 5.97002L16.421 11.8943L24.7801 6.04282C25.4323 5.60088 26.2321 5.43321 27.0069 5.57603C27.7816 5.71884 28.4691 6.16069 28.9209 6.80612C29.3726 7.45156 29.5523 8.24878 29.4212 9.02561C29.2901 9.80243 28.8586 10.4965 28.2201 10.9579L16.5801 19.1068Z" fill="#EA4435"/>
<path d="M27.5 26.5007H23.5V8.50067C23.5 7.70502 23.8161 6.94196 24.3787 6.37935C24.9413 5.81674 25.7044 5.50067 26.5 5.50067C27.2956 5.50067 28.0587 5.81674 28.6213 6.37935C29.1839 6.94196 29.5 7.70502 29.5 8.50067L29.5 24.5007C29.5 25.0311 29.2893 25.5398 28.9142 25.9149C28.5391 26.29 28.0304 26.5007 27.5 26.5007Z" fill="#00AC47"/>
<path d="M29.4561 8.06557C29.4473 8.00557 29.448 7.94427 29.4355 7.88437C29.4163 7.79257 29.3806 7.70777 29.3532 7.61917C29.3267 7.51776 29.2947 7.41785 29.2574 7.31987C29.2374 7.27237 29.2066 7.23067 29.1839 7.18447C29.1217 7.05117 29.0497 6.92265 28.9685 6.79997C28.9285 6.74187 28.8785 6.69237 28.8343 6.63737C28.7585 6.53741 28.6765 6.44226 28.5888 6.35247C28.5223 6.28777 28.4465 6.23367 28.3742 6.17537C28.2974 6.10949 28.2173 6.04751 28.1342 5.98967C28.0549 5.93787 27.9681 5.89797 27.8842 5.85377C27.7958 5.80767 27.7092 5.75747 27.6172 5.72067C27.5283 5.68487 27.4335 5.66207 27.3406 5.63477C27.2477 5.60747 27.1553 5.57477 27.0599 5.55707C26.9417 5.53809 26.8225 5.52607 26.7029 5.52107C26.627 5.51577 26.5518 5.50247 26.4756 5.50307C26.3342 5.50719 26.1932 5.5214 26.0537 5.54557C25.9974 5.55397 25.9407 5.55327 25.8848 5.56487C25.6961 5.62253 25.508 5.68186 25.3203 5.74287C25.2688 5.76487 25.2237 5.79757 25.1738 5.82237C24.666 6.05933 24.2377 6.43829 23.9406 6.91346C23.6436 7.38863 23.4905 7.93967 23.4999 8.49997V14.262L28.2199 10.9577C28.6834 10.6466 29.0468 10.2079 29.2662 9.69454C29.4855 9.18123 29.5517 8.61554 29.4561 8.06557Z" fill="#FFBA00"/>
<path d="M5.5 5.5C6.29565 5.5 7.05871 5.81607 7.62132 6.37868C8.18393 6.94129 8.5 7.70435 8.5 8.5V26.5H4.5C3.96957 26.5 3.46086 26.2893 3.08579 25.9142C2.71071 25.5391 2.5 25.0304 2.5 24.5V8.5C2.5 7.70435 2.81607 6.94129 3.37868 6.37868C3.94129 5.81607 4.70435 5.5 5.5 5.5Z" fill="#4285F4"/>
<path d="M2.54397 8.0656C2.55277 8.0056 2.55207 7.9443 2.56457 7.8844C2.58377 7.7926 2.61947 7.7078 2.64687 7.6192C2.67343 7.51783 2.70541 7.41795 2.74266 7.32C2.76266 7.2725 2.79347 7.2308 2.81627 7.1846C2.87845 7.05124 2.95044 6.92269 3.03167 6.8C3.07167 6.7419 3.12167 6.6924 3.16587 6.6374C3.24168 6.53744 3.32364 6.44229 3.41127 6.3525C3.47777 6.2878 3.55357 6.2337 3.62596 6.1754C3.70278 6.10949 3.78288 6.04751 3.86597 5.9897C3.94527 5.9379 4.03207 5.898 4.11597 5.8538C4.20267 5.80476 4.29178 5.7601 4.38297 5.72C4.47197 5.6842 4.56677 5.6614 4.65957 5.6341C4.75237 5.6068 4.84486 5.5741 4.94026 5.5564C5.05846 5.53742 5.17766 5.5254 5.29727 5.5204C5.37327 5.5151 5.44836 5.5018 5.52456 5.5024C5.66603 5.50652 5.80702 5.52072 5.94647 5.5449C6.00277 5.5533 6.05946 5.5526 6.11546 5.5642C6.21226 5.58886 6.30772 5.6185 6.40147 5.653C6.49573 5.67806 6.58868 5.70783 6.67997 5.7422C6.73137 5.7642 6.77646 5.7969 6.82646 5.8217C6.95609 5.8826 7.08115 5.95278 7.20066 6.0317C7.6013 6.30679 7.92896 6.67526 8.15534 7.1053C8.38173 7.53534 8.50004 8.01401 8.50006 8.5V14.262L3.78006 10.9579C3.31664 10.6467 2.95328 10.208 2.73392 9.69471C2.51455 9.18142 2.44857 8.61558 2.54397 8.0656Z" fill="#C52528"/>
</svg>
