<svg width="749" height="756" viewBox="0 0 749 756" fill="none" xmlns="http://www.w3.org/2000/svg">
<path d="M297.513 123.32C297.799 122.253 298.895 121.619 299.962 121.905C301.029 122.191 301.662 123.288 301.376 124.355L295.424 146.571C295.138 147.638 294.041 148.271 292.974 147.985C291.907 147.699 291.274 146.603 291.56 145.536L297.513 123.32Z" fill="#0B1020"/>
<path d="M284.796 172.711C285.082 171.644 286.178 171.011 287.245 171.297C288.312 171.583 288.945 172.679 288.66 173.746L276.236 220.111C275.95 221.178 274.854 221.811 273.787 221.525C272.72 221.239 272.087 220.143 272.373 219.076L284.796 172.711Z" fill="#0B1020"/>
<path d="M267.714 236.463C268 235.396 269.096 234.763 270.163 235.049C271.23 235.335 271.863 236.431 271.578 237.498L259.154 283.863C258.868 284.93 257.772 285.563 256.705 285.277C255.638 284.991 255.005 283.894 255.29 282.828L267.714 236.463Z" fill="#0B1020"/>
<path d="M315.154 76.8006L169.309 621.1C162.063 648.146 167.9 668.862 211.366 680.509L436.91 740.943C474.098 750.908 494.048 740.207 502.071 710.263L648.045 165.481C656.068 135.537 645.187 104.669 609.93 95.2221L396.461 38.023C350.096 25.5997 325.248 39.1295 315.154 76.8006Z" fill="url(#paint0_linear_1091_5)" stroke="#EC26CC"/>
<rect x="434.811" y="72.628" width="115" height="28" rx="14" transform="rotate(15 434.811 72.628)" stroke="#EC26CC"/>
<circle cx="446.995" cy="90.9048" r="4" transform="rotate(15 446.995 90.9048)" fill="#0B1020"/>
<circle opacity="0.1" cx="410.695" cy="388.655" r="125" transform="rotate(15 410.695 388.655)" fill="#EC26CC"/>
<circle opacity="0.2" cx="410.86" cy="386.111" r="92.5" transform="rotate(15 410.86 386.111)" fill="#EC26CC"/>
<path d="M483.82 308.996C501.117 312.973 503.699 318.492 501.002 331.711L480.834 407.496L462.14 477.736C457.3 489.868 451.06 496.928 432.059 492.355L428.313 491.347L388.041 480.513L344.022 468.671L342.149 468.167C328.941 464.806 320.126 457.584 321.497 447.714L341.862 367.777L360.806 293.417C363.1 281.947 371.663 278.361 383.248 280.785L392.56 283.397L435.396 295.413L478.233 307.429L483.82 308.996Z" fill="#C070B3"/>
<path d="M392.56 283.397L383.248 280.785C371.663 278.361 363.1 281.947 360.806 293.417L341.862 367.777M392.56 283.397L379.64 332.013L393.353 356.989M392.56 283.397L435.396 295.413M393.353 356.989L418.146 362.774M393.353 356.989L387.322 379.097M442.939 368.559L466.305 354.327L478.233 307.429M442.939 368.559L418.146 362.774M442.939 368.559L436.043 395.497M478.233 307.429L483.82 308.996C501.117 312.973 503.699 318.492 501.002 331.711L480.834 407.496M478.233 307.429L435.396 295.413M435.396 295.413L418.146 362.774M379.784 406.731L356.418 420.962L344.022 468.671M379.784 406.731L404.577 412.515L388.041 480.513M379.784 406.731L387.322 379.097M344.022 468.671L342.149 468.167C328.941 464.806 320.126 457.584 321.497 447.714L341.862 367.777M344.022 468.671L388.041 480.513M388.041 480.513L428.313 491.347M341.862 367.777L387.322 379.097M428.313 491.347L432.059 492.355C451.06 496.928 457.3 489.868 462.14 477.736L480.834 407.496M428.313 491.347L441.46 442.339L429.146 422.436L436.043 395.497M436.043 395.497L480.834 407.496" stroke="white"/>
<rect x="263.554" y="671.199" width="136" height="4" rx="2" transform="rotate(15 263.554 671.199)" fill="#0B1020"/>
<path fill-rule="evenodd" clip-rule="evenodd" d="M71.1744 61.3864C69.2834 58.6201 66.1037 56.8046 62.5 56.8046C56.701 56.8046 52 61.5056 52 67.3046C52 73.1036 56.701 77.8046 62.5 77.8046C68.299 77.8046 73 73.1036 73 67.3046C73 65.6459 72.6154 64.077 71.9305 62.6823C180.936 -4.19007 361.924 -25.4661 524.687 45.9858C548.9 57.5523 561.067 70.5095 563.38 83.1351L564.856 82.8648C562.407 69.4987 549.656 56.2489 525.323 44.6272L525.312 44.622L525.301 44.6172C362.118 -27.0234 180.622 -5.74178 71.1744 61.3864ZM93.531 315.219C133.055 283.545 187.96 255.782 276.223 220.697L276.777 222.091C188.559 257.158 133.834 284.85 94.4961 316.368C83.5434 326.952 76.8115 336.309 74.112 344.645C71.4291 352.929 72.7167 360.23 77.9026 366.842C83.1282 373.504 92.3463 379.505 105.608 385.002C118.85 390.492 136.045 395.448 157.14 400.067C226.911 411.251 299.754 416.19 370.44 420.982C399.249 422.936 427.699 424.865 455.437 427.182C551.181 435.182 638.452 447.812 702.355 482.144C725.066 494.345 735.844 515.441 735.928 537.598C736.012 559.736 725.426 582.914 705.477 599.383C667.278 630.921 595.764 660.608 510.665 679.808L510.335 678.345C595.35 659.164 666.592 629.542 704.523 598.226C724.144 582.027 734.51 559.267 734.428 537.604C734.346 515.96 723.839 495.389 701.645 483.465C638.048 449.298 551.069 436.678 455.313 428.677C427.625 426.364 399.204 424.437 370.411 422.484C299.691 417.689 226.73 412.742 156.881 401.545L156.86 401.542L156.84 401.537C135.694 396.908 118.396 391.928 105.033 386.388C91.6849 380.854 82.1843 374.731 76.7224 367.768C71.2208 360.754 69.8521 352.93 72.6849 344.183C75.4989 335.494 82.4464 325.922 93.4789 315.265L93.5039 315.241L93.531 315.219ZM107.5 677C111.391 677 114.788 674.883 116.602 671.738C168.622 689.771 222.704 698.951 281.471 701.249L281.529 699.751C222.949 697.459 169.069 688.318 117.26 670.379C117.738 669.179 118 667.87 118 666.5C118 660.701 113.299 656 107.5 656C101.701 656 97 660.701 97 666.5C97 672.299 101.701 677 107.5 677Z" fill="#0B1020"/>
<g opacity="0.1" filter="url(#filter0_f_1091_5)">
<path fill-rule="evenodd" clip-rule="evenodd" d="M71.1744 76.3864C69.2834 73.6201 66.1037 71.8046 62.5 71.8046C56.701 71.8046 52 76.5056 52 82.3046C52 88.1036 56.701 92.8046 62.5 92.8046C68.299 92.8046 73 88.1036 73 82.3046C73 80.6459 72.6154 79.077 71.9305 77.6823C180.936 10.8099 361.924 -10.4661 524.687 60.9858C548.9 72.5523 561.067 85.5095 563.38 98.1351L564.856 97.8648C562.407 84.4987 549.656 71.2489 525.323 59.6272L525.312 59.622L525.301 59.6172C362.118 -12.0234 180.622 9.25822 71.1744 76.3864ZM93.531 330.219C133.055 298.545 187.96 270.782 276.223 235.697L276.777 237.091C188.559 272.158 133.834 299.85 94.4961 331.368C83.5434 341.952 76.8115 351.309 74.112 359.645C71.4291 367.929 72.7167 375.23 77.9026 381.842C83.1282 388.504 92.3463 394.505 105.608 400.002C118.85 405.492 136.045 410.448 157.14 415.067C226.911 426.251 299.754 431.19 370.44 435.982C399.249 437.936 427.699 439.865 455.437 442.182C551.181 450.182 638.452 462.812 702.355 497.144C725.066 509.345 735.844 530.441 735.928 552.598C736.012 574.736 725.426 597.914 705.477 614.383C667.278 645.921 595.764 675.608 510.665 694.808L510.335 693.345C595.35 674.164 666.592 644.542 704.523 613.226C724.144 597.027 734.51 574.267 734.428 552.604C734.346 530.96 723.839 510.389 701.645 498.465C638.048 464.298 551.069 451.678 455.313 443.677C427.625 441.364 399.204 439.437 370.411 437.484C299.691 432.689 226.73 427.742 156.881 416.545L156.86 416.542L156.84 416.537C135.694 411.908 118.396 406.928 105.033 401.388C91.6849 395.854 82.1843 389.731 76.7224 382.768C71.2208 375.754 69.8521 367.93 72.6849 359.183C75.4989 350.494 82.4464 340.922 93.4789 330.265L93.5039 330.241L93.531 330.219ZM107.5 692C111.391 692 114.788 689.883 116.602 686.738C168.622 704.771 222.704 713.951 281.471 716.249L281.529 714.751C222.949 712.459 169.069 703.318 117.26 685.379C117.738 684.179 118 682.87 118 681.5C118 675.701 113.299 671 107.5 671C101.701 671 97 675.701 97 681.5C97 687.299 101.701 692 107.5 692Z" fill="#0B1020"/>
</g>
<path d="M66.9499 160.888C66.6484 159.971 65.3516 159.971 65.0501 160.888L61.3262 172.21C61.087 172.937 60.6804 173.598 60.139 174.139C59.5977 174.68 58.9368 175.087 58.2096 175.326L46.8881 179.05C45.9713 179.352 45.9713 180.648 46.8881 180.95L58.2096 184.674C58.9368 184.913 59.5977 185.32 60.139 185.861C60.6804 186.402 61.087 187.063 61.3262 187.79L65.0501 199.112C65.3516 200.029 66.6484 200.029 66.9499 199.112L70.6738 187.79C70.913 187.063 71.3196 186.402 71.861 185.861C72.4023 185.32 73.0632 184.913 73.7904 184.674L85.1119 180.95C86.0287 180.648 86.0287 179.352 85.1119 179.05L73.7904 175.326C73.0632 175.087 72.4023 174.68 71.861 174.139C71.3196 173.598 70.913 172.937 70.6738 172.21L66.9499 160.888Z" fill="#0B1020"/>
<path d="M13.9499 264.888C13.6484 263.971 12.3516 263.971 12.0501 264.888L10.2382 270.397C10.0969 270.826 9.85659 271.217 9.53671 271.537C9.21683 271.857 8.82629 272.097 8.39655 272.238L2.88806 274.05C1.97133 274.352 1.97133 275.648 2.88806 275.95L8.39655 277.762C8.82629 277.903 9.21683 278.143 9.53671 278.463C9.85659 278.783 10.0969 279.174 10.2382 279.603L12.0501 285.112C12.3516 286.029 13.6484 286.029 13.9499 285.112L15.7618 279.603C15.9031 279.174 16.1434 278.783 16.4633 278.463C16.7832 278.143 17.1737 277.903 17.6034 277.762L23.1119 275.95C24.0287 275.648 24.0287 274.352 23.1119 274.05L17.6034 272.238C17.1737 272.097 16.7832 271.857 16.4633 271.537C16.1434 271.217 15.9031 270.826 15.7618 270.397L13.9499 264.888Z" fill="#0B1020"/>
<path d="M736.95 375.888C736.648 374.971 735.352 374.971 735.05 375.888L733.238 381.397C733.097 381.826 732.857 382.217 732.537 382.537C732.217 382.857 731.826 383.097 731.397 383.238L725.888 385.05C724.971 385.352 724.971 386.648 725.888 386.95L731.397 388.762C731.826 388.903 732.217 389.143 732.537 389.463C732.857 389.783 733.097 390.174 733.238 390.603L735.05 396.112C735.352 397.029 736.648 397.029 736.95 396.112L738.762 390.603C738.903 390.174 739.143 389.783 739.463 389.463C739.783 389.143 740.174 388.903 740.603 388.762L746.112 386.95C747.029 386.648 747.029 385.352 746.112 385.05L740.603 383.238C740.174 383.097 739.783 382.857 739.463 382.537C739.143 382.217 738.903 381.826 738.762 381.397L736.95 375.888Z" fill="#0B1020"/>
<defs>
<filter id="filter0_f_1091_5" x="48" y="11" width="691.929" height="709.249" filterUnits="userSpaceOnUse" color-interpolation-filters="sRGB">
<feFlood flood-opacity="0" result="BackgroundImageFix"/>
<feBlend mode="normal" in="SourceGraphic" in2="BackgroundImageFix" result="shape"/>
<feGaussianBlur stdDeviation="2" result="effect1_foregroundBlur_1091_5"/>
</filter>
<linearGradient id="paint0_linear_1091_5" x1="306.501" y1="704" x2="569.501" y2="-79.5003" gradientUnits="userSpaceOnUse">
<stop stop-color="#FFCCF7"/>
<stop offset="1" stop-color="#ECB6FF"/>
</linearGradient>
</defs>
</svg>
