<svg width="1920" height="748" viewBox="0 0 1920 748" fill="none" xmlns="http://www.w3.org/2000/svg">
<rect opacity="0.3" y="169" width="1920" height="1" rx="0.5" fill="url(#paint0_linear_202_2)"/>
<rect opacity="0.3" x="883" y="71" width="364" height="0.999984" rx="0.499992" transform="rotate(90 883 71)" fill="url(#paint1_linear_202_2)"/>
<rect opacity="0.3" x="1130" y="500" width="500" height="1" rx="0.5" transform="rotate(-90 1130 500)" fill="url(#paint2_linear_202_2)"/>
<rect opacity="0.3" x="268" y="617" width="523" height="1.00002" rx="0.500011" transform="rotate(-90 268 617)" fill="url(#paint3_linear_202_2)"/>
<rect opacity="0.3" x="1688" y="127" width="343" height="0.999985" rx="0.499992" transform="rotate(90 1688 127)" fill="url(#paint4_linear_202_2)"/>
<rect opacity="0.3" x="1491" y="248" width="500" height="1" rx="0.5" transform="rotate(90 1491 248)" fill="url(#paint5_linear_202_2)"/>
<rect opacity="0.3" y="311" width="1920" height="1" rx="0.5" fill="url(#paint6_linear_202_2)"/>
<rect opacity="0.3" y="453" width="1920" height="1" rx="0.5" fill="url(#paint7_linear_202_2)"/>
<rect opacity="0.3" x="1920" y="241" width="1920" height="1" rx="0.5" transform="rotate(180 1920 241)" fill="url(#paint8_linear_202_2)"/>
<rect opacity="0.3" x="1920" y="383" width="1920" height="1" rx="0.5" transform="rotate(180 1920 383)" fill="url(#paint9_linear_202_2)"/>
<rect opacity="0.3" x="1920" y="525" width="1920" height="1" rx="0.5" transform="rotate(180 1920 525)" fill="url(#paint10_linear_202_2)"/>
<defs>
<linearGradient id="paint0_linear_202_2" x1="617" y1="169.993" x2="1773.5" y2="169.993" gradientUnits="userSpaceOnUse">
<stop stop-color="#555555"/>
<stop offset="1" stop-color="#555555" stop-opacity="0"/>
</linearGradient>
<linearGradient id="paint1_linear_202_2" x1="999.973" y1="71.9926" x2="1219.23" y2="71.9926" gradientUnits="userSpaceOnUse">
<stop stop-color="#555555"/>
<stop offset="1" stop-color="#555555" stop-opacity="0"/>
</linearGradient>
<linearGradient id="paint2_linear_202_2" x1="1290.68" y1="500.993" x2="1591.85" y2="500.993" gradientUnits="userSpaceOnUse">
<stop stop-color="#555555"/>
<stop offset="1" stop-color="#555555" stop-opacity="0"/>
</linearGradient>
<linearGradient id="paint3_linear_202_2" x1="436.068" y1="617.993" x2="751.094" y2="617.993" gradientUnits="userSpaceOnUse">
<stop stop-color="#555555"/>
<stop offset="1" stop-color="#555555" stop-opacity="0"/>
</linearGradient>
<linearGradient id="paint4_linear_202_2" x1="1798.22" y1="127.993" x2="2004.83" y2="127.993" gradientUnits="userSpaceOnUse">
<stop stop-color="#555555"/>
<stop offset="1" stop-color="#555555" stop-opacity="0"/>
</linearGradient>
<linearGradient id="paint5_linear_202_2" x1="1651.68" y1="248.993" x2="1952.85" y2="248.993" gradientUnits="userSpaceOnUse">
<stop stop-color="#555555"/>
<stop offset="1" stop-color="#555555" stop-opacity="0"/>
</linearGradient>
<linearGradient id="paint6_linear_202_2" x1="617" y1="311.993" x2="1773.5" y2="311.993" gradientUnits="userSpaceOnUse">
<stop stop-color="#555555"/>
<stop offset="1" stop-color="#555555" stop-opacity="0"/>
</linearGradient>
<linearGradient id="paint7_linear_202_2" x1="617" y1="453.993" x2="1773.5" y2="453.993" gradientUnits="userSpaceOnUse">
<stop stop-color="#555555"/>
<stop offset="1" stop-color="#555555" stop-opacity="0"/>
</linearGradient>
<linearGradient id="paint8_linear_202_2" x1="2537" y1="241.993" x2="3693.5" y2="241.993" gradientUnits="userSpaceOnUse">
<stop stop-color="#555555"/>
<stop offset="1" stop-color="#555555" stop-opacity="0"/>
</linearGradient>
<linearGradient id="paint9_linear_202_2" x1="2537" y1="383.993" x2="3693.5" y2="383.993" gradientUnits="userSpaceOnUse">
<stop stop-color="#555555"/>
<stop offset="1" stop-color="#555555" stop-opacity="0"/>
</linearGradient>
<linearGradient id="paint10_linear_202_2" x1="2537" y1="525.993" x2="3693.5" y2="525.993" gradientUnits="userSpaceOnUse">
<stop stop-color="#555555"/>
<stop offset="1" stop-color="#555555" stop-opacity="0"/>
</linearGradient>
</defs>
</svg>
