<svg width="25" height="22" viewBox="0 0 25 22" fill="none" xmlns="http://www.w3.org/2000/svg">
<path fill-rule="evenodd" clip-rule="evenodd" d="M7.46896 3.26588C7.04686 3.3881 5.88683 4.09516 5.28998 4.59404C3.55255 6.04624 2.48916 7.9373 2.12583 10.2209C2.03043 10.8207 2.03109 12.1554 2.12712 12.7705C2.50581 15.1962 3.77079 17.2896 5.71867 18.7139C7.85697 20.2775 10.5996 20.8071 13.1848 20.1557C14.8133 19.7453 16.4612 18.767 17.5521 17.5629C18.369 16.6614 19.2223 15.2572 19.2223 14.8146C19.2223 14.51 18.9287 14.2138 18.6266 14.2138C18.5513 14.2138 18.3257 14.2776 18.1253 14.3555C16.0836 15.1491 13.8932 15.071 11.9429 14.1349C11.1579 13.7581 10.5847 13.3587 9.93712 12.7371C8.35775 11.2212 7.48533 9.05333 7.58292 6.88717C7.62286 6.00053 7.78159 5.24989 8.11784 4.3576C8.29419 3.88963 8.30109 3.81659 8.1906 3.58834C8.0634 3.32563 7.74859 3.18494 7.46896 3.26588Z" fill="#E0E0E0"/>
<path d="M15.727 1.0292C15.6365 0.754179 15.2475 0.754179 15.157 1.0292L14.7676 2.2131C14.7331 2.31804 14.6744 2.4134 14.5963 2.49151C14.5182 2.56962 14.4228 2.6283 14.3179 2.66281L13.134 3.05222C12.859 3.14268 12.859 3.53172 13.134 3.62218L14.3179 4.01159C14.4228 4.0461 14.5182 4.10478 14.5963 4.18289C14.6744 4.261 14.7331 4.35636 14.7676 4.4613L15.157 5.6452C15.2475 5.92022 15.6365 5.92022 15.727 5.6452L16.1164 4.4613C16.1509 4.35636 16.2096 4.261 16.2877 4.18289C16.3658 4.10478 16.4612 4.0461 16.5661 4.01159L17.75 3.62218C18.025 3.53172 18.025 3.14268 17.75 3.05222L16.5661 2.66281C16.4612 2.6283 16.3658 2.56962 16.2877 2.49151C16.2096 2.4134 16.1509 2.31804 16.1164 2.2131L15.727 1.0292Z" fill="#E0E0E0"/>
<path d="M22.5296 11.0059C22.4391 10.7309 22.0501 10.7309 21.9596 11.0059L21.8593 11.3111C21.8395 11.3711 21.806 11.4256 21.7614 11.4702C21.7167 11.5149 21.6622 11.5484 21.6023 11.5681L21.2971 11.6685C21.0221 11.759 21.0221 12.148 21.2971 12.2385L21.6023 12.3388C21.6622 12.3586 21.7167 12.3921 21.7614 12.4367C21.806 12.4814 21.8395 12.5359 21.8593 12.5958L21.9596 12.901C22.0501 13.176 22.4391 13.176 22.5296 12.901L22.63 12.5958C22.6497 12.5359 22.6832 12.4814 22.7279 12.4367C22.7725 12.3921 22.827 12.3586 22.887 12.3388L23.1922 12.2385C23.4672 12.148 23.4672 11.759 23.1922 11.6685L22.887 11.5681C22.827 11.5484 22.7725 11.5149 22.7279 11.4702C22.6832 11.4256 22.6497 11.3711 22.63 11.3111L22.5296 11.0059Z" fill="#E0E0E0"/>
</svg>
