<svg width="198" height="44" viewBox="0 0 198 44" fill="none" xmlns="http://www.w3.org/2000/svg">
<path fill-rule="evenodd" clip-rule="evenodd" d="M21.1821 0.161939C19.7857 0.463098 18.8644 0.867835 16.4214 2.25365C15.4756 2.79014 14.7052 3.14083 14.1232 3.29978C10.4667 4.29825 9.37142 4.74426 8.07946 5.76111C6.30191 7.15991 5.45177 8.70148 4.48212 12.2848C4.04008 13.9185 3.89409 14.2901 3.23678 15.4562C1.59756 18.3639 1.08439 19.7256 0.967618 21.4774C0.825344 23.6115 1.33764 25.2059 3.25867 28.6073C3.91105 29.7624 4.10936 30.2999 4.75692 32.6687C5.53801 35.5256 6.57989 37.2184 8.32275 38.4621C9.57203 39.3537 10.8757 39.8845 13.6139 40.6168C14.6274 40.8878 15.2189 41.1238 16.0181 41.5761C19.5552 43.5779 20.4541 43.9158 22.4407 43.9904C24.5486 44.0696 25.9135 43.6724 28.4053 42.2548C30.4598 41.0861 30.9527 40.873 32.5664 40.4559C35.6817 39.6508 36.8625 39.0625 38.3138 37.5921C39.7573 36.1297 40.3612 34.8775 41.3052 31.3895C41.6764 30.0179 41.8337 29.6383 42.5593 28.3625C44.3785 25.1638 44.7729 23.9189 44.6782 21.6753C44.5933 19.6683 44.2408 18.6657 42.5889 15.7314C41.7542 14.2488 41.6347 13.9317 40.8902 11.2245C39.9327 7.7422 38.2988 5.73304 35.4237 4.50254C34.9917 4.31762 33.7129 3.89835 32.582 3.57067C30.6403 3.0082 30.4286 2.91937 28.7838 1.9766C27.8258 1.42755 26.6715 0.834813 26.2188 0.659467C24.5471 0.0120201 22.716 -0.168829 21.1821 0.161939ZM194.258 9.60143C192.896 10.2567 192.33 11.7305 192.938 13.0424C193.415 14.0727 194.602 14.7336 195.682 14.5706C197.722 14.2629 198.652 11.8262 197.331 10.2504C196.627 9.41057 195.256 9.12108 194.258 9.60143ZM160.16 9.82928C159.109 10.2072 158.583 11.0059 158.662 12.1057C158.824 14.3529 161.859 15.0643 162.855 13.0882C163.168 12.4677 163.222 11.5475 162.98 10.9655C162.567 9.97194 161.246 9.4393 160.16 9.82928ZM194.592 10.0474C193.375 10.6213 193.01 12.1755 193.834 13.2725C194.189 13.7434 194.932 14.0212 195.595 13.9298C197.3 13.6947 197.864 11.3578 196.472 10.2904C195.999 9.92725 195.095 9.81046 194.592 10.0474ZM194.456 10.6308C194.357 10.6709 194.319 11.0518 194.319 11.998V13.3098H194.647C194.968 13.3098 194.975 13.2976 194.975 12.7594C194.975 12.1838 195.015 12.1458 195.44 12.3086C195.614 12.3752 195.745 12.5574 195.835 12.8589C195.953 13.2555 196.008 13.3098 196.295 13.3098C196.595 13.3098 196.615 13.2852 196.552 13.0071C196.513 12.8405 196.393 12.5474 196.285 12.3556C196.094 12.0173 196.094 12.001 196.298 11.8157C196.69 11.4583 196.511 10.8775 195.946 10.6796C195.597 10.557 194.709 10.528 194.456 10.6308ZM60.6906 10.8105L60.417 10.9497L60.389 20.5529L60.361 30.1561L62.2496 30.126L64.138 30.0959L64.1927 24.7937L64.2474 19.4913L66.4362 22.6411C69.3796 26.8767 69.4969 27.0329 69.8879 27.2362C70.6756 27.6459 71.1763 27.1694 73.3025 23.9868C74.6858 21.9162 75.8588 20.3123 76.2748 19.9225L76.5596 19.6556L76.5599 22.6743C76.56 24.3345 76.5924 26.696 76.6319 27.9219L76.7037 30.1509H78.6017H80.4995V20.5369V10.9231L80.0764 10.7955C79.5099 10.6248 78.7115 10.6344 78.2798 10.817C78.0861 10.899 77.7362 11.1837 77.5023 11.4499C77.2683 11.7161 75.6266 14.0638 73.8539 16.667C72.0811 19.2702 70.5735 21.4575 70.5034 21.5276C70.4068 21.6244 69.6514 20.5937 67.3665 17.2474C64.0518 12.3929 63.5033 11.6518 62.903 11.216C62.1689 10.6831 61.2661 10.5177 60.6906 10.8105ZM144.16 10.849C144.119 10.8907 144.085 15.2259 144.085 20.4829V30.0408H150.87H157.656V28.1696V26.2983H152.772H147.889L147.93 18.5657L147.97 10.8331L146.103 10.8031C145.076 10.7866 144.202 10.8073 144.16 10.849ZM194.975 11.4385C194.975 11.7329 195.012 11.7688 195.307 11.7688C195.715 11.7688 195.869 11.4743 195.574 11.2575C195.218 10.9955 194.975 11.0688 194.975 11.4385ZM23.371 11.2909C19.8761 11.4389 15.1611 12.2044 14.1337 12.7908C13.6128 13.088 13.4684 13.3031 13.5554 13.6516C13.7296 14.3501 15.2414 14.6475 18.4461 14.6138C22.0751 14.5756 23.066 14.6174 23.9578 14.8469C25.6776 15.2893 26.6744 16.0733 27.7451 17.8257C28.7207 19.4224 29.3815 19.8805 30.8735 19.9939C31.6747 20.0549 33.2058 19.8762 33.5764 19.6784C34.048 19.4267 33.6712 18.582 32.4354 17.1208C31.7628 16.3256 31.2524 15.4165 31.2535 15.0159C31.2547 14.5969 31.4207 14.4839 32.0049 14.5047C32.9131 14.5371 33.2499 13.9956 32.7918 13.24C32.1333 12.1538 30.2694 11.5465 26.9278 11.3296C25.3555 11.2274 24.97 11.2232 23.371 11.2909ZM88.3533 15.5073C86.366 15.8728 84.4142 17.0617 83.4451 18.497C82.4494 19.9717 82.0837 21.1759 82.0955 22.9411C82.1156 25.9643 83.5945 28.4211 86.1357 29.6534C87.3886 30.2609 88.1315 30.4155 89.802 30.4168C91.1376 30.4178 91.3635 30.3884 92.155 30.1112C93.4472 29.6585 94.133 29.2232 95.1151 28.2324C96.5867 26.7478 97.2494 25.1087 97.2561 22.9366C97.2636 20.4543 96.322 18.452 94.4649 17.0016C93.1953 16.0101 91.804 15.5264 90.0209 15.4569C89.3889 15.4321 88.6385 15.4549 88.3533 15.5073ZM105.177 15.5992C104.38 15.8763 103.692 16.3112 103.108 16.9073C102.509 17.5184 102.392 17.4569 102.389 16.5294L102.388 15.9515H100.582H98.7762V22.9962V30.0408H100.619H102.463L102.53 25.8305C102.607 20.9707 102.637 20.7755 103.448 19.904C104.253 19.0377 105.598 18.6949 106.787 19.0529C107.445 19.2515 108.134 19.9269 108.425 20.6607C108.668 21.2723 108.676 21.4131 108.713 25.6681L108.751 30.0461L110.576 30.0159L112.402 29.9858L112.398 25.1976C112.393 19.9626 112.341 19.3491 111.796 18.1999C111.214 16.9728 109.883 15.9785 108.291 15.5806C107.343 15.3439 105.886 15.3526 105.177 15.5992ZM119.406 15.5782C116.442 16.1932 113.918 19.0235 113.673 22.0055C113.402 25.3067 114.949 28.3707 117.504 29.5968C118.744 30.1916 119.751 30.3959 121.431 30.3933C122.955 30.391 123.986 30.187 125.447 29.5988C126.493 29.1776 127.59 28.5172 127.523 28.35C127.441 28.1488 126.426 26.348 126.246 26.0855L126.082 25.8459L125.352 26.1795C123.764 26.9046 121.645 27.2876 120.438 27.0674C119.132 26.8292 118.329 26.2642 117.858 25.2527C117.383 24.2313 116.915 24.323 122.769 24.2906L127.937 24.262L128.081 23.6566C128.254 22.932 128.188 21.4766 127.94 20.5195C127.444 18.6101 126.168 17.0068 124.495 16.1916C122.947 15.4373 121.136 15.219 119.406 15.5782ZM170.474 15.5179C168.848 15.8096 167.495 16.5139 166.344 17.6673C164.363 19.6544 163.745 22.4806 164.652 25.4178C165.328 27.6067 167.094 29.3386 169.457 30.1313C170.183 30.3746 170.489 30.4131 171.719 30.4154C173.38 30.4186 174.123 30.2573 175.44 29.6081C177.903 28.3942 179.459 25.7623 179.448 22.8322C179.44 20.784 178.748 19.1171 177.301 17.6556C176.323 16.6685 175.42 16.1301 174.072 15.7292C173.137 15.451 171.411 15.3498 170.474 15.5179ZM187.546 15.5752C186.748 15.7909 185.758 16.3364 185.124 16.9093C184.837 17.1695 184.571 17.3825 184.535 17.3825C184.499 17.3825 184.469 17.0357 184.469 16.612V15.8415H182.718H180.967V22.9438V30.0461L182.8 30.0159L184.633 29.9858L184.644 26.0782C184.65 23.929 184.689 21.8961 184.731 21.5606C184.874 20.4157 185.62 19.4568 186.652 19.0908C187.956 18.6279 189.448 19.0453 190.13 20.0637C190.324 20.3535 190.533 20.7727 190.594 20.9954C190.661 21.239 190.706 23.1196 190.707 25.7205L190.707 30.0408H192.558H194.408L194.486 29.1001C194.529 28.5828 194.538 26.3415 194.507 24.1194C194.444 19.7513 194.398 19.3538 193.819 18.2038C193.231 17.0335 191.628 15.8612 190.149 15.5182C189.469 15.3605 188.24 15.3875 187.546 15.5752ZM128.044 15.8772C128.01 15.9677 128.064 16.2022 128.165 16.3983C128.265 16.5945 128.484 17.0819 128.651 17.4815C128.818 17.8811 129.383 19.1739 129.908 20.3544C132.433 26.0388 133.798 29.2176 133.862 29.5617C134.05 30.5683 133.206 31.7868 132.015 32.2279C131.269 32.504 130.305 32.5336 129.648 32.3005C129.298 32.1763 129.182 32.17 129.149 32.273C129.1 32.4247 128.544 35.0777 128.544 35.1579C128.544 35.2598 129.484 35.6907 130.022 35.8352C131.133 36.1338 132.66 35.9617 133.719 35.4186C134.39 35.0744 135.601 33.8497 136.153 32.9588C136.415 32.5345 136.85 31.6671 137.119 31.0315C137.587 29.9266 139.895 23.9111 141.986 18.3456L142.969 15.7314H141.143C139.13 15.7314 138.988 15.7711 138.649 16.426C138.549 16.6191 138.112 17.8668 137.677 19.1987C137.242 20.5305 136.627 22.3572 136.31 23.258L135.734 24.8957L135.091 23.258C133.444 19.0614 132.225 16.1686 132.024 15.9863C131.835 15.8133 131.557 15.7815 129.956 15.7497C128.393 15.7185 128.097 15.7383 128.044 15.8772ZM159.079 22.9962V30.0408H160.884H162.69V22.9962V15.9515H160.884H159.079V22.9962ZM21.6199 17.6166C19.9725 17.7052 18.16 17.9891 17.3876 18.2797C16.3607 18.6659 15.7185 19.6964 15.8558 20.7376C15.9364 21.3484 16.3943 21.7098 17.4469 21.9933C20.3373 22.772 23.0047 22.5218 24.8118 21.3023C25.1806 21.0534 25.5833 20.7135 25.7068 20.5469L25.9311 20.244L25.6908 19.4935C25.4115 18.6214 24.8451 17.8891 24.3268 17.73C23.7866 17.5641 23.1179 17.5361 21.6199 17.6166ZM119.914 18.7195C119.085 18.9595 118.2 19.7461 117.828 20.5746C117.402 21.5221 117.161 21.4552 120.993 21.4552C123.732 21.4552 124.386 21.4272 124.386 21.3096C124.386 21.2296 124.303 20.9204 124.202 20.6227C123.956 19.8952 123.091 19.0256 122.368 18.7777C121.777 18.5754 120.515 18.5455 119.914 18.7195ZM88.298 19.1567C87.5279 19.4545 86.6055 20.32 86.2226 21.104C85.9467 21.6691 85.9168 21.8434 85.9168 22.8884C85.9168 23.9732 85.9394 24.0926 86.2736 24.7753C86.6887 25.6236 87.2821 26.2057 88.1473 26.6137C88.6707 26.8605 88.9091 26.9034 89.7473 26.9017C90.6084 26.8998 90.8051 26.8613 91.3108 26.5951C92.5071 25.9655 93.2787 24.9168 93.5133 23.6016C93.8415 21.7608 92.7533 19.7901 91.0561 19.1514C90.2552 18.8501 89.0856 18.8523 88.298 19.1567ZM170.613 19.0733C168.7 19.7024 167.577 21.8293 168.092 23.8492C168.426 25.1596 169.077 26.0265 170.156 26.5963C170.663 26.8641 170.855 26.9019 171.719 26.9028C172.577 26.9036 172.793 26.8624 173.393 26.584C174.256 26.1831 175.054 25.3349 175.398 24.4543C175.585 23.9723 175.646 23.5853 175.652 22.8288C175.658 21.9208 175.628 21.7728 175.299 21.1009C174.898 20.2821 174.253 19.6381 173.439 19.2457C172.8 18.9377 171.303 18.8463 170.613 19.0733ZM34.312 22.119C34.1416 22.3024 33.919 22.7045 33.8173 23.0125C33.5668 23.7711 33.6382 25.1853 33.9582 25.803C34.1978 26.2654 34.7429 26.8742 35.1695 27.1559C35.3998 27.3078 35.4481 27.3034 35.7168 27.1053C36.1677 26.773 36.3944 26.2254 36.3928 25.4728C36.3899 24.2077 35.9024 22.7382 35.2764 22.1087C34.8708 21.7007 34.6987 21.7026 34.312 22.119ZM25.9878 22.7843C24.4998 23.5138 23.8727 23.9234 23.7168 24.2674C23.647 24.4215 23.5899 24.9823 23.5899 25.5139C23.5899 26.7198 23.6886 26.8333 25.0673 27.2137C26.8276 27.6992 27.1073 27.7436 27.6953 27.6303C28.3785 27.4988 30.5299 26.3583 30.7593 26.0061C30.9452 25.7207 30.9779 25.4166 30.9445 24.281C30.9151 23.2811 30.6843 23.0445 29.2794 22.5737C27.7834 22.0726 27.3881 22.0978 25.9878 22.7843ZM30.8603 28.2604C29.199 29.2163 29.0162 29.4771 28.6051 31.4788C28.4303 32.33 28.5615 32.509 29.8417 33.1671C30.6387 33.5768 30.9328 33.6766 31.1902 33.6249C31.7021 33.5219 33.5407 32.4531 33.7748 32.1224C34.1888 31.5377 34.4679 29.3585 34.2147 28.6886C34.1594 28.5424 33.8574 28.2172 33.5437 27.9659C32.7191 27.3056 32.4727 27.3327 30.8603 28.2604Z" fill="white"/>
</svg>
