<svg width="151" height="42" viewBox="0 0 151 42" fill="none" xmlns="http://www.w3.org/2000/svg">
<path d="M25.5507 2.83347C23.6587 1.53282 21.1899 0.88092 18.1441 0.88092H6.35271C5.41901 0.88092 4.90316 1.34788 4.80518 2.28091L0.0150355 32.3492C-0.0347469 32.6445 0.039138 32.9146 0.236015 33.1602C0.431765 33.4061 0.677974 33.5285 0.972838 33.5285H6.57369C7.55605 33.5285 8.09599 33.0626 8.19511 32.1285L9.52143 24.0223C9.56987 23.6294 9.74264 23.31 10.0375 23.064C10.3321 22.8185 10.7007 22.6579 11.1429 22.5842C11.585 22.5112 12.002 22.4745 12.3957 22.4745C12.7884 22.4745 13.2549 22.4993 13.7962 22.5482C14.3361 22.5973 14.6803 22.6212 14.8279 22.6212C19.0528 22.6212 22.3691 21.4307 24.7769 19.0472C27.1836 16.6646 28.3883 13.361 28.3883 9.13488C28.3883 6.23646 27.4417 4.13614 25.5507 2.83347ZM19.4709 11.8619C19.2245 13.5817 18.5865 14.7112 17.5549 15.2518C16.5229 15.7931 15.0491 16.0623 13.1332 16.0623L10.7011 16.1359L11.9542 8.25028C12.052 7.71034 12.3712 7.44002 12.912 7.44002H14.3127C16.277 7.44002 17.7026 7.72318 18.587 8.28723C19.4709 8.85263 19.7658 10.0445 19.4709 11.8619Z" fill="white"/>
<path d="M149.988 0.88092H144.534C143.993 0.88092 143.674 1.15123 143.576 1.69186L138.786 32.3494L138.712 32.4968C138.712 32.7436 138.81 32.9759 139.007 33.1971C139.203 33.4179 139.449 33.5285 139.744 33.5285H144.608C145.54 33.5285 146.056 33.0626 146.156 32.1285L150.946 1.98582V1.91261C150.946 1.22489 150.626 0.88092 149.988 0.88092Z" fill="white"/>
<path d="M84.1023 12.7456C84.1023 12.5005 84.0034 12.2667 83.8081 12.0459C83.611 11.8249 83.3896 11.7139 83.1447 11.7139H77.47C76.9285 11.7139 76.4865 11.9608 76.1434 12.4507L68.3317 23.9479L65.0891 12.8933C64.8424 12.1078 64.3025 11.7139 63.4679 11.7139H57.9398C57.6936 11.7139 57.4726 11.8247 57.2773 12.0459C57.0802 12.2667 56.9824 12.5007 56.9824 12.7456C56.9824 12.8447 57.4616 14.2933 58.4194 17.0937C59.3772 19.8948 60.4088 22.9165 61.5144 26.1593C62.62 29.4015 63.1969 31.122 63.2462 31.3173C59.2172 36.8204 57.2034 39.7684 57.2034 40.1608C57.2034 40.8 57.5224 41.119 58.1614 41.119H63.8362C64.3763 41.119 64.8183 40.8739 65.1627 40.3824L83.9554 13.2614C84.0532 13.1639 84.1023 12.9927 84.1023 12.7456Z" fill="white"/>
<path d="M136.943 11.7138H131.342C130.654 11.7138 130.237 12.5248 130.09 14.1462C128.811 12.1817 126.479 11.198 123.088 11.198C119.551 11.198 116.541 12.5248 114.06 15.1779C111.579 17.831 110.339 20.9515 110.339 24.5376C110.339 27.437 111.186 29.7459 112.881 31.4648C114.576 33.1856 116.848 34.0443 119.699 34.0443C121.123 34.0443 122.572 33.7489 124.046 33.1599C125.52 32.5704 126.674 31.7847 127.51 30.8017C127.51 30.851 127.46 31.0717 127.363 31.4646C127.264 31.8583 127.215 32.1537 127.215 32.349C127.215 33.136 127.534 33.528 128.174 33.528H133.259C134.191 33.528 134.732 33.0621 134.88 32.128L137.901 12.8931C137.95 12.5982 137.876 12.3284 137.68 12.0824C137.483 11.8371 137.238 11.7138 136.943 11.7138ZM127.326 26.2325C126.073 27.4608 124.562 28.0747 122.794 28.0747C121.368 28.0747 120.215 27.6823 119.33 26.8957C118.445 26.1109 118.003 25.0298 118.003 23.653C118.003 21.8363 118.617 20.2998 119.846 19.0472C121.073 17.7943 122.597 17.1678 124.415 17.1678C125.789 17.1678 126.932 17.5733 127.842 18.3835C128.75 19.1945 129.205 20.3124 129.205 21.7374C129.205 23.506 128.579 25.0048 127.326 26.2325Z" fill="white"/>
<path d="M53.2241 11.7138H47.623C46.9342 11.7138 46.5174 12.5248 46.3699 14.1462C45.0433 12.1817 42.7094 11.198 39.3686 11.198C35.8311 11.198 32.8214 12.5248 30.3407 15.1779C27.8592 17.831 26.6191 20.9515 26.6191 24.5376C26.6191 27.437 27.4668 29.7459 29.1619 31.4648C30.8569 33.1856 33.1287 34.0443 35.9787 34.0443C37.3537 34.0443 38.7793 33.7489 40.253 33.1599C41.7268 32.5704 42.9061 31.7847 43.7904 30.8017C43.5933 31.3912 43.4956 31.9072 43.4956 32.349C43.4956 33.136 43.8148 33.528 44.4536 33.528H49.5386C50.4714 33.528 51.0125 33.0621 51.16 32.128L54.1814 12.8931C54.2299 12.5982 54.1564 12.3284 53.9605 12.0824C53.7638 11.8371 53.5183 11.7138 53.2241 11.7138ZM43.6064 26.269C42.3533 27.4741 40.8172 28.0747 39.0005 28.0747C37.5749 28.0747 36.4326 27.6823 35.5734 26.8957C34.7132 26.1109 34.2836 25.0298 34.2836 23.653C34.2836 21.8363 34.8974 20.2998 36.1262 19.0472C37.3537 17.7943 38.8769 17.1678 40.6954 17.1678C42.0704 17.1678 43.2127 17.5733 44.1225 18.3835C45.0307 19.1945 45.4857 20.3124 45.4857 21.7374C45.4857 23.5553 44.8593 25.0665 43.6064 26.269Z" fill="white"/>
<path d="M109.27 2.83347C107.379 1.53282 104.91 0.88092 101.864 0.88092H90.1463C89.1631 0.88092 88.6225 1.34788 88.5249 2.28091L83.7348 32.3492C83.685 32.6445 83.7587 32.9146 83.9558 33.1602C84.1508 33.4061 84.3977 33.5285 84.6926 33.5285H90.7354C91.3249 33.5285 91.7178 33.2095 91.9146 32.5706L93.2414 24.0223C93.2901 23.6294 93.4622 23.31 93.7573 23.064C94.0521 22.8185 94.4202 22.6579 94.8628 22.5842C95.3048 22.5112 95.7217 22.4745 96.1157 22.4745C96.5083 22.4745 96.9749 22.4993 97.5155 22.5482C98.0559 22.5973 98.4008 22.6212 98.5472 22.6212C102.773 22.6212 106.089 21.4307 108.496 19.0472C110.904 16.6646 112.108 13.361 112.108 9.13488C112.108 6.23646 111.161 4.13614 109.27 2.83347ZM101.717 14.9569C100.636 15.6938 99.0141 16.0621 96.8528 16.0621L94.4943 16.1357L95.7474 8.25006C95.8447 7.71011 96.1639 7.4398 96.7052 7.4398H98.0313C99.1119 7.4398 99.9717 7.48891 100.611 7.5869C101.249 7.68578 101.864 7.99214 102.454 8.50798C103.044 9.02383 103.338 9.77349 103.338 10.7558C103.338 12.8197 102.797 14.2194 101.717 14.9569Z" fill="white"/>
</svg>
